<svg height="504pt" viewBox="-34 0 504 504" width="504pt" xmlns="http://www.w3.org/2000/svg"><path d="m47.65625 153.554688v196.890624l170.511719 98.441407 170.507812-98.441407v-196.890624l-170.507812-98.441407zm0 0" fill="#fcc24c"/><path d="m368.496094 141.90625v220.1875l20.179687-11.648438v-196.890624zm0 0" fill="#dea42e"/><path d="m67.839844 141.90625v220.1875l-20.183594-11.648438v-196.890624zm0 0" fill="#fce06a"/><path d="m88.4375 177.101562v149.796876l129.730469 74.902343 129.730469-74.902343v-149.796876l-129.730469-74.902343zm0 0" fill="#f4efed"/><g fill="#690589"><path d="m218.167969 452.886719c-.691407 0-1.378907-.179688-2-.535157l-170.507813-98.445312c-1.238281-.714844-2-2.035156-2-3.464844v-196.886718c0-1.425782.761719-2.75 2-3.460938l170.507813-98.445312c1.238281-.714844 2.761719-.714844 4 0l170.507812 98.445312c1.238281.710938 2 2.035156 2 3.460938v196.886718c0 1.429688-.761719 2.75-2 3.464844l-170.507812 98.445312c-.621094.355469-1.308594.535157-2 .535157zm-166.511719-104.753907 166.507812 96.136719 166.511719-96.136719v-192.265624l-166.511719-96.136719-166.507812 96.136719zm0 0"/><path d="m63.800781 229.167969c-2.207031 0-4-1.792969-4-4v-24c0-2.207031 1.792969-4 4-4 2.210938 0 4 1.792969 4 4v24c0 2.210937-1.789062 4-4 4zm0 0"/><path d="m218.167969 405.800781c-.691407 0-1.378907-.179687-2-.535156l-129.730469-74.902344c-1.238281-.714843-2-2.035156-2-3.464843v-149.796876c0-1.429687.761719-2.75 2-3.464843l129.730469-74.902344c1.238281-.710937 2.761719-.710937 4 0l129.730469 74.902344c1.238281.714843 2 2.035156 2 3.464843v149.796876c0 1.429687-.761719 2.75-2 3.464843l-129.730469 74.902344c-.621094.355469-1.308594.535156-2 .535156zm-125.730469-81.210937 125.730469 72.589844 125.730469-72.589844v-145.179688l-125.730469-72.589844-125.730469 72.589844zm0 0"/><path d="m218.59375 59.113281c-2.207031 0-4-1.792969-4-4v-51.113281c0-2.207031 1.792969-4 4-4s4 1.792969 4 4v51.113281c0 2.207031-1.792969 4-4 4zm0 0"/><path d="m218.59375 504c-2.207031 0-4-1.792969-4-4v-51.113281c0-2.207031 1.792969-4 4-4s4 1.792969 4 4v51.113281c0 2.207031-1.792969 4-4 4zm0 0"/><path d="m388.964844 157.308594c-1.382813 0-2.726563-.714844-3.464844-1.996094-1.109375-1.910156-.457031-4.355469 1.457031-5.464844l44.226563-25.621094c1.910156-1.105468 4.359375-.453124 5.464844 1.457032 1.109374 1.914062.457031 4.359375-1.453126 5.464844l-44.230468 25.621093c-.632813.367188-1.320313.539063-2 .539063zm0 0"/><path d="m4.003906 380.3125c-1.378906 0-2.722656-.714844-3.464844-1.996094-1.105468-1.914062-.4570308-4.359375 1.457032-5.464844l44.226562-25.621093c1.914063-1.109375 4.359375-.457031 5.46875 1.457031 1.105469 1.910156.453125 4.355469-1.457031 5.464844l-44.226563 25.621094c-.632812.363281-1.324218.539062-2.003906.539062zm0 0"/><path d="m48.222656 157.308594c-.679687 0-1.367187-.171875-2-.539063l-44.226562-25.621093c-1.9140628-1.105469-2.5625-3.550782-1.457032-5.464844 1.105469-1.910156 3.558594-2.5625 5.46875-1.457032l44.226563 25.621094c1.910156 1.109375 2.5625 3.554688 1.457031 5.464844-.742187 1.28125-2.085937 1.996094-3.46875 1.996094zm0 0"/><path d="m433.183594 380.3125c-.679688 0-1.371094-.175781-2-.539062l-44.226563-25.621094c-1.914062-1.109375-2.566406-3.554688-1.457031-5.464844 1.109375-1.914062 3.554688-2.566406 5.464844-1.457031l44.230468 25.621093c1.910157 1.105469 2.5625 3.550782 1.453126 5.464844-.742188 1.28125-2.085938 1.996094-3.464844 1.996094zm0 0"/></g><path d="m232.472656 32.632812c-12.40625-7.667968-28.679687-3.824218-36.347656 8.582032-7.667969 12.410156-3.824219 28.683594 8.582031 36.351562 12.40625 7.664063 28.679688 3.824219 36.347657-8.585937 7.667968-12.40625 3.824218-28.679688-8.582032-36.347657zm0 0" fill="#7bac51"/><path d="m226.253906 423.617188c-13.960937-4.226563-28.703125 3.664062-32.929687 17.621093-4.226563 13.960938 3.664062 28.703125 17.625 32.929688 13.957031 4.226562 28.699219-3.664063 32.925781-17.625 4.226562-13.957031-3.664062-28.699219-17.621094-32.925781zm0 0" fill="#7bac51"/><path d="m53.714844 325.792969c-14.195313-3.351563-28.417969 5.4375-31.769532 19.628906-3.351562 14.195313 5.4375 28.417969 19.632813 31.769531 14.191406 3.351563 28.414063-5.4375 31.765625-19.628906 3.351562-14.195312-5.4375-28.417969-19.628906-31.769531zm0 0" fill="#99ca6f"/><path d="m53.722656 128.460938c-14.195312-3.351563-28.417968 5.4375-31.769531 19.632812-3.351563 14.191406 5.4375 28.417969 19.632813 31.769531 14.195312 3.351563 28.417968-5.4375 31.769531-19.632812 3.351562-14.195313-5.4375-28.417969-19.632813-31.769531zm0 0" fill="#99ca6f"/><path d="m407.601562 333.019531c-10.175781-10.449219-26.894531-10.671875-37.34375-.5-10.449218 10.175781-10.675781 26.894531-.5 37.34375 10.175782 10.453125 26.894532 10.675781 37.34375.5 10.449219-10.171875 10.671876-26.894531.5-37.34375zm0 0" fill="#5d8e33"/><path d="m407.589844 135.703125c-10.171875-10.449219-26.890625-10.671875-37.34375-.496094-10.449219 10.171875-10.671875 26.890625-.496094 37.34375 10.171875 10.449219 26.890625 10.671875 37.34375.496094 10.449219-10.171875 10.671875-26.890625.496094-37.34375zm0 0" fill="#5d8e33"/><path d="m218.59375 85.523438c-16.769531 0-30.410156-13.644532-30.410156-30.410157 0-16.769531 13.640625-30.410156 30.410156-30.410156s30.410156 13.644531 30.410156 30.410156c0 16.769531-13.640625 30.410157-30.410156 30.410157zm0-52.820313c-12.355469 0-22.410156 10.054687-22.410156 22.410156 0 12.359375 10.054687 22.410157 22.410156 22.410157s22.410156-10.054688 22.410156-22.410157c0-12.359375-10.054687-22.410156-22.410156-22.410156zm0 0" fill="#690589"/><path d="m218.59375 479.296875c-16.769531 0-30.410156-13.644531-30.410156-30.410156 0-16.769531 13.640625-30.410157 30.410156-30.410157s30.410156 13.640626 30.410156 30.410157c0 16.765625-13.640625 30.410156-30.410156 30.410156zm0-52.820313c-12.355469 0-22.410156 10.054688-22.410156 22.410157 0 12.359375 10.050781 22.410156 22.410156 22.410156s22.410156-10.050781 22.410156-22.410156c0-12.355469-10.054687-22.410157-22.410156-22.410157zm0 0" fill="#690589"/><path d="m47.65625 381.878906c-16.765625 0-30.410156-13.640625-30.410156-30.40625 0-16.769531 13.644531-30.410156 30.410156-30.410156 16.769531 0 30.410156 13.640625 30.410156 30.410156 0 16.765625-13.640625 30.40625-30.410156 30.40625zm0-52.816406c-12.355469 0-22.410156 10.050781-22.410156 22.410156 0 12.355469 10.054687 22.40625 22.410156 22.40625 12.359375 0 22.410156-10.050781 22.410156-22.40625 0-12.355468-10.050781-22.410156-22.410156-22.410156zm0 0" fill="#690589"/><path d="m47.65625 184.558594c-16.765625 0-30.410156-13.640625-30.410156-30.410156 0-16.765626 13.644531-30.410157 30.410156-30.410157 16.769531 0 30.410156 13.644531 30.410156 30.410157 0 16.769531-13.640625 30.410156-30.410156 30.410156zm0-52.816406c-12.355469 0-22.410156 10.050781-22.410156 22.410156 0 12.355468 10.054687 22.40625 22.410156 22.40625 12.359375 0 22.410156-10.050782 22.410156-22.40625 0-12.359375-10.050781-22.410156-22.410156-22.410156zm0 0" fill="#690589"/><path d="m388.675781 381.878906c-16.769531 0-30.40625-13.640625-30.40625-30.40625 0-16.769531 13.636719-30.410156 30.40625-30.410156s30.410157 13.640625 30.410157 30.410156c0 16.765625-13.640626 30.40625-30.410157 30.40625zm0-52.816406c-12.355469 0-22.40625 10.050781-22.40625 22.410156 0 12.355469 10.050781 22.40625 22.40625 22.40625s22.410157-10.050781 22.410157-22.40625c0-12.355468-10.054688-22.410156-22.410157-22.410156zm0 0" fill="#690589"/><path d="m388.675781 184.558594c-16.769531 0-30.40625-13.640625-30.40625-30.410156 0-16.765626 13.636719-30.410157 30.40625-30.410157s30.410157 13.644531 30.410157 30.410157c0 16.769531-13.640626 30.410156-30.410157 30.410156zm0-52.816406c-12.355469 0-22.40625 10.050781-22.40625 22.410156 0 12.355468 10.050781 22.40625 22.40625 22.40625s22.410157-10.050782 22.410157-22.40625c0-12.359375-10.054688-22.410156-22.410157-22.410156zm0 0" fill="#690589"/><path d="m261.691406 272.042969h25.207032l-34.367188-51.59375-4.320312-6.488281h25.804687l-27.921875-41.925782-27.925781-41.929687-27.925781 41.929687-27.925782 41.925782h25.804688l-4.320313 6.488281-34.363281 51.59375h25.203125l-39.011719 58.574219h165.074219zm0 0" fill="#7bac51"/><path d="m286.898438 272.042969-34.367188-51.59375-4.320312-6.488281h-.699219c-8.328125 0-13.300781 9.28125-8.683594 16.214843l3.121094 4.679688 24.769531 37.1875zm0 0" fill="#5d8e33"/><path d="m274.015625 213.960938-27.921875-41.925782-27.925781-41.929687 35.667969 83.855469zm0 0" fill="#5d8e33"/><path d="m261.691406 272.042969c-8.628906 0-13.777344 9.613281-8.992187 16.796875l27.824219 41.777344h20.179687zm0 0" fill="#5d8e33"/><path d="m149.4375 272.042969 34.363281-51.59375 4.320313-6.488281h.699218c8.332032 0 13.300782 9.28125 8.683594 16.214843l-3.117187 4.679688-24.769531 37.1875zm0 0" fill="#99ca6f"/><path d="m162.316406 213.960938 27.925782-41.925782 27.925781-41.929687-35.671875 83.855469zm0 0" fill="#99ca6f"/><path d="m174.640625 272.042969c8.628906 0 13.777344 9.613281 8.996094 16.796875l-27.828125 41.777344h-20.179688zm0 0" fill="#99ca6f"/><path d="m300.703125 334.617188h-165.074219c-1.472656 0-2.828125-.8125-3.523437-2.109376-.699219-1.300781-.621094-2.878906.195312-4.109374l34.875-52.355469h-17.738281c-1.472656 0-2.828125-.8125-3.527344-2.109375-.695312-1.300782-.617187-2.878906.199219-4.109375l34.542969-51.863281h-18.332032c-1.472656 0-2.832031-.8125-3.527343-2.113282-.695313-1.300781-.617188-2.878906.199219-4.105468l55.851562-83.855469c.738281-1.113281 1.988281-1.78125 3.328125-1.78125s2.589844.667969 3.328125 1.78125l55.851562 83.855469c.816407 1.226562.894532 2.804687.199219 4.105468-.695312 1.300782-2.054687 2.113282-3.527343 2.113282h-18.332032l34.542969 51.863281c.816406 1.230469.894531 2.808593.199219 4.109375-.699219 1.296875-2.054688 2.109375-3.527344 2.109375h-17.738281l34.867187 52.355469c.816406 1.230468.894532 2.808593.195313 4.109374-.695313 1.296876-2.050781 2.109376-3.527344 2.109376zm-157.601563-8h150.128907l-34.871094-52.355469c-.816406-1.226563-.894531-2.804688-.199219-4.105469.699219-1.300781 2.054688-2.113281 3.527344-2.113281h17.738281l-34.546875-51.863281c-.820312-1.230469-.894531-2.808594-.199218-4.109376.695312-1.296874 2.050781-2.109374 3.527343-2.109374h18.335938l-48.382813-72.640626-48.378906 72.640626h18.335938c1.476562 0 2.832031.8125 3.527343 2.109374.695313 1.300782.621094 2.878907-.199219 4.109376l-34.546874 51.863281h17.738281c1.472656 0 2.828125.8125 3.523437 2.113281.699219 1.300781.621094 2.878906-.195312 4.105469zm0 0" fill="#690589"/></svg>