<svg height="504pt" viewBox="-70 0 504 504" width="504pt" xmlns="http://www.w3.org/2000/svg"><path d="m181.675781 220.820312h-113.5625l113.5625-111.632812 113.5625 111.632812zm0 0" fill="#fcc24c"/><path d="m181.675781 109.1875 76.355469 111.632812h37.207031zm0 0" fill="#dea42e"/><path d="m181.675781 109.1875-76.355469 111.632812h-37.207031zm0 0" fill="#fce06a"/><path d="m295.238281 224.820312h-227.125c-1.625 0-3.085937-.980468-3.703125-2.484374-.613281-1.503907-.261718-3.230469.898438-4.371094l113.5625-111.628906c1.558594-1.53125 4.050781-1.53125 5.609375 0l113.5625 111.628906c1.15625 1.140625 1.511719 2.863281.894531 4.371094-.613281 1.5-2.074219 2.484374-3.699219 2.484374zm-217.351562-8h207.574219l-103.785157-102.023437zm0 0" fill="#690589"/><path d="m220.820312 125.496094h-39.144531v-121.496094h39.144531zm0 0" fill="#fcc24c"/><path d="m237.855469 220.820312v-39.144531h121.496093v39.144531zm0 0" fill="#fcc24c"/><path d="m156.476562 399.550781h50.398438c5.820312 0 10.539062 4.71875 10.539062 10.542969v89.90625h73.410157l-32.792969-279.179688h-152.710938l-32.792968 279.179688h73.410156v-89.910156c0-5.820313 4.71875-10.539063 10.539062-10.539063zm0 0" fill="#f4efed"/><path d="m258.03125 220.820312h-21.078125l32.792969 279.179688h21.078125zm0 0" fill="#d6d1cf"/><path d="m105.320312 220.820312h21.078126l-32.792969 279.179688h-21.078125zm0 0" fill="#fff"/><path d="m208.371094 343.878906h-53.390625v-38.8125c0-14.742187 11.953125-26.695312 26.695312-26.695312 14.746094 0 26.695313 11.953125 26.695313 26.695312zm0 0" fill="#7bac51"/><g fill="#690589"><path d="m290.824219 504h-73.410157c-2.207031 0-4-1.792969-4-4v-89.910156c0-3.605469-2.933593-6.539063-6.539062-6.539063h-50.398438c-3.605468 0-6.539062 2.933594-6.539062 6.539063v89.910156c0 2.207031-1.792969 4-4 4h-73.410156c-1.140625 0-2.230469-.488281-2.988282-1.34375-.757812-.851562-1.117187-1.988281-.984374-3.121094l32.792968-279.179687c.238282-2.015625 1.945313-3.535157 3.972656-3.535157h152.710938c2.027344 0 3.734375 1.519532 3.972656 3.535157l32.789063 279.179687c.132812 1.132813-.222657 2.269532-.984375 3.121094-.753906.855469-1.839844 1.34375-2.984375 1.34375zm-69.410157-8h64.910157l-31.851563-271.179688h-145.59375l-31.851562 271.179688h64.910156v-85.910156c0-8.015625 6.523438-14.539063 14.539062-14.539063h50.398438c8.019531 0 14.539062 6.519531 14.539062 14.539063zm0 0"/><path d="m114.433594 291.824219c-.15625 0-.3125-.007813-.472656-.027344-2.191407-.257813-3.761719-2.246094-3.503907-4.4375l2.96875-25.292969c.257813-2.195312 2.257813-3.765625 4.441407-3.507812 2.191406.257812 3.761718 2.246094 3.503906 4.441406l-2.96875 25.292969c-.242188 2.035156-1.96875 3.53125-3.96875 3.53125zm0 0"/><path d="m208.371094 347.878906h-53.390625c-2.207031 0-4-1.789062-4-4v-38.8125c0-16.925781 13.773437-30.695312 30.699219-30.695312 16.925781 0 30.695312 13.769531 30.695312 30.695312v38.8125c-.003906 2.210938-1.796875 4-4.003906 4zm-49.390625-8h45.390625v-34.8125c0-12.515625-10.183594-22.695312-22.695313-22.695312-12.515625 0-22.699219 10.179687-22.699219 22.695312v34.8125zm0 0"/></g><path d="m208.171875 4h12.644531v121.496094h-12.644531zm0 0" fill="#dea42e"/><path d="m220.816406 129.496094h-39.140625c-2.207031 0-4-1.789063-4-4v-121.496094c0-2.207031 1.792969-4 4-4h39.140625c2.210938 0 4 1.792969 4 4v121.496094c0 2.210937-1.789062 4-4 4zm-35.140625-8h31.140625v-113.496094h-31.140625zm0 0" fill="#690589"/><path d="m181.675781 185.675781c-2.207031 0-4-1.792969-4-4v-177.675781c0-2.207031 1.792969-4 4-4s4 1.792969 4 4v177.675781c0 2.210938-1.792969 4-4 4zm0 0" fill="#690589"/><path d="m338.273438 181.675781h21.078124v39.144531h-21.078124zm0 0" fill="#dea42e"/><path d="m359.351562 224.820312h-121.496093c-2.207031 0-4-1.792968-4-4v-39.144531c0-2.207031 1.792969-4 4-4h121.496093c2.207032 0 4 1.792969 4 4v39.140625c0 2.210938-1.792968 4.003906-4 4.003906zm-117.496093-8h113.496093v-31.144531h-113.496093zm0 0" fill="#690589"/><path d="m359.351562 185.675781h-177.675781c-2.207031 0-4-1.792969-4-4s1.792969-4 4-4h177.675781c2.207032 0 4 1.792969 4 4s-1.792968 4-4 4zm0 0" fill="#690589"/><path d="m125.496094 142.53125v39.144531h-121.496094v-39.144531zm0 0" fill="#fcc24c"/><path d="m4 142.535156h21.078125v39.144532h-21.078125zm0 0" fill="#fce06a"/><path d="m125.496094 185.675781h-121.496094c-2.207031 0-4-1.792969-4-4v-39.140625c0-2.210937 1.792969-4 4-4h121.496094c2.207031 0 4 1.789063 4 4v39.144532c0 2.207031-1.789063 3.996093-4 3.996093zm-117.496094-8h113.496094v-31.140625h-113.496094zm0 0" fill="#690589"/><path d="m181.675781 185.675781h-177.675781c-2.207031 0-4-1.792969-4-4s1.792969-4 4-4h177.675781c2.207031 0 4 1.792969 4 4s-1.792969 4-4 4zm0 0" fill="#690589"/><path d="m142.53125 237.855469h39.144531v121.496093h-39.144531zm0 0" fill="#fcc24c"/><path d="m142.53125 237.855469h12.648438v121.496093h-12.648438zm0 0" fill="#fce06a"/><path d="m181.675781 363.351562h-39.140625c-2.210937 0-4-1.792968-4-4v-121.496093c0-2.207031 1.789063-4 4-4h39.140625c2.207031 0 4 1.792969 4 4v121.496093c0 2.210938-1.792969 4-4 4zm-35.140625-8h31.140625v-113.496093h-31.140625zm0 0" fill="#690589"/><path d="m181.675781 363.351562c-2.207031 0-4-1.792968-4-4v-177.675781c0-2.207031 1.792969-4 4-4s4 1.792969 4 4v177.675781c0 2.210938-1.792969 4-4 4zm0 0" fill="#690589"/><path d="m204.050781 181.675781c0 12.359375-10.015625 22.375-22.375 22.375s-22.375-10.015625-22.375-22.375 10.015625-22.375 22.375-22.375 22.375 10.015625 22.375 22.375zm0 0" fill="#ff4397"/><path d="m181.675781 208.050781c-14.542969 0-26.375-11.832031-26.375-26.375s11.832031-26.375 26.375-26.375 26.375 11.832031 26.375 26.375-11.832031 26.375-26.375 26.375zm0-44.75c-10.132812 0-18.375 8.242188-18.375 18.375 0 10.132813 8.242188 18.375 18.375 18.375 10.132813 0 18.375-8.242187 18.375-18.375 0-10.132812-8.242187-18.375-18.375-18.375zm0 0" fill="#690589"/></svg>