<svg height="504pt" viewBox="0 -89 504 503" width="504pt" xmlns="http://www.w3.org/2000/svg"><path d="m410.679688 163.179688c0 87.632812-71.042969 158.675781-158.679688 158.675781s-158.679688-71.042969-158.679688-158.675781c0-87.636719 71.042969-158.679688 158.679688-158.679688s158.679688 71.042969 158.679688 158.679688zm0 0" fill="#f4efed"/><path d="m252 4.5c-3.660156 0-7.285156.167969-10.886719.414062 82.550781 5.601563 147.792969 74.292969 147.792969 158.265626 0 83.96875-65.242188 152.664062-147.792969 158.261718 3.601563.246094 7.222657.414063 10.886719.414063 87.636719 0 158.679688-71.042969 158.679688-158.675781 0-87.636719-71.042969-158.679688-158.679688-158.679688zm0 0" fill="#d6d1cf"/><path d="m252 4.5c3.660156 0 7.285156.167969 10.886719.414062-82.550781 5.597657-147.792969 74.292969-147.792969 158.265626 0 83.96875 65.242188 152.664062 147.792969 158.261718-3.601563.246094-7.222657.414063-10.886719.414063-87.636719 0-158.679688-71.042969-158.679688-158.675781 0-87.636719 71.042969-158.679688 158.679688-158.679688zm0 0" fill="#fff"/><path d="m361.734375 163.179688c0 60.601562-49.128906 109.730468-109.734375 109.730468s-109.734375-49.128906-109.734375-109.730468c0-60.605469 49.128906-109.734376 109.734375-109.734376s109.734375 49.128907 109.734375 109.734376zm0 0" fill="#d6d1cf"/><path d="m266.660156 101.109375c-34.292968-8.097656-68.65625 13.136719-76.753906 47.429687-8.097656 34.292969 13.136719 68.660157 47.429688 76.757813 34.296874 8.097656 68.660156-13.140625 76.757812-47.433594s-13.136719-68.65625-47.433594-76.753906zm0 0" fill="#ff4397"/><path d="m252 99.375c-2.535156 0-5.027344.164062-7.484375.449219 31.707031 3.710937 56.320313 30.648437 56.320313 63.355469 0 32.703124-24.613282 59.640624-56.320313 63.351562 2.457031.289062 4.949219.453125 7.484375.453125 35.238281 0 63.804688-28.570313 63.804688-63.804687 0-35.238282-28.566407-63.804688-63.804688-63.804688zm0 0" fill="#e12579"/><path d="m252 226.980469c2.535156 0 5.027344-.164063 7.484375-.449219-31.707031-3.710938-56.320313-30.648438-56.320313-63.351562 0-32.707032 24.609376-59.644532 56.320313-63.355469-2.457031-.289063-4.953125-.453125-7.484375-.453125-35.238281 0-63.804688 28.570312-63.804688 63.808594 0 35.234374 28.566407 63.800781 63.804688 63.800781zm0 0" fill="#ff61b5"/><path d="m252 230.980469c-37.386719 0-67.804688-30.417969-67.804688-67.800781 0-37.386719 30.417969-67.804688 67.804688-67.804688s67.804688 30.417969 67.804688 67.804688c0 37.382812-30.417969 67.800781-67.804688 67.800781zm0-127.605469c-32.976562 0-59.804688 26.828125-59.804688 59.804688 0 32.972656 26.828126 59.800781 59.804688 59.800781s59.804688-26.828125 59.804688-59.800781c0-32.976563-26.828126-59.804688-59.804688-59.804688zm0 0" fill="#690589"/><path d="m285.273438 144.019531-14.117188-14.113281-19.15625 19.15625-19.15625-19.15625-14.117188 14.113281 19.160157 19.160157-19.160157 19.15625 14.117188 14.113281 19.15625-19.15625 19.15625 19.15625 14.117188-14.113281-19.160157-19.15625zm0 0" fill="#f4efed"/><g fill="#690589"><path d="m271.15625 200.449219c-1.023438 0-2.042969-.390625-2.828125-1.171875l-16.328125-16.328125-16.328125 16.328125c-1.5625 1.5625-4.097656 1.5625-5.65625 0l-14.117187-14.113282c-.75-.75-1.171876-1.769531-1.171876-2.828124 0-1.058594.421876-2.078126 1.171876-2.828126l16.332031-16.328124-16.332031-16.332032c-.75-.75-1.171876-1.769531-1.171876-2.828125 0-1.058593.421876-2.078125 1.171876-2.828125l14.117187-14.113281c1.558594-1.5625 4.09375-1.5625 5.65625 0l16.328125 16.328125 16.328125-16.328125c1.5625-1.5625 4.097656-1.5625 5.65625 0l14.117187 14.113281c.75.75 1.171876 1.769532 1.171876 2.828125 0 1.058594-.421876 2.078125-1.171876 2.828125l-16.332031 16.332032 16.332031 16.328124c.75.75 1.171876 1.769532 1.171876 2.828126 0 1.058593-.421876 2.078124-1.171876 2.828124l-14.117187 14.113282c-.777344.78125-1.800781 1.171875-2.828125 1.171875zm-19.15625-27.15625c1.023438 0 2.046875.390625 2.828125 1.171875l16.328125 16.328125 8.460938-8.457031-16.332032-16.328126c-.75-.75-1.171875-1.769531-1.171875-2.828124 0-1.0625.421875-2.078126 1.171875-2.828126l16.332032-16.332031-8.460938-8.457031-16.328125 16.328125c-1.5625 1.5625-4.09375 1.5625-5.65625 0l-16.328125-16.328125-8.460938 8.457031 16.332032 16.332031c.75.75 1.171875 1.765626 1.171875 2.828126 0 1.058593-.421875 2.078124-1.171875 2.828124l-16.332032 16.328126 8.460938 8.457031 16.328125-16.328125c.78125-.78125 1.804687-1.171875 2.828125-1.171875zm0 0"/><path d="m252 325.855469c-89.703125 0-162.679688-72.976563-162.679688-162.675781 0-89.703126 72.976563-162.679688 162.679688-162.679688s162.679688 72.976562 162.679688 162.679688c0 89.699218-72.976563 162.675781-162.679688 162.675781zm0-317.355469c-85.289062 0-154.679688 69.386719-154.679688 154.679688 0 85.289062 69.390626 154.675781 154.679688 154.675781s154.679688-69.386719 154.679688-154.675781c0-85.292969-69.390626-154.679688-154.679688-154.679688zm0 0"/><path d="m128.421875 97.894531c-.710937 0-1.429687-.1875-2.082031-.585937-1.882813-1.152344-2.476563-3.613282-1.328125-5.5 5.191406-8.492188 11.015625-16.714844 17.3125-24.441406 1.398437-1.710938 3.917969-1.964844 5.628906-.570313s1.96875 3.914063.570313 5.625c-6.070313 7.445313-11.683594 15.371094-16.683594 23.558594-.753906 1.238281-2.070313 1.914062-3.417969 1.914062zm0 0"/><path d="m252 276.910156c-62.710938 0-113.734375-51.019531-113.734375-113.730468 0-62.714844 51.023437-113.734376 113.734375-113.734376s113.734375 51.019532 113.734375 113.734376c0 62.710937-51.023437 113.730468-113.734375 113.730468zm0-219.464844c-58.300781 0-105.734375 47.429688-105.734375 105.734376 0 58.300781 47.433594 105.730468 105.734375 105.730468s105.734375-47.429687 105.734375-105.730468c0-58.304688-47.433594-105.734376-105.734375-105.734376zm0 0"/></g><path d="m418.644531 61.105469v25.222656c0 17.828125 11.484375 32.9375 27.441407 38.433594l-3.511719 179.941406c-.222657 9.40625 7.335937 17.152344 16.746093 17.152344 9.410157 0 16.972657-7.746094 16.75-17.152344l-3.511718-179.941406c15.957031-5.496094 27.441406-20.605469 27.441406-38.433594v-25.222656zm0 0" fill="#f4efed"/><path d="m486.9375 61.105469v18.691406c0 15.53125-8.714844 29-21.511719 35.84375-3.617187 1.933594-5.878906 5.695313-5.804687 9.796875l3.386718 194.503906c.011719.507813-.011718 1.007813-.042968 1.507813 7.636718-1.695313 13.300781-8.59375 13.101562-16.746094l-3.511718-179.941406c15.960937-5.496094 27.445312-20.605469 27.445312-38.433594v-25.222656zm0 0" fill="#d6d1cf"/><path d="m459.320312 325.855469c-5.632812 0-10.910156-2.21875-14.847656-6.253907-3.9375-4.035156-6.03125-9.359374-5.898437-14.992187l3.460937-177.117187c-16.5-6.921876-27.390625-23.109376-27.390625-41.164063v-25.222656c0-2.210938 1.792969-4 4-4h81.355469c2.207031 0 4 1.789062 4 4v25.222656c0 18.054687-10.890625 34.242187-27.386719 41.164063l3.457031 177.132812c.132813 5.617188-1.960937 10.941406-5.898437 14.976562-3.941406 4.035157-9.214844 6.253907-14.851563 6.253907zm-36.675781-260.75v21.222656c0 15.628906 9.945313 29.554687 24.746094 34.652344 1.640625.5625 2.730469 2.125 2.699219 3.859375l-3.515625 179.941406c-.085938 3.480469 1.203125 6.753906 3.625 9.230469 2.417969 2.476562 5.660156 3.84375 9.121093 3.84375 3.464844 0 6.707032-1.367188 9.125-3.84375 2.417969-2.476563 3.707032-5.75 3.625-9.210938l-3.515624-179.957031c-.035157-1.738281 1.054687-3.296875 2.699218-3.863281 14.796875-5.097657 24.742188-19.023438 24.742188-34.648438v-21.226562zm0 0" fill="#690589"/><path d="m418.644531 65.105469c-2.207031 0-4-1.792969-4-4v-56.605469c0-2.207031 1.792969-4 4-4s4 1.792969 4 4v56.605469c0 2.207031-1.789062 4-4 4zm0 0" fill="#690589"/><path d="m459.320312 65.105469c-2.207031 0-4-1.792969-4-4v-56.605469c0-2.207031 1.792969-4 4-4 2.210938 0 4 1.792969 4 4v56.605469c0 2.207031-1.789062 4-4 4zm0 0" fill="#690589"/><path d="m500 65.105469c-2.207031 0-4-1.792969-4-4v-56.605469c0-2.207031 1.792969-4 4-4s4 1.792969 4 4v56.605469c0 2.207031-1.792969 4-4 4zm0 0" fill="#690589"/><path d="m44.679688 4.5c-22.46875 0-40.679688 18.210938-40.679688 40.679688v41.148437c0 17.828125 11.484375 32.9375 27.441406 38.433594l-3.511718 179.941406c-.222657 9.40625 7.339843 17.152344 16.75 17.152344 9.410156 0 16.96875-7.746094 16.746093-17.152344l-3.511719-179.941406c15.960938-5.496094 27.441407-20.605469 27.441407-38.433594v-41.148437c0-22.46875-18.214844-40.679688-40.675781-40.679688zm0 0" fill="#f4efed"/><path d="m44.378906 127.617188c.074219-4.101563-2.1875-7.863282-5.804687-9.796876-12.796875-6.847656-21.511719-20.3125-21.511719-35.84375v-41.152343c0-15.460938 8.628906-28.910157 21.332031-35.789063-19.472656 3.027344-34.394531 19.820313-34.394531 40.144532v41.148437c0 17.828125 11.484375 32.9375 27.441406 38.433594l-3.511718 179.941406c-.195313 8.144531 5.453124 15.03125 13.074218 16.738281zm0 0" fill="#fff"/><path d="m44.679688 325.855469c-5.636719 0-10.910157-2.21875-14.851563-6.253907-3.9375-4.035156-6.03125-9.359374-5.894531-14.992187l3.457031-177.117187c-16.5-6.921876-27.390625-23.105469-27.390625-41.164063v-41.148437c0-24.636719 20.042969-44.679688 44.679688-44.679688 24.632812 0 44.675781 20.042969 44.675781 44.679688v41.148437c0 18.054687-10.890625 34.242187-27.386719 41.164063l3.457031 177.132812c.132813 5.617188-1.960937 10.941406-5.898437 14.976562-3.9375 4.035157-9.214844 6.253907-14.847656 6.253907zm0-317.355469c-20.226563 0-36.679688 16.453125-36.679688 36.679688v41.148437c0 15.628906 9.945312 29.554687 24.746094 34.652344 1.640625.5625 2.730468 2.125 2.699218 3.859375l-3.515624 179.941406c-.082032 3.480469 1.203124 6.753906 3.625 9.230469 2.417968 2.476562 5.660156 3.84375 9.125 3.84375 3.460937 0 6.703124-1.367188 9.121093-3.84375 2.417969-2.476563 3.710938-5.75 3.625-9.210938l-3.515625-179.957031c-.035156-1.738281 1.054688-3.296875 2.699219-3.863281 14.796875-5.097657 24.746094-19.023438 24.746094-34.648438v-41.152343c0-20.226563-16.453125-36.679688-36.675781-36.679688zm0 0" fill="#690589"/></svg>