<svg height="504pt" viewBox="-66 0 504 504" width="504pt" xmlns="http://www.w3.org/2000/svg"><path d="m367.542969 500h-343.539063c-11.046875 0-20-8.953125-20-20v-456c0-11.046875 8.953125-20 20-20h343.539063zm0 0" fill="#fcc24c"/><path d="m47.472656 4h-23.46875c-11.046875 0-20 8.953125-20 20v456c0 11.046875 8.953125 20 20 20h23.46875zm0 0" fill="#7bac51"/><path d="m347.542969 4h20v496h-20zm0 0" fill="#dea42e"/><path d="m106.226562 101.050781-29.375-20-29.378906 20v-97.050781h58.753906zm0 0" fill="#ff4397"/><path d="m24 480v-456c0-11.046875 8.953125-20 20-20h-20c-11.046875 0-20 8.953125-20 20v456c0 11.046875 8.953125 20 20 20h20c-11.042969 0-20-8.953125-20-20zm0 0" fill="#99ca6f"/><path d="m303.835938 412.589844h-196.019532c-12.003906 0-21.738281-9.730469-21.738281-21.734375 0-12.003907 9.734375-21.738281 21.738281-21.738281h196.015625c12.003907 0 21.734375 9.734374 21.734375 21.738281 0 12.003906-9.726562 21.734375-21.730468 21.734375zm0 0" fill="#f4efed"/><path d="m267.929688 290.828125c25.515624-3.933594 46.804687-13.644531 57.289062-24.8125-13.359375-7.488281-36.589844-10.339844-62.101562-6.402344-2.753907.421875-5.445313.925781-8.089844 1.480469 6.1875-4.75 12.355468-10.132812 18.335937-16.113281 22.882813-22.882813 37.214844-48.476563 39.539063-67.539063-19.058594 2.328125-44.65625 16.65625-67.539063 39.539063-7.871093 7.871093-14.703125 16.0625-20.410156 24.203125 3.902344-15.8125 6.117187-33.941406 6.117187-53.21875 0-41.265625-10.15625-77.269532-25.246093-96.554688-15.089844 19.28125-25.25 55.285156-25.25 96.554688 0 19.277344 2.21875 37.402344 6.121093 53.21875-5.710937-8.140625-12.539062-16.332032-20.410156-24.203125-22.882812-22.882813-48.480468-37.214844-67.539062-39.539063 2.328125 19.054688 16.65625 44.65625 39.539062 67.535156 5.984375 5.984376 12.148438 11.363282 18.335938 16.117188-2.644532-.554688-5.335938-1.058594-8.085938-1.484375-25.515625-3.933594-48.746094-1.085937-62.105468 6.40625 10.484374 11.167969 31.777343 20.878906 57.289062 24.8125 11.660156 1.796875 22.832031 2.164063 32.8125 1.332031-2.507812 1.5-5.023438 3.167969-7.519531 4.992188-13.203125 9.675781-22.339844 21.371094-24.972657 30.71875 9.707032.304687 23.609376-4.886719 36.8125-14.5625 12.183594-8.925782 20.890626-19.570313 24.234376-28.503906.195312-.105469.40625-.203126.601562-.3125.042969.007812.089844.019531.136719.023437.046875-.003906.089843-.015625.136719-.023437.191406.109374.40625.207031.601562.3125 3.339844 8.933593 12.050781 19.578124 24.234375 28.503906 13.203125 9.675781 27.101563 14.867187 36.8125 14.5625-2.632813-9.347656-11.769531-21.042969-24.972656-30.71875-2.492188-1.824219-5.011719-3.492188-7.519531-4.992188 9.984374.832032 21.152343.46875 32.8125-1.332031zm0 0" fill="#7bac51"/><g fill="#690589"><path d="m205.824219 342.707031c-2.207031 0-4-1.792969-4-4v-57.375c0-2.207031 1.792969-4 4-4s4 1.792969 4 4v57.375c0 2.207031-1.789063 4-4 4zm0 0"/><path d="m266.773438 331.882812c-10.917969 0-25.152344-5.683593-38.339844-15.34375-9.785156-7.171874-17.839844-15.804687-22.609375-24.050781-4.769531 8.246094-12.824219 16.878907-22.609375 24.050781-13.578125 9.949219-28.277344 15.671876-39.300782 15.332032-1.226562-.042969-2.375-.644532-3.101562-1.636719-.722656-.992187-.957031-2.261719-.621094-3.445313 2.730469-9.703124 11.214844-20.792968 23.015625-30.226562-6.550781-.128906-13.269531-.726562-20.097656-1.777344-25.746094-3.972656-48.023437-13.703125-59.597656-26.03125-.839844-.898437-1.222657-2.132812-1.039063-3.347656.1875-1.214844.925782-2.277344 2-2.878906 13.539063-7.589844 35.023438-10.378906 58.363282-7.714844-2.515626-2.265625-4.976563-4.601562-7.378907-7.003906-22.929687-22.929688-38.136719-49.054688-40.679687-69.882813-.148438-1.21875.269531-2.441406 1.140625-3.3125.871093-.871093 2.085937-1.289062 3.3125-1.140625 20.824219 2.542969 46.949219 17.75 69.878906 40.679688 3.617187 3.621094 7.066406 7.347656 10.328125 11.167968-1.886719-11.960937-2.867188-24.617187-2.867188-37.351562 0-41.117188 9.757813-78.132812 26.101563-99.019531 1.515625-1.9375 4.785156-1.9375 6.296875 0 16.34375 20.886719 26.097656 57.902343 26.097656 99.019531 0 12.734375-.976562 25.390625-2.863281 37.351562 3.261719-3.816406 6.707031-7.546874 10.328125-11.167968 22.929688-22.929688 49.054688-38.136719 69.878906-40.679688 1.222656-.15625 2.445313.269532 3.3125 1.140625.871094.871094 1.292969 2.09375 1.140625 3.3125-2.542969 20.828125-17.75 46.953125-40.679687 69.882813-2.402344 2.402344-4.867188 4.742187-7.378906 7.003906 23.335937-2.667969 44.820312.121094 58.367187 7.714844 1.070313.601562 1.804687 1.664062 1.992187 2.878906.191407 1.214844-.195312 2.449219-1.035156 3.347656-11.574218 12.328125-33.855468 22.058594-59.597656 26.03125-6.828125 1.050782-13.546875 1.644532-20.097656 1.777344 11.792968 9.429688 20.285156 20.523438 23.015625 30.226562.335937 1.183594.105469 2.453126-.625 3.445313-.726563.992187-1.871094 1.59375-3.097657 1.636719-.3125.007812-.628906.011718-.953124.011718zm-90.238282-43.71875c1.722656 0 3.269532 1.113282 3.804688 2.777344.566406 1.769532-.15625 3.699219-1.753906 4.65625-2.4375 1.457032-4.863282 3.066406-7.210938 4.789063-9.578125 7.019531-17.242188 15.410156-21.210938 23 8.4375-1.5 18.746094-6.28125 28.324219-13.300781 11.105469-8.136719 19.648438-18.113282 22.855469-26.679688.339844-.917969 1.007812-1.675781 1.871094-2.132812l.53125-.273438c.683594-.378906 1.460937-.554688 2.230468-.492188.671876.007813 1.351563.171876 1.929688.492188l.535156.273438c.863282.457031 1.53125 1.214843 1.871094 2.132812 3.207031 8.570312 11.75 18.542969 22.855469 26.679688 9.578125 7.019531 19.886719 11.800781 28.320312 13.300781-3.964843-7.589844-11.632812-15.984375-21.210937-23.003907-2.34375-1.714843-4.769532-3.328124-7.207032-4.785156-1.597656-.957031-2.324218-2.886718-1.757812-4.65625.570312-1.773437 2.316406-2.90625 4.140625-2.761718 9.960937.828124 20.980469.378906 31.871094-1.300782 20.851562-3.214844 39.675781-10.609375 50.867187-19.777344-13.433594-5.371093-33.613281-6.75-54.460937-3.539062-2.5.386719-5.078125.859375-7.878907 1.445312-1.820312.386719-3.671874-.546874-4.453124-2.246093s-.28125-3.707031 1.199218-4.839844c6.222656-4.78125 12.261719-10.085937 17.945313-15.769531 19.390625-19.390625 33.296875-41.742188 37.433593-59.777344-18.035156 4.136719-40.378906 18.039062-59.777343 37.433594-7.472657 7.476562-14.191407 15.441406-19.960938 23.671875-1.109375 1.578125-3.175781 2.140625-4.933593 1.34375-1.75-.796875-2.6875-2.730469-2.226563-4.601563 3.929687-15.917968 6.003906-33.992187 6.003906-52.257812 0-36.015625-8.054687-69.664063-21.246093-89.691406-13.195313 20.027343-21.25 53.675781-21.25 89.691406 0 18.269531 2.074218 36.339844 6.003906 52.257812.460937 1.871094-.476563 3.804688-2.226563 4.601563-1.757812.796875-3.824219.234375-4.933593-1.34375-5.773438-8.230469-12.488282-16.195313-19.960938-23.671875-19.394531-19.390625-41.742188-33.296875-59.777344-37.433594 4.132813 18.035156 18.039063 40.386719 37.433594 59.777344 5.683594 5.683594 11.722656 10.988281 17.945312 15.769531 1.480469 1.132813 1.976563 3.144531 1.199219 4.839844-.78125 1.695312-2.632812 2.632812-4.453125 2.246093-2.800781-.585937-5.378906-1.058593-7.878906-1.445312-20.84375-3.210938-41.027344-1.832031-54.460938 3.539062 11.191407 9.164063 30.015626 16.558594 50.867188 19.777344 10.890625 1.675782 21.914062 2.128906 31.871094 1.300782.097656-.011719.207031-.015626.320312-.015626zm91.394532 2.664063h.019531zm0 0"/><path d="m303.832031 416.589844h-196.015625c-14.191406 0-25.738281-11.542969-25.738281-25.734375 0-14.195313 11.546875-25.738281 25.738281-25.738281h196.015625c14.191407 0 25.734375 11.542968 25.734375 25.738281 0 14.191406-11.542968 25.734375-25.734375 25.734375zm-196.015625-43.46875c-9.78125 0-17.738281 7.953125-17.738281 17.734375s7.960937 17.738281 17.738281 17.738281h196.015625c9.78125 0 17.734375-7.957031 17.734375-17.738281s-7.957031-17.734375-17.734375-17.734375zm0 0"/><path d="m106.226562 105.050781c-.789062 0-1.574218-.234375-2.25-.695312l-27.125-18.46875-27.125 18.46875c-1.222656.835937-2.804687.921875-4.121093.230469-1.308594-.695313-2.128907-2.054688-2.128907-3.535157v-97.050781c0-2.207031 1.792969-4 4-4h58.753907c2.207031 0 4 1.792969 4 4v97.050781c0 1.480469-.820313 2.839844-2.128907 3.535157-.589843.3125-1.234374.464843-1.875.464843zm-29.375-28c.785157 0 1.570313.230469 2.25.691407l23.125 15.746093v-85.488281h-50.753906v85.488281l23.125-15.746093c.679688-.460938 1.464844-.691407 2.253906-.691407zm0 0"/><path d="m47.472656 504h-23.472656c-13.234375 0-24-10.765625-24-24v-456c0-13.234375 10.765625-24 24-24h23.472656c2.207032 0 4 1.792969 4 4v496c0 2.207031-1.789062 4-4 4zm-23.472656-496c-8.820312 0-16 7.179688-16 16v456c0 8.820312 7.179688 16 16 16h19.472656v-488zm0 0"/><path d="m367.542969 504h-343.542969c-13.234375 0-24-10.765625-24-24v-456c0-13.234375 10.765625-24 24-24h343.542969c2.207031 0 4 1.792969 4 4v496c0 2.207031-1.789063 4-4 4zm-343.542969-496c-8.820312 0-16 7.179688-16 16v456c0 8.820312 7.179688 16 16 16h339.542969v-488zm0 0"/><path d="m20 80.550781c-2.207031 0-4-1.789062-4-4v-24c0-2.207031 1.792969-4 4-4s4 1.792969 4 4v24c0 2.210938-1.789062 4-4 4zm0 0"/></g></svg>