<svg height="504pt" viewBox="-79 0 503 504" width="504pt" xmlns="http://www.w3.org/2000/svg"><path d="m278.085938 350.132812c0-24.574218-6.5-47.613281-17.847657-67.542968l53.890625-53.886719-40.984375-40.984375-51.625 51.625c-13.453125-9.757812-28.746093-17.125-45.265625-21.480469v-186.640625h-69.917968v186.644532c-58.609376 15.449218-101.835938 68.804687-101.835938 132.265624 0 41.832032 18.796875 79.25 48.378906 104.34375h-28.625c-10.910156 0-19.753906 8.84375-19.753906 19.753907v25.769531h273.585938v-25.773438c0-10.910156-8.84375-19.753906-19.753907-19.753906h-28.625c29.582031-25.089844 48.378907-62.511718 48.378907-104.339844zm0 0" fill="#f4efed"/><path d="m52.878906 454.472656h176.828125c25.015625-21.214844 42.265625-51.265625 47.011719-85.328125-35.546875-5.902343-87.648438-8.78125-134.027344 11.046875-49.199218 21.027344-101.761718 10.808594-134.894531-.148437 6.601563 29.558593 22.765625 55.503906 45.082031 74.429687zm0 0" fill="#7bac51"/><path d="m106.335938 217.867188c-58.609376 15.449218-101.835938 68.804687-101.835938 132.265624 0 41.832032 18.796875 79.25 48.378906 104.34375h19.753906c-29.582031-25.09375-48.378906-62.511718-48.378906-104.34375 0-56.597656 34.378906-105.15625 83.390625-125.957031 3.289063-1.398437 2.265625-6.308593-1.308593-6.308593zm0 0" fill="#fff"/><path d="m241.273438 239.34375 41.75-41.75-9.878907-9.875-43.875 43.875c4.136719 2.386719 8.15625 4.957031 12.003907 7.75zm0 0" fill="#f4efed"/><path d="m44.007812 454.472656h-19.753906c-10.910156 0-19.753906 8.84375-19.753906 19.753906v25.773438h19.753906v-25.773438c0-10.910156 8.84375-19.753906 19.753906-19.753906zm0 0" fill="#fff"/><path d="m304.253906 218.824219-58.597656 58.597656c-3.023438 3.023437-3.726562 7.628906-1.808594 11.449219 9.257813 18.429687 14.484375 39.230468 14.484375 61.261718 0 41.828126-18.796875 79.25-48.378906 104.339844h19.753906c29.582031-25.089844 48.378907-62.511718 48.378907-104.339844 0-24.574218-6.5-47.613281-17.847657-67.542968l53.890625-53.886719zm0 0" fill="#d6d1cf"/><path d="m162.445312 374.09375c1.921876-.890625 3.855469-1.722656 5.792969-2.527344-8.613281 2.214844-17.175781 5.042969-25.546875 8.625-3.09375 1.320313-6.203125 2.519532-9.316406 3.601563 9.703125-2.109375 19.453125-5.253907 29.070312-9.699219zm0 0" fill="#99ca6f"/><path d="m30.699219 386.480469c-8.328125-1.933594-16.039063-4.167969-22.902344-6.4375 6.601563 29.558593 22.765625 55.503906 45.082031 74.429687h19.753906c-19.34375-17.753906-34.054687-41.222656-41.933593-67.992187zm0 0" fill="#99ca6f"/><path d="m236.386719 448.375c1.0625-1.027344 2.113281-2.066406 3.140625-3.125.648437-.671875 1.28125-1.355469 1.917968-2.035156.886719-.953125 1.761719-1.917969 2.621094-2.898438.671875-.765625 1.339844-1.539062 2-2.320312.765625-.910156 1.511719-1.84375 2.253906-2.773438.6875-.863281 1.378907-1.722656 2.046876-2.601562.628906-.835938 1.234374-1.691406 1.847656-2.542969 2.886718-3.992187 5.566406-8.144531 8.011718-12.449219.230469-.40625.472657-.804687.699219-1.214844.804688-1.453124 1.578125-2.929687 2.332031-4.414062.222657-.445312.453126-.882812.675782-1.328125.761718-1.542969 1.492187-3.101563 2.199218-4.675781.152344-.347656.304688-.691406.457032-1.039063.746094-1.703125 1.46875-3.425781 2.148437-5.164062.015625-.042969.03125-.085938.046875-.125 3.761719-9.6875 6.457032-19.90625 7.933594-30.519531-6.019531-1-12.519531-1.910157-19.378906-2.636719-4.203125 35.148437-21.722656 66.199219-47.386719 87.964843h19.753906c1.71875-1.457031 3.390625-2.960937 5.03125-4.5.558594-.527343 1.097657-1.070312 1.648438-1.601562zm0 0" fill="#5d8e33"/><path d="m186.007812 4h-89.429687c-7.515625 0-13.609375 6.09375-13.609375 13.613281 0 7.515625 6.09375 13.609375 13.609375 13.609375h89.429687c7.515626 0 13.609376-6.09375 13.609376-13.609375 0-7.519531-6.09375-13.613281-13.609376-13.613281zm0 0" fill="#f4efed"/><path d="m267.269531 181.84375 52.734375 52.730469c4.75 4.75 12.449219 4.75 17.199219 0s4.75-12.449219 0-17.199219l-52.730469-52.734375c-4.75-4.75-12.453125-4.75-17.203125 0s-4.75 12.453125 0 17.203125zm0 0" fill="#f4efed"/><path d="m258.332031 454.472656h-19.753906c10.910156 0 19.753906 8.84375 19.753906 19.753906v25.773438h19.753907v-25.773438c0-10.910156-8.84375-19.753906-19.753907-19.753906zm0 0" fill="#d6d1cf"/><path d="m186.007812 4h-19.753906c7.515625 0 13.609375 6.09375 13.609375 13.613281 0 7.515625-6.09375 13.609375-13.609375 13.609375h19.753906c7.515626 0 13.609376-6.09375 13.609376-13.609375 0-7.519531-6.09375-13.613281-13.609376-13.613281zm0 0" fill="#d6d1cf"/><path d="m96.578125 31.222656h19.757813c-7.519532 0-13.613282-6.09375-13.613282-13.609375 0-7.519531 6.09375-13.613281 13.613282-13.613281h-19.757813c-7.515625 0-13.609375 6.09375-13.609375 13.613281 0 7.515625 6.09375 13.609375 13.609375 13.609375zm0 0" fill="#fff"/><path d="m337.203125 217.371094-19.753906-19.753906c4.75 4.75 4.75 12.453124 0 17.203124s-12.453125 4.75-17.203125 0l19.757812 19.753907c4.75 4.75 12.449219 4.75 17.199219 0 4.753906-4.75 4.753906-12.449219 0-17.203125zm0 0" fill="#d6d1cf"/><g fill="#690589"><path d="m278.085938 504h-273.585938c-2.207031 0-4-1.792969-4-4v-25.773438c0-13.097656 10.65625-23.753906 23.753906-23.753906h18.316406c-26.855468-26.410156-42.070312-62.421875-42.070312-100.339844 0-62.851562 41.71875-118.054687 101.835938-135.3125v-183.597656c0-2.207031 1.792968-4 4-4h69.914062c2.207031 0 4 1.792969 4 4v183.59375c14.582031 4.1875 28.289062 10.671875 40.824219 19.3125l49.242187-49.238281c1.558594-1.5625 4.09375-1.5625 5.65625 0l40.984375 40.984375c.75.75 1.171875 1.765625 1.171875 2.828125 0 1.058594-.421875 2.078125-1.171875 2.828125l-51.757812 51.753906c11.058593 20.457032 16.886719 43.503906 16.886719 66.847656 0 37.914063-15.214844 73.929688-42.070313 100.339844h18.316406c13.097657 0 23.753907 10.65625 23.753907 23.753906v25.773438c0 2.207031-1.789063 4-4 4zm-269.585938-8h265.585938v-21.773438c0-8.683593-7.066407-15.753906-15.753907-15.753906h-28.625c-1.675781 0-3.175781-1.042968-3.753906-2.621094-.578125-1.574218-.109375-3.339843 1.167969-4.425781 29.847656-25.316406 46.964844-62.238281 46.964844-101.292969 0-22.984374-5.988282-45.652343-17.324219-65.5625-.890625-1.566406-.625-3.535156.648437-4.804687l51.058594-51.0625-35.328125-35.324219-48.792969 48.796875c-1.390625 1.386719-3.585937 1.5625-5.175781.410157-13.320313-9.660157-28.105469-16.675782-43.941406-20.851563-1.757813-.460937-2.980469-2.050781-2.980469-3.867187v-182.644532h-61.914062v182.644532c0 1.816406-1.222657 3.40625-2.980469 3.867187-58.207031 15.339844-98.855469 68.140625-98.855469 128.398437 0 39.054688 17.117188 75.976563 46.964844 101.292969 1.28125 1.085938 1.746094 2.851563 1.167968 4.425781-.582031 1.574219-2.078124 2.621094-3.753906 2.621094h-28.625c-8.6875 0-15.753906 7.070313-15.753906 15.753906zm0 0"/><path d="m122.335938 126.09375c-2.207032 0-4-1.792969-4-4v-24c0-2.207031 1.792968-4 4-4 2.207031 0 4 1.792969 4 4v24c0 2.207031-1.789063 4-4 4zm0 0"/><path d="m278.085938 504h-273.585938c-2.207031 0-4-1.792969-4-4v-25.773438c0-13.097656 10.65625-23.753906 23.753906-23.753906h18.332032c-19.226563-18.953125-32.824219-43.300781-38.691407-69.558594-.316406-1.402343.152344-2.871093 1.21875-3.835937 1.070313-.964844 2.574219-1.285156 3.9375-.832031 34.128907 11.289062 84.746094 20.492187 132.066407.265625 47.257812-20.203125 100.183593-17.300781 136.257812-11.3125 2.136719.355469 3.605469 2.351562 3.304688 4.5-4.289063 30.761719-18.609376 59.078125-40.667969 80.773437h18.320312c13.097657 0 23.753907 10.65625 23.753907 23.753906v25.773438c0 2.207031-1.789063 4-4 4zm-269.585938-8h265.585938v-21.773438c0-8.683593-7.066407-15.753906-15.753907-15.753906h-28.625c-1.675781 0-3.175781-1.042968-3.753906-2.621094-.578125-1.574218-.109375-3.339843 1.167969-4.425781 23.929687-20.300781 39.824218-48.214843 45.039062-78.957031-34.859375-5.367188-84.078125-7.332031-127.894531 11.398438-46.5 19.875-95.667969 12.769531-130.835937 2.152343 7.117187 25.277344 21.867187 48.292969 42.035156 65.40625 1.28125 1.085938 1.746094 2.851563 1.167968 4.425781-.582031 1.574219-2.078124 2.621094-3.753906 2.621094h-28.625c-8.6875 0-15.753906 7.070313-15.753906 15.753906zm0 0"/><path d="m135.796875 457.859375c-2.207031 0-4-1.792969-4-4 0-2.210937 1.792969-4 4-4 1.597656 0 2.894531-1.300781 2.894531-2.894531v-39.886719c0-2.207031 1.792969-4 4-4 2.207032 0 4 1.792969 4 4v39.886719c0 6.007812-4.886718 10.894531-10.894531 10.894531zm0 0"/><path d="m186.007812 35.222656h-89.429687c-9.707031 0-17.609375-7.898437-17.609375-17.609375 0-9.714843 7.902344-17.613281 17.609375-17.613281h89.429687c9.707032 0 17.609376 7.898438 17.609376 17.613281 0 9.710938-7.898438 17.609375-17.609376 17.609375zm-89.429687-27.222656c-5.296875 0-9.609375 4.3125-9.609375 9.613281 0 5.296875 4.3125 9.609375 9.609375 9.609375h89.429687c5.296876 0 9.609376-4.3125 9.609376-9.609375 0-5.300781-4.3125-9.613281-9.609376-9.613281zm0 0"/><path d="m328.601562 242.136719c-4.316406 0-8.375-1.679688-11.429687-4.734375l-52.730469-52.730469c-6.304687-6.304687-6.304687-16.558594 0-22.859375 3.050782-3.054688 7.109375-4.738281 11.429688-4.738281 4.316406 0 8.375 1.683593 11.429687 4.738281l52.730469 52.730469c3.054688 3.054687 4.734375 7.113281 4.734375 11.429687s-1.679687 8.375-4.734375 11.429688c-3.050781 3.054687-7.109375 4.734375-11.429688 4.734375zm-58.503906-63.121094 52.730469 52.730469c1.542969 1.542968 3.59375 2.394531 5.773437 2.394531 2.179688 0 4.234376-.851563 5.773438-2.394531 1.539062-1.539063 2.390625-3.589844 2.390625-5.773438 0-2.179687-.851563-4.230468-2.390625-5.769531l-52.734375-52.734375c-1.539063-1.539062-3.589844-2.390625-5.773437-2.390625-2.179688 0-4.230469.851563-5.773438 2.390625-3.179688 3.183594-3.179688 8.363281.003906 11.546875zm0 0"/><path d="m229.707031 458.472656h-176.828125c-2.207031 0-4-1.789062-4-4 0-2.207031 1.792969-4 4-4h176.828125c2.207031 0 4 1.792969 4 4 0 2.210938-1.789062 4-4 4zm0 0"/></g><path d="m180.394531 407.785156c-4.78125-1.054687-9.453125-1.691406-13.871093-1.945312-2.148438-.128906-2.699219-3.03125-.757813-3.96875 13.363281-6.46875 27.8125-16.8125 41.285156-30.28125 21.804688-21.804688 35.460938-46.199219 37.675781-64.359375-18.160156 2.214843-42.550781 15.871093-64.355468 37.675781-7.503906 7.503906-14.011719 15.308594-19.449219 23.0625 3.714844-15.066406 5.828125-32.339844 5.828125-50.710938 0-39.324218-9.679688-73.632812-24.058594-92.007812-14.378906 18.375-24.058594 52.683594-24.058594 92.007812 0 18.371094 2.113282 35.644532 5.832032 50.710938-5.4375-7.753906-11.949219-15.558594-19.449219-23.0625-21.804687-21.804688-46.199219-35.460938-64.359375-37.675781 2.214844 18.160156 15.871094 42.554687 37.679688 64.359375 13.46875 13.46875 27.921874 23.8125 41.285156 30.28125 1.9375.9375 1.386718 3.84375-.761719 3.96875-4.414063.257812-9.082031.894531-13.859375 1.945312-15.234375 3.347656-27.699219 10.023438-33.59375 17.160156 8.34375 4.003907 22.460938 4.832032 37.695312 1.480469 15.234376-3.351562 27.699219-10.023437 33.59375-17.160156h.011719-.003906c5.894531 7.136719 18.359375 13.808594 33.59375 17.160156 15.234375 3.351563 29.347656 2.523438 37.691406-1.480469-5.894531-7.136718-18.359375-13.8125-33.59375-17.160156zm0 0" fill="#7bac51"/><path d="m194.683594 432.519531c-6.050782 0-12.589844-.722656-19.25-2.1875-13.582032-2.988281-25.433594-8.570312-32.738282-15.292969-7.304687 6.722657-19.15625 12.304688-32.738281 15.292969-15.707031 3.453125-30.765625 2.789063-40.285156-1.78125-1.109375-.53125-1.910156-1.546875-2.175781-2.75-.265625-1.199219.039062-2.457031.820312-3.40625 6.726563-8.140625 20.117188-15.0625 35.820313-18.515625 2.660156-.585937 5.316406-1.054687 7.953125-1.40625-12.46875-6.875-25.007813-16.480468-36.582032-28.058594-21.882812-21.878906-36.394531-46.8125-38.820312-66.699218-.148438-1.222656.269531-2.445313 1.140625-3.3125.867187-.871094 2.085937-1.296875 3.3125-1.140625 19.886719 2.425781 44.820313 16.9375 66.703125 38.816406 3.289062 3.292969 6.433594 6.683594 9.417969 10.148437-1.730469-11.214843-2.628907-23.054687-2.628907-34.96875 0-39.226562 9.3125-74.542968 24.910157-94.476562 1.515625-1.9375 4.78125-1.9375 6.300781 0 15.59375 19.933594 24.90625 55.25 24.90625 94.476562 0 11.914063-.898438 23.753907-2.628906 34.964844 2.984375-3.464844 6.128906-6.855468 9.421875-10.144531 21.878906-21.882813 46.816406-36.394531 66.699219-38.820313 1.21875-.152343 2.445312.273438 3.3125 1.140626.871093.871093 1.292968 2.09375 1.144531 3.3125-2.429688 19.886718-16.941407 44.824218-38.820313 66.703124-11.578125 11.578126-24.113281 21.179688-36.585937 28.054688 2.640625.351562 5.300781.820312 7.960937 1.40625 15.703125 3.453125 29.09375 10.378906 35.816406 18.519531.785157.949219 1.085938 2.203125.824219 3.40625-.265625 1.203125-1.066406 2.214844-2.175781 2.746094-5.484375 2.636719-12.808594 3.972656-21.035156 3.972656zm-51.976563-27.253906c1.191407 0 2.320313.535156 3.078125 1.453125 5.542969 6.710938 17.5625 12.761719 31.371094 15.800781 10.855469 2.386719 21.484375 2.621094 29.351562.78125-6.367187-4.96875-16.117187-9.222656-26.972656-11.609375-4.464844-.980468-8.921875-1.605468-13.242187-1.859375-2.804688-.164062-5.054688-2.121093-5.601563-4.875-.550781-2.769531.789063-5.457031 3.332032-6.6875 13.550781-6.558593 27.453124-16.761719 40.199218-29.507812 18.351563-18.351563 31.542969-39.476563 35.554688-56.578125-17.097656 4.011718-38.226563 17.199218-56.578125 35.550781-7.113281 7.113281-13.503907 14.695313-19.003907 22.53125-1.101562 1.578125-3.175781 2.140625-4.929687 1.34375-1.75-.796875-2.691406-2.730469-2.226563-4.597656 3.738282-15.15625 5.714844-32.359375 5.714844-49.753907 0-34.148437-7.601562-66.050781-20.058594-85.128906-12.460937 19.078125-20.0625 50.980469-20.0625 85.128906 0 17.394532 1.976563 34.597657 5.714844 49.753907.460938 1.867187-.476562 3.800781-2.226562 4.597656-1.75.792969-3.828125.234375-4.929688-1.34375-5.5-7.835937-11.890625-15.417969-19.003906-22.53125-18.351562-18.351563-39.476562-31.539063-56.578125-35.550781 4.011719 17.097656 17.199219 38.222656 35.550781 56.578125 12.746094 12.746093 26.648438 22.949219 40.203125 29.507812 2.539063 1.230469 3.878907 3.917969 3.328125 6.6875-.546875 2.75-2.796875 4.710938-5.597656 4.875-4.316406.253907-8.769531.878907-13.234375 1.859375-10.855469 2.386719-20.605469 6.636719-26.972656 11.609375 7.867187 1.835938 18.496093 1.605469 29.351562-.78125 13.808594-3.039062 25.828125-9.089843 31.371094-15.800781.578125-.703125 1.382813-1.1875 2.277344-1.371094.265625-.054687.546875-.082031.820312-.082031zm0 0" fill="#690589"/></svg>