<svg height="504pt" viewBox="-36 0 503 504" width="504pt" xmlns="http://www.w3.org/2000/svg"><path d="m402.289062 62.3125-32.738281-32.738281c-5.851562-5.851563-5.851562-15.335938 0-21.1875 5.847657-5.847657 15.335938-5.847657 21.183594 0l32.742187 32.742187c5.847657 5.847656 5.847657 15.332032 0 21.183594-5.851562 5.851562-15.335937 5.851562-21.1875 0zm0 0" fill="#f4efed"/><path d="m423.476562 41.128906-21.183593-21.183594c5.851562 5.851563 5.851562 15.335938 0 21.1875-5.847657 5.851563-15.332031 5.847657-21.183594 0l21.179687 21.179688c5.851563 5.851562 15.335938 5.851562 21.1875 0 5.847657-5.847656 5.847657-15.335938 0-21.183594zm0 0" fill="#d6d1cf"/><path d="m244.066406 500c0-58.050781-47.054687-105.109375-105.105468-105.109375-58.050782 0-105.109376 47.058594-105.109376 105.109375zm0 0" fill="#7bac51"/><path d="m149.550781 395.421875c-3.484375-.347656-7.015625-.53125-10.589843-.53125-58.050782 0-105.109376 47.058594-105.109376 105.109375h21.183594c0-54.472656 41.441406-99.265625 94.515625-104.578125zm0 0" fill="#99ca6f"/><path d="m138.960938 394.890625c-3.578126 0-7.109376.183594-10.59375.53125 53.078124 5.3125 94.519531 50.105469 94.519531 104.578125h21.179687c0-58.050781-47.054687-105.109375-105.105468-105.109375zm0 0" fill="#5d8e33"/><path d="m244.066406 504h-210.214844c-2.210937 0-4-1.792969-4-4 0-60.160156 48.945313-109.109375 109.105469-109.109375 60.164063 0 109.109375 48.949219 109.109375 109.109375 0 2.207031-1.789062 4-4 4zm-206.136718-8h202.0625c-2.109376-53.902344-46.621094-97.109375-101.03125-97.109375-54.414063 0-98.921876 43.207031-101.03125 97.109375zm0 0" fill="#690589"/><path d="m333.460938 135.394531c-1.121094-1.125-1.359376-2.40625-1.359376-3.285156 0-.882813.238282-2.164063 1.363282-3.289063l67.683594-67.652343-29.152344-29.152344-67.675782 67.640625c-8.667968 8.664062-13.445312 20.1875-13.445312 32.441406-.003906 12.253906 4.765625 23.773438 13.429688 32.441406l47.082031 47.109376c1.125 1.128906 1.359375 2.410156 1.359375 3.289062 0 .875-.234375 2.164062-1.363282 3.285156l-12.03125 12.03125c-1.8125 1.808594-4.757812 1.808594-6.574218-.007812-17.882813-17.886719-46.984375-17.894532-64.882813-.015625l-20.847656 20.839843c-6.164063-8.324218-13.269531-15.90625-21.15625-22.601562 10.058594-1.667969 17.734375-10.382812 17.734375-20.914062 0-11.722657-9.503906-21.226563-21.226562-21.226563h-166.878907c-11.722656 0-21.226562 9.503906-21.226562 21.226563 0 10.523437 7.671875 19.238281 17.722656 20.910156-29.050781 24.652344-47.507813 61.40625-47.519531 102.488281-.015625 74.25 60.160156 134.453125 134.410156 134.472656s134.457031-60.15625 134.472656-134.40625c.003906-14.46875-2.304687-28.390625-6.527344-41.449219l30.1875-30.179687c1.816407-1.8125 4.761719-1.8125 6.578126.003906 17.886718 17.894531 46.988281 17.898438 64.878906.015625l12.035156-12.027344c8.664062-8.664062 13.441406-20.183593 13.445312-32.433593 0-12.253907-4.769531-23.777344-13.429687-32.445313zm0 0" fill="#f4efed"/><path d="m25.683594 330.953125c.011718-41.085937 18.46875-77.835937 47.515625-102.488281-10.050781-1.671875-17.722657-10.386719-17.722657-20.910156 0-11.722657 9.503907-21.226563 21.226563-21.226563h-21.183594c-11.722656 0-21.226562 9.503906-21.226562 21.226563 0 10.523437 7.671875 19.238281 17.722656 20.910156-29.046875 24.652344-47.507813 61.40625-47.519531 102.488281-.015625 74.25 60.160156 134.453125 134.410156 134.472656 3.578125.003907 7.117188-.179687 10.625-.453125-69.304688-5.410156-123.867188-63.328125-123.847656-134.019531zm0 0" fill="#fff"/><path d="m222.441406 207.550781c0 10.53125-7.675781 19.246094-17.730468 20.914063 4.351562 3.695312 8.464843 7.660156 12.3125 11.875 6.324218 6.917968 15.355468 10.730468 24.730468 10.730468h5.292969c-3.625-3.902343-17.09375-19.15625-21.15625-22.605468 10.058594-1.667969 17.734375-10.382813 17.734375-20.914063 0-11.722656-9.503906-21.226562-21.226562-21.226562h-21.183594c11.726562 0 21.226562 9.503906 21.226562 21.226562zm0 0" fill="#d6d1cf"/><path d="m290.59375 265.839844c-.042969-.027344-.082031-.050782-.125-.078125-7.472656-4.699219-17.152344-3.828125-23.394531 2.414062l-10.03125 10.027344c-6.695313 6.6875-9.535157 16.292969-7.621094 25.5625 1.816406 8.796875 2.777344 17.910156 2.777344 27.253906-.019531 70.667969-54.570313 128.546875-123.847657 133.953125 3.488282.269532 7 .453125 10.554688.453125 74.25.019531 134.457031-60.15625 134.472656-134.40625.003906-14.46875-2.304687-28.390625-6.527344-41.449219zm0 0" fill="#d6d1cf"/><path d="m390.554688 50.578125-78.273438 78.242187c-1.128906 1.128907-1.363281 2.410157-1.363281 3.289063s.234375 2.164063 1.359375 3.289063l47.085937 47.109374c8.660157 8.667969 13.429688 20.191407 13.429688 32.445313-.003907 12.25-4.777344 23.769531-13.445313 32.433594l-12.035156 12.027343c-6.230469 6.230469-13.835938 10.238282-21.839844 12.125 14.96875 3.53125 31.371094-.476562 43.023438-12.125l12.03125-12.027343c8.667968-8.664063 13.441406-20.183594 13.445312-32.433594.003906-12.253906-4.765625-23.777344-13.429687-32.445313l-47.082031-47.113281c-1.121094-1.125-1.359376-2.40625-1.359376-3.285156 0-.882813.238282-2.164063 1.363282-3.289063l67.683594-67.652343zm0 0" fill="#d6d1cf"/><g fill="#690589"><path d="m138.941406 469.425781c-.015625 0-.019531 0-.035156 0-76.335938-.019531-138.425781-62.136719-138.40625-138.476562.007812-38.34375 15.847656-74.71875 43.691406-100.859375-8.355468-4.167969-13.898437-12.753906-13.898437-22.539063 0-13.910156 11.316406-25.226562 25.226562-25.226562h166.878907c13.910156 0 25.226562 11.316406 25.226562 25.226562 0 9.792969-5.546875 18.378907-13.910156 22.546875 4.933594 4.636719 9.527344 9.628906 13.730468 14.917969l17.621094-17.613281c19.460938-19.441406 51.101563-19.429688 70.539063.019531.253906.25.667969.253906.917969 0l12.03125-12.027344c.101562-.101562.191406-.210937.191406-.457031 0-.25-.089844-.363281-.191406-.460938l-47.085938-47.109374c-9.417969-9.421876-14.601562-21.949219-14.597656-35.269532 0-13.324218 5.195312-25.851562 14.617187-35.269531l67.675781-67.640625c1.5625-1.5625 4.097657-1.5625 5.65625 0l29.15625 29.152344c.75.75 1.171876 1.769531 1.171876 2.828125 0 1.0625-.421876 2.078125-1.171876 2.828125l-67.683593 67.652344c-.121094.125-.191407.234374-.191407.460937s.070313.339844.191407.460937l47.082031 47.105469c9.417969 9.421875 14.601562 21.949219 14.597656 35.273438 0 13.320312-5.191406 25.84375-14.617187 35.261719l-12.03125 12.027343c-19.453125 19.445313-51.097657 19.433594-70.539063-.015625-.253906-.253906-.667968-.253906-.921875 0l-28.476562 28.460938c3.980469 13.078125 5.992187 26.632812 5.988281 40.332031-.011719 76.324219-62.117188 138.40625-138.433594 138.410156zm-83.421875-279.101562c-9.5 0-17.226562 7.730469-17.226562 17.226562 0 8.445313 6.046875 15.582031 14.378906 16.96875 1.535156.257813 2.785156 1.378907 3.199219 2.878907.414062 1.5-.082032 3.109374-1.269532 4.117187-29.289062 24.855469-46.09375 61.101563-46.105468 99.4375-.015625 71.925781 58.484375 130.453125 130.410156 130.472656h.03125c71.914062 0 130.425781-58.492187 130.441406-130.410156.003906-13.679687-2.125-27.210937-6.335937-40.214844-.460938-1.429687-.082031-2.996093.980469-4.058593l30.191406-30.175782c3.375-3.371094 8.859375-3.367187 12.230468 0 16.328126 16.332032 42.894532 16.339844 59.226563.019532l12.03125-12.03125c7.910156-7.910157 12.269531-18.421876 12.273437-29.605469 0-11.1875-4.351562-21.707031-12.257812-29.613281l-47.085938-47.113282c-1.628906-1.632812-2.527343-3.808594-2.527343-6.113281 0-2.3125.898437-4.484375 2.535156-6.121094l64.851563-64.820312-23.496094-23.496094-64.847656 64.816406c-7.914063 7.910157-12.273438 18.421875-12.273438 29.613281-.003906 11.183594 4.347656 21.703126 12.257812 29.613282l47.082032 47.109375c1.632812 1.636719 2.53125 3.808593 2.53125 6.117187s-.898438 4.480469-2.535156 6.113282l-12.03125 12.027343c-3.367188 3.367188-8.851563 3.367188-12.226563-.003906-16.324219-16.332031-42.890625-16.339844-59.230469-.015625l-20.847656 20.835938c-.824219.824218-1.96875 1.242187-3.121094 1.160156-1.164062-.085938-2.226562-.671875-2.917968-1.605469-5.960938-8.050781-12.867188-15.429687-20.53125-21.9375-1.1875-1.007813-1.679688-2.613281-1.265626-4.117187.417969-1.5 1.664063-2.621094 3.203126-2.878907 8.335937-1.382812 14.386718-8.515625 14.386718-16.96875 0-9.496093-7.730468-17.226562-17.226562-17.226562zm0 0"/><path d="m35.59375 279.929688c-.621094 0-1.246094-.144532-1.832031-.445313-1.964844-1.011719-2.734375-3.421875-1.722657-5.386719 4.328126-8.40625 9.242188-16.628906 14.597657-24.433594 1.25-1.820312 3.742187-2.285156 5.5625-1.035156 1.820312 1.25 2.28125 3.742188 1.03125 5.5625-5.167969 7.53125-9.90625 15.457032-14.082031 23.570313-.707032 1.378906-2.105469 2.167969-3.554688 2.167969zm0 0"/><path d="m412.882812 70.691406c-4.859374 0-9.71875-1.847656-13.417968-5.550781l-32.742188-32.738281c-7.398437-7.398438-7.398437-19.441406 0-26.84375 3.585938-3.582032 8.351563-5.558594 13.421875-5.558594 5.070313 0 9.835938 1.972656 13.417969 5.558594l32.742188 32.742187c7.398437 7.398438 7.398437 19.441407 0 26.839844-3.699219 3.703125-8.5625 5.550781-13.421876 5.550781zm-32.742187-62.691406c-2.933594 0-5.6875 1.140625-7.761719 3.214844-2.078125 2.074218-3.21875 4.832031-3.21875 7.765625 0 2.929687 1.144532 5.691406 3.21875 7.761719l32.738282 32.742187c2.074218 2.074219 4.832031 3.214844 7.765624 3.214844 2.929688 0 5.6875-1.140625 7.761719-3.214844 4.28125-4.28125 4.28125-11.25 0-15.53125l-32.738281-32.738281c-2.074219-2.074219-4.832031-3.214844-7.765625-3.214844zm0 0"/><path d="m225.890625 232.464844h-173.875c-2.207031 0-4-1.792969-4-4 0-2.207032 1.792969-4 4-4h173.875c2.210937 0 4 1.792968 4 4 0 2.207031-1.789063 4-4 4zm0 0"/></g></svg>