<svg height="504pt" viewBox="-34 0 504 504" width="504pt" xmlns="http://www.w3.org/2000/svg"><path d="m47.660156 153.554688v196.890624l170.507813 98.441407 170.507812-98.441407v-196.890624l-170.507812-98.441407zm0 0" fill="#fcc24c"/><path d="m368.496094 141.90625v220.1875l20.179687-11.648438v-196.890624zm0 0" fill="#dea42e"/><path d="m67.839844 141.90625v220.1875l-20.179688-11.648438v-196.890624zm0 0" fill="#fce06a"/><path d="m88.4375 177.101562v149.796876l129.730469 74.902343 129.730469-74.902343v-149.796876l-129.730469-74.902343zm0 0" fill="#f4efed"/><g fill="#690589"><path d="m218.167969 452.886719c-.695313 0-1.382813-.179688-2-.535157l-170.507813-98.445312c-1.238281-.714844-2-2.035156-2-3.464844v-196.886718c0-1.425782.761719-2.75 2-3.460938l170.507813-98.445312c1.238281-.714844 2.761719-.714844 4 0l170.507812 98.445312c1.238281.710938 2 2.035156 2 3.460938v196.886718c0 1.429688-.761719 2.75-2 3.464844l-170.507812 98.445312c-.621094.355469-1.308594.535157-2 .535157zm-166.507813-104.753907 166.507813 96.136719 166.507812-96.136719v-192.265624l-166.507812-96.136719-166.507813 96.136719zm0 0"/><path d="m63.800781 229.167969c-2.207031 0-4-1.792969-4-4v-24c0-2.207031 1.792969-4 4-4 2.210938 0 4 1.792969 4 4v24c0 2.210937-1.789062 4-4 4zm0 0"/><path d="m218.167969 405.800781c-.695313 0-1.382813-.179687-2-.535156l-129.730469-74.902344c-1.238281-.714843-2-2.035156-2-3.464843v-149.796876c0-1.429687.761719-2.75 2-3.464843l129.730469-74.902344c1.238281-.710937 2.761719-.710937 4 0l129.730469 74.902344c1.238281.714843 2 2.035156 2 3.464843v149.796876c0 1.429687-.761719 2.75-2 3.464843l-129.730469 74.902344c-.621094.355469-1.308594.535156-2 .535156zm-125.730469-81.210937 125.730469 72.589844 125.730469-72.589844v-145.179688l-125.730469-72.589844-125.730469 72.589844zm0 0"/><path d="m218.59375 59.113281c-2.207031 0-4-1.792969-4-4v-51.113281c0-2.207031 1.792969-4 4-4s4 1.792969 4 4v51.113281c0 2.207031-1.792969 4-4 4zm0 0"/><path d="m218.59375 504c-2.207031 0-4-1.792969-4-4v-51.113281c0-2.207031 1.792969-4 4-4s4 1.792969 4 4v51.113281c0 2.207031-1.792969 4-4 4zm0 0"/><path d="m388.964844 157.308594c-1.378906 0-2.722656-.714844-3.464844-1.996094-1.109375-1.910156-.457031-4.355469 1.457031-5.464844l44.226563-25.621094c1.917968-1.109374 4.359375-.453124 5.46875 1.457032 1.105468 1.914062.453125 4.359375-1.457032 5.464844l-44.230468 25.621093c-.632813.367188-1.324219.539063-2 .539063zm0 0"/><path d="m4.003906 380.3125c-1.378906 0-2.722656-.714844-3.464844-1.996094-1.105468-1.914062-.4531245-4.359375 1.457032-5.464844l44.226562-25.621093c1.921875-1.109375 4.359375-.453125 5.46875 1.457031 1.105469 1.910156.457032 4.355469-1.457031 5.464844l-44.226563 25.621094c-.632812.363281-1.324218.539062-2.003906.539062zm0 0"/><path d="m48.222656 157.308594c-.679687 0-1.367187-.171875-2-.539063l-44.226562-25.621093c-1.9101565-1.105469-2.5625-3.550782-1.457032-5.464844 1.105469-1.910156 3.546876-2.566406 5.464844-1.457032l44.230469 25.621094c1.90625 1.109375 2.558594 3.554688 1.453125 5.464844-.738281 1.28125-2.082031 1.996094-3.464844 1.996094zm0 0"/><path d="m433.183594 380.3125c-.679688 0-1.367188-.175781-2-.539062l-44.230469-25.621094c-1.910156-1.109375-2.5625-3.554688-1.453125-5.464844 1.105469-1.910156 3.546875-2.566406 5.464844-1.457031l44.226562 25.621093c1.910156 1.105469 2.5625 3.550782 1.457032 5.464844-.742188 1.28125-2.082032 1.996094-3.464844 1.996094zm0 0"/></g><path d="m243 45.003906c-5.582031-13.472656-21.03125-19.871094-34.503906-14.292968-13.476563 5.582031-19.875 21.03125-14.292969 34.507812 5.582031 13.472656 21.03125 19.871094 34.503906 14.289062 13.476563-5.578124 19.875-21.027343 14.292969-34.503906zm0 0" fill="#7bac51"/><path d="m222.835938 422.824219c-14.398438-2.335938-27.960938 7.441406-30.300782 21.835937-2.335937 14.398438 7.441406 27.960938 21.839844 30.300782 14.394531 2.335937 27.960938-7.441407 30.296875-21.839844 2.335937-14.394532-7.441406-27.960938-21.835937-30.296875zm0 0" fill="#7bac51"/><path d="m53.714844 325.792969c-14.195313-3.351563-28.417969 5.4375-31.769532 19.628906-3.351562 14.195313 5.4375 28.417969 19.632813 31.769531 14.191406 3.351563 28.417969-5.4375 31.769531-19.628906 3.351563-14.195312-5.4375-28.417969-19.632812-31.769531zm0 0" fill="#99ca6f"/><path d="m53.722656 128.460938c-14.191406-3.351563-28.417968 5.4375-31.769531 19.632812-3.351563 14.191406 5.4375 28.417969 19.632813 31.769531 14.195312 3.351563 28.417968-5.4375 31.769531-19.632812 3.351562-14.195313-5.4375-28.417969-19.632813-31.769531zm0 0" fill="#99ca6f"/><path d="m407.34375 332.800781c-10.3125-10.3125-27.03125-10.3125-37.34375 0s-10.3125 27.03125 0 37.34375 27.03125 10.3125 37.34375 0 10.3125-27.03125 0-37.34375zm0 0" fill="#5d8e33"/><path d="m407.347656 135.480469c-10.316406-10.316407-27.035156-10.316407-37.347656 0-10.3125 10.3125-10.3125 27.03125 0 37.34375s27.03125 10.3125 37.347656 0c10.3125-10.3125 10.3125-27.03125 0-37.34375zm0 0" fill="#5d8e33"/><path d="m218.59375 85.523438c-16.765625 0-30.40625-13.644532-30.40625-30.410157 0-16.769531 13.640625-30.410156 30.40625-30.410156 16.769531 0 30.410156 13.640625 30.410156 30.410156 0 16.765625-13.640625 30.410157-30.410156 30.410157zm0-52.820313c-12.355469 0-22.40625 10.054687-22.40625 22.410156 0 12.359375 10.050781 22.410157 22.40625 22.410157s22.410156-10.054688 22.410156-22.410157c0-12.359375-10.054687-22.410156-22.410156-22.410156zm0 0" fill="#690589"/><path d="m218.59375 479.296875c-16.765625 0-30.40625-13.644531-30.40625-30.410156 0-16.769531 13.640625-30.410157 30.40625-30.410157 16.769531 0 30.410156 13.640626 30.410156 30.410157 0 16.765625-13.640625 30.410156-30.410156 30.410156zm0-52.820313c-12.355469 0-22.40625 10.054688-22.40625 22.410157 0 12.359375 10.050781 22.410156 22.40625 22.410156s22.410156-10.050781 22.410156-22.410156c0-12.355469-10.054687-22.410157-22.410156-22.410157zm0 0" fill="#690589"/><path d="m47.660156 381.878906c-16.769531 0-30.410156-13.640625-30.410156-30.40625 0-16.769531 13.640625-30.410156 30.410156-30.410156 16.765625 0 30.40625 13.640625 30.40625 30.410156 0 16.765625-13.640625 30.40625-30.40625 30.40625zm0-52.816406c-12.359375 0-22.410156 10.050781-22.410156 22.410156 0 12.355469 10.050781 22.40625 22.410156 22.40625 12.355469 0 22.40625-10.050781 22.40625-22.40625 0-12.355468-10.050781-22.410156-22.40625-22.410156zm0 0" fill="#690589"/><path d="m47.660156 184.558594c-16.769531 0-30.410156-13.640625-30.410156-30.410156 0-16.765626 13.640625-30.410157 30.410156-30.410157 16.765625 0 30.40625 13.644531 30.40625 30.410157 0 16.769531-13.640625 30.410156-30.40625 30.410156zm0-52.816406c-12.359375 0-22.410156 10.050781-22.410156 22.410156 0 12.355468 10.050781 22.40625 22.410156 22.40625 12.355469 0 22.40625-10.050782 22.40625-22.40625 0-12.359375-10.050781-22.410156-22.40625-22.410156zm0 0" fill="#690589"/><path d="m388.675781 381.878906c-16.765625 0-30.40625-13.640625-30.40625-30.40625 0-16.769531 13.640625-30.410156 30.40625-30.410156 16.769531 0 30.410157 13.640625 30.410157 30.410156 0 16.765625-13.640626 30.40625-30.410157 30.40625zm0-52.816406c-12.355469 0-22.40625 10.050781-22.40625 22.410156 0 12.355469 10.050781 22.40625 22.40625 22.40625s22.410157-10.050781 22.410157-22.40625c0-12.355468-10.054688-22.410156-22.410157-22.410156zm0 0" fill="#690589"/><path d="m388.675781 184.558594c-16.765625 0-30.40625-13.640625-30.40625-30.410156 0-16.765626 13.640625-30.410157 30.40625-30.410157 16.769531 0 30.410157 13.644531 30.410157 30.410157 0 16.769531-13.640626 30.410156-30.410157 30.410156zm0-52.816406c-12.355469 0-22.40625 10.050781-22.40625 22.410156 0 12.355468 10.050781 22.40625 22.40625 22.40625s22.410157-10.050782 22.410157-22.40625c0-12.359375-10.054688-22.410156-22.410157-22.410156zm0 0" fill="#690589"/><path d="m228.203125 222.164062-17.222656-36.605468h-33.34375l17.222656 36.605468h-73.914063c-5.945312 0-10.761718 4.820313-10.761718 10.765626v50.746093c0 5.945313 4.820312 10.761719 10.761718 10.761719h195.296876c5.945312 0 10.765624-4.820312 10.765624-10.761719v-50.746093c0-5.949219-4.820312-10.765626-10.765624-10.765626zm0 0" fill="#fcc24c"/><path d="m316.242188 222.164062h-20c5.945312 0 10.765624 4.820313 10.765624 10.765626v50.746093c0 5.941407-4.820312 10.761719-10.765624 10.761719h20c5.945312 0 10.765624-4.820312 10.765624-10.761719v-50.746093c0-5.945313-4.820312-10.765626-10.765624-10.765626zm0 0" fill="#dea42e"/><path d="m120.945312 294.441406h20c-5.945312 0-10.761718-4.820312-10.761718-10.765625v-50.746093c0-5.945313 4.820312-10.765626 10.761718-10.765626h-20c-5.945312 0-10.761718 4.820313-10.761718 10.765626v50.746093c0 5.945313 4.816406 10.765625 10.761718 10.765625zm0 0" fill="#fce06a"/><path d="m316.242188 298.441406h-195.296876c-8.140624 0-14.761718-6.625-14.761718-14.765625v-50.746093c0-8.140626 6.621094-14.765626 14.761718-14.765626h67.613282l-14.539063-30.898437c-.585937-1.238281-.492187-2.691406.242188-3.84375.734375-1.15625 2.007812-1.859375 3.375-1.859375h33.34375c1.546875 0 2.957031.894531 3.617187 2.296875l16.144532 34.304687h85.5c8.140624 0 14.765624 6.625 14.765624 14.765626v50.746093c0 8.140625-6.625 14.765625-14.765624 14.765625zm-195.296876-72.277344c-3.726562 0-6.761718 3.035157-6.761718 6.765626v50.746093c0 3.726563 3.035156 6.761719 6.761718 6.761719h195.296876c3.726562 0 6.765624-3.035156 6.765624-6.761719v-50.746093c0-3.730469-3.039062-6.765626-6.765624-6.765626h-88.042969c-1.546875 0-2.957031-.894531-3.617188-2.296874l-16.144531-34.304688h-24.5l14.542969 30.898438c.582031 1.242187.488281 2.691406-.242188 3.847656-.734375 1.15625-2.007812 1.855468-3.378906 1.855468zm0 0" fill="#690589"/><path d="m177.777344 244h-45.121094c-2.207031 0-4-1.792969-4-4s1.792969-4 4-4h45.121094c2.207031 0 4 1.792969 4 4s-1.792969 4-4 4zm0 0" fill="#690589"/><path d="m230.519531 244h-30.082031c-2.207031 0-4-1.792969-4-4s1.792969-4 4-4h30.082031c2.207031 0 4 1.792969 4 4s-1.792969 4-4 4zm0 0" fill="#690589"/><path d="m291.261719 262.691406h-82.722657c-2.207031 0-4-1.792968-4-4 0-2.207031 1.792969-4 4-4h82.722657c2.207031 0 4 1.792969 4 4 0 2.207032-1.792969 4-4 4zm0 0" fill="#690589"/><path d="m212.671875 280.542969h-82.71875c-2.207031 0-4-1.792969-4-4s1.792969-4 4-4h82.71875c2.207031 0 4 1.792969 4 4s-1.789063 4-4 4zm0 0" fill="#690589"/><path d="m188.03125 262.691406h-28.03125c-2.207031 0-4-1.792968-4-4 0-2.207031 1.792969-4 4-4h28.03125c2.210938 0 4 1.792969 4 4 0 2.207032-1.789062 4-4 4zm0 0" fill="#690589"/><path d="m302.128906 280.542969h-28.03125c-2.207031 0-4-1.792969-4-4s1.792969-4 4-4h28.03125c2.207032 0 4 1.792969 4 4s-1.792968 4-4 4zm0 0" fill="#690589"/><path d="m305.378906 244h-50.082031c-2.207031 0-4-1.792969-4-4s1.792969-4 4-4h50.082031c2.210938 0 4 1.792969 4 4s-1.789062 4-4 4zm0 0" fill="#690589"/><path d="m259.378906 280.542969h-28.082031c-2.207031 0-4-1.792969-4-4s1.792969-4 4-4h28.082031c2.210938 0 4 1.792969 4 4s-1.789062 4-4 4zm0 0" fill="#690589"/></svg>