<svg height="504pt" viewBox="-78 0 504 504" width="504pt" xmlns="http://www.w3.org/2000/svg"><path d="m317.382812 500h-286.914062c-14.617188 0-26.46875-11.851562-26.46875-26.46875 0-14.621094 11.851562-26.472656 26.46875-26.472656h286.910156c14.617188 0 26.472656 11.851562 26.472656 26.472656 0 14.617188-11.851562 26.46875-26.46875 26.46875zm0 0" fill="#f4efed"/><path d="m308.226562 447.0625h-268.601562c-12.363281 0-22.390625-10.023438-22.390625-22.390625v-345.34375c0-12.367187 10.027344-22.390625 22.390625-22.390625h268.601562c12.367188 0 22.390626 10.023438 22.390626 22.390625v345.34375c0 12.363281-10.023438 22.390625-22.390626 22.390625zm0 0" fill="#ff4397"/><path d="m308.226562 56.9375h-20c12.367188 0 22.390626 10.023438 22.390626 22.390625v345.34375c0 12.367187-10.023438 22.386719-22.390626 22.386719h20c12.367188 0 22.390626-10.023438 22.390626-22.386719v-345.34375c0-12.367187-10.023438-22.390625-22.390626-22.390625zm0 0" fill="#e12579"/><path d="m39.625 447.058594h20c-12.363281 0-22.390625-10.023438-22.390625-22.386719v-345.34375c0-12.367187 10.027344-22.386719 22.390625-22.386719h-20c-12.363281 0-22.390625 10.023438-22.390625 22.386719v345.34375c0 12.363281 10.027344 22.386719 22.390625 22.386719zm0 0" fill="#ff61b5"/><path d="m317.382812 56.9375h-286.914062c-14.617188 0-26.46875-11.847656-26.46875-26.46875.003906-14.617188 11.851562-26.46875 26.46875-26.46875h286.910156c14.617188 0 26.472656 11.851562 26.472656 26.46875 0 14.621094-11.851562 26.46875-26.46875 26.46875zm0 0" fill="#f4efed"/><path d="m317.382812 4h-20c14.617188 0 26.46875 11.851562 26.46875 26.46875 0 14.621094-11.847656 26.46875-26.46875 26.46875h20c14.617188 0 26.46875-11.847656 26.46875-26.46875 0-14.617188-11.851562-26.46875-26.46875-26.46875zm0 0" fill="#d6d1cf"/><path d="m30.46875 56.9375h20c-14.617188 0-26.46875-11.847656-26.46875-26.46875.003906-14.617188 11.851562-26.46875 26.46875-26.46875h-20c-14.617188 0-26.46875 11.851562-26.46875 26.46875.003906 14.621094 11.851562 26.46875 26.46875 26.46875zm0 0" fill="#fff"/><path d="m317.382812 447.0625h-20c14.617188 0 26.46875 11.847656 26.46875 26.46875 0 14.617188-11.847656 26.46875-26.46875 26.46875h20c14.617188 0 26.46875-11.851562 26.46875-26.46875 0-14.621094-11.851562-26.46875-26.46875-26.46875zm0 0" fill="#d6d1cf"/><path d="m30.46875 500h20c-14.617188 0-26.46875-11.851562-26.46875-26.46875 0-14.621094 11.851562-26.46875 26.46875-26.46875h-20c-14.617188 0-26.46875 11.847656-26.46875 26.46875.003906 14.617188 11.851562 26.46875 26.46875 26.46875zm0 0" fill="#fff"/><path d="m245.285156 345.28125c29.316406-4.519531 53.78125-15.683594 65.828125-28.511719-15.351562-8.609375-42.042969-11.882812-71.359375-7.363281-3.160156.488281-6.253906 1.066406-9.292968 1.703125 7.109374-5.460937 14.195312-11.640625 21.066406-18.511719 26.292968-26.292968 42.757812-55.703125 45.429687-77.605468-21.898437 2.671874-51.308593 19.140624-77.597656 45.433593-9.046875 9.042969-16.894531 18.457031-23.453125 27.804688 4.480469-18.167969 7.03125-38.996094 7.03125-61.144531 0-47.414063-11.671875-88.785157-29.007812-110.941407-17.339844 22.15625-29.011719 63.527344-29.011719 110.941407 0 22.148437 2.546875 42.976562 7.03125 61.144531-6.558594-9.347657-14.40625-18.761719-23.453125-27.804688-26.292969-26.292969-55.703125-42.761719-77.601563-45.433593 2.671875 21.898437 19.140625 51.3125 45.429688 77.605468 6.875 6.871094 13.960937 13.050782 21.070312 18.511719-3.039062-.636719-6.132812-1.214844-9.292969-1.703125-29.316406-4.519531-56.007812-1.246094-71.359374 7.363281 12.046874 12.832031 36.511718 23.992188 65.828124 28.511719 13.398438 2.066406 26.230469 2.488281 37.703126 1.53125-2.886719 1.722656-5.777344 3.636719-8.640626 5.734375-15.171874 11.117187-25.671874 24.550781-28.695312 35.292969 11.15625.351562 27.125-5.613282 42.296875-16.730469 13.996094-10.257813 24.003906-22.484375 27.84375-32.753906.226563-.121094.472656-.230469.691406-.355469.050781.007812.105469.019531.160157.023438.050781-.003907.105468-.015626.15625-.023438.21875.125.464843.234375.691406.355469 3.839844 10.269531 13.84375 22.496093 27.84375 32.753906 15.171875 11.117187 31.144531 17.082031 42.296875 16.730469-3.023438-10.742188-13.523438-24.175782-28.695313-35.292969-2.863281-2.097656-5.753906-4.011719-8.636718-5.734375 11.464843.953125 24.300781.53125 37.699218-1.53125zm0 0" fill="#7bac51"/><path d="m63.628906 217.835938c3.675782 21.558593 19.832032 49.585937 45.003906 74.761718 4.523438 4.523438 9.140626 8.746094 13.792969 12.660156 1.851563 1.558594.46875 4.535157-1.921875 4.164063-.035156-.007813-.066406-.011719-.097656-.015625-2.085938-.320312-4.152344-.59375-6.207031-.835938-6.035157-4.824218-12.03125-10.132812-17.875-15.972656-26.289063-26.292968-42.757813-55.703125-45.429688-77.605468 4.011719.492187 8.28125 1.449218 12.734375 2.84375zm0 0" fill="#99ca6f"/><path d="m88.390625 307.515625c-16.066406.667969-29.867187 3.941406-39.339844 9.253906 12.046875 12.832031 36.507813 23.992188 65.824219 28.511719 6.617188 1.019531 13.09375 1.632812 19.335938 1.882812-9.863282.394532-20.554688-.175781-31.644532-1.882812-29.3125-4.519531-53.78125-15.683594-65.828125-28.511719 11.820313-6.628906 30.371094-10.074219 51.652344-9.253906zm0 0" fill="#99ca6f"/><path d="m131.628906 352.546875c2.605469-1.910156 5.238282-3.65625 7.863282-5.257813.945312.007813 1.878906.003907 2.808593-.003906 2.820313-.03125 3.996094 3.535156 1.722657 5.199219-.027344.019531-.058594.042969-.085938.0625-14.324219 10.496094-24.480469 23.0625-28.113281 33.472656-4.703125 1.304688-9.082031 1.9375-12.886719 1.820313 3.023438-10.742188 13.523438-24.175782 28.691406-35.292969zm0 0" fill="#99ca6f"/><path d="m151.949219 288.230469c6.210937 0 10.910156-5.640625 9.753906-11.746094-2.882813-15.199219-4.476563-31.886719-4.476563-49.398437 0 0-1.023437-76.667969 16.703126-110.941407-17.335938 22.15625-29.011719 63.527344-29.011719 110.941407 0 14.285156 1.074219 28.007812 3.027343 40.835937zm0 0" fill="#99ca6f"/><path d="m284.222656 217.835938c-3.675781 21.558593-19.832031 49.585937-45.003906 74.761718-4.523438 4.523438-9.140625 8.746094-13.792969 12.660156-1.851562 1.558594-.46875 4.535157 1.925781 4.164063.03125-.007813.0625-.011719.09375-.015625 2.085938-.320312 4.152344-.59375 6.207032-.835938 6.035156-4.824218 12.03125-10.132812 17.875-15.972656 26.289062-26.292968 42.757812-55.703125 45.429687-77.605468-4.011719.492187-8.28125 1.449218-12.734375 2.84375zm0 0" fill="#5d8e33"/><path d="m259.460938 307.515625c16.066406.667969 29.867187 3.941406 39.34375 9.253906-12.046876 12.832031-36.511719 23.992188-65.828126 28.511719-6.613281 1.019531-13.089843 1.632812-19.332031 1.882812 9.863281.394532 20.550781-.175781 31.640625-1.882812 29.316406-4.519531 53.78125-15.683594 65.828125-28.511719-11.820312-6.628906-30.371093-10.074219-51.652343-9.253906zm0 0" fill="#5d8e33"/><path d="m216.222656 352.546875c-2.605468-1.910156-5.238281-3.65625-7.863281-5.257813-.941406.007813-1.878906.003907-2.808594-.003906-2.820312-.03125-3.996093 3.535156-1.722656 5.199219.027344.019531.058594.042969.085937.0625 14.328126 10.496094 24.480469 23.0625 28.113282 33.472656 4.703125 1.304688 9.082031 1.9375 12.886718 1.820313-3.023437-10.742188-13.523437-24.175782-28.691406-35.292969zm0 0" fill="#5d8e33"/><path d="m195.902344 288.230469c-6.210938 0-10.910156-5.640625-9.75-11.746094 2.882812-15.199219 4.476562-31.886719 4.476562-49.398437 0 0 1.019532-76.667969-16.703125-110.941407 17.335938 22.15625 29.007813 63.527344 29.007813 110.941407 0 14.285156-1.074219 28.007812-3.027344 40.835937zm0 0" fill="#5d8e33"/><g fill="#690589"><path d="m173.925781 391.570312c-2.207031 0-4-1.789062-4-4v-49.648437c0-2.210937 1.792969-4 4-4s4 1.789063 4 4v49.648437c0 2.210938-1.792969 4-4 4zm0 0"/><path d="m103.898438 391.855469c-.367188 0-.726563-.003907-1.089844-.015625-1.230469-.042969-2.371094-.640625-3.097656-1.632813-.730469-.996093-.957032-2.265625-.625-3.449219 3.207031-11.394531 13.417968-24.484374 27.558593-35.460937-8.027343-.078125-16.285156-.769531-24.683593-2.0625-29.453126-4.542969-54.921876-15.65625-68.136719-29.726563-.839844-.894531-1.222657-2.128906-1.035157-3.347656.183594-1.21875.921876-2.277344 1.996094-2.878906 15.816406-8.867188 41.15625-11.984375 68.578125-8.570312-3.367187-2.980469-6.664062-6.082032-9.867187-9.285157-26.253906-26.253906-43.664063-56.140625-46.570313-79.945312-.148437-1.21875.273438-2.445313 1.140625-3.3125.871094-.871094 2.097656-1.300781 3.3125-1.140625 23.804688 2.90625 53.691406 20.316406 79.945313 46.574218 4.660156 4.660157 9.078125 9.484376 13.21875 14.429688-2.386719-14.328125-3.625-29.585938-3.625-44.941406 0-46.414063 11.441406-89.871094 29.859375-113.40625 1.515625-1.941406 4.785156-1.941406 6.296875 0 18.417969 23.539062 29.863281 66.992187 29.863281 113.40625 0 15.355468-1.242188 30.613281-3.628906 44.941406 4.144531-4.949219 8.558594-9.769531 13.21875-14.429688 26.257812-26.257812 56.144531-43.667968 79.945312-46.574218 1.222656-.148438 2.445313.269531 3.3125 1.140625.871094.871093 1.292969 2.09375 1.144532 3.3125-2.90625 23.800781-20.316407 53.6875-46.574219 79.945312-3.203125 3.203125-6.496094 6.300781-9.867188 9.285157 27.421875-3.421876 52.765625-.296876 68.578125 8.570312 1.074219.601562 1.808594 1.664062 1.996094 2.878906.191406 1.214844-.195312 2.453125-1.035156 3.347656-13.214844 14.070313-38.683594 25.183594-68.136719 29.726563-8.398437 1.292969-16.65625 1.984375-24.683594 2.0625 14.140625 10.976563 24.347657 24.066406 27.558594 35.460937.332031 1.183594.101563 2.453126-.625 3.445313-.726563.996094-1.871094 1.597656-3.101563 1.636719-12.53125.417968-29.292968-6.148438-44.789062-17.503906-11.542969-8.457032-20.972656-18.6875-26.328125-28.363282-5.355469 9.675782-14.789063 19.90625-26.328125 28.363282-15.046875 11.03125-31.277344 17.519531-43.695312 17.519531zm36.371093-49.042969c1.722657 0 3.273438 1.113281 3.804688 2.777344.570312 1.773437-.160157 3.703125-1.753907 4.65625-2.8125 1.679687-5.613281 3.542968-8.328124 5.527344-11.511719 8.4375-20.640626 18.605468-25.078126 27.6875 9.992188-1.496094 22.441407-7.140626 33.953126-15.578126 12.847656-9.414062 22.742187-20.976562 26.460937-30.925781.34375-.910156 1-1.664062 1.859375-2.121093l.632812-.328126c.730469-.402343 1.566407-.574218 2.398438-.480468.007812 0 .015625.003906.027344.003906.625.035156 1.273437.191406 1.785156.476562l.628906.320313c.859375.460937 1.519532 1.214844 1.863282 2.125 3.71875 9.953125 13.613281 21.515625 26.457031 30.929687 11.515625 8.4375 23.960937 14.082032 33.957031 15.574219-4.433594-9.078125-13.566406-19.25-25.078125-27.683593-2.714844-1.988282-5.515625-3.847657-8.328125-5.53125-1.597656-.953126-2.324219-2.882813-1.757812-4.652344.570312-1.777344 2.230468-2.9375 4.140624-2.765625 11.488282.957031 24.203126.4375 36.761719-1.5 24.527344-3.785157 46.648438-12.597657 59.492188-23.488281-15.527344-6.519532-39.277344-8.257813-63.804688-4.476563-2.863281.441406-5.832031.984375-9.085937 1.664063-1.824219.371093-3.671875-.550782-4.453125-2.246094-.78125-1.699219-.28125-3.707032 1.199219-4.839844 7.164062-5.503906 14.121093-11.617188 20.675781-18.171875 22.6875-22.6875 38.863281-48.898437 43.375-69.890625-20.988281 4.515625-47.207031 20.695312-69.886719 43.378906-8.609375 8.605469-16.347656 17.78125-23.003906 27.273438-1.109375 1.578125-3.175782 2.144531-4.933594 1.34375-1.753906-.796875-2.691406-2.726563-2.226562-4.597656 4.523437-18.335938 6.914062-39.148438 6.914062-60.1875 0-41.945313-9.496094-81.121094-25.007812-104.132813-15.515626 23.011719-25.007813 62.1875-25.007813 104.132813 0 21.039062 2.386719 41.851562 6.914063 60.1875.457031 1.871093-.476563 3.800781-2.230469 4.597656-1.75.800781-3.824219.234375-4.929688-1.34375-6.65625-9.488282-14.394531-18.664063-23.003906-27.273438-22.683594-22.6875-48.898437-38.863281-69.890625-43.378906 4.515625 20.992188 20.691406 47.210938 43.375 69.890625 6.550781 6.550781 13.507812 12.664063 20.679688 18.171875 1.476562 1.132812 1.976562 3.140625 1.195312 4.839844-.777344 1.695312-2.625 2.621094-4.453125 2.246094-3.25-.679688-6.21875-1.222657-9.082031-1.664063-24.527344-3.78125-48.277344-2.042969-63.804688 4.476563 12.84375 10.890624 34.960938 19.707031 59.492188 23.488281 12.558594 1.9375 25.273437 2.453125 36.761718 1.5.105469-.007813.214844-.011719.324219-.011719zm105.015625 2.46875h.019532zm0 0"/><path d="m317.382812 60.941406h-286.914062c-16.796875 0-30.46875-13.671875-30.46875-30.472656 0-16.796875 13.671875-30.46875 30.46875-30.46875h286.910156c16.800782 0 30.46875 13.667969 30.46875 30.46875s-13.664062 30.472656-30.464844 30.472656zm-286.914062-52.941406c-12.390625 0-22.46875 10.078125-22.46875 22.46875s10.078125 22.46875 22.46875 22.46875h286.910156c12.390625 0 22.46875-10.078125 22.46875-22.46875s-10.078125-22.46875-22.46875-22.46875zm0 0"/><path d="m317.382812 504h-286.914062c-16.796875 0-30.46875-13.667969-30.46875-30.46875s13.667969-30.46875 30.46875-30.46875h286.910156c16.800782 0 30.46875 13.667969 30.46875 30.46875s-13.664062 30.46875-30.464844 30.46875zm-286.914062-52.941406c-12.390625 0-22.46875 10.082031-22.46875 22.472656 0 12.386719 10.078125 22.464844 22.46875 22.464844h286.910156c12.390625 0 22.46875-10.078125 22.46875-22.464844 0-12.390625-10.078125-22.472656-22.46875-22.472656zm0 0"/><path d="m308.226562 451.058594h-268.601562c-14.550781 0-26.390625-11.835938-26.390625-26.386719v-345.34375c0-14.550781 11.839844-26.386719 26.390625-26.386719h268.601562c14.550782 0 26.386719 11.835938 26.386719 26.386719v345.34375c.003907 14.550781-11.835937 26.386719-26.386719 26.386719zm-268.601562-390.117188c-10.140625 0-18.390625 8.25-18.390625 18.386719v345.34375c0 10.136719 8.25 18.386719 18.390625 18.386719h268.601562c10.136719 0 18.386719-8.25 18.386719-18.386719v-345.34375c0-10.136719-8.25-18.386719-18.386719-18.386719zm0 0"/><path d="m33.234375 128.832031c-2.207031 0-4-1.792969-4-4v-24c0-2.207031 1.792969-4 4-4 2.210937 0 4 1.792969 4 4v24c0 2.210938-1.789063 4-4 4zm0 0"/></g></svg>