<svg height="504pt" viewBox="0 -49 504 503" width="504pt" xmlns="http://www.w3.org/2000/svg"><path d="m478.765625 131.992188h-453.53125c-8.664063 0-15.6875-7.023438-15.6875-15.691407 0-8.664062 7.023437-15.6875 15.6875-15.6875h453.53125c8.664063 0 15.6875 7.023438 15.6875 15.6875 0 8.667969-7.023437 15.691407-15.6875 15.691407zm0 0" fill="#ff4397"/><path d="m478.765625 100.613281h-20c8.664063 0 15.6875 7.023438 15.6875 15.6875 0 8.664063-7.023437 15.691407-15.6875 15.691407h20c8.664063 0 15.6875-7.027344 15.6875-15.691407 0-8.664062-7.023437-15.6875-15.6875-15.6875zm0 0" fill="#e12579"/><path d="m25.234375 131.992188h20c-8.664063 0-15.6875-7.023438-15.6875-15.691407 0-8.664062 7.023437-15.6875 15.6875-15.6875h-20c-8.664063 0-15.6875 7.023438-15.6875 15.6875 0 8.667969 7.023437 15.691407 15.6875 15.691407zm0 0" fill="#ff61b5"/><path d="m478.765625 135.992188h-453.53125c-10.855469 0-19.6875-8.832032-19.6875-19.691407 0-10.855469 8.832031-19.6875 19.6875-19.6875h453.53125c10.855469 0 19.6875 8.832031 19.6875 19.6875 0 10.859375-8.832031 19.691407-19.6875 19.691407zm-453.53125-31.378907c-6.445313 0-11.6875 5.242188-11.6875 11.6875 0 6.445313 5.242187 11.691407 11.6875 11.691407h453.53125c6.445313 0 11.6875-5.246094 11.6875-11.691407 0-6.445312-5.242187-11.6875-11.6875-11.6875zm0 0" fill="#690589"/><path d="m350.113281 158.628906h-196.226562c-5.914063 0-10.707031-4.792968-10.707031-10.707031v-63.238281c0-5.914063 4.792968-10.710938 10.707031-10.710938h196.226562c5.914063 0 10.707031 4.796875 10.707031 10.710938v63.234375c0 5.917969-4.792968 10.710937-10.707031 10.710937zm0 0" fill="#7bac51"/><path d="m317.023438 39.4375h-130.046876c-3.703124 0-7.148437 1.917969-9.101562 5.066406l-18.277344 29.46875h184.800782l-18.277344-29.46875c-1.949219-3.148437-5.394532-5.066406-9.097656-5.066406zm0 0" fill="#fcc24c"/><path d="m206.078125 158.628906h91.847656v39.351563h-91.847656zm0 0" fill="#f4efed"/><path d="m277.921875 158.628906h20v39.347656h-20zm0 0" fill="#d6d1cf"/><path d="m206.078125 158.628906h20v39.347656h-20zm0 0" fill="#fff"/><path d="m49.921875 23.851562c-5.925781 0-10.722656 4.800782-10.722656 10.722657v66.039062h21.445312v-66.039062c0-5.921875-4.800781-10.722657-10.722656-10.722657zm0 0" fill="#fce06a"/><path d="m454.078125 23.851562c-5.921875 0-10.722656 4.800782-10.722656 10.722657v66.039062h21.445312v-66.039062c0-5.921875-4.800781-10.722657-10.722656-10.722657zm0 0" fill="#dea42e"/><path d="m60.644531 104.613281h-21.445312c-2.210938 0-4-1.792969-4-4v-66.039062c0-8.117188 6.605469-14.71875 14.722656-14.71875 8.121094 0 14.722656 6.605469 14.722656 14.71875v66.039062c0 2.207031-1.789062 4-4 4zm-17.445312-8h13.445312v-62.039062c0-3.707031-3.015625-6.71875-6.722656-6.71875s-6.722656 3.015625-6.722656 6.71875zm0 0" fill="#690589"/><path d="m464.800781 104.613281h-21.445312c-2.210938 0-4-1.792969-4-4v-66.039062c0-8.117188 6.605469-14.71875 14.722656-14.71875s14.722656 6.605469 14.722656 14.71875v66.039062c0 2.207031-1.789062 4-4 4zm-17.445312-8h13.445312v-62.039062c0-3.707031-3.015625-6.71875-6.722656-6.71875s-6.722656 3.015625-6.722656 6.71875zm0 0" fill="#690589"/><path d="m326.125 44.503906c-1.953125-3.148437-5.398438-5.0625-9.101562-5.0625h-20c3.703124 0 7.148437 1.914063 9.101562 5.0625l18.277344 29.46875h20zm0 0" fill="#dea42e"/><path d="m177.875 44.503906c1.953125-3.148437 5.398438-5.0625 9.101562-5.0625h20c-3.703124 0-7.148437 1.914063-9.101562 5.0625l-18.277344 29.46875h-20zm0 0" fill="#fce06a"/><path d="m150.734375 198.253906h202.535156v202.53125h-202.535156zm0 0" fill="#fcc24c"/><path d="m335.539062 198.253906h17.726563v202.53125h-17.726563zm0 0" fill="#dea42e"/><path d="m150.734375 198.253906h17.726563v202.53125h-17.726563zm0 0" fill="#fce06a"/><path d="m290.355469 352.332031c15.757812-2.429687 28.910156-8.429687 35.382812-15.324219-8.253906-4.628906-22.597656-6.386718-38.355469-3.957031-1.699218.261719-3.363281.574219-4.996093.914063 3.820312-2.933594 7.628906-6.257813 11.324219-9.949219 14.132812-14.132813 22.980468-29.941406 24.417968-41.714844-11.769531 1.4375-27.578125 10.289063-41.710937 24.421875-4.863281 4.863282-9.078125 9.917969-12.605469 14.945313 2.40625-9.765625 3.777344-20.960938 3.777344-32.867188 0-25.484375-6.273438-47.722656-15.59375-59.628906-9.316406 11.90625-15.589844 34.144531-15.589844 59.628906 0 11.90625 1.371094 23.101563 3.777344 32.867188-3.523438-5.027344-7.742188-10.082031-12.605469-14.945313-14.132813-14.132812-29.941406-22.984375-41.710937-24.421875 1.4375 11.769531 10.289062 27.582031 24.421874 41.714844 3.691407 3.691406 7.503907 7.015625 11.324219 9.949219-1.636719-.339844-3.296875-.652344-4.996093-.914063-15.757813-2.429687-30.105469-.671875-38.355469 3.957031 6.472656 6.894532 19.621093 12.894532 35.378906 15.324219 7.203125 1.109375 14.101563 1.335938 20.265625.824219-1.550781.925781-3.105469 1.957031-4.644531 3.082031-8.152344 5.976563-13.796875 13.199219-15.421875 18.972657 5.996094.1875 14.578125-3.015626 22.730468-8.992188 7.527344-5.515625 12.902344-12.085938 14.96875-17.605469.121094-.066406.253907-.125.371094-.191406.03125.003906.058594.007813.085938.011719.027344-.003906.054687-.007813.082031-.011719.121094.0625.25.125.375.191406 2.0625 5.519531 7.441406 12.089844 14.964844 17.605469 8.152343 5.976562 16.738281 9.179688 22.734375 8.992188-1.625-5.773438-7.269532-12.996094-15.425782-18.972657-1.539062-1.125-3.09375-2.152343-4.640624-3.082031 6.171874.515625 13.066406.285156 20.269531-.824219zm0 0" fill="#7bac51"/><g fill="#690589"><path d="m252 379.066406c-2.207031 0-4-1.792968-4-4v-26.691406c0-2.207031 1.792969-4 4-4s4 1.792969 4 4v26.691406c0 2.207032-1.792969 4-4 4zm0 0"/><path d="m214.351562 379.214844c-.214843 0-.425781-.003906-.632812-.007813-1.230469-.042969-2.375-.640625-3.101562-1.632812-.726563-.992188-.957032-2.265625-.625-3.449219 1.527343-5.417969 5.773437-11.46875 11.734374-16.886719-2.859374-.183593-5.757812-.5-8.691406-.953125-16.226562-2.503906-30.316406-8.6875-37.6875-16.542968-.84375-.894532-1.226562-2.128907-1.039062-3.347657.1875-1.214843.921875-2.277343 1.996094-2.875 7.75-4.347656 19.507812-6.234375 32.496093-5.359375-.449219-.4375-.898437-.875-1.339843-1.316406-14.394532-14.398438-23.953126-30.867188-25.5625-44.054688-.144532-1.222656.273437-2.445312 1.144531-3.3125.867187-.871093 2.085937-1.296874 3.3125-1.140624 13.1875 1.609374 29.65625 11.160156 44.054687 25.558593 1.050782 1.050781 2.082032 2.121094 3.085938 3.203125-.71875-5.949218-1.089844-12.109375-1.089844-18.292968 0-25.726563 6.148438-48.941407 16.445312-62.097657 1.515626-1.9375 4.78125-1.9375 6.296876 0 10.296874 13.15625 16.445312 36.371094 16.445312 62.097657 0 6.183593-.371094 12.34375-1.089844 18.292968 1.003906-1.082031 2.035156-2.148437 3.085938-3.203125 14.398437-14.398437 30.867187-23.953125 44.054687-25.558593 1.222657-.15625 2.445313.269531 3.316407 1.140624.867187.871094 1.292968 2.089844 1.140624 3.3125-1.613281 13.1875-11.164062 29.65625-25.5625 44.054688-.441406.441406-.886718.878906-1.335937 1.316406 12.988281-.878906 24.742187 1.011719 32.492187 5.359375 1.074219.601563 1.8125 1.660157 2 2.875.1875 1.214844-.199218 2.453125-1.039062 3.347657-7.375 7.855468-21.460938 14.039062-37.6875 16.542968-2.933594.453125-5.835938.769532-8.691406.953125 5.960937 5.417969 10.207031 11.464844 11.734375 16.886719.332031 1.183594.101562 2.457031-.625 3.449219-.730469.992187-1.871094 1.59375-3.101563 1.632812-7.128906.179688-16.574218-3.425781-25.222656-9.765625-5.457031-3.996094-9.972656-8.585937-13.058594-13.179687-3.085937 4.59375-7.605468 9.183593-13.058594 13.179687-8.402343 6.15625-17.53125 9.773438-24.59375 9.773438zm19.558594-30.058594c1.726563 0 3.273438 1.113281 3.808594 2.777344.570312 1.769531-.15625 3.699218-1.753906 4.65625-1.476563.882812-2.933594 1.851562-4.332032 2.875-4.359374 3.195312-8.121093 6.945312-10.6875 10.542968 4.199219-1.371093 8.910157-3.820312 13.269532-7.019531 6.625-4.855469 11.707031-10.753906 13.582031-15.78125.34375-.914062 1.007813-1.671875 1.867187-2.128906.03125-.019531.242188-.125.273438-.136719.542969-.273437 1.28125-.488281 1.929688-.515625.742187-.027343 1.480468.125 2.132812.480469.035156.019531.300781.152344.335938.171875.859374.457031 1.523437 1.214844 1.867187 2.128906 1.878906 5.027344 6.957031 10.925781 13.582031 15.78125 4.359375 3.195313 9.070313 5.648438 13.269532 7.015625-2.566407-3.59375-6.324219-7.34375-10.6875-10.539062-1.398438-1.027344-2.855469-1.996094-4.332032-2.878906-1.597656-.957032-2.324218-2.882813-1.753906-4.65625.570312-1.769532 2.277344-2.921876 4.140625-2.761719 6.03125.503906 12.707031.226562 19.324219-.789063 11.320312-1.75 21.625-5.5 28.453125-10.210937-7.929688-2.4375-18.882813-2.914063-30.207031-1.164063-1.625.25-3.21875.546875-4.785157.875-1.839843.378906-3.675781-.550781-4.453125-2.246094-.78125-1.695312-.285156-3.707031 1.199219-4.839843 3.777344-2.902344 7.457031-6.136719 10.929687-9.609375 10.90625-10.90625 18.945313-23.300782 22.054688-33.691406-10.386719 3.109374-22.78125 11.148437-33.691406 22.054687-4.546875 4.546875-8.636719 9.398437-12.15625 14.414063-1.105469 1.578124-3.179688 2.148437-4.933594 1.34375-1.75-.792969-2.6875-2.726563-2.226562-4.597657 2.394531-9.714843 3.664062-20.746093 3.664062-31.910156 0-20.773437-4.363281-40.207031-11.589844-52.503906-7.230468 12.292969-11.59375 31.730469-11.59375 52.503906 0 11.164063 1.265625 22.195313 3.664063 31.910156.460937 1.871094-.476563 3.800781-2.226563 4.597657-1.753906.804687-3.828125.234374-4.933594-1.34375-3.519531-5.015626-7.609374-9.867188-12.15625-14.414063-10.910156-10.90625-23.304687-18.949219-33.691406-22.054687 3.109375 10.386718 11.148438 22.785156 22.054688 33.691406 3.46875 3.46875 7.148437 6.703125 10.929687 9.609375 1.480469 1.132812 1.980469 3.144531 1.203125 4.839843-.78125 1.695313-2.625 2.625-4.457031 2.246094-1.566406-.328125-3.160156-.625-4.789063-.875-11.316406-1.746094-22.273437-1.269531-30.203124 1.164063 6.828124 4.710937 17.128906 8.460937 28.453124 10.210937 6.613282 1.015625 13.292969 1.292969 19.320313.789063.113281-.007813.222656-.011719.332031-.011719zm56.445313 3.179688h.019531zm0 0"/><path d="m353.265625 404.785156h-202.53125c-2.207031 0-4-1.792968-4-4v-202.53125c0-2.207031 1.792969-4 4-4h202.535156c2.207031 0 4 1.792969 4 4v202.535156c-.003906 2.207032-1.792969 3.996094-4.003906 3.996094zm-198.53125-8h194.535156v-194.53125h-194.535156zm0 0"/><path d="m166.734375 252.761719c-2.207031 0-4-1.792969-4-4v-24c0-2.210938 1.792969-4 4-4s4 1.789062 4 4v24c0 2.207031-1.792969 4-4 4zm0 0"/><path d="m297.921875 201.976562h-91.847656c-2.207031 0-4-1.789062-4-4v-39.347656c0-2.207031 1.792969-4 4-4h91.847656c2.207031 0 4 1.792969 4 4v39.347656c0 2.210938-1.789063 4-4 4zm-87.84375-8h83.847656v-31.347656h-83.847656zm0 0"/><path d="m150.734375 303.519531h-9.023437c-8.109376 0-14.707032-6.597656-14.707032-14.710937v-79.84375c0-8.113282 6.597656-14.707032 14.707032-14.707032h9.023437c2.207031 0 4 1.789063 4 4 0 2.207032-1.792969 4-4 4h-9.023437c-3.699219 0-6.707032 3.007813-6.707032 6.707032v79.84375c0 3.703125 3.007813 6.710937 6.707032 6.710937h9.023437c2.207031 0 4 1.792969 4 4s-1.792969 4-4 4zm0 0"/><path d="m362.289062 303.519531h-9.023437c-2.207031 0-4-1.792969-4-4s1.792969-4 4-4h9.023437c3.699219 0 6.707032-3.007812 6.707032-6.710937v-79.84375c0-3.699219-3.007813-6.707032-6.707032-6.707032h-9.023437c-2.207031 0-4-1.792968-4-4 0-2.210937 1.792969-4 4-4h9.023437c8.109376 0 14.707032 6.597657 14.707032 14.707032v79.84375c.003906 8.113281-6.597656 14.710937-14.707032 14.710937zm0 0"/></g><path d="m350.113281 73.972656h-20c5.914063 0 10.707031 4.796875 10.707031 10.710938v63.234375c0 5.917969-4.792968 10.710937-10.707031 10.710937h20c5.914063 0 10.707031-4.792968 10.707031-10.710937v-63.230469c0-5.917969-4.792968-10.714844-10.707031-10.714844zm0 0" fill="#5d8e33"/><path d="m153.886719 73.972656h20c-5.914063 0-10.707031 4.796875-10.707031 10.710938v63.234375c0 5.917969 4.792968 10.710937 10.707031 10.710937h-20c-5.914063 0-10.707031-4.792968-10.707031-10.710937v-63.230469c0-5.917969 4.792968-10.714844 10.707031-10.714844zm0 0" fill="#99ca6f"/><path d="m252 4.503906c-7.234375 0-13.101562 5.863282-13.101562 13.097656v21.835938h26.203124v-21.835938c0-7.234374-5.867187-13.097656-13.101562-13.097656zm0 0" fill="#ff4397"/><path d="m350.113281 162.628906h-196.226562c-8.109375 0-14.707031-6.597656-14.707031-14.707031v-63.234375c0-8.113281 6.597656-14.710938 14.707031-14.710938h196.226562c8.109375 0 14.707031 6.597657 14.707031 14.710938v63.234375c.003907 8.109375-6.597656 14.707031-14.707031 14.707031zm-196.226562-84.65625c-3.699219 0-6.707031 3.011719-6.707031 6.710938v63.234375c0 3.703125 3.007812 6.710937 6.707031 6.710937h196.226562c3.699219 0 6.707031-3.011718 6.707031-6.710937v-63.230469c0-3.703125-3.007812-6.710938-6.707031-6.710938h-196.226562zm0 0" fill="#690589"/><path d="m344.402344 77.972656h-184.804688c-1.453125 0-2.789062-.785156-3.496094-2.050781-.707031-1.273437-.667968-2.820313.097657-4.054687l18.277343-29.46875c2.703126-4.359376 7.378907-6.957032 12.5-6.957032h130.042969c5.125 0 9.796875 2.597656 12.5 6.953125l18.28125 29.472657c.761719 1.234374.800781 2.785156.09375 4.054687-.703125 1.265625-2.039062 2.050781-3.492187 2.050781zm-177.617188-8h170.429688l-14.492188-23.363281c-1.230468-1.984375-3.363281-3.171875-5.699218-3.171875h-130.046876c-2.335937 0-4.46875 1.1875-5.699218 3.175781zm0 0" fill="#690589"/><path d="m265.101562 43.4375h-26.203124c-2.207032 0-4-1.792969-4-4v-21.835938c0-9.429687 7.671874-17.101562 17.101562-17.101562s17.101562 7.671875 17.101562 17.101562v21.835938c0 2.210938-1.792968 4-4 4zm-22.203124-8h18.203124v-17.835938c0-5.019531-4.082031-9.101562-9.097656-9.101562-5.019531 0-9.101562 4.082031-9.101562 9.101562v17.835938zm0 0" fill="#690589"/><path d="m329.300781 116.300781c0 8.667969-7.023437 15.691407-15.6875 15.691407-8.667969 0-15.691406-7.023438-15.691406-15.691407 0-8.664062 7.023437-15.6875 15.691406-15.6875 8.664063 0 15.6875 7.023438 15.6875 15.6875zm0 0" fill="#fcc24c"/><path d="m313.613281 135.992188c-10.855469 0-19.691406-8.832032-19.691406-19.691407 0-10.855469 8.835937-19.6875 19.691406-19.6875s19.6875 8.832031 19.6875 19.6875c0 10.859375-8.832031 19.691407-19.6875 19.691407zm0-31.378907c-6.449219 0-11.691406 5.242188-11.691406 11.6875 0 6.445313 5.242187 11.691407 11.691406 11.691407 6.445313 0 11.6875-5.246094 11.6875-11.691407 0-6.445312-5.242187-11.6875-11.6875-11.6875zm0 0" fill="#690589"/><path d="m267.539062 120.300781h-94.96875c-2.207031 0-4-1.789062-4-4 0-2.207031 1.792969-4 4-4h94.964844c2.207032 0 4 1.792969 4 4 0 2.210938-1.789062 4-3.996094 4zm0 0" fill="#690589"/><path d="m491.171875 60.3125h-74.1875c-4.875 0-8.828125-3.953125-8.828125-8.832031 0-4.875 3.953125-8.828125 8.828125-8.828125h74.1875c4.875 0 8.828125 3.953125 8.828125 8.828125 0 4.878906-3.953125 8.832031-8.828125 8.832031zm0 0" fill="#ff4397"/><path d="m491.171875 42.652344h-20c4.875 0 8.828125 3.953125 8.828125 8.828125 0 4.878906-3.953125 8.832031-8.828125 8.832031h20c4.875 0 8.828125-3.953125 8.828125-8.832031 0-4.875-3.953125-8.828125-8.828125-8.828125zm0 0" fill="#e12579"/><path d="m491.171875 64.3125h-74.1875c-7.074219 0-12.828125-5.753906-12.828125-12.832031 0-7.074219 5.753906-12.828125 12.828125-12.828125h74.1875c7.070313 0 12.828125 5.753906 12.828125 12.828125 0 7.078125-5.757812 12.832031-12.828125 12.832031zm-74.1875-17.660156c-2.664063 0-4.828125 2.164062-4.828125 4.828125 0 2.664062 2.164062 4.832031 4.828125 4.832031h74.1875c2.664063 0 4.828125-2.167969 4.828125-4.832031 0-2.664063-2.164062-4.828125-4.828125-4.828125zm0 0" fill="#690589"/><path d="m87.015625 60.3125h-74.1875c-4.875 0-8.828125-3.953125-8.828125-8.832031 0-4.875 3.953125-8.828125 8.828125-8.828125h74.183594c4.875 0 8.832031 3.953125 8.832031 8.828125 0 4.878906-3.953125 8.832031-8.828125 8.832031zm0 0" fill="#ff4397"/><path d="m24 51.480469c0-4.875 3.953125-8.828125 8.828125-8.828125h-20c-4.875 0-8.828125 3.953125-8.828125 8.828125 0 4.878906 3.953125 8.832031 8.828125 8.832031h20c-4.875 0-8.828125-3.953125-8.828125-8.832031zm0 0" fill="#ff61b5"/><path d="m87.015625 64.3125h-74.1875c-7.070313 0-12.828125-5.753906-12.828125-12.832031 0-7.074219 5.757812-12.828125 12.828125-12.828125h74.1875c7.074219 0 12.828125 5.753906 12.828125 12.828125 0 7.078125-5.753906 12.832031-12.828125 12.832031zm-74.1875-17.660156c-2.664063 0-4.828125 2.164062-4.828125 4.828125 0 2.664062 2.164062 4.832031 4.828125 4.832031h74.1875c2.664063 0 4.828125-2.167969 4.828125-4.832031 0-2.664063-2.164062-4.828125-4.828125-4.828125zm0 0" fill="#690589"/></svg>