<svg height="503pt" viewBox="-23 0 503 503.9915" width="503pt" xmlns="http://www.w3.org/2000/svg"><path d="m407.839844 80.285156 46.089844-46.085937-30.195313-30.199219-92.648437 92.648438-310.125 310.121093c-3.90625 3.90625-3.90625 10.234375 0 14.140625l62.613281 62.617188c3.90625 3.902344 10.238281 3.902344 14.140625 0l310.125-310.125c-25.714844-25.710938-25.714844-67.402344 0-93.117188zm0 0" fill="#f4efed"/><path d="m441.390625 21.65625-17.65625-17.65625-92.648437 92.648438-310.125 310.121093c-3.90625 3.90625-3.90625 10.234375 0 14.140625l10.585937 10.589844zm0 0" fill="#fff"/><path d="m39.519531 496.339844-31.375-31.375c-4.875-4.875-4.875-12.78125 0-17.65625l19.605469-19.605469 49.035156 49.03125-19.605468 19.605469c-4.875 4.878906-12.78125 4.878906-17.660157 0zm0 0" fill="#7bac51"/><path d="m393.660156 152.269531-320.671875 320.671875 10.589844 10.585938c3.90625 3.90625 10.234375 3.90625 14.140625 0l310.121094-310.125c-6.25-6.25-10.96875-13.453125-14.179688-21.132813zm0 0" fill="#d6d1cf"/><path d="m243.398438 184.332031 76.753906 76.753907-141.816406 141.820312-76.757813-76.757812zm0 0" fill="#fcc24c"/><path d="m101.574219 326.15625 141.820312-141.820312 17.65625 17.660156-141.816406 141.816406zm0 0" fill="#fce06a"/><path d="m160.671875 385.25 141.820313-141.820312 17.65625 17.660156-141.820313 141.816406zm0 0" fill="#dea42e"/><g fill="#690589"><path d="m178.332031 406.910156c-1.023437 0-2.046875-.390625-2.828125-1.171875l-76.753906-76.757812c-1.5625-1.5625-1.5625-4.09375 0-5.65625l141.820312-141.820313c1.5-1.5 4.15625-1.5 5.65625 0l76.753907 76.757813c.75.75 1.171875 1.769531 1.171875 2.828125s-.421875 2.078125-1.171875 2.828125l-141.820313 141.820312c-.78125.78125-1.804687 1.171875-2.828125 1.171875zm-71.097656-80.757812 71.097656 71.097656 136.164063-136.160156-71.097656-71.101563zm0 0"/><path d="m48.351562 503.992188c-4.222656 0-8.445312-1.609376-11.660156-4.820313l-31.375-31.375c-6.425781-6.429687-6.425781-16.886719 0-23.316406l19.605469-19.605469c.75-.75 1.769531-1.171875 2.828125-1.171875 1.0625 0 2.078125.421875 2.828125 1.171875l49.035156 49.035156c.75.75 1.171875 1.769532 1.171875 2.828125 0 1.0625-.421875 2.078125-1.171875 2.828125l-19.605469 19.605469c-3.214843 3.210937-7.433593 4.820313-11.65625 4.820313zm-6.003906-10.480469c3.3125 3.3125 8.695313 3.3125 12.003906 0l16.777344-16.777344-43.378906-43.375-16.777344 16.777344c-3.308594 3.308593-3.308594 8.691406 0 12.003906zm0 0"/><path d="m90.648438 490.449219c-3.585938 0-7.171876-1.367188-9.898438-4.097657l-62.617188-62.613281c-5.457031-5.457031-5.457031-14.339843 0-19.796875l402.773438-402.769531c1.558594-1.5625 4.09375-1.5625 5.65625 0l30.195312 30.199219c1.5625 1.558594 1.5625 4.09375 0 5.65625l-46.089843 46.085937c-24.113281 24.113281-24.113281 63.347657 0 87.460938.75.75 1.171875 1.769531 1.171875 2.828125 0 1.0625-.421875 2.078125-1.171875 2.828125l-310.125 310.121093c-2.726563 2.730469-6.308594 4.097657-9.894531 4.097657zm333.085937-480.792969-399.945313 399.941406c-2.335937 2.339844-2.335937 6.144532 0 8.484375l62.617188 62.617188c2.335938 2.335937 6.140625 2.335937 8.484375 0l307.375-307.375c-24.453125-27.394531-23.535156-69.585938 2.75-95.867188l43.257813-43.257812zm0 0"/><path d="m321.410156 138.578125c-1.027344 0-2.050781-.390625-2.828125-1.171875-1.5625-1.5625-1.5625-4.09375 0-5.65625l24-24c1.558594-1.5625 4.09375-1.5625 5.65625 0 1.558594 1.5625 1.558594 4.09375 0 5.65625l-24 24c-.78125.777344-1.808593 1.171875-2.828125 1.171875zm0 0"/></g></svg>