<svg height="504pt" viewBox="-56 0 504 504" width="504pt" xmlns="http://www.w3.org/2000/svg"><path d="m307.375 282.632812h-111.019531c-6.164063 0-11.160157-4.996093-11.160157-11.160156 0-6.164062 4.996094-11.164062 11.160157-11.164062h111.019531c32.628906 0 59.171875-26.542969 59.171875-59.175782 0-32.628906-26.542969-59.175781-59.171875-59.175781h-92.21875c-6.164062 0-11.164062-4.996093-11.164062-11.160156s5-11.164063 11.164062-11.164063h92.21875c44.9375 0 81.5 36.5625 81.5 81.5-.003906 44.941407-36.5625 81.5-81.5 81.5zm0 0" fill="#f4efed"/><path d="m307.375 286.632812h-111.019531c-8.359375 0-15.160157-6.800781-15.160157-15.160156s6.800782-15.164062 15.160157-15.164062h111.019531c30.421875 0 55.171875-24.75 55.171875-55.175782 0-30.421874-24.75-55.171874-55.171875-55.171874h-92.21875c-8.359375 0-15.164062-6.804688-15.164062-15.164063s6.804687-15.160156 15.164062-15.160156h92.21875c47.144531 0 85.5 38.351562 85.5 85.5 0 47.144531-38.355469 85.496093-85.5 85.496093zm-111.019531-22.324218c-3.953125 0-7.164063 3.214844-7.164063 7.164062 0 3.949219 3.210938 7.160156 7.164063 7.160156h111.015625c42.734375 0 77.5-34.765624 77.5-77.5 0-42.734374-34.765625-77.5-77.5-77.5h-92.214844c-3.949219 0-7.164062 3.214844-7.164062 7.164063s3.214843 7.160156 7.164062 7.160156h92.21875c34.832031 0 63.171875 28.339844 63.171875 63.175781 0 34.832032-28.339844 63.175782-63.171875 63.175782zm0 0" fill="#690589"/><path d="m220.359375 176.808594 27.90625-172.808594h-165.339844l27.90625 172.808594h-6.828125c-55.230468 0-100 44.769531-100 100v123.191406c0 55.226562 44.769532 100 100 100h123.191406c55.226563 0 100-44.773438 100-100v-123.191406c0-55.230469-44.773437-100-100-100zm0 0" fill="#f4efed"/><path d="m227.191406 176.808594h-6.828125l27.902344-172.808594h-20l-26.816406 166.066406c-.570313 3.535156 2.160156 6.742188 5.742187 6.742188 55.230469 0 100 44.773437 100 100v123.191406c0 55.226562-44.769531 100-100 100h20c55.230469 0 100-44.773438 100-100v-123.191406c0-55.230469-44.769531-100-100-100zm0 0" fill="#d6d1cf"/><path d="m104 176.808594h6.828125l-27.902344-172.808594h20l26.8125 166.066406c.570313 3.535156-2.160156 6.742188-5.742187 6.742188-55.226563 0-100 44.773437-100 100v123.191406c0 55.226562 44.773437 100 100 100h-20c-55.226563 0-100-44.773438-100-100v-123.191406c.003906-55.230469 44.773437-100 100.003906-100zm0 0" fill="#fff"/><path d="m165.597656 270.066406c-64.632812 36.042969-133.140625 4.050782-159.894531-11.574218-1.097656 5.941406-1.703125 12.054687-1.703125 18.316406v123.191406c0 55.226562 44.773438 100 100 100h123.191406c55.230469 0 100-44.773438 100-100v-123.191406c0-4.628906-.339844-9.175782-.949218-13.636719-40.609376-14.136719-105.828126-23.671875-160.644532 6.894531zm0 0" fill="#fcc24c"/><path d="m327.082031 272.488281c-.027343-.625-.058593-1.253906-.101562-1.875-.039063-.664062-.097657-1.324219-.152344-1.984375-.152344-1.832031-.339844-3.652344-.585937-5.457031-6.4375-2.242187-13.496094-4.363281-21.03125-6.234375 1.296874 6.421875 1.980468 13.066406 1.980468 19.871094v123.191406c0 55.226562-44.773437 100-100 100h20c55.226563 0 100-44.773438 100-100v-123.191406c0-1.449219-.050781-2.886719-.109375-4.320313zm0 0" fill="#dea42e"/><path d="m24 400v-123.191406c0-2.894532.148438-5.746094.390625-8.578125-7.445313-3.449219-13.777344-6.867188-18.6875-9.738281-.273437 1.476562-.515625 2.964843-.726563 4.460937-.007812.039063-.011718.082031-.015624.121094-.199219 1.4375-.371094 2.882812-.507813 4.332031-.039063.378906-.058594.761719-.085937 1.140625-.097657 1.148437-.1875 2.296875-.246094 3.453125-.074219 1.566406-.117188 3.136719-.121094 4.722656 0 .03125-.003906.058594-.003906.085938v123.191406c0 55.226562 44.773437 100 100 100h20c-55.226563 0-99.996094-44.773438-99.996094-100zm0 0" fill="#fce06a"/><g fill="#690589"><path d="m227.191406 504h-123.191406c-57.347656 0-104-46.652344-104-104v-123.191406c0-6.292969.597656-12.699219 1.769531-19.042969.238281-1.285156 1.085938-2.367187 2.269531-2.910156 1.179688-.546875 2.558594-.476563 3.683594.179687 25.933594 15.148438 93.050782 46.597656 155.925782 11.539063l1.949218 3.492187-1.949218-3.492187c65.820312-36.703125 142.097656-14.773438 163.910156-7.179688 1.417968.496094 2.445312 1.746094 2.648437 3.234375.652344 4.796875.984375 9.566406.984375 14.175782v123.195312c0 57.347656-46.65625 104-104 104zm-218.425781-239.179688c-.507813 4.015626-.765625 8.027344-.765625 11.988282v123.191406c0 52.933594 43.066406 96 96 96h123.191406c52.933594 0 96-43.066406 96-96v-123.191406c0-3.46875-.207031-7.042969-.609375-10.660156-23.695312-7.902344-94.285156-26.464844-155.039062 7.410156-62.667969 34.949218-128.695313 7.761718-158.777344-8.738282zm0 0"/><path d="m227.191406 504h-123.191406c-57.347656 0-104-46.652344-104-104v-123.191406c0-57.347656 46.652344-104 104-104h2.132812l-27.15625-168.171875c-.1875-1.15625.144532-2.335938.902344-3.230469.761719-.890625 1.875-1.40625 3.046875-1.40625h165.339844c1.171875 0 2.285156.515625 3.046875 1.40625.757812.894531 1.089844 2.074219.902344 3.230469l-27.15625 168.171875h2.132812c57.347656 0 104 46.652344 104 104v123.191406c0 57.347656-46.65625 104-104 104zm-123.191406-323.191406c-52.933594 0-96 43.066406-96 96v123.191406c0 52.933594 43.066406 96 96 96h123.191406c52.933594 0 96-43.066406 96-96v-123.191406c0-52.933594-43.066406-96-96-96h-6.828125c-1.171875 0-2.289062-.515625-3.046875-1.410156-.761718-.890626-1.089844-2.074219-.90625-3.226563l27.15625-168.171875h-155.945312l27.160156 168.171875c.183594 1.15625-.144531 2.335937-.90625 3.226563-.757812.894531-1.871094 1.410156-3.046875 1.410156zm0 0"/><path d="m109.394531 71.578125c-1.929687 0-3.625-1.394531-3.945312-3.363281l-3.875-24c-.351563-2.179688 1.128906-4.234375 3.3125-4.585938 2.171875-.347656 4.234375 1.132813 4.585937 3.3125l3.875 24c.351563 2.179688-1.128906 4.234375-3.3125 4.585938-.214844.035156-.429687.050781-.640625.050781zm0 0"/></g><path d="m227.804688 414.960938c25.558593-3.941407 46.890624-13.671876 57.390624-24.859376-13.382812-7.503906-36.652343-10.355468-62.210937-6.414062-2.757813.425781-5.453125.929688-8.101563 1.484375 6.195313-4.761719 12.375-10.152344 18.367188-16.140625 22.921875-22.921875 37.277344-48.5625 39.605469-67.65625-19.089844 2.332031-44.730469 16.6875-67.652344 39.605469-7.886719 7.886719-14.730469 16.09375-20.445313 24.242187 3.90625-15.839844 6.128907-33.996094 6.128907-53.308594 0-41.335937-10.175781-77.402343-25.289063-96.71875-15.117187 19.316407-25.292968 55.382813-25.292968 96.71875 0 19.3125 2.222656 37.46875 6.132812 53.308594-5.71875-8.152344-12.5625-16.355468-20.449219-24.242187-22.921875-22.921875-48.558593-37.273438-67.652343-39.605469 2.328124 19.09375 16.6875 44.734375 39.605468 67.65625 5.992188 5.992188 12.171875 11.378906 18.367188 16.140625-2.648438-.554687-5.34375-1.0625-8.101563-1.484375-25.558593-3.941406-48.828125-1.089844-62.210937 6.414062 10.503906 11.1875 31.832031 20.917969 57.390625 24.859376 11.679687 1.800781 22.871093 2.167968 32.867187 1.335937-2.515625 1.5-5.035156 3.171875-7.53125 5-13.226562 9.691406-22.378906 21.402344-25.015625 30.765625 9.722657.308594 23.648438-4.890625 36.871094-14.585938 12.207031-8.941406 20.929687-19.601562 24.277344-28.550781.195312-.105469.410156-.203125.601562-.3125.046875.007813.09375.015625.140625.023438.042969-.007813.089844-.015625.136719-.023438.191406.109375.40625.207031.601563.3125 3.347656 8.949219 12.070312 19.609375 24.277343 28.550781 13.226563 9.695313 27.148438 14.894532 36.871094 14.585938-2.632813-9.363281-11.789063-21.074219-25.015625-30.765625-2.496094-1.832031-5.015625-3.5-7.53125-5 10 .832031 21.1875.464844 32.867188-1.335937zm0 0" fill="#7bac51"/><path d="m165.597656 455.832031c-2.210937 0-4-1.792969-4-4v-43.289062c0-2.207031 1.789063-4 4-4 2.207032 0 4 1.792969 4 4v43.289062c0 2.207031-1.792968 4-4 4zm0 0" fill="#690589"/><path d="m226.648438 456.078125c-10.933594 0-25.195313-5.695313-38.402344-15.371094-9.804688-7.183593-17.875-15.835937-22.652344-24.101562-4.773438 8.265625-12.847656 16.917969-22.652344 24.101562-13.597656 9.964844-28.351562 15.695313-39.363281 15.355469-1.230469-.039062-2.375-.640625-3.101563-1.632812-.722656-.992188-.957031-2.265626-.621093-3.449219 2.738281-9.722657 11.246093-20.835938 23.070312-30.28125-6.566406-.132813-13.304687-.730469-20.152343-1.785157-25.789063-3.976562-48.101563-13.722656-59.695313-26.074218-.84375-.894532-1.222656-2.128906-1.039063-3.347656.1875-1.214844.925782-2.277344 2-2.878907 13.566407-7.605469 35.085938-10.398437 58.480469-7.726562-2.523437-2.269531-4.996093-4.617188-7.40625-7.027344-22.972656-22.972656-38.207031-49.140625-40.75-70-.148437-1.21875.269531-2.445313 1.140625-3.3125.867188-.871094 2.089844-1.289063 3.3125-1.140625 20.859375 2.546875 47.027344 17.78125 69.996094 40.75 3.628906 3.628906 7.089844 7.371094 10.363281 11.203125-1.894531-11.988281-2.875-24.675781-2.875-37.441406 0-41.1875 9.769531-78.265625 26.140625-99.183594 1.515625-1.9375 4.78125-1.9375 6.296875 0 16.371094 20.917969 26.140625 57.996094 26.140625 99.183594 0 12.765625-.980468 25.453125-2.871094 37.441406 3.269532-3.832031 6.730469-7.574219 10.359376-11.203125 22.96875-22.96875 49.136718-38.203125 69.996093-40.75 1.210938-.144531 2.445313.273438 3.3125 1.140625.871094.871094 1.292969 2.09375 1.140625 3.3125-2.542968 20.859375-17.777344 47.027344-40.75 70-2.410156 2.410156-4.882812 4.757813-7.40625 7.027344 23.394532-2.671875 44.914063.121093 58.480469 7.726562 1.074219.601563 1.8125 1.664063 2 2.878907.1875 1.21875-.195313 2.453124-1.039063 3.347656-11.59375 12.351562-33.910156 22.097656-59.695312 26.074218-6.847656 1.054688-13.585938 1.652344-20.148438 1.785157 11.824219 9.445312 20.332032 20.558593 23.066407 30.28125.335937 1.183593.105469 2.457031-.621094 3.449219-.730469.992187-1.875 1.59375-3.101563 1.632812-.308593.007812-.628906.015625-.953124.015625zm-90.394532-43.785156c1.722656 0 3.273438 1.113281 3.804688 2.777343.570312 1.773438-.15625 3.703126-1.753906 4.65625-2.449219 1.464844-4.875 3.078126-7.21875 4.792969-9.601563 7.039063-17.285157 15.449219-21.261719 23.058594 8.453125-1.5 18.789062-6.292969 28.390625-13.328125 11.125-8.152344 19.679687-18.144531 22.894531-26.730469.339844-.914062 1.003906-1.667969 1.863281-2.128906l.355469-.179687c.617187-.347657 1.445313-.585938 2.1875-.59375.753906-.039063 1.5.128906 2.160156.5l.539063.273437c.859375.460937 1.523437 1.21875 1.863281 2.132813 3.214844 8.585937 11.773437 18.578124 22.894531 26.730468 9.601563 7.035156 19.9375 11.828125 28.390625 13.324219-3.976562-7.605469-11.660156-16.019531-21.257812-23.054687-2.347657-1.71875-4.777344-3.332032-7.222657-4.792969-1.597656-.957031-2.324218-2.886719-1.753906-4.660157.570313-1.769531 2.277344-2.90625 4.140625-2.761718 9.964844.832031 21.007813.382812 31.925781-1.300782 20.890626-3.222656 39.753907-10.632812 50.960938-19.820312-13.453125-5.382812-33.675781-6.773438-54.566406-3.546875-2.507813.386719-5.089844.859375-7.890625 1.445313-1.828125.382812-3.675781-.546876-4.457031-2.246094-.777344-1.699219-.28125-3.707032 1.199218-4.84375 6.230469-4.78125 12.277344-10.097656 17.976563-15.792969 19.433593-19.433594 33.363281-41.828125 37.503906-59.894531-18.070313 4.140625-40.460937 18.070312-59.894531 37.503906-7.484375 7.484375-14.210938 15.460938-20 23.710938-1.101563 1.578124-3.179688 2.136718-4.929688 1.34375-1.75-.800782-2.691406-2.730469-2.226562-4.601563 3.933594-15.949219 6.011718-34.050781 6.011718-52.351563 0-36.085937-8.070312-69.796874-21.289062-89.859374-13.222656 20.0625-21.292969 53.769531-21.292969 89.859374 0 18.300782 2.078125 36.40625 6.011719 52.351563.460938 1.871094-.472656 3.800781-2.226562 4.601563-1.75.792968-3.824219.230468-4.929688-1.34375-5.785156-8.246094-12.511719-16.226563-20-23.710938-19.433594-19.433594-41.828125-33.363281-59.894531-37.503906 4.140625 18.070312 18.074219 40.460937 37.503906 59.894531 5.699219 5.695313 11.75 11.011719 17.976563 15.792969 1.480468 1.136718 1.976562 3.148437 1.199218 4.84375-.78125 1.695312-2.625 2.628906-4.457031 2.246094-2.800781-.585938-5.382813-1.058594-7.890625-1.445313-20.890625-3.21875-41.113281-1.835937-54.566406 3.546875 11.207031 9.1875 30.070312 16.597656 50.960937 19.820312 10.917969 1.683594 21.960938 2.132813 31.925781 1.300782.117188-.007813.230469-.015625.339844-.015625zm91.550782 2.664062h.019531zm0 0" fill="#690589"/></svg>