<svg height="504pt" viewBox="-34 0 504 504" width="504pt" xmlns="http://www.w3.org/2000/svg"><path d="m47.65625 153.554688v196.890624l170.511719 98.441407 170.507812-98.441407v-196.890624l-170.507812-98.441407zm0 0" fill="#fcc24c"/><path d="m88.4375 177.101562v149.796876l129.730469 74.902343 129.730469-74.902343v-149.796876l-129.730469-74.902343zm0 0" fill="#f4efed"/><path d="m224.980469 190.730469c-4.007813 2.179687-8.765625 2.179687-12.773438 0-32.027343-17.421875-64.566406 9.648437-64.566406 46.234375 0 73.988281 70.953125 109.761718 70.953125 109.761718s70.953125-35.773437 70.953125-109.761718c0-36.585938-32.539063-63.65625-64.566406-46.234375zm0 0" fill="#fcc24c"/><path d="m225.171875 190.652344c.730469-.390625 1.464844-.761719 2.199219-1.109375v-23c0-4.75-3.558594-9.011719-8.304688-9.257813-5.0625-.265625-9.25 3.757813-9.25 8.761719v23.496094c.734375.347656 1.46875.71875 2.203125 1.109375 4.132813 2.210937 9.015625 2.210937 13.152344 0zm0 0" fill="#7bac51"/><path d="m236.25 186.394531c19.96875 4.835938 35.296875 25.460938 35.296875 50.570313 0 73.988281-52.953125 109.761718-52.953125 109.761718s70.953125-35.773437 70.953125-109.761718c0-32.28125-25.335937-57.132813-53.296875-50.570313zm0 0" fill="#dea42e"/><path d="m200.9375 186.394531c-19.96875 4.835938-35.296875 25.460938-35.296875 50.570313 0 73.988281 52.953125 109.761718 52.953125 109.761718s-70.953125-35.773437-70.953125-109.761718c0-32.28125 25.335937-57.132813 53.296875-50.570313zm0 0" fill="#fce06a"/><path d="m368.496094 141.90625v220.1875l20.179687-11.648438v-196.890624zm0 0" fill="#dea42e"/><path d="m67.839844 141.90625v220.1875l-20.183594-11.648438v-196.890624zm0 0" fill="#fce06a"/><path d="m218.167969 452.886719c-.691407 0-1.378907-.179688-2-.535157l-170.507813-98.445312c-1.238281-.714844-2-2.035156-2-3.464844v-196.886718c0-1.429688.761719-2.75 2-3.460938l170.507813-98.445312c1.238281-.714844 2.761719-.714844 4 0l170.507812 98.445312c1.238281.710938 2 2.035156 2 3.460938v196.886718c0 1.429688-.761719 2.75-2 3.464844l-170.507812 98.445312c-.621094.355469-1.308594.535157-2 .535157zm-166.511719-104.753907 166.507812 96.132813 166.511719-96.132813v-192.265624l-166.511719-96.132813-166.507812 96.132813zm0 0" fill="#690589"/><path d="m63.800781 229.171875c-2.207031 0-4-1.792969-4-4v-24c0-2.210937 1.792969-4 4-4 2.210938 0 4 1.789063 4 4v24c0 2.207031-1.789062 4-4 4zm0 0" fill="#690589"/><path d="m218.167969 405.800781c-.691407 0-1.378907-.179687-2-.535156l-129.730469-74.902344c-1.238281-.714843-2-2.035156-2-3.464843v-149.796876c0-1.429687.761719-2.75 2-3.464843l129.730469-74.902344c1.238281-.710937 2.761719-.710937 4 0l129.730469 74.902344c1.238281.714843 2 2.035156 2 3.464843v149.796876c0 1.429687-.761719 2.75-2 3.464843l-129.730469 74.902344c-.621094.359375-1.308594.535156-2 .535156zm-125.730469-81.207031 125.730469 72.589844 125.730469-72.589844v-145.1875l-125.730469-72.589844-125.730469 72.589844zm0 0" fill="#690589"/><path d="m218.59375 59.113281c-2.207031 0-4-1.792969-4-4v-51.113281c0-2.207031 1.792969-4 4-4s4 1.792969 4 4v51.113281c0 2.207031-1.792969 4-4 4zm0 0" fill="#690589"/><path d="m218.59375 504c-2.207031 0-4-1.792969-4-4v-51.113281c0-2.207031 1.792969-4 4-4s4 1.792969 4 4v51.113281c0 2.207031-1.792969 4-4 4zm0 0" fill="#690589"/><path d="m388.964844 157.308594c-1.382813 0-2.726563-.714844-3.464844-1.996094-1.109375-1.910156-.457031-4.359375 1.457031-5.464844l44.226563-25.621094c1.910156-1.109374 4.359375-.457031 5.464844 1.457032 1.109374 1.910156.457031 4.359375-1.453126 5.464844l-44.230468 25.621093c-.632813.363281-1.320313.539063-2 .539063zm0 0" fill="#690589"/><path d="m4.003906 380.3125c-1.378906 0-2.722656-.714844-3.464844-1.996094-1.105468-1.910156-.4570308-4.359375 1.457032-5.464844l44.226562-25.621093c1.914063-1.105469 4.359375-.453125 5.46875 1.457031 1.105469 1.910156.453125 4.359375-1.457031 5.464844l-44.226563 25.621094c-.632812.363281-1.324218.539062-2.003906.539062zm0 0" fill="#690589"/><path d="m48.222656 157.308594c-.679687 0-1.367187-.175782-2-.539063l-44.226562-25.621093c-1.9140628-1.109376-2.5625-3.554688-1.457032-5.464844 1.105469-1.910156 3.558594-2.5625 5.46875-1.457032l44.226563 25.621094c1.910156 1.109375 2.5625 3.554688 1.457031 5.464844-.742187 1.28125-2.085937 1.996094-3.46875 1.996094zm0 0" fill="#690589"/><path d="m433.183594 380.3125c-.679688 0-1.371094-.175781-2-.539062l-44.226563-25.625c-1.914062-1.105469-2.566406-3.550782-1.457031-5.464844 1.109375-1.90625 3.554688-2.558594 5.464844-1.457032l44.230468 25.625c1.910157 1.105469 2.5625 3.550782 1.453126 5.464844-.742188 1.28125-2.085938 1.996094-3.464844 1.996094zm0 0" fill="#690589"/><path d="m232.472656 32.632812c-12.40625-7.667968-28.679687-3.824218-36.347656 8.582032-7.667969 12.410156-3.824219 28.683594 8.582031 36.351562 12.40625 7.664063 28.679688 3.824219 36.347657-8.585937 7.667968-12.40625 3.824218-28.679688-8.582032-36.347657zm0 0" fill="#7bac51"/><path d="m226.253906 423.617188c-13.960937-4.226563-28.703125 3.664062-32.929687 17.621093-4.226563 13.960938 3.664062 28.703125 17.625 32.929688 13.957031 4.226562 28.699219-3.664063 32.925781-17.625 4.226562-13.957031-3.664062-28.699219-17.621094-32.925781zm0 0" fill="#7bac51"/><path d="m53.714844 325.792969c-14.195313-3.351563-28.417969 5.4375-31.769532 19.628906-3.351562 14.195313 5.4375 28.417969 19.632813 31.769531 14.191406 3.351563 28.414063-5.4375 31.765625-19.628906 3.351562-14.195312-5.4375-28.417969-19.628906-31.769531zm0 0" fill="#99ca6f"/><path d="m53.722656 128.460938c-14.195312-3.351563-28.417968 5.4375-31.769531 19.632812-3.351563 14.191406 5.4375 28.417969 19.632813 31.769531 14.195312 3.351563 28.417968-5.4375 31.769531-19.632812 3.351562-14.195313-5.4375-28.417969-19.632813-31.769531zm0 0" fill="#99ca6f"/><path d="m407.601562 333.019531c-10.175781-10.449219-26.894531-10.671875-37.34375-.496093-10.449218 10.171874-10.675781 26.890624-.5 37.339843 10.175782 10.453125 26.894532 10.675781 37.34375.5 10.449219-10.171875 10.671876-26.894531.5-37.34375zm0 0" fill="#5d8e33"/><path d="m407.589844 135.703125c-10.171875-10.449219-26.890625-10.671875-37.34375-.496094-10.449219 10.171875-10.671875 26.890625-.496094 37.34375 10.171875 10.449219 26.890625 10.671875 37.34375.496094 10.449219-10.171875 10.671875-26.890625.496094-37.34375zm0 0" fill="#5d8e33"/><g fill="#690589"><path d="m218.59375 85.523438c-16.769531 0-30.410156-13.640626-30.410156-30.410157 0-16.765625 13.640625-30.40625 30.410156-30.40625s30.410156 13.640625 30.410156 30.40625c0 16.769531-13.640625 30.410157-30.410156 30.410157zm0-52.816407c-12.355469 0-22.410156 10.050781-22.410156 22.40625s10.054687 22.410157 22.410156 22.410157 22.410156-10.054688 22.410156-22.410157-10.054687-22.40625-22.410156-22.40625zm0 0"/><path d="m218.59375 479.292969c-16.769531 0-30.410156-13.640625-30.410156-30.40625 0-16.769531 13.640625-30.410157 30.410156-30.410157s30.410156 13.640626 30.410156 30.410157c0 16.765625-13.640625 30.40625-30.410156 30.40625zm0-52.816407c-12.355469 0-22.410156 10.054688-22.410156 22.410157s10.050781 22.40625 22.410156 22.40625 22.410156-10.050781 22.410156-22.40625-10.054687-22.410157-22.410156-22.410157zm0 0"/><path d="m47.65625 381.878906c-16.765625 0-30.410156-13.640625-30.410156-30.410156 0-16.765625 13.644531-30.40625 30.410156-30.40625 16.769531 0 30.410156 13.640625 30.410156 30.40625 0 16.769531-13.640625 30.410156-30.410156 30.410156zm0-52.816406c-12.355469 0-22.410156 10.050781-22.410156 22.40625 0 12.359375 10.054687 22.410156 22.410156 22.410156 12.359375 0 22.410156-10.050781 22.410156-22.410156 0-12.351562-10.050781-22.40625-22.410156-22.40625zm0 0"/><path d="m47.65625 184.558594c-16.765625 0-30.410156-13.640625-30.410156-30.410156 0-16.765626 13.644531-30.410157 30.410156-30.410157 16.769531 0 30.410156 13.644531 30.410156 30.410157 0 16.769531-13.640625 30.410156-30.410156 30.410156zm0-52.820313c-12.355469 0-22.410156 10.054688-22.410156 22.410157 0 12.359374 10.054687 22.410156 22.410156 22.410156 12.359375 0 22.410156-10.050782 22.410156-22.410156 0-12.355469-10.050781-22.410157-22.410156-22.410157zm0 0"/><path d="m388.675781 381.878906c-16.769531 0-30.40625-13.640625-30.40625-30.410156 0-16.765625 13.636719-30.40625 30.40625-30.40625s30.410157 13.640625 30.410157 30.40625c0 16.769531-13.640626 30.410156-30.410157 30.410156zm0-52.816406c-12.355469 0-22.40625 10.050781-22.40625 22.40625 0 12.359375 10.050781 22.410156 22.40625 22.410156s22.410157-10.050781 22.410157-22.410156c0-12.351562-10.054688-22.40625-22.410157-22.40625zm0 0"/><path d="m388.675781 184.558594c-16.769531 0-30.40625-13.640625-30.40625-30.410156 0-16.765626 13.636719-30.410157 30.40625-30.410157s30.410157 13.644531 30.410157 30.410157c0 16.769531-13.640626 30.410156-30.410157 30.410156zm0-52.820313c-12.355469 0-22.40625 10.054688-22.40625 22.410157 0 12.359374 10.050781 22.410156 22.40625 22.410156s22.410157-10.050782 22.410157-22.410156c0-12.355469-10.054688-22.410157-22.410157-22.410157zm0 0"/><path d="m218.59375 196.304688c-2.90625 0-5.8125-.707032-8.460938-2.125-.679687-.367188-1.359374-.707032-2.035156-1.027344-1.394531-.664063-2.28125-2.066406-2.28125-3.613282v-23.492187c0-3.488281 1.453125-6.867187 3.984375-9.269531 2.570313-2.433594 5.949219-3.660156 9.476563-3.488282 6.78125.355469 12.09375 6.175782 12.09375 13.253907v22.996093c0 1.542969-.886719 2.949219-2.277344 3.613282-.679688.320312-1.359375.664062-2.035156 1.027344 0 0 0 0-.003906 0-2.648438 1.417968-5.554688 2.125-8.460938 2.125zm6.578125-5.652344h.019531zm-11.355469-3.574219c.03125.019531.0625.035156.089844.046875 2.933594 1.566406 6.441406 1.570312 9.375 0 .03125-.015625.058594-.03125.085938-.046875v-20.535156c0-2.773438-2.023438-5.132813-4.511719-5.265625-1.34375-.066406-2.589844.394531-3.550781 1.304687-.957032.910157-1.488282 2.140625-1.488282 3.460938zm0 0"/><path d="m218.59375 350.726562c-.617188 0-1.234375-.140624-1.800781-.425781-.730469-.371093-73.152344-37.761719-73.152344-113.335937 0-20.914063 10.042969-39.871094 26.203125-49.476563 13.59375-8.082031 29.730469-8.183593 44.273438-.273437 2.804687 1.527344 6.152343 1.527344 8.953124 0 14.542969-7.90625 30.675782-7.808594 44.273438.273437 16.164062 9.605469 26.199219 28.5625 26.199219 49.476563 0 75.574218-72.417969 112.964844-73.152344 113.335937-.5625.285157-1.179687.425781-1.796875.425781zm-26.707031-161.421874c-6.199219 0-12.285157 1.6875-17.957031 5.058593-13.746094 8.171875-22.289063 24.496094-22.289063 42.601563 0 64.074218 56.09375 99.042968 66.953125 105.207031 10.859375-6.164063 66.953125-41.132813 66.953125-105.207031 0-18.105469-8.539063-34.429688-22.289063-42.601563-11.273437-6.703125-24.1875-6.742187-36.363281-.121093-5.199219 2.828124-11.40625 2.828124-16.601562 0-6.050781-3.289063-12.28125-4.9375-18.40625-4.9375zm0 0"/><path d="m192.617188 330.660156c-.839844 0-1.6875-.265625-2.410157-.808594-1.761719-1.335937-2.109375-3.84375-.777343-5.605468l25.972656-34.308594c1.511718-2 4.867187-2 6.378906 0l25.976562 34.308594c1.332032 1.761718.984376 4.269531-.777343 5.605468-1.761719 1.335938-4.269531.984376-5.605469-.777343l-22.78125-30.097657-22.785156 30.097657c-.785156 1.039062-1.980469 1.585937-3.191406 1.585937zm0 0"/><path d="m166.644531 296.351562c-.839843 0-1.691406-.265624-2.414062-.8125-1.761719-1.332031-2.105469-3.839843-.773438-5.601562l25.972657-34.3125c.757812-1 1.9375-1.585938 3.191406-1.585938 1.25 0 2.433594.585938 3.1875 1.585938l25.976562 34.3125c1.332032 1.761719.984375 4.269531-.777344 5.601562-1.761718 1.335938-4.269531.988282-5.605468-.773437l-22.78125-30.101563-22.789063 30.101563c-.78125 1.035156-1.976562 1.585937-3.1875 1.585937zm0 0"/><path d="m218.59375 296.351562c-.84375 0-1.691406-.265624-2.414062-.8125-1.761719-1.332031-2.109376-3.839843-.777344-5.601562l25.976562-34.3125c.753906-1 1.933594-1.585938 3.1875-1.585938s2.433594.585938 3.191406 1.585938l25.972657 34.3125c1.335937 1.761719.988281 4.269531-.773438 5.601562-1.761719 1.335938-4.269531.988282-5.605469-.773437l-22.785156-30.101563-22.785156 30.101563c-.785156 1.035156-1.980469 1.585937-3.1875 1.585937zm0 0"/><path d="m218.597656 227.730469c-1.210937 0-2.40625-.546875-3.191406-1.585938l-22.785156-30.097656-22.785156 30.097656c-1.335938 1.757813-3.847657 2.109375-5.605469.777344-1.761719-1.335937-2.105469-3.84375-.773438-5.605469l25.972657-34.308594c1.515624-2 4.867187-2 6.378906 0l25.972656 34.308594c1.335938 1.761719.988281 4.269532-.773438 5.605469-.71875.542969-1.570312.808594-2.410156.808594zm0 0"/><path d="m270.546875 227.730469c-1.210937 0-2.40625-.546875-3.191406-1.585938l-22.785157-30.097656-22.785156 30.097656c-1.335937 1.757813-3.84375 2.109375-5.605468.777344-1.761719-1.335937-2.109376-3.84375-.777344-5.605469l25.976562-34.308594c1.511719-2 4.867188-2 6.378906 0l25.972657 34.308594c1.332031 1.761719.984375 4.269532-.777344 5.605469-.71875.542969-1.566406.808594-2.40625.808594zm0 0"/><path d="m192.625 262.039062c-1.210938 0-2.40625-.546874-3.191406-1.585937l-22.789063-30.09375-15.265625 20.167969c-1.335937 1.757812-3.847656 2.105468-5.605468.773437-1.761719-1.332031-2.109376-3.839843-.777344-5.601562l18.460937-24.382813c1.511719-2 4.863281-2 6.375 0l25.976563 34.308594c1.332031 1.761719.984375 4.269531-.777344 5.605469-.71875.546875-1.566406.808593-2.40625.808593zm0 0"/><path d="m244.570312 262.039062c-1.207031 0-2.40625-.546874-3.191406-1.585937l-22.785156-30.09375-22.785156 30.09375c-1.332032 1.761719-3.84375 2.109375-5.601563.777344-1.761719-1.335938-2.109375-3.84375-.777343-5.605469l25.972656-34.308594c1.515625-2 4.867187-2 6.378906 0l25.976562 34.308594c1.332032 1.761719.984376 4.269531-.777343 5.605469-.71875.546875-1.566407.808593-2.410157.808593zm0 0"/><path d="m244.566406 262.039062c-.839844 0-1.691406-.261718-2.414062-.808593-1.761719-1.335938-2.105469-3.84375-.773438-5.605469l25.972656-34.308594c1.515626-2 4.867188-2 6.378907 0l18.457031 24.378906c1.332031 1.761719.984375 4.269532-.777344 5.601563-1.761718 1.335937-4.269531.988281-5.605468-.773437l-15.265626-20.164063-22.78125 30.09375c-.785156 1.039063-1.980468 1.585937-3.191406 1.585937zm0 0"/><path d="m166.648438 227.730469c-1.265626 0-2.511719-.601563-3.289063-1.714844l-11.160156-16.0625c-1.257813-1.8125-.8125-4.304687 1.003906-5.566406 1.8125-1.261719 4.304687-.8125 5.566406 1l11.160157 16.0625c1.261718 1.8125.8125 4.304687-1 5.566406-.695313.480469-1.492188.714844-2.28125.714844zm0 0"/><path d="m270.542969 227.730469c-.914063 0-1.828125-.308594-2.582031-.945313-1.6875-1.425781-1.898438-3.949218-.476563-5.636718l12.136719-14.371094c1.425781-1.6875 3.949218-1.898438 5.636718-.476563 1.6875 1.425781 1.898438 3.953125.476563 5.636719l-12.132813 14.371094c-.792968.9375-1.921874 1.421875-3.058593 1.421875zm0 0"/></g></svg>