<svg height="504pt" viewBox="-95 0 504 504" width="504pt" xmlns="http://www.w3.org/2000/svg"><path d="m61.859375 442.988281c-8.296875 0-15.019531-6.726562-15.019531-15.023437v-266.832032h30.042968v266.832032c0 8.300781-6.726562 15.023437-15.023437 15.023437zm0 0" fill="#f4efed"/><path d="m262.496094 214.390625h-3.953125v-53.257813h-86.066407v53.257813h-3.949218c-26.785156 0-48.492188 21.710937-48.492188 48.492187v217.722657c0 10.710937 8.683594 19.398437 19.398438 19.398437h152.160156c10.710938 0 19.398438-8.6875 19.398438-19.398437v-217.722657c-.003907-26.78125-21.714844-48.492187-48.496094-48.492187zm0 0" fill="#f4efed"/><path d="m262.496094 214.390625h-3.953125v-53.257813h-20v49.304688c0 2.183594 1.769531 3.953125 3.953125 3.953125 26.78125 0 48.492187 21.710937 48.492187 48.492187v217.71875c0 10.710938-8.683593 19.398438-19.394531 19.398438h20c10.710938 0 19.394531-8.683594 19.394531-19.398438v-217.71875c0-26.78125-21.710937-48.492187-48.492187-48.492187zm0 0" fill="#d6d1cf"/><path d="m140.03125 480.601562v-217.71875c0-26.78125 21.710938-48.492187 48.496094-48.492187 2.179687 0 3.949218-1.769531 3.949218-3.953125v-49.304688h-20v53.257813h-3.949218c-26.785156 0-48.496094 21.710937-48.496094 48.492187v217.71875c0 10.710938 8.683594 19.398438 19.398438 19.398438h20c-10.714844 0-19.398438-8.683594-19.398438-19.398438zm0 0" fill="#fff"/><path d="m120.03125 273.316406h190.957031v169.671875h-190.957031zm0 0" fill="#fcc24c"/><path d="m120.03125 273.316406h20v169.671875h-20zm0 0" fill="#fce06a"/><path d="m290.988281 273.316406h20v169.671875h-20zm0 0" fill="#dea42e"/><g fill="#690589"><path d="m291.59375 504h-152.164062c-12.902344 0-23.398438-10.496094-23.398438-23.398438v-217.71875c0-28.925781 23.523438-52.464843 52.445312-52.492187v-49.257813c0-2.207031 1.792969-4 4-4h86.066407c2.207031 0 4 1.792969 4 4v49.257813c28.921875.023437 52.445312 23.5625 52.445312 52.492187v217.71875c0 12.902344-10.496093 23.398438-23.394531 23.398438zm-123.066406-285.609375c-24.535156 0-44.496094 19.960937-44.496094 44.492187v217.71875c0 8.492188 6.910156 15.398438 15.398438 15.398438h152.164062c8.488281 0 15.394531-6.90625 15.394531-15.398438v-217.71875c0-24.53125-19.957031-44.492187-44.492187-44.492187h-3.953125c-2.207031 0-4-1.792969-4-4v-49.257813h-78.066407v49.257813c0 2.207031-1.792968 4-4 4zm0 0"/><path d="m310.988281 446.988281h-190.957031c-2.210938 0-4-1.789062-4-4v-169.671875c0-2.207031 1.789062-4 4-4h190.957031c2.207031 0 4 1.792969 4 4v169.671875c0 2.210938-1.789062 4-4 4zm-186.957031-8h182.957031v-161.671875h-182.957031zm0 0"/><path d="m136.03125 330.503906c-2.207031 0-4-1.792968-4-4v-24c0-2.210937 1.792969-4 4-4s4 1.789063 4 4v24c0 2.207032-1.792969 4-4 4zm0 0"/></g><path d="m61.859375 4c-14.355469 0-25.996094 11.640625-25.996094 25.996094l5.820313 73.890625h40.355468l5.820313-73.890625c0-14.355469-11.640625-25.996094-26-25.996094zm0 0" fill="#7bac51"/><path d="m110.023438 161.132812h-96.324219c-5.355469 0-9.699219-4.339843-9.699219-9.695312v-37.851562c0-5.355469 4.34375-9.699219 9.699219-9.699219h96.324219c5.355468 0 9.699218 4.34375 9.699218 9.699219v37.851562c0 5.355469-4.34375 9.695312-9.699218 9.695312zm0 0" fill="#7bac51"/><path d="m110.023438 103.886719h-20c5.355468 0 9.699218 4.34375 9.699218 9.699219v37.851562c0 5.355469-4.34375 9.695312-9.699218 9.695312h20c5.355468 0 9.699218-4.339843 9.699218-9.695312v-37.851562c0-5.355469-4.34375-9.699219-9.699218-9.699219zm0 0" fill="#5d8e33"/><path d="m13.699219 161.132812h20c-5.355469 0-9.699219-4.339843-9.699219-9.695312v-37.851562c0-5.355469 4.34375-9.699219 9.699219-9.699219h-20c-5.355469 0-9.699219 4.34375-9.699219 9.699219v37.851562c-.003906 5.355469 4.339844 9.695312 9.699219 9.695312zm0 0" fill="#99ca6f"/><path d="m61.859375 4c-2.066406 0-4.070313.269531-6 .722656 11.460937 2.714844 20 12.984375 20 25.273438l-5.820313 73.890625h12l5.820313-73.890625c0-14.355469-11.640625-25.996094-26-25.996094zm0 0" fill="#5d8e33"/><path d="m61.859375 4c2.070313 0 4.070313.269531 6 .722656-11.460937 2.714844-19.996094 12.984375-19.996094 25.273438l5.820313 73.890625h-12l-5.820313-73.890625c0-14.355469 11.640625-25.996094 25.996094-25.996094zm0 0" fill="#99ca6f"/><path d="m110.023438 165.132812h-96.324219c-7.554688 0-13.699219-6.144531-13.699219-13.699218v-37.847656c0-7.554688 6.144531-13.699219 13.699219-13.699219h96.328125c7.550781 0 13.695312 6.144531 13.695312 13.699219v37.851562c0 7.550781-6.144531 13.695312-13.699218 13.695312zm-96.324219-57.246093c-3.144531 0-5.699219 2.554687-5.699219 5.699219v37.851562c0 3.140625 2.554688 5.699219 5.699219 5.699219h96.328125c3.140625 0 5.695312-2.558594 5.695312-5.699219v-37.851562c0-3.140626-2.554687-5.699219-5.695312-5.699219zm0 0" fill="#690589"/><path d="m82.039062 107.886719h-40.355468c-2.085938 0-3.824219-1.605469-3.988282-3.6875l-5.820312-73.886719c-.007812-.105469-.011719-.210938-.011719-.316406 0-16.539063 13.457031-29.996094 30-29.996094 16.539063 0 29.996094 13.457031 29.996094 29.996094 0 .105468-.003906.210937-.011719.316406l-5.820312 73.886719c-.164063 2.082031-1.902344 3.6875-3.988282 3.6875zm-36.660156-8h32.964844l5.515625-70.039063c-.082031-12.058594-9.917969-21.847656-21.996094-21.847656s-21.917969 9.789062-22 21.847656zm42.480469-69.890625h.019531zm0 0" fill="#690589"/><path d="m117.785156 145.714844h-112.019531c-2.210937 0-4-1.789063-4-4 0-2.207032 1.789063-4 4-4h112.019531c2.207032 0 4 1.792968 4 4 0 2.210937-1.792968 4-4 4zm0 0" fill="#690589"/><path d="m253.640625 407.753906c15.664063-2.414062 28.738281-8.378906 35.171875-15.234375-8.203125-4.597656-22.460938-6.347656-38.128906-3.933593-1.691406.261718-3.339844.570312-4.964844.910156 3.796875-2.917969 7.585938-6.21875 11.257812-9.890625 14.046876-14.050781 22.847657-29.765625 24.277344-41.46875-11.703125 1.429687-27.417968 10.226562-41.46875 24.277343-4.832031 4.832032-9.027344 9.863282-12.53125 14.859376 2.394532-9.710938 3.757813-20.839844 3.757813-32.675782 0-25.335937-6.238281-47.441406-15.5-59.28125-9.265625 11.839844-15.5 33.945313-15.5 59.28125 0 11.835938 1.359375 22.964844 3.753906 32.675782-3.503906-4.996094-7.699219-10.027344-12.53125-14.859376-14.046875-14.046874-29.765625-22.847656-41.464844-24.277343 1.425781 11.703125 10.222657 27.417969 24.273438 41.46875 3.671875 3.671875 7.460937 6.972656 11.257812 9.890625-1.621093-.339844-3.273437-.648438-4.964843-.910156-15.664063-2.414063-29.925782-.664063-38.128907 3.933593 6.433594 6.855469 19.507813 12.820313 35.171875 15.234375 7.160156 1.105469 14.015625 1.332032 20.148438.816406-1.542969.921876-3.085938 1.945313-4.617188 3.066407-8.105468 5.941406-13.714844 13.121093-15.332031 18.859375 5.960937.1875 14.492187-3 22.601563-8.941406 7.476562-5.480469 12.824218-12.011719 14.875-17.5.121093-.066407.25-.125.371093-.191407.027344.003907.054688.011719.082031.015625.027344-.003906.054688-.011718.085938-.015625.117188.066407.246094.125.367188.191407 2.050781 5.484374 7.398437 12.019531 14.878906 17.5 8.105468 5.941406 16.636718 9.128906 22.597656 8.941406-1.617188-5.738282-7.226562-12.917969-15.332031-18.859375-1.53125-1.121094-3.074219-2.144531-4.617188-3.066407 6.136719.511719 12.992188.289063 20.152344-.816406zm0 0" fill="#7bac51"/><path d="m178.078125 434.503906c-.207031 0-.417969 0-.625-.011718-1.230469-.039063-2.375-.636719-3.101563-1.632813-.726562-.992187-.957031-2.261719-.625-3.449219 1.515626-5.378906 5.71875-11.378906 11.628907-16.761718-2.824219-.183594-5.691407-.496094-8.585938-.941407-16.132812-2.488281-30.144531-8.640625-37.480469-16.449219-.84375-.898437-1.226562-2.132812-1.039062-3.351562.1875-1.214844.925781-2.277344 1.996094-2.878906 7.699218-4.3125 19.367187-6.191406 32.253906-5.332032-.433594-.417968-.863281-.839843-1.285156-1.265624-14.316406-14.3125-23.820313-30.691407-25.417969-43.808594-.148437-1.21875.269531-2.441406 1.140625-3.3125.867188-.867188 2.085938-1.289063 3.3125-1.140625 13.117188 1.601562 29.492188 11.101562 43.808594 25.417969 1.03125 1.027343 2.039062 2.070312 3.019531 3.128906-.707031-5.894532-1.070313-11.992188-1.070313-18.117188 0-25.582031 6.109376-48.664062 16.347657-61.746094 1.515625-1.941406 4.785156-1.941406 6.300781 0 10.238281 13.082032 16.351562 36.164063 16.351562 61.746094 0 6.125-.367187 12.222656-1.074218 18.113282.984375-1.058594 1.992187-2.097657 3.019531-3.128907 14.316406-14.3125 30.695313-23.816406 43.8125-25.417969 1.226563-.148437 2.441406.277344 3.308594 1.144532.875.871094 1.292969 2.089844 1.144531 3.3125-1.601562 13.113281-11.101562 29.492187-25.417969 43.808594-.425781.425781-.855469.847656-1.285156 1.265624 12.875-.855468 24.554687 1.015626 32.25 5.332032 1.074219.601562 1.808594 1.664062 1.996094 2.878906s-.195313 2.449219-1.039063 3.347656c-7.335937 7.8125-21.347656 13.960938-37.480468 16.449219-2.894532.445313-5.761719.761719-8.585938.941406 5.910156 5.382813 10.117188 11.386719 11.628906 16.765625.335938 1.183594.105469 2.457032-.625 3.449219-.726562.992187-1.871094 1.59375-3.101562 1.632813-7.117188.214843-16.484375-3.40625-25.089844-9.710938-5.414062-3.96875-9.898438-8.519531-12.964844-13.078125-3.070312 4.558594-7.554687 9.109375-12.96875 13.078125-8.34375 6.121094-17.429687 9.722656-24.457031 9.722656zm19.449219-29.933594c1.722656 0 3.273437 1.113282 3.808594 2.777344.566406 1.773438-.160157 3.703125-1.757813 4.660156-1.464844.875-2.914063 1.835938-4.300781 2.855469-4.3125 3.160157-8.03125 6.863281-10.582032 10.417969 4.160157-1.363281 8.808594-3.792969 13.117188-6.953125 6.589844-4.824219 11.632812-10.683594 13.5-15.671875.339844-.914062 1.003906-1.671875 1.867188-2.128906.03125-.015625.214843-.113282.25-.128906.726562-.414063 1.589843-.597657 2.429687-.507813.601563.042969 1.203125.210937 1.710937.496094.03125.015625.242188.125.277344.140625.859375.457031 1.523438 1.214844 1.867188 2.128906 1.863281 4.992188 6.910156 10.851562 13.492187 15.675781 4.3125 3.15625 8.964844 5.589844 13.121094 6.949219-2.546875-3.554688-6.269531-7.253906-10.578125-10.414062-1.390625-1.023438-2.839844-1.984376-4.304688-2.859376-1.597656-.957031-2.324218-2.886718-1.753906-4.65625.570313-1.773437 2.3125-2.902343 4.136719-2.761718 5.984375.5 12.628906.226562 19.207031-.789063 11.230469-1.730469 21.449219-5.449219 28.234375-10.117187-7.878906-2.410156-18.738281-2.875-29.96875-1.144532-1.503906.234376-3.0625.515626-4.757812.871094-1.839844.378906-3.675781-.546875-4.453125-2.246094-.78125-1.699218-.285156-3.707031 1.199218-4.84375 3.757813-2.886718 7.414063-6.097656 10.863282-9.546874 10.828125-10.824219 18.808594-23.125 21.90625-33.4375-10.3125 3.097656-22.613282 11.078124-33.441406 21.90625-4.519532 4.519531-8.585938 9.34375-12.085938 14.328124-1.101562 1.578126-3.175781 2.140626-4.929688 1.34375-1.75-.796874-2.691406-2.730468-2.226562-4.601562 2.382812-9.648438 3.640625-20.613281 3.640625-31.710938 0-20.632812-4.328125-39.929687-11.5-52.148437-7.171875 12.21875-11.5 31.515625-11.5 52.148437 0 11.09375 1.257813 22.058594 3.636719 31.714844.460937 1.871094-.472656 3.800782-2.226563 4.597656-1.757812.796876-3.824219.234376-4.933593-1.34375-3.492188-4.980468-7.558594-9.800781-12.082032-14.328124-10.824218-10.824219-23.125-18.808594-33.441406-21.902344 3.097656 10.3125 11.082031 22.613281 21.90625 33.4375 3.441406 3.441406 7.097656 6.65625 10.867188 9.546875 1.480468 1.136719 1.976562 3.148437 1.199218 4.839843-.777344 1.699219-2.625 2.628907-4.453125 2.25-1.554687-.324218-3.136719-.621093-4.757812-.871093-11.226563-1.734375-22.09375-1.265625-29.96875 1.144531 6.785156 4.667969 17.003906 8.382812 28.230469 10.117188 6.574218 1.011718 13.214843 1.285156 19.207031.785156.105469-.011719.214843-.019532.328125-.019532zm56.113281 3.183594h.019531zm0 0" fill="#690589"/><path d="m61.863281 446.988281c-10.492187 0-19.023437-8.535156-19.023437-19.023437v-266.832032c0-2.207031 1.792968-4 4-4h30.042968c2.210938 0 4 1.792969 4 4v266.832032c0 10.492187-8.53125 19.023437-19.019531 19.023437zm-11.023437-281.855469v262.832032c0 6.078125 4.941406 11.023437 11.019531 11.023437s11.023437-4.945312 11.023437-11.023437v-262.832032zm0 0" fill="#690589"/><path d="m215.511719 446.988281c-2.210938 0-4-1.789062-4-4v-38.933593c0-2.207032 1.789062-4 4-4 2.207031 0 4 1.792968 4 4v38.933593c0 2.210938-1.792969 4-4 4zm0 0" fill="#690589"/></svg>