<svg height="504pt" viewBox="-66 0 503 504" width="504pt" xmlns="http://www.w3.org/2000/svg"><path d="m330.761719 500h-290.40625c-5.519531 0-10-4.476562-10-10v-238h310.40625v238c0 5.523438-4.476563 10-10 10zm0 0" fill="#ff4397"/><path d="m340.761719 252h-310.40625v-238c0-5.523438 4.480469-10 10-10h290.40625c5.523437 0 10 4.476562 10 10zm0 0" fill="#fcc24c"/><path d="m340.761719 256h-310.40625c-2.210938 0-4-1.792969-4-4v-238c0-7.71875 6.28125-14 14-14h290.40625c7.714843 0 14 6.28125 14 14v238c0 2.207031-1.792969 4-4 4zm-306.40625-8h302.40625v-234c0-3.308594-2.695313-6-6-6h-290.40625c-3.308594 0-6 2.691406-6 6zm0 0" fill="#690589"/><path d="m330.761719 4h-20c5.519531 0 10 4.476562 10 10v238h20v-238c0-5.523438-4.476563-10-10-10zm0 0" fill="#dea42e"/><path d="m40.355469 4h20c-5.519531 0-10 4.476562-10 10v238h-20v-238c0-5.523438 4.476562-10 10-10zm0 0" fill="#fce06a"/><path d="m340.761719 256h-310.40625c-2.210938 0-4-1.792969-4-4v-238c0-7.71875 6.28125-14 14-14h290.40625c7.714843 0 14 6.28125 14 14v238c0 2.207031-1.792969 4-4 4zm-306.40625-8h302.40625v-234c0-3.308594-2.695313-6-6-6h-290.40625c-3.308594 0-6 2.691406-6 6zm0 0" fill="#690589"/><path d="m46.355469 88.160156c-2.210938 0-4-1.789062-4-4v-24c0-2.207031 1.789062-4 4-4 2.207031 0 4 1.792969 4 4v24c0 2.210938-1.792969 4-4 4zm0 0" fill="#690589"/><path d="m330.761719 504h-290.40625c-7.71875 0-14-6.28125-14-14v-238c0-2.207031 1.789062-4 4-4h310.40625c2.207031 0 4 1.792969 4 4v238c0 7.71875-6.28125 14-14 14zm-296.40625-248v234c0 3.308594 2.691406 6 6 6h290.40625c3.304687 0 6-2.691406 6-6v-234zm0 0" fill="#690589"/><path d="m320.761719 252v238c0 5.523438-4.480469 10-10 10h20c5.519531 0 10-4.476562 10-10v-238zm0 0" fill="#e12579"/><path d="m50.355469 252v238c0 5.523438 4.480469 10 10 10h-20c-5.519531 0-10-4.476562-10-10v-238zm0 0" fill="#ff61b5"/><path d="m330.761719 504h-290.40625c-7.71875 0-14-6.28125-14-14v-238c0-2.207031 1.789062-4 4-4h310.40625c2.207031 0 4 1.792969 4 4v238c0 7.71875-6.28125 14-14 14zm-296.40625-248v234c0 3.308594 2.691406 6 6 6h290.40625c3.304687 0 6-2.691406 6-6v-234zm0 0" fill="#690589"/><path d="m185.558594 256c-2.207032 0-4-1.792969-4-4v-248c0-2.207031 1.792968-4 4-4 2.207031 0 4 1.792969 4 4v248c0 2.207031-1.792969 4-4 4zm0 0" fill="#690589"/><path d="m340.761719 135.902344h-310.40625c-2.210938 0-4-1.792969-4-4 0-2.207032 1.789062-4 4-4h310.40625c2.207031 0 4 1.792968 4 4 0 2.207031-1.792969 4-4 4zm0 0" fill="#690589"/><path d="m338.914062 307.394531h-306.714843c-15.296875 0-27.695313-12.402343-27.695313-27.699219 0-15.296874 12.398438-27.699218 27.695313-27.699218h306.71875c15.296875 0 27.699219 12.402344 27.699219 27.699218-.003907 15.296876-12.402344 27.699219-27.703126 27.699219zm0 0" fill="#f4efed"/><path d="m338.914062 252h-20c15.296876 0 27.699219 12.398438 27.699219 27.699219 0 15.292969-12.398437 27.695312-27.699219 27.695312h20c15.296876 0 27.699219-12.398437 27.699219-27.695312 0-15.300781-12.398437-27.699219-27.699219-27.699219zm0 0" fill="#d6d1cf"/><path d="m32.199219 307.394531h20c-15.296875 0-27.695313-12.402343-27.695313-27.699219 0-15.296874 12.398438-27.699218 27.695313-27.699218h-20c-15.296875 0-27.695313 12.402344-27.695313 27.699218 0 15.296876 12.398438 27.699219 27.695313 27.699219zm0 0" fill="#fff"/><path d="m338.917969 311.394531h-306.71875c-17.480469 0-31.699219-14.21875-31.699219-31.699219 0-17.480468 14.21875-31.695312 31.699219-31.695312h306.71875c17.476562 0 31.699219 14.21875 31.699219 31.699219s-14.222657 31.695312-31.699219 31.695312zm-306.71875-55.394531c-13.066407 0-23.699219 10.628906-23.699219 23.699219 0 13.066406 10.628906 23.695312 23.699219 23.695312h306.71875c13.066406 0 23.699219-10.628906 23.699219-23.695312 0-13.070313-10.632813-23.699219-23.699219-23.699219zm0 0" fill="#690589"/><path d="m256.914062 457.425781c29.316407-4.523437 53.785157-15.683593 65.828126-28.515625-15.351563-8.605468-42.039063-11.878906-71.355469-7.359375-3.164063.488281-6.253907 1.066407-9.292969 1.703125 7.109375-5.460937 14.195312-11.640625 21.066406-18.515625 26.292969-26.289062 42.757813-55.699219 45.429688-77.601562-21.898438 2.671875-51.308594 19.140625-77.601563 45.429687-9.042969 9.046875-16.890625 18.460938-23.449219 27.808594 4.480469-18.167969 7.027344-38.996094 7.027344-61.144531 0-47.417969-11.671875-88.785157-29.007812-110.941407-17.339844 22.15625-29.011719 63.523438-29.011719 110.941407 0 22.148437 2.550781 42.976562 7.03125 61.144531-6.558594-9.347656-14.40625-18.761719-23.453125-27.808594-26.289062-26.289062-55.699219-42.757812-77.597656-45.429687 2.671875 21.898437 19.136718 51.3125 45.429687 77.601562 6.871094 6.875 13.957031 13.054688 21.066407 18.515625-3.039063-.636718-6.132813-1.214844-9.292969-1.703125-29.316407-4.519531-56.007813-1.246093-71.359375 7.359375 12.046875 12.832032 36.511718 23.992188 65.828125 28.515625 13.398437 2.0625 26.230469 2.484375 37.699219 1.53125-2.882813 1.722657-5.773438 3.636719-8.636719 5.734375-15.171875 11.117188-25.671875 24.550782-28.695313 35.292969 11.152344.351563 27.125-5.613281 42.296875-16.730469 13.996094-10.257812 24.003907-22.484375 27.84375-32.753906.226563-.121094.472657-.230469.691407-.355469.050781.003907.105468.015625.15625.023438.054687-.007813.105468-.019531.160156-.023438.222656.125.464844.234375.6875.355469 3.839844 10.269531 13.847656 22.492188 27.847656 32.753906 15.171875 11.117188 31.140625 17.082032 42.296875 16.730469-3.023437-10.742187-13.523437-24.175781-28.695313-35.292969-2.863281-2.097656-5.753906-4.011718-8.640624-5.734375 11.472656.953125 24.308593.53125 37.703124-1.53125zm0 0" fill="#7bac51"/><g fill="#99ca6f"><path d="m75.261719 329.980469c3.675781 21.558593 19.832031 49.585937 45.003906 74.761719 4.523437 4.523437 9.140625 8.746093 13.792969 12.664062 1.851562 1.558594.46875 4.535156-1.925782 4.164062-.03125-.007812-.0625-.011718-.09375-.015624-2.085937-.320313-4.152343-.59375-6.210937-.835938-6.03125-4.824219-12.027344-10.132812-17.871094-15.976562-26.292969-26.289063-42.757812-55.699219-45.429687-77.601563 4.011718.488281 8.28125 1.449219 12.734375 2.839844zm0 0"/><path d="m100.023438 419.65625c-16.066407.671875-29.867188 3.945312-39.339844 9.253906 12.042968 12.832032 36.507812 23.992188 65.828125 28.515625 6.613281 1.019531 13.089843 1.632813 19.332031 1.882813-9.863281.394531-20.550781-.175782-31.640625-1.882813-29.316406-4.523437-53.78125-15.683593-65.828125-28.515625 11.816406-6.625 30.363281-10.070312 51.648438-9.253906zm0 0"/><path d="m143.261719 464.691406c2.605469-1.910156 5.234375-3.65625 7.863281-5.257812.941406.007812 1.878906.007812 2.808594-.003906 2.820312-.03125 3.996094 3.535156 1.722656 5.199218-.027344.019532-.058594.042969-.085938.0625-14.328124 10.496094-24.480468 23.0625-28.113281 33.472656-4.703125 1.304688-9.082031 1.9375-12.890625 1.816407 3.027344-10.738281 13.527344-24.171875 28.695313-35.289063zm0 0"/><path d="m163.578125 400.378906c6.21875 0 10.910156-5.644531 9.753906-11.75-2.882812-15.199218-4.476562-31.886718-4.476562-49.398437 0 0-1.019531-76.667969 16.703125-110.9375-17.335938 22.15625-29.011719 63.523437-29.011719 110.9375 0 14.289062 1.074219 28.007812 3.027344 40.835937zm0 0"/></g><path d="m295.855469 329.980469c-3.675781 21.558593-19.832031 49.585937-45.003907 74.761719-4.523437 4.523437-9.140624 8.746093-13.792968 12.664062-1.851563 1.558594-.46875 4.535156 1.921875 4.164062.035156-.007812.066406-.011718.09375-.015624 2.085937-.320313 4.15625-.59375 6.210937-.835938 6.03125-4.824219 12.03125-10.132812 17.871094-15.976562 26.292969-26.289063 42.757812-55.699219 45.433594-77.601563-4.015625.488281-8.28125 1.449219-12.734375 2.839844zm0 0" fill="#5d8e33"/><path d="m271.09375 419.65625c16.0625.671875 29.867188 3.945312 39.34375 9.253906-12.046875 12.832032-36.511719 23.992188-65.828125 28.515625-6.617187 1.019531-13.089844 1.632813-19.335937 1.882813 9.863281.394531 20.550781-.175782 31.640624-1.882813 29.316407-4.523437 53.785157-15.683593 65.828126-28.515625-11.816407-6.625-30.367188-10.070312-51.648438-9.253906zm0 0" fill="#5d8e33"/><path d="m227.855469 464.691406c-2.609375-1.910156-5.238281-3.65625-7.863281-5.257812-.941407.007812-1.878907.007812-2.808594-.003906-2.820313-.03125-3.996094 3.535156-1.722656 5.199218.027343.019532.058593.042969.085937.0625 14.328125 10.496094 24.480469 23.0625 28.109375 33.472656 4.707031 1.304688 9.082031 1.9375 12.890625 1.816407-3.023437-10.738281-13.523437-24.171875-28.691406-35.289063zm0 0" fill="#5d8e33"/><path d="m207.535156 400.378906c-6.214844 0-10.910156-5.644531-9.75-11.75 2.878906-15.199218 4.476563-31.886718 4.476563-49.398437 0 0 1.019531-76.667969-16.703125-110.9375 17.335937 22.15625 29.011718 63.523437 29.011718 110.9375 0 14.289062-1.074218 28.007812-3.027343 40.835937zm0 0" fill="#5d8e33"/><path d="m185.558594 503.71875c-2.207032 0-4-1.792969-4-4v-49.65625c0-2.207031 1.792968-4 4-4 2.207031 0 4 1.792969 4 4v49.65625c0 2.210938-1.792969 4-4 4zm0 0" fill="#690589"/><path d="m255.582031 504c-12.417969 0-28.644531-6.488281-43.695312-17.519531-11.542969-8.457031-20.972657-18.6875-26.328125-28.363281-5.355469 9.675781-14.789063 19.90625-26.328125 28.363281-15.496094 11.359375-32.183594 17.894531-44.789063 17.5-1.230468-.039063-2.375-.636719-3.101562-1.632813-.726563-.992187-.957032-2.261718-.625-3.449218 3.210937-11.390626 13.417968-24.480469 27.5625-35.457032-8.027344-.078125-16.289063-.765625-24.691406-2.0625-29.449219-4.542968-54.921876-15.652344-68.132813-29.726562-.839844-.894532-1.222656-2.132813-1.039063-3.347656.191407-1.214844.925782-2.277344 1.996094-2.878907 15.816406-8.867187 41.15625-11.976562 68.578125-8.570312-3.367187-2.976563-6.660156-6.078125-9.863281-9.285157-26.257812-26.257812-43.667969-56.144531-46.574219-79.945312-.148437-1.21875.273438-2.441406 1.144531-3.3125.867188-.871094 2.082032-1.285156 3.3125-1.140625 23.796876 2.902344 53.683594 20.3125 79.945313 46.570313 4.660156 4.664062 9.078125 9.484374 13.21875 14.433593-2.386719-14.328125-3.628906-29.585937-3.628906-44.945312 0-46.414063 11.441406-89.867188 29.859375-113.402344.757812-.96875 1.921875-1.535156 3.152344-1.535156 1.230468 0 2.390624.566406 3.148437 1.535156 18.417969 23.539063 29.859375 66.992187 29.859375 113.402344 0 15.359375-1.238281 30.617187-3.625 44.945312 4.140625-4.949219 8.558594-9.773437 13.21875-14.433593 26.257812-26.257813 56.144531-43.667969 79.945312-46.570313 1.222657-.15625 2.445313.273437 3.3125 1.140625.871094.871094 1.292969 2.09375 1.140626 3.3125-2.902344 23.800781-20.3125 53.6875-46.570313 79.945312-3.203125 3.207032-6.5 6.304688-9.863281 9.285157 27.417968-3.410157 52.761718-.292969 68.574218 8.570312 1.074219.601563 1.808594 1.664063 1.996094 2.878907.1875 1.214843-.195312 2.453124-1.039062 3.347656-13.210938 14.074218-38.683594 25.1875-68.132813 29.726562-8.402343 1.296875-16.660156 1.984375-24.6875 2.0625 14.140625 10.972656 24.351563 24.066406 27.558594 35.457032.335937 1.1875.105469 2.457031-.621094 3.449218-.730469.992188-1.875 1.597656-3.101562 1.632813-.355469.011719-.71875.019531-1.085938.019531zm-103.679687-49.042969c1.722656 0 3.273437 1.113281 3.804687 2.777344.570313 1.773437-.15625 3.703125-1.753906 4.65625-2.820313 1.683594-5.621094 3.542969-8.328125 5.53125-11.511719 8.4375-20.644531 18.605469-25.078125 27.683594 9.992187-1.492188 22.441406-7.136719 33.953125-15.574219 12.847656-9.414062 22.742188-20.976562 26.464844-30.929688.339844-.90625.996094-1.65625 1.847656-2.121093l.640625-.328125c.644531-.355469 1.382813-.515625 2.105469-.5.742187-.015625 1.460937.144531 2.105468.5l.640626.328125c.851562.460937 1.507812 1.214843 1.847656 2.121093 3.722656 9.953126 13.617187 21.515626 26.464844 30.929688 11.511718 8.4375 23.957031 14.082031 33.953124 15.574219-4.4375-9.078125-13.566406-19.246094-25.082031-27.683594-2.707031-1.984375-5.511719-3.847656-8.328125-5.53125-1.597656-.953125-2.320312-2.882813-1.753906-4.65625.570312-1.773437 2.300781-2.90625 4.140625-2.761719 11.480469.957032 24.195313.4375 36.757813-1.5 24.53125-3.78125 46.652343-12.597656 59.496093-23.488281-15.527343-6.519531-39.277343-8.257813-63.808593-4.476563-2.902344.449219-5.875.996094-9.082032 1.664063-1.835937.386719-3.675781-.546875-4.453125-2.242187-.78125-1.699219-.28125-3.707032 1.199219-4.84375 7.15625-5.496094 14.113281-11.609376 20.675781-18.171876 22.6875-22.6875 38.863281-48.898437 43.375-69.886718-20.988281 4.511718-47.203125 20.6875-69.890625 43.375-8.605468 8.609375-16.347656 17.785156-23.003906 27.277344-1.105469 1.578124-3.171875 2.144531-4.929688 1.34375-1.753906-.796876-2.691406-2.726563-2.226562-4.597657 4.523438-18.335937 6.914062-39.152343 6.914062-60.191406 0-41.941406-9.496093-81.117187-25.011718-104.128906-15.511719 23.011719-25.007813 62.1875-25.007813 104.128906 0 21.042969 2.390625 41.855469 6.914063 60.1875.460937 1.871094-.476563 3.800781-2.226563 4.601563-1.757812.800781-3.828125.230468-4.933593-1.34375-6.652344-9.488282-14.394532-18.664063-23.003907-27.277344-22.6875-22.6875-48.902343-38.863282-69.890625-43.375 4.515625 20.988281 20.691406 47.203125 43.378906 69.886718 6.5625 6.5625 13.519532 12.675782 20.675782 18.171876 1.480468 1.136718 1.976562 3.144531 1.199218 4.84375-.78125 1.695312-2.632812 2.625-4.457031 2.242187-3.199219-.667969-6.171875-1.214844-9.085937-1.664063-24.523438-3.777343-48.273438-2.042968-63.800782 4.476563 12.84375 10.890625 34.960938 19.707031 59.492188 23.488281 12.566406 1.9375 25.28125 2.460938 36.757812 1.5.109376-.011718.21875-.015625.332032-.015625zm0 0" fill="#690589"/></svg>