<svg height="503pt" viewBox="0 -61 503.98703 503" width="503pt" xmlns="http://www.w3.org/2000/svg"><path d="m448.503906 183.757812c22.933594-3.535156 42.074219-12.269531 51.5-22.304687-12.011718-6.734375-32.890625-9.296875-55.828125-5.757813-2.472656.378907-4.894531.832032-7.273437 1.332032 5.5625-4.273438 11.109375-9.109375 16.484375-14.484375 20.570312-20.570313 33.453125-43.578125 35.542969-60.710938-17.132813 2.089844-40.144532 14.972657-60.710938 35.542969-7.078125 7.074219-13.214844 14.4375-18.347656 21.753906 3.503906-14.214844 5.5-30.507812 5.5-47.839844 0-37.09375-9.132813-69.460937-22.695313-86.792968-13.566406 17.335937-22.699219 49.699218-22.699219 86.792968 0 17.328126 1.996094 33.625 5.5 47.839844-5.128906-7.316406-11.269531-14.679687-18.347656-21.753906-20.566406-20.570312-43.578125-33.453125-60.707031-35.542969 2.089844 17.132813 14.96875 40.140625 35.539063 60.710938 5.378906 5.375 10.921874 10.210937 16.484374 14.484375-2.378906-.5-4.800781-.953125-7.273437-1.332032-22.9375-3.539062-43.816406-.976562-55.824219 5.757813 9.421875 10.035156 28.5625 18.769531 51.5 22.304687 10.480469 1.617188 20.519532 1.945313 29.492188 1.199219-2.253906 1.347657-4.519532 2.84375-6.757813 4.488281-11.867187 8.695313-20.082031 19.207032-22.449219 27.609376 8.726563.273437 21.222657-4.394532 33.089844-13.089844 10.953125-8.023438 18.78125-17.589844 21.785156-25.625.175782-.09375.367188-.179688.539063-.277344.042969.003906.085937.015625.125.019531.039063-.003906.085937-.011719.125-.019531.171875.097656.363281.183594.539063.277344 3.003906 8.035156 10.832031 17.601562 21.785156 25.625 11.867187 8.699218 24.363281 13.363281 33.089844 13.089844-2.367188-8.40625-10.582032-18.914063-22.449219-27.609376-2.238281-1.644531-4.503907-3.140624-6.757813-4.488281 8.976563.746094 19.015625.417969 29.5-1.199219zm0 0" fill="#7bac51"/><path d="m385.484375 247.296875c-2.207031 0-4-1.792969-4-4 0-2.210937 1.792969-4 4-4 1.761719 0 3.191406-1.433594 3.191406-3.195313v-58.101562c0-2.207031 1.792969-4 4-4s4 1.792969 4 4v58.101562c0 6.171876-5.019531 11.195313-11.191406 11.195313zm0 0" fill="#690589"/><path d="m337.886719 221.066406c-.292969 0-.585938-.003906-.875-.015625-1.230469-.039062-2.375-.640625-3.101563-1.632812-.726562-.992188-.957031-2.265625-.625-3.449219 2.410156-8.5625 9.75-18.304688 19.96875-26.679688-5.554687-.160156-11.242187-.6875-17.019531-1.578124-23.222656-3.582032-43.339844-12.378907-53.800781-23.523438-.84375-.898438-1.226563-2.132812-1.039063-3.347656s.921875-2.277344 1.996094-2.878906c12.003906-6.730469 30.886719-9.289063 51.464844-7.121094-1.941407-1.777344-3.851563-3.601563-5.722657-5.472656-20.671874-20.671876-34.386718-44.246094-36.683593-63.054688-.148438-1.21875.269531-2.441406 1.140625-3.3125.871094-.867188 2.089844-1.289062 3.3125-1.140625 18.808594 2.296875 42.378906 16.007813 63.054687 36.683594 2.917969 2.921875 5.71875 5.921875 8.382813 8.988281-1.558594-10.359375-2.367188-21.269531-2.367188-32.242188 0-37.050781 8.800782-70.417968 23.542969-89.257812 1.515625-1.9414062 4.785156-1.9414062 6.300781 0 14.742188 18.835938 23.542969 52.203125 23.542969 89.257812 0 10.972657-.804687 21.882813-2.363281 32.246094 2.664062-3.070312 5.460937-6.070312 8.382812-8.992187 20.671875-20.675781 44.246094-34.386719 63.054688-36.683594 1.222656-.152344 2.441406.273437 3.3125 1.140625.871094.871094 1.289062 2.09375 1.140625 3.3125-2.296875 18.808594-16.011719 42.378906-36.6875 63.054688-1.867188 1.871093-3.777344 3.695312-5.722657 5.472656 20.582032-2.164063 39.464844.390625 51.46875 7.121094 1.070313.601562 1.808594 1.664062 1.996094 2.878906s-.195312 2.449218-1.039062 3.347656c-10.464844 11.144531-30.578125 19.941406-53.804688 23.523438-5.777344.886718-11.460937 1.414062-17.019531 1.578124 10.222656 8.375 17.558594 18.117188 19.96875 26.679688.335937 1.183594.105469 2.457031-.621094 3.449219-.730469.992187-1.875 1.59375-3.101562 1.632812-10.058594.320313-23.308594-4.867187-35.582031-13.859375-8.730469-6.398437-15.761719-13.828125-20.085938-21.109375-4.320312 7.28125-11.351562 14.710938-20.082031 21.109375-11.902344 8.734375-24.789063 13.875-34.6875 13.875zm55.136719-46.976562c.609374.039062 1.230468.199218 1.738281.484375l.476562.246093c.851563.460938 1.511719 1.210938 1.847657 2.121094 2.855468 7.628906 10.480468 16.527344 20.402343 23.796875 8.257813 6.050781 17.109375 10.238281 24.464844 11.726563-3.632813-6.566406-10.296875-13.746094-18.554687-19.796875-2.097657-1.539063-4.265626-2.976563-6.445313-4.28125-1.597656-.957031-2.324219-2.886719-1.753906-4.65625.566406-1.773438 2.300781-2.90625 4.140625-2.761719 8.917968.742188 18.792968.335938 28.550781-1.167969 18.34375-2.828125 34.929687-9.261719 44.988281-17.253906-11.996094-4.59375-29.75-5.734375-48.097656-2.902344-2.234375.34375-4.546875.765625-7.0625 1.292969-1.816406.382812-3.671875-.550781-4.453125-2.246094-.78125-1.695312-.28125-3.707031 1.199219-4.84375 5.570312-4.273437 10.984375-9.03125 16.089844-14.136718 17.15625-17.160157 29.519531-36.882813 33.394531-52.90625-16.027344 3.875-35.75 16.238281-52.90625 33.394531-6.699219 6.699219-12.722657 13.839843-17.898438 21.222656-1.109375 1.574219-3.175781 2.140625-4.933593 1.34375-1.75-.796875-2.6875-2.730469-2.226563-4.601563 3.523437-14.277343 5.382813-30.488281 5.382813-46.878906 0-31.996094-7.078126-61.894531-18.695313-79.886718-11.617187 17.992187-18.695313 47.890624-18.695313 79.886718 0 16.390625 1.863282 32.601563 5.382813 46.878906.460937 1.871094-.472656 3.800782-2.226563 4.597657-1.75.796875-3.824218.234375-4.929687-1.34375-5.179687-7.378907-11.203125-14.519531-17.902344-21.21875-17.15625-17.160157-36.875-29.523438-52.90625-33.394531 3.878907 16.027343 16.238281 35.75 33.394531 52.90625 5.105469 5.105468 10.519532 9.863281 16.089844 14.136718 1.480469 1.136719 1.980469 3.148438 1.203125 4.84375-.78125 1.695313-2.632812 2.628906-4.457031 2.246094-2.511719-.523438-4.820312-.949219-7.0625-1.292969-18.34375-2.828125-36.097656-1.691406-48.097656 2.902344 10.058594 7.992187 26.644531 14.425781 44.988281 17.253906 9.761719 1.503907 19.636719 1.910157 28.554687 1.167969 1.855469-.140625 3.570313.988281 4.140626 2.761719.566406 1.769531-.160157 3.699219-1.757813 4.65625-2.183594 1.308593-4.355469 2.746093-6.445313 4.28125-8.257812 6.050781-14.917968 13.230469-18.554687 19.796875 7.359375-1.488282 16.210937-5.675782 24.464844-11.726563 9.921875-7.269531 17.546875-16.167969 20.40625-23.796875.339843-.910156.996093-1.660156 1.847656-2.121094l.351563-.179687c.746093-.414063 1.71875-.648437 2.5625-.550781zm55.480468 9.667968h.019532zm0 0" fill="#690589"/><path d="m453.554688 266.027344h-121.757813c-8.753906 0-15.851563-7.097656-15.851563-15.855469 0-8.753906 7.097657-15.851563 15.851563-15.851563h121.757813c8.753906 0 15.851562 7.097657 15.851562 15.851563 0 8.757813-7.09375 15.855469-15.851562 15.855469zm0 0" fill="#fcc24c"/><path d="m421.109375 377.089844h-56.867187c-9.703126 0-18.015626-6.945313-19.738282-16.496094l-17.078125-94.570312h130.5l-17.078125 94.570312c-1.722656 9.550781-10.035156 16.496094-19.738281 16.496094zm0 0" fill="#fcc24c"/><path d="m439.253906 266.027344-17.078125 94.570312c-1.726562 9.546875-10.039062 16.492188-19.738281 16.492188h18.671875c9.703125 0 18.015625-6.941406 19.738281-16.492188l17.082032-94.570312zm0 0" fill="#dea42e"/><path d="m346.101562 266.027344 17.078126 94.570312c1.722656 9.546875 10.035156 16.492188 19.738281 16.492188h-18.671875c-9.703125 0-18.015625-6.941406-19.738282-16.492188l-17.082031-94.570312zm0 0" fill="#fce06a"/><path d="m453.554688 234.324219h-18.671876c8.753907 0 15.851563 7.097656 15.851563 15.851562 0 8.753907-7.097656 15.851563-15.851563 15.851563h18.671876c8.753906 0 15.851562-7.097656 15.851562-15.851563 0-8.753906-7.09375-15.851562-15.851562-15.851562zm0 0" fill="#dea42e"/><path d="m453.554688 270.027344h-121.757813c-10.945313 0-19.851563-8.90625-19.851563-19.851563 0-10.945312 8.90625-19.851562 19.851563-19.851562h121.757813c10.949218 0 19.851562 8.90625 19.851562 19.851562 0 10.945313-8.902344 19.851563-19.851562 19.851563zm-121.757813-31.703125c-6.535156 0-11.851563 5.316406-11.851563 11.851562 0 6.535157 5.316407 11.851563 11.851563 11.851563h121.757813c6.539062 0 11.851562-5.316406 11.851562-11.851563 0-6.535156-5.3125-11.851562-11.851562-11.851562zm0 0" fill="#690589"/><path d="m421.109375 381.089844h-56.867187c-11.648438 0-21.605469-8.320313-23.675782-19.78125l-17.078125-94.574219c-.207031-1.164063.109375-2.363281.867188-3.273437.761719-.910157 1.882812-1.4375 3.070312-1.4375h130.503907c1.183593 0 2.304687.527343 3.070312 1.4375.757812.910156 1.074219 2.109374.863281 3.273437l-17.078125 94.574219c-2.070312 11.460937-12.023437 19.78125-23.675781 19.78125zm-88.898437-111.0625 16.226562 89.859375c1.382812 7.652343 8.03125 13.203125 15.800781 13.203125h56.871094c7.773437 0 14.421875-5.550782 15.800781-13.203125l16.226563-89.863281h-120.925781zm0 0" fill="#690589"/><path d="m259.171875 298.453125-17.519531-12.953125v14.824219h-52.40625v22.15625h52.40625v14.824219l17.519531-12.953126 17.511719-12.949218zm0 0" fill="#ff4397"/><path d="m167.152344 183.757812c22.9375-3.535156 42.078125-12.269531 51.5-22.304687-12.007813-6.734375-32.890625-9.296875-55.824219-5.757813-2.472656.378907-4.894531.832032-7.273437 1.332032 5.5625-4.273438 11.109374-9.109375 16.484374-14.484375 20.570313-20.570313 33.449219-43.578125 35.542969-60.710938-17.132812 2.089844-40.144531 14.972657-60.710937 35.542969-7.078125 7.074219-13.21875 14.4375-18.347656 21.753906 3.503906-14.214844 5.5-30.507812 5.5-47.839844 0-37.09375-9.132813-69.460937-22.699219-86.792968-13.5625 17.335937-22.691407 49.699218-22.691407 86.792968 0 17.328126 1.992188 33.625 5.5 47.839844-5.128906-7.316406-11.273437-14.679687-18.347656-21.753906-20.570312-20.570312-43.578125-33.453125-60.710937-35.546875 2.09375 17.132813 14.972656 40.144531 35.542969 60.710937 5.378906 5.375 10.921874 10.214844 16.484374 14.484376-2.378906-.496094-4.800781-.949219-7.273437-1.332032-22.9375-3.535156-43.816406-.976562-55.824219 5.757813 9.421875 10.039062 28.5625 18.769531 51.5 22.304687 10.480469 1.617188 20.519532 1.949219 29.496094 1.199219-2.257812 1.347656-4.519531 2.847656-6.761719 4.488281-11.867187 8.699219-20.082031 19.207032-22.445312 27.609375 8.726562.277344 21.222656-4.390625 33.089843-13.085937 10.953126-8.027344 18.78125-17.59375 21.785157-25.625.175781-.09375.367187-.183594.539062-.277344.039063.003906.082031.011719.125.019531.039063-.003906.082031-.015625.121094-.019531.175781.09375.363281.183594.542969.277344 3.003906 8.03125 10.828125 17.597656 21.78125 25.625 11.867187 8.695312 24.363281 13.363281 33.089844 13.085937-2.363282-8.402343-10.578126-18.914062-22.445313-27.609375-2.242187-1.640625-4.503906-3.140625-6.757813-4.488281 8.96875.75 19.007813.421875 29.488282-1.195313zm0 0" fill="#7bac51"/><path d="m104.132812 247.296875c-2.207031 0-4-1.792969-4-4 0-2.210937 1.792969-4 4-4 1.761719 0 3.195313-1.433594 3.195313-3.195313v-58.101562c0-2.207031 1.792969-4 4-4s4 1.792969 4 4v58.101562c0 6.171876-5.023437 11.195313-11.195313 11.195313zm0 0" fill="#690589"/><path d="m56.539062 221.066406c-.292968 0-.585937-.003906-.875-.015625-1.230468-.039062-2.375-.640625-3.101562-1.632812-.726562-.992188-.957031-2.265625-.625-3.449219 2.410156-8.5625 9.75-18.304688 19.96875-26.679688-5.554688-.164062-11.242188-.691406-17.015625-1.578124-23.226563-3.582032-43.34375-12.378907-53.804687-23.523438-.84375-.898438-1.226563-2.132812-1.039063-3.347656.183594-1.214844.921875-2.277344 1.996094-2.878906 12.003906-6.730469 30.886719-9.289063 51.464843-7.121094-1.945312-1.777344-3.855468-3.601563-5.722656-5.472656-20.671875-20.671876-34.386718-44.246094-36.679687-63.050782-.148438-1.222656.269531-2.441406 1.140625-3.3125s2.089844-1.289062 3.3125-1.140625c18.808594 2.292969 42.378906 16.007813 63.054687 36.683594 2.917969 2.917969 5.71875 5.921875 8.382813 8.988281-1.558594-10.359375-2.367188-21.269531-2.367188-32.246094 0-37.050781 8.804688-70.417968 23.546875-89.257812.757813-.96875 1.917969-1.535156 3.148438-1.535156s2.390625.566406 3.148437 1.535156c14.742188 18.84375 23.546875 52.207031 23.546875 89.257812 0 10.972657-.808593 21.886719-2.367187 32.242188 2.664062-3.066406 5.460937-6.066406 8.382812-8.988281 20.671875-20.675781 44.246094-34.386719 63.054688-36.683594 1.21875-.152344 2.441406.273437 3.308594 1.140625.875.871094 1.292968 2.09375 1.144531 3.3125-2.296875 18.808594-16.011719 42.382812-36.6875 63.054688-1.871094 1.871093-3.78125 3.695312-5.722657 5.472656 20.582032-2.164063 39.464844.390625 51.46875 7.121094 1.070313.601562 1.804688 1.664062 1.996094 2.878906.1875 1.214844-.199218 2.449218-1.039062 3.347656-10.464844 11.144531-30.578125 19.941406-53.804688 23.523438-5.773437.886718-11.460937 1.414062-17.019531 1.578124 10.222656 8.375 17.558594 18.117188 19.96875 26.679688.335937 1.183594.105469 2.457031-.621094 3.449219-.730469.992187-1.875 1.59375-3.101562 1.632812-9.992188.296875-23.304688-4.867187-35.582031-13.859375-8.730469-6.398437-15.757813-13.828125-20.082032-21.109375-4.328125 7.28125-11.355468 14.714844-20.085937 21.109375-11.90625 8.734375-24.792969 13.875-34.691407 13.875zm28.460938-40.109375c1.722656 0 3.269531 1.109375 3.804688 2.773438.566406 1.773437-.160157 3.703125-1.757813 4.660156-2.175781 1.300781-4.347656 2.742187-6.445313 4.277344-8.257812 6.050781-14.917968 13.230469-18.554687 19.800781 7.359375-1.488281 16.210937-5.679688 24.464844-11.730469 9.921875-7.265625 17.546875-16.164062 20.40625-23.796875.339843-.90625.996093-1.660156 1.847656-2.121094l.351563-.179687c.742187-.414063 1.722656-.644531 2.558593-.546875.015625 0 .03125.003906.050781.003906.59375.046875 1.195313.207032 1.683594.480469l.476563.242187c.851562.460938 1.507812 1.214844 1.847656 2.121094 2.855469 7.632813 10.484375 16.53125 20.402344 23.796875 8.253906 6.050781 17.109375 10.242188 24.464843 11.730469-3.632812-6.570312-10.296874-13.75-18.550781-19.800781-2.09375-1.53125-4.261719-2.972657-6.449219-4.277344-1.597656-.957031-2.324218-2.886719-1.753906-4.660156.566406-1.769531 2.300782-2.902344 4.136719-2.761719 8.921875.742188 18.796875.339844 28.554687-1.164062 18.347657-2.832032 34.929688-9.261719 44.988282-17.257813-11.996094-4.589844-29.75-5.730469-48.097656-2.902344-2.238282.347657-4.550782.769531-7.0625 1.296875-1.820313.382813-3.671876-.550781-4.453126-2.246094-.78125-1.699218-.28125-3.707031 1.199219-4.84375 5.570313-4.277343 10.984375-9.035156 16.089844-14.140624 17.15625-17.15625 29.519531-36.878907 33.394531-52.90625-16.027344 3.875-35.75 16.238281-52.90625 33.394531-6.703125 6.703125-12.722656 13.84375-17.898437 21.222656-1.105469 1.578125-3.175781 2.140625-4.933594 1.34375-1.75-.796875-2.6875-2.726563-2.226563-4.597656 3.523438-14.277344 5.386719-30.488281 5.386719-46.878907 0-31.996093-7.082031-61.894531-18.699219-79.890624-11.617187 17.992187-18.695312 47.890624-18.695312 79.890624 0 16.386719 1.863281 32.597657 5.382812 46.875.460938 1.871094-.472656 3.804688-2.226562 4.601563-1.757812.792969-3.824219.230469-4.929688-1.34375-5.179687-7.382813-11.203124-14.523437-17.902343-21.222656-17.15625-17.15625-36.878907-29.519531-52.90625-33.394531 3.878906 16.027343 16.238281 35.75 33.394531 52.90625 5.105469 5.105468 10.519531 9.863281 16.089844 14.140624 1.480468 1.136719 1.980468 3.144532 1.199218 4.84375-.777343 1.695313-2.632812 2.628907-4.453124 2.246094-2.515626-.527344-4.824219-.953125-7.0625-1.296875-18.347657-2.828125-36.097657-1.6875-48.097657 2.902344 10.058594 7.996094 26.644531 14.425781 44.992188 17.257813 9.757812 1.503906 19.625 1.90625 28.550781 1.164062.121094-.007812.230469-.011719.34375-.011719zm82.152344 2.800781h.023437zm0 0" fill="#690589"/><path d="m172.207031 266.027344h-121.757812c-8.753907 0-15.851563-7.097656-15.851563-15.855469 0-8.753906 7.09375-15.851563 15.851563-15.851563h121.757812c8.753907 0 15.851563 7.097657 15.851563 15.851563 0 8.757813-7.097656 15.855469-15.851563 15.855469zm0 0" fill="#fcc24c"/><path d="m139.761719 377.089844h-56.867188c-9.703125 0-18.015625-6.945313-19.738281-16.496094l-17.082031-94.570312h130.503906l-17.078125 94.570312c-1.722656 9.550781-10.035156 16.496094-19.738281 16.496094zm0 0" fill="#fcc24c"/><path d="m157.902344 266.027344-17.078125 94.570312c-1.722657 9.546875-10.035157 16.492188-19.738281 16.492188h18.675781c9.699219 0 18.011719-6.941406 19.738281-16.492188l17.078125-94.570312zm0 0" fill="#dea42e"/><path d="m64.75 266.027344 17.082031 94.570312c1.722657 9.546875 10.035157 16.492188 19.734375 16.492188h-18.671875c-9.703125 0-18.015625-6.941406-19.738281-16.492188l-17.082031-94.570312zm0 0" fill="#fce06a"/><path d="m172.207031 234.324219h-18.671875c8.753906 0 15.851563 7.097656 15.851563 15.851562 0 8.753907-7.097657 15.851563-15.851563 15.851563h18.671875c8.753907 0 15.851563-7.097656 15.851563-15.851563 0-8.753906-7.097656-15.851562-15.851563-15.851562zm0 0" fill="#dea42e"/><path d="m50.445312 266.027344h18.675782c-8.753906 0-15.851563-7.097656-15.851563-15.855469 0-8.753906 7.09375-15.851563 15.851563-15.851563h-18.675782c-8.753906 0-15.851562 7.097657-15.851562 15.851563.003906 8.757813 7.097656 15.855469 15.851562 15.855469zm0 0" fill="#fce06a"/><g fill="#690589"><path d="m172.207031 270.027344h-121.757812c-10.945313 0-19.851563-8.90625-19.851563-19.851563 0-10.945312 8.90625-19.851562 19.851563-19.851562h121.757812c10.945313 0 19.851563 8.90625 19.851563 19.851562 0 10.945313-8.90625 19.851563-19.851563 19.851563zm-121.757812-31.703125c-6.535157 0-11.851563 5.316406-11.851563 11.851562 0 6.535157 5.316406 11.851563 11.851563 11.851563h121.757812c6.539063 0 11.851563-5.316406 11.851563-11.851563 0-6.535156-5.3125-11.851562-11.851563-11.851562zm0 0"/><path d="m139.761719 381.089844h-56.867188c-11.648437 0-21.609375-8.320313-23.675781-19.785156l-17.078125-94.570313c-.210937-1.164063.105469-2.363281.867187-3.273437.761719-.910157 1.882813-1.4375 3.066407-1.4375h130.503906c1.1875 0 2.308594.527343 3.070313 1.4375.757812.910156 1.074218 2.109374.867187 3.273437l-17.078125 94.574219c-2.070312 11.464844-12.027344 19.78125-23.675781 19.78125zm-88.898438-111.0625 16.230469 89.859375c1.378906 7.652343 8.027344 13.203125 15.800781 13.203125h56.867188c7.773437 0 14.421875-5.550782 15.800781-13.203125l16.226562-89.859375zm0 0"/><path d="m69.4375 308.734375c-1.898438 0-3.582031-1.355469-3.929688-3.289063l-4.335937-24c-.390625-2.171874 1.050781-4.253906 3.222656-4.648437 2.1875-.390625 4.257813 1.050781 4.648438 3.226563l4.332031 24c.394531 2.175781-1.050781 4.253906-3.222656 4.648437-.238282.042969-.480469.0625-.714844.0625zm0 0"/></g><path d="m410.429688 183.757812c22.9375-3.535156 42.078124-12.269531 51.5-22.304687-12.007813-6.734375-32.890626-9.296875-55.824219-5.757813-2.476563.378907-4.894531.832032-7.269531 1.332032 5.558593-4.273438 11.105468-9.109375 16.480468-14.484375 20.570313-20.570313 33.453125-43.578125 35.542969-60.710938-17.132813 2.089844-40.144531 14.972657-60.710937 35.542969-7.078126 7.074219-13.214844 14.4375-18.347657 21.753906 3.503907-14.214844 5.5-30.507812 5.5-47.839844 0-37.09375-9.132812-69.460937-22.695312-86.792968-13.566407 17.335937-22.699219 49.699218-22.699219 86.792968 0 17.328126 1.996094 33.625 5.5 47.839844-5.128906-7.316406-11.269531-14.679687-18.347656-21.753906-20.566406-20.570312-43.578125-33.453125-60.707032-35.542969 2.089844 17.132813 14.96875 40.140625 35.539063 60.710938 5.378906 5.375 10.921875 10.210937 16.484375 14.484375-2.378906-.5-4.800781-.953125-7.273438-1.332032-22.933593-3.539062-43.816406-.976562-55.824218 5.757813 9.421875 10.035156 28.5625 18.769531 51.5 22.304687 10.480468 1.617188 20.519531 1.945313 29.496094 1.199219-2.257813 1.347657-4.519532 2.84375-6.761719 4.488281-11.867188 8.695313-20.082031 19.207032-22.449219 27.609376 8.726562.273437 21.222656-4.394532 33.089844-13.089844 10.953125-8.023438 18.78125-17.589844 21.785156-25.625.175781-.09375.367188-.179688.539062-.277344.042969.003906.085938.015625.125.019531.039063-.003906.085938-.011719.125-.019531.171876.097656.363282.183594.539063.277344 3.003906 8.035156 10.832031 17.601562 21.785156 25.625 11.867188 8.699218 24.363281 13.363281 33.089844 13.089844-2.367187-8.40625-10.582031-18.914063-22.449219-27.609376-2.238281-1.644531-4.503906-3.140624-6.757812-4.488281 8.972656.746094 19.011718.417969 29.496094-1.199219zm0 0" fill="#7bac51"/><path d="m347.410156 247.296875c-2.207031 0-4-1.792969-4-4 0-2.210937 1.792969-4 4-4 1.761719 0 3.195313-1.433594 3.195313-3.195313v-58.101562c0-2.207031 1.789062-4 4-4 2.207031 0 4 1.792969 4 4v58.101562c0 6.171876-5.023438 11.195313-11.195313 11.195313zm0 0" fill="#690589"/><path d="m299.8125 221.066406c-.292969 0-.585938-.003906-.875-.015625-1.230469-.039062-2.375-.640625-3.101562-1.632812-.726563-.992188-.957032-2.265625-.625-3.449219 2.410156-8.5625 9.75-18.304688 19.96875-26.679688-5.554688-.160156-11.242188-.6875-17.015626-1.578124-23.226562-3.582032-43.34375-12.378907-53.804687-23.523438-.84375-.898438-1.226563-2.132812-1.039063-3.347656s.925782-2.277344 1.996094-2.878906c12.003906-6.730469 30.886719-9.289063 51.464844-7.121094-1.941406-1.777344-3.851562-3.601563-5.722656-5.472656-20.675782-20.675782-34.386719-44.246094-36.683594-63.054688-.148438-1.21875.269531-2.441406 1.140625-3.3125.871094-.867188 2.085937-1.289062 3.3125-1.140625 18.808594 2.296875 42.378906 16.007813 63.054687 36.683594 2.917969 2.921875 5.71875 5.921875 8.382813 8.988281-1.558594-10.355469-2.367187-21.265625-2.367187-32.242188 0-37.054687 8.804687-70.417968 23.546874-89.257812.757813-.96875 1.917969-1.539062 3.148438-1.539062s2.390625.566406 3.152344 1.539062c14.738281 18.839844 23.539062 52.207031 23.539062 89.257812 0 10.972657-.804687 21.886719-2.363281 32.242188 2.664063-3.066406 5.460937-6.066406 8.382813-8.988281 20.671874-20.675781 44.246093-34.386719 63.054687-36.683594 1.226563-.152344 2.441406.273437 3.3125 1.140625.871094.871094 1.289063 2.09375 1.140625 3.3125-2.296875 18.808594-16.011719 42.382812-36.6875 63.054688-1.867188 1.871093-3.777344 3.695312-5.722656 5.472656 20.578125-2.164063 39.464844.390625 51.46875 7.121094 1.070312.601562 1.808594 1.664062 1.996094 2.878906s-.195313 2.449218-1.039063 3.347656c-10.464844 11.144531-30.578125 19.941406-53.804687 23.523438-5.773438.886718-11.460938 1.414062-17.015626 1.578124 10.21875 8.375 17.554688 18.117188 19.964844 26.679688.335938 1.183594.105469 2.457031-.621094 3.449219-.730468.992187-1.875 1.59375-3.101562 1.632812-9.957031.296875-23.304688-4.867187-35.578125-13.859375-8.734375-6.398437-15.761719-13.828125-20.085937-21.109375-4.324219 7.28125-11.355469 14.714844-20.085938 21.109375-11.898438 8.734375-24.789062 13.875-34.6875 13.875zm28.460938-40.109375c1.726562 0 3.273437 1.109375 3.808593 2.773438.566407 1.773437-.160156 3.703125-1.757812 4.660156-2.175781 1.300781-4.347657 2.738281-6.449219 4.28125-8.253906 6.050781-14.917969 13.230469-18.554688 19.796875 7.363282-1.488281 16.214844-5.679688 24.46875-11.730469 9.917969-7.265625 17.546876-16.164062 20.402344-23.796875.339844-.90625.996094-1.660156 1.847656-2.121094l.351563-.179687c.742187-.414063 1.722656-.644531 2.558594-.546875.015625 0 .035156.003906.054687.003906.59375.046875 1.195313.207032 1.683594.480469l.476562.242187c.851563.460938 1.507813 1.214844 1.847657 2.121094 2.855469 7.632813 10.484375 16.53125 20.402343 23.796875 8.253907 6.050781 17.109376 10.242188 24.464844 11.730469-3.632812-6.570312-10.296875-13.75-18.554687-19.800781-2.089844-1.53125-4.261719-2.972657-6.445313-4.277344-1.597656-.957031-2.324218-2.886719-1.757812-4.660156.570312-1.769531 2.304687-2.902344 4.140625-2.761719 8.917969.742188 18.792969.339844 28.554687-1.164062 18.347656-2.832032 34.929688-9.261719 44.988282-17.257813-12-4.589844-29.75-5.730469-48.097657-2.902344-2.242187.347657-4.550781.769531-7.0625 1.296875-1.824219.382813-3.675781-.550781-4.453125-2.246094-.78125-1.699218-.285156-3.707031 1.199219-4.84375 5.570313-4.277343 10.984375-9.035156 16.089844-14.140624 17.15625-17.15625 29.519531-36.878907 33.394531-52.90625-16.027344 3.875-35.75 16.238281-52.90625 33.394531-6.703125 6.703125-12.722656 13.84375-17.902344 21.222656-1.105468 1.578125-3.171875 2.140625-4.929687 1.34375-1.753907-.796875-2.691407-2.726563-2.226563-4.597656 3.523438-14.273438 5.382813-30.484375 5.382813-46.878907 0-32-7.078125-61.898437-18.695313-79.890624-11.617187 17.992187-18.695312 47.890624-18.695312 79.890624 0 16.394532 1.863281 32.605469 5.382812 46.875.460938 1.871094-.476562 3.804688-2.226562 4.601563-1.753906.792969-3.828125.230469-4.933594-1.34375-5.175781-7.382813-11.199219-14.523437-17.898438-21.222656-17.15625-17.15625-36.878906-29.519531-52.90625-33.394531 3.875 16.027343 16.238282 35.75 33.394532 52.90625 5.105468 5.105468 10.519531 9.863281 16.089844 14.140624 1.480468 1.136719 1.976562 3.144532 1.199218 4.84375-.78125 1.695313-2.632812 2.628907-4.453125 2.246094-2.515625-.527344-4.828125-.953125-7.0625-1.296875-18.347656-2.828125-36.101562-1.6875-48.097656 2.902344 10.058594 7.996094 26.640625 14.425781 44.988281 17.257813 9.757813 1.503906 19.632813 1.90625 28.554688 1.164062.117187-.007812.230468-.011719.339844-.011719zm82.15625 2.800781h.019531zm0 0" fill="#690589"/><path d="m415.484375 266.027344h-121.761719c-8.753906 0-15.851562-7.097656-15.851562-15.855469 0-8.753906 7.097656-15.851563 15.851562-15.851563h121.761719c8.753906 0 15.851563 7.097657 15.851563 15.851563 0 8.757813-7.097657 15.855469-15.851563 15.855469zm0 0" fill="#fcc24c"/><path d="m383.035156 377.089844h-56.867187c-9.703125 0-18.015625-6.945313-19.738281-16.496094l-17.078126-94.570312h130.5l-17.078124 94.570312c-1.722657 9.550781-10.035157 16.496094-19.738282 16.496094zm0 0" fill="#fcc24c"/><path d="m401.179688 266.027344-17.078126 94.570312c-1.726562 9.546875-10.039062 16.492188-19.738281 16.492188h18.671875c9.703125 0 18.015625-6.941406 19.738282-16.492188l17.082031-94.570312zm0 0" fill="#dea42e"/><path d="m308.027344 266.027344 17.078125 94.570312c1.726562 9.546875 10.035156 16.492188 19.738281 16.492188h-18.671875c-9.703125 0-18.015625-6.941406-19.738281-16.492188l-17.082032-94.570312zm0 0" fill="#fce06a"/><path d="m415.484375 234.324219h-18.675781c8.753906 0 15.855468 7.097656 15.855468 15.851562 0 8.753907-7.097656 15.851563-15.855468 15.851563h18.675781c8.753906 0 15.851563-7.097656 15.851563-15.851563 0-8.753906-7.097657-15.851562-15.851563-15.851562zm0 0" fill="#dea42e"/><path d="m293.722656 266.027344h18.671875c-8.753906 0-15.851562-7.097656-15.851562-15.855469 0-8.753906 7.097656-15.851563 15.851562-15.851563h-18.671875c-8.753906 0-15.851562 7.097657-15.851562 15.851563 0 8.757813 7.097656 15.855469 15.851562 15.855469zm0 0" fill="#fce06a"/><path d="m415.480469 270.027344h-121.757813c-10.945312 0-19.851562-8.90625-19.851562-19.851563 0-10.945312 8.90625-19.851562 19.851562-19.851562h121.757813c10.949219 0 19.855469 8.90625 19.855469 19.851562 0 10.945313-8.90625 19.851563-19.855469 19.851563zm-121.757813-31.703125c-6.535156 0-11.851562 5.316406-11.851562 11.851562 0 6.535157 5.316406 11.851563 11.851562 11.851563h121.757813c6.539062 0 11.855469-5.316406 11.855469-11.851563 0-6.535156-5.316407-11.851562-11.855469-11.851562zm0 0" fill="#690589"/><path d="m383.039062 381.089844h-56.867187c-11.648437 0-21.609375-8.320313-23.675781-19.78125l-17.078125-94.574219c-.210938-1.164063.105469-2.363281.863281-3.273437.761719-.910157 1.886719-1.4375 3.070312-1.4375h130.503907c1.183593 0 2.308593.527343 3.070312 1.4375.757813.910156 1.074219 2.109374.863281 3.273437l-17.078124 94.574219c-2.070313 11.464844-12.023438 19.78125-23.671876 19.78125zm-88.902343-111.0625 16.226562 89.859375c1.382813 7.652343 8.03125 13.203125 15.804688 13.203125h56.867187c7.773438 0 14.421875-5.550782 15.804688-13.203125l16.222656-89.859375zm0 0" fill="#690589"/><path d="m241.652344 341.300781c-.613282 0-1.230469-.140625-1.796875-.425781-1.351563-.679688-2.203125-2.0625-2.203125-3.574219v-10.820312h-48.40625c-2.207032 0-4-1.792969-4-4v-22.160157c0-2.207031 1.792968-4 4-4h48.40625v-10.820312c0-1.511719.851562-2.890625 2.203125-3.574219 1.34375-.675781 2.960937-.542969 4.179687.355469l35.03125 25.898438c1.019532.753906 1.621094 1.949218 1.621094 3.21875 0 1.265624-.601562 2.460937-1.625 3.214843l-35.027344 25.898438c-.703125.527343-1.539062.789062-2.382812.789062zm-48.40625-22.820312h48.40625c2.210937 0 4 1.792969 4 4v6.890625l24.304687-17.96875-24.304687-17.96875v6.890625c0 2.210937-1.789063 4-4 4h-48.40625zm0 0" fill="#690589"/></svg>