<svg height="503pt" viewBox="-124 0 503 503.9155" width="503pt" xmlns="http://www.w3.org/2000/svg"><path d="m241.074219 337.597656c0-62.136718-50.375-112.511718-112.511719-112.511718s-112.511719 50.375-112.511719 112.511718zm0 0" fill="#fcc24c"/><path d="m128.5625 225.085938c-3.371094 0-6.703125.175781-10 .464843 57.449219 5.066407 102.511719 53.28125 102.511719 112.046875h20c0-62.140625-50.375-112.511718-112.511719-112.511718zm0 0" fill="#dea42e"/><path d="m128.5625 225.085938c3.371094 0 6.703125.175781 10 .464843-57.449219 5.066407-102.511719 53.28125-102.511719 112.046875h-20c0-62.140625 50.375-112.511718 112.511719-112.511718zm0 0" fill="#fce06a"/><path d="m153.117188 282.558594c12.691406 12.691406 33.269531 12.691406 45.960937 0l16.402344-16.402344c-20.636719-25.078125-51.90625-41.070312-86.917969-41.070312-34.574219 0-65.488281 15.609374-86.128906 40.144531l18.050781 18.050781c12.6875 12.691406 33.265625 12.691406 45.957031 0l.722656-.722656c12.6875-12.691406 33.265626-12.691406 45.953126 0zm0 0" fill="#7bac51"/><path d="m211.171875 499.914062h-165.222656c-11.464844 0-21.183594-8.4375-22.792969-19.789062l-18.597656-131.125c-.855469-6.019531 3.816406-11.402344 9.898437-11.402344h228.210938c6.082031 0 10.753906 5.382813 9.902343 11.402344l-18.597656 131.125c-1.613281 11.351562-11.332031 19.789062-22.800781 19.789062zm0 0" fill="#ff4397"/><path d="m234.183594 337.597656-20.214844 142.527344c-1.609375 11.351562-11.328125 19.789062-22.796875 19.789062h20c11.46875 0 21.1875-8.4375 22.796875-19.789062l18.597656-131.125c.855469-6.019531-3.820312-11.402344-9.902344-11.402344zm0 0" fill="#e12579"/><path d="m22.9375 337.597656 20.21875 142.527344c1.609375 11.351562 11.328125 19.789062 22.792969 19.789062h-20c-11.464844 0-21.183594-8.4375-22.792969-19.789062l-18.597656-131.125c-.855469-6.019531 3.816406-11.402344 9.898437-11.402344zm0 0" fill="#ff61b5"/><g fill="#690589"><path d="m211.175781 503.914062h-165.226562c-13.375 0-24.875-9.984374-26.753907-23.226562l-18.597656-131.125c-.5703122-4.019531.628906-8.078125 3.289063-11.144531 2.660156-3.0625 6.515625-4.820313 10.570312-4.820313h228.210938c4.058593 0 7.910156 1.757813 10.570312 4.820313 2.660157 3.066406 3.859375 7.125 3.292969 11.144531l-18.601562 131.121094c-1.875 13.246094-13.378907 23.230468-26.753907 23.230468zm-196.71875-162.316406c-1.761719 0-3.371093.734375-4.527343 2.066406-1.160157 1.332032-1.660157 3.03125-1.414063 4.777344l18.601563 131.121094c1.320312 9.324219 9.417968 16.355469 18.832031 16.355469h165.222656c9.417969 0 17.515625-7.03125 18.835937-16.351563l18.597657-131.125c.25-1.746094-.25-3.445312-1.410157-4.777344-1.15625-1.332031-2.765624-2.066406-4.53125-2.066406zm0 0"/><path d="m25.382812 385.917969c-1.960937 0-3.671874-1.441407-3.957031-3.4375l-3.402343-24c-.3125-2.1875 1.210937-4.214844 3.398437-4.523438 2.191406-.308593 4.210937 1.210938 4.519531 3.394531l3.40625 24c.308594 2.191407-1.210937 4.214844-3.398437 4.527344-.191407.027344-.378907.039063-.566407.039063zm0 0"/><path d="m128.5625 480.84375c-2.207031 0-4-1.792969-4-4v-116.445312c0-2.207032 1.792969-4 4-4s4 1.792968 4 4v116.445312c0 2.207031-1.792969 4-4 4zm0 0"/><path d="m191.601562 480.84375c-.105468 0-.207031-.003906-.316406-.011719-2.203125-.175781-3.847656-2.101562-3.675781-4.300781l9.210937-116.445312c.171876-2.203126 2.097657-3.832032 4.300782-3.675782 2.203125.175782 3.847656 2.101563 3.671875 4.304688l-9.207031 116.441406c-.164063 2.097656-1.917969 3.6875-3.984376 3.6875zm0 0"/><path d="m65.523438 480.84375c-2.066407 0-3.820313-1.589844-3.984376-3.6875l-9.207031-116.441406c-.175781-2.203125 1.46875-4.128906 3.671875-4.304688 2.203125-.15625 4.128906 1.472656 4.300782 3.675782l9.207031 116.445312c.175781 2.199219-1.46875 4.125-3.671875 4.300781-.105469.007813-.210938.011719-.316406.011719zm0 0"/><path d="m128.5625 250.179688c-2.207031 0-4-1.789063-4-4v-69.84375c0-2.207032 1.792969-4 4-4s4 1.792968 4 4v69.84375c0 2.210937-1.792969 4-4 4zm0 0"/></g><path d="m185.601562 187.074219c23.433594-3.613281 42.992188-12.535157 52.621094-22.792969-12.273437-6.878906-33.605468-9.496094-57.039062-5.882812-2.527344.390624-5 .851562-7.429688 1.359374 5.679688-4.363281 11.347656-9.304687 16.839844-14.796874 21.015625-21.015626 34.175781-44.527344 36.3125-62.03125-17.503906 2.136718-41.011719 15.296874-62.03125 36.3125-7.226562 7.230468-13.503906 14.753906-18.742188 22.230468 3.578126-14.523437 5.617188-31.171875 5.617188-48.878906 0-37.902344-9.328125-70.96875-23.1875-88.679688-13.859375 17.710938-23.1875 50.777344-23.1875 88.679688 0 17.707031 2.039062 34.355469 5.621094 48.878906-5.242188-7.476562-11.515625-15-18.746094-22.230468-21.019531-21.011719-44.527344-34.175782-62.03125-36.3125 2.132812 17.503906 15.296875 41.015624 36.3125 62.03125 5.492188 5.496093 11.15625 10.4375 16.839844 14.800781-2.429688-.507813-4.902344-.972657-7.429688-1.359375-23.433594-3.613282-44.769531-1-57.039062 5.882812 9.628906 10.253906 29.183594 19.175782 52.617187 22.789063 10.710938 1.652343 20.96875 1.988281 30.136719 1.226562-2.304688 1.378907-4.617188 2.910157-6.90625 4.585938-12.125 8.886719-20.515625 19.621093-22.933594 28.207031 8.914063.285156 21.683594-4.484375 33.808594-13.371094 11.191406-8.199218 19.1875-17.972656 22.257812-26.179687.179688-.097657.375-.1875.550782-.285157.042968.003907.085937.015626.128906.019532.039062-.003906.082031-.015625.125-.019532.175781.097657.371094.1875.550781.285157 3.070313 8.207031 11.070313 17.980469 22.257813 26.179687 12.125 8.886719 24.894531 13.65625 33.8125 13.371094-2.417969-8.585938-10.8125-19.320312-22.9375-28.207031-2.289063-1.679688-4.601563-3.210938-6.90625-4.585938 9.171875.761719 19.429687.425781 30.136718-1.226562zm0 0" fill="#7bac51"/><path d="m72.582031 225.109375c-.300781 0-.597656-.007813-.890625-.015625-1.230468-.039062-2.375-.640625-3.101562-1.632812-.726563-.992188-.957032-2.265626-.621094-3.449219 2.472656-8.785157 10.03125-18.785157 20.554688-27.367188-5.75-.15625-11.632813-.695312-17.609376-1.617187-23.714843-3.65625-44.246093-12.632813-54.925781-24.007813-.839843-.898437-1.222656-2.132812-1.039062-3.347656.191406-1.214844.925781-2.277344 2-2.878906 12.300781-6.894531 31.683593-9.488281 52.796875-7.238281-2.054688-1.871094-4.070313-3.792969-6.042969-5.765626-21.109375-21.109374-35.113281-45.175781-37.457031-64.375-.148438-1.21875.273437-2.441406 1.144531-3.3125.867187-.871093 2.085937-1.289062 3.308594-1.140624 19.199219 2.34375 43.265625 16.347656 64.375 37.457031 3.054687 3.054687 5.980469 6.199219 8.757812 9.40625-1.621093-10.667969-2.457031-21.914063-2.457031-33.226563 0-37.835937 8.984375-71.90625 24.039062-91.144531 1.515626-1.9375 4.785157-1.9375 6.296876 0 15.054687 19.238281 24.042968 53.308594 24.042968 91.144531 0 11.3125-.839844 22.558594-2.460937 33.230469 2.78125-3.210937 5.703125-6.355469 8.757812-9.410156 21.113281-21.109375 45.179688-35.113281 64.375-37.457031 1.226563-.15625 2.445313.269531 3.3125 1.140624.871094.871094 1.292969 2.09375 1.144531 3.3125-2.347656 19.199219-16.347656 43.261719-37.460937 64.378907-1.972656 1.96875-3.988281 3.894531-6.039063 5.765625 21.109376-2.257813 40.492188.339844 52.792969 7.238281 1.074219.601563 1.8125 1.660156 2 2.875s-.195312 2.453125-1.039062 3.351563c-10.679688 11.375-31.210938 20.347656-54.925781 24.003906-5.972657.921875-11.863282 1.460937-17.613282 1.621094 10.523438 8.578124 18.085938 18.578124 20.558594 27.363281.332031 1.1875.101562 2.457031-.625 3.449219-.726562.996093-1.871094 1.597656-3.101562 1.632812-10.28125.300781-23.777344-4.964844-36.300782-14.140625-8.960937-6.570313-16.164062-14.203125-20.570312-21.671875-4.40625 7.46875-11.609375 15.101562-20.570313 21.671875-12.160156 8.910156-25.3125 14.15625-35.40625 14.15625zm29.078125-40.808594c1.726563 0 3.273438 1.109375 3.808594 2.777344.566406 1.769531-.160156 3.703125-1.757812 4.65625-2.230469 1.332031-4.449219 2.804687-6.59375 4.375-8.511719 6.238281-15.367188 13.652344-19.070313 20.421875 7.570313-1.492188 16.703125-5.796875 25.214844-12.039062 10.152343-7.4375 17.957031-16.539063 20.878906-24.355469.339844-.917969 1.007813-1.675781 1.875-2.132813l.328125-.167968c.617188-.339844 1.433594-.574219 2.164062-.578126.742188-.023437 1.472657.136719 2.117188.496094l.5.253906c.863281.457032 1.523438 1.214844 1.867188 2.128907 2.921874 7.816406 10.726562 16.917969 20.875 24.355469 8.511718 6.238281 17.644531 10.542968 25.214843 12.039062-3.703125-6.769531-10.558593-14.183594-19.074219-20.421875-2.144531-1.574219-4.363281-3.046875-6.589843-4.375-1.597657-.957031-2.324219-2.886719-1.757813-4.65625.570313-1.773437 2.238282-2.9375 4.140625-2.765625 9.121094.757812 19.21875.34375 29.195313-1.191406 18.832031-2.90625 35.851562-9.527344 46.128906-17.742188-12.285156-4.742187-30.507812-5.929687-49.332031-3.027344-2.292969.355469-4.65625.789063-7.21875 1.324219-1.828125.371094-3.675781-.550781-4.457031-2.25-.777344-1.695312-.28125-3.703125 1.203124-4.839843 5.695313-4.375 11.230469-9.238282 16.449219-14.453126 17.585938-17.589843 30.246094-37.824218 34.175781-54.238281-16.414062 3.929688-36.644531 16.589844-54.238281 34.175781-6.851562 6.855469-13.007812 14.15625-18.296875 21.699219-1.105468 1.574219-3.171875 2.144531-4.929687 1.34375-1.753907-.796875-2.691407-2.726562-2.226563-4.597656 3.597656-14.601563 5.503906-31.175781 5.503906-47.921875 0-32.773438-7.269531-63.394531-19.191406-81.785156-11.917968 18.386718-19.1875 49.011718-19.1875 81.785156 0 16.753906 1.902344 33.324219 5.503906 47.921875.457032 1.871094-.476562 3.800781-2.230468 4.597656-1.75.800781-3.824219.230469-4.929688-1.34375-5.289062-7.542969-11.445312-14.84375-18.296875-21.699219-17.589843-17.589843-37.820312-30.25-54.238281-34.175781 3.925781 16.414063 16.589844 36.648438 34.175781 54.238281 5.214844 5.210938 10.746094 10.074219 16.449219 14.453126 1.480469 1.136718 1.976562 3.144531 1.199219 4.84375-.777344 1.695312-2.621094 2.621093-4.453125 2.246093-2.5625-.539062-4.925782-.96875-7.222656-1.324219-18.828126-2.90625-37.050782-1.71875-49.328126 3.027344 10.277344 8.214844 27.296876 14.835938 46.128907 17.742188 9.972656 1.535156 20.070312 1.957031 29.195312 1.191406.105469-.007812.21875-.011719.328125-.011719zm0 0" fill="#690589"/><path d="m241.074219 341.597656h-225.023438c-2.207031 0-4-1.792968-4-4 0-64.246094 52.265625-116.511718 116.511719-116.511718s116.511719 52.265624 116.511719 116.511718c0 2.207032-1.792969 4-4 4zm-220.953125-8h216.882812c-2.113281-57.984375-49.945312-104.511718-108.441406-104.511718-58.492188 0-106.324219 46.527343-108.441406 104.511718zm0 0" fill="#690589"/><path d="m119.589844 225.480469c-.316406.023437-.632813.054687-.945313.082031 35.921875 3.191406 66.988281 23.253906 85.214844 52.214844l11.621094-11.621094c-1.253907-1.523438-2.550781-3.011719-3.882813-4.464844-.265625-.292968-.542968-.570312-.816406-.859375-1.042969-1.117187-2.105469-2.222656-3.195312-3.300781-.4375-.433594-.898438-.855469-1.34375-1.28125-.949219-.90625-1.902344-1.800781-2.882813-2.671875-.519531-.460937-1.050781-.914063-1.582031-1.371094-.941406-.804687-1.890625-1.601562-2.855469-2.375-.570313-.457031-1.140625-.90625-1.71875-1.347656-.964844-.75-1.949219-1.476563-2.941406-2.191406-.585938-.425781-1.175781-.847657-1.773438-1.261719-1.03125-.714844-2.078125-1.402344-3.132812-2.082031-.578125-.375-1.15625-.753907-1.742188-1.117188-1.160156-.714843-2.339843-1.402343-3.527343-2.074219-.5-.285156-.996094-.585937-1.503907-.867187-1.667969-.914063-3.359375-1.792969-5.082031-2.628906-.03125-.015625-.0625-.03125-.097656-.046875-1.765625-.851563-3.5625-1.65625-5.378906-2.417969-.511719-.214844-1.039063-.40625-1.554688-.613281-1.296875-.519532-2.597656-1.03125-3.914062-1.503906-.683594-.246094-1.378907-.464844-2.066407-.699219-1.175781-.398438-2.355469-.785157-3.550781-1.144531-.757812-.226563-1.519531-.4375-2.28125-.644532-1.152344-.320312-2.308594-.625-3.476562-.910156-.789063-.191406-1.585938-.375-2.386719-.550781-1.167969-.253907-2.34375-.488281-3.523438-.707031-.800781-.148438-1.601562-.300782-2.410156-.433594-1.21875-.199219-2.453125-.367188-3.6875-.527344-.777344-.101562-1.550781-.210938-2.332031-.296875-1.359375-.144531-2.730469-.25-4.101563-.351563-.667969-.046874-1.328125-.113281-1.996093-.152343-2.050782-.109375-4.105469-.175781-6.183594-.175781-1.828125 0-3.644532.070312-5.453125.15625-1.175781.058593-2.347657.144531-3.515625.238281zm0 0" fill="#5d8e33"/><path d="m138.328125 225.480469c.316406.023437.628906.054687.941406.082031-35.917969 3.191406-66.988281 23.253906-85.210937 52.214844l-11.625-11.621094c1.253906-1.523438 2.550781-3.011719 3.882812-4.464844.265625-.292968.546875-.570312.816406-.859375 1.046876-1.117187 2.105469-2.222656 3.195313-3.300781.441406-.433594.898437-.855469 1.347656-1.28125.945313-.90625 1.902344-1.800781 2.878907-2.671875.523437-.460937 1.054687-.914063 1.585937-1.371094.9375-.804687 1.886719-1.601562 2.855469-2.375.566406-.457031 1.140625-.90625 1.714844-1.347656.96875-.75 1.949218-1.476563 2.941406-2.191406.589844-.425781 1.179687-.847657 1.777344-1.261719 1.027343-.714844 2.074218-1.402344 3.128906-2.082031.582031-.375 1.15625-.753907 1.746094-1.117188 1.15625-.714843 2.339843-1.402343 3.523437-2.074219.503906-.285156.996094-.585937 1.503906-.867187 1.671875-.914063 3.363281-1.792969 5.082031-2.628906.03125-.015625.066407-.03125.097657-.046875 1.765625-.851563 3.5625-1.65625 5.378906-2.417969.515625-.214844 1.039063-.40625 1.558594-.613281 1.296875-.519532 2.59375-1.03125 3.914062-1.503906.683594-.246094 1.378907-.464844 2.066407-.699219 1.175781-.398438 2.355468-.785157 3.550781-1.144531.753906-.226563 1.519531-.4375 2.28125-.644532 1.152343-.320312 2.308593-.625 3.476562-.910156.789063-.191406 1.585938-.375 2.386719-.550781 1.167969-.253907 2.34375-.488281 3.523438-.707031.800781-.148438 1.601562-.300782 2.410156-.433594 1.21875-.199219 2.453125-.367188 3.6875-.527344.777344-.101562 1.550781-.210938 2.332031-.296875 1.359375-.144531 2.730469-.25 4.101563-.351563.667968-.046874 1.328124-.113281 1.996093-.152343 2.050781-.109375 4.105469-.175781 6.183594-.175781 1.828125 0 3.644531.070312 5.453125.15625 1.171875.058593 2.34375.144531 3.515625.238281zm0 0" fill="#99ca6f"/><path d="m83.460938 296.78125c-9.347657 0-18.691407-3.554688-25.804688-10.671875l-18.050781-18.050781c-1.464844-1.464844-1.570313-3.8125-.234375-5.402344 22.222656-26.417969 54.730468-41.570312 89.191406-41.570312 34.960938 0 67.769531 15.5 90.007812 42.53125 1.304688 1.589843 1.195313 3.914062-.261718 5.367187l-16.402344 16.40625c-6.894531 6.894531-16.058594 10.6875-25.808594 10.6875-9.746094 0-18.914062-3.792969-25.804687-10.6875-11.113281-11.109375-29.1875-11.109375-40.300781 0l-.71875.71875c-7.117188 7.113281-16.464844 10.671875-25.8125 10.671875zm-35.558594-31.742188 15.410156 15.414063c11.113281 11.109375 29.1875 11.105469 40.300781 0l.71875-.722656c14.230469-14.230469 37.386719-14.230469 51.617188 0 5.382812 5.382812 12.539062 8.34375 20.148437 8.34375 7.613282 0 14.769532-2.960938 20.152344-8.34375l13.792969-13.796875c-20.636719-23.460938-50.128907-36.847656-81.480469-36.847656-30.871094 0-60.0625 13.058593-80.660156 35.953124zm0 0" fill="#690589"/></svg>