<svg height="504pt" viewBox="-2 0 504 504" width="504pt" xmlns="http://www.w3.org/2000/svg"><path d="m304.949219 331.148438-28.300781-.035157-50.855469-.066406c.046875-.816406.128906-1.617187.128906-2.445313l.101563-79.652343-87.3125-.113281-.101563 79.652343c0 .828125.074219 1.632813.121094 2.445313l-50.855469-.066406-28.304688-.035157c-30.574218-.039062-55.386718 24.714844-55.429687 55.289063l-.144531 113.421875 356.097656.457031.144531-113.421875c.039063-30.574219-24.714843-55.390625-55.289062-55.429687zm0 0" fill="#7bac51"/><path d="m225.835938 331.046875.1875-82.097656-87.3125-.109375-.019532 82.097656-31.066406-.042969-.003906 3.304688c-.054688 41.222656 33.320312 74.683593 74.542968 74.738281 41.222657.050781 74.683594-33.324219 74.734376-74.546875l.003906-3.300781zm0 0" fill="#e18152"/><path d="m304.949219 331.148438-19.417969-.023438c30.574219.039062 55.324219 24.855469 55.285156 55.429688l-.144531 113.421874 19.421875.023438.144531-113.421875c.039063-30.574219-24.714843-55.390625-55.289062-55.429687zm0 0" fill="#5d8e33"/><path d="m59.574219 330.835938 19.421875.023437c-30.574219-.042969-55.390625 24.710937-55.429688 55.285156l-.144531 113.421875-19.421875-.023437.144531-113.421875c.042969-30.574219 24.859375-55.324219 55.429688-55.285156zm0 0" fill="#99ca6f"/><path d="m360.09375 504c-.003906 0-.003906 0-.007812 0l-356.09375-.457031c-1.058594 0-2.074219-.421875-2.824219-1.175781-.75-.75-1.17187525-1.765626-1.167969-2.828126l.144531-113.425781c.019531-15.851562 6.214844-30.75 17.441407-41.949219 11.207031-11.179687 26.089843-17.332031 41.917968-17.332031h.074219l75.035156.097657.097657-78.101563c.003906-2.207031 1.792968-3.992187 4-3.992187h.007812l87.3125.113281c2.207031 0 3.996094 1.792969 3.992188 4.003906l-.097657 78.097656 75.03125.097657c32.730469.042968 59.324219 26.707031 59.28125 59.4375l-.144531 113.421874c-.003906 2.203126-1.792969 3.992188-4 3.992188zm-352.085938-8.449219 348.089844.441407.140625-109.421876c.039063-28.316406-22.972656-51.382812-51.292969-51.421874l-79.15625-.101563c-1.101562-.003906-2.152343-.457031-2.910156-1.261719-.753906-.800781-1.144531-1.878906-1.078125-2.980468l.050781-.722657c.03125-.488281.070313-.980469.070313-1.476562l.097656-75.660157-79.3125-.101562-.097656 75.652344c0 .503906.035156.992187.070313 1.484375l.046874.722656c.0625 1.101563-.332031 2.179687-1.089843 2.980469-.757813.796875-1.832031 1.183594-2.910157 1.25l-79.160156-.101563c-.019531 0-.042968 0-.0625 0-28.292968 0-51.320312 22.992188-51.359375 51.292969zm0 0" fill="#690589"/><path d="m19.664062 413.792969c-2.207031 0-4-1.792969-4-4v-24c0-2.207031 1.792969-4 4-4 2.210938 0 4 1.792969 4 4v24c0 2.210937-1.789062 4-4 4zm0 0" fill="#690589"/><path d="m182.261719 412.9375c-.035157 0-.070313 0-.105469 0-21.003906-.03125-40.742188-8.234375-55.578125-23.105469-14.832031-14.871093-22.984375-34.628906-22.957031-55.636719l.003906-3.300781c0-1.0625.421875-2.078125 1.175781-2.828125.75-.75 1.765625-1.167968 2.824219-1.167968h.003906l27.0625.035156.019532-78.09375c0-1.0625.421874-2.078125 1.175781-2.828125.75-.75 1.765625-1.171875 2.824219-1.171875h.007812l87.3125.113281c1.058594 0 2.078125.421875 2.828125 1.175781.746094.75 1.167969 1.769532 1.164063 2.832032l-.179688 78.09375 27.0625.039062c2.210938 0 3.996094 1.792969 3.996094 4.003906l-.003906 3.300782c-.027344 21.003906-8.234376 40.742187-23.105469 55.578124-14.847657 14.808594-34.566407 22.960938-55.53125 22.960938zm-70.640625-78.035156c.328125 38.628906 31.828125 69.984375 70.546875 70.035156h.09375c18.835937 0 36.542969-7.324219 49.882812-20.628906 13.195313-13.160156 20.546875-30.617188 20.75-49.222656l-27.066406-.039063c-1.058594 0-2.078125-.421875-2.828125-1.175781-.746094-.75-1.167969-1.769532-1.164062-2.832032l.179687-78.09375-79.304687-.101562-.019532 78.09375c0 1.058594-.421875 2.078125-1.171875 2.828125s-1.765625 1.171875-2.828125 1.171875h-.003906zm0 0" fill="#690589"/><path d="m485.742188 4h-147.210938c-5.214844 0-9.441406 4.226562-9.441406 9.441406v127.820313c0 5.214843 4.226562 9.441406 9.441406 9.441406h59.085938c8.210937 22.421875-14.183594 35.675781-14.183594 35.675781 32.710937 0 38.707031-25.316406 39.792968-35.675781h62.515626c5.214843 0 9.441406-4.226563 9.441406-9.441406v-127.820313c0-5.214844-4.226563-9.441406-9.441406-9.441406zm0 0" fill="#f4efed"/><path d="m495.183594 141.265625v-127.824219c0-5.214844-4.226563-9.441406-9.441406-9.441406h-11.332032c5.214844 0 9.445313 4.226562 9.445313 9.441406v127.820313c0 5.214843-4.226563 9.441406-9.445313 9.441406h11.332032c5.214843 0 9.441406-4.226563 9.441406-9.4375zm0 0" fill="#d6d1cf"/><path d="m329.089844 13.441406v127.820313c0 5.214843 4.226562 9.441406 9.441406 9.441406h11.332031c-5.214843 0-9.441406-4.226563-9.441406-9.441406v-127.820313c0-5.214844 4.222656-9.441406 9.441406-9.441406h-11.332031c-5.214844 0-9.441406 4.226562-9.441406 9.441406zm0 0" fill="#fff"/><path d="m383.433594 190.378906c-1.804688 0-3.382813-1.203125-3.859375-2.941406-.476563-1.738281.269531-3.582031 1.820312-4.5.75-.453125 17.699219-10.84375 13.28125-28.234375h-56.144531c-7.410156 0-13.441406-6.03125-13.441406-13.441406v-127.820313c0-7.410156 6.03125-13.441406 13.441406-13.441406h147.210938c7.410156 0 13.441406 6.03125 13.441406 13.441406v127.824219c0 7.410156-6.03125 13.4375-13.441406 13.4375h-59.046876c-2.082031 11.675781-10.378906 35.675781-43.261718 35.675781zm-44.902344-182.378906c-3 0-5.441406 2.441406-5.441406 5.441406v127.824219c0 3 2.441406 5.4375 5.441406 5.4375h59.085938c1.675781 0 3.175781 1.050781 3.753906 2.625 4.796875 13.09375.367187 24.050781-5.71875 31.546875 17.957031-4.882812 22.546875-20.574219 23.597656-30.589844.210938-2.039062 1.933594-3.582031 3.976562-3.582031h62.515626c3 0 5.445312-2.441406 5.445312-5.441406v-127.820313c0-3-2.445312-5.441406-5.445312-5.441406zm0 0" fill="#690589"/><path d="m66.859375 160.074219-6.117187-77.898438c-1.636719-20.875 14.859374-38.71875 35.796874-38.71875v-3.550781c.003907-19.832031 16.078126-35.90625 35.910157-35.90625h165.480469l-14.277344 61.820312c13.355468 7.410157 20.730468 22.308594 18.53125 37.421876l-8.273438 56.832031zm0 0" fill="#fcc24c"/><path d="m114.765625 43.457031v-3.550781c0-19.832031 16.078125-35.90625 35.910156-35.90625h-18.226562c-19.832031 0-35.90625 16.074219-35.90625 35.90625v3.550781c-20.941407 0-37.4375 17.84375-35.800781 38.71875l6.117187 77.898438h18.226563l-6.117188-77.898438c-1.640625-20.875 14.855469-38.71875 35.796875-38.71875zm0 0" fill="#fce06a"/><path d="m283.652344 65.820312 14.277344-61.820312h-18.226563l-14.273437 61.820312c13.355468 7.410157 20.730468 22.308594 18.53125 37.421876l-8.273438 56.832031h18.222656l8.273438-56.832031c2.199218-15.113282-5.175782-30.011719-18.53125-37.421876zm0 0" fill="#dea42e"/><path d="m293.910156 164.074219h-227.050781c-2.089844 0-3.824219-1.605469-3.988281-3.6875l-6.117188-77.898438c-.867187-11.054687 2.953125-22.070312 10.484375-30.214843 6.621094-7.160157 15.671875-11.636719 25.300781-12.613282.136719-21.890625 17.988282-39.660156 39.910157-39.660156h165.480469c1.214843 0 2.371093.554688 3.128906 1.511719.757812.953125 1.042968 2.203125.765625 3.386719l-13.625 59c13.070312 8.613281 20.214843 24.277343 17.941406 39.917968l-8.269531 56.832032c-.285156 1.96875-1.972656 3.425781-3.960938 3.425781zm-223.355468-8h219.898437l7.773437-53.410157c1.949219-13.382812-4.6875-26.785156-16.515624-33.347656-1.558594-.867187-2.355469-2.660156-1.953126-4.398437l13.140626-56.917969h-160.449219c-17.59375 0-31.90625 14.3125-31.90625 31.90625v3.550781c0 2.207031-1.792969 4-4 4-9 0-17.320313 3.636719-23.429688 10.246094s-9.085937 15.1875-8.382812 24.160156zm0 0" fill="#690589"/><path d="m87.820312 144.886719h-6.734374c-17.421876 0-31.542969 14.125-31.542969 31.542969 0 17.421874 14.121093 31.542968 31.542969 31.542968h6.734374zm0 0" fill="#ffbd8e"/><path d="m283.332031 144.886719h-6.738281v63.085937h6.738281c17.421875 0 31.542969-14.121094 31.542969-31.542968 0-17.417969-14.121094-31.542969-31.542969-31.542969zm0 0" fill="#e18152"/><path d="m182.207031 305.230469c-52.128906 0-94.386719-42.804688-94.386719-95.609375v-66.191406c0-52.808594 42.257813-95.613282 94.386719-95.613282 52.128907 0 94.386719 42.804688 94.386719 95.613282v66.191406c0 52.804687-42.257812 95.609375-94.386719 95.609375zm0 0" fill="#ff9f70"/><path d="m182.207031 47.816406c-3.628906 0-7.203125.226563-10.726562.632813 47.074219 5.394531 83.660156 45.847656 83.660156 94.980469v66.191406c0 49.128906-36.585937 89.582031-83.660156 94.980468 3.523437.402344 7.097656.628907 10.726562.628907 52.128907 0 94.386719-42.804688 94.386719-95.609375v-66.191406c0-52.804688-42.257812-95.613282-94.386719-95.613282zm0 0" fill="#e18152"/><path d="m182.207031 47.816406c3.628907 0 7.203125.226563 10.726563.632813-47.074219 5.394531-83.660156 45.847656-83.660156 94.980469v66.191406c0 49.128906 36.585937 89.582031 83.660156 94.980468-3.523438.402344-7.09375.628907-10.726563.628907-52.128906 0-94.386719-42.804688-94.386719-95.609375v-66.191406c0-52.804688 42.257813-95.613282 94.386719-95.613282zm0 0" fill="#ffbd8e"/><g fill="#690589"><path d="m182.207031 309.230469c-54.25 0-98.382812-44.683594-98.382812-99.609375v-66.191406c0-54.925782 44.132812-99.613282 98.382812-99.613282s98.386719 44.6875 98.386719 99.613282v66.191406c0 54.925781-44.136719 99.609375-98.386719 99.609375zm0-257.414063c-49.835937 0-90.382812 41.09375-90.382812 91.613282v66.191406c0 50.515625 40.546875 91.613281 90.382812 91.613281 49.839844 0 90.386719-41.097656 90.386719-91.613281v-66.191406c0-50.519532-40.546875-91.613282-90.386719-91.613282zm0 0"/><path d="m87.820312 211.972656h-6.738281c-19.597656 0-35.542969-15.945312-35.542969-35.542968 0-19.597657 15.945313-35.542969 35.542969-35.542969h6.738281c2.210938 0 4 1.792969 4 4v63.085937c0 2.210938-1.789062 4-4 4zm-6.738281-63.085937c-15.1875 0-27.542969 12.355469-27.542969 27.542969s12.355469 27.542968 27.542969 27.542968h2.738281v-55.085937zm0 0"/><path d="m283.332031 211.972656h-6.738281c-2.207031 0-4-1.792968-4-4v-63.085937c0-2.207031 1.792969-4 4-4h6.738281c19.597657 0 35.542969 15.949219 35.542969 35.542969 0 19.597656-15.945312 35.542968-35.542969 35.542968zm-2.738281-8h2.738281c15.1875 0 27.542969-12.355468 27.542969-27.542968s-12.355469-27.542969-27.542969-27.542969h-2.738281zm0 0"/><path d="m467.914062 34.515625h-111.554687c-2.210937 0-4-1.792969-4-4 0-2.210937 1.789063-4 4-4h111.554687c2.210938 0 4 1.789063 4 4 0 2.207031-1.789062 4-4 4zm0 0"/><path d="m467.914062 65.339844h-111.554687c-2.210937 0-4-1.792969-4-4 0-2.207032 1.789063-4 4-4h111.554687c2.210938 0 4 1.792968 4 4 0 2.207031-1.789062 4-4 4zm0 0"/><path d="m467.914062 96.167969h-111.554687c-2.210937 0-4-1.792969-4-4s1.789063-4 4-4h111.554687c2.210938 0 4 1.792969 4 4s-1.789062 4-4 4zm0 0"/><path d="m412.136719 126.992188h-55.78125c-2.207031 0-4-1.789063-4-4 0-2.207032 1.792969-4 4-4h55.78125c2.207031 0 4 1.792968 4 4 0 2.210937-1.789063 4-4 4zm0 0"/></g></svg>