<svg height="504pt" viewBox="0 -3 504 504" width="504pt" xmlns="http://www.w3.org/2000/svg"><path d="m285.347656 493.894531h-213.109375c-11.046875 0-20-8.953125-20-20v-217.804687c0-11.046875 8.953125-20 20-20h213.109375c11.046875 0 20 8.953125 20 20v217.804687c0 11.046875-8.953125 20-20 20zm0 0" fill="#ff4397"/><path d="m276.488281 236.089844h-195.390625c-15.941406 0-28.859375-12.917969-28.859375-28.859375 0-15.9375 12.921875-28.855469 28.859375-28.855469h195.394532c15.9375 0 28.855468 12.921875 28.855468 28.855469 0 15.941406-12.917968 28.859375-28.859375 28.859375zm0 0" fill="#f4efed"/><path d="m500 39.867188h-444.484375c-4.96875-7.769532-13.648437-12.933594-23.554687-12.933594-15.441407 0-27.960938 12.519531-27.960938 27.960937 0 15.445313 12.519531 27.964844 27.960938 27.964844 9.90625 0 18.585937-5.164063 23.554687-12.933594h444.484375zm0 0" fill="#7bac51"/><path d="m24 54.894531c0-11.921875 7.472656-22.070312 17.980469-26.09375-3.109375-1.199219-6.484375-1.867187-10.019531-1.867187-15.441407 0-27.960938 12.519531-27.960938 27.960937 0 15.445313 12.519531 27.964844 27.960938 27.964844 3.535156 0 6.910156-.667969 10.019531-1.871094-10.507813-4.019531-17.980469-14.171875-17.980469-26.09375zm0 0" fill="#99ca6f"/><path d="m285.347656 236.089844h-20c11.046875 0 20 8.953125 20 20v217.804687c0 11.046875-8.953125 20-20 20h20c11.046875 0 20-8.953125 20-20v-217.804687c0-11.046875-8.953125-20-20-20zm0 0" fill="#e12579"/><path d="m72.238281 493.894531h20c-11.046875 0-20-8.953125-20-20v-217.804687c0-11.046875 8.953125-20 20-20h-20c-11.046875 0-20 8.953125-20 20v217.804687c0 11.046875 8.953125 20 20 20zm0 0" fill="#ff61b5"/><path d="m52.238281 303.054688h253.109375v123.875h-253.109375zm0 0" fill="#fcc24c"/><path d="m285.347656 303.054688h20v123.875h-20zm0 0" fill="#dea42e"/><path d="m52.238281 303.054688h20v123.875h-20zm0 0" fill="#fce06a"/><path d="m276.488281 178.375h-20c15.9375 0 28.859375 12.921875 28.859375 28.855469 0 15.9375-12.921875 28.859375-28.859375 28.859375h20c15.9375 0 28.859375-12.921875 28.859375-28.859375 0-15.933594-12.917968-28.855469-28.859375-28.855469zm0 0" fill="#d6d1cf"/><path d="m81.097656 236.089844h20c-15.9375 0-28.859375-12.917969-28.859375-28.855469s12.917969-28.855469 28.859375-28.855469h-20c-15.9375 0-28.859375 12.917969-28.859375 28.855469s12.917969 28.855469 28.859375 28.855469zm0 0" fill="#fff"/><path d="m480 39.867188h20v30.058593h-20zm0 0" fill="#5d8e33"/><g fill="#690589"><path d="m31.960938 86.859375c-17.621094 0-31.960938-14.339844-31.960938-31.964844 0-17.621093 14.339844-31.960937 31.960938-31.960937 10.195312 0 19.625 4.792968 25.652343 12.933594h442.386719c2.207031 0 4 1.792968 4 4v30.058593c0 2.207031-1.792969 4-4 4h-442.382812c-6.027344 8.136719-15.460938 12.933594-25.65625 12.933594zm0-55.925781c-13.210938 0-23.960938 10.75-23.960938 23.960937 0 13.214844 10.75 23.964844 23.960938 23.964844 8.199218 0 15.746093-4.144531 20.183593-11.085937.734375-1.152344 2.003907-1.847657 3.371094-1.847657h440.484375v-22.058593h-440.484375c-1.367187 0-2.632813-.695313-3.371094-1.847657-4.4375-6.941406-11.984375-11.085937-20.183593-11.085937zm0 0"/><path d="m276.488281 240.089844h-195.390625c-18.121094 0-32.859375-14.738282-32.859375-32.859375 0-18.117188 14.738281-32.855469 32.859375-32.855469h195.390625c18.121094 0 32.859375 14.742188 32.859375 32.855469 0 18.117187-14.738281 32.859375-32.859375 32.859375zm-195.390625-57.714844c-13.710937 0-24.859375 11.152344-24.859375 24.855469 0 13.707031 11.148438 24.859375 24.859375 24.859375h195.390625c13.710938 0 24.859375-11.152344 24.859375-24.859375 0-13.703125-11.148437-24.855469-24.859375-24.855469zm0 0"/><path d="m285.347656 497.894531h-213.109375c-13.234375 0-24-10.765625-24-24v-217.804687c0-13.234375 10.765625-24 24-24h213.109375c13.234375 0 24 10.765625 24 24v217.804687c0 13.234375-10.765625 24-24 24zm-213.109375-257.804687c-8.824219 0-16 7.179687-16 16v217.804687c0 8.824219 7.175781 16 16 16h213.109375c8.824219 0 16-7.175781 16-16v-217.804687c0-8.820313-7.175781-16-16-16zm0 0"/><path d="m305.347656 430.929688h-253.109375c-2.207031 0-4-1.792969-4-4v-123.875c0-2.207032 1.792969-4 4-4h253.109375c2.207032 0 4 1.792968 4 4v123.875c0 2.207031-1.792968 4-4 4zm-249.109375-8h245.109375v-115.875h-245.109375zm0 0"/><path d="m68.238281 358.359375c-2.207031 0-4-1.792969-4-4v-24c0-2.210937 1.792969-4 4-4s4 1.789063 4 4v24c0 2.207031-1.789062 4-4 4zm0 0"/></g><path d="m104.152344 4c-10.582032 0-19.160156 8.578125-19.160156 19.15625v114.339844c0 10.582031 8.578124 19.160156 19.160156 19.160156 10.578125 0 19.15625-8.578125 19.15625-19.160156v-114.339844c0-10.578125-8.578125-19.15625-19.15625-19.15625zm0 0" fill="#fcc24c"/><path d="m219.101562 4c-10.578124 0-19.15625 8.578125-19.15625 19.15625v81.613281c0 10.582031 8.578126 19.160157 19.15625 19.160157 10.582032 0 19.160157-8.578126 19.160157-19.160157v-81.609375c0-10.582031-8.578125-19.160156-19.160157-19.160156zm0 0" fill="#fcc24c"/><path d="m96.992188 137.496094v-114.339844c0-8.480469 5.523437-15.664062 13.160156-18.183594-1.890625-.621094-3.902344-.972656-6-.972656-10.582032 0-19.160156 8.578125-19.160156 19.15625v114.339844c0 10.582031 8.578124 19.160156 19.160156 19.160156 2.097656 0 4.109375-.351562 6-.972656-7.640625-2.519532-13.160156-9.703125-13.160156-18.1875zm0 0" fill="#fce06a"/><path d="m142.46875 4c-10.582031 0-19.160156 8.578125-19.160156 19.15625v81.613281c0 10.582031 8.578125 19.160157 19.160156 19.160157 10.578125 0 19.15625-8.578126 19.15625-19.160157v-81.609375c0-10.582031-8.574219-19.160156-19.15625-19.160156zm0 0" fill="#fcc24c"/><path d="m180.785156 4c-10.582031 0-19.15625 8.578125-19.15625 19.15625v81.613281c0 10.582031 8.578125 19.160157 19.15625 19.160157 10.582032 0 19.160156-8.578126 19.160156-19.160157v-81.609375c0-10.582031-8.578124-19.160156-19.160156-19.160156zm0 0" fill="#fcc24c"/><path d="m219.101562 4c-2.097656 0-4.109374.351562-6 .972656 7.640626 2.519532 13.160157 9.703125 13.160157 18.183594v81.613281c0 8.484375-5.523438 15.667969-13.160157 18.1875 1.890626.621094 3.902344.972657 6 .972657 10.582032 0 19.160157-8.578126 19.160157-19.160157v-81.609375c0-10.582031-8.578125-19.160156-19.160157-19.160156zm0 0" fill="#dea42e"/><path d="m104.152344 160.65625c-12.769532 0-23.160156-10.386719-23.160156-23.160156v-114.339844c0-12.769531 10.390624-23.15625 23.160156-23.15625 12.769531 0 23.15625 10.386719 23.15625 23.15625v114.339844c0 12.773437-10.386719 23.160156-23.15625 23.160156zm0-152.65625c-8.359375 0-15.160156 6.800781-15.160156 15.15625v114.339844c0 8.359375 6.800781 15.160156 15.160156 15.160156s15.15625-6.800781 15.15625-15.160156v-114.339844c0-8.355469-6.796875-15.15625-15.15625-15.15625zm0 0" fill="#690589"/><path d="m142.46875 127.929688c-12.769531 0-23.160156-10.386719-23.160156-23.15625v-81.617188c0-12.769531 10.390625-23.15625 23.160156-23.15625s23.15625 10.386719 23.15625 23.15625v81.617188c0 12.769531-10.386719 23.15625-23.15625 23.15625zm0-119.929688c-8.359375 0-15.160156 6.800781-15.160156 15.15625v81.617188c0 8.355468 6.800781 15.15625 15.160156 15.15625 8.355469 0 15.15625-6.800782 15.15625-15.15625v-81.617188c0-8.355469-6.800781-15.15625-15.15625-15.15625zm0 0" fill="#690589"/><path d="m180.785156 127.929688c-12.769531 0-23.15625-10.386719-23.15625-23.15625v-81.617188c0-12.769531 10.386719-23.15625 23.15625-23.15625 12.769532 0 23.160156 10.386719 23.160156 23.15625v81.617188c0 12.769531-10.390624 23.15625-23.160156 23.15625zm0-119.929688c-8.355468 0-15.15625 6.800781-15.15625 15.15625v81.617188c0 8.355468 6.800782 15.15625 15.15625 15.15625 8.359375 0 15.160156-6.800782 15.160156-15.15625v-81.617188c0-8.355469-6.804687-15.15625-15.160156-15.15625zm0 0" fill="#690589"/><path d="m219.101562 127.929688c-12.769531 0-23.15625-10.386719-23.15625-23.15625v-81.617188c0-12.769531 10.386719-23.15625 23.15625-23.15625 12.769532 0 23.160157 10.386719 23.160157 23.15625v81.617188c0 12.769531-10.390625 23.15625-23.160157 23.15625zm0-119.929688c-8.359374 0-15.15625 6.800781-15.15625 15.15625v81.617188c0 8.355468 6.796876 15.15625 15.15625 15.15625 8.359376 0 15.160157-6.800782 15.160157-15.15625v-81.617188c0-8.355469-6.804688-15.15625-15.160157-15.15625zm0 0" fill="#690589"/></svg>