<svg height="503pt" viewBox="-57 0 503 503.9155" width="503pt" xmlns="http://www.w3.org/2000/svg"><path d="m253.039062 189.0625c23.6875-3.652344 43.457032-12.671875 53.191407-23.039062-12.40625-6.957032-33.972657-9.601563-57.660157-5.949219-2.554687.394531-5.054687.863281-7.511718 1.378906 5.746094-4.414063 11.472656-9.40625 17.023437-14.960937 21.246094-21.246094 34.550781-45.011719 36.710938-62.703126-17.695313 2.160157-41.460938 15.460938-62.707031 36.707032-7.304688 7.308594-13.648438 14.914062-18.949219 22.46875 3.621093-14.679688 5.679687-31.507813 5.679687-49.40625 0-38.316406-9.429687-71.742188-23.4375-89.644532-14.007812 17.902344-23.441406 51.332032-23.441406 89.644532 0 17.898437 2.058594 34.726562 5.679688 49.40625-5.296876-7.554688-11.640626-15.160156-18.949219-22.46875-21.242188-21.242188-45.007813-34.546875-62.699219-36.707032 2.160156 17.695313 15.464844 41.460938 36.707031 62.703126 5.554688 5.554687 11.277344 10.550781 17.023438 14.960937-2.457031-.511719-4.957031-.980469-7.507813-1.375-23.691406-3.652344-45.257812-1.007813-57.660156 5.945313 9.734375 10.367187 29.5 19.386718 53.1875 23.039062 10.828125 1.671875 21.195312 2.011719 30.464844 1.238281-2.328125 1.394531-4.664063 2.9375-6.980469 4.632813-12.257813 8.984375-20.742187 19.839844-23.183594 28.519531 9.011719.285156 21.917969-4.535156 34.175781-13.519531 11.3125-8.289063 19.394532-18.167969 22.5-26.464844.183594-.097656.378907-.1875.558594-.289062.042969.007812.085938.019531.128906.023437.039063-.007813.085938-.015625.125-.023437.179688.101562.378907.191406.558594.289062 3.105469 8.296875 11.1875 18.175781 22.5 26.464844 12.257813 8.984375 25.164063 13.804687 34.175782 13.519531-2.441407-8.679687-10.925782-19.535156-23.183594-28.519531-2.3125-1.695313-4.652344-3.238282-6.980469-4.632813 9.265625.769531 19.636719.429688 30.460937-1.238281zm0 0" fill="#7bac51"/><path d="m195.378906 217.734375c-2.207031 0-4-1.792969-4-4v-30.617187c0-2.210938 1.792969-4 4-4 2.207032 0 4 1.789062 4 4v30.617187c0 2.210937-1.792968 4-4 4zm0 0" fill="#690589"/><path d="m251.96875 227.464844c-10.195312 0-23.480469-5.300782-35.769531-14.304688-9.078125-6.65625-16.375-14.390625-20.820313-21.957031-4.445312 7.5625-11.738281 15.300781-20.820312 21.957031-12.652344 9.269532-26.4375 14.597656-36.664063 14.292969-1.230469-.042969-2.375-.640625-3.101562-1.632813-.726563-.992187-.960938-2.265624-.625-3.449218 2.503906-8.902344 10.175781-19.035156 20.855469-27.71875-5.84375-.152344-11.832032-.699219-17.914063-1.636719-23.957031-3.691406-44.707031-12.761719-55.496094-24.253906-.839843-.894531-1.222656-2.128907-1.039062-3.347657.1875-1.214843.925781-2.277343 1.996093-2.875 12.453126-6.980468 32.089844-9.617187 53.476563-7.296874-2.109375-1.921876-4.179687-3.894532-6.199219-5.917969-21.335937-21.339844-35.484375-45.65625-37.851562-65.050781-.144532-1.21875.277344-2.445313 1.144531-3.3125.867187-.871094 2.085937-1.289063 3.3125-1.140626 19.398437 2.371094 43.710937 16.515626 65.042969 37.851563 3.125 3.125 6.113281 6.332031 8.953125 9.621094-1.652344-10.824219-2.507813-22.242188-2.507813-33.730469 0-38.238281 9.078125-72.671875 24.289063-92.109375 1.515625-1.9375 4.785156-1.9375 6.300781 0 15.207031 19.4375 24.289062 53.871094 24.289062 92.109375 0 11.488281-.855468 22.90625-2.507812 33.730469 2.839844-3.289063 5.824219-6.496094 8.949219-9.621094 21.332031-21.335937 45.648437-35.480469 65.046875-37.851563 1.226562-.152343 2.441406.269532 3.3125 1.140626.867187.871093 1.289062 2.09375 1.140625 3.3125-2.367188 19.394531-16.515625 43.710937-37.851563 65.046874-2.023437 2.023438-4.09375 3.996094-6.203125 5.917969 21.390625-2.316406 41.027344.3125 53.476563 7.296875 1.070312.601563 1.808594 1.660156 1.996094 2.875.1875 1.21875-.195313 2.453125-1.039063 3.347656-10.789063 11.492188-31.535156 20.5625-55.496094 24.253907-6.082031.941406-12.070312 1.484375-17.914062 1.636719 10.679687 8.683593 18.351562 18.816406 20.855469 27.71875.335937 1.183593.105468 2.457031-.621094 3.449218-.730469.992188-1.875 1.59375-3.101563 1.632813-.292969.011719-.589843.015625-.894531.015625zm-83.78125-41.164063c1.722656 0 3.269531 1.109375 3.804688 2.777344.566406 1.769531-.160157 3.703125-1.757813 4.65625-2.257813 1.347656-4.5 2.835937-6.667969 4.425781-8.644531 6.332032-15.601562 13.867188-19.335937 20.738282 7.675781-1.496094 16.957031-5.859376 25.597656-12.191407 10.269531-7.523437 18.160156-16.734375 21.121094-24.640625.339843-.910156.996093-1.664062 1.851562-2.121094l.363281-.191406c.621094-.34375 1.433594-.570312 2.164063-.570312.738281-.023438 1.472656.140625 2.121094.496094l.511719.265624c.855468.457032 1.511718 1.210938 1.851562 2.121094 2.960938 7.90625 10.851562 17.117188 21.121094 24.640625 8.640625 6.332031 17.921875 10.695313 25.597656 12.191407-3.734375-6.871094-10.695312-14.40625-19.335938-20.738282-2.167968-1.589844-4.410156-3.078125-6.667968-4.425781-1.597656-.957031-2.324219-2.886719-1.757813-4.65625.570313-1.773437 2.304688-2.921875 4.140625-2.765625 9.214844.769531 19.425782.351562 29.523438-1.203125 19.074218-2.945313 36.3125-9.65625 46.707031-17.992187-12.417969-4.820313-30.882813-6.035157-49.957031-3.089844-2.304688.355468-4.695313.792968-7.300782 1.339844-1.824218.375-3.671874-.550782-4.453124-2.246094-.78125-1.699219-.28125-3.707032 1.199218-4.839844 5.773438-4.4375 11.367188-9.355469 16.628906-14.621094 17.8125-17.8125 30.625-38.296875 34.578126-54.910156-16.613282 3.953125-37.105469 16.765625-54.914063 34.574219-6.925781 6.925781-13.148437 14.304687-18.503906 21.9375-1.105469 1.574219-3.171875 2.144531-4.929688 1.34375-1.753906-.796875-2.6875-2.726563-2.226562-4.597657 3.636719-14.757812 5.5625-31.511718 5.5625-48.453124 0-33.171876-7.363281-64.164063-19.441407-82.75-12.074218 18.585937-19.4375 49.578124-19.4375 82.75 0 16.941406 1.921876 33.695312 5.558594 48.453124.460938 1.871094-.472656 3.800782-2.222656 4.597657-1.757812.800781-3.828125.230469-4.933594-1.34375-5.351562-7.628907-11.578125-15.011719-18.5-21.9375-17.8125-17.808594-38.300781-30.621094-54.914062-34.574219 3.949218 16.613281 16.765625 37.097656 34.574218 54.910156 5.265626 5.265625 10.859376 10.183594 16.632813 14.621094 1.476563 1.132812 1.976563 3.140625 1.195313 4.839844-.777344 1.699218-2.628907 2.625-4.453126 2.246094-2.605468-.542969-4.992187-.984376-7.300781-1.339844-19.074219-2.941406-37.539062-1.730469-49.957031 3.089844 10.390625 8.335937 27.628906 15.046874 46.707031 17.992187 10.101563 1.550781 20.3125 1.96875 29.523438 1.203125.109375-.007812.21875-.011719.332031-.011719zm84.851562 2.761719h.019532zm-58.304687-9.808594" fill="#690589"/><path d="m315.15625 335.800781 16.984375-16.984375-62.464844-62.464844-16.980469 16.984376-5.019531-5.019532c-6.5625-6.5625-17.199219-6.5625-23.761719 0l-68.753906 68.753906 96.261719 96.261719 68.753906-68.753906c6.5625-6.5625 6.5625-17.199219 0-23.757813zm0 0" fill="#ff9f70"/><path d="m287.578125 204.652344-28.859375 28.859375c-3.28125 3.28125-3.28125 8.601562 0 11.882812l84.382812 84.382813c3.277344 3.277344 8.597657 3.277344 11.878907 0l28.859375-28.863282c3.28125-3.28125 3.28125-8.601562 0-11.878906l-84.378906-84.382812c-3.28125-3.28125-8.601563-3.28125-11.882813 0zm0 0" fill="#ff4397"/><path d="m261.199219 247.875c.125-.136719.242187-.28125.371093-.414062l40.347657-40.347657-2.457031-2.460937c-3.28125-3.277344-8.601563-3.277344-11.882813 0l-28.859375 28.863281c-3.28125 3.28125-3.28125 8.601563 0 11.878906zm0 0" fill="#ff61b5"/><path d="m381.382812 286.574219-40.253906 40.25c-.164062.167969-.339844.3125-.515625.46875l2.488281 2.484375c3.277344 3.28125 8.597657 3.28125 11.878907 0l28.859375-28.863282c3.28125-3.277343 3.28125-8.597656 0-11.878906zm0 0" fill="#e12579"/><path d="m325.253906 311.929688-19.3125 19.3125c-2.773437 2.773437-2.773437 7.265624 0 10.039062 6.5625 6.5625 6.5625 17.199219 0 23.761719l-61.402344 61.402343 6.882813 6.886719 68.753906-68.753906c6.5625-6.5625 6.5625-17.199219 0-23.757813l-5.019531-5.019531 16.984375-16.980469zm0 0" fill="#e18152"/><path d="m251.421875 437.328125c-1.023437 0-2.042969-.386719-2.824219-1.171875l-96.265625-96.261719c-1.558593-1.5625-1.558593-4.09375 0-5.65625l68.753907-68.75c3.929687-3.929687 9.152343-6.09375 14.707031-6.09375 5.554687 0 10.78125 2.164063 14.707031 6.09375l2.195312 2.191407 14.152344-14.152344c.75-.75 1.769532-1.175782 2.828125-1.175782 1.058594 0 2.078125.425782 2.828125 1.175782l62.460938 62.460937c.75.75 1.171875 1.769531 1.171875 2.828125 0 1.0625-.421875 2.078125-1.171875 2.828125l-14.152344 14.152344 2.191406 2.191406c8.113282 8.113281 8.113282 21.308594 0 29.417969l-68.753906 68.75c-.777344.785156-1.800781 1.171875-2.828125 1.171875zm-90.601563-100.261719 90.605469 90.605469 65.925781-65.921875c4.988282-4.992188 4.988282-13.113281 0-18.105469l-5.023437-5.019531c-.75-.75-1.171875-1.765625-1.171875-2.828125 0-1.058594.421875-2.078125 1.171875-2.828125l14.15625-14.152344-56.804687-56.808594-14.15625 14.15625c-1.5625 1.5625-4.09375 1.5625-5.65625 0l-5.019532-5.019531c-2.417968-2.417969-5.632812-3.75-9.050781-3.75s-6.632813 1.332031-9.050781 3.75zm0 0" fill="#690589"/><path d="m349.039062 336.230469c-3.175781 0-6.351562-1.207031-8.769531-3.625l-84.378906-84.382813c-2.34375-2.339844-3.632813-5.457031-3.632813-8.769531s1.292969-6.425781 3.632813-8.769531l28.859375-28.863282c4.835938-4.832031 12.703125-4.835937 17.539062 0l84.378907 84.382813c2.34375 2.339844 3.632812 5.457031 3.632812 8.769531s-1.292969 6.425782-3.632812 8.769532l-28.859375 28.859374c-2.417969 2.421876-5.59375 3.628907-8.769532 3.628907zm-58.632812-128.75-28.859375 28.863281c-.832031.832031-1.292969 1.9375-1.292969 3.113281s.460938 2.277344 1.292969 3.109375l84.378906 84.382813c1.714844 1.714843 4.511719 1.714843 6.222657 0l28.863281-28.863281c.832031-.832032 1.289062-1.9375 1.289062-3.113282 0-1.175781-.457031-2.277344-1.289062-3.109375l-84.378907-84.382812c-1.664062-1.664063-4.5625-1.664063-6.226562 0zm0 0" fill="#690589"/><path d="m278.835938 434.617188c6.648437-6.648438 6.648437-17.421876 0-24.066407l-43.238282-43.242187-68.75-68.75c-6.5625-6.5625-17.203125-6.5625-23.761718 0l-5.019532 5.015625-16.980468-16.980469-62.464844 62.464844 16.980468 16.980468-5.019531 5.019532c-6.558593 6.5625-6.558593 17.199218 0 23.761718l68.753907 68.75 31.359374 31.359376c6.644532 6.648437 17.421876 6.648437 24.066407 0 6.644531-6.644532 6.644531-17.417969 0-24.0625l11.878906 11.878906c6.648437 6.644531 17.421875 6.644531 24.066406 0 6.648438-6.648438 6.648438-17.421875 0-24.066406l11.878907 11.878906c6.648437 6.648437 17.421874 6.648437 24.066406 0 6.648437-6.644532 6.648437-17.417969 0-24.066406l-11.878906-11.878907c6.644531 6.648438 17.417968 6.644531 24.0625.003907zm0 0" fill="#ff9f70"/><path d="m103.179688 234.894531 28.863281 28.859375c3.277343 3.28125 3.277343 8.601563 0 11.882813l-84.382813 84.378906c-3.28125 3.28125-8.601562 3.28125-11.878906 0l-28.863281-28.859375c-3.28125-3.28125-3.28125-8.601562 0-11.878906l84.382812-84.382813c3.277344-3.28125 8.597657-3.28125 11.878907 0zm0 0" fill="#7bac51"/><path d="m9.378906 316.8125-2.460937 2.460938c-3.28125 3.28125-3.28125 8.601562 0 11.878906l28.863281 28.863281c3.277344 3.28125 8.597656 3.28125 11.878906 0l2.460938-2.457031zm0 0" fill="#99ca6f"/><path d="m129.582031 278.09375 2.460938-2.457031c3.277343-3.28125 3.277343-8.601563 0-11.882813l-28.863281-28.863281c-3.28125-3.277344-8.601563-3.277344-11.878907 0l-2.460937 2.460937zm0 0" fill="#5d8e33"/><path d="m185.816406 494.929688-31.359375-31.359376-68.753906-68.75c-6.5625-6.5625-6.5625-17.199218 0-23.761718 2.773437-2.769532 2.773437-7.265625 0-10.035156l-19.523437-19.527344-7.558594 7.5625 16.980468 16.980468-5.019531 5.019532c-6.558593 6.5625-6.558593 17.199218 0 23.761718l68.753907 68.75 31.359374 31.359376c5.300782 5.304687 13.226563 6.363281 19.59375 3.203124-1.613281-.800781-3.128906-1.855468-4.472656-3.203124zm0 0" fill="#e18152"/><g fill="#690589"><path d="m41.71875 366.476562c-3.308594 0-6.425781-1.292968-8.765625-3.632812l-28.863281-28.863281c-2.34375-2.339844-3.632813-5.453125-3.632813-8.765625s1.292969-6.429688 3.632813-8.769532l84.378906-84.382812c4.835938-4.835938 12.703125-4.835938 17.539062 0l28.863282 28.863281c2.339844 2.339844 3.628906 5.457031 3.628906 8.769531s-1.289062 6.429688-3.628906 8.769532l-84.382813 84.378906c-2.339843 2.34375-5.457031 3.632812-8.769531 3.632812zm55.519531-130.042968c-1.125 0-2.253906.429687-3.109375 1.289062l-84.382812 84.378906c-.832032.832032-1.289063 1.9375-1.289063 3.113282 0 1.175781.457031 2.28125 1.289063 3.109375l28.863281 28.867187c1.667969 1.667969 4.5625 1.660156 6.222656 0l84.382813-84.382812c.832031-.832032 1.289062-1.933594 1.289062-3.109375s-.457031-2.28125-1.289062-3.113281l-28.863282-28.863282c-.855468-.859375-1.984374-1.289062-3.113281-1.289062zm0 0"/><path d="m182.726562 503.914062c-5.613281 0-10.890624-2.183593-14.859374-6.15625l-100.113282-100.109374c-3.929687-3.929688-6.09375-9.152344-6.09375-14.707032 0-5.558594 2.164063-10.785156 6.09375-14.710937l2.191406-2.191407-14.152343-14.152343c-.75-.75-1.171875-1.765625-1.171875-2.828125 0-1.058594.421875-2.078125 1.171875-2.828125l62.460937-62.460938c1.5625-1.5625 4.09375-1.5625 5.65625 0l14.152344 14.152344 2.191406-2.191406c8.113282-8.113281 21.308594-8.109375 29.417969 0l111.992187 111.992187c3.96875 3.96875 6.15625 9.246094 6.15625 14.863282 0 5.613281-2.1875 10.890624-6.15625 14.859374-3.472656 3.472657-7.871093 5.472657-12.40625 6.003907l.21875.21875c3.972657 3.96875 6.15625 9.246093 6.15625 14.863281 0 5.613281-2.183593 10.890625-6.15625 14.859375-3.96875 3.972656-9.246093 6.15625-14.859374 6.15625-5.617188 0-10.890626-2.183594-14.863282-6.15625l-.207031-.207031c-.542969 4.679687-2.632813 9.015625-6.015625 12.394531-3.96875 3.96875-9.246094 6.15625-14.859375 6.15625-5.617187 0-10.890625-2.1875-14.863281-6.15625l-.222656-.222656c-.527344 4.539062-2.527344 8.933593-6 12.40625-3.96875 3.96875-9.246094 6.152343-14.859376 6.152343zm-118.449218-154.855468 14.152344 14.152344c.75.75 1.171874 1.765624 1.171874 2.828124 0 1.058594-.421874 2.078126-1.171874 2.828126l-5.019532 5.019531c-2.417968 2.417969-3.75 5.628906-3.75 9.050781 0 3.417969 1.332032 6.632812 3.75 9.050781l100.113282 100.113281c5.074218 5.074219 13.335937 5.074219 18.410156 0 5.070312-5.074218 5.070312-13.335937 0-18.410156-1.5625-1.5625-1.5625-4.097656 0-5.65625 1.558594-1.5625 4.09375-1.5625 5.652344 0 .011718.007813.019531.015625.027343.023438l11.855469 11.859375c2.460938 2.457031 5.726562 3.8125 9.207031 3.8125 3.476563 0 6.742188-1.355469 9.203125-3.8125 2.460938-2.457031 3.8125-5.726563 3.8125-9.207031 0-3.476563-1.355468-6.742188-3.8125-9.203126-1.5625-1.558593-1.5625-4.09375 0-5.65625s4.09375-1.5625 5.65625 0l11.878906 11.878907c2.460938 2.457031 5.726563 3.8125 9.207032 3.8125 3.476562 0 6.746094-1.355469 9.203125-3.8125 2.460937-2.457031 3.8125-5.726563 3.8125-9.203125 0-3.480469-1.351563-6.746094-3.8125-9.207032l-11.875-11.878906c-1.5625-1.5625-1.5625-4.09375 0-5.65625 1.558593-1.5625 4.09375-1.5625 5.65625 0 5.074219 5.074219 13.335937 5.070313 18.40625 0 2.457031-2.460937 3.8125-5.726562 3.8125-9.207031 0-3.476563-1.355469-6.746094-3.8125-9.203125l-111.992188-111.996094c-4.992187-4.992187-13.113281-4.992187-18.105469 0l-5.019531 5.019532c-1.5625 1.5625-4.09375 1.5625-5.65625 0l-14.152343-14.152344zm0 0"/><path d="m194.757812 474.867188c-1.023437 0-2.042968-.390626-2.824218-1.171876l-18.171875-18.171874c-1.5625-1.5625-1.5625-4.09375 0-5.65625s4.09375-1.5625 5.65625 0l18.167969 18.171874c1.5625 1.558594 1.5625 4.09375 0 5.65625-.777344.777344-1.800782 1.171876-2.828126 1.171876zm0 0"/><path d="m230.707031 462.679688c-1.023437 0-2.046875-.386719-2.828125-1.171876l-29.238281-29.234374c-1.5625-1.5625-1.5625-4.097657 0-5.65625 1.5625-1.5625 4.09375-1.5625 5.65625 0l29.238281 29.234374c1.5625 1.5625 1.5625 4.097657 0 5.65625-.78125.785157-1.804687 1.171876-2.828125 1.171876zm0 0"/><path d="m254.773438 438.617188c-1.027344 0-2.046876-.390626-2.828126-1.171876l-27.453124-27.453124c-1.5625-1.5625-1.5625-4.09375 0-5.65625s4.09375-1.5625 5.65625 0l27.453124 27.453124c1.558594 1.5625 1.558594 4.09375 0 5.65625-.78125.78125-1.804687 1.171876-2.828124 1.171876zm0 0"/></g><path d="m252.695312 273.335938-12.148437-12.148438c-9.84375-9.84375-25.800781-9.84375-35.640625 0l-14.660156 14.65625-49.6875 49.6875c-6.628906 6.628906-6.628906 17.375 0 24.003906 6.628906 6.625 17.375 6.625 24 0l26.191406-26.195312c11.441406 11.441406 29.984375 11.441406 41.417969 0zm0 0" fill="#ff9f70"/><path d="m140.558594 340.65625 78.605468-78.605469c3.46875-3.46875 7.703126-5.6875 12.152344-6.710937-8.910156-3.226563-19.265625-1.296875-26.410156 5.847656l-14.660156 14.65625-49.6875 49.691406c-5.292969 5.292969-6.347656 13.210938-3.183594 19.5625.796875-1.601562 1.851562-3.109375 3.183594-4.441406zm0 0" fill="#ffbd8e"/><path d="m152.5625 358.507812c-5.601562 0-10.871094-2.183593-14.832031-6.140624-8.175781-8.175782-8.175781-21.480469 0-29.660157l64.347656-64.34375c11.386719-11.390625 29.914063-11.386719 41.296875 0l12.148438 12.144531c1.558593 1.5625 1.558593 4.09375 0 5.65625-1.5625 1.5625-4.09375 1.5625-5.65625 0l-12.148438-12.148437c-8.265625-8.265625-21.71875-8.265625-29.984375 0l-64.347656 64.347656c-5.054688 5.058594-5.054688 13.289063 0 18.347657 2.453125 2.449218 5.710937 3.796874 9.175781 3.796874s6.722656-1.347656 9.171875-3.796874l26.195313-26.195313c1.558593-1.558594 4.09375-1.558594 5.652343 0 9.863281 9.863281 25.902344 9.863281 35.765625 0 1.558594-1.558594 4.09375-1.558594 5.652344 0 1.5625 1.5625 1.5625 4.097656 0 5.65625-12.019531 12.027344-31.027344 12.910156-44.074219 2.660156l-23.535156 23.535157c-3.960937 3.957031-9.226563 6.140624-14.828125 6.140624zm0 0" fill="#690589"/><path d="m28.605469 321.488281c-1.023438 0-2.046875-.390625-2.828125-1.171875-1.5625-1.5625-1.5625-4.09375 0-5.65625l24-24c1.5625-1.5625 4.09375-1.5625 5.65625 0s1.5625 4.09375 0 5.65625l-24 24c-.78125.78125-1.804688 1.171875-2.828125 1.171875zm0 0" fill="#690589"/></svg>