<svg height="504pt" viewBox="-30 0 503 504" width="504pt" xmlns="http://www.w3.org/2000/svg"><path d="m222.457031 4c-74.898437 0-135.613281 60.714844-135.613281 135.613281v265.316407h271.226562v-265.316407c0-74.898437-60.714843-135.613281-135.613281-135.613281zm0 0" fill="#f4efed"/><path d="m407.164062 404.929688h-369.417968c-5.519532 0-10 4.476562-10 10v37.535156h389.417968v-37.535156c0-5.523438-4.476562-10-10-10zm0 0" fill="#f4efed"/><path d="m428.96875 452.464844h-414.46875c-5.523438 0-10 4.476562-10 10v37.535156h434.46875v-37.535156c0-5.523438-4.476562-10-10-10zm0 0" fill="#f4efed"/><path d="m407.164062 404.929688h-20c5.523438 0 10 4.476562 10 10v37.535156h20v-37.535156c0-5.523438-4.476562-10-10-10zm0 0" fill="#d6d1cf"/><path d="m428.96875 452.464844h-20c5.519531 0 10 4.476562 10 10v37.535156h20v-37.535156c0-5.523438-4.480469-10-10-10zm0 0" fill="#d6d1cf"/><path d="m37.746094 404.929688h20c-5.519532 0-10 4.476562-10 10v37.535156h-20v-37.535156c0-5.523438 4.480468-10 10-10zm0 0" fill="#fff"/><path d="m14.5 452.464844h20c-5.523438 0-10 4.476562-10 10v37.535156h-20v-37.535156c0-5.523438 4.476562-10 10-10zm0 0" fill="#fff"/><path d="m222.457031 4c-3.367187 0-6.691406.164062-10 .40625 70.222657 5.125 125.613281 63.679688 125.613281 135.207031v265.316407h20v-265.316407c0-74.898437-60.714843-135.613281-135.613281-135.613281zm0 0" fill="#d6d1cf"/><path d="m222.457031 4c3.367188 0 6.695313.164062 10 .40625-70.222656 5.125-125.613281 63.679688-125.613281 135.207031v265.316407h-20v-265.316407c0-74.898437 60.714844-135.613281 135.613281-135.613281zm0 0" fill="#fff"/><g fill="#690589"><path d="m438.96875 504h-434.46875c-2.207031 0-4-1.792969-4-4v-37.535156c0-7.71875 6.28125-14 14-14h414.46875c7.71875 0 14 6.28125 14 14v37.535156c0 2.207031-1.789062 4-4 4zm-430.46875-8h426.46875v-33.535156c0-3.308594-2.691406-6-6-6h-414.46875c-3.308594 0-6 2.691406-6 6zm0 0"/><path d="m417.164062 456.464844h-389.414062c-2.207031 0-4-1.792969-4-4v-37.535156c0-7.71875 6.28125-14 14-14h369.414062c7.71875 0 14 6.28125 14 14v37.535156c0 2.210937-1.789062 4-4 4zm-385.414062-8h381.414062v-33.535156c0-3.308594-2.691406-6-6-6h-369.414062c-3.308594 0-6 2.691406-6 6zm0 0"/><path d="m358.070312 408.929688h-271.226562c-2.207031 0-4-1.792969-4-4v-265.316407c0-76.984375 62.628906-139.613281 139.613281-139.613281 76.980469 0 139.613281 62.628906 139.613281 139.613281v265.316407c0 2.207031-1.792968 4-4 4zm-267.226562-8h263.226562v-261.316407c0-72.570312-59.042968-131.613281-131.613281-131.613281-72.574219 0-131.613281 59.042969-131.613281 131.613281zm0 0"/><path d="m102.84375 166.453125c-2.207031 0-4-1.792969-4-4v-24c0-2.207031 1.792969-4 4-4s4 1.792969 4 4v24c0 2.207031-1.792969 4-4 4zm0 0"/></g><path d="m313.035156 160.828125h-70.945312v-67.25h-40.710938v67.25h-70.945312v40.710937h70.945312v128.882813h40.710938v-128.882813h70.945312zm0 0" fill="#fcc24c"/><path d="m242.089844 334.421875h-40.710938c-2.207031 0-4-1.792969-4-4v-124.878906h-66.945312c-2.207032 0-4-1.792969-4-4v-40.714844c0-2.207031 1.792968-4 4-4h66.945312v-63.25c0-2.207031 1.792969-4 4-4h40.710938c2.207031 0 4 1.792969 4 4v63.25h66.945312c2.207032 0 4 1.792969 4 4v40.710937c0 2.207032-1.792968 4-4 4h-66.945312v124.882813c0 2.207031-1.792969 4-4 4zm-36.710938-8h32.710938v-124.878906c0-2.207031 1.789062-4 4-4h66.945312v-32.714844h-66.945312c-2.210938 0-4-1.789063-4-4v-63.25h-32.710938v63.25c0 2.210937-1.792968 4-4 4h-66.945312v32.710937h66.945312c2.210938 0 4 1.792969 4 4zm0 0" fill="#690589"/></svg>