<svg height="503pt" viewBox="-25 0 503 503.9155" width="503pt" xmlns="http://www.w3.org/2000/svg"><path d="m343.332031 376.25c47.640625-7.347656 87.394531-25.484375 106.96875-46.332031-24.945312-13.988281-68.316406-19.304688-115.953125-11.957031-5.136718.789062-10.164062 1.734374-15.101562 2.765624 11.550781-8.871093 23.066406-18.917968 34.234375-30.085937 42.722656-42.722656 69.480469-90.515625 73.820312-126.097656-35.582031 4.339843-83.375 31.097656-126.097656 73.820312-14.695313 14.699219-27.453125 29.992188-38.105469 45.1875 7.28125-29.523437 11.421875-63.371093 11.421875-99.363281 0-77.046875-18.96875-144.273438-47.140625-180.273438-28.171875 36-47.140625 103.226563-47.140625 180.273438 0 35.992188 4.144531 69.839844 11.425781 99.363281-10.65625-15.195312-23.410156-30.488281-38.109374-45.1875-42.722657-42.722656-90.511719-69.480469-126.097657-73.820312 4.34375 35.582031 31.101563 83.375 73.824219 126.097656 11.167969 11.167969 22.679688 21.214844 34.234375 30.085937-4.941406-1.03125-9.964844-1.976562-15.105469-2.765624-47.636718-7.347657-91.007812-2.03125-115.953125 11.957031 19.574219 20.847656 59.332031 38.984375 106.96875 46.332031 21.769531 3.355469 42.625 4.042969 61.261719 2.488281-4.683594 2.800781-9.382812 5.910157-14.039062 9.324219-24.652344 18.0625-41.710938 39.894531-46.625 57.347656 18.125.570313 44.078124-9.121094 68.730468-27.1875 22.746094-16.667968 39.007813-36.539062 45.246094-53.222656.371094-.195312.765625-.375 1.125-.578125.082031.011719.171875.03125.253906.042969.085938-.011719.171875-.03125.257813-.042969.359375.203125.753906.382813 1.121093.578125 6.238282 16.6875 22.5 36.554688 45.25 53.222656 24.648438 18.066406 50.605469 27.757813 68.726563 27.1875-4.914063-17.453125-21.972656-39.285156-46.625-57.347656-4.652344-3.410156-9.351563-6.519531-14.039063-9.324219 18.640626 1.554688 39.492188.871094 61.261719-2.488281zm0 0" fill="#7bac51"/><path d="m48.148438 169.15625c5.972656 35.035156 32.226562 80.578125 73.132812 121.484375 7.347656 7.351563 14.847656 14.214844 22.414062 20.578125 3.007813 2.53125.757813 7.367188-3.128906 6.765625-.050781-.007813-.101562-.015625-.152344-.023437-3.390624-.523438-6.75-.964844-10.09375-1.363282-9.800781-7.835937-19.546874-16.464844-29.039062-25.957031-42.722656-42.722656-69.480469-90.515625-73.820312-126.097656 6.519531.792969 13.453124 2.351562 20.6875 4.613281zm0 0" fill="#99ca6f"/><path d="m88.386719 314.882812c-26.105469 1.089844-48.53125 6.40625-63.929688 15.035157 19.574219 20.847656 59.328125 38.984375 106.96875 46.332031 10.75 1.65625 21.269531 2.65625 31.417969 3.066406-16.027344.636719-33.398438-.285156-51.417969-3.066406-47.640625-7.347656-87.394531-25.484375-106.96875-46.332031 19.203125-10.765625 49.347657-16.367188 83.929688-15.035157zm0 0" fill="#99ca6f"/><path d="m158.648438 388.0625c4.238281-3.105469 8.507812-5.945312 12.777343-8.546875 1.53125.011719 3.050781.011719 4.5625-.007813 4.582031-.046874 6.496094 5.75 2.800781 8.453126-.046874.03125-.09375.066406-.140624.101562-23.28125 17.058594-39.777344 37.472656-45.683594 54.394531-7.648438 2.121094-14.757813 3.148438-20.941406 2.953125 4.914062-17.453125 21.972656-39.285156 46.625-57.347656zm0 0" fill="#99ca6f"/><path d="m191.664062 283.550781c10.101563 0 17.730469-9.167969 15.851563-19.089843-4.6875-24.699219-7.273437-51.8125-7.273437-80.269532 0 0-1.660157-124.585937 27.136718-180.277344-28.171875 36.003907-47.136718 103.226563-47.136718 180.277344 0 23.210938 1.742187 45.511719 4.921874 66.355469zm0 0" fill="#99ca6f"/><path d="m406.613281 169.15625c-5.972656 35.035156-32.226562 80.578125-73.132812 121.484375-7.351563 7.351563-14.851563 14.214844-22.414063 20.578125-3.007812 2.53125-.761718 7.367188 3.128906 6.765625.050782-.007813.101563-.015625.152344-.023437 3.390625-.523438 6.75-.964844 10.09375-1.363282 9.800782-7.835937 19.546875-16.464844 29.039063-25.957031 42.722656-42.722656 69.480469-90.515625 73.820312-126.097656-6.519531.792969-13.453125 2.351562-20.6875 4.613281zm0 0" fill="#5d8e33"/><path d="m366.375 314.882812c26.101562 1.089844 48.53125 6.40625 63.925781 15.035157-19.574219 20.847656-59.328125 38.984375-106.96875 46.332031-10.75 1.65625-21.269531 2.65625-31.417969 3.066406 16.03125.636719 33.398438-.285156 51.417969-3.066406 47.640625-7.347656 87.394531-25.484375 106.96875-46.332031-19.203125-10.765625-49.34375-16.367188-83.925781-15.035157zm0 0" fill="#5d8e33"/><path d="m296.109375 388.0625c-4.234375-3.105469-8.507813-5.945312-12.773437-8.546875-1.53125.011719-3.054688.011719-4.566407-.007813-4.578125-.046874-6.492187 5.75-2.796875 8.453126.046875.03125.09375.066406.140625.101562 23.28125 17.058594 39.777344 37.472656 45.679688 54.394531 7.648437 2.121094 14.757812 3.148438 20.941406 2.953125-4.914063-17.453125-21.972656-39.285156-46.625-57.347656zm0 0" fill="#5d8e33"/><path d="m263.09375 283.550781c-10.101562 0-17.730469-9.167969-15.847656-19.089843 4.683594-24.699219 7.273437-51.8125 7.273437-80.269532 0 0 1.660157-124.585937-27.140625-180.277344 28.171875 36.003907 47.140625 103.226563 47.140625 180.277344 0 23.210938-1.746093 45.511719-4.921875 66.355469zm0 0" fill="#5d8e33"/><path d="m212.441406 503.914062c-2.210937 0-4-1.789062-4-4 0-2.207031 1.789063-4 4-4 6.03125 0 10.9375-4.90625 10.9375-10.9375v-120.683593c0-2.210938 1.792969-4 4-4 2.210938 0 4 1.789062 4 4v120.683593c0 10.441407-8.496094 18.9375-18.9375 18.9375zm0 0" fill="#690589"/><path d="m341.15625 449.433594c-19.65625 0-45.46875-10.363282-69.515625-27.980469-20.1875-14.796875-36.3125-32.917969-44.261719-49.511719-7.945312 16.59375-24.070312 34.714844-44.261718 49.511719-24.742188 18.128906-51.292969 28.589844-71.21875 27.957031-1.230469-.039062-2.371094-.644531-3.101563-1.632812-.726563-.992188-.957031-2.265625-.621094-3.449219 5.375-19.117187 23.363281-41.359375 48.109375-59.492187.617188-.453126 1.238282-.902344 1.859375-1.34375-15.277343.308593-31.132812-.789063-47.328125-3.285157-46.617187-7.191406-88.488281-25.410156-109.273437-47.550781-.84375-.894531-1.226563-2.128906-1.039063-3.34375.1875-1.21875.925782-2.277344 1.996094-2.882812 26.441406-14.820313 71.726562-19.589844 118.242188-12.460938-7.65625-6.464844-15.121094-13.324219-22.289063-20.496094-41.65625-41.65625-70.382813-90.875-74.964844-128.441406-.148437-1.222656.273438-2.445312 1.140625-3.3125.871094-.871094 2.085938-1.289062 3.3125-1.144531 37.574219 4.585937 86.789063 33.3125 128.445313 74.96875 9.851562 9.851562 19.027343 20.152343 27.414062 30.765625-4.960937-25.839844-7.558593-53.867188-7.558593-82.113282 0-74.890624 18.386718-144.914062 47.988281-182.742187 1.515625-1.9375 4.785156-1.9375 6.300781 0 29.597656 37.828125 47.988281 107.847656 47.988281 182.742187 0 28.246094-2.597656 56.273438-7.558593 82.113282 8.382812-10.613282 17.5625-20.914063 27.414062-30.765625 41.652344-41.65625 90.871094-70.382813 128.441406-74.96875 1.226563-.152344 2.445313.273437 3.3125 1.144531.871094.867188 1.292969 2.089844 1.144532 3.3125-4.585938 37.566406-33.308594 86.785156-74.964844 128.441406-7.171875 7.171875-14.632813 14.03125-22.292969 20.496094 46.523437-7.125 91.804687-2.355469 118.246094 12.460938 1.070312.605468 1.804687 1.664062 1.996093 2.882812.1875 1.214844-.199218 2.449219-1.039062 3.34375-20.785156 22.140625-62.65625 40.359375-109.273438 47.550781-16.199218 2.496094-32.070312 3.597657-47.328124 3.285157.621093.441406 1.242187.890624 1.855468 1.34375 24.746094 18.136718 42.734375 40.375 48.113282 59.492187.332031 1.183594.105468 2.457031-.625 3.449219-.726563.988281-1.871094 1.59375-3.097657 1.632812-.5625.015625-1.136719.023438-1.707031.023438zm-168.464844-74.691406c1.722656 0 3.269532 1.109374 3.804688 2.773437.566406 1.773437-.15625 3.703125-1.757813 4.660156-4.640625 2.777344-9.261719 5.839844-13.726562 9.113281-20.71875 15.1875-36.8125 33.855469-43.335938 49.984376 17.34375-1.367188 39.988281-11.089844 60.710938-26.273438 21.257812-15.578125 37.65625-34.789062 43.867187-51.398438.34375-.910156 1.007813-1.671874 1.867188-2.128906l.578125-.292968c.160156-.082032.324219-.164063.476562-.25.675781-.375 1.441407-.535157 2.203125-.496094.765625-.039063 1.53125.125 2.203125.496094.152344.085937.316407.167968.480469.25l.574219.292968c.863281.457032 1.527343 1.21875 1.871093 2.128906 6.207032 16.609376 22.609376 35.824219 43.863282 51.398438 20.722656 15.183594 43.371094 24.90625 60.710937 26.273438-6.523437-16.125-22.613281-34.796876-43.335937-49.984376-4.464844-3.273437-9.082032-6.335937-13.726563-9.113281-1.597656-.957031-2.324219-2.886719-1.753906-4.660156.566406-1.769531 2.296875-2.914063 4.136719-2.761719 18.855468 1.574219 39.710937.722656 60.324218-2.457031 42.203126-6.507813 80.140626-22.148437 100.851563-41.339844-25.53125-12.0625-66.417969-15.550781-108.621094-9.042969-4.722656.726563-9.59375 1.621094-14.894531 2.726563-1.824219.382813-3.675781-.550781-4.453125-2.246094-.78125-1.695312-.285156-3.703125 1.199219-4.839843 11.726562-9.003907 23.117187-19.011719 33.84375-29.742188 38.507812-38.507812 65.597656-83.335938 71.886718-118.507812-35.175781 6.292968-80 33.378906-118.507812 71.890624-14.09375 14.089844-26.761719 29.113282-37.660156 44.652344-1.105469 1.574219-3.175782 2.140625-4.933594 1.34375-1.75-.796875-2.691406-2.730468-2.226562-4.601562 7.398437-29.984375 11.308593-64.011719 11.308593-98.402344 0-70.460938-16.441406-136.230469-43.140625-173.59375-26.699218 37.363281-43.136718 103.132812-43.136718 173.59375 0 34.390625 3.910156 68.414062 11.304687 98.402344.464844 1.871094-.472656 3.804687-2.226563 4.601562-1.757812.796875-3.824218.230469-4.929687-1.34375-10.898437-15.539062-23.570313-30.5625-37.660156-44.652344-38.507813-38.511718-83.335938-65.597656-118.511719-71.890624 6.292969 35.171874 33.378906 80 71.890625 118.507812 10.726563 10.730469 22.113281 20.734375 33.84375 29.742188 1.480469 1.136718 1.976563 3.144531 1.199219 4.839843-.777344 1.695313-2.628906 2.628907-4.453125 2.246094-5.300781-1.105469-10.171875-2-14.894531-2.726563-42.203126-6.507812-83.09375-3.019531-108.625 9.042969 20.710937 19.191407 58.652343 34.832031 100.855468 41.339844 20.613282 3.175781 41.46875 4.027344 60.320313 2.457031.113281-.007812.222656-.011718.335937-.011718zm170.644532 1.507812h.019531zm0 0" fill="#690589"/><path d="m198.699219 141.214844c-.152344 0-.304688-.007813-.457031-.023438-2.195313-.25-3.773438-2.234375-3.523438-4.429687.933594-8.164063 2.066406-16.300781 3.367188-24.199219.359374-2.175781 2.398437-3.667969 4.597656-3.292969 2.179687.359375 3.65625 2.417969 3.296875 4.597657-1.28125 7.765624-2.394531 15.773437-3.3125 23.800781-.230469 2.042969-1.960938 3.546875-3.96875 3.546875zm0 0" fill="#690589"/><path d="m227.371094 370.789062c-14.496094 0-26.246094-11.753906-26.246094-26.246093v-33.84375c0-14.496094 11.75-26.246094 26.246094-26.246094s26.246094 11.75 26.246094 26.246094v33.84375c.003906 14.496093-11.75 26.246093-26.246094 26.246093zm0 0" fill="#ff4397"/><path d="m227.371094 284.453125c-1.765625 0-3.488282.179687-5.15625.511719 12.023437 2.398437 21.089844 13.003906 21.089844 25.734375v33.84375c0 12.730469-9.066407 23.335937-21.089844 25.734375 1.667968.332031 3.390625.511718 5.15625.511718 14.496094 0 26.246094-11.75 26.246094-26.246093v-33.839844c.003906-14.5-11.75-26.25-26.246094-26.25zm0 0" fill="#e12579"/><path d="m227.371094 284.453125c1.765625 0 3.492187.179687 5.160156.511719-12.027344 2.398437-21.089844 13.003906-21.089844 25.734375v33.84375c0 12.730469 9.0625 23.335937 21.089844 25.734375-1.667969.332031-3.394531.511718-5.160156.511718-14.496094 0-26.246094-11.75-26.246094-26.246093v-33.839844c0-14.5 11.75-26.25 26.246094-26.25zm0 0" fill="#ff61b5"/><g fill="#690589"><path d="m227.371094 374.789062c-16.675782 0-30.246094-13.570312-30.246094-30.246093v-33.84375c0-16.675781 13.570312-30.246094 30.246094-30.246094 16.679687 0 30.246094 13.566406 30.246094 30.246094v33.84375c0 16.675781-13.566407 30.246093-30.246094 30.246093zm0-86.335937c-12.265625 0-22.246094 9.976563-22.246094 22.246094v33.84375c0 12.265625 9.980469 22.246093 22.246094 22.246093s22.246094-9.980468 22.246094-22.246093v-33.84375c0-12.269531-9.980469-22.246094-22.246094-22.246094zm0 0"/><path d="m253.617188 314.699219h-52.492188c-2.207031 0-4-1.792969-4-4s1.792969-4 4-4h52.492188c2.207031 0 4 1.792969 4 4s-1.789063 4-4 4zm0 0"/><path d="m227.371094 374.789062c-2.207032 0-4-1.792968-4-4v-60.089843c0-2.207031 1.792968-4 4-4 2.207031 0 4 1.792969 4 4v60.089843c0 2.207032-1.789063 4-4 4zm0 0"/><path d="m213.773438 300.851562c-1.023438 0-2.046876-.390624-2.828126-1.171874l-3.28125-3.28125c-1.558593-1.5625-1.558593-4.09375.003907-5.65625 1.5625-1.558594 4.097656-1.5625 5.65625.003906l3.28125 3.28125c1.558593 1.558594 1.558593 4.09375-.003907 5.652344-.78125.78125-1.804687 1.171874-2.828124 1.171874zm0 0"/><path d="m240.96875 300.851562c-1.023438 0-2.042969-.390624-2.828125-1.171874-1.5625-1.558594-1.5625-4.09375 0-5.652344l3.277344-3.28125c1.5625-1.566406 4.097656-1.5625 5.65625-.003906 1.5625 1.5625 1.5625 4.09375.003906 5.65625l-3.277344 3.28125c-.78125.78125-1.808593 1.171874-2.832031 1.171874zm0 0"/><path d="m201.125 322.085938h-3.234375c-9.859375 0-17.878906-8.023438-17.878906-17.882813v-9.070313c0-2.210937 1.789062-4 4-4 2.207031 0 4 1.789063 4 4v9.070313c0 5.449219 4.433593 9.882813 9.878906 9.882813h3.234375c2.207031 0 4 1.792968 4 4 0 2.207031-1.789062 4-4 4zm0 0"/><path d="m201.125 334.625h-15.792969c-9.863281 0-17.882812-8.023438-17.882812-17.882812 0-2.207032 1.792969-4 4-4s4 1.792968 4 4c0 5.449218 4.433593 9.882812 9.882812 9.882812h15.792969c2.207031 0 4 1.789062 4 4 0 2.207031-1.789062 4-4 4zm0 0"/><path d="m184.007812 384.480469c-2.207031 0-4-1.789063-4-4v-9.070313c0-9.859375 8.023438-17.882812 17.882813-17.882812h6.671875c2.207031 0 4 1.792968 4 4 0 2.207031-1.792969 4-4 4h-6.671875c-5.449219 0-9.882813 4.433594-9.882813 9.882812v9.070313c0 2.210937-1.789062 4-4 4zm0 0"/><path d="m171.449219 362.875c-2.210938 0-4-1.792969-4-4 0-9.863281 8.019531-17.882812 17.878906-17.882812h15.796875c2.207031 0 4 1.792968 4 4 0 2.207031-1.792969 4-4 4h-15.796875c-5.449219 0-9.878906 4.433593-9.878906 9.882812 0 2.207031-1.792969 4-4 4zm0 0"/><path d="m256.867188 322.085938h-3.234376c-2.207031 0-4-1.792969-4-4 0-2.207032 1.792969-4 4-4h3.234376c5.449218 0 9.882812-4.433594 9.882812-9.882813v-9.070313c0-2.210937 1.792969-4 4-4s4 1.789063 4 4v9.070313c0 9.859375-8.019531 17.882813-17.882812 17.882813zm0 0"/><path d="m269.429688 334.625h-15.796876c-2.207031 0-4-1.792969-4-4 0-2.210938 1.792969-4 4-4h15.796876c5.449218 0 9.878906-4.433594 9.878906-9.882812 0-2.207032 1.792968-4 4-4 2.210937 0 4 1.792968 4 4 .003906 9.859374-8.019532 17.882812-17.878906 17.882812zm0 0"/><path d="m270.75 384.480469c-2.207031 0-4-1.789063-4-4v-9.070313c0-5.449218-4.433594-9.882812-9.878906-9.882812h-6.671875c-2.210938 0-4-1.792969-4-4 0-2.207032 1.789062-4 4-4h6.671875c9.859375 0 17.878906 8.023437 17.878906 17.882812v9.070313c0 2.210937-1.789062 4-4 4zm0 0"/><path d="m283.3125 362.875c-2.207031 0-4-1.792969-4-4 0-5.453125-4.433594-9.882812-9.882812-9.882812h-15.792969c-2.207031 0-4-1.792969-4-4 0-2.207032 1.792969-4 4-4h15.792969c9.863281 0 17.882812 8.019531 17.882812 17.882812 0 2.207031-1.792969 4-4 4zm0 0"/></g><path d="m125.34375 143.917969c1.222656-3.167969 1.921875-6.59375 1.921875-10.191407 0-15.617187-12.660156-28.277343-28.28125-28.277343-15.617187 0-28.277344 12.660156-28.277344 28.277343 0 15.617188 12.660157 28.28125 28.277344 28.28125 3.597656 0 7.027344-.699218 10.191406-1.925781 1.066407 6.753907 6.894531 11.925781 13.949219 11.925781 7.8125 0 14.140625-6.332031 14.140625-14.140624 0-7.054688-5.167969-12.882813-11.921875-13.949219zm0 0" fill="#7bac51"/><path d="m166.3125 117.585938c0 7.808593-6.328125 14.140624-14.136719 14.140624-7.8125 0-14.140625-6.332031-14.140625-14.140624 0-7.808594 6.328125-14.140626 14.140625-14.140626 7.808594 0 14.136719 6.332032 14.136719 14.140626zm0 0" fill="#7bac51"/><path d="m123.125 176.007812c-7.40625 0-13.828125-4.382812-16.632812-10.898437-2.464844.597656-4.976563.898437-7.507813.898437-17.796875 0-32.28125-14.480468-32.28125-32.28125 0-17.800781 14.480469-32.28125 32.28125-32.28125s32.28125 14.480469 32.28125 32.28125c0 2.53125-.300781 5.046876-.898437 7.507813 6.515624 2.804687 10.898437 9.226563 10.898437 16.632813 0 10.003906-8.140625 18.140624-18.140625 18.140624zm-13.949219-19.925781c.691407 0 1.378907.179688 1.992188.535157 1.050781.601562 1.769531 1.648437 1.957031 2.84375.78125 4.949218 4.988281 8.542968 10 8.542968 5.589844 0 10.140625-4.546875 10.140625-10.136718 0-5.015626-3.597656-9.21875-8.546875-10-1.195312-.1875-2.242188-.90625-2.84375-1.957032-.605469-1.046875-.699219-2.3125-.265625-3.4375 1.097656-2.832031 1.65625-5.773437 1.65625-8.746094 0-13.390624-10.894531-24.28125-24.285156-24.28125-13.382813 0-24.277344 10.890626-24.277344 24.28125 0 13.386719 10.890625 24.277344 24.277344 24.277344 2.96875 0 5.914062-.554687 8.75-1.652344.46875-.179687.957031-.269531 1.445312-.269531zm0 0" fill="#690589"/><path d="m152.171875 135.726562c-10.003906 0-18.140625-8.136718-18.140625-18.140624 0-10 8.136719-18.136719 18.140625-18.136719s18.140625 8.136719 18.140625 18.136719c0 10.003906-8.136719 18.140624-18.140625 18.140624zm0-28.277343c-5.59375 0-10.140625 4.546875-10.140625 10.136719 0 5.59375 4.546875 10.140624 10.140625 10.140624s10.140625-4.546874 10.140625-10.140624c0-5.589844-4.546875-10.136719-10.140625-10.136719zm0 0" fill="#690589"/></svg>