<svg height="504pt" viewBox="0 -64 504 504" width="504pt" xmlns="http://www.w3.org/2000/svg"><path d="m252 339.839844c13.1875 19.945312 35.566406 33.109375 61.269531 33.109375 35.722657 0 65.5-25.417969 72.253907-59.15625 18.722656-13.363281 30.945312-35.25 30.945312-60.007813 0-6.855468-.953125-13.484375-2.703125-19.777344 7.195313-10.238281 11.457031-22.683593 11.457031-36.144531 0-19.21875-8.636718-36.398437-22.210937-47.945312.53125-3.570313.8125-7.226563.8125-10.945313 0-24.148437-11.617188-45.582031-29.5625-59.023437.019531-.75.054687-1.496094.054687-2.253907 0-40.699218-32.996094-73.691406-73.691406-73.691406-18.75 0-35.617188 7.015625-48.628906 18.546875v317.289063zm0 0" fill="#ff4397"/><path d="m252 339.839844c-13.1875 19.945312-35.566406 33.109375-61.269531 33.109375-35.722657 0-65.5-25.417969-72.253907-59.15625-18.722656-13.363281-30.945312-35.25-30.945312-60.007813 0-6.855468.953125-13.484375 2.703125-19.777344-7.195313-10.238281-11.457031-22.683593-11.457031-36.144531 0-19.21875 8.636718-36.398437 22.210937-47.945312-.53125-3.570313-.8125-7.226563-.8125-10.945313 0-24.148437 11.617188-45.582031 29.5625-59.023437-.019531-.75-.054687-1.496094-.054687-2.253907 0-40.699218 32.996094-73.691406 73.695312-73.691406 18.75 0 35.617188 7.015625 48.625 18.546875v317.289063zm0 0" fill="#ff4397"/><path d="m425.222656 197.863281c0-19.21875-8.636718-36.398437-22.210937-47.949219.53125-3.570312.8125-7.222656.8125-10.941406 0-24.148437-11.617188-45.582031-29.5625-59.023437.019531-.75.054687-1.5.054687-2.253907 0-40.703124-32.996094-73.691406-73.691406-73.691406-3.410156 0-6.765625.234375-10.050781.6875 35.988281 4.859375 63.742187 35.679688 63.742187 73.003906 0 .757813-.035156 1.503907-.054687 2.253907 17.945312 13.441406 29.5625 34.875 29.5625 59.023437 0 3.722656-.28125 7.375-.8125 10.945313 13.574219 11.546875 22.210937 28.726562 22.210937 47.945312 0 13.460938-4.261718 25.910157-11.457031 36.144531 1.75 6.296876 2.703125 12.925782 2.703125 19.777344 0 24.757813-12.222656 46.648438-30.945312 60.011719-6.109376 30.515625-31.0625 54.226563-62.214844 58.472656 3.257812.4375 6.582031.679688 9.960937.679688 35.722657 0 65.5-25.417969 72.253907-59.152344 18.722656-13.363281 30.945312-35.253906 30.945312-60.011719 0-6.851562-.953125-13.480468-2.703125-19.777344 7.195313-10.234374 11.457031-22.683593 11.457031-36.144531zm0 0" fill="#e12579"/><path d="m78.777344 197.863281c0-19.21875 8.636718-36.398437 22.210937-47.949219-.53125-3.570312-.8125-7.222656-.8125-10.941406 0-24.148437 11.617188-45.582031 29.5625-59.023437-.019531-.75-.054687-1.5-.054687-2.253907 0-40.703124 32.996094-73.691406 73.695312-73.691406 3.410156 0 6.761719.234375 10.050782.6875-35.992188 4.859375-63.742188 35.679688-63.742188 73.003906 0 .757813.03125 1.503907.054688 2.253907-17.949219 13.441406-29.5625 34.875-29.5625 59.023437 0 3.722656.28125 7.375.8125 10.945313-13.574219 11.546875-22.210938 28.726562-22.210938 47.945312 0 13.460938 4.261719 25.910157 11.457031 36.144531-1.75 6.296876-2.707031 12.925782-2.707031 19.777344 0 24.757813 12.222656 46.648438 30.949219 60.011719 6.109375 30.515625 31.0625 54.226563 62.210937 58.472656-3.257812.4375-6.578125.679688-9.960937.679688-35.71875 0-65.5-25.417969-72.25-59.152344-18.726563-13.363281-30.949219-35.253906-30.949219-60.011719 0-6.851562.957031-13.480468 2.707031-19.777344-7.199219-10.234374-11.460937-22.683593-11.460937-36.144531zm0 0" fill="#ff61b5"/><g fill="#690589"><path d="m190.730469 376.949219c-36.378907 0-68.027344-25.484375-75.851563-60.824219-19.660156-14.644531-31.347656-37.828125-31.347656-62.339844 0-6.402344.792969-12.796875 2.371094-19.035156-7.285156-10.988281-11.125-23.703125-11.125-36.886719 0-18.902343 7.980468-36.832031 21.960937-49.539062-.375-3.113281-.5625-6.25-.5625-9.351563 0-24.015625 10.726563-46.113281 29.507813-60.953125 0-.109375 0-.214843 0-.324219 0-42.839843 34.851562-77.695312 77.691406-77.695312 18.84375 0 37.058594 6.945312 51.28125 19.554688.855469.757812 1.347656 1.847656 1.347656 2.992187v317.289063c0 .785156-.230468 1.546874-.664062 2.203124-14.453125 21.859376-38.605469 34.910157-64.609375 34.910157zm12.644531-368.945313c-38.425781 0-69.691406 31.265625-69.691406 69.695313 0 .515625.015625 1.027343.035156 1.539062l.019531.59375c.039063 1.300781-.558593 2.542969-1.601562 3.320313-17.769531 13.308594-27.957031 33.65625-27.957031 55.824218 0 3.433594.257812 6.917969.769531 10.355469.203125 1.367188-.3125 2.738281-1.363281 3.632813-13.222657 11.25-20.804688 27.613281-20.804688 44.898437 0 12.160157 3.710938 23.863281 10.730469 33.84375.691406.980469.902343 2.21875.582031 3.371094-1.699219 6.117187-2.558594 12.40625-2.558594 18.710937 0 22.457032 10.941406 43.675782 29.269532 56.753907.828124.589843 1.402343 1.476562 1.597656 2.472656 6.488281 32.410156 35.226562 55.9375 68.332031 55.9375 22.917969 0 44.238281-11.316406 57.269531-30.332031v-314.242188c-12.695312-10.71875-28.089844-16.375-44.628906-16.375zm48.625 331.835938h.019531zm0 0"/><path d="m123.335938 117.828125c-.535157 0-1.074219-.105469-1.59375-.332031-2.023438-.875-2.957032-3.230469-2.078126-5.261719 4.566407-10.53125 10.945313-20.175781 18.957032-28.667969 1.511718-1.605468 4.042968-1.679687 5.652344-.164062 1.609374 1.515625 1.683593 4.046875.167968 5.652344-7.375 7.816406-13.238281 16.6875-17.433594 26.367187-.65625 1.507813-2.128906 2.40625-3.671874 2.40625zm0 0"/><path d="m155.300781 169.269531c-1.023437 0-2.046875-.390625-2.828125-1.171875-10.429687-10.433594-24.296875-16.175781-39.050781-16.175781-3.957031 0-7.902344.417969-11.730469 1.246094-2.164062.453125-4.289062-.90625-4.753906-3.0625-.46875-2.160157.90625-4.292969 3.066406-4.757813 4.378906-.949218 8.894532-1.425781 13.421875-1.425781 16.886719 0 32.765625 6.574219 44.707031 18.519531 1.5625 1.5625 1.5625 4.09375 0 5.65625-.78125.78125-1.808593 1.171875-2.832031 1.171875zm0 0"/><path d="m251.765625 265.746094c-1.027344 0-2.050781-.390625-2.828125-1.171875-10.429688-10.433594-24.300781-16.175781-39.054688-16.175781-3.957031 0-7.902343.417968-11.730468 1.246093-2.160156.457031-4.285156-.90625-4.753906-3.0625-.464844-2.15625.90625-4.289062 3.066406-4.757812 4.378906-.945313 8.894531-1.425781 13.417968-1.425781 16.890626 0 32.769532 6.574218 44.710938 18.519531 1.558594 1.5625 1.558594 4.09375 0 5.65625-.78125.78125-1.804688 1.171875-2.828125 1.171875zm0 0"/><path d="m215.542969 103.359375c-2.207031 0-4-1.792969-4-4 0-7.707031 5.011719-16.136719 13.082031-21.996094 8.824219-6.402343 19.335938-8.300781 28.847656-5.203125 2.101563.6875 3.25 2.945313 2.566406 5.042969-.6875 2.101563-2.941406 3.246094-5.042968 2.566406-7.046875-2.292969-14.945313-.8125-21.671875 4.070313-5.847657 4.246094-9.78125 10.480468-9.78125 15.519531 0 2.210937-1.789063 4-4 4zm0 0"/><path d="m118.476562 317.789062c-2.207031 0-4-1.792968-4-4 0-8.648437 5.652344-18.125 14.75-24.726562 9.953126-7.222656 21.808594-9.371094 32.53125-5.875 2.097657.683594 3.246094 2.941406 2.5625 5.039062-.6875 2.101563-2.945312 3.25-5.042968 2.566407-8.25-2.6875-17.492188-.957031-25.351563 4.746093-6.847656 4.96875-11.445312 12.304688-11.445312 18.253907-.003907 2.207031-1.792969 3.996093-4.003907 3.996093zm0 0"/><path d="m185.890625 306.839844c-8.648437 0-18.125-5.648438-24.730469-14.746094-7.222656-9.957031-9.367187-21.8125-5.875-32.53125.683594-2.101562 2.941406-3.253906 5.042969-2.5625 2.101563.683594 3.246094 2.941406 2.5625 5.042969-2.6875 8.253906-.957031 17.492187 4.746094 25.351562 4.96875 6.847657 12.304687 11.449219 18.253906 11.449219 2.210937 0 4 1.789062 4 4 0 2.207031-1.789063 3.996094-4 3.996094zm0 0"/><path d="m313.269531 376.949219c-26.003906 0-50.15625-13.050781-64.605469-34.90625-.433593-.65625-.664062-1.421875-.664062-2.207031v-317.285157c0-1.144531.488281-2.234375 1.347656-2.992187 14.21875-12.609375 32.429688-19.55468775 51.277344-19.55468775 42.839844 0 77.691406 34.85546875 77.691406 77.69531275v.324219c18.78125 14.839843 29.507813 36.9375 29.507813 60.953124 0 3.105469-.191407 6.242188-.5625 9.351563 13.984375 12.707031 21.960937 30.636719 21.960937 49.539063 0 13.1875-3.839844 25.898437-11.125 36.886718 1.574219 6.234375 2.371094 12.628906 2.371094 19.035156 0 24.511719-11.691406 47.695313-31.351562 62.339844-7.824219 35.335938-39.46875 60.820313-75.847657 60.820313zm-57.269531-38.332031c13.03125 19.015624 34.351562 30.332031 57.269531 30.332031 33.105469 0 61.84375-23.527344 68.332031-55.9375.199219-.996094.769532-1.882813 1.597657-2.472657 18.328125-13.078124 29.269531-34.296874 29.269531-56.753906 0-6.304687-.859375-12.597656-2.558594-18.710937-.316406-1.152344-.105468-2.386719.582032-3.371094 7.023437-9.980469 10.730468-21.683594 10.730468-33.84375 0-17.285156-7.582031-33.648437-20.800781-44.898437-1.050781-.894532-1.566406-2.269532-1.367187-3.632813.511718-3.433594.769531-6.917969.769531-10.355469 0-22.167968-10.191407-42.515625-27.957031-55.824218-1.042969-.78125-1.636719-2.015626-1.601563-3.316407l.023437-.648437c.015626-.496094.03125-.988282.03125-1.488282 0-38.429687-31.261718-69.691406-69.691406-69.691406-16.542968 0-31.933594 5.652344-44.625 16.375v314.238282zm0 0"/><path d="m319.921875 99.925781c-1.023437 0-2.046875-.390625-2.828125-1.171875-1.5625-1.5625-1.5625-4.097656 0-5.65625 11.945312-11.945312 27.820312-18.519531 44.707031-18.519531 4.515625 0 9.035157.480469 13.421875 1.429687 2.160156.464844 3.535156 2.59375 3.066406 4.753907-.46875 2.15625-2.601562 3.523437-4.753906 3.0625-3.835937-.828125-7.785156-1.246094-11.734375-1.246094-14.75 0-28.617187 5.742187-39.050781 16.175781-.78125.78125-1.804688 1.171875-2.828125 1.171875zm0 0"/><path d="m252.234375 297.355469c-1.023437 0-2.042969-.390625-2.828125-1.171875-1.558594-1.5625-1.558594-4.09375 0-5.65625 11.941406-11.941406 27.820312-18.519532 44.710938-18.519532 4.523437 0 9.039062.480469 13.421874 1.429688 2.160157.464844 3.53125 2.597656 3.0625 4.753906-.46875 2.164063-2.601562 3.527344-4.753906 3.066406-3.828125-.828124-7.773437-1.25-11.730468-1.25-14.753907 0-28.625 5.746094-39.050782 16.175782-.78125.78125-1.808594 1.171875-2.832031 1.171875zm0 0"/><path d="m282.382812 53.9375c-.621093 0-1.25-.144531-1.839843-.453125-6.332031-3.289063-16.246094-6.433594-27.539063-2.761719-2.101562.683594-4.363281-.460937-5.042968-2.5625-.683594-2.101562.460937-4.359375 2.5625-5.042968 10.871093-3.542969 22.84375-2.378907 33.707031 3.269531 1.960937 1.019531 2.722656 3.433593 1.707031 5.394531-.714844 1.371094-2.109375 2.15625-3.554688 2.15625zm0 0"/><path d="m385.523438 317.789062c-2.210938 0-4-1.792968-4-4 0-7.972656-5.859376-17.375-14.921876-23.953124-10.21875-7.417969-22.25-9.65625-33.023437-6.152344-2.089844.691406-4.355469-.460938-5.039063-2.5625-.6875-2.101563.460938-4.359375 2.5625-5.042969 13.226563-4.3125 27.882813-1.65625 40.199219 7.285156 11.066407 8.035157 18.21875 19.976563 18.21875 30.425781.003907 2.210938-1.789062 4-3.996093 4zm0 0"/><path d="m351.308594 135.667969c-2.207032 0-4-1.792969-4-4 0-7.96875-5.855469-17.375-14.921875-23.953125-10.214844-7.417969-22.25-9.660156-33.023438-6.152344-2.089843.695312-4.355469-.460938-5.042969-2.566406-.683593-2.097656.464844-4.355469 2.566407-5.039063 13.226562-4.316406 27.882812-1.65625 40.199219 7.28125 11.066406 8.039063 18.21875 19.980469 18.21875 30.429688.003906 2.207031-1.785157 4-3.996094 4zm0 0"/><path d="m129.015625 261.519531c-.074219 0-.148437 0-.222656-.003906-1.472657-.082031-2.785157-.96875-3.40625-2.308594l-45.269531-97.382812-24.675782 43.660156c-.710937 1.253906-2.039062 2.03125-3.480468 2.03125h-47.960938c-2.207031 0-4-1.792969-4-4s1.792969-4 4-4h45.625l27.355469-48.402344c.738281-1.304687 2.164062-2.085937 3.640625-2.027343 1.5.058593 2.835937.953124 3.46875 2.308593l45.386718 97.640625 28.851563-47.59375c.777344-1.277344 2.179687-2.03125 3.679687-1.917968 1.488282.09375 2.796876 1.011718 3.402344 2.375l10.296875 23.304687 32.738281-57.636719c.675782-1.195312 1.917969-1.957031 3.285157-2.023437 1.367187-.046875 2.675781.578125 3.464843 1.699219l22.855469 32.582031 46.710938-82.367188c.722656-1.273437 2.109375-2.019531 3.550781-2.027343 1.464844.027343 2.800781.855468 3.476562 2.15625l55.589844 106.949218 23.59375-58.492187c.558594-1.390625 1.851563-2.347657 3.34375-2.484375 1.507813-.140625 2.9375.570312 3.738282 1.835937l17.859374 28.082031h104.085938c2.207031 0 4 1.792969 4 4 0 2.207032-1.792969 4-4 4h-106.28125c-1.367188 0-2.640625-.699218-3.375-1.855468l-14.863281-23.371094-23.933594 59.335938c-.582031 1.449218-1.957031 2.425781-3.515625 2.5-1.589844.042968-3.023438-.765626-3.742188-2.148438l-56.199218-108.128906-46.203125 81.464844c-.675781 1.195312-1.917969 1.957031-3.285157 2.023437-1.363281.046875-2.679687-.574219-3.46875-1.699219l-22.855468-32.585937-33.539063 59.054687c-.746093 1.3125-2.191406 2.105469-3.679687 2.019532-1.507813-.074219-2.84375-.996094-3.457032-2.375l-10.40625-23.558594-28.761718 47.445312c-.726563 1.195313-2.027344 1.921875-3.417969 1.921875zm0 0"/></g><path d="m301.226562 188.476562c0 27.1875-22.039062 49.226563-49.226562 49.226563s-49.226562-22.039063-49.226562-49.226563 22.039062-49.226562 49.226562-49.226562 49.226562 22.039062 49.226562 49.226562zm0 0" fill="#7bac51"/><path d="m279.964844 178.949219h-18.832032v-18.832031h-19.054687v18.832031h-18.832031v19.054687h18.832031v18.832032h19.054687v-18.832032h18.832032zm0 0" fill="#f4efed"/><path d="m261.132812 220.835938h-19.054687c-2.207031 0-4-1.792969-4-4v-14.832032h-14.832031c-2.207032 0-4-1.792968-4-4v-19.054687c0-2.207031 1.792968-4 4-4h14.832031v-14.828125c0-2.210938 1.792969-4 4-4h19.054687c2.210938 0 4 1.789062 4 4v14.828125h14.832032c2.207031 0 4 1.792969 4 4v19.054687c0 2.207032-1.792969 4-4 4h-14.832032v14.832032c0 2.207031-1.789062 4-4 4zm-15.054687-8h11.058594v-14.832032c0-2.207031 1.792969-4 4-4h14.828125v-11.054687h-14.828125c-2.207031 0-4-1.792969-4-4v-14.828125h-11.058594v14.828125c0 2.207031-1.789063 4-4 4h-14.832031v11.054687h14.832031c2.210937 0 4 1.792969 4 4zm0 0" fill="#690589"/><path d="m252 241.699219c-29.347656 0-53.222656-23.875-53.222656-53.222657 0-29.347656 23.875-53.222656 53.222656-53.222656s53.222656 23.875 53.222656 53.222656c0 29.347657-23.875 53.222657-53.222656 53.222657zm0-98.445313c-24.9375 0-45.222656 20.285156-45.222656 45.222656 0 24.933594 20.285156 45.222657 45.222656 45.222657s45.222656-20.289063 45.222656-45.222657c0-24.9375-20.285156-45.222656-45.222656-45.222656zm0 0" fill="#690589"/></svg>