<svg height="504pt" viewBox="-100 0 503 504" width="504pt" xmlns="http://www.w3.org/2000/svg"><path d="m112.839844 94.007812h78.089844l12.109374-76.222656c1.148438-7.234375-4.445312-13.785156-11.769531-13.785156h-78.773437c-7.324219 0-12.917969 6.550781-11.765625 13.785156zm0 0" fill="#fcc24c"/><path d="m191.269531 4h-20c7.328125 0 12.917969 6.550781 11.769531 13.785156l-12.109374 76.222656h20l12.109374-76.222656c1.148438-7.234375-4.445312-13.785156-11.769531-13.785156zm0 0" fill="#dea42e"/><path d="m112.496094 4h20c-7.328125 0-12.917969 6.550781-11.769532 13.785156l12.109376 76.222656h-20l-12.109376-76.222656c-1.148437-7.234375 4.445313-13.785156 11.769532-13.785156zm0 0" fill="#fce06a"/><path d="m195.414062 94.007812h-87.066406c-6.582031 0-11.914062 5.335938-11.914062 11.914063v54.554687h110.894531v-54.554687c.003906-6.578125-5.332031-11.914063-11.914063-11.914063zm0 0" fill="#7bac51"/><path d="m275.433594 500h-247.101563c-13.160156 0-23.835937-10.671875-23.835937-23.832031v-291.859375c0-13.160156 10.671875-23.832032 23.835937-23.832032h247.101563c13.160156 0 23.832031 10.671876 23.832031 23.832032v291.859375c0 13.160156-10.667969 23.832031-23.832031 23.832031zm0 0" fill="#7bac51"/><path d="m28.332031 160.476562h20c-13.160156 0-23.835937 10.667969-23.835937 23.832032v291.855468c0 13.164063 10.671875 23.832032 23.835937 23.832032h-20c-13.160156 0-23.835937-10.667969-23.835937-23.832032v-291.855468c0-13.164063 10.671875-23.832032 23.835937-23.832032zm0 0" fill="#99ca6f"/><path d="m275.433594 160.476562h-20c13.160156 0 23.832031 10.667969 23.832031 23.832032v291.855468c0 13.164063-10.667969 23.832032-23.832031 23.832032h20c13.160156 0 23.832031-10.667969 23.832031-23.832032v-291.855468c0-13.164063-10.671875-23.832032-23.832031-23.832032zm0 0" fill="#5d8e33"/><path d="m4.496094 251.066406h294.769531v158.34375h-294.769531zm0 0" fill="#f4efed"/><path d="m195.414062 94.007812h-20c6.582032 0 11.914063 5.335938 11.914063 11.914063v54.554687h20v-54.554687c.003906-6.578125-5.332031-11.914063-11.914063-11.914063zm0 0" fill="#5d8e33"/><path d="m108.347656 94.007812h20c-6.582031 0-11.914062 5.335938-11.914062 11.914063v54.554687h-20v-54.554687c0-6.578125 5.335937-11.914063 11.914062-11.914063zm0 0" fill="#99ca6f"/><path d="m279.265625 251.066406h20v158.34375h-20zm0 0" fill="#d6d1cf"/><path d="m4.496094 251.066406h20v158.34375h-20zm0 0" fill="#fff"/><path d="m151.882812 388.664062c-29.753906 0-48.347656-32.203124-33.472656-57.96875l33.472656-57.972656 33.46875 57.972656c14.875 25.765626-3.71875 57.96875-33.46875 57.96875zm0 0" fill="#7bac51"/><g fill="#690589"><path d="m151.882812 392.664062c-15.417968 0-29.226562-7.96875-36.9375-21.320312-7.707031-13.355469-7.707031-29.296875 0-42.648438l33.46875-57.972656c.714844-1.238281 2.039063-2 3.464844-2 1.429688 0 2.75.761719 3.464844 2l33.46875 57.972656c7.710938 13.351563 7.710938 29.292969 0 42.648438-7.703125 13.351562-21.511719 21.320312-36.929688 21.320312zm0-111.941406-30.007812 51.972656c-6.261719 10.847657-6.261719 23.800782 0 34.648438s17.480469 17.320312 30.007812 17.320312c12.523438 0 23.742188-6.472656 30.003907-17.320312 6.265625-10.847656 6.265625-23.800781 0-34.648438zm0 0"/><path d="m207.332031 164.476562h-110.898437c-2.207032 0-4-1.792968-4-4v-54.554687c0-8.777344 7.140625-15.914063 15.917968-15.914063h87.0625c8.777344 0 15.917969 7.136719 15.917969 15.914063v54.554687c0 2.210938-1.792969 4-4 4zm-106.898437-8h102.894531v-50.554687c0-4.367187-3.546875-7.914063-7.914063-7.914063h-87.066406c-4.367187 0-7.914062 3.546876-7.914062 7.914063zm0 0"/><path d="m190.925781 98.007812h-78.089843c-1.964844 0-3.640626-1.433593-3.953126-3.375l-12.109374-76.21875c-.730469-4.605468.585937-9.285156 3.613281-12.832031 3.035156-3.546875 7.445312-5.582031 12.109375-5.582031h78.773437c4.664063 0 9.078125 2.035156 12.105469 5.585938 3.027344 3.546874 4.347656 8.222656 3.613281 12.828124l-12.109375 76.222657c-.308594 1.9375-1.984375 3.371093-3.953125 3.371093zm-74.671875-8h71.261719l11.570313-72.851562c.367187-2.289062-.289063-4.617188-1.792969-6.378906-1.511719-1.765625-3.703125-2.777344-6.027344-2.777344h-78.769531c-2.320313 0-4.515625 1.011719-6.023438 2.777344-1.507812 1.765625-2.160156 4.089844-1.792968 6.378906zm0 0"/><path d="m275.433594 504h-247.101563c-15.347656 0-27.832031-12.484375-27.832031-27.835938v-291.855468c0-15.347656 12.484375-27.832032 27.832031-27.832032h247.101563c15.347656 0 27.832031 12.484376 27.832031 27.832032v291.859375c0 15.347656-12.488281 27.832031-27.832031 27.832031zm-247.101563-339.523438c-10.9375 0-19.832031 8.898438-19.832031 19.832032v291.859375c0 10.9375 8.894531 19.835937 19.832031 19.835937h247.101563c10.9375 0 19.832031-8.898437 19.832031-19.835937v-291.859375c0-10.933594-8.894531-19.832032-19.832031-19.832032zm0 0"/><path d="m299.265625 413.410156h-294.765625c-2.207031 0-4-1.792968-4-4v-158.34375c0-2.207031 1.792969-4 4-4h294.765625c2.207031 0 4 1.792969 4 4v158.34375c0 2.207032-1.792969 4-4 4zm-290.765625-8h286.765625v-150.34375h-286.765625zm0 0"/><path d="m20.5 301.800781c-2.207031 0-4-1.792969-4-4v-24c0-2.207031 1.792969-4 4-4s4 1.792969 4 4v24c0 2.207031-1.792969 4-4 4zm0 0"/></g></svg>