<svg height="504pt" viewBox="-34 0 504 504" width="504pt" xmlns="http://www.w3.org/2000/svg"><path d="m47.65625 153.554688v196.890624l170.511719 98.441407 170.507812-98.441407v-196.890624l-170.507812-98.441407zm0 0" fill="#fcc24c"/><path d="m368.496094 141.90625v220.1875l20.179687-11.648438v-196.890624zm0 0" fill="#dea42e"/><path d="m67.839844 141.90625v220.1875l-20.183594-11.648438v-196.890624zm0 0" fill="#fce06a"/><path d="m88.4375 177.101562v149.796876l129.730469 74.902343 129.730469-74.902343v-149.796876l-129.730469-74.902343zm0 0" fill="#f4efed"/><g fill="#690589"><path d="m218.167969 452.886719c-.691407 0-1.378907-.179688-2-.535157l-170.507813-98.445312c-1.238281-.714844-2-2.035156-2-3.464844v-196.886718c0-1.425782.761719-2.75 2-3.460938l170.507813-98.445312c1.238281-.714844 2.761719-.714844 4 0l170.507812 98.445312c1.238281.710938 2 2.035156 2 3.460938v196.886718c0 1.429688-.761719 2.75-2 3.464844l-170.507812 98.445312c-.621094.355469-1.308594.535157-2 .535157zm-166.511719-104.753907 166.507812 96.136719 166.511719-96.136719v-192.265624l-166.511719-96.136719-166.507812 96.136719zm0 0"/><path d="m63.800781 229.167969c-2.207031 0-4-1.792969-4-4v-24c0-2.207031 1.792969-4 4-4 2.210938 0 4 1.792969 4 4v24c0 2.210937-1.789062 4-4 4zm0 0"/><path d="m218.167969 405.800781c-.691407 0-1.378907-.179687-2-.535156l-129.730469-74.902344c-1.238281-.714843-2-2.035156-2-3.464843v-149.796876c0-1.429687.761719-2.75 2-3.464843l129.730469-74.902344c1.238281-.710937 2.761719-.710937 4 0l129.730469 74.902344c1.238281.714843 2 2.035156 2 3.464843v149.796876c0 1.429687-.761719 2.75-2 3.464843l-129.730469 74.902344c-.621094.355469-1.308594.535156-2 .535156zm-125.730469-81.210937 125.730469 72.589844 125.730469-72.589844v-145.179688l-125.730469-72.589844-125.730469 72.589844zm0 0"/><path d="m218.59375 59.113281c-2.207031 0-4-1.792969-4-4v-51.113281c0-2.207031 1.792969-4 4-4s4 1.792969 4 4v51.113281c0 2.207031-1.792969 4-4 4zm0 0"/><path d="m218.59375 504c-2.207031 0-4-1.792969-4-4v-51.113281c0-2.207031 1.792969-4 4-4s4 1.792969 4 4v51.113281c0 2.207031-1.792969 4-4 4zm0 0"/><path d="m388.964844 157.308594c-1.382813 0-2.726563-.714844-3.464844-1.996094-1.109375-1.910156-.457031-4.355469 1.457031-5.464844l44.226563-25.621094c1.910156-1.105468 4.359375-.453124 5.464844 1.457032 1.109374 1.914062.457031 4.359375-1.453126 5.464844l-44.230468 25.621093c-.632813.367188-1.320313.539063-2 .539063zm0 0"/><path d="m4.003906 380.3125c-1.378906 0-2.722656-.714844-3.464844-1.996094-1.105468-1.914062-.4570308-4.359375 1.457032-5.464844l44.226562-25.621093c1.910156-1.109375 4.359375-.457031 5.46875 1.457031 1.105469 1.910156.453125 4.355469-1.457031 5.464844l-44.226563 25.621094c-.632812.363281-1.324218.539062-2.003906.539062zm0 0"/><path d="m48.222656 157.308594c-.679687 0-1.367187-.171875-2-.539063l-44.226562-25.621093c-1.9140628-1.105469-2.5625-3.550782-1.457032-5.464844 1.105469-1.910156 3.558594-2.5625 5.46875-1.457032l44.226563 25.621094c1.910156 1.109375 2.5625 3.554688 1.457031 5.464844-.742187 1.28125-2.085937 1.996094-3.46875 1.996094zm0 0"/><path d="m433.183594 380.3125c-.679688 0-1.371094-.175781-2-.539062l-44.226563-25.621094c-1.914062-1.109375-2.566406-3.554688-1.457031-5.464844 1.105469-1.914062 3.554688-2.566406 5.464844-1.457031l44.230468 25.621093c1.910157 1.105469 2.5625 3.550782 1.453126 5.464844-.742188 1.28125-2.085938 1.996094-3.464844 1.996094zm0 0"/></g><path d="m242.539062 43.960938c-6.160156-13.222657-21.871093-18.941407-35.09375-12.78125-13.21875 6.164062-18.941406 21.875-12.777343 35.09375 6.160156 13.21875 21.875 18.941406 35.09375 12.78125 13.21875-6.164063 18.941406-21.875 12.777343-35.09375zm0 0" fill="#7bac51"/><path d="m223.042969 422.859375c-14.375-2.457031-28.023438 7.203125-30.480469 21.582031-2.457031 14.375 7.203125 28.019532 21.582031 30.476563 14.375 2.460937 28.019531-7.203125 30.480469-21.578125 2.457031-14.378906-7.207031-28.023438-21.582031-30.480469zm0 0" fill="#7bac51"/><path d="m53.75 325.796875c-14.1875-3.371094-28.425781 5.398437-31.792969 19.589844-3.371093 14.191406 5.398438 28.425781 19.589844 31.796875 14.1875 3.367187 28.421875-5.402344 31.792969-19.589844 3.371094-14.191406-5.398438-28.425781-19.589844-31.796875zm0 0" fill="#99ca6f"/><path d="m53.757812 128.46875c-14.1875-3.371094-28.425781 5.398438-31.792968 19.589844-3.371094 14.1875 5.398437 28.421875 19.585937 31.792968 14.191407 3.371094 28.425781-5.398437 31.796875-19.589843 3.371094-14.1875-5.398437-28.421875-19.589844-31.792969zm0 0" fill="#99ca6f"/><path d="m407.34375 332.800781c-10.3125-10.3125-27.03125-10.3125-37.347656 0-10.3125 10.3125-10.3125 27.03125 0 37.34375 10.316406 10.3125 27.035156 10.3125 37.347656 0s10.3125-27.03125 0-37.34375zm0 0" fill="#5d8e33"/><path d="m407.34375 135.480469c-10.3125-10.316407-27.03125-10.316407-37.34375 0-10.3125 10.3125-10.3125 27.03125 0 37.34375s27.03125 10.3125 37.34375 0 10.3125-27.03125 0-37.34375zm0 0" fill="#5d8e33"/><path d="m218.59375 85.523438c-16.769531 0-30.410156-13.644532-30.410156-30.410157 0-16.769531 13.640625-30.410156 30.410156-30.410156s30.410156 13.644531 30.410156 30.410156c0 16.769531-13.640625 30.410157-30.410156 30.410157zm0-52.820313c-12.355469 0-22.410156 10.054687-22.410156 22.410156 0 12.359375 10.054687 22.410157 22.410156 22.410157s22.410156-10.054688 22.410156-22.410157c0-12.359375-10.054687-22.410156-22.410156-22.410156zm0 0" fill="#690589"/><path d="m218.59375 479.296875c-16.769531 0-30.410156-13.644531-30.410156-30.410156 0-16.769531 13.640625-30.410157 30.410156-30.410157s30.410156 13.640626 30.410156 30.410157c0 16.765625-13.640625 30.410156-30.410156 30.410156zm0-52.820313c-12.355469 0-22.410156 10.054688-22.410156 22.410157 0 12.359375 10.050781 22.410156 22.410156 22.410156s22.410156-10.050781 22.410156-22.410156c0-12.355469-10.054687-22.410157-22.410156-22.410157zm0 0" fill="#690589"/><path d="m47.65625 381.878906c-16.765625 0-30.410156-13.640625-30.410156-30.40625 0-16.769531 13.644531-30.410156 30.410156-30.410156 16.769531 0 30.410156 13.640625 30.410156 30.410156 0 16.765625-13.640625 30.40625-30.410156 30.40625zm0-52.816406c-12.355469 0-22.410156 10.050781-22.410156 22.410156 0 12.355469 10.054687 22.40625 22.410156 22.40625 12.359375 0 22.410156-10.050781 22.410156-22.40625 0-12.355468-10.050781-22.410156-22.410156-22.410156zm0 0" fill="#690589"/><path d="m47.65625 184.558594c-16.765625 0-30.410156-13.640625-30.410156-30.410156 0-16.765626 13.644531-30.410157 30.410156-30.410157 16.769531 0 30.410156 13.644531 30.410156 30.410157 0 16.769531-13.640625 30.410156-30.410156 30.410156zm0-52.816406c-12.355469 0-22.410156 10.050781-22.410156 22.410156 0 12.355468 10.054687 22.40625 22.410156 22.40625 12.359375 0 22.410156-10.050782 22.410156-22.40625 0-12.359375-10.050781-22.410156-22.410156-22.410156zm0 0" fill="#690589"/><path d="m388.675781 381.878906c-16.769531 0-30.40625-13.640625-30.40625-30.40625 0-16.769531 13.636719-30.410156 30.40625-30.410156s30.410157 13.640625 30.410157 30.410156c0 16.765625-13.640626 30.40625-30.410157 30.40625zm0-52.816406c-12.355469 0-22.40625 10.050781-22.40625 22.410156 0 12.355469 10.050781 22.40625 22.40625 22.40625s22.410157-10.050781 22.410157-22.40625c0-12.355468-10.054688-22.410156-22.410157-22.410156zm0 0" fill="#690589"/><path d="m388.675781 184.558594c-16.769531 0-30.40625-13.640625-30.40625-30.410156 0-16.765626 13.636719-30.410157 30.40625-30.410157s30.410157 13.644531 30.410157 30.410157c0 16.769531-13.640626 30.410156-30.410157 30.410156zm0-52.816406c-12.355469 0-22.40625 10.050781-22.40625 22.410156 0 12.355468 10.050781 22.40625 22.40625 22.40625s22.410157-10.050782 22.410157-22.40625c0-12.359375-10.054688-22.410156-22.410157-22.410156zm0 0" fill="#690589"/><path d="m218.59375 141.90625c-42.367188 24.519531-70.890625 70.296875-70.890625 122.765625 0 15.636719 2.53125 30.679687 7.207031 44.738281 20.144532 60.554688 107.222656 60.554688 127.363282 0 4.679687-14.0625 7.210937-29.105468 7.210937-44.738281 0-52.46875-28.523437-98.246094-70.890625-122.765625zm0 0" fill="#7bac51"/><path d="m218.59375 141.90625c-.003906 0-.007812.003906-.011719.007812 30.691407 27.914063 50.195313 69.554688 50.195313 116.125 0 16.785157-2.53125 32.933594-7.210938 48.03125-8.789062 28.367188-30.324218 44.351563-53.476562 47.960938 29.992187 4.492188 62.792968-10.371094 74.183594-44.621094 4.679687-14.058594 7.210937-29.101562 7.210937-44.734375 0-52.472656-28.523437-98.25-70.890625-122.769531zm0 0" fill="#5d8e33"/><path d="m218.59375 141.90625c.003906 0 .007812.003906.011719.007812-30.691407 27.914063-50.195313 69.554688-50.195313 116.125 0 16.785157 2.535156 32.933594 7.210938 48.03125 8.785156 28.367188 30.324218 44.351563 53.480468 47.960938-29.996093 4.492188-62.796874-10.371094-74.1875-44.621094-4.679687-14.058594-7.210937-29.101562-7.210937-44.734375 0-52.472656 28.523437-98.25 70.890625-122.769531zm0 0" fill="#99ca6f"/><path d="m218.152344 358.828125c-2.207032 0-4-1.792969-4-4v-157.3125c0-2.207031 1.792968-4 4-4 2.207031 0 4 1.792969 4 4v157.3125c0 2.207031-1.792969 4-4 4zm0 0" fill="#690589"/><path d="m218.152344 328.011719c-.96875 0-1.9375-.351563-2.703125-1.050781l-41.328125-37.839844c-1.628906-1.492188-1.742188-4.023438-.25-5.652344 1.492187-1.628906 4.019531-1.742188 5.652344-.25l38.710937 35.445312 41.410156-35.53125c1.671875-1.4375 4.203125-1.246093 5.640625.429688s1.246094 4.203125-.429687 5.640625l-44.097657 37.839844c-.75.648437-1.679687.96875-2.605468.96875zm0 0" fill="#690589"/><path d="m218.152344 267.433594c-.96875 0-1.9375-.347656-2.703125-1.050782l-41.328125-37.835937c-1.628906-1.492187-1.742188-4.023437-.25-5.652344 1.492187-1.628906 4.019531-1.742187 5.652344-.25l38.710937 35.445313 41.410156-35.53125c1.671875-1.4375 4.199219-1.246094 5.640625.429687 1.4375 1.675781 1.246094 4.203125-.433594 5.640625l-44.097656 37.839844c-.746094.644531-1.675781.964844-2.601562.964844zm0 0" fill="#690589"/><path d="m218.59375 358.828125c-31.261719 0-57.746094-18.902344-67.476562-48.152344-4.917969-14.792969-7.414063-30.269531-7.414063-46 0-51.84375 27.929687-100.210937 72.886719-126.230469 1.238281-.714843 2.769531-.714843 4.007812 0 44.957032 26.019532 72.886719 74.386719 72.886719 126.230469 0 15.730469-2.496094 31.210938-7.414063 46-9.730468 29.25-36.214843 48.152344-67.476562 48.152344zm0-212.277344c-41.320312 24.855469-66.890625 69.898438-66.890625 118.121094 0 14.875 2.359375 29.503906 7.007813 43.476563 8.621093 25.925781 32.128906 42.675781 59.882812 42.675781s51.261719-16.75 59.882812-42.675781c4.648438-13.972657 7.007813-28.601563 7.007813-43.476563 0-48.222656-25.570313-93.265625-66.890625-118.121094zm0 0" fill="#690589"/></svg>