<svg height="504pt" viewBox="-46 0 503 504" width="504pt" xmlns="http://www.w3.org/2000/svg"><path d="m334.4375 500h-309.941406c-11.042969 0-20-8.953125-20-20v-456c0-11.046875 8.957031-20 20-20h309.941406c11.042969 0 20 8.953125 20 20v456c0 11.046875-8.953125 20-20 20zm0 0" fill="#f4efed"/><path d="m334.4375 4h-20c11.046875 0 20 8.953125 20 20v456c0 11.046875-8.953125 20-20 20h20c11.046875 0 20-8.953125 20-20v-456c0-11.046875-8.953125-20-20-20zm0 0" fill="#d6d1cf"/><path d="m24.496094 500h20c-11.042969 0-20-8.953125-20-20v-456c0-11.046875 8.957031-20 20-20h-20c-11.042969 0-20 8.953125-20 20v456c0 11.046875 8.957031 20 20 20zm0 0" fill="#fff"/><path d="m78.707031 79.105469-12.320312 6.472656 2.355469-13.714844-9.964844-9.714843 13.769531-2 6.160156-12.476563 6.160157 12.476563 13.769531 2-9.964844 9.714843 2.351563 13.714844zm0 0" fill="#fcc24c"/><path d="m280.230469 79.105469-12.320313 6.472656 2.355469-13.714844-9.96875-9.714843 13.773437-2 6.160157-12.476563 6.15625 12.476563 13.773437 2-9.964844 9.714843 2.351563 13.714844zm0 0" fill="#fcc24c"/><g fill="#690589"><path d="m334.4375 504h-309.9375c-13.234375 0-24-10.765625-24-24v-456c0-13.234375 10.765625-24 24-24h309.9375c13.234375 0 24 10.765625 24 24v456c0 13.234375-10.765625 24-24 24zm-309.9375-496c-8.820312 0-16 7.179688-16 16v456c0 8.820312 7.179688 16 16 16h309.9375c8.824219 0 16-7.179688 16-16v-456c0-8.820312-7.175781-16-16-16zm0 0"/><path d="m91.023438 89.578125c-.636719 0-1.277344-.148437-1.863282-.457031l-10.457031-5.496094-10.457031 5.496094c-1.347656.707031-2.976563.589844-4.210938-.304688-1.234375-.894531-1.847656-2.410156-1.589844-3.914062l1.996094-11.640625-8.460937-8.246094c-1.089844-1.0625-1.480469-2.652344-1.011719-4.101563.472656-1.445312 1.722656-2.5 3.230469-2.71875l11.691406-1.703124 5.226563-10.59375c.671874-1.363282 2.0625-2.226563 3.585937-2.226563s2.914063.863281 3.585937 2.226563l5.230469 10.59375 11.691407 1.703124c1.507812.214844 2.757812 1.273438 3.230468 2.71875.46875 1.449219.078125 3.039063-1.011718 4.101563l-8.460938 8.246094 1.996094 11.644531c.257812 1.5-.359375 3.015625-1.589844 3.910156-.695312.503906-1.523438.761719-2.351562.761719zm-12.316407-14.472656c.636719 0 1.277344.152343 1.859375.457031l5.144532 2.707031-.980469-5.730469c-.21875-1.296874.207031-2.621093 1.148437-3.539062l4.164063-4.054688-5.75-.835937c-1.304688-.1875-2.429688-1.007813-3.011719-2.1875l-2.574219-5.214844-2.570312 5.214844c-.585938 1.179687-1.707031 2-3.015625 2.1875l-5.75.835937 4.164062 4.054688c.941406.917969 1.371094 2.242188 1.148438 3.542969l-.984375 5.726562 5.144531-2.707031c.582031-.304688 1.222656-.457031 1.863281-.457031zm0 0"/><path d="m267.910156 89.578125c-.824218 0-1.652344-.257813-2.351562-.761719-1.230469-.894531-1.847656-2.414062-1.589844-3.914062l1.996094-11.640625-8.457032-8.246094c-1.09375-1.0625-1.484374-2.652344-1.015624-4.101563.472656-1.449218 1.722656-2.503906 3.230468-2.722656l11.691406-1.699218 5.230469-10.59375c.671875-1.367188 2.0625-2.230469 3.585938-2.230469 1.523437 0 2.914062.863281 3.585937 2.230469l5.226563 10.59375 11.691406 1.699218c1.507813.21875 2.757813 1.273438 3.230469 2.722656.46875 1.449219.078125 3.039063-1.011719 4.101563l-8.460937 8.246094 1.996093 11.640625c.257813 1.5-.355469 3.019531-1.589843 3.914062-1.234376.894532-2.863282 1.011719-4.210938.304688l-10.457031-5.5-10.457031 5.5c-.585938.308594-1.226563.457031-1.863282.457031zm.984375-24.632813 4.160157 4.054688c.941406.917969 1.375 2.242188 1.152343 3.539062l-.984375 5.730469 5.144532-2.707031c1.164062-.613281 2.558593-.613281 3.722656 0l5.144531 2.703125-.984375-5.726563c-.222656-1.296874.207031-2.621093 1.148438-3.542968l4.164062-4.054688-5.75-.835937c-1.304688-.1875-2.429688-1.003907-3.015625-2.1875l-2.570313-5.210938-2.574218 5.210938c-.582032 1.179687-1.707032 2-3.011719 2.1875zm0 0"/><path d="m267.21875 143.371094h-175.5c-2.207031 0-4-1.792969-4-4 0-2.210938 1.792969-4 4-4h175.5c2.207031 0 4 1.789062 4 4 0 2.207031-1.792969 4-4 4zm0 0"/><path d="m307.21875 197.15625h-255.5c-2.207031 0-4-1.789062-4-4 0-2.207031 1.792969-4 4-4h255.5c2.207031 0 4 1.792969 4 4 0 2.210938-1.792969 4-4 4zm0 0"/><path d="m307.21875 250.945312h-255.5c-2.207031 0-4-1.792968-4-4 0-2.207031 1.792969-4 4-4h255.5c2.207031 0 4 1.792969 4 4 0 2.207032-1.792969 4-4 4zm0 0"/><path d="m307.21875 304.734375h-255.5c-2.207031 0-4-1.789063-4-4 0-2.207031 1.792969-4 4-4h255.5c2.207031 0 4 1.792969 4 4 0 2.210937-1.792969 4-4 4zm0 0"/><path d="m307.21875 358.523438h-255.5c-2.207031 0-4-1.792969-4-4 0-2.207032 1.792969-4 4-4h255.5c2.207031 0 4 1.792968 4 4 0 2.207031-1.792969 4-4 4zm0 0"/><path d="m179.46875 412.3125h-127.75c-2.207031 0-4-1.792969-4-4s1.792969-4 4-4h127.75c2.207031 0 4 1.792969 4 4s-1.792969 4-4 4zm0 0"/></g><path d="m294.472656 475.800781-68.65625-68.65625 22.316406-22.316406 46.339844 46.34375 89.835938-89.835937 22.316406 22.3125zm0 0" fill="#7bac51"/><path d="m294.472656 479.800781c-1.058594 0-2.078125-.421875-2.828125-1.171875l-68.65625-68.660156c-.75-.75-1.171875-1.765625-1.171875-2.828125 0-1.058594.421875-2.078125 1.171875-2.828125l22.316407-22.3125c1.5625-1.5625 4.09375-1.5625 5.65625 0l43.511718 43.515625 87.007813-87.007813c1.5625-1.5625 4.09375-1.5625 5.65625 0l22.316406 22.308594c.75.75 1.171875 1.769532 1.171875 2.832032s-.421875 2.078124-1.171875 2.828124l-112.152344 112.152344c-.75.75-1.765625 1.171875-2.828125 1.171875zm-63-72.65625 63 63 106.496094-106.496093-16.660156-16.65625-87.007813 87.007812c-1.5 1.5-4.15625 1.5-5.65625 0l-43.511719-43.515625zm0 0" fill="#690589"/><path d="m107.515625 94.449219v-47.929688c0-2.4375 1.949219-4.46875 4.464844-4.46875h26.566406c2.355469 0 4.46875 2.03125 4.46875 4.46875 0 2.519531-2.113281 4.550781-4.46875 4.550781h-22.011719v14.867188h18.925782c2.4375 0 4.46875 2.109375 4.46875 4.464844 0 2.519531-2.03125 4.550781-4.46875 4.550781h-18.925782v19.5c0 2.433594-2.03125 4.46875-4.550781 4.46875-2.519531-.003906-4.46875-2.035156-4.46875-4.472656zm0 0" fill="#690589"/><path d="m156.671875 94.449219v-47.929688c0-2.515625 1.949219-4.46875 4.464844-4.46875h9.585937c15.679688 0 28.351563 12.753907 28.351563 28.351563 0 15.761718-12.671875 28.515625-28.351563 28.515625h-9.585937c-2.515625 0-4.464844-2.03125-4.464844-4.46875zm9.015625-4.550781h5.035156c10.726563-.082032 19.335938-8.691407 19.335938-19.496094 0-10.640625-8.609375-19.335938-19.335938-19.335938h-5.035156zm0 0" fill="#690589"/><path d="m238.8125 85.515625h-19.742188l-3.980468 10.558594c-.730469 1.789062-2.4375 2.84375-4.222656 2.84375-.570313 0-1.054688-.082031-1.542969-.242188-2.355469-.894531-3.492188-3.496093-2.679688-5.851562l17.953125-47.847657c.730469-1.785156 2.519532-2.921874 4.304688-2.84375 1.871094-.082031 3.574218 1.058594 4.304687 2.84375l17.953125 47.847657c.8125 2.359375-.320312 4.957031-2.679687 5.851562-.40625.164063-.972657.242188-1.542969.242188-1.789062 0-3.492188-1.054688-4.140625-2.84375zm-3.335938-8.9375-6.578124-17.464844-6.582032 17.464844zm0 0" fill="#690589"/></svg>