<svg height="504pt" viewBox="0 -79 504 503" width="504pt" xmlns="http://www.w3.org/2000/svg"><path d="m89.203125 159.628906c-9.046875-9.046875-26.730469-6.035156-39.492187 6.726563-12.765626 12.765625-15.773438 30.445312-6.726563 39.492187 9.046875 9.050782 26.730469 6.039063 39.492187-6.722656 12.761719-12.765625 15.773438-30.445312 6.726563-39.496094zm0 0" fill="#99ca6f"/><path d="m378.265625 254.777344c-2.210937 0-4-1.792969-4-4v-81.898438c0-2.207031 1.789063-4 4-4 2.207031 0 4 1.792969 4 4v81.898438c0 2.207031-1.792969 4-4 4zm0 0" fill="#690589"/><path d="m431.183594 174.335938c21.742187-3.351563 39.882812-11.625 48.816406-21.140626-11.382812-6.382812-31.179688-8.8125-52.917969-5.460937-2.347656.363281-4.636719.792969-6.890625 1.261719 5.269532-4.046875 10.527344-8.632813 15.621094-13.730469 19.5-19.496094 31.710938-41.304687 33.691406-57.546875-16.238281 1.984375-38.050781 14.195312-57.546875 33.691406-6.710937 6.707032-12.527343 13.6875-17.394531 20.621094 3.324219-13.472656 5.214844-28.917969 5.214844-45.347656 0-35.160156-8.65625-65.839844-21.511719-82.269532-12.859375 16.429688-21.515625 47.109376-21.515625 82.269532 0 16.429687 1.890625 31.875 5.214844 45.347656-4.863282-6.933594-10.683594-13.914062-17.394532-20.621094-19.496093-19.5-41.304687-31.707031-57.546874-33.691406 1.984374 16.242188 14.195312 38.050781 33.691406 57.546875 5.09375 5.097656 10.351562 9.683594 15.625 13.730469-2.253906-.46875-4.550782-.902344-6.894532-1.261719-21.738281-3.351563-41.535156-.921875-52.917968 5.460937 8.933594 9.515626 27.078125 17.789063 48.816406 21.140626 9.9375 1.535156 19.453125 1.84375 27.957031 1.136718-2.136719 1.277344-4.28125 2.699219-6.40625 4.253906-11.25 8.246094-19.035156 18.207032-21.277343 26.171876 8.273437.261718 20.117187-4.160157 31.367187-12.40625 10.382813-7.605469 17.800781-16.671876 20.648437-24.289063.167969-.089844.347657-.171875.511719-.261719.039063.003906.078125.011719.117188.015625.039062-.003906.078125-.011719.117187-.015625.164063.089844.34375.171875.511719.261719 2.847656 7.613281 10.269531 16.683594 20.652344 24.289063 11.25 8.246093 23.09375 12.667968 31.363281 12.40625-2.242188-7.964844-10.027344-17.925782-21.277344-26.171876-2.121094-1.554687-4.265625-2.976562-6.40625-4.253906 8.507813.707032 18.023438.398438 27.960938-1.136718zm0 0" fill="#7bac51"/><path d="m326.324219 209.910156c-.277344 0-.554688-.003906-.832031-.011718-1.230469-.039063-2.375-.640626-3.101563-1.632813s-.957031-2.265625-.621094-3.449219c2.261719-8.039062 9.074219-17.15625 18.574219-25.042968-5.105469-.171876-10.316406-.664063-15.609375-1.480469-22.058594-3.402344-41.171875-11.757813-51.121094-22.359375-.84375-.894532-1.226562-2.128906-1.039062-3.347656.1875-1.214844.921875-2.277344 1.996093-2.878907 11.292969-6.328125 28.976563-8.777343 48.285157-6.839843-1.683594-1.550782-3.339844-3.140626-4.96875-4.769532-19.628907-19.628906-32.652344-42.019531-34.832031-59.890625-.148438-1.21875.269531-2.441406 1.140624-3.3125.871094-.867187 2.085938-1.289062 3.3125-1.140625 17.871094 2.179688 40.261719 15.203125 59.890626 34.832032 2.605468 2.601562 5.101562 5.273437 7.488281 7.996093-1.410157-9.617187-2.136719-19.722656-2.136719-29.890625 0-35.164062 8.359375-66.84375 22.363281-84.738281 1.515625-1.9375 4.785157-1.9375 6.296875 0 14.003906 17.894531 22.363282 49.574219 22.363282 84.738281 0 10.167969-.730469 20.273438-2.136719 29.890625 2.386719-2.722656 4.886719-5.390625 7.488281-7.996093 19.628906-19.628907 42.019531-32.652344 59.890625-34.832032 1.21875-.148437 2.445313.273438 3.3125 1.140625.871094.871094 1.292969 2.09375 1.140625 3.3125-2.179688 17.875-15.203125 40.261719-34.832031 59.890625-1.625 1.628906-3.28125 3.21875-4.96875 4.769532 19.3125-1.9375 36.992187.511718 48.285156 6.839843 1.074219.601563 1.808594 1.664063 1.996094 2.878907.1875 1.21875-.195313 2.453124-1.039063 3.347656-9.949218 10.601562-29.058594 18.960937-51.121094 22.363281-5.292968.816406-10.503906 1.308594-15.605468 1.480469 9.5 7.882812 16.308594 17.003906 18.574218 25.042968.332032 1.183594.101563 2.457032-.625 3.445313-.730468.992187-1.871093 1.597656-3.101562 1.636719-9.5.320312-22.183594-4.625-33.855469-13.179688-8.179687-5.992187-14.789062-12.941406-18.914062-19.773437-4.128907 6.832031-10.738281 13.78125-18.917969 19.773437-11.324219 8.304688-23.589844 13.1875-33.019531 13.1875zm26.980469-38.4375c1.726562 0 3.273437 1.113282 3.808593 2.777344.570313 1.773438-.160156 3.703125-1.757812 4.65625-2.0625 1.234375-4.113281 2.59375-6.09375 4.046875-7.636719 5.597656-13.832031 12.210937-17.304688 18.300781 6.851563-1.476562 15.027344-5.390625 22.664063-10.988281 9.375-6.867187 16.578125-15.265625 19.269531-22.464844.335937-.90625.996094-1.660156 1.847656-2.121093l.339844-.175782c.730469-.40625 1.695313-.628906 2.523437-.539062.601563.039062 1.210938.195312 1.714844.472656l.472656.242188c.851563.457031 1.507813 1.210937 1.847657 2.121093 2.695312 7.199219 9.898437 15.597657 19.269531 22.464844 7.636719 5.597656 15.8125 9.511719 22.664062 10.988281-3.472656-6.089844-9.667968-12.703125-17.304687-18.300781-1.980469-1.453125-4.035156-2.8125-6.09375-4.046875-1.597656-.957031-2.324219-2.882812-1.757813-4.65625.570313-1.773438 2.28125-2.910156 4.140626-2.761719 8.441406.703125 17.785156.320313 27.019531-1.101562 17.183593-2.652344 32.726562-8.640625 42.261719-16.085938-11.335938-4.234375-27.964844-5.257812-45.144532-2.609375-2.121094.324219-4.304687.726563-6.683594 1.222656-1.828124.378907-3.675781-.546874-4.453124-2.246093-.78125-1.695313-.28125-3.707031 1.199218-4.84375 5.277344-4.054688 10.402344-8.558594 15.230469-13.382813 16.121094-16.125 27.765625-34.628906 31.519531-49.722656-15.09375 3.753906-33.601562 15.398438-49.722656 31.519531-6.34375 6.34375-12.042969 13.105469-16.941406 20.089844-1.109375 1.578125-3.179688 2.140625-4.933594 1.34375-1.75-.792969-2.6875-2.726563-2.226562-4.597656 3.335937-13.519531 5.097656-28.867188 5.097656-44.390625 0-30.128906-6.628906-58.289063-17.511719-75.339844-10.886719 17.050781-17.511719 45.210938-17.511719 75.339844 0 15.523437 1.761719 30.871094 5.09375 44.390625.460938 1.871093-.476562 3.800781-2.226562 4.597656s-3.824219.234375-4.929688-1.34375c-4.898437-6.984375-10.601562-13.746094-16.945312-20.089844-16.121094-16.121093-34.628906-27.765625-49.71875-31.519531 3.75 15.09375 15.398437 33.601562 31.515625 49.722656 4.828125 4.824219 9.953125 9.332032 15.234375 13.382813 1.480468 1.136719 1.976562 3.144531 1.195312 4.839843-.777344 1.699219-2.621094 2.628907-4.453125 2.246094-2.378906-.496094-4.566406-.898437-6.679687-1.222656-17.1875-2.648438-33.8125-1.625-45.144532 2.609375 9.53125 7.449219 25.078126 13.4375 42.257813 16.085937 9.238281 1.425782 18.578125 1.808594 27.019531 1.101563.113282-.007813.222656-.011719.332032-.011719zm77.878906 2.863282h.019531zm0 0" fill="#690589"/><path d="m56.632812 215.078125c-6.542968 0-12.273437-2.195313-16.476562-6.398437-10.589844-10.59375-7.574219-30.847657 6.726562-45.148438 14.304688-14.300781 34.558594-17.320312 45.152344-6.726562s7.574219 30.847656-6.726562 45.148437c-6.753906 6.753906-15.027344 11.25-23.296875 12.660156-1.839844.308594-3.636719.464844-5.378907.464844zm18.824219-56.722656c-7.28125 0-15.886719 3.800781-22.917969 10.832031-11.179687 11.183594-14.199218 26.363281-6.726562 33.835938 3.433594 3.433593 8.710938 4.753906 14.855469 3.703124 6.648437-1.132812 13.390625-4.835937 18.980469-10.425781 5.59375-5.59375 9.296874-12.335937 10.425781-18.984375 1.046875-6.144531-.265625-11.417968-3.699219-14.851562-2.773438-2.78125-6.613281-4.109375-10.917969-4.109375zm0 0" fill="#690589"/><path d="m213.738281 120.359375c-12.765625-12.761719-30.445312-15.773437-39.496093-6.726563-9.046876 9.050782-6.035157 26.730469 6.726562 39.492188 12.765625 12.765625 30.445312 15.777344 39.492188 6.726562 9.050781-9.046874 6.039062-26.730468-6.722657-39.492187zm0 0" fill="#7bac51"/><g fill="#690589"><path d="m206.816406 169.078125c-1.738281 0-3.535156-.15625-5.375-.464844-8.269531-1.410156-16.542968-5.90625-23.296875-12.660156-6.753906-6.75-11.25-15.027344-12.65625-23.296875-1.496093-8.773438.613281-16.53125 5.933594-21.851562 5.316406-5.320313 13.078125-7.421876 21.851563-5.929688 8.269531 1.40625 16.539062 5.902344 23.292968 12.65625s11.25 15.027344 12.660156 23.296875c1.492188 8.773437-.613281 16.535156-5.933593 21.851563-4.203125 4.203124-9.929688 6.398437-16.476563 6.398437zm-18.878906-56.667969c-4.425781 0-8.199219 1.386719-10.863281 4.050782-3.433594 3.433593-4.746094 8.707031-3.699219 14.855468 1.132812 6.648438 4.832031 13.390625 10.425781 18.980469 5.589844 5.59375 12.332031 9.292969 18.980469 10.425781 6.144531 1.050782 11.417969-.265625 14.855469-3.699218 3.433593-3.4375 4.746093-8.710938 3.703125-14.855469-1.132813-6.648438-4.835938-13.386719-10.429688-18.984375-5.589844-5.589844-12.332031-9.292969-18.980468-10.425782-1.378907-.234374-2.714844-.347656-3.992188-.347656zm0 0"/><path d="m94.371094 270.777344c-2.210938 0-4-1.792969-4-4v-94.996094c0-2.207031 1.789062-4 4-4 2.207031 0 4 1.792969 4 4v94.996094c0 2.207031-1.792969 4-4 4zm0 0"/><path d="m225.6875 270.777344c-2.210938 0-4-1.792969-4-4v-116.210938c0-2.207031 1.789062-4 4-4 2.207031 0 4 1.792969 4 4v116.210938c0 2.207031-1.792969 4-4 4zm0 0"/></g><path d="m4 238.75h496v102.617188h-496zm0 0" fill="#fcc24c"/><path d="m480 238.75h20v102.617188h-20zm0 0" fill="#dea42e"/><path d="m4 238.75h20v102.617188h-20zm0 0" fill="#fce06a"/><path d="m500 345.367188h-496c-2.207031 0-4-1.792969-4-4v-102.617188c0-2.207031 1.792969-4 4-4h496c2.207031 0 4 1.792969 4 4v102.617188c0 2.207031-1.792969 4-4 4zm-492-8h488v-94.617188h-488zm0 0" fill="#690589"/><path d="m20 285.347656c-2.207031 0-4-1.792968-4-4v-24c0-2.207031 1.792969-4 4-4s4 1.792969 4 4v24c0 2.207032-1.792969 4-4 4zm0 0" fill="#690589"/></svg>