<svg height="504pt" viewBox="0 -30 504 504" width="504pt" xmlns="http://www.w3.org/2000/svg"><path d="m4 338.300781h496v102.613281h-496zm0 0" fill="#fcc24c"/><path d="m480 338.300781h20v102.613281h-20zm0 0" fill="#dea42e"/><path d="m4 338.300781h20v102.613281h-20zm0 0" fill="#fce06a"/><path d="m500 444.914062h-496c-2.207031 0-4-1.789062-4-4v-102.613281c0-2.207031 1.792969-4 4-4h496c2.207031 0 4 1.792969 4 4v102.613281c0 2.210938-1.792969 4-4 4zm-492-8h488v-94.613281h-488zm0 0" fill="#690589"/><path d="m383.699219 276.441406h-86.605469l43.300781-136.222656 43.304688-136.21875 43.296875 136.21875 43.304687 136.222656zm0 0" fill="#7bac51"/><path d="m437.609375 276.441406-53.910156-272.441406 86.601562 272.441406zm0 0" fill="#5d8e33"/><path d="m329.785156 276.441406 53.914063-272.441406-86.605469 272.441406zm0 0" fill="#99ca6f"/><path d="m361.023438 276.441406h46.03125v61.859375h-46.03125zm0 0" fill="#fcc24c"/><path d="m470.300781 280.441406h-173.207031c-1.277344 0-2.476562-.605468-3.226562-1.636718-.753907-1.03125-.972657-2.359376-.585938-3.574219l86.601562-272.441407c.527344-1.660156 2.070313-2.789062 3.8125-2.789062 1.742188 0 3.285157 1.128906 3.8125 2.789062l86.601563 272.441407c.386719 1.214843.167969 2.542969-.582031 3.574219s-1.953125 1.636718-3.226563 1.636718zm-167.738281-8h162.269531l-81.132812-255.238281zm0 0" fill="#690589"/><path d="m407.054688 342.300781h-46.03125c-2.207032 0-4-1.792969-4-4v-61.859375c0-2.210937 1.792968-4 4-4h46.03125c2.210937 0 4 1.789063 4 4v61.859375c0 2.210938-1.789063 4-4 4zm-42.03125-8h38.03125v-53.859375h-38.03125zm0 0" fill="#690589"/><path d="m120.300781 276.441406h-86.601562l43.304687-136.222656 43.296875-136.21875 43.304688 136.21875 43.296875 136.222656zm0 0" fill="#7bac51"/><path d="m174.214844 276.441406-53.914063-272.441406 86.601563 272.441406zm0 0" fill="#5d8e33"/><path d="m66.390625 276.441406 53.910156-272.441406-86.601562 272.441406zm0 0" fill="#99ca6f"/><path d="m97.628906 276.441406h46.03125v61.859375h-46.03125zm0 0" fill="#fcc24c"/><path d="m206.90625 280.441406h-173.207031c-1.273438 0-2.476563-.605468-3.226563-1.636718-.753906-1.03125-.96875-2.359376-.585937-3.574219l86.601562-272.441407c.53125-1.660156 2.070313-2.789062 3.8125-2.789062 1.742188 0 3.285157 1.128906 3.8125 2.789062l86.601563 272.441407c.386718 1.214843.167968 2.542969-.582032 3.574219-.753906 1.03125-1.949218 1.636718-3.226562 1.636718zm-167.738281-8h162.269531l-81.136719-255.238281zm0 0" fill="#690589"/><path d="m143.660156 342.300781h-46.03125c-2.207031 0-4-1.792969-4-4v-61.859375c0-2.210937 1.792969-4 4-4h46.03125c2.210938 0 4 1.789063 4 4v61.859375c0 2.210938-1.789062 4-4 4zm-42.03125-8h38.03125v-53.859375h-38.03125zm0 0" fill="#690589"/><path d="m252 276.441406h-86.601562l43.300781-136.222656 43.300781-136.21875 43.300781 136.21875 43.300781 136.222656zm0 0" fill="#7bac51"/><path d="m305.910156 276.441406-53.910156-272.441406 86.601562 272.441406zm0 0" fill="#5d8e33"/><path d="m198.089844 276.441406 53.910156-272.441406-86.601562 272.441406zm0 0" fill="#99ca6f"/><path d="m229.324219 276.441406h46.035156v61.859375h-46.035156zm0 0" fill="#fcc24c"/><path d="m338.601562 280.441406h-173.203124c-1.277344 0-2.476563-.605468-3.226563-1.636718-.753906-1.03125-.972656-2.359376-.585937-3.574219l86.601562-272.441407c.527344-1.660156 2.070312-2.789062 3.8125-2.789062s3.285156 1.128906 3.8125 2.789062l86.601562 272.441407c.386719 1.214843.167969 2.542969-.585937 3.574219-.75 1.03125-1.949219 1.636718-3.226563 1.636718zm-167.734374-8h162.265624l-81.132812-255.238281zm0 0" fill="#690589"/><path d="m275.359375 342.300781h-46.035156c-2.207031 0-4-1.792969-4-4v-61.859375c0-2.210937 1.792969-4 4-4h46.035156c2.207031 0 4 1.789063 4 4v61.859375c0 2.210938-1.792969 4-4 4zm-42.035156-8h38.035156v-53.859375h-38.035156zm0 0" fill="#690589"/><path d="m318.386719 364.152344c27.273437-4.207032 50.035156-14.589844 61.238281-26.527344-14.28125-8.003906-39.109375-11.050781-66.386719-6.84375-2.941406.453125-5.816406.992188-8.644531 1.582031 6.613281-5.078125 13.207031-10.828125 19.601562-17.222656 24.457032-24.460937 39.777344-51.824219 42.261719-72.195313-20.371093 2.488282-47.734375 17.804688-72.191406 42.265626-8.414063 8.414062-15.71875 17.171874-21.820313 25.867187 4.171876-16.898437 6.539063-36.277344 6.539063-56.882813 0-44.113281-10.859375-82.597656-26.988281-103.210937-16.128906 20.613281-26.984375 59.097656-26.984375 103.210937 0 20.605469 2.367187 39.984376 6.539062 56.882813-6.101562-8.695313-13.402343-17.453125-21.820312-25.867187-24.457031-24.460938-51.820313-39.777344-72.191407-42.265626 2.484376 20.371094 17.804688 47.734376 42.261719 72.195313 6.394531 6.394531 12.988281 12.144531 19.601563 17.222656-2.828125-.589843-5.707032-1.128906-8.644532-1.582031-27.277343-4.207031-52.105468-1.160156-66.386718 6.84375 11.203125 11.9375 33.964844 22.320312 61.238281 26.527344 12.464844 1.921875 24.40625 2.3125 35.074219 1.425781-2.679688 1.605469-5.375 3.382813-8.039063 5.335937-14.113281 10.34375-23.878906 22.839844-26.691406 32.832032 10.375.328125 25.234375-5.21875 39.347656-15.5625 13.023438-9.542969 22.332031-20.917969 25.90625-30.472656.207031-.109376.433594-.214844.640625-.328126.046875.003907.101563.015626.148438.023438.046875-.007812.097656-.019531.144531-.023438.207031.113282.433594.21875.644531.328126 3.570313 9.554687 12.878906 20.929687 25.902344 30.472656 14.113281 10.34375 28.972656 15.890625 39.351562 15.5625-2.816406-9.992188-12.582031-22.488282-26.695312-32.832032-2.664062-1.953124-5.355469-3.730468-8.039062-5.335937 10.675781.886719 22.617187.496094 35.082031-1.425781zm0 0" fill="#7bac51"/><path d="m149.386719 245.585938c3.417969 20.058593 18.449219 46.132812 41.871093 69.554687 4.207032 4.207031 8.5 8.136719 12.832032 11.78125 1.722656 1.449219.433594 4.214844-1.792969 3.871094-.027344-.003907-.058594-.011719-.085937-.015625-1.941407-.300782-3.863282-.550782-5.777344-.777344-5.613282-4.488281-11.195313-9.429688-16.628906-14.863281-24.457032-24.457031-39.777344-51.820313-42.261719-72.191407 3.730469.453126 7.699219 1.347657 11.84375 2.640626zm0 0" fill="#99ca6f"/><path d="m172.425781 329.015625c-14.949219.625-27.789062 3.667969-36.601562 8.609375 11.207031 11.9375 33.964843 22.320312 61.238281 26.523438 6.15625.953124 12.179688 1.523437 17.988281 1.753906-9.175781.367187-19.117187-.164063-29.4375-1.753906-27.273437-4.203126-50.035156-14.585938-61.238281-26.523438 10.992188-6.164062 28.25-9.367188 48.050781-8.609375zm0 0" fill="#99ca6f"/><path d="m212.648438 370.914062c2.425781-1.777343 4.875-3.402343 7.316406-4.890624.878906.003906 1.746094.003906 2.613281-.003907 2.621094-.03125 3.71875 3.289063 1.601563 4.835938-.027344.019531-.054688.039062-.078126.058593-13.328124 9.769532-22.777343 21.453126-26.15625 31.140626-4.378906 1.214843-8.449218 1.804687-11.992187 1.691406 2.816406-9.992188 12.585937-22.488282 26.695313-32.832032zm0 0" fill="#99ca6f"/><path d="m231.550781 311.078125c5.785157 0 10.152344-5.246094 9.074219-10.929687-2.679688-14.136719-4.164062-29.664063-4.164062-45.953126 0 0-.949219-71.328124 15.539062-103.210937-16.128906 20.613281-26.988281 59.097656-26.988281 103.210937 0 13.289063 1 26.054688 2.816406 37.988282zm0 0" fill="#99ca6f"/><g fill="#5d8e33"><path d="m354.613281 245.585938c-3.417969 20.058593-18.449219 46.132812-41.871093 69.554687-4.207032 4.207031-8.5 8.136719-12.832032 11.78125-1.722656 1.449219-.433594 4.214844 1.792969 3.871094.027344-.003907.058594-.011719.085937-.015625 1.941407-.300782 3.863282-.550782 5.777344-.777344 5.613282-4.488281 11.195313-9.429688 16.628906-14.863281 24.457032-24.457031 39.777344-51.820313 42.261719-72.191407-3.730469.453126-7.699219 1.347657-11.84375 2.640626zm0 0"/><path d="m331.574219 329.015625c14.949219.625 27.789062 3.667969 36.601562 8.609375-11.207031 11.9375-33.964843 22.320312-61.238281 26.523438-6.15625.953124-12.179688 1.523437-17.988281 1.753906 9.175781.367187 19.117187-.164063 29.4375-1.753906 27.273437-4.203126 50.035156-14.585938 61.238281-26.523438-10.992188-6.164062-28.25-9.367188-48.050781-8.609375zm0 0"/><path d="m291.347656 370.914062c-2.421875-1.777343-4.871094-3.402343-7.3125-4.890624-.878906.003906-1.75.003906-2.613281-.003907-2.625-.03125-3.71875 3.289063-1.605469 4.835938.027344.019531.054688.039062.082032.058593 13.328124 9.769532 22.773437 21.453126 26.152343 31.140626 4.378907 1.214843 8.453125 1.804687 11.992188 1.691406-2.8125-9.992188-12.582031-22.488282-26.695313-32.832032zm0 0"/><path d="m272.449219 311.078125c-5.785157 0-10.152344-5.246094-9.074219-10.929687 2.679688-14.136719 4.164062-29.664063 4.164062-45.953126 0 0 .949219-71.328124-15.539062-103.210937 16.128906 20.613281 26.988281 59.097656 26.988281 103.210937 0 13.289063-1 26.054688-2.816406 37.988282zm0 0"/></g><path d="m252 407.496094c-2.207031 0-4-1.789063-4-4v-46.191406c0-2.207032 1.792969-4 4-4s4 1.792968 4 4v46.191406c0 2.210937-1.792969 4-4 4zm0 0" fill="#690589"/><path d="m317.148438 407.761719c-11.609376 0-26.769532-6.058594-40.820313-16.355469-10.59375-7.761719-19.285156-17.132812-24.328125-26.039062-5.042969 8.90625-13.734375 18.273437-24.328125 26.039062-14.464844 10.601562-30.128906 16.6875-41.839844 16.335938-1.230469-.039063-2.375-.640626-3.101562-1.632813-.722657-.992187-.957031-2.261719-.621094-3.449219 2.949219-10.484375 12.234375-22.5 25.109375-32.640625-7.230469-.113281-14.660156-.75-22.210938-1.914062-27.460937-4.234375-51.214843-14.605469-63.550781-27.742188-.839843-.898437-1.222656-2.132812-1.035156-3.347656.183594-1.214844.921875-2.277344 1.996094-2.878906 14.59375-8.179688 37.851562-11.121094 63.082031-8.113281-2.902344-2.59375-5.75-5.285157-8.523438-8.054688-24.46875-24.472656-40.695312-52.335938-43.40625-74.539062-.148437-1.222657.273438-2.445313 1.140626-3.3125.871093-.875 2.085937-1.296876 3.3125-1.144532 22.203124 2.710938 50.070312 18.9375 74.539062 43.410156 4.097656 4.097657 7.992188 8.328126 11.660156 12.667969-2.113281-13.054687-3.210937-26.914062-3.210937-40.855469 0-43.894531 10.410156-83.398437 27.839843-105.675781 1.515626-1.9375 4.78125-1.9375 6.296876 0 17.429687 22.277344 27.835937 61.78125 27.835937 105.675781 0 13.945313-1.097656 27.800782-3.210937 40.855469 3.667968-4.335937 7.566406-8.570312 11.664062-12.667969 24.46875-24.46875 52.332031-40.695312 74.535156-43.40625 1.21875-.152343 2.445313.269532 3.3125 1.140626.871094.871093 1.292969 2.09375 1.144532 3.3125-2.710938 22.203124-18.9375 50.066406-43.410157 74.539062-2.773437 2.769531-5.617187 5.460938-8.523437 8.054688 25.230468-3.007813 48.492187-.066407 63.085937 8.113281 1.074219.601562 1.808594 1.664062 1.996094 2.882812.191406 1.214844-.195313 2.449219-1.035156 3.347657-12.335938 13.136718-36.089844 23.503906-63.550781 27.738281-7.550782 1.167969-14.984376 1.804687-22.210938 1.914062 12.875 10.144531 22.160156 22.160157 25.113281 32.644531.332031 1.183594.101563 2.457032-.625 3.449219-.726562.992188-1.871093 1.59375-3.097656 1.632813-.339844.011718-.679687.015625-1.023437.015625zm-96.457032-46.183594c1.722656 0 3.269532 1.113281 3.804688 2.777344.570312 1.769531-.160156 3.699219-1.757813 4.65625-2.613281 1.5625-5.210937 3.289062-7.722656 5.128906-10.476563 7.675781-18.824219 16.890625-23.007813 25.171875 9.15625-1.496094 20.457032-6.679688 30.933594-14.355469 11.914063-8.730469 21.078125-19.4375 24.523438-28.648437.339844-.910156 1.003906-1.664063 1.859375-2.125l.582031-.296875c.644531-.355469 1.363281-.523438 2.097656-.503907.734375-.027343 1.445313.148438 2.085938.5l.589844.304688c.855468.457031 1.515624 1.210938 1.859374 2.125 3.445313 9.207031 12.609376 19.914062 24.523438 28.644531 10.476562 7.675781 21.777344 12.859375 30.933594 14.359375-4.1875-8.28125-12.53125-17.5-23.007813-25.171875-2.511719-1.839843-5.109375-3.570312-7.726562-5.128906-1.597657-.957031-2.324219-2.886719-1.753907-4.660156.566407-1.769531 2.285157-2.90625 4.136719-2.761719 10.664063.886719 22.464844.40625 34.132813-1.390625 22.550781-3.480469 42.90625-11.53125 54.863281-21.496094-14.40625-5.902343-36.238281-7.449219-58.789063-3.972656-2.691406.417969-5.453124.921875-8.4375 1.546875-1.828124.382812-3.675781-.550781-4.453124-2.246094-.777344-1.695312-.28125-3.707031 1.199218-4.839844 6.652344-5.109374 13.117188-10.789062 19.207032-16.882812 20.917968-20.914062 35.871093-45.054688 40.1875-64.457031-19.40625 4.316406-43.542969 19.269531-64.457032 40.1875-8.003906 8.003906-15.195312 16.527343-21.371094 25.335937-1.105468 1.578125-3.179687 2.140625-4.929687 1.34375-1.753906-.792968-2.691406-2.730468-2.230469-4.597656 4.203125-17.035156 6.425782-36.375 6.425782-55.929688 0-38.761718-8.71875-74.964843-22.988282-96.375-14.269531 21.410157-22.988281 57.617188-22.988281 96.375 0 19.550782 2.222656 38.894532 6.425781 55.929688.457032 1.867188-.476562 3.800781-2.230468 4.597656-1.75.796875-3.824219.234375-4.929688-1.34375-6.179688-8.8125-13.371094-17.335937-21.371094-25.335937-20.914062-20.917969-45.054687-35.871094-64.457031-40.1875 4.316406 19.402343 19.269531 43.542969 40.1875 64.457031 6.089844 6.089844 12.554687 11.773438 19.207031 16.878906 1.480469 1.136719 1.976563 3.148438 1.199219 4.84375-.78125 1.691406-2.625 2.628906-4.453125 2.246094-2.988281-.625-5.746094-1.132812-8.441406-1.546875-22.550782-3.476563-44.378906-1.929687-58.785156 3.96875 11.957031 9.96875 32.308593 18.019531 54.859374 21.496094 11.667969 1.796875 23.46875 2.28125 34.132813 1.394531.109375-.011719.21875-.015625.332031-.015625zm0 0" fill="#690589"/><path d="m89.664062 153.734375c-.34375 0-.691406-.042969-1.039062-.136719-2.132812-.574218-3.398438-2.769531-2.824219-4.902344l6.460938-24c.578125-2.132812 2.773437-3.394531 4.902343-2.820312 2.132813.574219 3.394532 2.765625 2.820313 4.902344l-6.457031 24c-.484375 1.78125-2.097656 2.957031-3.863282 2.957031zm0 0" fill="#690589"/></svg>