<svg height="503pt" viewBox="0 -36 503.98493 503" width="503pt" xmlns="http://www.w3.org/2000/svg"><path d="m482.191406 207.5625-166.054687-59.207031c-13.933594-4.96875-29.257813 2.300781-34.226563 16.234375l-31.507812 88.375c-22.53125-29.796875-49-71.019532-83.886719-134.394532-26.164063-47.523437-82.335937-90.871093-149.402344-113.609374-5.148437-1.746094-10.6875 1.566406-12.511719 6.683593-1.761718 4.9375.375 10.417969 5.023438 12.839844 69.226562 36.085937 133.714844 102.660156 155.71875 205.5625 29.035156 135.777344 114.054688 178.230469 147.40625 189.875.042969.015625.082031.035156.125.050781.128906.042969.257812.082032.386719.125 1.554687.539063 2.988281 1.007813 4.296875 1.410156.5625.175782 1.121094.347657 1.683594.515626 1.921874.566406 3.488281.980468 4.664062 1.273437.167969.039063.339844.082031.507812.121094 1.285157.308593 1.984376.445312 1.984376.445312s.007812-.003906.007812-.003906c55.871094 12.554687 113.605469-18.242187 133.324219-73.546875l38.695312-108.523438c4.96875-13.933593-2.300781-29.257812-16.234375-34.226562zm0 0" fill="#fcc24c"/><path d="m281.910156 164.589844-6.78125 19.019531 216.519532 77.199219 6.777343-19.019532c4.96875-13.933593-2.296875-29.257812-16.234375-34.226562l-166.054687-59.203125c-13.933594-4.972656-29.257813 2.296875-34.226563 16.230469zm0 0" fill="#7bac51"/><path d="m482.191406 207.5625-22.414062-7.992188c13.933594 4.96875 21.203125 20.292969 16.234375 34.226563l-38.691407 108.523437c-19.71875 55.308594-77.453124 86.101563-133.324218 73.546876-.003906 0-.007813.003906-.007813.003906s-.699219-.136719-1.988281-.445313c-.167969-.039062-.335938-.082031-.503906-.121093-.367188-.089844-.785156-.199219-1.230469-.316407 4.675781 2.058594 8.882813 3.675781 12.484375 4.933594.042969.015625.082031.035156.125.050781.128906.042969.261719.082032.390625.125 1.554687.539063 2.988281 1.007813 4.296875 1.410156.5625.175782 1.121094.347657 1.683594.515626 1.917968.566406 3.488281.980468 4.664062 1.273437.167969.039063.335938.082031.503906.121094 1.289063.308593 1.988282.445312 1.988282.445312s.007812-.003906.007812-.003906c55.871094 12.554687 113.605469-18.242187 133.324219-73.546875l38.691406-108.523438c4.96875-13.933593-2.300781-29.257812-16.234375-34.226562zm0 0" fill="#dea42e"/><path d="m482.191406 207.5625-22.414062-7.992188c13.933594 4.96875 21.203125 20.292969 16.234375 34.226563l-6.777344 19.019531 22.410156 7.992188 6.78125-19.019532c4.96875-13.933593-2.300781-29.257812-16.234375-34.226562zm0 0" fill="#5d8e33"/><path d="m17.113281 4.960938c-5.148437-1.746094-10.6875 1.566406-12.511719 6.683593-1.761718 4.9375.375 10.417969 5.023438 12.839844 33.570312 17.5 66.007812 42.191406 93.042969 74.695313l34.371093-20.074219c-29.8125-31.222657-72.09375-57.929688-119.925781-74.144531zm0 0" fill="#7bac51"/><path d="m187.757812 238.039062c-14.464843-67.648437-60.59375-124.335937-110.171874-165.492187 40.464843 37.90625 73.296874 89.851563 87.761718 157.5 29.035156 135.777344 114.054688 178.230469 147.402344 189.875.042969.015625.082031.035156.125.050781.128906.042969.261719.082032.390625.125 1.554687.539063 2.988281 1.007813 4.296875 1.410156.5625.175782 1.121094.347657 1.683594.515626 1.320312.386718 2.460937.703124 3.433594.957031-38.589844-16.976563-109.023438-63.832031-134.921876-184.941407zm0 0" fill="#fce06a"/><path d="m116.125 116.640625 33.148438-23.597656c-6.761719-8.417969-14.429688-16.589844-22.886719-24.410157l-31.015625 22.078126c7.285156 8.109374 14.226562 16.75 20.753906 25.929687zm0 0" fill="#f4efed"/><g fill="#690589"><path d="m351.542969 430.65625c-8.542969 0-17.1875-.925781-25.824219-2.855469-.023438-.003906-.042969-.007812-.066406-.011719 0 0-.765625-.144531-2.171875-.480468l-.53125-.132813c-1.21875-.296875-2.847657-.726562-4.839844-1.316406-.574219-.167969-1.15625-.351563-1.734375-.53125-1.347656-.417969-2.820312-.898437-4.417969-1.449219l-.433593-.140625c-35.433594-12.378906-120.796876-55.875-150.089844-192.851562-25.703125-120.207031-107.300782-178.691407-153.652344-202.855469-6.378906-3.324219-9.363281-10.945312-6.945312-17.730469 2.644531-7.417969 10.53125-11.511719 17.5625-9.128906 67.792968 22.984375 124.472656 66.148437 151.621093 115.46875 30.371094 55.167969 55.664063 96.082031 79.125 127.941406l29-81.335937c5.699219-15.992188 23.351563-24.363282 39.335938-18.660156l166.054687 59.207031c15.988282 5.703125 24.359375 23.347656 18.660156 39.339843l-38.695312 108.523438c-17.160156 48.128906-62.703125 79-111.957031 79zm-24.542969-10.753906c.09375.011718.191406.03125.289062.054687 54.558594 12.257813 109.878907-18.257812 128.679688-70.988281l38.691406-108.523438c4.21875-11.832031-1.976562-24.894531-13.8125-29.117187l-166.050781-59.203125c-11.828125-4.21875-24.894531 1.972656-29.117187 13.8125l-31.507813 88.371094c-.496094 1.382812-1.707031 2.386718-3.160156 2.609375-1.457031.222656-2.910157-.367188-3.796875-1.542969-24.957032-33-51.710938-75.859375-84.203125-134.875-25.820313-46.90625-82.21875-89.722656-147.183594-111.753906-3.171875-1.074219-6.417969 1.324218-7.457031 4.242187-1.082032 3.042969.25 6.460938 3.109375 7.949219 47.597656 24.8125 131.390625 84.867188 157.78125 208.273438 28.441406 133.011718 110.742187 175.039062 144.808593 186.9375.050782.015624.160157.058593.207032.078124.039062.011719.269531.082032.304687.09375 1.5.519532 2.898438.972657 4.167969 1.371094.539062.164063 1.078125.332032 1.625.492188 1.855469.546875 3.363281.949218 4.496094 1.226562l.488281.121094c.824219.199219 1.386719.316406 1.640625.371094zm0 0"/><path d="m276.910156 239.292969c-.445312 0-.898437-.078125-1.34375-.234375-2.078125-.742188-3.164062-3.03125-2.421875-5.113282l8.554688-24c.742187-2.082031 3.019531-3.164062 5.113281-2.421874 2.078125.738281 3.164062 3.027343 2.421875 5.109374l-8.554687 24c-.585938 1.640626-2.125 2.660157-3.769532 2.660157zm0 0"/><path d="m116.125 120.640625c-.222656 0-.445312-.019531-.664062-.058594-1.046876-.175781-1.980469-.761719-2.597657-1.625-6.316406-8.878906-13.203125-17.484375-20.46875-25.570312-.761719-.847657-1.128906-1.980469-1.003906-3.113281.125-1.136719.730469-2.160157 1.65625-2.820313l31.019531-22.082031c1.542969-1.097656 3.644532-.96875 5.039063.324218 8.617187 7.964844 16.453125 16.324219 23.289062 24.839844.691407.859375.996094 1.960938.84375 3.050782-.152343 1.089843-.746093 2.070312-1.640625 2.710937l-33.152344 23.601563c-.683593.484374-1.496093.742187-2.320312.742187zm-14.8125-29.25c5.503906 6.320313 10.773438 12.914063 15.730469 19.683594l26.421875-18.808594c-5.28125-6.292969-11.121094-12.488281-17.425782-18.476563zm0 0"/><path d="m491.644531 264.808594c-.445312 0-.898437-.078125-1.34375-.234375l-216.515625-77.199219c-1-.355469-1.816406-1.09375-2.273437-2.054688-.453125-.957031-.507813-2.058593-.152344-3.058593l6.78125-19.015625 3.769531 1.34375-3.769531-1.34375c5.703125-15.992188 23.351563-24.363282 39.339844-18.660156l166.054687 59.207031c15.988282 5.699219 24.359375 23.347656 18.660156 39.335937l-6.785156 19.019532c-.582031 1.636718-2.121094 2.660156-3.765625 2.660156zm-211.40625-83.621094 208.984375 74.507812 5.4375-15.25c4.21875-11.832031-1.980468-24.894531-13.8125-29.117187l-166.054687-59.203125c-11.828125-4.21875-24.890625 1.972656-29.117188 13.8125zm0 0"/></g></svg>