<svg height="503pt" viewBox="-119 0 503 503.9155" width="503pt" xmlns="http://www.w3.org/2000/svg"><path d="m56.9375 298.617188h80.203125c12.765625 0 23.117187-10.351563 23.117187-23.117188h-103.320312zm0 0" fill="#f4efed"/><path d="m56.9375 298.617188h-40.921875c-6.382813 0-11.558594-5.175782-11.558594-11.558594 0-6.386719 5.175781-11.558594 11.558594-11.558594h40.925781v23.117188zm0 0" fill="#7bac51"/><path d="m56.9375 302.617188h-40.921875c-8.578125 0-15.558594-6.980469-15.558594-15.558594s6.980469-15.558594 15.558594-15.558594h40.925781c2.207032 0 4 1.792969 4 4v23.117188c-.003906 2.207031-1.792968 4-4.003906 4zm-40.921875-23.117188c-4.167969 0-7.558594 3.390625-7.558594 7.558594 0 4.167968 3.390625 7.558594 7.558594 7.558594h36.925781v-15.121094h-36.925781zm0 0" fill="#690589"/><path d="m137.140625 302.617188h-80.203125c-2.207031 0-4-1.792969-4-4v-23.121094c0-2.207032 1.792969-4 4-4h103.320312c2.207032 0 4 1.792968 4 4 0 14.957031-12.160156 27.121094-27.117187 27.121094zm-76.203125-8h76.203125c9.171875 0 16.851563-6.492188 18.695313-15.121094h-94.898438zm0 0" fill="#690589"/><path d="m200.046875 216.878906c27.246094-4.203125 49.984375-14.574218 61.179687-26.5-14.265624-8-39.074218-11.042968-66.320312-6.839844-2.9375.453126-5.816406.992188-8.636719 1.582032 6.605469-5.074219 13.191407-10.820313 19.582031-17.207032 24.433594-24.4375 39.738282-51.773437 42.222657-72.125-20.355469 2.484376-47.6875 17.789063-72.125 42.222657-8.40625 8.40625-15.703125 17.15625-21.796875 25.847656 4.167968-16.886719 6.535156-36.246094 6.535156-56.832031 0-44.070313-10.847656-82.519532-26.960938-103.113282-16.113281 20.59375-26.960937 59.042969-26.960937 103.113282 0 20.585937 2.367187 39.945312 6.53125 56.832031-6.09375-8.691406-13.390625-17.4375-21.796875-25.84375-24.4375-24.4375-51.773438-39.742187-72.125-42.226563 2.484375 20.355469 17.785156 47.6875 42.222656 72.125 6.386719 6.386719 12.972656 12.132813 19.582032 17.207032-2.824219-.589844-5.699219-1.128906-8.636719-1.582032-27.25-4.203124-52.054688-1.160156-66.324219 6.839844 11.195312 11.925782 33.933594 22.296875 61.183594 26.5 12.453125 1.921875 24.378906 2.3125 35.039062 1.425782-2.679687 1.601562-5.367187 3.378906-8.03125 5.332031-14.097656 10.332031-23.855468 22.816406-26.667968 32.800781 10.367187.328125 25.214843-5.214844 39.3125-15.550781 13.011718-9.535157 22.3125-20.898438 25.882812-30.441407.207031-.113281.433594-.214843.640625-.328124.046875.003906.097656.015624.144531.023437.050782-.007813.097656-.019531.148438-.023437.203125.113281.429687.214843.640625.328124 3.570312 9.542969 12.871093 20.90625 25.878906 30.441407 14.101563 10.332031 28.945313 15.875 39.3125 15.550781-2.808594-9.984375-12.566406-22.46875-26.667969-32.800781-2.660156-1.953125-5.347656-3.730469-8.03125-5.332031 10.660156.886718 22.589844.496093 35.042969-1.425782zm0 0" fill="#7bac51"/><path d="m124.75 336.984375c-2.207031 0-4-1.792969-4-4s1.792969-4 4-4c2.742188 0 4.972656-2.234375 4.972656-4.976563v-117.273437c0-2.207031 1.792969-4 4-4 2.210938 0 4 1.792969 4 4v117.273437c0 7.15625-5.820312 12.976563-12.972656 12.976563zm0 0" fill="#690589"/><path d="m198.8125 260.453125c-11.605469 0-26.75-6.050781-40.785156-16.335937-10.585938-7.757813-19.269532-17.117188-24.304688-26.015626-5.035156 8.898438-13.71875 18.257813-24.300781 26.015626-14.457031 10.589843-30.089844 16.691406-41.804687 16.316406-1.226563-.039063-2.375-.640625-3.097657-1.632813-.726562-.992187-.960937-2.261719-.625-3.449219 2.945313-10.472656 12.21875-22.472656 25.078125-32.605468-7.21875-.109375-14.640625-.75-22.179687-1.914063-27.433594-4.230469-51.167969-14.589843-63.488281-27.714843-.84375-.894532-1.226563-2.128907-1.039063-3.34375.1875-1.21875.925781-2.28125 1.996094-2.882813 14.574219-8.171875 37.804687-11.109375 63.015625-8.105469-2.898438-2.589844-5.742188-5.277344-8.507813-8.042968-24.445312-24.449219-40.660156-52.285157-43.367187-74.46875-.148438-1.21875.273437-2.441407 1.144531-3.3125.867187-.871094 2.082031-1.289063 3.3125-1.140626 22.183594 2.707032 50.019531 18.917969 74.464844 43.367188 4.089843 4.089844 7.980469 8.316406 11.644531 12.644531-2.113281-13.039062-3.210938-26.875-3.210938-40.800781 0-43.855469 10.398438-83.320312 27.8125-105.578125 1.515626-1.9375 4.789063-1.9375 6.300782 0 17.417968 22.257813 27.8125 61.722656 27.8125 105.578125 0 13.925781-1.097656 27.765625-3.207032 40.800781 3.664063-4.328125 7.550782-8.554687 11.640626-12.644531 24.449218-24.449219 52.285156-40.660156 74.46875-43.367188 1.222656-.15625 2.445312.269532 3.3125 1.140626.871093.871093 1.292968 2.09375 1.140624 3.3125-2.707031 22.183593-18.917968 50.019531-43.367187 74.46875-2.765625 2.765624-5.609375 5.453124-8.507813 8.039062 25.207032-3 48.441407-.0625 63.015626 8.109375 1.070312.601563 1.808593 1.664063 1.996093 2.878906.1875 1.214844-.195312 2.449219-1.039062 3.347657-12.320313 13.121093-36.054688 23.484374-63.488281 27.714843-7.539063 1.164063-14.960938 1.800781-22.179688 1.910157 12.859375 10.136718 22.128906 22.132812 25.078125 32.609374.335937 1.183594.105469 2.457032-.625 3.449219-.726563.992188-1.871094 1.59375-3.097656 1.632813-.332031.011718-.671875.019531-1.011719.019531zm-64.757812-54.308594c.617187.035157 1.25.191407 1.761718.476563l.574219.292968c.863281.457032 1.527344 1.214844 1.867187 2.128907 3.441407 9.195312 12.601563 19.894531 24.5 28.617187 10.460938 7.664063 21.746094 12.84375 30.894532 14.339844-4.183594-8.269531-12.519532-17.472656-22.980469-25.140625-2.507813-1.835937-5.105469-3.5625-7.71875-5.125-1.597656-.953125-2.324219-2.886719-1.753906-4.65625.570312-1.773437 2.308593-2.910156 4.136719-2.761719 10.65625.886719 22.449218.40625 34.101562-1.394531 22.527344-3.472656 42.855469-11.515625 54.800781-21.464844-14.386719-5.894531-36.195312-7.441406-58.722656-3.964843-2.675781.410156-5.433594.914062-8.429687 1.542968-1.824219.382813-3.675782-.550781-4.453126-2.246094-.78125-1.695312-.28125-3.707031 1.199219-4.839843 6.644531-5.105469 13.101563-10.777344 19.191407-16.867188 20.890624-20.890625 35.832031-45.003906 40.140624-64.386719-19.378906 4.308594-43.492187 19.25-64.386718 40.144532-7.988282 7.992187-15.171875 16.507812-21.347656 25.316406-1.109376 1.578125-3.179688 2.140625-4.933594 1.34375s-2.691406-2.730469-2.226563-4.601562c4.199219-17.019532 6.417969-36.339844 6.417969-55.871094 0-38.722656-8.710938-74.890625-22.960938-96.28125-14.253906 21.390625-22.960937 57.558594-22.960937 96.28125 0 19.53125 2.214844 38.851562 6.417969 55.871094.460937 1.871093-.476563 3.804687-2.226563 4.601562-1.757812.796875-3.824219.230469-4.933593-1.34375-6.175782-8.808594-13.359376-17.324219-21.351563-25.316406-20.894531-20.890625-45.007813-35.835938-64.390625-40.140625 4.308594 19.378906 19.253906 43.496093 40.144531 64.386719 6.089844 6.085937 12.542969 11.761718 19.191407 16.863281 1.480468 1.136719 1.976562 3.144531 1.199218 4.84375-.777344 1.695312-2.628906 2.628906-4.453125 2.246093-3-.628906-5.757812-1.132812-8.429687-1.546874-22.527344-3.46875-44.335938-1.929688-58.726563 3.964843 11.949219 9.953125 32.277344 17.996094 54.800781 21.46875 11.660157 1.796875 23.453126 2.277344 34.101563 1.390625 1.84375-.144531 3.570313.992188 4.140625 2.761719.566406 1.773437-.160156 3.703125-1.757812 4.660156-2.609376 1.558594-5.207032 3.285157-7.71875 5.125-10.460938 7.664063-18.796876 16.867188-22.980469 25.140625 9.148437-1.5 20.433593-6.675781 30.898437-14.34375 11.898438-8.71875 21.054688-19.417968 24.496094-28.613281.34375-.914063 1.007812-1.671875 1.867188-2.132813l.574218-.289062c.738282-.414062 1.578125-.578125 2.425782-.480469zm0 0" fill="#690589"/><path d="m209.683594 361.34375h-151.917969c-10.921875 0-19.777344-8.851562-19.777344-19.777344 0-10.921875 8.851563-19.777344 19.777344-19.777344h151.917969c10.921875 0 19.777344 8.855469 19.777344 19.777344s-8.855469 19.777344-19.777344 19.777344zm0 0" fill="#fcc24c"/><path d="m169.199219 499.914062h-70.953125c-12.105469 0-22.472656-8.664062-24.625-20.578124l-21.308594-117.992188h162.824219l-21.3125 117.992188c-2.148438 11.914062-12.519531 20.578124-24.625 20.578124zm0 0" fill="#fcc24c"/><path d="m191.835938 361.34375-21.308594 117.992188c-2.152344 11.914062-12.523438 20.578124-24.628906 20.578124h23.300781c12.105469 0 22.476562-8.664062 24.628906-20.578124l21.308594-117.992188zm0 0" fill="#dea42e"/><path d="m75.613281 361.34375 21.308594 117.992188c2.152344 11.914062 12.523437 20.578124 24.628906 20.578124h-23.300781c-12.105469 0-22.476562-8.664062-24.625-20.578124l-21.3125-117.992188zm0 0" fill="#fce06a"/><path d="m209.683594 321.792969h-23.300782c10.921876 0 19.777344 8.851562 19.777344 19.777343 0 10.921876-8.855468 19.777344-19.777344 19.777344h23.300782c10.921875 0 19.777344-8.855468 19.777344-19.777344 0-10.925781-8.855469-19.777343-19.777344-19.777343zm0 0" fill="#dea42e"/><path d="m57.765625 361.34375h23.300781c-10.921875 0-19.777344-8.851562-19.777344-19.777344 0-10.921875 8.851563-19.777344 19.777344-19.777344h-23.300781c-10.921875 0-19.777344 8.855469-19.777344 19.777344s8.851563 19.777344 19.777344 19.777344zm0 0" fill="#fce06a"/><g fill="#690589"><path d="m209.683594 365.34375h-151.917969c-13.113281 0-23.777344-10.664062-23.777344-23.777344 0-13.109375 10.664063-23.777344 23.777344-23.777344h151.917969c13.113281 0 23.777344 10.667969 23.777344 23.777344 0 13.113282-10.667969 23.777344-23.777344 23.777344zm-151.917969-39.550781c-8.699219 0-15.777344 7.078125-15.777344 15.777343 0 8.699219 7.078125 15.777344 15.777344 15.777344h151.917969c8.699218 0 15.777344-7.078125 15.777344-15.777344 0-8.699218-7.078126-15.777343-15.777344-15.777343zm0 0"/><path d="m169.199219 503.914062h-70.953125c-14.050782 0-26.0625-10.035156-28.5625-23.867187l-21.308594-117.992187c-.210938-1.164063.105469-2.363282.867188-3.273438.761718-.910156 1.882812-1.4375 3.070312-1.4375h162.824219c1.183593 0 2.308593.527344 3.070312 1.4375.757813.910156 1.074219 2.109375.863281 3.273438l-21.304687 117.992187c-2.5 13.832031-14.511719 23.867187-28.566406 23.867187zm-112.097657-138.570312 20.457032 113.285156c1.808594 10.015625 10.511718 17.289063 20.691406 17.289063h70.953125c10.179687 0 18.878906-7.273438 20.691406-17.289063l20.460938-113.285156zm0 0"/><path d="m80.921875 410.667969c-1.894531 0-3.582031-1.355469-3.929687-3.289063l-4.335938-24c-.390625-2.175781 1.050781-4.253906 3.226562-4.648437 2.1875-.394531 4.253907 1.054687 4.644532 3.226562l4.335937 24c.390625 2.171875-1.050781 4.253907-3.226562 4.644531-.238281.046876-.480469.066407-.714844.066407zm0 0"/></g></svg>