<svg height="508pt" viewBox="-69 0 508 508.184" width="508pt" xmlns="http://www.w3.org/2000/svg"><path d="m172.246094 496h-108.382813c-32.957031 0-59.769531-26.8125-59.769531-59.773438v-79.152343c0-23.492188 13.84375-44.894531 35.273438-54.523438l243.503906-109.992187c21.367187-9.597656 46.734375-.105469 56.546875 21.164062 9.871093 21.402344.527343 46.910156-20.832031 56.867188l-52.984376 25.09375c-4.003906 1.867187-8.765624.128906-10.628906-3.875-1.867187-4.003906-.132812-8.761719 3.867188-10.628906l52.984375-25.089844c13.394531-6.246094 19.253906-22.242188 13.066406-35.664063-6.15625-13.335937-22.070313-19.292969-35.464844-13.273437l-243.5 109.996094c-15.695312 7.050781-25.832031 22.722656-25.832031 39.925781v79.15625c0 24.136719 19.632812 43.773437 43.769531 43.773437h108.382813c4.417968 0 8 3.582032 8 8 0 4.414063-3.582032 7.996094-8 7.996094zm0 0" fill="#7bac51"/><path d="m172.246094 500h-108.382813c-35.164062 0-63.769531-28.609375-63.769531-63.773438v-79.152343c0-25.066407 14.773438-47.898438 37.632812-58.171875l243.496094-109.988282c23.363282-10.496093 51.101563-.117187 61.828125 23.132813 10.792969 23.398437.574219 51.285156-22.773437 62.167969l-52.960938 25.082031c-2.929687 1.363281-6.191406 1.507813-9.203125.410156-3.011719-1.097656-5.414062-3.304687-6.765625-6.210937-2.796875-5.992188-.195312-13.148438 5.800782-15.945313l52.960937-25.082031c11.425781-5.324219 16.417969-18.945312 11.148437-30.371094-5.242187-11.359375-18.800781-16.421875-30.195312-11.300781l-243.492188 109.996094c-14.265624 6.410156-23.476562 20.652343-23.476562 36.28125v79.15625c0 21.929687 17.839844 39.773437 39.769531 39.773437h108.382813c6.617187 0 12 5.378906 12 12 0 6.617188-5.382813 11.996094-12 11.996094zm128.089844-307.1875c-5.308594 0-10.695313 1.089844-15.824219 3.394531l-243.496094 109.992188c-20.003906 8.984375-32.921875 28.953125-32.921875 50.875v79.152343c0 30.753907 25.015625 55.773438 55.769531 55.773438h108.382813c2.207031 0 4-1.792969 4-4s-1.792969-4-4-4h-108.382813c-26.339843 0-47.769531-21.429688-47.769531-47.773438v-79.152343c0-18.777344 11.0625-35.882813 28.191406-43.578125l243.496094-109.988282c15.398438-6.917968 33.671875-.082031 40.742188 15.238282 7.109374 15.417968.375 33.792968-15.007813 40.964844l-52.960937 25.082031c-2.019532.941406-2.886719 3.328125-1.957032 5.328125.453125.96875 1.253906 1.703125 2.257813 2.070312 1.003906.363282 2.089843.316406 3.054687-.136718l52.964844-25.082032c19.386719-9.035156 27.863281-32.167968 18.910156-51.574218-6.539062-14.179688-20.707031-22.585938-35.449218-22.585938zm0 0" fill="#690589"/><path d="m257.664062 99.65625h-77.003906l21.953125-56.667969h33.101563zm0 0" fill="#f4efed"/><path d="m297.738281 130.402344h-157.148437c-8.488282 0-15.375-6.882813-15.375-15.375 0-8.488282 6.882812-15.375 15.375-15.375h157.148437c8.488281 0 15.375 6.882812 15.375 15.375 0 8.492187-6.886719 15.375-15.375 15.375zm0 0" fill="#fcc24c"/><path d="m219.164062 193.601562c-29.195312 0-52.863281-23.664062-52.863281-52.863281v-10.335937h105.726563v10.335937c0 29.199219-23.667969 52.863281-52.863282 52.863281zm0 0" fill="#ff4397"/><path d="m264.445312 337.882812h-90.5625c-38.84375 0-70.335937 31.492188-70.335937 70.335938v18.742188h231.234375v-18.742188c0-38.84375-31.488281-70.335938-70.335938-70.335938zm0 0" fill="#f4efed"/><path d="m264.445312 337.882812h-20c38.847657 0 70.335938 31.492188 70.335938 70.335938v18.742188h20v-18.742188c0-38.84375-31.488281-70.335938-70.335938-70.335938zm0 0" fill="#d6d1cf"/><path d="m173.882812 337.882812h20c-38.84375 0-70.335937 31.492188-70.335937 70.335938v18.742188h-20v-18.742188c0-38.84375 31.492187-70.335938 70.335937-70.335938zm0 0" fill="#fff"/><path d="m334.78125 408.21875c0-9.066406-1.734375-17.722656-4.855469-25.679688-26.359375-7.546874-70.070312-15.214843-110.761719-.117187-43.953124 16.308594-87.230468 6.050781-109.933593-1.925781-3.652344 8.507812-5.683594 17.875-5.683594 27.722656v18.742188h231.230469v-18.742188zm0 0" fill="#7bac51"/><path d="m127.148438 385.316406c-6.015626-1.546875-13.382813-3.226562-17.917969-4.820312-3.652344 8.507812-5.683594 17.875-5.683594 27.722656v18.742188h20v-23.191407c.121094-9.148437 2.515625-14.003906 3.601563-18.453125zm0 0" fill="#99ca6f"/><path d="m334.691406 404.730469c-.027344-.515625-.074218-1.023438-.109375-1.535157-.042969-.625-.082031-1.246093-.140625-1.867187-.070312-.6875-.160156-1.371094-.246094-2.054687-.054687-.417969-.101562-.84375-.160156-1.261719-.121094-.800781-.257812-1.589844-.398437-2.378907-.050781-.289062-.097657-.578124-.15625-.863281-.171875-.882812-.359375-1.753906-.566407-2.621093-.039062-.179688-.078124-.359376-.121093-.539063-.230469-.9375-.476563-1.871094-.742188-2.792969-.027343-.097656-.054687-.195312-.085937-.292968-.285156-.980469-.589844-1.949219-.917969-2.910157-.011719-.035156-.023437-.070312-.035156-.105469-.339844-1-.703125-1.988281-1.085938-2.96875-6.484375-1.855468-14.023437-3.71875-22.300781-5.25 4.578125 9.335938 7.15625 19.828126 7.15625 30.925782v18.742187h20v-18.742187c0-1.164063-.03125-2.328125-.089844-3.484375zm0 0" fill="#5d8e33"/><path d="m263.675781 337.882812h-89.023437l11.125-90.128906c.617187-5.011718 4.875-8.773437 9.925781-8.773437h46.921875c5.050781 0 9.304688 3.761719 9.921875 8.773437zm0 0" fill="#ff4397"/><path d="m350.464844 457.042969h-262.601563c-8.304687 0-15.042969-6.734375-15.042969-15.042969 0-8.304688 6.734376-15.039062 15.042969-15.039062h262.601563c8.304687 0 15.039062 6.734374 15.039062 15.039062.003906 8.308594-6.730468 15.042969-15.039062 15.042969zm0 0" fill="#fcc24c"/><path d="m235.714844 42.988281h-12l21.949218 56.667969h12zm0 0" fill="#d6d1cf"/><path d="m202.613281 42.988281h12l-21.953125 56.667969h-12zm0 0" fill="#fff"/><path d="m255.984375 275.570312 17.710937-7.636718c5.183594-2.238282 11.191407.261718 13.261719 5.515625l3.007813 7.632812c1.980468 5.027344-.386719 10.714844-5.347656 12.851563l-25.035157 10.773437zm0 0" fill="#fcc24c"/><path d="m252.550781 247.753906c-.617187-5.015625-4.875-8.777344-9.925781-8.777344h-12c5.050781 0 9.308594 3.765626 9.925781 8.777344l11.125 90.128906h12zm0 0" fill="#e12579"/><path d="m185.78125 247.753906c.617188-5.015625 4.875-8.777344 9.921875-8.777344h12c-5.046875 0-9.304687 3.765626-9.921875 8.777344l-11.128906 90.128906h-12zm0 0" fill="#ff61b5"/><path d="m260.027344 130.402344v10.335937c0 27.167969-20.496094 49.535157-46.863282 52.515625 1.96875.222656 3.96875.347656 6 .347656 29.195313 0 52.863282-23.664062 52.863282-52.863281v-10.335937zm0 0" fill="#e12579"/><path d="m178.300781 130.402344v10.335937c0 27.167969 20.496094 49.535157 46.863281 52.515625-1.96875.222656-3.96875.347656-6 .347656-29.195312 0-52.863281-23.664062-52.863281-52.863281v-10.335937zm0 0" fill="#ff61b5"/><path d="m297.738281 99.65625h-20c8.488281 0 15.375 6.882812 15.375 15.375 0 8.488281-6.882812 15.371094-15.375 15.371094h20c8.488281 0 15.375-6.878906 15.375-15.371094s-6.886719-15.375-15.375-15.375zm0 0" fill="#dea42e"/><path d="m140.589844 130.402344h20c-8.488282 0-15.375-6.882813-15.375-15.375 0-8.488282 6.882812-15.375 15.375-15.375h-20c-8.488282 0-15.375 6.882812-15.375 15.375.003906 8.492187 6.886718 15.375 15.375 15.375zm0 0" fill="#fce06a"/><path d="m350.464844 426.960938h-20c8.304687 0 15.039062 6.734374 15.039062 15.039062s-6.734375 15.039062-15.039062 15.039062h20c8.304687 0 15.039062-6.734374 15.039062-15.039062.003906-8.304688-6.730468-15.039062-15.039062-15.039062zm0 0" fill="#dea42e"/><path d="m87.863281 457.042969h20c-8.304687 0-15.042969-6.734375-15.042969-15.039063 0-8.308594 6.734376-15.042968 15.042969-15.042968h-20c-8.304687 0-15.042969 6.734374-15.042969 15.042968.003907 8.304688 6.738282 15.039063 15.042969 15.039063zm0 0" fill="#fce06a"/><g fill="#690589"><path d="m334.78125 430.960938h-231.234375c-2.207031 0-4-1.789063-4-4v-18.742188c0-40.988281 33.347656-74.332031 74.335937-74.332031h90.5625c40.988282 0 74.335938 33.34375 74.335938 74.332031v18.742188c0 2.210937-1.792969 4-4 4zm-227.234375-8h223.234375v-14.742188c0-36.578125-29.757812-66.332031-66.335938-66.332031h-90.5625c-36.578124 0-66.335937 29.757812-66.335937 66.332031zm0 0"/><path d="m135.484375 371.875c-.804687 0-1.613281-.242188-2.320313-.742188-1.796874-1.28125-2.21875-3.78125-.9375-5.578124 5.222657-7.332032 17.421876-15.183594 27.257813-15.183594 2.210937 0 4 1.792968 4 4 0 2.207031-1.789063 4-4 4-6.332031 0-16.414063 5.746094-20.742187 11.824218-.777344 1.09375-2.011719 1.679688-3.257813 1.679688zm0 0"/><path d="m297.738281 134.402344h-157.148437c-10.683594 0-19.375-8.691406-19.375-19.375s8.691406-19.375 19.375-19.375h157.148437c10.683594 0 19.375 8.691406 19.375 19.375s-8.691406 19.375-19.375 19.375zm-157.148437-30.746094c-6.273438 0-11.375 5.101562-11.375 11.375 0 6.269531 5.101562 11.371094 11.375 11.371094h157.148437c6.273438 0 11.375-5.101563 11.375-11.371094 0-6.273438-5.101562-11.375-11.375-11.375zm0 0"/><path d="m257.667969 103.65625h-77.003907c-1.320312 0-2.554687-.648438-3.300781-1.742188-.746093-1.085937-.90625-2.472656-.429687-3.703124l21.953125-56.667969c.59375-1.539063 2.078125-2.554688 3.730469-2.554688h33.101562c1.652344 0 3.132812 1.015625 3.730469 2.554688l21.949219 56.667969c.476562 1.230468.316406 2.617187-.429688 3.703124-.746094 1.09375-1.980469 1.742188-3.300781 1.742188zm-71.164063-8h65.324219l-18.851563-48.667969h-27.621093zm0 0"/><path d="m263.675781 341.882812h-89.023437c-1.144532 0-2.238282-.492187-3-1.347656-.757813-.859375-1.113282-2.003906-.96875-3.140625l11.125-90.132812c.863281-7 6.835937-12.285157 13.894531-12.285157h46.921875c7.058594 0 13.03125 5.285157 13.894531 12.289063l11.125 90.128906c.136719 1.136719-.214843 2.28125-.972656 3.140625-.757813.855469-1.847656 1.347656-2.996094 1.347656zm-84.496093-8h79.972656l-10.574219-85.640624c-.367187-3.003907-2.925781-5.265626-5.953125-5.265626h-46.921875c-3.023437 0-5.582031 2.261719-5.957031 5.265626zm0 0"/><path d="m350.464844 461.042969h-262.601563c-10.5 0-19.042969-8.539063-19.042969-19.039063s8.542969-19.042968 19.042969-19.042968h262.601563c10.5 0 19.042968 8.542968 19.042968 19.042968s-8.542968 19.039063-19.042968 19.039063zm-262.601563-30.082031c-6.085937 0-11.042969 4.953124-11.042969 11.042968s4.957032 11.042969 11.042969 11.042969h262.601563c6.085937 0 11.042968-4.953125 11.042968-11.042969s-4.957031-11.042968-11.042968-11.042968zm0 0"/><path d="m334.78125 430.960938h-231.234375c-2.207031 0-4-1.789063-4-4v-18.742188c0-10.15625 2.023437-20.015625 6.007813-29.296875.832031-1.933594 3.015624-2.894531 5.003906-2.199219 21.574218 7.578125 64.195312 17.910156 107.214844 1.953125 40.742187-15.117187 84.074218-8.332031 113.253906.019531 1.195312.34375 2.164062 1.226563 2.621094 2.382813 3.40625 8.679687 5.132812 17.808594 5.132812 27.140625v18.742188c0 2.210937-1.792969 4-4 4zm-227.234375-8h223.234375v-14.742188c0-7.671875-1.308594-15.1875-3.890625-22.375-27.976563-7.769531-68.503906-13.707031-106.332031.332031-43.058594 15.972657-85.484375 7.066407-109.011719-.667969-2.65625 7.265626-3.996094 14.886719-3.996094 22.710938v14.742188zm0 0"/><path d="m219.164062 197.601562c-31.351562 0-56.859374-25.507812-56.859374-56.863281v-10.335937c0-2.207032 1.792968-4 4-4h105.722656c2.207031 0 4 1.792968 4 4v10.335937c0 31.355469-25.507813 56.863281-56.863282 56.863281zm-48.863281-63.199218v6.335937c0 26.945313 21.917969 48.863281 48.863281 48.863281 26.941407 0 48.863282-21.917968 48.863282-48.863281v-6.335937zm0 0"/><path d="m259.582031 308.710938c-.691406 0-1.375-.179688-1.988281-.53125-1.09375-.625-1.828125-1.730469-1.980469-2.980469l-3.597656-29.136719c-.21875-1.765625.753906-3.460938 2.382813-4.164062l17.710937-7.636719c3.507813-1.515625 7.386719-1.539063 10.921875-.070313 3.53125 1.464844 6.246094 4.234375 7.648438 7.792969l3.007812 7.632813c2.789062 7.082031-.5 14.984374-7.492188 17.992187l-25.035156 10.773437c-.503906.21875-1.042968.328126-1.578125.328126zm.738281-30.65625 2.578126 20.875 20.132812-8.667969c3-1.289063 4.410156-4.675781 3.210938-7.710938l-3.007813-7.628906c-.601563-1.527344-1.765625-2.714844-3.277344-3.34375-1.511719-.625-3.171875-.621094-4.679687.03125zm0 0"/></g><path d="m289.191406 481.757812-48.238281-3.191406c-2.9375-4.082031-7.71875-6.75-13.132813-6.75-6.113281 0-11.429687 3.390625-14.183593 8.390625-2.753907-5-8.074219-8.390625-14.183594-8.390625-6.113281 0-11.429687 3.390625-14.183594 8.390625-2.753906-5-8.074219-8.390625-14.183593-8.390625-8.941407 0-16.1875 7.246094-16.1875 16.183594s7.246093 16.183594 16.1875 16.183594c6.109374 0 11.429687-3.390625 14.183593-8.390625 2.753907 5 8.070313 8.390625 14.183594 8.390625 6.109375 0 11.429687-3.390625 14.183594-8.390625 2.753906 5 8.070312 8.390625 14.183593 8.390625 5.414063 0 10.195313-2.667969 13.132813-6.75l48.238281-3.191406zm0 0" fill="#fcc24c"/><path d="m227.816406 508.183594c-5.382812 0-10.457031-2.144532-14.179687-5.828125-3.730469 3.679687-8.800781 5.828125-14.183594 5.828125-5.386719 0-10.460937-2.144532-14.183594-5.828125-3.726562 3.679687-8.800781 5.828125-14.183593 5.828125-11.128907 0-20.1875-9.054688-20.1875-20.183594s9.054687-20.183594 20.1875-20.183594c5.382812 0 10.457031 2.144532 14.183593 5.828125 3.722657-3.679687 8.796875-5.828125 14.183594-5.828125 5.382813 0 10.457031 2.148438 14.183594 5.828125 3.726562-3.683593 8.796875-5.828125 14.179687-5.828125 5.808594 0 11.34375 2.539063 15.15625 6.875l46.480469 3.074219c2.101563.136719 3.734375 1.882813 3.734375 3.992187v12.484376c0 2.109374-1.632812 3.855468-3.734375 3.992187l-46.480469 3.074219c-3.8125 4.335937-9.347656 6.875-15.15625 6.875zm-14.183594-16.390625c1.460938 0 2.800782.792969 3.503907 2.070312 2.148437 3.902344 6.238281 6.324219 10.679687 6.324219 3.898438 0 7.59375-1.902344 9.886719-5.085938.695313-.972656 1.789063-1.578124 2.980469-1.65625l44.503906-2.945312v-4.996094l-44.503906-2.945312c-1.191406-.078125-2.285156-.683594-2.980469-1.65625-2.292969-3.183594-5.988281-5.085938-9.886719-5.085938-4.441406 0-8.53125 2.421875-10.679687 6.324219-.703125 1.277344-2.042969 2.070313-3.503907 2.070313-1.457031 0-2.796874-.789063-3.503906-2.070313-2.148437-3.898437-6.238281-6.320313-10.679687-6.320313-4.4375 0-8.535157 2.421876-10.679688 6.320313-.703125 1.28125-2.046875 2.074219-3.503906 2.074219s-2.800781-.792969-3.503906-2.074219c-2.144531-3.898437-6.238281-6.320313-10.679688-6.320313-6.71875 0-12.183593 5.464844-12.183593 12.183594s5.464843 12.183594 12.183593 12.183594c4.441407 0 8.535157-2.421875 10.679688-6.320312.703125-1.277344 2.046875-2.074219 3.503906-2.074219s2.800781.796875 3.503906 2.074219c2.144531 3.898437 6.238281 6.320312 10.679688 6.320312 4.441406 0 8.535156-2.421875 10.679687-6.320312.707032-1.28125 2.046875-2.074219 3.503906-2.074219zm0 0" fill="#690589"/><path d="m219.164062 67.199219c-29.195312 0-52.863281-23.667969-52.863281-52.859375v-10.339844h105.726563v10.339844c0 29.195312-23.667969 52.859375-52.863282 52.859375zm0 0" fill="#fcc24c"/><path d="m260.027344 4v10.339844c0 27.164062-20.496094 49.53125-46.863282 52.511718 1.96875.222657 3.96875.347657 6 .347657 29.195313 0 52.863282-23.664063 52.863282-52.859375v-10.339844zm0 0" fill="#dea42e"/><path d="m178.300781 4v10.339844c0 27.164062 20.496094 49.53125 46.863281 52.511718-1.96875.222657-3.96875.347657-6 .347657-29.195312 0-52.863281-23.664063-52.863281-52.859375v-10.339844zm0 0" fill="#fce06a"/><path d="m219.164062 71.199219c-31.351562 0-56.859374-25.507813-56.859374-56.859375v-10.339844c0-2.207031 1.792968-4 4-4h105.722656c2.207031 0 4 1.792969 4 4v10.339844c0 31.351562-25.507813 56.859375-56.863282 56.859375zm-48.863281-63.199219v6.339844c0 26.941406 21.917969 48.859375 48.863281 48.859375 26.941407 0 48.863282-21.917969 48.863282-48.859375v-6.339844zm0 0" fill="#690589"/><path d="m219.164062 193.601562c-4.929687 0-9.699218-.691406-14.226562-1.953124l-7.21875 47.328124h42.890625l-7.222656-47.328124c-4.523438 1.261718-9.289063 1.953124-14.222657 1.953124zm0 0" fill="#f4efed"/><path d="m233.390625 191.648438c-3.136719.875-6.394531 1.453124-9.734375 1.738281l6.957031 45.589843h10zm0 0" fill="#d6d1cf"/><path d="m204.941406 191.648438c3.132813.875 6.394532 1.453124 9.734375 1.738281l-6.957031 45.589843h-10zm0 0" fill="#fff"/><path d="m240.609375 242.976562h-42.890625c-1.167969 0-2.273438-.507812-3.035156-1.390624-.757813-.886719-1.09375-2.058594-.917969-3.210938l7.21875-47.328125c.171875-1.132813.820313-2.136719 1.785156-2.757813.960938-.617187 2.140625-.800781 3.246094-.492187 8.589844 2.394531 17.710937 2.394531 26.300781 0 1.101563-.308594 2.285156-.132813 3.246094.492187.960938.621094 1.609375 1.625 1.785156 2.757813l7.21875 47.328125c.175782 1.152344-.160156 2.324219-.921875 3.210938-.761719.882812-1.867187 1.390624-3.035156 1.390624zm-38.234375-8h33.582031l-5.867187-38.4375c-7.203125 1.414063-14.640625 1.414063-21.851563 0zm0 0" fill="#690589"/></svg>