<svg height="503pt" viewBox="-105 0 503 503.9155" width="503pt" xmlns="http://www.w3.org/2000/svg"><path d="m185.179688 499.914062h-75.703126c-12.914062 0-23.980468-9.246093-26.273437-21.953124l-22.738281-125.894532h173.726562l-22.734375 125.894532c-2.296875 12.707031-13.359375 21.953124-26.277343 21.953124zm0 0" fill="#7bac51"/><path d="m209.332031 352.066406-22.734375 125.894532c-2.296875 12.707031-13.359375 21.953124-26.277344 21.953124h24.863282c12.914062 0 23.976562-9.242187 26.273437-21.953124l22.738281-125.894532zm0 0" fill="#5d8e33"/><path d="m85.324219 352.066406 22.738281 125.894532c2.296875 12.707031 13.359375 21.953124 26.277344 21.953124h-24.863282c-12.914062 0-23.980468-9.242187-26.273437-21.953124l-22.738281-125.894532zm0 0" fill="#99ca6f"/><path d="m185.179688 503.914062h-75.703126c-14.863281 0-27.570312-10.617187-30.210937-25.246093l-22.734375-125.890625c-.210938-1.164063.105469-2.367188.867188-3.277344.757812-.910156 1.882812-1.433594 3.070312-1.433594h173.726562c1.183594 0 2.308594.523438 3.070313 1.433594.757813.910156 1.078125 2.113281.867187 3.277344l-22.738281 125.894531c-2.644531 14.625-15.347656 25.242187-30.214843 25.242187zm-119.925782-147.847656 21.886719 121.179688c1.953125 10.816406 11.347656 18.667968 22.339844 18.667968h75.703125c10.992187 0 20.382812-7.851562 22.339844-18.667968l21.882812-121.179688zm0 0" fill="#690589"/><path d="m90.847656 403.621094c-1.898437 0-3.582031-1.355469-3.933594-3.289063l-4.332031-24c-.390625-2.175781 1.050781-4.253906 3.226563-4.648437 2.167968-.386719 4.253906 1.050781 4.648437 3.226562l4.332031 24c.394532 2.171875-1.050781 4.253906-3.226562 4.648438-.238281.039062-.480469.0625-.714844.0625zm0 0" fill="#690589"/><path d="m221.644531 242.546875c30.535157-4.707031 56.011719-16.328125 68.558594-29.695313-15.988281-8.960937-43.789063-12.371093-74.316406-7.660156-3.292969.507813-6.515625 1.109375-9.679688 1.769532 7.402344-5.683594 14.78125-12.125 21.941407-19.28125 27.382812-27.382813 44.53125-58.011719 47.3125-80.816407-22.804688 2.78125-53.433594 19.929688-80.816407 47.3125-9.421875 9.417969-17.59375 19.222657-24.425781 28.960938 4.667969-18.921875 7.324219-40.613281 7.324219-63.683594 0-49.382813-12.15625-92.464844-30.214844-115.539063-18.054687 23.074219-30.210937 66.15625-30.210937 115.539063 0 23.070313 2.65625 44.761719 7.324218 63.683594-6.832031-9.738281-15.003906-19.542969-24.425781-28.960938-27.382813-27.378906-58.011719-44.53125-80.816406-47.3125 2.78125 22.804688 19.929687 53.4375 47.3125 80.816407 7.15625 7.160156 14.539062 13.597656 21.941406 19.285156-3.164063-.664063-6.386719-1.265625-9.679687-1.773438-30.53125-4.707031-58.328126-1.300781-74.316407 7.664063 12.546875 13.363281 38.023438 24.984375 68.558594 29.695312 13.953125 2.152344 27.316406 2.589844 39.261719 1.59375-3 1.796875-6.011719 3.789063-8.996094 5.976563-15.800781 11.578125-26.734375 25.566406-29.882812 36.753906 11.617187.367188 28.25-5.84375 44.050781-17.421875 14.578125-10.6875 25-23.417969 29-34.113281.234375-.125.488281-.242188.71875-.371094.054687.007812.109375.019531.164062.027344.054688-.007813.109375-.019532.164063-.027344.230468.128906.484375.246094.71875.371094 4 10.695312 14.421875 23.425781 29 34.113281 15.800781 11.578125 32.433594 17.789063 44.050781 17.421875-3.148437-11.183594-14.082031-25.175781-29.882813-36.753906-2.980468-2.1875-5.992187-4.179688-8.996093-5.976563 11.941406.996094 25.304687.554688 39.257812-1.597656zm0 0" fill="#7bac51"/><g fill="#690589"><path d="m147.328125 435.992188c-2.207031 0-4-1.792969-4-4v-197.105469c0-2.210938 1.792969-4 4-4 2.210937 0 4 1.789062 4 4v197.105469c0 2.207031-1.789063 4-4 4zm0 0"/><path d="m74.402344 290.890625c-.378906 0-.757813-.007813-1.128906-.019531-1.230469-.039063-2.375-.640625-3.101563-1.632813-.726563-.992187-.957031-2.265625-.625-3.449219 3.359375-11.9375 14.128906-25.667968 29.023437-37.136718-8.5-.058594-17.253906-.777344-26.164062-2.152344-30.636719-4.722656-57.128906-16.277344-70.863281-30.910156-.84375-.894532-1.226563-2.128906-1.039063-3.347656.1875-1.214844.925782-2.277344 1.996094-2.878907 16.546875-9.277343 43.121094-12.496093 71.855469-8.835937-3.644531-3.210938-7.210938-6.558594-10.671875-10.019532-27.320313-27.316406-45.4375-58.410156-48.457032-83.160156-.148437-1.21875.273438-2.445312 1.144532-3.3125.867187-.871094 2.085937-1.292968 3.3125-1.140625 24.75 3.019531 55.839844 21.132813 83.160156 48.453125 5 5 9.726562 10.179688 14.148438 15.492188-2.546876-15.089844-3.875-31.183594-3.875-47.382813 0-48.300781 11.902343-93.519531 31.0625-118.003906 1.515624-1.9375 4.78125-1.9375 6.296874 0 19.160157 24.484375 31.0625 69.703125 31.0625 118.003906 0 16.199219-1.324218 32.292969-3.875 47.382813 4.425782-5.316406 9.152344-10.492188 14.148438-15.492188 27.324219-27.320312 58.410156-45.433594 83.164062-48.453125 1.21875-.152343 2.441407.269531 3.3125 1.140625.867188.871094 1.289063 2.09375 1.140626 3.3125-3.019532 24.75-21.132813 55.839844-48.457032 83.160156-3.457031 3.460938-7.023437 6.808594-10.667968 10.019532 28.730468-3.660156 55.308593-.4375 71.851562 8.835937 1.074219.601563 1.8125 1.664063 2 2.878907.1875 1.21875-.195312 2.453124-1.039062 3.347656-13.734376 14.632812-40.226563 26.1875-70.863282 30.910156-8.910156 1.375-17.664062 2.09375-26.164062 2.152344 14.894531 11.46875 25.660156 25.203125 29.023437 37.136718.332031 1.183594.101563 2.457032-.625 3.449219-.726562.992188-1.871093 1.59375-3.101562 1.632813-13.019531.394531-30.429688-6.390625-46.539063-18.195313-12.109375-8.875-21.980468-19.617187-27.519531-29.75-5.535156 10.132813-15.410156 20.875-27.515625 29.75-15.648438 11.46875-32.511719 18.214844-45.410156 18.214844zm37.878906-50.746094c1.722656 0 3.269531 1.109375 3.804688 2.773438.570312 1.773437-.15625 3.703125-1.753907 4.660156-2.941406 1.757813-5.863281 3.699219-8.6875 5.765625-12.125 8.886719-21.726562 19.621094-26.304687 29.175781 10.488281-1.488281 23.613281-7.40625 35.742187-16.296875 13.40625-9.824218 23.730469-21.894531 27.621094-32.285156.339844-.910156 1-1.664062 1.855469-2.125l.65625-.335938c.746094-.414062 1.601562-.582031 2.449218-.476562.628907.035156 1.273438.191406 1.785157.476562l.65625.335938c.855469.460938 1.515625 1.214844 1.855469 2.125 3.886718 10.390625 14.210937 22.460938 27.617187 32.285156 12.128906 8.890625 25.257813 14.808594 35.746094 16.296875-4.582031-9.550781-14.179688-20.289062-26.304688-29.175781-2.824219-2.070312-5.746093-4.011719-8.6875-5.765625-1.597656-.957031-2.324219-2.886719-1.757812-4.660156.570312-1.769531 2.28125-2.90625 4.140625-2.761719 11.972656 1 25.226562.460938 38.324218-1.5625 25.703126-3.960938 48.875-13.226562 62.25-24.671875-16.195312-6.882813-41.085937-8.742187-66.792968-4.777344-3.015625.464844-6.113282 1.03125-9.464844 1.734375-1.832031.382813-3.675781-.550781-4.457031-2.246094-.777344-1.699218-.28125-3.707031 1.199219-4.84375 7.464843-5.734374 14.714843-12.105468 21.550781-18.9375 23.734375-23.734374 40.636719-51.1875 45.273437-73.121093-21.9375 4.636719-49.386718 21.539062-73.125 45.273437-8.972656 8.972656-17.039062 18.539063-23.976562 28.429688-1.105469 1.578125-3.179688 2.136718-4.929688 1.34375-1.753906-.796875-2.691406-2.730469-2.226562-4.601563 4.710937-19.109375 7.203125-40.796875 7.203125-62.722656 0-43.835937-9.953125-84.777344-26.210938-108.746094-16.257812 23.96875-26.210937 64.910157-26.210937 108.746094 0 21.925781 2.492187 43.613281 7.203125 62.722656.460937 1.871094-.472657 3.800781-2.226563 4.601563-1.75.792968-3.824218.230468-4.929687-1.347656-6.9375-9.886719-15.003907-19.449219-23.976563-28.425782-23.738281-23.734375-51.191406-40.636718-73.125-45.273437 4.636719 21.933593 21.539063 49.386719 45.273438 73.121093 6.835937 6.832032 14.085937 13.207032 21.550781 18.9375 1.480469 1.136719 1.976563 3.144532 1.199219 4.84375-.78125 1.695313-2.636719 2.625-4.457032 2.246094-3.355468-.703125-6.453124-1.269531-9.46875-1.734375-25.703124-3.960937-50.589843-2.109375-66.789062 4.777344 13.371094 11.445313 36.542969 20.710937 62.25 24.671875 13.097656 2.023438 26.347656 2.558594 38.320312 1.5625.113282-.007812.222657-.011719.335938-.011719zm109.363281 2.402344h.019531zm0 0"/><path d="m125.679688 429.992188c-.914063 0-1.828126-.3125-2.578126-.941407-1.691406-1.425781-1.902343-3.949219-.480468-5.636719l21.652344-25.664062c1.519531-1.800781 4.59375-1.800781 6.113281 0l21.652343 25.664062c1.425782 1.6875 1.210938 4.210938-.476562 5.636719-1.6875 1.421875-4.210938 1.210938-5.636719-.480469l-18.597656-22.039062-18.589844 22.039062c-.792969.9375-1.921875 1.421876-3.058593 1.421876zm0 0"/><path d="m181.074219 412.328125c-1.136719 0-2.265625-.484375-3.058594-1.421875l-30.6875-36.375-30.683594 36.375c-1.425781 1.6875-3.949219 1.902344-5.636719.476562-1.6875-1.421874-1.902343-3.949218-.476562-5.636718l33.742188-40c1.523437-1.800782 4.59375-1.800782 6.117187 0l33.742187 40c1.425782 1.6875 1.210938 4.214844-.476562 5.636718-.753906.632813-1.667969.945313-2.582031.945313zm0 0"/><path d="m112.210938 470.300781c-8.167969 0-14.808594-6.644531-14.808594-14.808593 0-8.164063 6.644531-14.808594 14.808594-14.808594 8.164062 0 14.808593 6.644531 14.808593 14.808594 0 8.164062-6.644531 14.808593-14.808593 14.808593zm0-21.621093c-3.753907 0-6.808594 3.054687-6.808594 6.808593 0 3.753907 3.054687 6.808594 6.808594 6.808594 3.753906 0 6.808593-3.054687 6.808593-6.808594 0-3.753906-3.054687-6.808593-6.808593-6.808593zm0 0"/><path d="m181.074219 466.617188c-8.167969 0-14.808594-6.644532-14.808594-14.808594 0-8.164063 6.644531-14.808594 14.808594-14.808594 8.164062 0 14.808593 6.644531 14.808593 14.808594 0 8.164062-6.644531 14.808594-14.808593 14.808594zm0-21.617188c-3.753907 0-6.808594 3.054688-6.808594 6.808594s3.054687 6.808594 6.808594 6.808594c3.753906 0 6.808593-3.054688 6.808593-6.808594s-3.054687-6.808594-6.808593-6.808594zm0 0"/></g><path d="m228.375 352.066406h-162.089844c-11.652344 0-21.101562-9.449218-21.101562-21.101562 0-11.65625 9.449218-21.101563 21.101562-21.101563h162.089844c11.65625 0 21.101562 9.445313 21.101562 21.101563s-9.449218 21.101562-21.101562 21.101562zm0 0" fill="#fcc24c"/><path d="m228.375 309.863281h-24.859375c11.652344 0 21.101563 9.449219 21.101563 21.101563 0 11.65625-9.449219 21.101562-21.101563 21.101562h24.859375c11.652344 0 21.101562-9.445312 21.101562-21.101562s-9.449218-21.101563-21.101562-21.101563zm0 0" fill="#dea42e"/><path d="m66.285156 352.066406h24.859375c-11.652343 0-21.101562-9.449218-21.101562-21.101562 0-11.65625 9.449219-21.101563 21.101562-21.101563h-24.859375c-11.652344 0-21.101562 9.445313-21.101562 21.101563s9.449218 21.101562 21.101562 21.101562zm0 0" fill="#fce06a"/><path d="m228.375 356.066406h-162.089844c-13.839844 0-25.101562-11.261718-25.101562-25.101562 0-13.84375 11.261718-25.101563 25.101562-25.101563h162.089844c13.839844 0 25.101562 11.257813 25.101562 25.101563 0 13.839844-11.261718 25.101562-25.101562 25.101562zm-162.089844-42.203125c-9.429687 0-17.101562 7.671875-17.101562 17.101563 0 9.429687 7.671875 17.101562 17.101562 17.101562h162.089844c9.429688 0 17.101562-7.671875 17.101562-17.101562 0-9.429688-7.671874-17.101563-17.101562-17.101563zm0 0" fill="#690589"/></svg>