<svg height="504pt" viewBox="0 -39 504.00117 504" width="504pt" xmlns="http://www.w3.org/2000/svg"><path d="m4 366.597656c21.777344 23.195313 66.003906 43.371094 119 51.542969 53 8.171875 101.25 2.257813 129-13.300781-21.777344-23.199219-66.003906-43.375-119-51.546875s-101.246094-2.253907-129 13.304687zm0 0" fill="#7bac51"/><path d="m143 418.140625c-52.996094-8.171875-97.222656-28.347656-119-51.542969 17.363281-9.734375 42.753906-15.695312 72.308594-16.792968-38.035156-1.324219-71.136719 4.921874-92.308594 16.792968 21.777344 23.195313 66.003906 43.371094 119 51.542969 19.839844 3.058594 39.011719 4.144531 56.691406 3.488281-11.824218-.414062-24.121094-1.546875-36.691406-3.488281zm0 0" fill="#99ca6f"/><path d="m169.324219 425.757812c-15.132813 0-30.964844-1.199218-46.933594-3.664062-51.769531-7.980469-98.25-28.199219-121.304687-52.757812-.84375-.898438-1.226563-2.132813-1.039063-3.347657.183594-1.214843.921875-2.277343 1.996094-2.878906 29.386719-16.476563 79.796875-21.753906 131.566406-13.769531 51.765625 7.980468 98.25 28.195312 121.308594 52.757812.839843.898438 1.222656 2.132813 1.035156 3.347656-.183594 1.214844-.921875 2.277344-1.996094 2.878907-20.320312 11.394531-50.707031 17.433593-84.632812 17.433593zm-158.632813-58.128906c23 21.613282 65.558594 39.253906 112.917969 46.558594 47.359375 7.300781 93.257813 3.300781 121.703125-10.382812-23.003906-21.617188-65.558594-39.253907-112.921875-46.554688-47.363281-7.304688-93.257813-3.304688-121.699219 10.378906zm0 0" fill="#690589"/><path d="m169.871094 264.742188c-61.417969-61.417969-124.226563-98.183594-140.285156-82.125-16.058594 16.058593 20.710937 78.867187 82.125 140.285156 61.417968 61.414062 124.226562 98.183594 140.285156 82.125 16.0625-16.058594-20.707032-78.867188-82.125-140.285156zm0 0" fill="#7bac51"/><path d="m131.714844 322.902344c-45.785156-45.785156-75.078125-96.800782-81.488282-135.871094-7.191406-2.125-14.101562-3.617188-20.640624-4.414062 4.832031 39.585937 34.597656 92.753906 82.128906 140.285156 47.53125 47.527344 100.699218 77.296875 140.285156 82.128906-.179688-1.453125-.398438-2.929688-.640625-4.414062-36.359375-10.75-79.964844-38.035157-119.644531-77.714844zm0 0" fill="#99ca6f"/><path d="m252 409.03125c-.160156 0-.320312-.011719-.484375-.03125-41.703125-5.089844-96.351563-36.996094-142.628906-83.269531-46.273438-46.273438-78.179688-100.925781-83.269531-142.628907-.148438-1.21875.273437-2.445312 1.144531-3.3125.867187-.867187 2.085937-1.289062 3.308593-1.140624 41.707032 5.089843 96.359376 36.996093 142.628907 83.269531 46.273437 46.273437 78.179687 100.925781 83.269531 142.628906.148438 1.21875-.269531 2.441406-1.140625 3.3125-.753906.753906-1.773437 1.171875-2.828125 1.171875zm-217.667969-221.667969c6.800781 39.3125 37.078125 89.578125 80.210938 132.710938 43.136719 43.132812 93.402343 73.410156 132.714843 80.210937-6.804687-39.316406-37.078124-89.578125-80.214843-132.714844-43.132813-43.128906-93.398438-73.40625-132.710938-80.207031zm0 0" fill="#690589"/><path d="m499.992188 366.585938c-2.757813-17.90625-60.515626-23.863282-128.996094-13.304688-68.480469 10.5625-121.757813 33.640625-119 51.546875 2.761718 17.90625 60.519531 23.863281 129 13.300781 68.480468-10.558594 121.757812-33.636718 118.996094-51.542968zm0 0" fill="#7bac51"/><path d="m407.691406 349.804688c29.554688 1.097656 54.945313 7.058593 72.308594 16.792968-21.777344 23.195313-66.003906 43.371094-119 51.542969-12.570312 1.941406-24.867188 3.074219-36.691406 3.488281 17.683594.65625 36.855468-.429687 56.691406-3.488281 53-8.171875 97.222656-28.347656 119-51.542969-21.167969-11.871094-54.273438-18.117187-92.308594-16.792968zm0 0" fill="#5d8e33"/><path d="m334.675781 425.757812c-33.929687 0-64.308593-6.039062-84.632812-17.433593-1.074219-.601563-1.808594-1.664063-1.996094-2.878907-.1875-1.214843.195313-2.449218 1.039063-3.347656 23.054687-24.5625 69.539062-44.777344 121.304687-52.757812 51.765625-7.980469 102.179687-2.707032 131.566406 13.769531 1.074219.601563 1.808594 1.664063 1.996094 2.878906.1875 1.214844-.191406 2.449219-1.035156 3.347657-23.058594 24.558593-69.542969 44.777343-121.308594 52.757812-15.964844 2.460938-31.804687 3.664062-46.933594 3.664062zm-75.984375-21.953124c28.441406 13.683593 74.335938 17.683593 121.699219 10.382812s89.917969-24.945312 112.921875-46.558594c-28.445312-13.683594-74.339844-17.6875-121.703125-10.382812-47.359375 7.300781-89.917969 24.941406-112.917969 46.558594zm0 0" fill="#690589"/><path d="m474.40625 182.617188c-16.058594-16.058594-78.867188 20.710937-140.28125 82.128906-61.417969 61.417968-98.1875 124.222656-82.128906 140.285156 16.058594 16.058594 78.867187-20.710938 140.285156-82.128906 61.417969-61.414063 98.1875-124.222656 82.125-140.285156zm0 0" fill="#7bac51"/><path d="m453.769531 187.03125c-6.40625 39.070312-35.699219 90.085938-81.484375 135.871094-39.679687 39.679687-83.285156 66.96875-119.644531 77.710937-.242187 1.488281-.460937 2.960938-.640625 4.414063 39.589844-4.828125 92.757812-34.597656 140.285156-82.128906 47.527344-47.527344 77.296875-100.695313 82.128906-140.285157-6.539062.800781-13.453124 2.292969-20.644531 4.417969zm0 0" fill="#5d8e33"/><path d="m252 409.03125c-1.054688 0-2.074219-.417969-2.828125-1.171875-.871094-.871094-1.292969-2.09375-1.140625-3.3125 5.089844-41.703125 36.996094-96.355469 83.269531-142.628906 46.269531-46.273438 100.921875-78.179688 142.628907-83.269531 1.21875-.148438 2.441406.273437 3.308593 1.140624.871094.871094 1.292969 2.09375 1.144531 3.3125-5.089843 41.703126-37 96.355469-83.269531 142.628907-46.273437 46.273437-100.925781 78.179687-142.628906 83.269531-.164063.019531-.320313.03125-.484375.03125zm217.667969-221.667969c-39.316407 6.800781-89.578125 37.078125-132.710938 80.207031-43.136719 43.136719-73.410156 93.402344-80.210937 132.714844 39.3125-6.804687 89.574218-37.078125 132.710937-80.210937 43.132813-43.132813 73.410157-93.398438 80.210938-132.710938zm0 0" fill="#690589"/><path d="m304.441406 204.472656c0-110.761718-23.476562-200.554687-52.441406-200.554687-28.960938 0-52.441406 89.792969-52.441406 200.554687 0 110.765625 23.480468 200.558594 52.441406 200.558594 28.964844 0 52.441406-89.792969 52.441406-200.558594zm0 0" fill="#7bac51"/><path d="m199.558594 204.472656c0-85.714844 21.097656-160.5 52.441406-200.550781 0 0-33.710938 84.316406-33.710938 218.1875s33.710938 182.921875 33.710938 182.921875c-31.34375-40.054688-52.441406-114.839844-52.441406-200.558594zm0 0" fill="#99ca6f"/><path d="m304.441406 204.472656c0-85.714844-21.101562-160.5-52.441406-200.550781 0 0 33.710938 84.316406 33.710938 218.1875s-33.710938 182.921875-33.710938 182.921875c31.339844-40.054688 52.441406-114.839844 52.441406-200.558594zm0 0" fill="#5d8e33"/><g fill="#690589"><path d="m252 409.03125c-1.230469 0-2.390625-.566406-3.148438-1.539062-32.875-42.007813-53.292968-119.800782-53.292968-203.019532 0-83.214844 20.417968-161.007812 53.292968-203.019531 1.515626-1.9375 4.785157-1.9375 6.296876 0 32.875 42.011719 53.292968 119.804687 53.292968 203.019531 0 83.21875-20.417968 161.011719-53.292968 203.019532-.757813.96875-1.917969 1.539062-3.148438 1.539062zm0-398.453125c-29.972656 41.554687-48.441406 115.105469-48.441406 193.894531 0 78.792969 18.46875 152.339844 48.441406 193.894532 29.972656-41.554688 48.441406-115.101563 48.441406-193.894532 0-78.789062-18.46875-152.339844-48.441406-193.894531zm0 0"/><path d="m226.828125 105.445312c-.3125 0-.628906-.039062-.945313-.113281-2.144531-.523437-3.464843-2.683593-2.945312-4.832031 2.007812-8.292969 4.226562-16.441406 6.59375-24.222656.644531-2.117188 2.878906-3.304688 4.992188-2.664063 2.113281.644531 3.304687 2.878907 2.664062 4.992188-2.324219 7.632812-4.503906 15.632812-6.472656 23.777343-.445313 1.832032-2.082032 3.0625-3.886719 3.0625zm0 0"/></g></svg>