<svg height="504pt" viewBox="-14 0 503 504" width="504pt" xmlns="http://www.w3.org/2000/svg"><path d="m399.734375 176.957031v-172.957031h-61.183594v107.203125l-99.75-107.203125-234.304687 251.8125h73.375v244.1875h321.863281v-244.1875h73.371094zm0 0" fill="#f4efed"/><path d="m473.105469 255.8125h-38.710938l-195.59375-251.8125zm0 0" fill="#d6d1cf"/><path d="m4.496094 255.8125h38.710937l195.59375-251.8125zm0 0" fill="#fff"/><path d="m379.734375 500h20v-244.1875h-3.199219c-9.28125 0-16.800781 7.523438-16.800781 16.800781zm0 0" fill="#d6d1cf"/><path d="m97.269531 500h-20v-244.1875h3.195313c9.28125 0 16.804687 7.523438 16.804687 16.800781zm0 0" fill="#fff"/><path d="m298.960938 291.664062c24.710937-3.8125 45.339843-13.21875 55.496093-24.039062-12.941406-7.253906-35.445312-10.015625-60.160156-6.203125-2.664063.414063-5.269531.898437-7.835937 1.4375 5.996093-4.601563 11.96875-9.816406 17.761718-15.609375 22.167969-22.164062 36.046875-46.960938 38.300782-65.421875-18.460938 2.253906-43.253907 16.132813-65.421876 38.300781-7.625 7.625-14.242187 15.558594-19.769531 23.441406 3.777344-15.316406 5.925781-32.875 5.925781-51.550781 0-39.972656-9.839843-74.847656-24.453124-93.527343-14.617188 18.679687-24.457032 53.554687-24.457032 93.527343 0 18.675781 2.148438 36.234375 5.929688 51.550781-5.53125-7.882812-12.148438-15.816406-19.773438-23.441406-22.164062-22.164062-46.957031-36.046875-65.421875-38.300781 2.253907 18.460937 16.136719 43.257813 38.300781 65.421875 5.792969 5.792969 11.769532 11.007812 17.761719 15.609375-2.5625-.539063-5.167969-1.023437-7.835937-1.4375-24.710938-3.808594-47.214844-1.050781-60.15625 6.203125 10.15625 10.820312 30.78125 20.226562 55.496094 24.039062 11.296874 1.742188 22.113281 2.097657 31.785156 1.292969-2.433594 1.453125-4.871094 3.066407-7.285156 4.835938-12.789063 9.371093-21.640626 20.695312-24.191407 29.753906 9.402344.296875 22.867188-4.734375 35.660157-14.105469 11.800781-8.648437 20.238281-18.957031 23.472656-27.613281.191406-.101563.394531-.195313.582031-.296875.042969.003906.089844.015625.132813.019531.046874-.007812.089843-.015625.132812-.019531.1875.101562.390625.195312.582031.296875 3.238281 8.65625 11.671875 18.964844 23.472657 27.613281 12.792968 9.371094 26.253906 14.402344 35.660156 14.105469-2.550782-9.058594-11.402344-20.382813-24.191406-29.753906-2.414063-1.769531-4.851563-3.382813-7.285157-4.835938 9.671875.804688 20.488281.449219 31.785157-1.292969zm0 0" fill="#7bac51"/><path d="m231.050781 359.824219c-2.210937 0-4-1.792969-4-4s1.789063-4 4-4c2.066407 0 3.75-1.683594 3.75-3.75v-62.613281c0-2.207032 1.792969-4 4-4s4 1.792968 4 4v62.609374c0 6.480469-5.269531 11.753907-11.75 11.753907zm0 0" fill="#690589"/><path d="m297.839844 331.558594c-10.601563 0-24.417969-5.515625-37.210938-14.890625-9.417968-6.898438-17.183594-15.203125-21.824218-23.148438-4.640626 7.945313-12.410157 16.25-21.824219 23.148438-13.171875 9.652343-27.457031 15.210937-38.152344 14.875-1.226563-.039063-2.371094-.640625-3.097656-1.632813-.726563-.992187-.957031-2.265625-.625-3.449218 2.628906-9.351563 10.761719-20.019532 22.066406-29.121094-6.238281-.144532-12.636719-.71875-19.136719-1.71875-24.960937-3.851563-46.570312-13.292969-57.800781-25.253906-.84375-.898438-1.226563-2.132813-1.039063-3.347657.1875-1.214843.925782-2.277343 2-2.878906 13.0625-7.324219 33.730469-10.039063 56.21875-7.53125-2.335937-2.113281-4.625-4.292969-6.863281-6.527344-22.230469-22.234375-36.976562-47.566406-39.441406-67.765625-.148437-1.21875.273437-2.445312 1.140625-3.3125.871094-.871094 2.085938-1.289062 3.3125-1.140625 20.203125 2.464844 45.535156 17.207031 67.765625 39.441407 3.398437 3.398437 6.644531 6.898437 9.722656 10.484374-1.78125-11.464843-2.707031-23.578124-2.707031-35.761718 0-39.855469 9.460938-75.742188 25.304688-95.996094 1.515624-1.9375 4.789062-1.9375 6.300781 0 15.847656 20.25 25.304687 56.136719 25.304687 95.996094 0 12.183594-.925781 24.296875-2.707031 35.761718 3.074219-3.582031 6.320313-7.085937 9.722656-10.484374 22.230469-22.234376 47.5625-36.980469 67.765625-39.441407 1.21875-.152343 2.441406.269531 3.3125 1.140625s1.289063 2.09375 1.140625 3.3125c-2.464843 20.199219-17.207031 45.53125-39.441406 67.761719-2.238281 2.238281-4.527344 4.417969-6.863281 6.53125 22.484375-2.507813 43.15625.207031 56.21875 7.53125 1.074218.601563 1.8125 1.664063 2 2.878906.1875 1.214844-.195313 2.449219-1.039063 3.347657-11.230469 11.960937-32.839843 21.40625-57.800781 25.253906-6.5 1-12.898438 1.574218-19.140625 1.71875 11.308594 9.101562 19.441406 19.769531 22.070313 29.121094.332031 1.183593.105468 2.457031-.625 3.449218-.726563.992188-1.871094 1.59375-3.097657 1.632813-.300781.007812-.613281.015625-.929687.015625zm-87.414063-42.601563c1.726563 0 3.273438 1.109375 3.808594 2.773438.566406 1.773437-.160156 3.703125-1.757813 4.660156-2.355468 1.410156-4.703124 2.96875-6.972656 4.628906-9.167968 6.71875-16.523437 14.738281-20.390625 22.011719 8.105469-1.496094 17.964844-6.09375 27.132813-12.816406 10.738281-7.867188 18.996094-17.507813 22.09375-25.785156.335937-.90625.992187-1.65625 1.84375-2.117188l.386718-.203125c.613282-.335937 1.414063-.566406 2.144532-.574219.738281-.039062 1.492187.128906 2.152344.492188l.550781.285156c.851562.460938 1.503906 1.210938 1.839843 2.117188 3.101563 8.277343 11.359376 17.917968 22.097657 25.785156 9.167969 6.722656 19.027343 11.320312 27.128906 12.816406-3.867187-7.273438-11.222656-15.292969-20.394531-22.011719-2.265625-1.660156-4.613282-3.21875-6.96875-4.628906-1.597656-.957031-2.324219-2.886719-1.753906-4.660156.570312-1.769531 2.292968-2.914063 4.136718-2.761719 9.632813.804688 20.296875.367188 30.84375-1.257812 20.070313-3.09375 38.207032-10.191407 49.046875-18.996094-12.996093-5.128906-32.421875-6.433594-52.492187-3.339844-2.421875.375-4.917969.832031-7.625 1.398438-1.820313.382812-3.675782-.546876-4.453125-2.246094-.78125-1.695313-.28125-3.707032 1.199219-4.839844 6.019531-4.625 11.863281-9.761719 17.371093-15.265625 18.703125-18.703125 32.125-40.238281 36.183594-57.648437-17.414063 4.054687-38.949219 17.484374-57.652344 36.183593-7.230469 7.234375-13.730469 14.941407-19.320312 22.910157-1.105469 1.578124-3.175781 2.140624-4.933594 1.34375-1.75-.796876-2.6875-2.730469-2.222656-4.597657 3.796875-15.414062 5.804687-32.90625 5.804687-50.59375 0-34.773437-7.75-67.257812-20.453125-86.65625-12.707031 19.398438-20.460937 51.882813-20.460937 86.65625 0 17.683594 2.011718 35.175781 5.8125 50.589844.460937 1.871094-.476563 3.800781-2.226563 4.601563-1.757812.792968-3.824219.230468-4.933593-1.34375-5.589844-7.972657-12.089844-15.679688-19.324219-22.910157-18.699219-18.703125-40.230469-32.128906-57.644531-36.183593 4.054687 17.410156 17.480468 38.945312 36.183593 57.648437 5.503907 5.503906 11.347657 10.636719 17.371094 15.261719 1.476563 1.136718 1.976563 3.144531 1.199219 4.84375-.78125 1.695312-2.636719 2.625-4.457032 2.246094-2.707031-.566407-5.203124-1.027344-7.625-1.398438-20.066406-3.09375-39.496093-1.789062-52.488281 3.339844 10.839844 8.800781 28.972657 15.898437 49.042969 18.996094 10.546875 1.625 21.210938 2.058593 30.84375 1.257812.113281-.007812.222656-.011719.332031-.011719zm88.535157 2.707031h.019531zm0 0" fill="#690589"/><path d="m304.40625 380.316406h-131.207031c-9.433594 0-17.082031-7.644531-17.082031-17.082031 0-9.433594 7.648437-17.082031 17.082031-17.082031h131.207031c9.433594 0 17.082031 7.648437 17.082031 17.082031 0 9.4375-7.648437 17.082031-17.082031 17.082031zm0 0" fill="#fcc24c"/><path d="m269.441406 500h-61.28125c-10.453125 0-19.410156-7.484375-21.269531-17.773438l-18.402344-101.910156h140.628907l-18.402344 101.910156c-1.859375 10.289063-10.816406 17.773438-21.273438 17.773438zm0 0" fill="#fcc24c"/><path d="m288.992188 380.316406-18.402344 101.910156c-1.859375 10.292969-10.8125 17.777344-21.269532 17.777344h20.125c10.453126 0 19.410157-7.484375 21.269532-17.777344l18.402344-101.910156zm0 0" fill="#dea42e"/><path d="m188.609375 380.316406 18.40625 101.910156c1.855469 10.292969 10.8125 17.777344 21.269531 17.777344h-20.125c-10.453125 0-19.410156-7.484375-21.269531-17.777344l-18.402344-101.910156zm0 0" fill="#fce06a"/><path d="m304.40625 346.152344h-20.125c9.433594 0 17.082031 7.648437 17.082031 17.082031 0 9.4375-7.648437 17.082031-17.082031 17.082031h20.125c9.433594 0 17.082031-7.644531 17.082031-17.082031 0-9.433594-7.648437-17.082031-17.082031-17.082031zm0 0" fill="#dea42e"/><path d="m173.199219 380.316406h20.121093c-9.433593 0-17.082031-7.644531-17.082031-17.082031 0-9.433594 7.648438-17.082031 17.082031-17.082031h-20.121093c-9.433594 0-17.082031 7.648437-17.082031 17.082031 0 9.4375 7.648437 17.082031 17.082031 17.082031zm0 0" fill="#fce06a"/><g fill="#690589"><path d="m304.40625 384.316406h-131.210938c-11.625 0-21.078124-9.457031-21.078124-21.082031 0-11.621094 9.457031-21.082031 21.078124-21.082031h131.210938c11.625 0 21.078125 9.460937 21.078125 21.082031 0 11.625-9.453125 21.082031-21.078125 21.082031zm-131.210938-34.160156c-7.210937 0-13.078124 5.867188-13.078124 13.082031 0 7.214844 5.867187 13.082031 13.078124 13.082031h131.210938c7.210938 0 13.078125-5.867187 13.078125-13.082031 0-7.214843-5.867187-13.082031-13.078125-13.082031zm0 0"/><path d="m269.441406 504h-61.28125c-12.402344 0-23-8.859375-25.203125-21.0625l-18.40625-101.910156c-.210937-1.164063.105469-2.367188.867188-3.273438.761719-.910156 1.882812-1.4375 3.070312-1.4375h140.628907c1.183593 0 2.304687.527344 3.070312 1.4375.757812.90625 1.074219 2.109375.863281 3.273438l-18.402343 101.910156c-2.203126 12.203125-12.804688 21.0625-25.207032 21.0625zm-96.167968-119.683594 17.550781 97.199219c1.515625 8.390625 8.804687 14.484375 17.335937 14.484375h61.28125c8.53125 0 15.816406-6.09375 17.335938-14.484375l17.550781-97.199219zm0 0"/><path d="m193.660156 426.03125c-1.894531 0-3.582031-1.355469-3.929687-3.292969l-4.671875-25.859375c-.394532-2.175781 1.050781-4.253906 3.222656-4.648437 2.191406-.394531 4.257812 1.054687 4.644531 3.226562l4.675781 25.859375c.390626 2.175782-1.050781 4.253906-3.226562 4.648438-.238281.042968-.480469.066406-.714844.066406zm0 0"/><path d="m399.734375 504h-321.863281c-2.210938 0-4-1.792969-4-4v-240.1875h-69.371094c-1.59375 0-3.03125-.945312-3.667969-2.40625-.632812-1.457031-.34375-3.152344.738281-4.320312l234.304688-251.808594c1.511719-1.628906 4.34375-1.628906 5.855469 0l92.820312 99.757812v-97.035156c0-2.207031 1.792969-4 4-4h61.183594c2.207031 0 4 1.792969 4 4v171.382812l72.296875 77.707032c1.085938 1.164062 1.375 2.859375.742188 4.320312-.636719 1.460938-2.078126 2.402344-3.667969 2.402344h-69.375v240.1875c.003906 2.207031-1.789063 4-3.996094 4zm-317.863281-8h313.863281v-240.1875c0-2.207031 1.792969-4 4-4h64.183594l-67.113281-72.128906c-.6875-.742188-1.070313-1.714844-1.070313-2.726563v-168.957031h-53.183594v103.207031c0 1.644531-1.003906 3.121094-2.535156 3.722657-1.53125.597656-3.273437.207031-4.390625-1l-96.824219-104.058594-225.117187 241.941406h64.1875c2.207031 0 4 1.792969 4 4zm0 0"/></g></svg>