<svg height="503pt" viewBox="0 -55 503.999 503" width="503pt" xmlns="http://www.w3.org/2000/svg"><path d="m406.59375 329.554688c41.597656-6.414063 76.3125-22.253907 93.40625-40.460938-21.785156-12.210938-59.65625-16.855469-101.257812-10.441406-4.484376.691406-8.875 1.515625-13.1875 2.417968 10.089843-7.746093 20.144531-16.519531 29.894531-26.269531 37.308593-37.308593 60.671875-79.042969 64.464843-110.117187-31.074218 3.792968-72.808593 27.160156-110.113281 64.464844-12.835937 12.835937-23.972656 26.191406-33.277343 39.457031 6.359374-25.777344 9.972656-55.335938 9.972656-86.765625 0-67.28125-16.5625-125.984375-41.160156-157.421875-24.601563 31.4375-41.164063 90.140625-41.164063 157.421875 0 31.429687 3.613281 60.988281 9.972656 86.765625-9.300781-13.265625-20.441406-26.621094-33.277343-39.457031-37.304688-37.308594-79.039063-60.671876-110.113282-64.464844 3.792969 31.074218 27.15625 72.808594 64.464844 110.117187 9.75 9.75 19.808594 18.523438 29.894531 26.269531-4.3125-.902343-8.703125-1.726562-13.1875-2.417968-41.601562-6.414063-79.472656-1.769532-101.253906 10.441406 17.089844 18.210938 51.804687 34.046875 93.40625 40.460938 19.011719 2.929687 37.222656 3.527343 53.496094 2.171874-4.089844 2.445313-8.195313 5.164063-12.257813 8.140626-21.527344 15.773437-36.425781 34.835937-40.714844 50.078124 15.824219.5 38.488282-7.960937 60.015626-23.738281 19.863281-14.554687 34.0625-31.90625 39.511718-46.476562.320313-.171875.667969-.328125.980469-.503907.074219.011719.152344.027344.226563.035157.070312-.007813.148437-.023438.222656-.035157.3125.175782.660156.335938.980468.503907 5.449219 14.570312 19.648438 31.921875 39.511719 46.476562 21.523438 15.777344 44.191407 24.238281 60.015625 23.738281-4.289062-15.242187-19.1875-34.300781-40.714844-50.078124-4.0625-2.976563-8.167968-5.695313-12.257812-8.140626 16.277344 1.355469 34.484375.757813 53.5-2.171874zm0 0" fill="#7bac51"/><g fill="#99ca6f"><path d="m148.824219 148.710938c5.21875 30.59375 28.144531 70.363281 63.863281 106.085937 6.417969 6.417969 12.96875 12.410156 19.574219 17.964844 2.625 2.214843.664062 6.433593-2.730469 5.910156-.046875-.007813-.089844-.015625-.136719-.019531-2.957031-.457032-5.890625-.84375-8.808593-1.1875-8.5625-6.847656-17.070313-14.382813-25.359376-22.667969-37.308593-37.308594-60.671874-79.042969-64.464843-110.117187 5.691406.699218 11.746093 2.054687 18.0625 4.03125zm0 0"/><path d="m183.960938 275.964844c-22.796876.949218-42.378907 5.59375-55.824219 13.128906 17.09375 18.207031 51.808593 34.042969 93.410156 40.457031 9.386719 1.449219 18.574219 2.320313 27.433594 2.675781-13.996094.554688-29.164063-.25-44.898438-2.675781-41.601562-6.414062-76.3125-22.25-93.40625-40.457031 16.765625-9.402344 43.089844-14.292969 73.285157-13.128906zm0 0"/><path d="m245.320312 339.863281c3.699219-2.707031 7.429688-5.191406 11.15625-7.460937 1.335938.011718 2.667969.007812 3.988282-.007813 3.996094-.042969 5.671875 5.019531 2.441406 7.378907-.039062.03125-.082031.0625-.121094.089843-20.328125 14.898438-34.734375 32.726563-39.890625 47.5-6.675781 1.855469-12.886719 2.75-18.289062 2.582031 4.289062-15.242187 19.1875-34.304687 40.714843-50.082031zm0 0"/><path d="m274.148438 248.605469c8.820312 0 15.484374-8.007813 13.839843-16.671875-4.089843-21.566406-6.347656-45.246094-6.347656-70.09375 0 0-1.449219-108.789063 23.699219-157.421875-24.601563 31.4375-41.164063 90.140625-41.164063 157.421875 0 20.269531 1.523438 39.742187 4.296875 57.945312zm0 0"/></g><path d="m461.847656 148.710938c-5.214844 30.59375-28.140625 70.363281-63.863281 106.085937-6.417969 6.417969-12.964844 12.410156-19.570313 17.964844-2.628906 2.214843-.664062 6.433593 2.730469 5.910156.046875-.007813.089844-.015625.132813-.019531 2.960937-.457032 5.894531-.84375 8.8125-1.1875 8.558594-6.847656 17.070312-14.382813 25.359375-22.667969 37.308593-37.308594 60.671875-79.042969 64.460937-110.117187-5.6875.699218-11.746094 2.054687-18.0625 4.03125zm0 0" fill="#5d8e33"/><path d="m426.710938 275.964844c22.796874.949218 42.382812 5.59375 55.824218 13.128906-17.089844 18.207031-51.808594 34.042969-93.40625 40.457031-9.390625 1.449219-18.578125 2.320313-27.4375 2.675781 13.996094.554688 29.164063-.25 44.902344-2.675781 41.597656-6.414062 76.3125-22.25 93.40625-40.457031-16.769531-9.402344-43.089844-14.292969-73.289062-13.128906zm0 0" fill="#5d8e33"/><path d="m365.355469 339.863281c-3.699219-2.707031-7.429688-5.191406-11.15625-7.460937-1.339844.011718-2.667969.007812-3.988281-.007813-4-.042969-5.671876 5.019531-2.445313 7.378907.039063.03125.082031.0625.121094.089843 20.332031 14.898438 34.738281 32.726563 39.890625 47.5 6.679687 1.855469 12.886718 2.75 18.289062 2.582031-4.289062-15.242187-19.1875-34.304687-40.710937-50.082031zm0 0" fill="#5d8e33"/><path d="m336.523438 248.605469c-8.820313 0-15.480469-8.007813-13.839844-16.671875 4.089844-21.566406 6.351562-45.246094 6.351562-70.09375 0 0 1.449219-108.789063-23.699218-157.421875 24.601562 31.4375 41.164062 90.140625 41.164062 157.421875 0 20.269531-1.523438 39.742187-4.296875 57.945312zm0 0" fill="#5d8e33"/><path d="m305.335938 393.566406c-2.207032 0-4-1.792968-4-4v-70.457031c0-2.207031 1.792968-4 4-4 2.207031 0 4 1.792969 4 4v70.457031c0 2.207032-1.789063 4-4 4zm0 0" fill="#690589"/><path d="m404.691406 393.96875c-17.273437 0-39.925781-9.089844-61.003906-24.535156-17.316406-12.691406-31.222656-28.183594-38.347656-42.488282-7.128906 14.308594-21.039063 29.796876-38.355469 42.488282-21.691406 15.898437-45.050781 25.085937-62.507813 24.507812-1.230468-.039062-2.371093-.640625-3.097656-1.632812-.726562-.992188-.957031-2.261719-.625-3.449219 4.730469-16.796875 20.507813-36.324219 42.203125-52.21875.105469-.078125.207031-.15625.316407-.234375-12.875.15625-26.199219-.804688-39.800782-2.902344-41.433594-6.390625-77.214844-21.96875-95.710937-41.671875-.84375-.898437-1.226563-2.132812-1.039063-3.347656.183594-1.214844.921875-2.277344 1.996094-2.878906 23.195312-13.007813 61.144531-17.164063 101.816406-11.207031-6.222656-5.316407-12.292968-10.921876-18.140625-16.773438-36.449219-36.449219-61.589843-79.542969-65.605469-112.457031-.148437-1.222657.269532-2.445313 1.140626-3.3125.867187-.871094 2.085937-1.292969 3.3125-1.140625 32.914062 4.015625 76.007812 29.152344 112.457031 65.605468 8.121093 8.121094 15.714843 16.589844 22.703125 25.3125-4.09375-22.039062-6.226563-45.828124-6.226563-69.792968 0-65.503906 16.097657-126.769532 42.011719-159.886719 1.515625-1.9375 4.78125-1.9375 6.296875 0 25.914063 33.117187 42.011719 94.382813 42.011719 159.886719 0 23.964844-2.132813 47.75-6.226563 69.789062 6.984375-8.71875 14.582031-17.1875 22.703125-25.308594 36.449219-36.453124 79.542969-61.589843 112.457032-65.605468 1.21875-.152344 2.445312.269531 3.3125 1.140625.871093.871093 1.292968 2.089843 1.140624 3.3125-4.015624 32.914062-29.15625 76.003906-65.605468 112.457031-5.847656 5.851562-11.917969 11.457031-18.140625 16.773438 40.675781-5.957032 78.621093-1.800782 101.816406 11.207031 1.074219.601562 1.8125 1.664062 2 2.878906s-.195313 2.449219-1.039063 3.347656c-18.5 19.703125-54.28125 35.285157-95.714843 41.671875-13.597657 2.097656-26.921875 3.066406-39.800781 2.902344.109374.078125.214843.15625.320312.234375 21.695312 15.898437 37.472656 35.421875 42.203125 52.21875.332031 1.1875.101563 2.457031-.625 3.449219-.730469.992187-1.871094 1.59375-3.101563 1.632812-.496093.019532-1 .027344-1.503906.027344zm-99.132812-78.742188c.679687 0 1.347656.171876 1.945312.503907l.917969.46875c.859375.457031 1.523437 1.214843 1.867187 2.128906 5.390626 14.414063 19.644532 31.105469 38.125 44.652344 17.699219 12.96875 36.996094 21.351562 51.933594 22.773437-5.851562-13.816406-19.660156-29.691406-37.359375-42.660156-3.882812-2.847656-7.902343-5.515625-11.945312-7.933594-1.597657-.957031-2.328125-2.886718-1.757813-4.65625.570313-1.773437 2.273438-2.90625 4.140625-2.761718 16.429688 1.367187 34.601563.625 52.554688-2.140626 36.386719-5.613281 69.117187-19.003906 87.246093-35.460937-22.246093-10.234375-57.492187-13.144531-93.875-7.535156-4.117187.632812-8.363281 1.410156-12.976562 2.378906-1.832031.382813-3.675781-.550781-4.453125-2.246094-.78125-1.699219-.285156-3.707031 1.195313-4.84375 10.222656-7.847656 20.148437-16.570312 29.503906-25.925781 33.296875-33.296875 56.792968-71.992188 62.503906-102.496094-30.503906 5.710938-69.199219 29.207032-102.496094 62.503906-12.285156 12.285157-23.332031 25.378907-32.832031 38.925782-1.105469 1.578125-3.179687 2.136718-4.929687 1.34375-1.75-.796875-2.6875-2.730469-2.226563-4.601563 6.449219-26.148437 9.859375-55.820312 9.859375-85.808593 0-61.066407-14.148438-118.074219-37.164062-150.714844-23.015626 32.640625-37.164063 89.648437-37.164063 150.714844 0 29.988281 3.410156 59.660156 9.859375 85.808593.460938 1.871094-.476562 3.800781-2.226562 4.601563-1.753907.792968-3.824219.234375-4.929688-1.34375-9.5-13.546875-20.546875-26.644532-32.832031-38.925782-33.296875-33.296874-71.992188-56.792968-102.5-62.503906 5.714843 30.503906 29.210937 69.199219 62.503906 102.496094 9.355469 9.355469 19.28125 18.078125 29.503906 25.925781 1.480469 1.136719 1.976563 3.144531 1.195313 4.84375-.777344 1.691407-2.625 2.628907-4.453125 2.246094-4.609375-.964844-8.855469-1.746094-12.976563-2.378906-36.382812-5.609375-71.628906-2.699219-93.875 7.535156 18.125 16.457031 50.859375 29.847656 87.246094 35.460937 17.957031 2.765626 36.125 3.511719 52.554688 2.140626 1.871093-.144532 3.570312.992187 4.140624 2.761718.570313 1.769532-.160156 3.699219-1.753906 4.65625-4.042968 2.417969-8.066406 5.089844-11.949218 7.933594-17.699219 12.96875-31.503907 28.84375-37.359376 42.660156 14.941407-1.417968 34.234376-9.804687 51.933594-22.769531 18.484375-13.546875 32.738282-30.238281 38.128906-44.652344.339844-.914062 1.003907-1.667969 1.863282-2.128906l.914062-.46875c.664063-.371094 1.410156-.542969 2.171875-.5.078125-.007813.152344-.007813.226563-.007813zm101.035156 14.328126h.019531zm0 0" fill="#690589"/><path d="m251.699219 389.964844h-156.160157c-24.878906 0-45.050781-20.167969-45.050781-45.050782 0-24.878906 20.171875-45.050781 45.050781-45.050781h156.160157c24.878906 0 45.050781 20.171875 45.050781 45.050781 0 24.882813-20.171875 45.050782-45.050781 45.050782zm0 0" fill="#fcc24c"/><path d="m249.933594 332.273438h-31.996094c-4.601562 0-8.335938-3.734376-8.335938-8.335938 0-4.605469 3.734376-8.335938 8.335938-8.335938h31.996094c4.605468 0 8.335937 3.730469 8.335937 8.335938 0 4.601562-3.730469 8.335938-8.335937 8.335938zm0 0" fill="#fce06a"/><path d="m251.699219 299.863281h-17.339844c24.878906 0 45.050781 20.171875 45.050781 45.050781 0 24.882813-20.171875 45.050782-45.050781 45.050782h17.339844c24.878906 0 45.050781-20.167969 45.050781-45.050782 0-24.878906-20.171875-45.050781-45.050781-45.050781zm0 0" fill="#dea42e"/><path d="m95.539062 389.96875h17.339844c-24.878906 0-45.050781-20.171875-45.050781-45.050781 0-24.882813 20.171875-45.050781 45.050781-45.050781h-17.339844c-24.878906 0-45.050781 20.167968-45.050781 45.050781 0 24.878906 20.171875 45.050781 45.050781 45.050781zm0 0" fill="#fce06a"/><path d="m251.699219 393.96875h-156.160157c-27.046874 0-49.050781-22.003906-49.050781-49.050781s22.003907-49.050781 49.050781-49.050781h156.160157c27.046875 0 49.050781 22.003906 49.050781 49.050781s-22.003906 49.050781-49.050781 49.050781zm-156.160157-90.105469c-22.632812 0-41.050781 18.417969-41.050781 41.050781 0 22.636719 18.417969 41.050782 41.050781 41.050782h156.160157c22.636719 0 41.050781-18.414063 41.050781-41.050782 0-22.632812-18.414062-41.050781-41.050781-41.050781zm0 0" fill="#690589"/><path d="m249.933594 336.273438h-31.996094c-6.804688 0-12.335938-5.53125-12.335938-12.335938 0-6.800781 5.53125-12.335938 12.335938-12.335938h31.996094c6.800781 0 12.335937 5.535157 12.335937 12.335938s-5.535156 12.335938-12.335937 12.335938zm-31.996094-16.671876c-2.390625 0-4.335938 1.945313-4.335938 4.335938s1.945313 4.335938 4.335938 4.335938h32c2.386719 0 4.335938-1.945313 4.335938-4.335938s-1.949219-4.335938-4.335938-4.335938zm0 0" fill="#690589"/><path d="m191.328125 266.347656-110.421875 110.421875c-17.59375 17.59375-46.117188 17.59375-63.710938 0-17.59375-17.59375-17.59375-46.117187 0-63.707031l110.421876-110.421875c17.59375-17.59375 46.117187-17.59375 63.710937 0 17.59375 17.589844 17.59375 46.113281 0 63.707031zm0 0" fill="#fcc24c"/><path d="m149.285156 226.804688-22.625 22.621093c-3.257812 3.257813-8.535156 3.257813-11.789062 0-3.257813-3.253906-3.257813-8.53125 0-11.789062l22.621094-22.625c3.257812-3.253907 8.535156-3.253907 11.792968 0 3.253906 3.257812 3.253906 8.535156 0 11.792969zm0 0" fill="#fce06a"/><path d="m127.617188 202.640625-12.261719 12.261719c17.59375-17.59375 46.117187-17.59375 63.710937 0 17.589844 17.589844 17.59375 46.117187 0 63.707031l12.261719-12.261719c17.59375-17.589844 17.59375-46.117187 0-63.707031-17.59375-17.59375-46.117187-17.59375-63.710937 0zm0 0" fill="#dea42e"/><path d="m80.90625 376.769531 12.257812-12.257812c-17.59375 17.59375-46.117187 17.589843-63.707031 0-17.59375-17.59375-17.59375-46.117188 0-63.710938l-12.261719 12.261719c-17.59375 17.59375-17.589843 46.117188 0 63.710938 17.59375 17.589843 46.117188 17.589843 63.710938-.003907zm0 0" fill="#fce06a"/><path d="m49.050781 393.96875c-13.101562 0-25.421875-5.105469-34.683593-14.371094-9.265626-9.261718-14.367188-21.578125-14.367188-34.683594 0-13.101562 5.101562-25.417968 14.367188-34.679687l110.421874-110.421875c19.125-19.125 50.246094-19.125 69.367188 0 19.125 19.121094 19.125 50.242188 0 69.367188l-110.421875 110.421874c-9.265625 9.261719-21.582031 14.367188-34.683594 14.367188zm110.421875-200.503906c-10.511718 0-21.023437 4-29.027344 12.003906l-110.421874 110.421875c-7.753907 7.753906-12.023438 18.058594-12.023438 29.023437 0 10.96875 4.269531 21.273438 12.023438 29.027344 7.753906 7.753906 18.0625 12.027344 29.027343 12.027344 10.964844 0 21.273438-4.273438 29.027344-12.027344l110.421875-110.421875c16.003906-16.003906 16.003906-42.046875 0-58.050781-8.003906-8.003906-18.515625-12.003906-29.027344-12.003906zm0 0" fill="#690589"/><path d="m74.410156 279.464844c-1.023437 0-2.046875-.390625-2.828125-1.175782-1.5625-1.558593-1.5625-4.09375 0-5.652343l20.808594-20.808594c1.558594-1.5625 4.09375-1.5625 5.65625 0s1.5625 4.09375 0 5.65625l-20.808594 20.804687c-.78125.785157-1.804687 1.175782-2.828125 1.175782zm0 0" fill="#690589"/><path d="m120.765625 255.863281c-3.160156 0-6.320313-1.203125-8.726563-3.609375-4.808593-4.808594-4.808593-12.636718 0-17.445312l22.625-22.625c2.328126-2.328125 5.429688-3.613282 8.722657-3.613282 3.296875 0 6.394531 1.285157 8.722656 3.613282 4.8125 4.808594 4.8125 12.636718 0 17.449218l-22.625 22.621094c-2.398437 2.40625-5.558594 3.609375-8.71875 3.609375zm22.625-39.289062c-1.113281 0-2.222656.421875-3.070313 1.269531l-22.621093 22.625c-1.691407 1.6875-1.691407 4.441406 0 6.128906 1.6875 1.691406 4.441406 1.691406 6.128906 0l22.625-22.621094c1.691406-1.695312 1.691406-4.445312 0-6.132812-.84375-.847656-1.953125-1.269531-3.0625-1.269531zm5.894531 10.230469h.019532zm0 0" fill="#690589"/></svg>