<svg height="504pt" viewBox="0 0 504 504" width="504pt" xmlns="http://www.w3.org/2000/svg"><path d="m170.453125 380.402344c0 25.878906-20.976563 46.855468-46.855469 46.855468s-46.855468-20.976562-46.855468-46.855468 20.976562-46.855469 46.855468-46.855469 46.855469 20.976563 46.855469 46.855469zm0 0" fill="#fce06a"/><path d="m427.257812 123.597656c0 25.878906-20.976562 46.855469-46.855468 46.855469s-46.855469-20.976563-46.855469-46.855469 20.976563-46.855468 46.855469-46.855468 46.855468 20.976562 46.855468 46.855468zm0 0" fill="#dea42e"/><path d="m170.453125 123.597656c0 25.878906-20.976563 46.855469-46.855469 46.855469s-46.855468-20.976563-46.855468-46.855469 20.976562-46.855468 46.855468-46.855468 46.855469 20.976562 46.855469 46.855468zm0 0" fill="#fce06a"/><path d="m427.257812 380.402344c0 25.878906-20.976562 46.855468-46.855468 46.855468s-46.855469-20.976562-46.855469-46.855468 20.976563-46.855469 46.855469-46.855469 46.855468 20.976563 46.855468 46.855469zm0 0" fill="#dea42e"/><g fill="#690589"><path d="m123.597656 431.234375c-13.023437 0-26.046875-4.957031-35.960937-14.871094-9.605469-9.605469-14.898438-22.378906-14.898438-35.960937 0-13.585938 5.292969-26.355469 14.898438-35.957032 19.828125-19.832031 52.09375-19.832031 71.917969 0 9.605468 9.601563 14.898437 22.375 14.898437 35.957032 0 13.582031-5.292969 26.355468-14.898437 35.960937-9.910157 9.914063-22.933594 14.871094-35.957032 14.871094zm0-93.667969c-10.976562 0-21.949218 4.175782-30.304687 12.535156-8.09375 8.09375-12.554688 18.855469-12.554688 30.300782 0 11.445312 4.460938 22.207031 12.554688 30.304687 16.710937 16.707031 43.898437 16.707031 60.605469 0 8.09375-8.097656 12.554687-18.859375 12.554687-30.304687 0-11.445313-4.460937-22.207032-12.554687-30.300782-8.351563-8.355468-19.328126-12.535156-30.300782-12.535156zm33.132813 75.96875h.019531zm0 0"/><path d="m380.402344 174.453125c-13.585938 0-26.355469-5.292969-35.957032-14.894531-9.605468-9.605469-14.898437-22.375-14.898437-35.957032 0-13.582031 5.292969-26.359374 14.898437-35.960937 9.601563-9.605469 22.375-14.898437 35.957032-14.898437 13.582031 0 26.355468 5.292968 35.960937 14.898437 9.601563 9.601563 14.894531 22.375 14.894531 35.960937 0 13.582032-5.292968 26.355469-14.894531 35.957032-9.605469 9.601562-22.378906 14.894531-35.960937 14.894531zm0-93.714844c-11.449219 0-22.207032 4.460938-30.300782 12.554688s-12.554687 18.855469-12.554687 30.304687c0 11.445313 4.460937 22.207032 12.554687 30.300782s18.855469 12.550781 30.300782 12.550781c11.445312 0 22.207031-4.457031 30.304687-12.550781 8.09375-8.09375 12.550781-18.855469 12.550781-30.300782 0-11.449218-4.457031-22.210937-12.550781-30.304687s-18.855469-12.554688-30.304687-12.554688zm0 0"/><path d="m123.597656 174.429688c-13.027344 0-26.046875-4.957032-35.960937-14.875-9.605469-9.601563-14.894531-22.375-14.894531-35.957032 0-13.582031 5.289062-26.355468 14.894531-35.960937 19.832031-19.824219 52.09375-19.828125 71.921875 0 9.605468 9.605469 14.894531 22.378906 14.894531 35.960937 0 13.585938-5.289063 26.355469-14.894531 35.957032-9.914063 9.914062-22.9375 14.875-35.960938 14.875zm0-93.667969c-10.976562 0-21.949218 4.175781-30.304687 12.53125-8.09375 8.097656-12.550781 18.859375-12.550781 30.304687 0 11.445313 4.457031 22.207032 12.550781 30.300782 16.710937 16.714843 43.898437 16.710937 60.605469 0 8.09375-8.09375 12.554687-18.855469 12.554687-30.300782 0-11.445312-4.460937-22.207031-12.554687-30.304687-8.351563-8.351563-19.328126-12.53125-30.300782-12.53125zm0 0"/><path d="m380.402344 431.261719c-13.585938 0-26.355469-5.292969-35.957032-14.898438-9.605468-9.605469-14.898437-22.375-14.898437-35.960937 0-13.582032 5.292969-26.355469 14.898437-35.957032 9.601563-9.605468 22.375-14.894531 35.957032-14.894531 13.582031 0 26.355468 5.292969 35.960937 14.894531 9.605469 9.605469 14.894531 22.375 14.894531 35.957032 0 13.582031-5.292968 26.359375-14.894531 35.960937-9.605469 9.605469-22.378906 14.898438-35.960937 14.898438zm0-93.714844c-11.449219 0-22.207032 4.457031-30.300782 12.550781s-12.554687 18.855469-12.554687 30.300782c0 11.449218 4.460937 22.210937 12.554687 30.304687s18.855469 12.554687 30.300782 12.554687c11.445312 0 22.207031-4.460937 30.304687-12.554687 8.09375-8.09375 12.550781-18.855469 12.550781-30.304687 0-11.445313-4.457031-22.207032-12.550781-30.300782-8.09375-8.089844-18.855469-12.550781-30.304687-12.550781zm0 0"/></g><path d="m302.867188 54.867188c0 28.089843-22.773438 50.863281-50.867188 50.863281s-50.867188-22.773438-50.867188-50.863281c0-28.09375 22.773438-50.867188 50.867188-50.867188s50.867188 22.773438 50.867188 50.867188zm0 0" fill="#fcc24c"/><path d="m252 109.734375c-30.253906 0-54.867188-24.613281-54.867188-54.867187 0-30.253907 24.613282-54.867188 54.867188-54.867188s54.867188 24.613281 54.867188 54.867188c0 30.253906-24.613282 54.867187-54.867188 54.867187zm0-101.734375c-25.84375 0-46.867188 21.027344-46.867188 46.867188 0 25.84375 21.023438 46.867187 46.867188 46.867187s46.867188-21.027344 46.867188-46.867187c0-25.84375-21.023438-46.867188-46.867188-46.867188zm0 0" fill="#690589"/><path d="m449.132812 252c0 108.875-88.257812 197.132812-197.132812 197.132812s-197.132812-88.257812-197.132812-197.132812 88.257812-197.132812 197.132812-197.132812 197.132812 88.257812 197.132812 197.132812zm0 0" fill="#ff4397"/><path d="m252 54.867188c-3.355469 0-6.6875.085937-10 .25 104.226562 5.207031 187.132812 91.359374 187.132812 196.878906 0 105.523437-82.90625 191.679687-187.132812 196.886718 3.3125.164063 6.644531.25 10 .25 108.875 0 197.132812-88.257812 197.132812-197.132812s-88.257812-197.132812-197.132812-197.132812zm0 0" fill="#e12579"/><path d="m252 449.132812c3.355469 0 6.6875-.085937 10-.25-104.226562-5.207031-187.132812-91.363281-187.132812-196.882812s82.90625-191.675781 187.132812-196.882812c-3.3125-.164063-6.644531-.25-10-.25-108.875 0-197.132812 88.261718-197.132812 197.136718 0 108.871094 88.257812 197.128906 197.132812 197.128906zm0 0" fill="#ff61b5"/><path d="m252 453.132812c-110.90625 0-201.132812-90.230468-201.132812-201.132812s90.226562-201.132812 201.132812-201.132812c110.902344 0 201.132812 90.230468 201.132812 201.132812s-90.230468 201.132812-201.132812 201.132812zm0-394.265624c-106.492188 0-193.132812 86.640624-193.132812 193.132812s86.640624 193.132812 193.132812 193.132812 193.132812-86.640624 193.132812-193.132812-86.640624-193.132812-193.132812-193.132812zm0 0" fill="#690589"/><path d="m302.867188 449.132812c0 28.09375-22.773438 50.867188-50.867188 50.867188s-50.867188-22.773438-50.867188-50.867188c0-28.089843 22.773438-50.863281 50.867188-50.863281s50.867188 22.773438 50.867188 50.863281zm0 0" fill="#fcc24c"/><path d="m500 252c0 28.09375-22.773438 50.867188-50.867188 50.867188-28.089843 0-50.863281-22.773438-50.863281-50.867188s22.773438-50.867188 50.863281-50.867188c28.09375 0 50.867188 22.773438 50.867188 50.867188zm0 0" fill="#fcc24c"/><path d="m252 504c-30.253906 0-54.867188-24.613281-54.867188-54.867188 0-30.253906 24.613282-54.867187 54.867188-54.867187s54.867188 24.613281 54.867188 54.867187c0 30.253907-24.613282 54.867188-54.867188 54.867188zm0-101.734375c-25.84375 0-46.867188 21.027344-46.867188 46.867187 0 25.84375 21.023438 46.867188 46.867188 46.867188s46.867188-21.027344 46.867188-46.867188c0-25.84375-21.023438-46.867187-46.867188-46.867187zm0 0" fill="#690589"/><path d="m114.640625 139.871094c-.875 0-1.753906-.285156-2.492187-.875-1.726563-1.375-2.011719-3.890625-.632813-5.621094 7.320313-9.183594 15.34375-17.945312 23.851563-26.039062 1.601562-1.527344 4.128906-1.460938 5.65625.136718 1.523437 1.601563 1.457031 4.132813-.140626 5.65625-8.242187 7.84375-16.015624 16.332032-23.109374 25.230469-.792969.996094-1.957032 1.511719-3.132813 1.511719zm0 0" fill="#690589"/><path d="m62.566406 201.722656c-27.765625-4.257812-53.726562 14.796875-57.988281 42.566406-4.257813 27.765626 14.800781 53.726563 42.566406 57.984376 27.765625 4.261718 53.726563-14.796876 57.988281-42.5625 4.257813-27.765626-14.800781-53.730469-42.566406-57.988282zm0 0" fill="#fcc24c"/><path d="m24 252c0-24.671875 17.5625-45.230469 40.867188-49.878906-3.234376-.644532-6.578126-.988282-10-.988282-28.09375 0-50.867188 22.773438-50.867188 50.867188s22.773438 50.867188 50.867188 50.867188c3.421874 0 6.765624-.34375 10-.988282-23.304688-4.648437-40.867188-25.207031-40.867188-49.878906zm0 0" fill="#fce06a"/><path d="m480 252c0 24.671875-17.5625 45.230469-40.867188 49.878906 3.234376.644532 6.578126.988282 10 .988282 28.09375 0 50.867188-22.773438 50.867188-50.867188s-22.773438-50.867188-50.867188-50.867188c-3.421874 0-6.765624.34375-10 .988282 23.304688 4.648437 40.867188 25.207031 40.867188 49.878906zm0 0" fill="#dea42e"/><path d="m54.867188 306.867188c-30.253907 0-54.867188-24.613282-54.867188-54.867188s24.613281-54.867188 54.867188-54.867188c30.253906 0 54.867187 24.613282 54.867187 54.867188s-24.613281 54.867188-54.867187 54.867188zm0-101.734376c-25.84375 0-46.867188 21.023438-46.867188 46.867188s21.023438 46.867188 46.867188 46.867188 46.867187-21.023438 46.867187-46.867188-21.027344-46.867188-46.867187-46.867188zm0 0" fill="#690589"/><path d="m449.132812 306.867188c-30.253906 0-54.867187-24.613282-54.867187-54.867188s24.613281-54.867188 54.867187-54.867188c30.253907 0 54.867188 24.613282 54.867188 54.867188s-24.613281 54.867188-54.867188 54.867188zm0-101.734376c-25.84375 0-46.867187 21.023438-46.867187 46.867188s21.023437 46.867188 46.867187 46.867188c25.839844 0 46.867188-21.023438 46.867188-46.867188s-21.027344-46.867188-46.867188-46.867188zm0 0" fill="#690589"/><path d="m272.394531 205.398438c-25.738281-11.253907-55.730469.488281-66.984375 26.230468-11.253906 25.742188.492188 55.730469 26.230469 66.984375 25.742187 11.253907 55.734375-.488281 66.988281-26.230469 11.253906-25.742187-.492187-55.730468-26.234375-66.984374zm0 0" fill="#fcc24c"/><path d="m252 201.132812c-2.03125 0-4.03125.132813-6 .363282 25.265625 2.972656 44.867188 24.445312 44.867188 50.507812 0 26.058594-19.605469 47.53125-44.867188 50.5 1.96875.230469 3.96875.363282 6 .363282 28.09375 0 50.867188-22.773438 50.867188-50.863282 0-28.09375-22.773438-50.871094-50.867188-50.871094zm0 0" fill="#dea42e"/><path d="m252 302.867188c2.03125 0 4.03125-.132813 6-.363282-25.265625-2.972656-44.867188-24.445312-44.867188-50.503906s19.605469-47.53125 44.867188-50.503906c-1.96875-.230469-3.96875-.363282-6-.363282-28.09375 0-50.867188 22.773438-50.867188 50.867188s22.773438 50.867188 50.867188 50.867188zm0 0" fill="#fce06a"/><path d="m252 306.867188c-30.253906 0-54.867188-24.613282-54.867188-54.867188s24.613282-54.867188 54.867188-54.867188 54.867188 24.613282 54.867188 54.867188-24.613282 54.867188-54.867188 54.867188zm0-101.734376c-25.84375 0-46.867188 21.023438-46.867188 46.867188s21.023438 46.867188 46.867188 46.867188 46.867188-21.023438 46.867188-46.867188-21.023438-46.867188-46.867188-46.867188zm0 0" fill="#690589"/></svg>