<svg height="504pt" viewBox="-36 0 504 504" width="504pt" xmlns="http://www.w3.org/2000/svg"><path d="m408.09375 252.277344h-384.074219c-11.058593 0-20.019531-8.964844-20.019531-20.019532v-208.238281c.003906-11.058593 8.964844-20.019531 20.019531-20.019531h384.074219c11.054688 0 20.015625 8.960938 20.015625 20.019531v208.238281c0 11.054688-8.960937 20.019532-20.015625 20.019532zm0 0" fill="#f4efed"/><path d="m408.09375 4h-20.019531c11.058593 0 20.019531 8.960938 20.019531 20.019531v208.238281c0 11.054688-8.960938 20.019532-20.019531 20.019532h20.019531c11.054688 0 20.019531-8.964844 20.019531-20.019532v-208.238281c-.003906-11.058593-8.964843-20.019531-20.019531-20.019531zm0 0" fill="#d6d1cf"/><path d="m24.019531 252.277344h20.015625c-11.054687 0-20.015625-8.964844-20.015625-20.019532v-208.238281c0-11.058593 8.960938-20.019531 20.015625-20.019531h-20.015625c-11.058593 0-20.019531 8.960938-20.019531 20.019531v208.238281c.003906 11.054688 8.964844 20.019532 20.019531 20.019532zm0 0" fill="#fff"/><path d="m408.09375 256.277344h-384.074219c-13.246093 0-24.019531-10.773438-24.019531-24.019532v-208.238281c.00390625-13.246093 10.773438-24.019531 24.019531-24.019531h384.074219c13.242188 0 24.015625 10.773438 24.015625 24.019531v208.238281c0 13.246094-10.769531 24.019532-24.015625 24.019532zm-384.074219-248.277344c-8.832031 0-16.019531 7.1875-16.019531 16.019531v208.238281c0 8.832032 7.1875 16.019532 16.019531 16.019532h384.074219c8.832031 0 16.015625-7.1875 16.015625-16.019532v-208.238281c0-8.832031-7.183594-16.019531-16.015625-16.019531zm0 0" fill="#690589"/><path d="m325.03125 328.609375-25.109375-.03125-45.121094-.058594c.042969-.722656.113281-1.433593.113281-2.167969l.09375-70.667968-77.464843-.097656-.089844 70.667968c0 .730469.070313 1.445313.109375 2.167969l-45.117188-.058594-25.109374-.035156c-27.125-.03125-49.140626 21.929687-49.175782 49.050781l-.128906 100.628906 315.921875.402344.125-100.625c.035156-27.125-21.925781-49.140625-49.046875-49.175781zm0 0" fill="#7bac51"/><path d="m254.839844 328.519531.167968-72.835937-77.460937-.097656-.019531 72.835937-27.5625-.039063-.003906 2.933594c-.046876 36.570313 29.5625 66.257813 66.136718 66.304688 36.570313.042968 66.257813-29.5625 66.300782-66.136719l.003906-2.929687zm0 0" fill="#e18152"/><path d="m325.03125 328.609375-17.230469-.019531c27.125.03125 49.085938 22.050781 49.050781 49.175781l-.128906 100.625 17.230469.019531.125-100.625c.035156-27.125-21.925781-49.140625-49.046875-49.175781zm0 0" fill="#5d8e33"/><path d="m107.335938 328.328125 17.226562.023437c-27.121094-.035156-49.136719 21.925782-49.175781 49.050782l-.125 100.625-17.230469-.019532.128906-100.628906c.035156-27.121094 22.050782-49.082031 49.175782-49.050781zm0 0" fill="#99ca6f"/><path d="m373.949219 482.410156h-.003907l-315.917968-.402344c-1.0625 0-2.078125-.421874-2.828125-1.175781-.75-.75-1.167969-1.769531-1.167969-2.828125l.128906-100.628906c.035156-29.261719 23.859375-53.042969 53.117188-53.042969h.0625l66.117187.082031.085938-68.835937c.003906-1.058594.425781-2.074219 1.175781-2.824219.75-.746094 1.765625-1.167968 2.824219-1.167968h.007812l77.460938.101562c2.207031 0 3.996093 1.792969 3.996093 4.003906l-.089843 68.835938 66.117187.085937c29.285156.035157 53.082032 23.894531 53.042969 53.179688l-.128906 100.628906c0 2.203125-1.792969 3.988281-4 3.988281zm-311.910157-8.394531 307.917969.390625.121094-96.625c.035156-24.878906-20.179687-45.140625-45.050781-45.171875l-70.226563-.089844c-1.101562 0-2.148437-.457031-2.90625-1.253906-.753906-.800781-1.144531-1.875-1.082031-2.972656l.042969-.695313c.03125-.414062.058593-.832031.0625-1.253906l.085937-66.664062-69.464844-.089844-.082031 66.667968c0 .425782.03125.851563.058594 1.277344l.042969.660156c.0625 1.097657-.332032 2.175782-1.089844 2.972657-.753906.796875-1.804688 1.253906-2.90625 1.253906h-.003906l-70.226563-.09375c-.019531 0-.039062 0-.054687 0-24.851563 0-45.082032 20.203125-45.117188 45.058594zm0 0" fill="#690589"/><path d="m216.183594 401.621094c-.035156 0-.0625 0-.09375 0-18.757813-.023438-36.382813-7.351563-49.625-20.628906-13.246094-13.28125-20.527344-30.921876-20.503906-49.679688l.003906-2.933594c0-1.058594.421875-2.078125 1.175781-2.824218.75-.75 1.765625-1.167969 2.824219-1.167969h.003906l23.558594.03125.015625-68.832031c0-1.0625.421875-2.078126 1.175781-2.828126.75-.75 1.765625-1.171874 2.824219-1.171874h.007812l77.460938.101562c1.058593 0 2.078125.421875 2.828125 1.175781.75.75 1.167968 1.769531 1.167968 2.832031l-.160156 68.832032 23.558594.03125c1.0625 0 2.078125.421875 2.828125 1.175781.75.75 1.167969 1.769531 1.167969 2.828125l-.003906 2.933594c-.023438 18.757812-7.351563 36.378906-20.628907 49.625-13.257812 13.222656-30.867187 20.5-49.585937 20.5zm-62.214844-69.230469c.25 16.21875 6.671875 31.433594 18.160156 42.953125 11.734375 11.765625 27.351563 18.257812 43.972656 18.277344h.078126c33.917968 0 61.59375-27.277344 62.207031-61.070313l-23.554688-.03125c-1.058593 0-2.078125-.421875-2.828125-1.175781-.746094-.75-1.167968-1.773438-1.164062-2.832031l.15625-68.832031-69.453125-.089844-.019531 68.832031c0 1.0625-.421876 2.082031-1.171876 2.832031s-1.765624 1.167969-2.828124 1.167969h-.003907zm0 0" fill="#690589"/><path d="m113.796875 176.835938-5.425781-69.109376c-1.453125-18.519531 13.183594-34.351562 31.761718-34.351562v-3.148438c0-17.59375 14.261719-31.859374 31.855469-31.859374h146.8125l-12.664062 54.84375c11.84375 6.578124 18.390625 19.796874 16.4375 33.203124l-7.339844 50.421876zm0 0" fill="#fcc24c"/><path d="m156.300781 73.375v-3.148438c0-17.59375 14.261719-31.859374 31.855469-31.859374h-16.167969c-17.59375 0-31.855469 14.265624-31.855469 31.859374v3.148438c-18.578124 0-33.214843 15.832031-31.761718 34.351562l5.425781 69.109376h16.167969l-5.425782-69.109376c-1.453124-18.519531 13.183594-34.351562 31.761719-34.351562zm0 0" fill="#fce06a"/><path d="m306.136719 93.214844 12.664062-54.84375h-16.167969l-12.664062 54.84375c11.84375 6.574218 18.390625 19.792968 16.4375 33.199218l-7.335938 50.421876h16.167969l7.339844-50.421876c1.949219-13.40625-4.597656-26.625-16.441406-33.199218zm0 0" fill="#dea42e"/><path d="m315.234375 180.835938h-201.4375c-2.085937 0-3.824219-1.605469-3.988281-3.6875l-5.425782-69.109376c-.777343-9.933593 2.652344-19.828124 9.417969-27.148437 5.855469-6.332031 13.835938-10.328125 22.335938-11.289063.335937-19.484374 16.292969-35.230468 35.851562-35.230468h146.808594c1.21875 0 2.375.554687 3.132813 1.507812.757812.957032 1.039062 2.207032.765624 3.390625l-12.015624 52.039063c11.574218 7.773437 17.882812 21.738281 15.855468 35.683594l-7.339844 50.421874c-.289062 1.964844-1.972656 3.421876-3.960937 3.421876zm-197.738281-8h194.28125l6.839844-46.996094c1.703124-11.691406-4.09375-23.394532-14.421876-29.128906-1.558593-.867188-2.359374-2.660157-1.957031-4.398438l11.53125-49.941406h-141.78125c-15.359375 0-27.855469 12.496094-27.855469 27.855468v3.148438c0 2.210938-1.792968 4-4 4-7.859374 0-15.125 3.179688-20.457031 8.945312-5.332031 5.773438-7.933593 13.261719-7.316406 21.09375zm0 0" fill="#690589"/><path d="m132.394531 163.363281h-5.976562c-15.457031 0-27.984375 12.527344-27.984375 27.984375 0 15.457032 12.527344 27.984375 27.984375 27.984375h5.976562zm0 0" fill="#ffbd8e"/><path d="m305.851562 163.363281h-5.980468v55.96875h5.980468c15.453126 0 27.984376-12.527343 27.984376-27.984375 0-15.457031-12.53125-27.984375-27.984376-27.984375zm0 0" fill="#e18152"/><path d="m216.132812 305.617188c-46.246093 0-83.738281-37.976563-83.738281-84.824219v-58.726563c0-46.847656 37.492188-84.824218 83.738281-84.824218 46.25 0 83.738282 37.976562 83.738282 84.824218v58.726563c0 46.847656-37.488282 84.824219-83.738282 84.824219zm0 0" fill="#ff9f70"/><path d="m216.132812 77.242188c-3.21875 0-6.390624.203124-9.515624.558593 41.765624 4.789063 74.222656 40.679688 74.222656 84.265625v58.726563c0 43.585937-32.457032 79.476562-74.222656 84.261719 3.125.359374 6.296874.5625 9.515624.5625 46.25 0 83.738282-37.980469 83.738282-84.824219v-58.726563c0-46.847656-37.488282-84.824218-83.738282-84.824218zm0 0" fill="#e18152"/><path d="m216.132812 77.242188c3.222657 0 6.390626.203124 9.515626.558593-41.761719 4.789063-74.21875 40.679688-74.21875 84.265625v58.726563c0 43.585937 32.457031 79.476562 74.21875 84.261719-3.121094.359374-6.292969.5625-9.515626.5625-46.246093 0-83.738281-37.980469-83.738281-84.824219v-58.726563c0-46.847656 37.492188-84.824218 83.738281-84.824218zm0 0" fill="#ffbd8e"/><g fill="#690589"><path d="m216.132812 309.617188c-48.375 0-87.738281-39.84375-87.738281-88.824219v-58.726563c0-48.976562 39.363281-88.824218 87.738281-88.824218 48.378907 0 87.738282 39.847656 87.738282 88.824218v58.726563c0 48.980469-39.355469 88.824219-87.738282 88.824219zm0-228.375c-43.96875 0-79.738281 36.257812-79.738281 80.824218v58.726563c0 44.566406 35.769531 80.824219 79.738281 80.824219s79.738282-36.257813 79.738282-80.824219v-58.726563c0-44.566406-35.769532-80.824218-79.738282-80.824218zm0 0"/><path d="m132.394531 223.328125h-5.976562c-17.632813 0-31.980469-14.347656-31.980469-31.980469 0-17.636718 14.347656-31.984375 31.980469-31.984375h5.976562c2.210938 0 4 1.792969 4 4v55.964844c0 2.210937-1.789062 4-4 4zm-5.976562-55.964844c-13.222657 0-23.980469 10.757813-23.980469 23.984375 0 13.222656 10.757812 23.980469 23.980469 23.980469h1.976562v-47.964844zm0 0"/><path d="m305.851562 223.328125h-5.980468c-2.207032 0-4-1.789063-4-4v-55.964844c0-2.207031 1.792968-4 4-4h5.980468c17.632813 0 31.980469 14.347657 31.980469 31.984375.003907 17.632813-14.347656 31.980469-31.980469 31.980469zm-1.980468-8h1.980468c13.222657 0 23.980469-10.757813 23.980469-23.980469 0-13.226562-10.757812-23.984375-23.980469-23.984375h-1.980468zm0 0"/></g><path d="m428.109375 69.378906c0 27.183594-22.039063 49.222656-49.222656 49.222656-27.1875 0-49.226563-22.039062-49.226563-49.222656 0-27.1875 22.039063-49.226562 49.226563-49.226562 27.183593 0 49.222656 22.039062 49.222656 49.226562zm0 0" fill="#7bac51"/><path d="m406.851562 59.851562h-18.832031v-18.832031h-19.054687v18.832031h-18.832032v19.054688h18.832032v18.828125h19.054687v-18.828125h18.832031zm0 0" fill="#f4efed"/><path d="m388.019531 101.734375h-19.054687c-2.207032 0-4-1.789063-4-4v-14.828125h-14.832032c-2.207031 0-4-1.792969-4-4v-19.054688c0-2.207031 1.792969-4 4-4h14.832032v-14.828124c0-2.210938 1.792968-4 4-4h19.054687c2.207031 0 4 1.789062 4 4v14.828124h14.828125c2.207032 0 4 1.792969 4 4v19.054688c0 2.207031-1.792968 4-4 4h-14.828125v14.828125c0 2.210937-1.792969 4-4 4zm-15.054687-8h11.054687v-14.828125c0-2.207031 1.789063-4 4-4h14.828125v-11.054688h-14.828125c-2.210937 0-4-1.792968-4-4v-14.828124h-11.054687v14.828124c0 2.207032-1.792969 4-4 4h-14.832032v11.054688h14.832032c2.207031 0 4 1.792969 4 4zm0 0" fill="#690589"/><path d="m378.886719 122.605469c-29.351563 0-53.226563-23.878907-53.226563-53.226563s23.875-53.222656 53.226563-53.222656c29.347656 0 53.222656 23.875 53.222656 53.222656s-23.875 53.226563-53.222656 53.226563zm0-98.453125c-24.9375 0-45.226563 20.289062-45.226563 45.226562 0 24.933594 20.289063 45.222656 45.226563 45.222656 24.933593 0 45.222656-20.289062 45.222656-45.222656 0-24.9375-20.285156-45.226562-45.222656-45.226562zm0 0" fill="#690589"/><path d="m408.09375 374.738281h-384.074219c-11.058593 0-20.019531 8.964844-20.019531 20.019531v105.242188h424.109375v-105.242188c0-11.054687-8.960937-20.019531-20.015625-20.019531zm0 0" fill="#f4efed"/><path d="m408.09375 374.738281h-20.019531c11.058593 0 20.019531 8.964844 20.019531 20.019531v105.242188h20.019531v-105.242188c-.003906-11.054687-8.964843-20.019531-20.019531-20.019531zm0 0" fill="#d6d1cf"/><path d="m24.019531 374.738281h20.015625c-11.054687 0-20.015625 8.964844-20.015625 20.019531v105.242188h-20.015625v-105.242188c0-11.054687 8.960938-20.019531 20.015625-20.019531zm0 0" fill="#fff"/><path d="m428.109375 504h-424.105469c-2.210937 0-3.99999975-1.792969-3.99999975-4v-105.242188c0-13.242187 10.77343775-24.019531 24.01562475-24.019531h384.074219c13.246094 0 24.019531 10.777344 24.019531 24.019531v105.242188c-.003906 2.207031-1.792969 4-4.003906 4zm-420.105469-8h416.109375v-101.242188c0-8.832031-7.1875-16.019531-16.019531-16.019531h-384.074219c-8.832031 0-16.019531 7.1875-16.019531 16.019531v101.242188zm0 0" fill="#690589"/><path d="m22.058594 438.625c-2.207032 0-4-1.789062-4-4v-24c0-2.207031 1.792968-4 4-4 2.207031 0 4 1.792969 4 4v24c0 2.210938-1.792969 4-4 4zm0 0" fill="#690589"/></svg>