<svg height="503pt" viewBox="-25 0 503 503.9195" width="503pt" xmlns="http://www.w3.org/2000/svg"><path d="m111.429688 376.253906c14.414062 2.222656 28.414062 3.25 41.644531 3.253906v-141.617187c-42.597657-42.441406-90.164063-69.019531-125.613281-73.34375 4.34375 35.582031 31.101562 83.375 73.824218 126.097656 11.167969 11.167969 22.679688 21.214844 34.234375 30.085938-4.941406-1.035157-9.964843-1.976563-15.101562-2.765625-47.636719-7.347656-91.011719-2.03125-115.953125 11.957031 19.570312 20.851563 59.324218 38.988281 106.964844 46.332031zm0 0" fill="#ff4397"/><path d="m130.320312 316.601562c-9.800781-7.835937-19.546874-16.464843-29.039062-25.957031-42.722656-42.722656-69.480469-90.515625-73.820312-126.097656 6.519531.792969 13.453124 2.347656 20.6875 4.609375 5.972656 35.039062 32.226562 80.582031 73.132812 121.488281 6.953125 6.949219 14.039062 13.445313 21.1875 19.503907 3.113281 2.640624.957031 7.714843-3.109375 7.324218zm0 0" fill="#ff61b5"/><path d="m88.386719 314.886719c-26.101563 1.085937-48.53125 6.40625-63.925781 15.035156 19.574218 20.851563 59.328124 38.984375 106.964843 46.332031 7.34375 1.132813 14.570313 1.945313 21.648438 2.480469v.773437c-13.234375-.003906-27.230469-1.03125-41.648438-3.253906-47.636719-7.347656-87.390625-25.480468-106.964843-46.332031 19.203124-10.765625 49.34375-16.367187 83.925781-15.035156zm0 0" fill="#ff61b5"/><path d="m334.347656 317.964844c-5.136718.789062-10.164062 1.734375-15.101562 2.765625 11.550781-8.871094 23.066406-18.917969 34.234375-30.085938 42.722656-42.722656 69.480469-90.515625 73.824219-126.097656-35.449219 4.324219-83.015626 30.902344-125.613282 73.34375v141.617187c13.234375-.003906 27.226563-1.03125 41.648438-3.253906 47.636718-7.347656 87.390625-25.480468 106.964844-46.332031-24.945313-13.984375-68.320313-19.304687-115.957032-11.957031zm0 0" fill="#7bac51"/><path d="m324.441406 316.601562c9.800782-7.835937 19.546875-16.464843 29.039063-25.957031 42.722656-42.722656 69.480469-90.515625 73.824219-126.097656-6.523438.792969-13.457032 2.347656-20.691407 4.609375-5.972656 35.039062-32.226562 80.582031-73.132812 121.488281-6.949219 6.949219-14.039063 13.445313-21.183594 19.503907-3.117187 2.640624-.957031 7.714843 3.105469 7.324218zm0 0" fill="#5d8e33"/><path d="m112.027344 445.414062c11.355468.359376 25.789062-3.316406 41.046875-10.554687v-42.523437c-21.628907 17.160156-36.515625 36.976562-41.046875 53.078124zm0 0" fill="#ff4397"/><path d="m191.667969 283.554688c-10.65625-15.191407-23.410157-30.488282-38.109375-45.183594-.160156-.160156-.324219-.316406-.484375-.476563v141.617188c6.753906.003906 13.320312-.242188 19.617187-.765625-4.683594 2.800781-9.382812 5.910156-14.039062 9.320312-1.910156 1.398438-3.757813 2.828125-5.578125 4.269532v42.527343c9.09375-4.3125 18.480469-9.890625 27.683593-16.632812 22.75-16.671875 39.007813-36.539063 45.25-53.222657.363282-.195312.761719-.378906 1.121094-.578124.082032.011718.171875.03125.253906.039062.085938-.007812.171876-.027344.257813-.039062.359375.199218.753906.382812 1.121094.578124 6.238281 16.683594 22.5 36.550782 45.25 53.222657 9.203125 6.742187 18.589843 12.320312 27.679687 16.632812v-42.527343c-1.816406-1.441407-3.664062-2.871094-5.578125-4.269532-4.652343-3.410156-9.351562-6.519531-14.039062-9.320312 6.296875.523437 12.867187.769531 19.617187.765625v-141.617188c-.160156.160157-.324218.316407-.484375.476563-14.695312 14.699218-27.449219 29.992187-38.105469 45.1875 7.28125-29.523438 11.421876-63.367188 11.421876-99.363282 0-77.046874-18.96875-144.273437-47.140626-180.273437-28.171874 36-47.140624 103.226563-47.140624 180.273437 0 35.992188 4.140624 69.835938 11.425781 99.359376zm0 0" fill="#fcc24c"/><path d="m301.691406 392.335938v42.527343c15.257813 7.234375 29.691406 10.910157 41.046875 10.550781-4.53125-16.101562-19.421875-35.917968-41.046875-53.078124zm0 0" fill="#7bac51"/><path d="m366.375 314.886719c26.105469 1.085937 48.53125 6.40625 63.929688 15.035156-19.574219 20.851563-59.328126 38.984375-106.96875 46.332031-7.34375 1.132813-14.570313 1.945313-21.648438 2.480469v.773437c13.234375-.003906 27.230469-1.03125 41.648438-3.253906 47.636718-7.347656 87.390624-25.480468 106.96875-46.332031-19.203126-10.765625-49.347657-16.367187-83.929688-15.035156zm0 0" fill="#5d8e33"/><g fill="#690589"><path d="m212.441406 503.917969c-2.207031 0-4-1.789063-4-4 0-2.207031 1.792969-4 4-4 6.03125 0 10.941406-4.90625 10.941406-10.9375v-120.683594c0-2.210937 1.792969-4 4-4 2.207032 0 4 1.789063 4 4v120.683594c0 10.441406-8.496093 18.9375-18.941406 18.9375zm0 0"/><path d="m341.242188 449.4375c-11.722657 0-26.292969-3.863281-41.269532-10.960938-1.394531-.664062-2.285156-2.070312-2.285156-3.613281v-42.527343c0-1.53125.878906-2.933594 2.261719-3.601563 1.378906-.664063 3.023437-.484375 4.226562.46875 21.679688 17.199219 37.535157 37.804687 42.410157 55.125.332031 1.183594.105468 2.457031-.625 3.449219-.726563.992187-1.871094 1.59375-3.097657 1.632812-.535156.019532-1.074219.027344-1.621093.027344zm-35.554688-17.132812c11.339844 5.132812 22.214844 8.226562 31.394531 8.960937-5.1875-12.835937-16.421875-27.289063-31.394531-40.390625zm0 0"/><path d="m301.6875 383.511719c-1.058594 0-2.078125-.421875-2.828125-1.171875s-1.171875-1.765625-1.171875-2.828125v-141.621094c0-1.0625.425781-2.082031 1.179688-2.832031 41.53125-41.378906 90.558593-69.917969 127.953124-74.484375 1.222657-.148438 2.445313.273437 3.3125 1.144531.871094.867188 1.292969 2.089844 1.140626 3.3125-4.582032 37.566406-33.308594 86.785156-74.964844 128.441406-7.171875 7.171875-14.632813 14.03125-22.289063 20.496094 46.519531-7.128906 91.804688-2.355469 118.242188 12.460938 1.070312.605468 1.808593 1.664062 1.996093 2.882812.1875 1.214844-.195312 2.449219-1.039062 3.34375-20.785156 22.140625-62.65625 40.359375-109.273438 47.550781-14.179687 2.1875-28.394531 3.296875-42.257812 3.304688zm4-143.953125v135.917968c12.183594-.195312 24.625-1.261718 37.039062-3.175781 42.203126-6.507812 80.140626-22.148437 100.855469-41.339843-25.53125-12.0625-66.417969-15.550782-108.625-9.042969-4.722656.726562-9.59375 1.621093-14.894531 2.726562-1.820312.382813-3.675781-.550781-4.453125-2.246093-.78125-1.695313-.28125-3.703126 1.199219-4.839844 11.730468-9.003906 23.117187-19.011719 33.84375-29.742188 38.511718-38.507812 65.597656-83.335937 71.890625-118.507812-34.648438 6.199218-78.734375 32.625-116.855469 70.25zm28.660156 78.40625h.019532zm0 0"/><path d="m301.6875 438.863281c-.582031 0-1.167969-.128906-1.714844-.386719-9.601562-4.558593-19.132812-10.28125-28.328125-17.019531-20.191406-14.796875-36.316406-32.917969-44.261719-49.511719-7.949218 16.59375-24.074218 34.714844-44.261718 49.511719-9.195313 6.738281-18.726563 12.460938-28.332032 17.019531-1.238281.585938-2.691406.5-3.851562-.234374-1.160156-.734376-1.863281-2.011719-1.863281-3.378907v-42.527343c0-1.21875.554687-2.371094 1.511719-3.128907 2.074218-1.648437 3.941406-3.078125 5.699218-4.367187.628906-.460938 1.265625-.921875 1.902344-1.375-1.6875.03125-3.367188.035156-5.117188.046875-2.207031 0-3.996093-1.792969-3.996093-4v-141.621094c0-1.617187.976562-3.078125 2.472656-3.695313 1.5-.617187 3.21875-.273437 4.363281.875l.46875.460938c9.859375 9.859375 19.035156 20.164062 27.421875 30.777344-4.960937-25.839844-7.558593-53.867188-7.558593-82.113282 0-74.890624 18.386718-144.914062 47.988281-182.742187 1.515625-1.9375 4.785156-1.9375 6.300781 0 29.597656 37.828125 47.988281 107.847656 47.988281 182.742187 0 28.246094-2.597656 56.273438-7.558593 82.113282 8.382812-10.613282 17.5625-20.914063 27.414062-30.765625l.472656-.472657c1.144532-1.148437 2.863282-1.492187 4.363282-.875 1.5.617188 2.476562 2.078126 2.476562 3.695313v141.621094c0 2.25-1.875 4.019531-4.121094 4-1.679687 0-3.347656-.015625-4.992187-.046875.636719.453125 1.269531.914062 1.898437 1.375 1.757813 1.289062 3.625 2.71875 5.703125 4.367187.953125.757813 1.511719 1.914063 1.511719 3.128907v42.527343c0 1.371094-.707031 2.644531-1.863281 3.378907-.648438.410156-1.390625.621093-2.136719.621093zm-74.050781-78.4375c.679687 0 1.351562.171875 1.949219.507813.152343.082031.316406.164062.476562.246094l.578125.296874c.859375.457032 1.523437 1.214844 1.867187 2.128907 6.210938 16.609375 22.609376 35.820312 43.867188 51.398437 6.957031 5.09375 14.101562 9.582032 21.316406 13.382813v-34.105469c-1.402344-1.097656-2.703125-2.082031-3.945312-2.988281-4.460938-3.269531-9.082032-6.335938-13.722656-9.113281-1.597657-.957032-2.324219-2.886719-1.757813-4.65625.566406-1.773438 2.300781-2.902344 4.140625-2.765626 4.832031.402344 9.957031.648438 15.285156.726563v-127.777344c-11.566406 12.171875-22.078125 24.972657-31.316406 38.144531-1.105469 1.578126-3.175781 2.140626-4.933594 1.34375-1.75-.796874-2.691406-2.730468-2.226562-4.601562 7.398437-29.984375 11.308594-64.011719 11.308594-98.402344 0-70.460937-16.441407-136.230468-43.140626-173.59375-26.699218 37.363282-43.136718 103.132813-43.136718 173.59375 0 34.390625 3.910156 68.417969 11.304687 98.402344.464844 1.871094-.472656 3.804688-2.226562 4.601562-1.757813.796876-3.824219.230469-4.929688-1.34375-9.234375-13.167968-19.746093-25.96875-31.316406-38.144531v127.777344c5.324219-.082031 10.449219-.324219 15.285156-.726563 1.855469-.132812 3.570313.992188 4.136719 2.765626.570312 1.769531-.15625 3.699218-1.753906 4.65625-4.644532 2.777343-9.261719 5.84375-13.726563 9.113281-1.238281.910156-2.542969 1.894531-3.941406 2.988281v34.109375c7.210937-3.800781 14.359375-8.289063 21.3125-13.386719 21.257813-15.578125 37.65625-34.789062 43.871094-51.394531.339843-.914063 1.003906-1.675781 1.867187-2.132813l.574219-.292968c.164063-.082032.328125-.160156.480469-.25.671875-.375 1.433594-.542969 2.203125-.496094.082031-.007812.164062-.011719.25-.011719zm0 0"/><path d="m205.089844 101.28125c-.292969 0-.59375-.035156-.886719-.101562-2.15625-.488282-3.503906-2.632813-3.015625-4.785157 1.878906-8.304687 3.980469-16.460937 6.242188-24.234375.621093-2.121094 2.835937-3.339844 4.957031-2.722656 2.125.617188 3.339843 2.835938 2.726562 4.957031-2.21875 7.621094-4.28125 15.617188-6.128906 23.769531-.417969 1.855469-2.066406 3.117188-3.894531 3.117188zm0 0"/><path d="m113.519531 449.4375c-.546875 0-1.085937-.007812-1.621093-.027344-1.230469-.039062-2.375-.640625-3.101563-1.632812-.726563-.992188-.957031-2.265625-.621094-3.449219 4.875-17.320313 20.730469-37.929687 42.410157-55.125 1.207031-.953125 2.851562-1.132813 4.226562-.46875 1.378906.667969 2.257812 2.070313 2.257812 3.601563v42.527343c0 1.542969-.886718 2.949219-2.285156 3.613281-14.96875 7.097657-29.539062 10.960938-41.265625 10.960938zm35.554688-48.5625c-14.96875 13.101562-26.207031 27.554688-31.394531 40.394531 9.179687-.734375 20.058593-3.828125 31.394531-8.960937zm0 0"/><path d="m153.074219 383.511719c-13.859375-.007813-28.078125-1.117188-42.257813-3.304688-46.617187-7.1875-88.488281-25.40625-109.273437-47.546875-.839844-.898437-1.222657-2.128906-1.035157-3.347656.183594-1.214844.921876-2.277344 1.992188-2.878906 26.441406-14.820313 71.730469-19.589844 118.246094-12.464844-7.65625-6.460938-15.121094-13.320312-22.292969-20.492188-41.65625-41.65625-70.378906-90.875-74.964844-128.445312-.144531-1.21875.273438-2.445312 1.144531-3.3125.867188-.871094 2.082032-1.289062 3.3125-1.140625 37.390626 4.5625 86.421876 33.101563 127.953126 74.480469.753906.75 1.175781 1.769531 1.175781 2.835937v141.617188c0 1.0625-.421875 2.082031-1.171875 2.832031s-1.765625 1.167969-2.828125 1.167969zm-41.039063-11.210938c12.417969 1.914063 24.855469 2.980469 37.039063 3.175781v-135.917968c-38.117188-37.625-82.203125-64.050782-116.851563-70.25 6.292969 35.171875 33.378906 80 71.886719 118.507812 10.730469 10.730469 22.117187 20.734375 33.84375 29.742188 1.480469 1.136718 1.980469 3.144531 1.199219 4.839844-.777344 1.695312-2.632813 2.632812-4.453125 2.246093-5.300781-1.105469-10.171875-2-14.894531-2.726562-42.203126-6.507813-83.089844-3.019531-108.621094 9.042969 20.710937 19.191406 58.652344 34.832031 100.851562 41.339843zm0 0"/></g></svg>