<svg height="504pt" viewBox="0 -10 504 504" width="504pt" xmlns="http://www.w3.org/2000/svg"><path d="m133.371094 401.90625c0 35.726562-28.960938 64.6875-64.683594 64.6875-35.726562 0-64.6875-28.960938-64.6875-64.6875zm0 0" fill="#fcc24c"/><path d="m500 401.90625c0 35.726562-28.960938 64.6875-64.6875 64.6875-35.722656 0-64.683594-28.960938-64.683594-64.6875zm0 0" fill="#fcc24c"/><path d="m31.703125 401.90625h-27.703125c0 35.726562 28.960938 64.6875 64.6875 64.6875 4.753906 0 9.382812-.527344 13.847656-1.503906-29.066406-6.34375-50.832031-32.210938-50.832031-63.183594zm0 0" fill="#fce06a"/><path d="m68.6875 470.59375c-37.875 0-68.6875-30.8125-68.6875-68.6875 0-2.207031 1.792969-4 4-4h129.371094c2.207031 0 4 1.792969 4 4 0 37.875-30.8125 68.6875-68.683594 68.6875zm-60.558594-64.6875c2.066406 31.605469 28.4375 56.6875 60.558594 56.6875 32.117188 0 58.488281-25.082031 60.554688-56.6875zm0 0" fill="#690589"/><path d="m3.996094 405.90625c-.847656 0-1.703125-.269531-2.429688-.824219-1.753906-1.34375-2.085937-3.851562-.742187-5.605469l64.6875-84.445312c1.511719-1.976562 4.835937-1.976562 6.351562 0l64.683594 84.445312c1.34375 1.75 1.011719 4.261719-.742187 5.605469-1.753907 1.34375-4.265626 1.015625-5.609376-.742187l-61.507812-80.296875-61.511719 80.296875c-.789062 1.03125-1.976562 1.566406-3.179687 1.566406zm0 0" fill="#690589"/><path d="m472.296875 401.90625c0 30.96875-21.765625 56.839844-50.835937 63.183594 4.464843.976562 9.09375 1.503906 13.851562 1.503906 35.722656 0 64.683594-28.960938 64.683594-64.6875zm0 0" fill="#dea42e"/><path d="m435.3125 470.59375c-37.871094 0-68.683594-30.8125-68.683594-68.6875 0-2.207031 1.792969-4 4-4h129.371094c2.207031 0 4 1.792969 4 4 0 37.875-30.8125 68.6875-68.6875 68.6875zm-60.554688-64.6875c2.066407 31.605469 28.4375 56.6875 60.554688 56.6875 32.121094 0 58.492188-25.082031 60.558594-56.6875zm0 0" fill="#690589"/><path d="m500.003906 405.90625c-1.203125 0-2.390625-.539062-3.179687-1.566406l-61.511719-80.296875-61.507812 80.296875c-1.34375 1.757812-3.855469 2.085937-5.609376.742187-1.753906-1.34375-2.085937-3.855469-.742187-5.605469l64.683594-84.445312c.757812-.988281 1.929687-1.566406 3.175781-1.566406s2.417969.578125 3.175781 1.566406l64.6875 84.445312c1.34375 1.753907 1.011719 4.261719-.742187 5.605469-.726563.558594-1.582032.824219-2.429688.824219zm0 0" fill="#690589"/><path d="m363.519531 362.023438c45.816407-7.066407 84.050781-24.507813 102.878907-44.5625-23.992188-13.453126-65.707032-18.566407-111.523438-11.5-4.941406.761718-9.773438 1.667968-14.527344 2.660156 11.109375-8.535156 22.1875-18.195313 32.925782-28.9375 41.089843-41.089844 66.828124-87.054688 71.003906-121.28125-34.226563 4.175781-80.191406 29.910156-121.28125 71-14.136719 14.136718-26.402344 28.847656-36.652344 43.460937 7.003906-28.394531 10.988281-60.949219 10.988281-95.5625 0-74.105469-18.242187-138.761719-45.339843-173.386719-27.09375 34.625-45.335938 99.28125-45.335938 173.386719 0 34.617188 3.980469 67.167969 10.988281 95.5625-10.25-14.613281-22.515625-29.324219-36.652343-43.460937-41.089844-41.089844-87.054688-66.824219-121.28125-71 4.175781 34.222656 29.914062 80.1875 71.003906 121.28125 10.742187 10.742187 21.816406 20.402344 32.925781 28.9375-4.75-.996094-9.585937-1.898438-14.527344-2.660156-45.816406-7.066407-87.53125-1.953126-111.523437 11.5 18.824218 20.054687 57.0625 37.496093 102.878906 44.5625 20.941406 3.226562 40.996094 3.886718 58.921875 2.394531-4.503906 2.695312-9.023437 5.683593-13.5 8.964843-23.710937 17.371094-40.117187 38.367188-44.84375 55.15625 17.429687.550782 42.394531-8.773437 66.101563-26.144531 21.878906-16.03125 37.515624-35.144531 43.519531-51.191406.351562-.1875.734375-.363281 1.078125-.554687.082031.007812.167968.027343.246094.039062.082031-.011719.167968-.03125.246093-.039062.347657.191406.726563.367187 1.082031.554687 6 16.046875 21.640626 35.15625 43.519532 51.191406 23.707031 17.371094 48.671875 26.695313 66.101562 26.144531-4.726562-16.789062-21.136718-37.785156-44.84375-55.15625-4.476562-3.28125-8.996094-6.273437-13.5-8.964843 17.925782 1.492187 37.980469.832031 58.921875-2.394531zm0 0" fill="#7bac51"/><g fill="#99ca6f"><path d="m79.609375 162.839844c5.746094 33.699218 30.996094 77.5 70.339844 116.84375 7.070312 7.070312 14.28125 13.675781 21.554687 19.792968 2.894532 2.433594.730469 7.085938-3.007812 6.503907-.050782-.007813-.097656-.015625-.148438-.023438-3.257812-.5-6.492187-.925781-9.707031-1.308593-9.425781-7.535157-18.800781-15.835938-27.929687-24.964844-41.089844-41.089844-66.824219-87.054688-71-121.28125 6.269531.765625 12.941406 2.265625 19.898437 4.4375zm0 0"/><path d="m118.308594 303c-25.105469 1.046875-46.675782 6.160156-61.484375 14.460938 18.824219 20.054687 57.0625 37.496093 102.878906 44.5625 10.339844 1.59375 20.460937 2.554687 30.21875 2.949218-15.414063.609375-32.121094-.277344-49.453125-2.949218-45.820312-7.066407-84.054688-24.507813-102.878906-44.5625 18.46875-10.351563 47.460937-15.738282 80.71875-14.460938zm0 0"/><path d="m185.890625 373.382812c4.074219-2.984374 8.183594-5.71875 12.285156-8.21875 1.472657.011719 2.9375.007813 4.390625-.007812 4.40625-.046875 6.246094 5.527344 2.695313 8.128906-.046875.03125-.089844.066406-.136719.097656-22.390625 16.410157-38.257812 36.042969-43.933594 52.316407-7.355468 2.039062-14.199218 3.03125-20.144531 2.84375 4.726563-16.789063 21.132813-37.785157 44.84375-55.160157zm0 0"/><path d="m217.644531 272.867188c9.714844 0 17.050781-8.816407 15.242188-18.359376-4.503907-23.753906-6.996094-49.835937-6.996094-77.203124 0 0-1.597656-119.824219 26.101563-173.386719-27.09375 34.625-45.335938 99.28125-45.335938 173.386719 0 22.328124 1.679688 43.773437 4.734375 63.820312zm0 0"/></g><path d="m424.375 162.839844c-5.742188 33.699218-30.996094 77.5-70.335938 116.84375-7.070312 7.070312-14.285156 13.675781-21.558593 19.792968-2.894531 2.433594-.730469 7.085938 3.007812 6.503907.050781-.007813.097657-.015625.148438-.023438 3.257812-.5 6.492187-.925781 9.707031-1.308593 9.425781-7.535157 18.800781-15.835938 27.929688-24.964844 41.089843-41.089844 66.824218-87.054688 71-121.28125-6.269532.765625-12.9375 2.265625-19.898438 4.4375zm0 0" fill="#5d8e33"/><path d="m385.675781 303c25.105469 1.046875 46.679688 6.160156 61.484375 14.460938-18.824218 20.054687-57.058594 37.496093-102.878906 44.5625-10.339844 1.59375-20.460938 2.554687-30.21875 2.949218 15.414062.609375 32.125-.277344 49.457031-2.949218 45.816407-7.066407 84.050781-24.507813 102.878907-44.5625-18.46875-10.351563-47.460938-15.738282-80.722657-14.460938zm0 0" fill="#5d8e33"/><path d="m318.097656 373.382812c-4.074218-2.984374-8.183594-5.71875-12.285156-8.21875-1.472656.011719-2.9375.007813-4.390625-.007812-4.40625-.046875-6.246094 5.527344-2.695313 8.128906.046876.03125.089844.066406.136719.097656 22.390625 16.410157 38.257813 36.042969 43.933594 52.316407 7.355469 2.039062 14.195313 3.03125 20.144531 2.84375-4.726562-16.789063-21.136718-37.785157-44.84375-55.160157zm0 0" fill="#5d8e33"/><path d="m286.34375 272.867188c-9.714844 0-17.050781-8.816407-15.242188-18.359376 4.503907-23.753906 6.996094-49.835937 6.996094-77.203124 0 0 1.597656-119.824219-26.105468-173.386719 27.097656 34.625 45.339843 99.28125 45.339843 173.386719 0 22.328124-1.679687 43.773437-4.734375 63.820312zm0 0" fill="#5d8e33"/><path d="m237.625 484.964844c-2.210938 0-4-1.792969-4-4 0-2.210938 1.789062-4 4-4 5.71875 0 10.367188-4.652344 10.367188-10.371094v-116.070312c0-2.210938 1.792968-4 4-4 2.210937 0 4 1.789062 4 4v116.070312c0 10.128906-8.238282 18.371094-18.367188 18.371094zm0 0" fill="#690589"/><path d="m361.421875 432.5625c-18.9375 0-43.800781-9.980469-66.949219-26.941406-19.324218-14.160156-34.777344-31.484375-42.480468-47.386719-7.703126 15.902344-23.15625 33.226563-42.480469 47.386719-23.824219 17.457031-49.445313 27.546875-68.59375 26.917968-1.230469-.042968-2.375-.640624-3.101563-1.632812-.726562-.996094-.957031-2.265625-.621094-3.449219 5.183594-18.421875 22.503907-39.84375 46.332032-57.300781.460937-.339844.921875-.675781 1.386718-1.007812-14.550781.246093-29.640624-.796876-45.050781-3.171876-44.871093-6.917968-85.171875-24.460937-105.1875-45.777343-.839843-.894531-1.222656-2.132813-1.039062-3.347657.1875-1.214843.925781-2.277343 2-2.878906 25.355469-14.214844 68.707031-18.828125 113.289062-12.089844-7.226562-6.117187-14.269531-12.597656-21.039062-19.371093-40.089844-40.082031-67.734375-87.453125-72.148438-123.621094-.144531-1.222656.273438-2.445313 1.144531-3.3125.867188-.871094 2.085938-1.296875 3.3125-1.144531 36.167969 4.417968 83.539063 32.058594 123.621094 72.144531 9.332032 9.332031 18.03125 19.078125 25.996094 29.121094-4.699219-24.695313-7.15625-51.445313-7.15625-78.394531 0-72.0625 17.699219-139.441407 46.1875-175.851563 1.519531-1.9375 4.785156-1.9375 6.300781 0 28.488281 36.410156 46.1875 103.792969 46.1875 175.851563 0 26.949218-2.457031 53.699218-7.15625 78.394531 7.960938-10.042969 16.664063-19.789063 25.992188-29.121094 40.085937-40.085937 87.457031-67.726563 123.625-72.144531 1.210937-.152344 2.441406.273437 3.3125 1.144531.867187.871094 1.289062 2.089844 1.140625 3.3125-4.414063 36.167969-32.058594 83.539063-72.144532 123.621094-6.773437 6.777343-13.8125 13.253906-21.039062 19.375 44.578125-6.742188 87.933594-2.128907 113.289062 12.089843 1.074219.601563 1.808594 1.660157 2 2.875.1875 1.214844-.195312 2.453126-1.039062 3.351563-20.015625 21.3125-60.320312 38.855469-105.1875 45.773437-15.410156 2.375-30.507812 3.429688-45.054688 3.171876.464844.335937.929688.671874 1.390626 1.007812 23.824218 17.460938 41.144531 38.882812 46.332031 57.300781.335937 1.183594.105469 2.457031-.621094 3.449219-.730469.992188-1.875 1.59375-3.101563 1.632812-.546874.019532-1.097656.023438-1.648437.023438zm-162.027344-72.144531c1.722657 0 3.269531 1.113281 3.804688 2.777343.570312 1.773438-.160157 3.703126-1.753907 4.65625-4.460937 2.664063-8.894531 5.609376-13.191406 8.757813-19.808594 14.515625-35.210937 32.347656-41.539062 47.777344 16.621094-1.382813 38.257812-10.703125 58.070312-25.21875 20.421875-14.960938 36.171875-33.417969 42.136719-49.363281.339844-.910157 1-1.664063 1.851563-2.125l.589843-.296876c.144531-.074218.289063-.148437.429688-.222656.671875-.378906 1.433593-.550781 2.199219-.503906.777343-.050781 1.527343.125 2.199218.503906.140625.074219.285156.148438.433594.222656l.585938.296876c.855468.460937 1.511718 1.214843 1.851562 2.125 5.964844 15.945312 21.71875 34.398437 42.136719 49.363281 19.808593 14.515625 41.453125 23.835937 58.070312 25.21875-6.324219-15.429688-21.726562-33.257813-41.539062-47.777344-4.292969-3.148437-8.734375-6.09375-13.1875-8.757813-1.597657-.957031-2.328125-2.882812-1.757813-4.65625.570313-1.773437 2.28125-2.90625 4.140625-2.765624 18.121094 1.507812 38.171875.695312 57.980469-2.359376 40.449219-6.238281 76.816406-21.203124 96.75-39.570312-24.539062-11.511719-63.726562-14.824219-104.175781-8.585938-4.558594.703126-9.246094 1.558594-14.316407 2.625-1.832031.371094-3.675781-.550781-4.453124-2.246093-.78125-1.699219-.28125-3.707031 1.195312-4.84375 11.277344-8.65625 22.222656-18.277344 32.539062-28.589844 36.9375-36.941406 62.941407-79.914063 69.058594-113.6875-33.769531 6.121094-76.742187 32.125-113.683594 69.0625-13.546874 13.550781-25.726562 27.992187-36.203124 42.929687-1.105469 1.574219-3.179688 2.144532-4.929688 1.34375-1.753906-.796874-2.691406-2.726562-2.230469-4.601562 7.113281-28.832031 10.871094-61.542969 10.871094-94.605469 0-67.628906-15.746094-130.757812-41.335937-166.699219-25.589844 35.941407-41.339844 99.070313-41.339844 166.699219 0 33.0625 3.757812 65.777344 10.875 94.605469.457031 1.875-.476563 3.804688-2.230469 4.601562-1.75.800782-3.824219.230469-4.929687-1.34375-10.476563-14.9375-22.65625-29.378906-36.207032-42.929687-36.9375-36.9375-79.914062-62.945313-113.679687-69.0625 6.117187 33.773437 32.121093 76.746094 69.058593 113.6875 10.316407 10.3125 21.261719 19.933594 32.535157 28.589844 1.480469 1.136719 1.980469 3.144531 1.199219 4.84375-.78125 1.695312-2.625 2.621093-4.453126 2.246093-5.066406-1.0625-9.75-1.921874-14.316406-2.625-40.445312-6.238281-79.636718-2.925781-104.179687 8.585938 19.9375 18.371094 56.308593 33.332031 96.753906 39.570312 19.804687 3.050782 39.855469 3.867188 57.980469 2.359376.113281-.007813.226562-.011719.335937-.011719zm164.125 1.605469h.019531zm0 0" fill="#690589"/><path d="m224.40625 136.125c-.148438 0-.300781-.007812-.457031-.027344-2.195313-.25-3.769531-2.230468-3.519531-4.429687.894531-7.851563 1.984374-15.683594 3.238281-23.277344.359375-2.183594 2.417969-3.648437 4.597656-3.296875 2.179687.359375 3.65625 2.417969 3.292969 4.597656-1.230469 7.464844-2.300782 15.164063-3.183594 22.882813-.230469 2.042969-1.960938 3.550781-3.96875 3.550781zm0 0" fill="#690589"/></svg>