<svg height="504pt" viewBox="-8 0 504 504.002" width="504pt" xmlns="http://www.w3.org/2000/svg"><path d="m293.441406 58.472656h-98.382812l-129.652344 383.21875h357.6875zm0 0" fill="#fcc24c"/><path d="m289.554688 4.003906h-90.609376l-19.371093 54.46875h129.355469zm0 0" fill="#f4efed"/><path d="m289.554688 4.003906h-19.375l19.375 54.46875h19.375zm0 0" fill="#d6d1cf"/><path d="m198.945312 4.003906h19.378907l-19.378907 54.46875h-19.371093zm0 0" fill="#fff"/><path d="m293.441406 58.472656c0 27.167969-22.023437 49.191406-49.191406 49.191406s-49.191406-22.023437-49.191406-49.191406zm0 0" fill="#fcc24c"/><path d="m4 441.691406h480.5v58.3125h-480.5zm0 0" fill="#fcc24c"/><path d="m465.128906 441.691406h19.375v58.3125h-19.375zm0 0" fill="#dea42e"/><path d="m4 441.691406h19.378906v58.3125h-19.378906zm0 0" fill="#fce06a"/><path d="m306.800781 391.042969c25.695313-3.964844 47.136719-13.746094 57.699219-24.992188-13.457031-7.542969-36.851562-10.414062-62.550781-6.449219-2.769531.425782-5.480469.933594-8.144531 1.492188 6.230468-4.785156 12.441406-10.207031 18.464843-16.230469 23.046875-23.046875 37.480469-48.824219 39.820313-68.019531-19.191406 2.34375-44.972656 16.777344-68.019532 39.820312-7.925781 7.929688-14.808593 16.179688-20.554687 24.375 3.925781-15.925781 6.160156-34.183593 6.160156-53.597656 0-41.558594-10.230469-77.820312-25.425781-97.242187-15.195312 19.421875-25.429688 55.679687-25.429688 97.242187 0 19.417969 2.234376 37.671875 6.164063 53.597656-5.75-8.195312-12.628906-16.445312-20.558594-24.375-23.042969-23.046874-48.824219-37.476562-68.015625-39.820312 2.339844 19.195312 16.773438 44.972656 39.820313 68.019531 6.023437 6.023438 12.234375 11.441407 18.464843 16.230469-2.664062-.558594-5.375-1.066406-8.144531-1.492188-25.699219-3.964843-49.09375-1.09375-62.550781 6.449219 10.558594 11.246094 32.003906 21.027344 57.699219 24.992188 11.746093 1.8125 22.992187 2.179687 33.046875 1.34375-2.527344 1.507812-5.0625 3.1875-7.570313 5.027343-13.296875 9.742188-22.5 21.519532-25.152343 30.933594 9.777343.308594 23.777343-4.917968 37.074218-14.664062 12.269532-8.992188 21.042969-19.707032 24.40625-28.707032.199219-.105468.414063-.203124.605469-.3125.046875.007813.09375.015626.140625.023438.046875-.007812.09375-.015625.136719-.023438.195312.109376.410156.207032.605469.3125 3.367187 9 12.136718 19.71875 24.40625 28.707032 13.296874 9.746094 27.296874 14.972656 37.074218 14.664062-2.648437-9.414062-11.855468-21.191406-25.148437-30.933594-2.511719-1.839843-5.046875-3.519531-7.574219-5.027343 10.054688.835937 21.304688.46875 33.050781-1.34375zm0 0" fill="#7bac51"/><g fill="#690589"><path d="m244.25 474.847656c-2.207031 0-4-1.792968-4-4v-89.371094c0-2.207031 1.792969-4 4-4 2.210938 0 4 1.792969 4 4v89.371094c0 2.207032-1.789062 4-4 4zm0 0"/><path d="m305.636719 432.363281c-10.992188 0-25.324219-5.722656-38.601563-15.453125-9.867187-7.230468-17.988281-15.9375-22.785156-24.253906-4.796875 8.316406-12.917969 17.023438-22.785156 24.253906-13.667969 10.015625-28.457032 15.773438-39.5625 15.4375-1.230469-.039062-2.375-.640625-3.101563-1.632812-.726562-.992188-.957031-2.265625-.625-3.449219 2.753907-9.785156 11.328125-20.96875 23.234375-30.472656-6.621094-.132813-13.410156-.730469-20.3125-1.796875-25.921875-3.992188-48.351562-13.789063-60.007812-26.207032-.839844-.894531-1.222656-2.128906-1.035156-3.34375.183593-1.21875.921874-2.28125 1.996093-2.882812 13.648438-7.652344 35.3125-10.453125 58.851563-7.753906-2.554688-2.296875-5.054688-4.671875-7.496094-7.113282-23.089844-23.089843-38.40625-49.394531-40.964844-70.363281-.144531-1.21875.273438-2.441406 1.144532-3.3125.867187-.871093 2.085937-1.296875 3.3125-1.140625 20.96875 2.558594 47.273437 17.875 70.359374 40.964844 3.667969 3.664062 7.164063 7.445312 10.46875 11.316406-1.910156-12.070312-2.902343-24.855468-2.902343-37.714844 0-41.40625 9.824219-78.675781 26.277343-99.707031 1.519532-1.9375 4.785157-1.9375 6.300782 0 16.453125 21.027344 26.277344 58.300781 26.277344 99.707031 0 12.863282-.992188 25.644532-2.902344 37.714844 3.304687-3.871094 6.800781-7.652344 10.464844-11.320312 23.089843-23.089844 49.394531-38.402344 70.363281-40.964844 1.21875-.152344 2.445312.273438 3.3125 1.144531.871093.867188 1.292969 2.089844 1.144531 3.308594-2.5625 20.96875-17.875 47.273437-40.964844 70.367187-2.441406 2.441407-4.945312 4.816407-7.496094 7.109376 23.539063-2.695313 45.203126.105468 58.847657 7.757812 1.074219.601562 1.8125 1.664062 2 2.878906s-.195313 2.449219-1.039063 3.347656c-11.652344 12.414063-34.082031 22.207032-60.003906 26.207032-6.90625 1.0625-13.699219 1.664062-20.316406 1.792968 11.910156 9.503907 20.480468 20.6875 23.234375 30.476563.335937 1.183594.101562 2.453125-.625 3.445313-.726563.992187-1.871094 1.59375-3.097657 1.636718-.320312.007813-.640624.015625-.964843.015625zm-61.246094-51.699219c.675781 0 1.34375.171876 1.941406.5l.546875.285157c.859375.457031 1.519532 1.210937 1.859375 2.125 3.230469 8.632812 11.839844 18.6875 23.027344 26.882812 9.671875 7.089844 20.085937 11.914063 28.59375 13.410157-3.992187-7.660157-11.726563-16.140626-21.398437-23.226563-2.371094-1.734375-4.8125-3.355469-7.261719-4.820313-1.597657-.953124-2.328125-2.882812-1.757813-4.65625.570313-1.773437 2.28125-2.898437 4.140625-2.761718 10.027344.835937 21.128907.382812 32.105469-1.308594 21.023438-3.242188 40.007812-10.707031 51.277344-19.957031-13.53125-5.425781-33.882813-6.824219-54.90625-3.582031-2.519532.390624-5.117188.867187-7.941406 1.457031-1.832032.382812-3.675782-.554688-4.453126-2.246094-.777343-1.699219-.28125-3.707031 1.199219-4.84375 6.261719-4.808594 12.339844-10.152344 18.074219-15.882813 19.550781-19.550781 33.566406-42.082031 37.71875-60.261718-18.175781 4.15625-40.710938 18.167968-60.261719 37.71875-7.527343 7.53125-14.292969 15.550781-20.109375 23.84375-1.105468 1.574218-3.179687 2.140625-4.929687 1.34375-1.753907-.796875-2.691407-2.730469-2.226563-4.597656 3.953125-16.035157 6.042969-34.234376 6.042969-52.640626 0-36.300781-8.121094-70.214843-21.425781-90.382812-13.304688 20.167969-21.425782 54.082031-21.425782 90.382812 0 18.402344 2.089844 36.605469 6.042969 52.640626.460938 1.867187-.472656 3.800781-2.226562 4.597656-1.75.796875-3.824219.230468-4.929688-1.34375-5.816406-8.292969-12.585937-16.316406-20.109375-23.839844-19.550781-19.550781-42.085937-33.566406-60.261718-37.722656 4.15625 18.179687 18.167968 40.710937 37.71875 60.261718 5.734374 5.734376 11.8125 11.078126 18.078124 15.882813 1.476563 1.136719 1.976563 3.144531 1.195313 4.84375-.777344 1.691406-2.617187 2.628906-4.453125 2.246094-2.824219-.589844-5.421875-1.066407-7.9375-1.457031-21.027344-3.242188-41.375-1.839844-54.910156 3.582031 11.273437 9.25 30.253906 16.714843 51.28125 19.957031 10.976562 1.691406 22.078125 2.144531 32.105468 1.308594 1.875-.132813 3.570313.992187 4.140626 2.761718.566406 1.773438-.160157 3.703126-1.757813 4.65625-2.445313 1.460938-4.886719 3.085938-7.261719 4.824219-9.671875 7.085938-17.40625 15.5625-21.398437 23.226563 8.507812-1.5 18.921875-6.324219 28.59375-13.410156 11.1875-8.199219 19.792969-18.25 23.027343-26.886719.339844-.910157 1-1.664063 1.859376-2.125l.546874-.28125c.636719-.355469 1.351563-.523438 2.082032-.5.050781-.003907.097656-.003907.144531-.003907zm62.40625 10.378907h.019531zm0 0"/><path d="m23.375 486.472656c-2.207031 0-4-1.792968-4-4v-23.25c0-2.207031 1.792969-4 4-4s4 1.792969 4 4v23.25c0 2.207032-1.789062 4-4 4zm0 0"/><path d="m484.5 504.003906h-480.5c-2.207031 0-4-1.792968-4-4v-58.3125c0-2.207031 1.792969-4 4-4h480.5c2.210938 0 4 1.792969 4 4v58.3125c0 2.207032-1.789062 4-4 4zm-476.5-8h472.5v-50.3125h-472.5zm0 0"/><path d="m244.25 111.664062c-29.328125 0-53.191406-23.863281-53.191406-53.191406 0-2.207031 1.792968-4 4-4h98.382812c2.207032 0 4 1.792969 4 4 0 29.328125-23.859375 53.191406-53.191406 53.191406zm-45.015625-49.195312c2.03125 23.054688 21.445313 41.191406 45.015625 41.191406 23.574219 0 42.988281-18.136718 45.015625-41.191406zm0 0"/><path d="m308.929688 62.46875h-129.355469c-1.300781 0-2.519531-.628906-3.269531-1.691406s-.9375-2.421875-.5-3.648438l19.375-54.46875c.570312-1.59375 2.078124-2.660156 3.769531-2.660156h90.609375c1.691406 0 3.199218 1.066406 3.765625 2.660156l19.375 54.46875c.4375 1.222656.25 2.582032-.5 3.648438-.75 1.0625-1.96875 1.691406-3.269531 1.691406zm-123.6875-8h118.019531l-16.527344-46.464844h-84.964844zm0 0"/><path d="m213.648438 46.34375c-2.210938 0-4-1.792969-4-4v-22.980469c0-2.207031 1.789062-4 4-4 2.207031 0 4 1.792969 4 4v22.980469c0 2.207031-1.792969 4-4 4zm0 0"/><path d="m244.25 46.34375c-2.207031 0-4-1.792969-4-4v-22.980469c0-2.207031 1.792969-4 4-4 2.210938 0 4 1.792969 4 4v22.980469c0 2.207031-1.789062 4-4 4zm0 0"/><path d="m274.855469 46.34375c-2.207031 0-4-1.792969-4-4v-22.980469c0-2.207031 1.792969-4 4-4s4 1.792969 4 4v22.980469c0 2.207031-1.789063 4-4 4zm0 0"/><path d="m423.09375 445.691406h-357.6875c-1.289062 0-2.5-.621094-3.25-1.667968-.75-1.046876-.953125-2.390626-.539062-3.613282l129.652343-383.21875c.550781-1.625 2.074219-2.71875 3.789063-2.71875h98.382812c1.714844 0 3.238282 1.09375 3.789063 2.71875l129.652343 383.21875c.414063 1.222656.210938 2.566406-.539062 3.613282-.75 1.046874-1.960938 1.667968-3.25 1.667968zm-352.109375-8h346.535156l-126.945312-375.21875h-92.644531zm0 0"/></g></svg>