<svg height="504pt" viewBox="-34 0 504 504" width="504pt" xmlns="http://www.w3.org/2000/svg"><path d="m47.65625 153.554688v196.890624l170.511719 98.441407 170.507812-98.441407v-196.890624l-170.507812-98.441407zm0 0" fill="#fcc24c"/><path d="m88.4375 177.101562v149.796876l129.730469 74.902343 129.730469-74.902343v-149.796876l-129.730469-74.902343zm0 0" fill="#f4efed"/><path d="m368.496094 141.90625v220.1875l20.179687-11.648438v-196.890624zm0 0" fill="#dea42e"/><path d="m67.839844 141.90625v220.1875l-20.183594-11.648438v-196.890624zm0 0" fill="#fce06a"/><g fill="#690589"><path d="m218.167969 452.886719c-.691407 0-1.378907-.179688-2-.535157l-170.507813-98.445312c-1.238281-.714844-2-2.035156-2-3.464844v-196.886718c0-1.429688.761719-2.75 2-3.460938l170.507813-98.445312c1.238281-.714844 2.761719-.714844 4 0l170.507812 98.445312c1.238281.710938 2 2.035156 2 3.460938v196.886718c0 1.429688-.761719 2.75-2 3.464844l-170.507812 98.445312c-.621094.355469-1.308594.535157-2 .535157zm-166.511719-104.753907 166.507812 96.132813 166.511719-96.132813v-192.265624l-166.511719-96.132813-166.507812 96.132813zm0 0"/><path d="m63.800781 229.171875c-2.207031 0-4-1.792969-4-4v-24c0-2.210937 1.792969-4 4-4 2.210938 0 4 1.789063 4 4v24c0 2.207031-1.789062 4-4 4zm0 0"/><path d="m218.167969 405.800781c-.691407 0-1.378907-.179687-2-.535156l-129.730469-74.902344c-1.238281-.714843-2-2.035156-2-3.464843v-149.796876c0-1.429687.761719-2.75 2-3.464843l129.730469-74.902344c1.238281-.710937 2.761719-.710937 4 0l129.730469 74.902344c1.238281.714843 2 2.035156 2 3.464843v149.796876c0 1.429687-.761719 2.75-2 3.464843l-129.730469 74.902344c-.621094.359375-1.308594.535156-2 .535156zm-125.730469-81.207031 125.730469 72.589844 125.730469-72.589844v-145.1875l-125.730469-72.589844-125.730469 72.589844zm0 0"/><path d="m218.59375 59.113281c-2.207031 0-4-1.792969-4-4v-51.113281c0-2.207031 1.792969-4 4-4s4 1.792969 4 4v51.113281c0 2.207031-1.792969 4-4 4zm0 0"/><path d="m218.59375 504c-2.207031 0-4-1.792969-4-4v-51.113281c0-2.207031 1.792969-4 4-4s4 1.792969 4 4v51.113281c0 2.207031-1.792969 4-4 4zm0 0"/><path d="m388.964844 157.308594c-1.382813 0-2.726563-.714844-3.464844-1.996094-1.109375-1.910156-.457031-4.359375 1.457031-5.464844l44.226563-25.621094c1.910156-1.109374 4.359375-.457031 5.464844 1.457032 1.109374 1.910156.457031 4.359375-1.453126 5.464844l-44.230468 25.621093c-.632813.363281-1.320313.539063-2 .539063zm0 0"/><path d="m4.003906 380.3125c-1.378906 0-2.722656-.714844-3.464844-1.996094-1.105468-1.910156-.4570308-4.359375 1.457032-5.464844l44.226562-25.621093c1.910156-1.105469 4.359375-.453125 5.46875 1.457031 1.105469 1.910156.453125 4.359375-1.457031 5.464844l-44.226563 25.621094c-.632812.363281-1.324218.539062-2.003906.539062zm0 0"/><path d="m48.222656 157.308594c-.679687 0-1.367187-.175782-2-.539063l-44.226562-25.621093c-1.9140628-1.109376-2.5625-3.554688-1.457032-5.464844 1.105469-1.910156 3.558594-2.5625 5.46875-1.457032l44.226563 25.621094c1.910156 1.109375 2.5625 3.554688 1.457031 5.464844-.742187 1.28125-2.085937 1.996094-3.46875 1.996094zm0 0"/><path d="m433.183594 380.3125c-.679688 0-1.371094-.175781-2-.539062l-44.226563-25.625c-1.914062-1.105469-2.566406-3.550782-1.457031-5.464844 1.105469-1.90625 3.554688-2.558594 5.464844-1.457032l44.230468 25.625c1.910157 1.105469 2.5625 3.550782 1.453126 5.464844-.742188 1.28125-2.085938 1.996094-3.464844 1.996094zm0 0"/></g><path d="m242.539062 43.960938c-6.160156-13.222657-21.871093-18.941407-35.09375-12.78125-13.21875 6.164062-18.941406 21.875-12.777343 35.09375 6.160156 13.21875 21.875 18.941406 35.09375 12.78125 13.21875-6.164063 18.941406-21.875 12.777343-35.09375zm0 0" fill="#7bac51"/><path d="m223.042969 422.859375c-14.375-2.457031-28.023438 7.203125-30.480469 21.582031-2.457031 14.375 7.203125 28.019532 21.582031 30.476563 14.375 2.460937 28.019531-7.203125 30.480469-21.578125 2.457031-14.378906-7.207031-28.023438-21.582031-30.480469zm0 0" fill="#7bac51"/><path d="m53.75 325.796875c-14.1875-3.371094-28.425781 5.398437-31.792969 19.589844-3.371093 14.191406 5.398438 28.425781 19.589844 31.796875 14.1875 3.367187 28.421875-5.402344 31.792969-19.589844 3.371094-14.191406-5.398438-28.425781-19.589844-31.796875zm0 0" fill="#99ca6f"/><path d="m53.757812 128.46875c-14.1875-3.371094-28.425781 5.398438-31.792968 19.589844-3.371094 14.1875 5.398437 28.421875 19.585937 31.792968 14.191407 3.371094 28.425781-5.398437 31.796875-19.589843 3.371094-14.1875-5.398437-28.421875-19.589844-31.792969zm0 0" fill="#99ca6f"/><path d="m407.34375 332.800781c-10.3125-10.3125-27.03125-10.3125-37.347656 0-10.3125 10.3125-10.3125 27.03125 0 37.34375 10.316406 10.3125 27.035156 10.3125 37.347656 0s10.3125-27.03125 0-37.34375zm0 0" fill="#5d8e33"/><path d="m407.34375 135.480469c-10.3125-10.316407-27.03125-10.316407-37.34375 0-10.3125 10.3125-10.3125 27.03125 0 37.34375s27.03125 10.3125 37.34375 0 10.3125-27.03125 0-37.34375zm0 0" fill="#5d8e33"/><path d="m218.59375 85.523438c-16.769531 0-30.410156-13.640626-30.410156-30.410157 0-16.765625 13.640625-30.40625 30.410156-30.40625s30.410156 13.640625 30.410156 30.40625c0 16.769531-13.640625 30.410157-30.410156 30.410157zm0-52.816407c-12.355469 0-22.410156 10.050781-22.410156 22.40625s10.054687 22.410157 22.410156 22.410157 22.410156-10.054688 22.410156-22.410157-10.054687-22.40625-22.410156-22.40625zm0 0" fill="#690589"/><path d="m218.59375 479.292969c-16.769531 0-30.410156-13.640625-30.410156-30.40625 0-16.769531 13.640625-30.410157 30.410156-30.410157s30.410156 13.640626 30.410156 30.410157c0 16.765625-13.640625 30.40625-30.410156 30.40625zm0-52.816407c-12.355469 0-22.410156 10.054688-22.410156 22.410157s10.050781 22.40625 22.410156 22.40625 22.410156-10.050781 22.410156-22.40625-10.054687-22.410157-22.410156-22.410157zm0 0" fill="#690589"/><path d="m47.65625 381.878906c-16.765625 0-30.410156-13.640625-30.410156-30.410156 0-16.765625 13.644531-30.40625 30.410156-30.40625 16.769531 0 30.410156 13.640625 30.410156 30.40625 0 16.769531-13.640625 30.410156-30.410156 30.410156zm0-52.816406c-12.355469 0-22.410156 10.050781-22.410156 22.40625 0 12.359375 10.054687 22.410156 22.410156 22.410156 12.359375 0 22.410156-10.050781 22.410156-22.410156 0-12.351562-10.050781-22.40625-22.410156-22.40625zm0 0" fill="#690589"/><path d="m47.65625 184.558594c-16.765625 0-30.410156-13.640625-30.410156-30.410156 0-16.765626 13.644531-30.410157 30.410156-30.410157 16.769531 0 30.410156 13.644531 30.410156 30.410157 0 16.769531-13.640625 30.410156-30.410156 30.410156zm0-52.820313c-12.355469 0-22.410156 10.054688-22.410156 22.410157 0 12.359374 10.054687 22.410156 22.410156 22.410156 12.359375 0 22.410156-10.050782 22.410156-22.410156 0-12.355469-10.050781-22.410157-22.410156-22.410157zm0 0" fill="#690589"/><path d="m388.675781 381.878906c-16.769531 0-30.40625-13.640625-30.40625-30.410156 0-16.765625 13.636719-30.40625 30.40625-30.40625s30.410157 13.640625 30.410157 30.40625c0 16.769531-13.640626 30.410156-30.410157 30.410156zm0-52.816406c-12.355469 0-22.40625 10.050781-22.40625 22.40625 0 12.359375 10.050781 22.410156 22.40625 22.410156s22.410157-10.050781 22.410157-22.410156c0-12.351562-10.054688-22.40625-22.410157-22.40625zm0 0" fill="#690589"/><path d="m388.675781 184.558594c-16.769531 0-30.40625-13.640625-30.40625-30.410156 0-16.765626 13.636719-30.410157 30.40625-30.410157s30.410157 13.644531 30.410157 30.410157c0 16.769531-13.640626 30.410156-30.410157 30.410156zm0-52.820313c-12.355469 0-22.40625 10.054688-22.40625 22.410157 0 12.359374 10.050781 22.410156 22.40625 22.410156s22.410157-10.050782 22.410157-22.410156c0-12.355469-10.054688-22.410157-22.410157-22.410157zm0 0" fill="#690589"/><path d="m307.914062 252c0 49.332031-39.988281 89.320312-89.320312 89.320312s-89.320312-39.988281-89.320312-89.320312 39.988281-89.320312 89.320312-89.320312 89.320312 39.988281 89.320312 89.320312zm0 0" fill="#fcc24c"/><path d="m218.59375 162.679688c-2.019531 0-4.015625.089843-6 .222656 46.53125 3.089844 83.320312 41.785156 83.320312 89.097656s-36.789062 86.011719-83.320312 89.097656c1.984375.132813 3.980469.222656 6 .222656 49.332031 0 89.320312-39.988281 89.320312-89.320312s-39.988281-89.320312-89.320312-89.320312zm0 0" fill="#dea42e"/><path d="m218.59375 341.320312c2.019531 0 4.015625-.089843 6-.222656-46.53125-3.089844-83.320312-41.785156-83.320312-89.097656s36.789062-86.011719 83.320312-89.097656c-1.984375-.132813-3.980469-.222656-6-.222656-49.332031 0-89.320312 39.988281-89.320312 89.320312s39.988281 89.320312 89.320312 89.320312zm0 0" fill="#fce06a"/><path d="m284.703125 252c0 36.511719-29.597656 66.109375-66.109375 66.109375s-66.109375-29.597656-66.109375-66.109375 29.597656-66.109375 66.109375-66.109375 66.109375 29.597656 66.109375 66.109375zm0 0" fill="#f4efed"/><path d="m218.59375 345.320312c-51.457031 0-93.320312-41.863281-93.320312-93.320312s41.863281-93.320312 93.320312-93.320312 93.320312 41.863281 93.320312 93.320312-41.863281 93.320312-93.320312 93.320312zm0-178.640624c-47.046875 0-85.320312 38.273437-85.320312 85.320312s38.273437 85.320312 85.320312 85.320312 85.320312-38.273437 85.320312-85.320312-38.273437-85.320312-85.320312-85.320312zm0 0" fill="#690589"/><path d="m218.59375 322.113281c-38.660156 0-70.109375-31.453125-70.109375-70.113281s31.449219-70.113281 70.109375-70.113281 70.109375 31.453125 70.109375 70.113281-31.449219 70.113281-70.109375 70.113281zm0-132.226562c-34.246094 0-62.109375 27.867187-62.109375 62.113281s27.863281 62.113281 62.109375 62.113281c34.25 0 62.109375-27.867187 62.109375-62.113281s-27.859375-62.113281-62.109375-62.113281zm0 0" fill="#690589"/><path d="m218.59375 301.839844c-2.207031 0-4-1.792969-4-4v-91.679688c0-2.207031 1.792969-4 4-4s4 1.792969 4 4v91.679688c0 2.207031-1.792969 4-4 4zm0 0" fill="#690589"/><path d="m264.433594 256h-91.679688c-2.207031 0-4-1.792969-4-4s1.792969-4 4-4h91.679688c2.207031 0 4 1.792969 4 4s-1.792969 4-4 4zm0 0" fill="#690589"/><path d="m186.179688 288.410156c-1.023438 0-2.046876-.386718-2.828126-1.171875-1.5625-1.558593-1.5625-4.09375 0-5.652343l64.828126-64.824219c1.558593-1.5625 4.09375-1.5625 5.652343 0 1.5625 1.558593 1.5625 4.09375 0 5.652343l-64.824219 64.824219c-.78125.785157-1.804687 1.171875-2.828124 1.171875zm0 0" fill="#690589"/><path d="m251.007812 288.410156c-1.027343 0-2.046874-.386718-2.828124-1.171875l-64.828126-64.824219c-1.5625-1.558593-1.5625-4.09375 0-5.652343 1.558594-1.5625 4.09375-1.5625 5.65625 0l64.824219 64.824219c1.5625 1.558593 1.5625 4.09375 0 5.652343-.777343.785157-1.800781 1.171875-2.824219 1.171875zm0 0" fill="#690589"/><path d="m236.179688 252c0 9.710938-7.875 17.585938-17.585938 17.585938s-17.582031-7.875-17.582031-17.585938 7.871093-17.585938 17.582031-17.585938 17.585938 7.875 17.585938 17.585938zm0 0" fill="#f4efed"/><path d="m218.59375 273.585938c-11.902344 0-21.582031-9.683594-21.582031-21.585938s9.679687-21.585938 21.582031-21.585938 21.585938 9.683594 21.585938 21.585938-9.683594 21.585938-21.585938 21.585938zm0-35.171876c-7.488281 0-13.582031 6.097657-13.582031 13.585938s6.09375 13.585938 13.582031 13.585938 13.585938-6.097657 13.585938-13.585938-6.097657-13.585938-13.585938-13.585938zm0 0" fill="#690589"/></svg>