<svg height="504pt" viewBox="-34 0 504 504" width="504pt" xmlns="http://www.w3.org/2000/svg"><path d="m47.660156 153.554688v196.890624l170.507813 98.441407 170.507812-98.441407v-196.890624l-170.507812-98.441407zm0 0" fill="#fcc24c"/><path d="m368.496094 141.90625v220.1875l20.179687-11.648438v-196.890624zm0 0" fill="#dea42e"/><path d="m67.839844 141.90625v220.1875l-20.179688-11.648438v-196.890624zm0 0" fill="#fce06a"/><path d="m88.4375 177.101562v149.796876l129.730469 74.902343 129.730469-74.902343v-149.796876l-129.730469-74.902343zm0 0" fill="#f4efed"/><g fill="#690589"><path d="m218.167969 452.886719c-.695313 0-1.382813-.179688-2-.535157l-170.507813-98.445312c-1.238281-.714844-2-2.035156-2-3.464844v-196.886718c0-1.425782.761719-2.75 2-3.460938l170.507813-98.445312c1.238281-.714844 2.761719-.714844 4 0l170.507812 98.445312c1.238281.710938 2 2.035156 2 3.460938v196.886718c0 1.429688-.761719 2.75-2 3.464844l-170.507812 98.445312c-.621094.355469-1.308594.535157-2 .535157zm-166.507813-104.753907 166.507813 96.136719 166.507812-96.136719v-192.265624l-166.507812-96.136719-166.507813 96.136719zm0 0"/><path d="m63.800781 229.167969c-2.207031 0-4-1.792969-4-4v-24c0-2.207031 1.792969-4 4-4 2.210938 0 4 1.792969 4 4v24c0 2.210937-1.789062 4-4 4zm0 0"/><path d="m218.167969 405.800781c-.695313 0-1.382813-.179687-2-.535156l-129.730469-74.902344c-1.238281-.714843-2-2.035156-2-3.464843v-149.796876c0-1.429687.761719-2.75 2-3.464843l129.730469-74.902344c1.238281-.710937 2.761719-.710937 4 0l129.730469 74.902344c1.238281.714843 2 2.035156 2 3.464843v149.796876c0 1.429687-.761719 2.75-2 3.464843l-129.730469 74.902344c-.621094.355469-1.308594.535156-2 .535156zm-125.730469-81.210937 125.730469 72.589844 125.730469-72.589844v-145.179688l-125.730469-72.589844-125.730469 72.589844zm0 0"/><path d="m218.59375 59.113281c-2.207031 0-4-1.792969-4-4v-51.113281c0-2.207031 1.792969-4 4-4s4 1.792969 4 4v51.113281c0 2.207031-1.792969 4-4 4zm0 0"/><path d="m218.59375 504c-2.207031 0-4-1.792969-4-4v-51.113281c0-2.207031 1.792969-4 4-4s4 1.792969 4 4v51.113281c0 2.207031-1.792969 4-4 4zm0 0"/><path d="m388.964844 157.308594c-1.378906 0-2.722656-.714844-3.464844-1.996094-1.109375-1.910156-.457031-4.355469 1.457031-5.464844l44.226563-25.621094c1.921875-1.109374 4.359375-.453124 5.46875 1.457032 1.105468 1.914062.453125 4.359375-1.457032 5.464844l-44.230468 25.621093c-.632813.367188-1.324219.539063-2 .539063zm0 0"/><path d="m4.003906 380.3125c-1.378906 0-2.722656-.714844-3.464844-1.996094-1.105468-1.914062-.4531245-4.359375 1.457032-5.464844l44.226562-25.621093c1.917969-1.109375 4.363282-.453125 5.46875 1.457031 1.105469 1.910156.457032 4.355469-1.457031 5.464844l-44.226563 25.621094c-.632812.363281-1.324218.539062-2.003906.539062zm0 0"/><path d="m48.222656 157.308594c-.679687 0-1.367187-.171875-2-.539063l-44.226562-25.621093c-1.9101565-1.105469-2.5625-3.550782-1.457032-5.464844 1.105469-1.910156 3.546876-2.566406 5.464844-1.457032l44.230469 25.621094c1.90625 1.109375 2.558594 3.554688 1.453125 5.464844-.738281 1.28125-2.082031 1.996094-3.464844 1.996094zm0 0"/><path d="m433.183594 380.3125c-.679688 0-1.367188-.175781-2-.539062l-44.230469-25.621094c-1.910156-1.109375-2.5625-3.554688-1.453125-5.464844 1.105469-1.910156 3.542969-2.566406 5.464844-1.457031l44.226562 25.621093c1.910156 1.105469 2.5625 3.550782 1.457032 5.464844-.742188 1.28125-2.082032 1.996094-3.464844 1.996094zm0 0"/></g><path d="m243 45.003906c-5.582031-13.472656-21.03125-19.871094-34.503906-14.292968-13.476563 5.582031-19.875 21.03125-14.292969 34.507812 5.582031 13.472656 21.03125 19.871094 34.503906 14.289062 13.476563-5.578124 19.875-21.027343 14.292969-34.503906zm0 0" fill="#7bac51"/><path d="m222.835938 422.824219c-14.398438-2.335938-27.960938 7.441406-30.300782 21.835937-2.335937 14.398438 7.441406 27.960938 21.839844 30.300782 14.394531 2.335937 27.960938-7.441407 30.296875-21.839844 2.335937-14.394532-7.441406-27.960938-21.835937-30.296875zm0 0" fill="#7bac51"/><path d="m53.75 325.796875c-14.1875-3.371094-28.421875 5.398437-31.792969 19.589844-3.371093 14.191406 5.398438 28.425781 19.589844 31.796875 14.1875 3.367187 28.421875-5.402344 31.792969-19.589844 3.371094-14.191406-5.398438-28.425781-19.589844-31.796875zm0 0" fill="#99ca6f"/><path d="m53.757812 128.46875c-14.1875-3.371094-28.421874 5.398438-31.792968 19.589844-3.371094 14.1875 5.398437 28.421875 19.589844 31.792968 14.1875 3.371094 28.421874-5.398437 31.792968-19.589843 3.371094-14.1875-5.398437-28.421875-19.589844-31.792969zm0 0" fill="#99ca6f"/><path d="m407.34375 332.800781c-10.3125-10.3125-27.03125-10.3125-37.34375 0s-10.3125 27.03125 0 37.34375 27.03125 10.3125 37.34375 0 10.3125-27.03125 0-37.34375zm0 0" fill="#5d8e33"/><path d="m407.347656 135.480469c-10.316406-10.316407-27.035156-10.316407-37.347656 0-10.3125 10.3125-10.3125 27.03125 0 37.34375s27.03125 10.3125 37.347656 0c10.3125-10.3125 10.3125-27.03125 0-37.34375zm0 0" fill="#5d8e33"/><path d="m218.59375 85.523438c-16.765625 0-30.40625-13.644532-30.40625-30.410157 0-16.769531 13.640625-30.410156 30.40625-30.410156 16.769531 0 30.410156 13.640625 30.410156 30.410156 0 16.765625-13.640625 30.410157-30.410156 30.410157zm0-52.820313c-12.355469 0-22.40625 10.054687-22.40625 22.410156 0 12.359375 10.050781 22.410157 22.40625 22.410157s22.410156-10.054688 22.410156-22.410157c0-12.359375-10.054687-22.410156-22.410156-22.410156zm0 0" fill="#690589"/><path d="m218.59375 479.296875c-16.765625 0-30.40625-13.644531-30.40625-30.410156 0-16.769531 13.640625-30.410157 30.40625-30.410157 16.769531 0 30.410156 13.640626 30.410156 30.410157 0 16.765625-13.640625 30.410156-30.410156 30.410156zm0-52.820313c-12.355469 0-22.40625 10.054688-22.40625 22.410157 0 12.359375 10.050781 22.410156 22.40625 22.410156s22.410156-10.050781 22.410156-22.410156c0-12.355469-10.054687-22.410157-22.410156-22.410157zm0 0" fill="#690589"/><path d="m47.660156 381.878906c-16.769531 0-30.410156-13.640625-30.410156-30.40625 0-16.769531 13.640625-30.410156 30.410156-30.410156 16.765625 0 30.40625 13.640625 30.40625 30.410156 0 16.765625-13.640625 30.40625-30.40625 30.40625zm0-52.816406c-12.359375 0-22.410156 10.050781-22.410156 22.410156 0 12.355469 10.050781 22.40625 22.410156 22.40625 12.355469 0 22.40625-10.050781 22.40625-22.40625 0-12.355468-10.050781-22.410156-22.40625-22.410156zm0 0" fill="#690589"/><path d="m47.660156 184.558594c-16.769531 0-30.410156-13.640625-30.410156-30.410156 0-16.765626 13.640625-30.410157 30.410156-30.410157 16.765625 0 30.40625 13.644531 30.40625 30.410157 0 16.769531-13.640625 30.410156-30.40625 30.410156zm0-52.816406c-12.359375 0-22.410156 10.050781-22.410156 22.410156 0 12.355468 10.050781 22.40625 22.410156 22.40625 12.355469 0 22.40625-10.050782 22.40625-22.40625 0-12.359375-10.050781-22.410156-22.40625-22.410156zm0 0" fill="#690589"/><path d="m388.675781 381.878906c-16.765625 0-30.40625-13.640625-30.40625-30.40625 0-16.769531 13.640625-30.410156 30.40625-30.410156 16.769531 0 30.410157 13.640625 30.410157 30.410156 0 16.765625-13.640626 30.40625-30.410157 30.40625zm0-52.816406c-12.355469 0-22.40625 10.050781-22.40625 22.410156 0 12.355469 10.050781 22.40625 22.40625 22.40625s22.410157-10.050781 22.410157-22.40625c0-12.355468-10.054688-22.410156-22.410157-22.410156zm0 0" fill="#690589"/><path d="m388.675781 184.558594c-16.765625 0-30.40625-13.640625-30.40625-30.410156 0-16.765626 13.640625-30.410157 30.40625-30.410157 16.769531 0 30.410157 13.644531 30.410157 30.410157 0 16.769531-13.640626 30.410156-30.410157 30.410156zm0-52.816406c-12.355469 0-22.40625 10.050781-22.40625 22.410156 0 12.355468 10.050781 22.40625 22.40625 22.40625s22.410157-10.050782 22.410157-22.40625c0-12.359375-10.054688-22.410156-22.410157-22.410156zm0 0" fill="#690589"/><path d="m190.820312 302.324219c-21.164062-10.074219-43.035156-8.339844-48.855468 3.882812-5.816406 12.21875 6.621094 30.292969 27.785156 40.371094 21.164062 10.074219 43.035156 8.339844 48.855469-3.882813 5.816406-12.21875-6.621094-30.292968-27.785157-40.371093zm0 0" fill="#fcc24c"/><path d="m190.8125 248.535156c-16.378906-7.796875-34.90625-5.695312-48.855469 3.882813 1.355469 16.867187 11.40625 32.574219 27.785157 40.371093 16.375 7.800782 34.902343 5.699219 48.851562-3.882812-1.355469-16.867188-11.40625-32.574219-27.78125-40.371094zm0 0" fill="#fcc24c"/><path d="m295.242188 252.414062c-5.820313-12.21875-27.691407-13.957031-48.855469-3.882812-21.164063 10.078125-33.601563 28.152344-27.78125 40.371094 5.816406 12.222656 27.6875 13.960937 48.851562 3.882812 21.164063-10.074218 33.601563-28.152344 27.785157-40.371094zm0 0" fill="#fcc24c"/><path d="m190.816406 194.746094c-21.160156-10.074219-43.035156-8.335938-48.851562 3.882812-5.820313 12.21875 6.621094 30.296875 27.785156 40.371094 21.160156 10.078125 43.035156 8.339844 48.851562-3.882812 5.820313-12.21875-6.621093-30.292969-27.785156-40.371094zm0 0" fill="#fcc24c"/><path d="m295.238281 198.628906c-5.816406-12.222656-27.691406-13.957031-48.851562-3.882812-21.164063 10.078125-33.605469 28.152344-27.785157 40.371094 5.820313 12.222656 27.691407 13.957031 48.855469 3.882812 21.160157-10.078125 33.601563-28.152344 27.78125-40.371094zm0 0" fill="#fcc24c"/><path d="m218.59375 401.988281c-2.207031 0-4-1.792969-4-4v-177.476562c0-2.210938 1.792969-4 4-4s4 1.789062 4 4v177.476562c0 2.210938-1.792969 4-4 4zm0 0" fill="#690589"/><path d="m295.242188 306.207031c-5.820313-12.222656-27.691407-13.960937-48.855469-3.882812-21.164063 10.078125-33.601563 28.152343-27.78125 40.371093 5.816406 12.21875 27.6875 13.957032 48.851562 3.882813 21.164063-10.078125 33.601563-28.152344 27.785157-40.371094zm0 0" fill="#fcc24c"/><path d="m261.375 297.949219.234375.027343c14.480469 1.859376 21.890625 18.507813 14.023437 30.808594-4.765624 7.453125-11.609374 13.707032-20.1875 17.789063-4.867187 2.320312-9.925781 3.742187-14.996093 4.375 8.929687 1.101562 18.265625-.21875 26.996093-4.375 16.378907-7.796875 26.425782-23.503907 27.785157-40.371094-9.800781-6.730469-21.863281-9.75-33.855469-8.253906zm0 0" fill="#dea42e"/><path d="m261.375 244.164062c.078125.011719.15625.019532.234375.03125 14.480469 1.855469 21.890625 18.503907 14.023437 30.804688-4.765624 7.453125-11.609374 13.707031-20.1875 17.792969-4.867187 2.316406-9.925781 3.742187-14.996093 4.371093 8.929687 1.105469 18.265625-.214843 26.996093-4.371093 16.378907-7.800781 26.425782-23.503907 27.785157-40.371094-9.800781-6.734375-21.863281-9.753906-33.855469-8.257813zm0 0" fill="#dea42e"/><path d="m261.375 190.011719c.078125.011719.15625.019531.234375.03125 14.480469 1.855469 21.890625 18.503906 14.023437 30.804687-4.765624 7.453125-11.609374 13.707032-20.1875 17.792969-4.867187 2.316406-9.925781 3.742187-14.996093 4.375 8.929687 1.101563 18.265625-.21875 26.996093-4.375 16.378907-7.796875 26.425782-23.503906 27.785157-40.371094-9.800781-6.734375-21.863281-9.75-33.855469-8.257812zm0 0" fill="#dea42e"/><path d="m175.8125 297.949219c-.078125.007812-.15625.019531-.234375.027343-14.480469 1.859376-21.886719 18.507813-14.023437 30.808594 4.765624 7.453125 11.609374 13.707032 20.1875 17.789063 4.867187 2.320312 9.925781 3.742187 14.996093 4.375-8.933593 1.101562-18.269531-.21875-26.996093-4.375-16.378907-7.796875-26.425782-23.503907-27.785157-40.371094 9.804688-6.730469 21.867188-9.75 33.855469-8.253906zm0 0" fill="#fce06a"/><path d="m175.8125 244.164062c-.078125.011719-.15625.019532-.234375.03125-14.480469 1.855469-21.886719 18.503907-14.023437 30.804688 4.765624 7.453125 11.609374 13.707031 20.1875 17.792969 4.867187 2.316406 9.925781 3.742187 14.996093 4.371093-8.933593 1.105469-18.269531-.214843-26.996093-4.371093-16.378907-7.800781-26.425782-23.503907-27.785157-40.371094 9.804688-6.734375 21.867188-9.753906 33.855469-8.257813zm0 0" fill="#fce06a"/><path d="m175.8125 190.011719c-.078125.011719-.15625.019531-.234375.03125-14.480469 1.855469-21.886719 18.503906-14.023437 30.804687 4.765624 7.453125 11.609374 13.707032 20.1875 17.792969 4.867187 2.316406 9.925781 3.742187 14.996093 4.375-8.933593 1.101563-18.269531-.21875-26.996093-4.375-16.378907-7.796875-26.425782-23.503906-27.785157-40.371094 9.804688-6.734375 21.867188-9.75 33.855469-8.257812zm0 0" fill="#fce06a"/><path d="m246.433594 355.304688c-10.578125 0-21.117188-3.144532-30.101563-9.316407-1.183593-.808593-1.839843-2.1875-1.722656-3.617187 1.511719-18.828125 13.027344-35.554688 30.050781-43.660156 17.019532-8.105469 37.265625-6.5 52.835938 4.195312 1.179687.8125 1.835937 2.191406 1.71875 3.621094-1.511719 18.824218-13.027344 35.554687-30.046875 43.660156-7.199219 3.429688-14.976563 5.117188-22.734375 5.117188zm-23.601563-14.628907c12.929688 7.917969 29.148438 8.835938 42.898438 2.289063 13.742187-6.542969 23.257812-19.710938 25.265625-34.742188-12.933594-7.917968-29.152344-8.832031-42.898438-2.289062-13.742187 6.542968-23.257812 19.714844-25.265625 34.742187zm0 0" fill="#690589"/><path d="m246.433594 301.519531c-10.578125 0-21.121094-3.144531-30.101563-9.316406-1.183593-.8125-1.839843-2.191406-1.722656-3.617187 1.511719-18.828126 13.027344-35.558594 30.050781-43.664063 17.019532-8.105469 37.265625-6.496094 52.835938 4.199219 1.179687.808594 1.835937 2.1875 1.71875 3.617187-1.511719 18.824219-13.027344 35.554688-30.046875 43.660157-7.199219 3.429687-14.976563 5.121093-22.734375 5.121093zm-23.601563-14.632812c12.929688 7.917969 29.148438 8.835937 42.898438 2.292969 13.742187-6.546876 23.257812-19.714844 25.265625-34.742188-12.933594-7.917969-29.152344-8.835938-42.898438-2.292969-13.742187 6.546875-23.257812 19.714844-25.265625 34.742188zm23.546875-38.351563h.019532zm0 0" fill="#690589"/><path d="m246.433594 247.730469c-10.578125 0-21.117188-3.144531-30.101563-9.316407-1.183593-.808593-1.839843-2.1875-1.722656-3.617187 1.511719-18.828125 13.027344-35.554687 30.050781-43.660156 17.019532-8.101563 37.269532-6.5 52.835938 4.199219 1.179687.808593 1.835937 2.1875 1.71875 3.617187-1.511719 18.824219-13.027344 35.554687-30.046875 43.660156-7.199219 3.425781-14.976563 5.117188-22.734375 5.117188zm-23.601563-14.628907c12.929688 7.914063 29.148438 8.832032 42.898438 2.289063 13.742187-6.542969 23.257812-19.714844 25.265625-34.742187-12.933594-7.917969-29.152344-8.835938-42.898438-2.289063-13.742187 6.542969-23.257812 19.710937-25.265625 34.742187zm0 0" fill="#690589"/><path d="m190.753906 355.304688c-7.757812 0-15.535156-1.6875-22.730468-5.117188-17.023438-8.109375-28.539063-24.835938-30.050782-43.664062-.117187-1.425782.542969-2.804688 1.722656-3.617188 15.570313-10.695312 35.820313-12.300781 52.835938-4.199219 17.019531 8.105469 28.539062 24.835938 30.050781 43.664063.113281 1.425781-.542969 2.808594-1.722656 3.617187-8.984375 6.171875-19.527344 9.316407-30.105469 9.316407zm-44.558594-47.082032c2.003907 15.027344 11.519532 28.199219 25.265626 34.742188 13.742187 6.542968 29.964843 5.628906 42.898437-2.289063-2.007813-15.03125-11.523437-28.199219-25.265625-34.742187-13.746094-6.542969-29.96875-5.628906-42.898438 2.289062zm0 0" fill="#690589"/><path d="m190.753906 301.519531c-7.757812 0-15.535156-1.691406-22.730468-5.121093-17.023438-8.105469-28.539063-24.835938-30.050782-43.660157-.117187-1.425781.542969-2.804687 1.722656-3.617187 15.570313-10.695313 35.820313-12.300782 52.835938-4.199219 17.019531 8.105469 28.539062 24.835937 30.050781 43.664063.113281 1.425781-.542969 2.804687-1.722656 3.617187-8.984375 6.171875-19.527344 9.316406-30.105469 9.316406zm-44.558594-47.082031c2.003907 15.027344 11.519532 28.195312 25.265626 34.742188 13.746093 6.542968 29.964843 5.625 42.898437-2.292969-2.007813-15.027344-11.523437-28.199219-25.265625-34.742188-13.746094-6.539062-29.96875-5.625-42.898438 2.292969zm0 0" fill="#690589"/><path d="m190.753906 247.730469c-7.757812 0-15.535156-1.6875-22.730468-5.117188-17.023438-8.105469-28.539063-24.835937-30.050782-43.664062-.117187-1.425781.542969-2.804688 1.722656-3.617188 15.570313-10.695312 35.820313-12.300781 52.835938-4.199219 17.019531 8.105469 28.539062 24.835938 30.050781 43.664063.113281 1.425781-.542969 2.808594-1.722656 3.617187-8.984375 6.171876-19.527344 9.316407-30.105469 9.316407zm-44.558594-47.082031c2.003907 15.027343 11.519532 28.199218 25.265626 34.742187 13.742187 6.542969 29.964843 5.628906 42.898437-2.289063-2.007813-15.03125-11.523437-28.199218-25.265625-34.742187-13.746094-6.542969-29.96875-5.628906-42.898438 2.289063zm0 0" fill="#690589"/><path d="m243.101562 174.070312c0-23.4375-10.972656-42.441406-24.507812-42.441406s-24.503906 19.003906-24.503906 42.441406 10.96875 42.441407 24.503906 42.441407 24.507812-19.003907 24.507812-42.441407zm0 0" fill="#fcc24c"/><path d="m218.59375 131.628906c-2.105469 1.222656-4.101562 2.609375-6 4.121094 11.269531 8.976562 18.507812 22.792969 18.507812 38.320312 0 15.527344-7.242187 29.339844-18.507812 38.320313 1.898438 1.507813 3.894531 2.898437 6 4.121094 14.648438-8.476563 24.507812-24.300781 24.507812-42.441407 0-18.136718-9.859374-33.964843-24.507812-42.441406zm0 0" fill="#dea42e"/><path d="m218.59375 220.511719c-.691406 0-1.382812-.183594-2.003906-.539063-16.347656-9.460937-26.503906-27.046875-26.503906-45.902344 0-18.855468 10.15625-36.441406 26.503906-45.902343 1.242187-.714844 2.765625-.714844 4.007812 0 16.347656 9.460937 26.503906 27.046875 26.503906 45.902343 0 18.851563-10.15625 36.441407-26.503906 45.902344-.621094.359375-1.3125.539063-2.003906.539063zm0-84.1875c-12.707031 8.273437-20.507812 22.527343-20.507812 37.746093 0 15.222657 7.800781 29.476563 20.507812 37.75 12.707031-8.273437 20.507812-22.523437 20.507812-37.75 0-15.222656-7.800781-29.476562-20.507812-37.746093zm0 0" fill="#690589"/></svg>