<svg height="504pt" viewBox="0 -27 504.00115 504" width="504pt" xmlns="http://www.w3.org/2000/svg"><path d="m299.125 224.054688-13.921875-13.921876c-4.28125-4.277343-11.21875-4.277343-15.503906 0l-43.898438 43.902344v-239.074218c0-6.054688-4.910156-10.960938-10.960937-10.960938h-98.761719c-6.054687 0-10.960937 4.910156-10.960937 10.960938v108.601562l-73.835938-46.441406c-5.121094-3.21875-11.886719-1.679688-15.113281 3.445312l-10.480469 16.664063c-3.222656 5.121093-1.683594 11.890625 3.441406 15.113281l95.984375 60.371094v261.910156c0 6.054688 4.910157 10.960938 10.960938 10.960938h98.761719c6.054687 0 10.960937-4.90625 10.960937-10.960938v-121.75l73.324219-73.324219c4.28125-4.277343 4.28125-11.214843.003906-15.496093zm0 0" fill="#fcc24c"/><path d="m214.839844 4h-21.921875c6.054687 0 10.960937 4.910156 10.960937 10.960938v419.667968c0 6.054688-4.910156 10.960938-10.960937 10.960938h21.921875c6.054687 0 10.960937-15.785156 10.960937-21.839844v-408.789062c0-6.054688-4.910156-10.960938-10.960937-10.960938zm0 0" fill="#dea42e"/><path d="m116.078125 445.589844h21.921875c-6.054688 0-10.960938-4.910156-10.960938-10.960938v-419.667968c0-6.054688 4.90625-10.960938 10.960938-10.960938h-21.921875c-6.054687 0-10.960937 4.910156-10.960937 10.960938v419.667968c-.003907 6.050782 4.90625 10.960938 10.960937 10.960938zm0 0" fill="#fce06a"/><path d="m379.320312 14.960938v108.601562l-73.835937-46.441406c-5.125-3.21875-11.890625-1.679688-15.113281 3.445312l-10.480469 16.664063c-3.222656 5.121093-1.683594 11.890625 3.441406 15.113281l25.664063 16.140625-28.667969 41.078125c-3.464844 4.960938-2.25 11.792969 2.714844 15.261719l3.726562 2.601562c4.964844 3.460938 11.796875 2.25 15.261719-2.714843l29.398438-42.117188 47.890624 30.121094v261.914062c0 6.054688 4.910157 10.960938 10.960938 10.960938h98.761719c6.054687 0 10.960937-4.910156 10.960937-10.960938v-419.667968c0-6.054688-4.910156-10.960938-10.960937-10.960938h-98.761719c-6.054688 0-10.960938 4.90625-10.960938 10.960938zm0 0" fill="#7bac51"/><path d="m489.042969 4h-21.921875c6.054687 0 10.960937 4.910156 10.960937 10.960938v419.667968c0 6.054688-4.910156 10.960938-10.960937 10.960938h21.921875c6.054687 0 10.960937-4.910156 10.960937-10.960938v-419.667968c0-6.054688-4.910156-10.960938-10.960937-10.960938zm0 0" fill="#5d8e33"/><path d="m390.28125 4h21.921875c-6.054687 0-10.960937 4.910156-10.960937 10.960938v419.667968c0 6.054688 4.910156 10.960938 10.960937 10.960938h-21.921875c-6.054688 0-10.960938-4.910156-10.960938-10.960938v-419.667968c0-6.054688 4.90625-10.960938 10.960938-10.960938zm0 0" fill="#99ca6f"/><g fill="#690589"><path d="m214.835938 449.589844h-98.757813c-8.25 0-14.960937-6.710938-14.960937-14.960938v-259.703125l-94.117188-59.195312c-3.378906-2.128907-5.734375-5.445313-6.621094-9.34375-.886718-3.894531-.203125-7.902344 1.925782-11.285157l10.476562-16.667968c2.128906-3.382813 5.445312-5.734375 9.34375-6.621094 3.894531-.886719 7.902344-.207031 11.285156 1.921875l67.703125 42.585937v-101.359374c0-8.25 6.714844-14.960938 14.960938-14.960938h98.761719c8.25 0 14.960937 6.710938 14.960937 14.960938v229.414062l37.074219-37.070312c2.824218-2.824219 6.582031-4.382813 10.578125-4.382813 3.996093 0 7.753906 1.558594 10.582031 4.382813l13.917969 13.917968c5.832031 5.835938 5.832031 15.328125 0 21.160156l-72.148438 72.152344v120.089844c0 8.253906-6.714843 14.964844-14.964843 14.964844zm-189.375-370.152344c-.519532 0-1.042969.058594-1.558594.175781-1.8125.414063-3.355469 1.507813-4.34375 3.082031l-10.484375 16.667969c-.988281 1.574219-1.308594 3.4375-.894531 5.25.414062 1.8125 1.507812 3.355469 3.082031 4.347657l95.984375 60.371093c1.164062.734375 1.871094 2.011719 1.871094 3.386719v261.914062c0 3.835938 3.125 6.960938 6.960937 6.960938h98.761719c3.835937 0 6.960937-3.125 6.960937-6.960938v-121.75c0-1.058593.421875-2.078124 1.171875-2.828124l73.324219-73.324219c2.710937-2.714844 2.710937-7.128907 0-9.84375l-13.921875-13.921875c-2.632812-2.628906-7.214844-2.625-9.84375 0l-43.902344 43.902344c-1.144531 1.144531-2.871094 1.488281-4.359375.871093-1.496093-.621093-2.46875-2.078125-2.46875-3.699219v-239.078124c0-3.839844-3.125-6.960938-6.960937-6.960938h-98.761719c-3.839844 0-6.960937 3.125-6.960937 6.960938v108.601562c0 1.453125-.792969 2.792969-2.066407 3.5-1.277343.703125-2.832031.660156-4.0625-.117188l-73.835937-46.4375c-1.125-.707031-2.398438-1.070312-3.691406-1.070312zm0 0"/><path d="m122.652344 69.761719c-2.207032 0-4-1.792969-4-4v-24c0-2.207031 1.792968-4 4-4 2.207031 0 4 1.792969 4 4v24c0 2.207031-1.792969 4-4 4zm0 0"/><path d="m489.042969 449.589844h-98.761719c-8.25 0-14.960938-6.710938-14.960938-14.960938v-259.703125l-42.792968-26.917969-27.210938 38.992188c-4.722656 6.765625-14.066406 8.429688-20.832031 3.707031l-3.730469-2.601562c-6.765625-4.722657-8.425781-14.070313-3.703125-20.832031l26.269531-37.636719-22.117187-13.90625c-3.382813-2.128907-5.734375-5.445313-6.621094-9.34375-.890625-3.894531-.207031-7.902344 1.921875-11.285157l10.480469-16.667968c4.394531-6.980469 13.652344-9.085938 20.628906-4.695313l67.707031 42.582031v-101.359374c0-8.25 6.707032-14.960938 14.957032-14.960938h98.765625c8.25 0 14.957031 6.710938 14.957031 14.960938v419.664062c.003906 8.253906-6.707031 14.964844-14.957031 14.964844zm-157.609375-310.996094c.730468 0 1.464844.199219 2.125.613281l47.890625 30.125c1.164062.730469 1.871093 2.007813 1.871093 3.382813v261.914062c0 3.839844 3.121094 6.960938 6.957032 6.960938h98.765625c3.835937 0 6.957031-3.121094 6.957031-6.960938v-419.667968c0-3.839844-3.121094-6.960938-6.957031-6.960938h-98.765625c-3.835938 0-6.957032 3.125-6.957032 6.960938v108.601562c0 1.453125-.792968 2.792969-2.066406 3.5-1.277344.703125-2.832031.660156-4.066406-.117188l-73.832031-46.4375c-3.246094-2.042968-7.554688-1.0625-9.597657 2.183594l-10.484374 16.667969c-2.039063 3.25-1.058594 7.554687 2.1875 9.597656l25.667968 16.140625c.925782.582032 1.570313 1.519532 1.789063 2.589844.21875 1.074219-.015625 2.1875-.640625 3.085938l-28.671875 41.078124c-2.195313 3.148438-1.421875 7.496094 1.726562 9.691407l3.730469 2.601562c1.523438 1.0625 3.371094 1.46875 5.203125 1.144531 1.832031-.324218 3.421875-1.34375 4.488281-2.867187l29.394532-42.121094c.777343-1.105469 2.019531-1.707031 3.285156-1.707031zm0 0"/><path d="m379.320312 176.714844c-2.210937 0-4-1.792969-4-4v-49.152344c0-2.210938 1.789063-4 4-4 2.207032 0 4 1.789062 4 4v49.152344c0 2.210937-1.792968 4-4 4zm0 0"/><path d="m331.425781 146.59375c-.730469 0-1.464843-.199219-2.125-.613281l-22.429687-14.109375c-1.871094-1.175782-2.433594-3.648438-1.257813-5.515625 1.175781-1.871094 3.644531-2.433594 5.515625-1.257813l22.429688 14.109375c1.871094 1.175781 2.433594 3.644531 1.257812 5.515625-.761718 1.210938-2.0625 1.871094-3.390625 1.871094zm0 0"/><path d="m225.800781 316.878906c-2.210937 0-4-1.792968-4-4v-58.84375c0-2.207031 1.789063-4 4-4 2.207031 0 4 1.792969 4 4v58.84375c0 2.207032-1.792969 4-4 4zm0 0"/><path d="m105.113281 176.714844c-2.207031 0-4-1.792969-4-4v-49.152344c0-2.210938 1.792969-4 4-4 2.210938 0 4 1.789062 4 4v49.152344c0 2.210937-1.789062 4-4 4zm0 0"/></g></svg>