<svg height="504pt" viewBox="0 -105 504.00209 504" width="504pt" xmlns="http://www.w3.org/2000/svg"><path d="m500 147.15625c0-79.0625-111.03125-143.15625-248-143.15625-136.964844 0-248 64.09375-248 143.15625s111.035156 143.15625 248 143.15625c136.96875 0 248-64.09375 248-143.15625zm0 0" fill="#f4efed"/><path d="m252 4c-3.417969 0-6.824219.066406-10.214844.183594 76.199219 2.5625 144.855469 34.878906 194.691406 85.726562 31.105469 31.734375 31.105469 82.757813 0 114.492188-49.835937 50.847656-118.492187 83.167968-194.691406 85.726562 3.390625.121094 6.796875.183594 10.214844.183594 105.976562 0 198.496094-57.578125 248-143.15625-49.503906-85.578125-142.023438-143.15625-248-143.15625zm0 0" fill="#d6d1cf"/><path d="m252 4c3.421875 0 6.828125.066406 10.21875.183594-76.199219 2.5625-144.855469 34.878906-194.691406 85.726562-31.105469 31.734375-31.105469 82.757813 0 114.492188 49.835937 50.847656 118.492187 83.167968 194.691406 85.726562-3.390625.121094-6.796875.183594-10.21875.183594-105.972656 0-198.492188-57.578125-248-143.15625 49.507812-85.578125 142.027344-143.15625 248-143.15625zm0 0" fill="#fff"/><path d="m395.15625 147.15625c0 79.0625-64.089844 143.15625-143.15625 143.15625-79.0625 0-143.15625-64.09375-143.15625-143.15625s64.09375-143.15625 143.15625-143.15625c79.066406 0 143.15625 64.09375 143.15625 143.15625zm0 0" fill="#ff4397"/><path d="m252 4c-3.363281 0-6.691406.160156-10 .386719 74.394531 5.136719 133.15625 67.074219 133.15625 142.769531 0 75.699219-58.761719 137.628906-133.15625 142.769531 3.308594.230469 6.636719.386719 10 .386719 79.0625 0 143.15625-64.09375 143.15625-143.15625s-64.09375-143.15625-143.15625-143.15625zm0 0" fill="#e12579"/><path d="m252 290.3125c3.367188 0 6.695312-.15625 10-.386719-74.390625-5.140625-133.15625-67.070312-133.15625-142.769531 0-75.695312 58.765625-137.628906 133.15625-142.769531-3.304688-.226563-6.632812-.386719-10-.386719-79.058594 0-143.15625 64.09375-143.15625 143.15625s64.097656 143.15625 143.15625 143.15625zm0 0" fill="#ff61b5"/><path d="m252 294.3125c-103.308594 0-199.664062-55.621094-251.460938-145.152344-.71875-1.238281-.71875-2.765625 0-4.007812 51.796876-89.535156 148.152344-145.152344 251.460938-145.152344 103.3125 0 199.667969 55.621094 251.464844 145.152344.714844 1.242187.714844 2.769531 0 4.007812-51.796875 89.535156-148.152344 145.152344-251.464844 145.152344zm-243.367188-147.15625c50.644532 85.898438 143.675782 139.15625 243.367188 139.15625 99.695312 0 192.726562-53.257812 243.371094-139.15625-50.644532-85.894531-143.675782-139.15625-243.371094-139.15625-99.691406 0-192.722656 53.261719-243.367188 139.15625zm0 0" fill="#690589"/><path d="m252 294.3125c-81.140625 0-147.15625-66.011719-147.15625-147.15625 0-81.140625 66.015625-147.15625 147.15625-147.15625 81.144531 0 147.15625 66.015625 147.15625 147.15625 0 81.144531-66.011719 147.15625-147.15625 147.15625zm0-286.3125c-76.730469 0-139.15625 62.425781-139.15625 139.15625s62.425781 139.15625 139.15625 139.15625c76.734375 0 139.15625-62.425781 139.15625-139.15625s-62.421875-139.15625-139.15625-139.15625zm0 0" fill="#690589"/><path d="m152.207031 73.484375c-.832031 0-1.667969-.257813-2.386719-.792969-1.769531-1.316406-2.136718-3.824218-.816406-5.59375 6.792969-9.121094 14.257813-17.867187 22.195313-25.992187 1.542969-1.582031 4.078125-1.609375 5.65625-.066407 1.582031 1.542969 1.609375 4.074219.066406 5.65625-7.6875 7.871094-14.921875 16.34375-21.503906 25.179688-.785157 1.054688-1.992188 1.609375-3.210938 1.609375zm0 0" fill="#690589"/><path d="m252 257.414062c-2.207031 0-4-1.792968-4-4v-42.042968c0-2.207032 1.792969-4 4-4 2.210938 0 4 1.792968 4 4v42.042968c0 2.207032-1.789062 4-4 4zm0 0" fill="#690589"/><path d="m312.421875 217.601562c24.820313-3.828124 45.539063-13.277343 55.738281-24.140624-13-7.289063-35.597656-10.058594-60.421875-6.230469-2.675781.410156-5.292969.902343-7.867187 1.441406 6.019531-4.621094 12.019531-9.859375 17.835937-15.675781 22.261719-22.261719 36.203125-47.167969 38.46875-65.710938-18.542969 2.265625-43.445312 16.207032-65.707031 38.46875-7.65625 7.65625-14.304688 15.628906-19.855469 23.546875 3.792969-15.386719 5.949219-33.023437 5.949219-51.777343 0-40.144532-9.882812-75.175782-24.5625-93.933594-14.679688 18.757812-24.558594 53.789062-24.558594 93.933594 0 18.753906 2.15625 36.390624 5.949219 51.777343-5.550781-7.917969-12.195313-15.886719-19.855469-23.546875-22.261718-22.261718-47.164062-36.203125-65.707031-38.46875 2.261719 18.542969 16.207031 43.449219 38.464844 65.710938 5.820312 5.820312 11.820312 11.054687 17.839843 15.675781-2.574218-.539063-5.191406-1.027344-7.871093-1.441406-24.820313-3.828125-47.421875-1.058594-60.421875 6.230469 10.203125 10.863281 30.914062 20.3125 55.738281 24.140624 11.34375 1.75 22.210937 2.109376 31.921875 1.300782-2.441406 1.457031-4.886719 3.078125-7.3125 4.855468-12.847656 9.414063-21.738281 20.789063-24.296875 29.882813 9.441406.296875 22.96875-4.753906 35.8125-14.167969 11.855469-8.6875 20.328125-19.039062 23.578125-27.734375.191406-.101562.398438-.195312.585938-.300781.042968.003906.089843.015625.132812.023438.042969-.007813.089844-.019532.132812-.023438.1875.105469.394532.199219.585938.300781 3.25 8.695313 11.722656 19.046875 23.578125 27.734375 12.84375 9.414063 26.367187 14.464844 35.8125 14.167969-2.558594-9.097656-11.449219-20.472656-24.296875-29.882813-2.421875-1.777343-4.871094-3.398437-7.316406-4.855468 9.714844.808594 20.582031.449218 31.925781-1.300782zm0 0" fill="#7bac51"/><g fill="#690589"><path d="m311.296875 257.652344c-10.644531 0-24.515625-5.539063-37.363281-14.953125-9.46875-6.9375-17.277344-15.285157-21.933594-23.269531-4.65625 7.984374-12.460938 16.332031-21.929688 23.269531-13.230468 9.695312-27.535156 15.28125-38.304687 14.9375-1.230469-.039063-2.371094-.640625-3.101563-1.632813-.726562-.992187-.957031-2.265625-.621093-3.449218 2.644531-9.398438 10.824219-20.125 22.195312-29.273438-6.28125-.140625-12.726562-.714844-19.265625-1.726562-25.070312-3.867188-46.769531-13.34375-58.046875-25.359376-.839843-.894531-1.222656-2.128906-1.035156-3.347656.1875-1.214844.921875-2.277344 1.996094-2.875 13.128906-7.363281 33.910156-10.085937 56.511719-7.558594-2.359376-2.132812-4.671876-4.332031-6.933594-6.589843-22.324219-22.328125-37.132813-47.765625-39.609375-68.050781-.148438-1.21875.273437-2.445313 1.140625-3.3125.871094-.871094 2.085937-1.292969 3.3125-1.140626 20.285156 2.472657 45.726562 17.28125 68.050781 39.609376 3.429687 3.425781 6.703125 6.960937 9.804687 10.578124-1.796874-11.53125-2.726562-23.714843-2.726562-35.980468 0-40.027344 9.5-76.066406 25.410156-96.398438 1.519532-1.941406 4.785156-1.941406 6.300782 0 15.910156 20.332032 25.410156 56.371094 25.410156 96.398438 0 12.265625-.929688 24.453125-2.726563 35.980468 3.101563-3.617187 6.375-7.152343 9.804688-10.578124 22.328125-22.328126 47.765625-37.132813 68.050781-39.609376 1.21875-.152343 2.441406.269532 3.308594 1.140626.871094.871093 1.292968 2.09375 1.144531 3.3125-2.476563 20.285156-17.285156 45.722656-39.609375 68.050781-2.257812 2.257812-4.574219 4.457031-6.933594 6.589843 22.601563-2.527343 43.382813.195313 56.511719 7.558594 1.070313.601563 1.808594 1.660156 1.996094 2.875s-.195313 2.453125-1.039063 3.347656c-11.273437 12.015626-32.972656 21.492188-58.042968 25.359376-6.542969 1.011718-12.984376 1.585937-19.269532 1.726562 11.375 9.148438 19.550782 19.875 22.199219 29.273438.335937 1.183593.105469 2.457031-.625 3.449218-.726563.992188-1.867187 1.59375-3.097656 1.632813-.304688.011719-.617188.015625-.933594.015625zm-87.792969-42.75c1.726563 0 3.273438 1.109375 3.808594 2.777344.570312 1.769531-.160156 3.703124-1.757812 4.65625-2.375 1.417968-4.730469 2.984374-7 4.648437-9.226563 6.757813-16.625 14.828125-20.503907 22.144531 8.144531-1.496094 18.066407-6.121094 27.289063-12.878906 10.789062-7.90625 19.085937-17.59375 22.195312-25.910156.34375-.914063 1.007813-1.671875 1.871094-2.128906l.527344-.273438c.730468-.402344 1.566406-.558594 2.402344-.46875.609374.039062 1.226562.191406 1.734374.46875l.523438.273438c.867188.457031 1.53125 1.214843 1.875 2.128906 3.109375 8.316406 11.40625 18.003906 22.191406 25.910156 9.226563 6.757812 19.148438 11.382812 27.292969 12.878906-3.878906-7.316406-11.28125-15.386718-20.503906-22.144531-2.269531-1.664063-4.625-3.230469-7-4.648437-1.601563-.957032-2.328125-2.886719-1.757813-4.65625.570313-1.773438 2.289063-2.917969 4.140625-2.765626 9.6875.804688 20.398438.367188 30.980469-1.265624 20.179688-3.113282 38.40625-10.25 49.292969-19.101563-13.050781-5.160156-32.578125-6.472656-52.757813-3.367187-2.4375.378906-4.941406.835937-7.65625 1.402343-1.824218.394531-3.675781-.546875-4.457031-2.242187-.777344-1.695313-.28125-3.707032 1.199219-4.84375 6.046875-4.640625 11.914062-9.800782 17.449218-15.332032 18.792969-18.792968 32.285157-40.4375 36.351563-57.9375-17.496094 4.066407-39.140625 17.558594-57.9375 36.355469-7.261719 7.261719-13.792969 15.003907-19.410156 23.011719-1.105469 1.574219-3.175781 2.144531-4.929688 1.34375-1.75-.792969-2.6875-2.726562-2.226562-4.597656 3.816406-15.476563 5.835937-33.046875 5.835937-50.816406 0-34.941407-7.792968-67.585938-20.5625-87.0625-12.769531 19.476562-20.5625 52.121093-20.5625 87.0625 0 17.769531 2.019532 35.339843 5.835938 50.816406.460937 1.871094-.476563 3.800781-2.226563 4.597656-1.753906.800781-3.828125.230469-4.929687-1.34375-5.621094-8.007812-12.148438-15.75-19.410156-23.011719-18.796876-18.796875-40.441407-32.289062-57.9375-36.355469 4.066406 17.5 17.558593 39.140626 36.351562 57.9375 5.53125 5.53125 11.402344 10.691407 17.449219 15.332032 1.480469 1.136718 1.976562 3.148437 1.199219 4.84375-.78125 1.695312-2.625 2.640625-4.457032 2.242187-2.714844-.566406-5.222656-1.027343-7.660156-1.402343-20.175781-3.109376-39.707031-1.792969-52.757812 3.367187 10.890624 8.851563 29.113281 15.988281 49.292968 19.101563 10.585938 1.632812 21.296875 2.070312 30.980469 1.265624.113281-.007812.222656-.011718.332031-.011718zm0 0"/><path d="m439.292969 197.039062c-1.238281 0-2.460938-.574218-3.242188-1.65625-1.296875-1.789062-.894531-4.292968.898438-5.585937l13.238281-9.570313 7.972656-19.65625c.414063-1.015624 1.226563-1.820312 2.25-2.21875l27.238282-10.65625-23.863282-7.011718-19.035156 5.03125c-1.011719.265625-2.082031.125-2.988281-.382813l-19.996094-11.277343c-1.925781-1.085938-2.605469-3.527344-1.519531-5.453126 1.085937-1.921874 3.527344-2.597656 5.449218-1.519531l18.582032 10.480469 18.542968-4.898438c.707032-.183593 1.449219-.175781 2.148438.027344l36.160156 10.628906c1.640625.480469 2.792969 1.953126 2.867188 3.664063.074218 1.707031-.945313 3.273437-2.539063 3.898437l-36.53125 14.289063-7.761719 19.125c-.28125.695313-.753906 1.296875-1.363281 1.738281l-14.167969 10.246094c-.707031.511719-1.527343.757812-2.339843.757812zm0 0"/><path d="m463.84375 140.53125c-1.46875 0-2.886719-.8125-3.585938-2.222656l-9.5625-19.265625-18.324218-10.238281c-.480469-.273438-.902344-.636719-1.238282-1.078126l-8.589843-11.355468c-1.335938-1.761719-.988281-4.269532.773437-5.605469 1.761719-1.332031 4.273438-.984375 5.605469.777344l8.085937 10.6875 18.671876 10.429687c.703124.394532 1.273437.992188 1.632812 1.714844l10.113281 20.378906c.980469 1.976563.171875 4.378906-1.804687 5.359375-.570313.285157-1.175782.417969-1.777344.417969zm0 0"/><path d="m461.871094 166.074219c-.175782 0-.351563-.011719-.53125-.035157l-17.082032-2.273437c-2.1875-.289063-3.726562-2.300781-3.4375-4.492187.292969-2.1875 2.304688-3.707032 4.492188-3.4375l17.082031 2.273437c2.1875.292969 3.726563 2.300781 3.4375 4.492187-.269531 2.011719-1.988281 3.472657-3.960937 3.472657zm0 0"/><path d="m4.003906 151.160156c-1.550781 0-3.027344-.910156-3.679687-2.425781-.871094-2.03125.070312-4.382813 2.097656-5.253906l37.332031-16.027344 13.253906-25.421875c.117188-.214844.25-.425781.402344-.621094l10.96875-13.972656c1.363282-1.734375 3.878906-2.039062 5.617188-.675781 1.738281 1.367187 2.042968 3.878906.675781 5.621093l-10.742187 13.679688-13.742188 26.355469c-.429688.816406-1.125 1.460937-1.96875 1.824219l-38.640625 16.589843c-.511719.222657-1.046875.328125-1.574219.328125zm0 0"/><path d="m80.046875 119.242188h-12.519531c-1.085938 0-2.125-.441407-2.878906-1.21875l-10.96875-11.359376c-1.535157-1.589843-1.492188-4.121093.097656-5.65625 1.585937-1.535156 4.121094-1.492187 5.65625.097657l9.792968 10.136719h10.820313c2.207031 0 4 1.792968 4 4 0 2.207031-1.792969 4-4 4zm0 0"/><path d="m46.472656 170.394531c-.316406 0-.632812-.039062-.941406-.113281l-36.109375-8.765625c-2.144531-.523437-3.464844-2.683594-2.941406-4.832031.519531-2.144532 2.691406-3.46875 4.828125-2.941406l34.703125 8.425781 16.617187-8.132813c.714844-.351562 1.515625-.476562 2.308594-.371094l15.660156 2.175782c2.191406.304687 3.714844 2.324218 3.414063 4.515625-.300781 2.191406-2.324219 3.714843-4.511719 3.410156l-14.449219-2.007813-16.8125 8.230469c-.558593.269531-1.160156.40625-1.765625.40625zm0 0"/><path d="m73.894531 190.351562h-11.746093c-1.230469 0-2.390626-.566406-3.148438-1.53125l-15.671875-19.957031c-1.363281-1.734375-1.0625-4.25.671875-5.617187 1.738281-1.359375 4.253906-1.058594 5.617188.675781l14.472656 18.425781h9.800781c2.207031 0 4 1.792969 4 4 0 2.210938-1.789063 4.003906-3.996094 4.003906zm0 0"/><path d="m67.523438 208.40625c-1.722657 0-3.3125-1.125-3.832032-2.859375l-5.378906-18.054687c-.628906-2.117188.574219-4.34375 2.691406-4.976563 2.109375-.632813 4.34375.574219 4.976563 2.695313l5.378906 18.050781c.628906 2.117187-.574219 4.34375-2.691406 4.976562-.378907.113281-.765625.167969-1.144531.167969zm0 0"/></g></svg>