<svg height="503pt" viewBox="-17 0 503 503.9195" width="503pt" xmlns="http://www.w3.org/2000/svg"><path d="m455.085938 14.429688h-147.277344c-5.21875 0-9.445313 4.226562-9.445313 9.445312v127.878906c0 5.21875 4.226563 9.449219 9.445313 9.449219h59.109375c8.21875 22.433594-14.191407 35.691406-14.191407 35.691406 32.726563 0 38.726563-25.324219 39.816407-35.691406h62.542969c5.214843 0 9.445312-4.230469 9.445312-9.449219v-127.878906c0-5.21875-4.230469-9.445312-9.445312-9.445312zm0 0" fill="#f4efed"/><path d="m464.53125 151.753906v-127.878906c0-5.214844-4.226562-9.445312-9.445312-9.445312h-11.335938c5.21875 0 9.449219 4.226562 9.449219 9.445312v127.878906c0 5.21875-4.230469 9.449219-9.449219 9.449219h11.335938c5.214843 0 9.445312-4.230469 9.445312-9.449219zm0 0" fill="#d6d1cf"/><path d="m298.363281 23.875v127.878906c0 5.214844 4.226563 9.445313 9.445313 9.445313h11.332031c-5.214844 0-9.445313-4.226563-9.445313-9.445313v-127.878906c0-5.21875 4.226563-9.449219 9.445313-9.449219h-11.332031c-5.21875.003907-9.445313 4.230469-9.445313 9.449219zm0 0" fill="#fff"/><path d="m352.726562 200.894531c-1.800781 0-3.378906-1.207031-3.855468-2.945312-.476563-1.738281.269531-3.582031 1.820312-4.5.75-.449219 17.707032-10.851563 13.285156-28.25h-56.167968c-7.414063 0-13.445313-6.03125-13.445313-13.445313v-127.878906c0-7.414062 6.03125-13.449219 13.445313-13.449219h147.277344c7.414062 0 13.445312 6.035157 13.445312 13.449219v127.878906c0 7.414063-6.03125 13.445313-13.445312 13.445313h-59.078126c-2.078124 11.683593-10.375 35.695312-43.28125 35.695312zm-44.917968-182.464843c-3.003906 0-5.445313 2.445312-5.445313 5.445312v127.878906c0 3.003906 2.441407 5.449219 5.445313 5.449219h59.109375c1.679687 0 3.179687 1.046875 3.753906 2.621094 4.800781 13.105469.371094 24.066406-5.722656 31.570312 17.972656-4.886719 22.566406-20.585937 23.613281-30.609375.214844-2.039062 1.933594-3.582031 3.980469-3.582031h62.542969c3 0 5.445312-2.445313 5.445312-5.449219v-127.878906c0-3-2.445312-5.445312-5.445312-5.445312zm0 0" fill="#690589"/><path d="m189.511719 47.644531h-14.390625c-59.074219 0-106.960938 47.890625-106.960938 106.964844v37.535156h211.300782v-54.550781c0-49.675781-40.269532-89.949219-89.949219-89.949219zm0 0" fill="#fcc24c"/><path d="m189.511719 47.644531h-14.390625c-.621094 0-1.230469.035157-1.847656.046875 48.824218.988282 88.101562 40.847656 88.101562 89.902344v54.550781h18.085938v-54.550781c0-49.675781-40.269532-89.949219-89.949219-89.949219zm0 0" fill="#dea42e"/><path d="m279.460938 196.144531h-211.300782c-2.207031 0-4-1.792969-4-4v-37.539062c0-61.183594 49.777344-110.960938 110.960938-110.960938h14.386718c51.804688 0 93.953126 42.144531 93.953126 93.949219v54.550781c0 2.210938-1.789063 4-4 4zm-207.300782-8h203.300782v-50.550781c0-47.390625-38.554688-85.949219-85.953126-85.949219h-14.386718c-56.773438 0-102.960938 46.1875-102.960938 102.960938zm0 0" fill="#690589"/><path d="m83.367188 165.207031h-6.359376c-16.429687 0-29.75 13.320313-29.75 29.75 0 16.429688 13.320313 29.75 29.75 29.75h6.359376zm0 0" fill="#ffbd8e"/><path d="m267.765625 165.207031h-6.355469v59.5h6.355469c16.429687 0 29.75-13.320312 29.75-29.75 0-16.429687-13.320313-29.75-29.75-29.75zm0 0" fill="#e18152"/><path d="m288.101562 340.730469h-74.65625c.042969-.765625.117188-1.527344.117188-2.304688v-75.125h-82.351562v75.125c0 .777344.074218 1.539063.117187 2.304688h-74.65625c-28.835937 0-52.210937 23.378906-52.210937 52.214843v106.972657h335.851562v-106.972657c0-28.835937-23.375-52.214843-52.210938-52.214843zm0 0" fill="#f4efed"/><path d="m131.328125 340.730469 41.058594 28.367187 41.058593-28.367187.117188-77.429688h-82.351562zm0 0" fill="#e18152"/><path d="m288.101562 340.730469h-18.316406c28.835938 0 52.210938 23.378906 52.210938 52.214843v106.972657h18.316406v-106.972657c0-28.835937-23.375-52.214843-52.210938-52.214843zm0 0" fill="#d6d1cf"/><path d="m56.671875 340.730469h18.316406c-28.835937 0-52.210937 23.378906-52.210937 52.214843v106.972657h-18.316406v-106.972657c0-28.835937 23.375-52.214843 52.210937-52.214843zm0 0" fill="#fff"/><g fill="#690589"><path d="m340.3125 503.917969h-335.851562c-2.210938 0-4-1.789063-4-4v-106.972657c0-30.996093 25.214843-56.210937 56.210937-56.210937h70.539063v-73.433594c0-2.210937 1.792968-4 4-4h82.351562c2.207031 0 4 1.789063 4 4v73.433594h70.542969c30.992187 0 56.207031 25.214844 56.207031 56.210937v106.972657c0 2.210937-1.789062 4-4 4zm-331.851562-8h327.851562v-102.972657c0-26.585937-21.625-48.210937-48.207031-48.210937h-74.660157c-1.097656 0-2.148437-.453125-2.90625-1.253906-.753906-.796875-1.148437-1.871094-1.085937-2.96875l.042969-.730469c.035156-.449219.066406-.894531.066406-1.355469v-71.125h-74.351562v71.125c0 .460938.035156.90625.066406 1.355469l.042968.730469c.0625 1.097656-.332031 2.171875-1.085937 2.96875-.757813.800781-1.804687 1.253906-2.90625 1.253906h-74.65625c-26.582031 0-48.210937 21.625-48.210937 48.210937zm0 0"/><path d="m19.113281 419.933594c-2.207031 0-4-1.792969-4-4v-24c0-2.207032 1.792969-4 4-4s4 1.792968 4 4v24c0 2.207031-1.792969 4-4 4zm0 0"/><path d="m172.386719 373.097656c-.796875 0-1.589844-.234375-2.273438-.707031l-41.058593-28.367187c-1.078126-.746094-1.722657-1.972657-1.726563-3.285157l-.117187-77.433593c0-1.0625.421874-2.082032 1.171874-2.832032.75-.753906 1.765626-1.175781 2.828126-1.175781h82.351562c1.0625 0 2.078125.421875 2.828125 1.175781.75.75 1.171875 1.769532 1.171875 2.832032l-.117188 77.433593c-.003906 1.3125-.648437 2.539063-1.726562 3.285157l-41.058594 28.367187c-.683594.472656-1.476562.707031-2.273437.707031zm-37.0625-34.464844 37.0625 25.601563 37.0625-25.601563.105469-71.335937h-74.335938zm0 0"/></g><path d="m172.386719 316.433594c-49.164063 0-89.019531-40.371094-89.019531-90.175782v-62.429687c0-49.804687 39.855468-90.179687 89.019531-90.179687 49.167969 0 89.023437 40.375 89.023437 90.179687v62.429687c0 49.804688-39.855468 90.175782-89.023437 90.175782zm0 0" fill="#ff9f70"/><path d="m172.386719 73.652344c-3.421875 0-6.792969.214844-10.113281.59375 44.398437 5.089844 78.90625 43.246094 78.90625 89.582031v62.429687c0 46.335938-34.507813 84.492188-78.90625 89.582032 3.320312.382812 6.691406.597656 10.113281.597656 49.167969 0 89.023437-40.375 89.023437-90.179688v-62.429687c0-49.804687-39.855468-90.175781-89.023437-90.175781zm0 0" fill="#e18152"/><path d="m172.386719 73.652344c3.421875 0 6.796875.214844 10.117187.59375-44.398437 5.089844-78.90625 43.246094-78.90625 89.582031v62.429687c0 46.335938 34.507813 84.492188 78.90625 89.582032-3.320312.382812-6.695312.597656-10.117187.597656-49.164063 0-89.019531-40.375-89.019531-90.179688v-62.429687c0-49.804687 39.855468-90.175781 89.019531-90.175781zm0 0" fill="#ffbd8e"/><path d="m172.386719 320.4375c-51.292969 0-93.023438-42.246094-93.023438-94.179688v-62.429687c0-51.929687 41.726563-94.179687 93.023438-94.179687 51.292969 0 93.023437 42.25 93.023437 94.179687v62.429687c0 51.933594-41.730468 94.179688-93.023437 94.179688zm0-242.789062c-46.882813 0-85.023438 38.660156-85.023438 86.179687v62.429687c0 47.523438 38.140625 86.179688 85.023438 86.179688 46.882812 0 85.023437-38.65625 85.023437-86.179688v-62.429687c0-47.519531-38.140625-86.179687-85.023437-86.179687zm0 0" fill="#690589"/><path d="m132.894531 414.179688c-.046875 0-.09375 0-.140625 0-1.136718-.042969-2.203125-.5625-2.933594-1.4375l-57.90625-69.445313c-.992187-1.195313-1.207031-2.855469-.546874-4.257813.65625-1.40625 2.070312-2.304687 3.621093-2.304687h56.34375c.8125 0 1.605469.246094 2.273438.707031l41.054687 28.367188c.964844.664062 1.589844 1.722656 1.710938 2.890625.117187 1.164062-.285156 2.324219-1.097656 3.171875l-39.492188 41.082031c-.757812.785156-1.800781 1.226563-2.886719 1.226563zm-49.363281-69.449219 49.574219 59.460937 33.136719-34.476562-36.160157-24.980469h-46.550781zm0 0" fill="#690589"/><path d="m211.878906 414.179688c-1.085937 0-2.128906-.441407-2.882812-1.226563l-39.492188-41.082031c-.8125-.847656-1.214844-2.003906-1.097656-3.171875s.742188-2.226563 1.707031-2.890625l41.054688-28.367188c.667969-.460937 1.460937-.707031 2.277343-.707031h56.34375c1.550782 0 2.960938.898437 3.621094 2.304687.660156 1.402344.445313 3.0625-.546875 4.257813l-57.90625 69.449219c-.730469.875-1.796875 1.394531-2.933593 1.433594-.050782 0-.09375 0-.144532 0zm-33.347656-44.464844 33.136719 34.472656 49.574219-59.457031h-46.550782zm0 0" fill="#690589"/><path d="m195.683594 393.332031-23.296875-24.234375-23.296875 24.234375 13.183594 16.847657-10.414063 43.09375 20.527344 46.644531 20.527343-46.644531-10.410156-43.09375zm0 0" fill="#7bac51"/><path d="m172.386719 503.917969c-1.585938 0-3.019531-.9375-3.660157-2.386719l-20.527343-46.644531c-.355469-.804688-.433594-1.703125-.230469-2.550781l9.960938-41.210938-11.992188-15.324219c-1.226562-1.566406-1.113281-3.800781.269531-5.234375l23.296875-24.238281c.753906-.785156 1.792969-1.226563 2.882813-1.226563 1.085937 0 2.128906.445313 2.882812 1.226563l23.292969 24.238281c1.382812 1.433594 1.496094 3.667969.269531 5.234375l-11.992187 15.324219 9.960937 41.210938c.203125.851562.121094 1.746093-.226562 2.550781l-20.527344 46.644531c-.636719 1.449219-2.074219 2.386719-3.660156 2.386719zm-16.324219-51.019531 16.324219 37.089843 16.324219-37.089843-10.097657-41.777344c-.289062-1.191406-.015625-2.445313.738281-3.40625l11.042969-14.113282-18.007812-18.734374-18.011719 18.734374 11.042969 14.113282c.753906.960937 1.027343 2.214844.738281 3.40625zm0 0" fill="#690589"/><path d="m83.367188 228.707031h-6.359376c-18.609374 0-33.746093-15.140625-33.746093-33.75 0-18.613281 15.136719-33.75 33.746093-33.75h6.359376c2.207031 0 4 1.789063 4 4v59.5c0 2.207031-1.792969 4-4 4zm-6.359376-59.5c-14.195312 0-25.746093 11.546875-25.746093 25.75 0 14.199219 11.550781 25.75 25.746093 25.75h2.359376v-51.5zm0 0" fill="#690589"/><path d="m267.765625 228.707031h-6.355469c-2.207031 0-4-1.792969-4-4v-59.5c0-2.210937 1.792969-4 4-4h6.355469c18.609375 0 33.75 15.136719 33.75 33.75 0 18.609375-15.140625 33.75-33.75 33.75zm-2.355469-8h2.355469c14.199219 0 25.75-11.550781 25.75-25.75 0-14.203125-11.550781-25.75-25.75-25.75h-2.355469zm0 0" fill="#690589"/><path d="m162.558594 31.429688c-61.277344 0-110.949219 49.675781-110.949219 110.949218v4.316406h70.425781c43.019532 0 77.894532-34.875 77.894532-77.894531 0-20.640625-16.730469-37.371093-37.371094-37.371093zm0 0" fill="#fcc24c"/><path d="m169.066406 32.035156c-2.117187-.375-4.285156-.605468-6.507812-.605468-61.273438 0-110.949219 49.675781-110.949219 110.949218v4.316406h18.089844v-4.316406c0-57.363281 43.535156-104.554687 99.367187-110.34375zm0 0" fill="#fce06a"/><path d="m122.039062 150.695312h-70.429687c-2.207031 0-4-1.792968-4-4v-4.316406c0-63.382812 51.566406-114.949218 114.949219-114.949218 22.8125 0 41.375 18.558593 41.375 41.375-.003906 45.15625-36.738282 81.890624-81.894532 81.890624zm-66.429687-8h66.429687c40.742188 0 73.890626-33.148437 73.890626-73.890624 0-18.402344-14.96875-33.375-33.371094-33.375-58.972656 0-106.949219 47.976562-106.949219 106.949218zm0 0" fill="#690589"/><path d="m418.234375 122.046875c15.113281-2.332031 27.726563-8.085937 33.933594-14.699219-7.914063-4.4375-21.671875-6.125-36.785157-3.792968-1.632812.25-3.226562.546874-4.792968.875 3.664062-2.8125 7.316406-6 10.863281-9.542969 13.550781-13.554688 22.039063-28.714844 23.417969-40.003907-11.289063 1.375-26.453125 9.863282-40.003906 23.417969-4.664063 4.664063-8.710938 9.515625-12.089844 14.335938 2.308594-9.363281 3.621094-20.101563 3.621094-31.523438 0-24.445312-6.015626-45.773437-14.953126-57.195312-8.941406 11.421875-14.957031 32.75-14.957031 57.195312 0 11.417969 1.3125 22.15625 3.625 31.523438-3.382812-4.820313-7.429687-9.671875-12.089843-14.335938-13.554688-13.554687-28.71875-22.042969-40.007813-23.417969 1.378906 11.289063 9.867187 26.449219 23.421875 40.003907 3.539062 3.542969 7.195312 6.730469 10.859375 9.542969-1.566406-.328126-3.160156-.625-4.792969-.875-15.113281-2.332032-28.871094-.644532-36.785156 3.792968 6.210938 6.613282 18.820312 12.367188 33.933594 14.699219 6.910156 1.066406 13.527344 1.28125 19.4375.789063-1.484375.886718-2.976563 1.875-4.453125 2.957031-7.820313 5.734375-13.234375 12.65625-14.792969 18.195312 5.75.179688 13.984375-2.894531 21.804688-8.625 7.21875-5.289062 12.378906-11.589843 14.355468-16.886719.117188-.0625.242188-.117187.359375-.183593.023438.003906.050781.011719.082031.015625.023438-.003906.050782-.011719.082032-.015625.113281.066406.238281.121093.355468.183593 1.980469 5.296876 7.136719 11.597657 14.355469 16.886719 7.820313 5.730469 16.054688 8.804688 21.804688 8.625-1.558594-5.539062-6.972657-12.464843-14.792969-18.195312-1.472656-1.082031-2.964844-2.066407-4.453125-2.957031 5.914063.492187 12.53125.277343 19.4375-.789063zm0 0" fill="#7bac51"/><path d="m381.449219 154.40625c-2.210938 0-4-1.792969-4-4v-28.804688c0-2.207031 1.789062-4 4-4 2.207031 0 4 1.792969 4 4v28.804688c0 2.210938-1.792969 4-4 4zm0 0" fill="#690589"/><path d="m417.5625 147.996094c-6.808594 0-15.605469-3.484375-23.6875-9.40625-5.167969-3.785156-9.460938-8.125-12.429688-12.480469-2.964843 4.355469-7.261718 8.695313-12.425781 12.480469-8.324219 6.101562-17.390625 9.621094-24.296875 9.394531-1.230468-.039063-2.371094-.640625-3.101562-1.632813-.726563-.988281-.957032-2.261718-.625-3.449218 1.449218-5.140625 5.425781-10.859375 11.019531-16.015625-2.625-.175781-5.28125-.472657-7.964844-.886719-15.597656-2.40625-29.144531-8.355469-36.246093-15.914062-.839844-.894532-1.222657-2.128907-1.035157-3.347657.1875-1.214843.921875-2.277343 1.996094-2.878906 7.371094-4.132813 18.507813-5.957031 30.8125-5.1875-.324219-.316406-.644531-.636719-.964844-.957031-13.832031-13.832032-23.015625-29.664063-24.566406-42.351563-.148437-1.21875.273437-2.445312 1.144531-3.3125.867188-.867187 2.089844-1.292969 3.308594-1.140625 12.691406 1.546875 28.523438 10.730469 42.351562 24.5625.890626.890625 1.769532 1.792969 2.625 2.707032-.652343-5.558594-.988281-11.300782-.988281-17.066407 0-24.710937 5.910157-47.015625 15.804688-59.660156 1.515625-1.9375 4.785156-1.9375 6.300781 0 9.894531 12.644531 15.804688 34.949219 15.804688 59.660156 0 5.765625-.335938 11.507813-.988282 17.066407.859375-.914063 1.730469-1.816407 2.625-2.707032 13.832032-13.835937 29.664063-23.015625 42.347656-24.5625 1.230469-.148437 2.445313.269532 3.3125 1.140625.871094.871094 1.292969 2.09375 1.140626 3.3125-1.542969 12.6875-10.726563 28.519531-24.558594 42.351563-.320313.320312-.644532.636718-.96875.957031 12.296875-.769531 23.441406 1.054687 30.8125 5.1875 1.074218.601563 1.808594 1.664063 1.996094 2.878906.1875 1.214844-.195313 2.453125-1.039063 3.347657-7.09375 7.558593-20.640625 13.507812-36.242187 15.914062-2.683594.414062-5.34375.710938-7.964844.886719 5.59375 5.15625 9.574218 10.875 11.019531 16.015625.332031 1.1875.101563 2.460937-.625 3.449218-.726563.992188-1.871094 1.597657-3.101563 1.632813-.195312.007813-.394531.011719-.601562.011719zm-53.464844-29.160156c1.722656 0 3.273438 1.113281 3.804688 2.777343.570312 1.769531-.15625 3.703125-1.753906 4.65625-1.402344.835938-2.792969 1.761719-4.140626 2.75-4.007812 2.9375-7.480468 6.359375-9.921874 9.664063 3.890624-1.332032 8.199218-3.613282 12.203124-6.546875 6.332032-4.640625 11.183594-10.269531 12.976563-15.058594.339844-.914063 1.003906-1.671875 1.863281-2.128906.03125-.019531.210938-.109375.246094-.125.734375-.417969 1.582031-.597657 2.425781-.503907.597657.042969 1.199219.210938 1.707031.5.035157.015626.226563.113282.261719.128907.859375.457031 1.519531 1.214843 1.863281 2.128906 1.789063 4.792969 6.640626 10.421875 12.972657 15.058594 4.003906 2.9375 8.3125 5.214843 12.203125 6.546875-2.441406-3.304688-5.914063-6.726563-9.921875-9.664063-1.347657-.988281-2.738281-1.914062-4.140625-2.75-1.597656-.957031-2.324219-2.886719-1.753906-4.65625.570312-1.773437 2.3125-2.925781 4.140624-2.765625 5.773438.480469 12.167969.222656 18.492188-.753906 10.683594-1.648438 20.414062-5.160156 26.941406-9.574219-7.550781-2.242187-17.882812-2.65625-28.574218-1.015625-1.554688.242188-3.085938.53125-4.582032.839844-1.828125.375-3.675781-.550781-4.453125-2.246094-.777343-1.695312-.28125-3.703125 1.199219-4.839844 3.636719-2.792968 7.15625-5.886718 10.46875-9.199218 10.34375-10.34375 17.992188-22.078125 21.023438-31.957032-9.875 3.035157-21.609376 10.683594-31.953126 21.027344-4.359374 4.359375-8.277343 9.003906-11.640624 13.800782-1.105469 1.574218-3.175782 2.148437-4.933594 1.347656-1.75-.796875-2.6875-2.730469-2.226563-4.601563 2.296875-9.304687 3.507813-19.875 3.507813-30.5625 0-19.769531-4.117188-38.261719-10.953125-50.035156-6.835938 11.773437-10.957031 30.265625-10.957031 50.035156 0 10.6875 1.210937 21.257813 3.507812 30.5625.457031 1.871094-.476562 3.804688-2.230469 4.601563-1.75.792968-3.824219.226562-4.929687-1.347656-3.367188-4.796876-7.28125-9.445313-11.640625-13.800782-10.34375-10.34375-22.074219-17.992187-31.953125-21.027344 3.035156 9.878907 10.683594 21.613282 21.023437 31.957032 3.316407 3.316406 6.839844 6.410156 10.46875 9.199218 1.480469 1.132813 1.976563 3.140626 1.203125 4.839844-.78125 1.695313-2.628906 2.625-4.453125 2.246094-1.503906-.308594-3.027343-.597656-4.589843-.839844-10.679688-1.644531-21.015626-1.226562-28.570313 1.015625 6.527344 4.414063 16.257813 7.925781 26.941406 9.574219 6.328125.976562 12.722657 1.230469 18.496094.753906.109375-.007812.222656-.011718.332031-.011718zm54.136719 3.210937h.019531zm0 0" fill="#690589"/></svg>