<svg height="504pt" viewBox="0 -70 504 504" width="504pt" xmlns="http://www.w3.org/2000/svg"><path d="m471.175781 216.554688h-254.796875l29.59375-102.492188c2.269532-7.871094 9.476563-13.289062 17.667969-13.289062h160.265625c8.195312 0 15.398438 5.417968 17.671875 13.289062zm0 0" fill="#f4efed"/><path d="m441.578125 114.0625c-2.269531-7.871094-9.476563-13.289062-17.667969-13.289062h-20c8.191406 0 15.398438 5.417968 17.667969 13.289062l29.597656 102.492188h20zm0 0" fill="#d6d1cf"/><path d="m245.972656 114.0625c2.269532-7.871094 9.476563-13.289062 17.667969-13.289062h20c-8.191406 0-15.398437 5.417968-17.667969 13.289062l-29.59375 102.492188h-20zm0 0" fill="#fff"/><path d="m291.765625 181.355469c-20.78125 0-37.628906 16.84375-37.628906 37.625v26.988281h75.253906v-26.988281c0-20.78125-16.847656-37.625-37.625-37.625zm0 0" fill="#ff4397"/><path d="m323.210938 140.867188c-4.445313-17.359376-22.121094-27.832032-39.480469-23.386719-17.359375 4.441406-27.832031 22.117187-23.386719 39.480469 4.441406 17.359374 22.117188 27.828124 39.480469 23.386718 17.359375-4.445312 27.828125-22.121094 23.386719-39.480468zm0 0" fill="#ff9f70"/><path d="m329.390625 249.96875h-75.253906c-2.207031 0-4-1.789062-4-4v-26.988281c0-22.953125 18.675781-41.625 41.628906-41.625 22.949219 0 41.625 18.671875 41.625 41.625v26.988281c0 2.210938-1.792969 4-4 4zm-71.253906-8h67.25v-22.988281c0-18.542969-15.082031-33.625-33.625-33.625s-33.625 15.082031-33.625 33.625zm0 0" fill="#690589"/><path d="m291.765625 185.355469c-20.097656 0-36.449219-16.351563-36.449219-36.449219s16.347656-36.445312 36.449219-36.445312c20.097656 0 36.445313 16.347656 36.445313 36.445312s-16.351563 36.449219-36.445313 36.449219zm0-64.894531c-15.6875 0-28.449219 12.757812-28.449219 28.445312s12.761719 28.449219 28.449219 28.449219c15.683594 0 28.445313-12.761719 28.445313-28.449219s-12.761719-28.445312-28.445313-28.445312zm0 0" fill="#690589"/><path d="m471.175781 220.554688h-254.796875c-1.257812 0-2.441406-.589844-3.195312-1.597657-.757813-1.003906-.996094-2.304687-.648438-3.511719l29.59375-102.492187c2.75-9.527344 11.597656-16.179687 21.515625-16.179687h160.265625c9.914063 0 18.761719 6.652343 21.511719 16.179687l29.59375 102.492187c.347656 1.207032.109375 2.507813-.644531 3.511719-.753906 1.003907-1.9375 1.597657-3.195313 1.597657zm-249.480469-8h244.160157l-28.121094-97.382813c-1.765625-6.121094-7.453125-10.398437-13.828125-10.398437h-160.265625c-6.371094 0-12.058594 4.277343-13.828125 10.402343zm0 0" fill="#690589"/><path d="m246.921875 220.554688c-1.914063 0-3.609375-1.378907-3.9375-3.332032-.371094-2.179687 1.09375-4.246094 3.273437-4.613281l96.847657-16.417969c2.183593-.375 4.246093 1.097656 4.613281 3.273438.371094 2.179687-1.097656 4.246094-3.273438 4.613281l-96.847656 16.417969c-.226562.039062-.453125.058594-.675781.058594zm0 0" fill="#690589"/><path d="m481.609375 313.207031h-275.664063c-10.15625 0-18.390624-8.234375-18.390624-18.394531v-59.867188c0-10.15625 8.234374-18.390624 18.390624-18.390624h275.664063c10.15625 0 18.390625 8.234374 18.390625 18.390624v59.867188c0 10.15625-8.234375 18.394531-18.390625 18.394531zm0 0" fill="#ff4397"/><path d="m4 177.804688h166.515625v182.328124h-166.515625zm0 0" fill="#fcc24c"/><path d="m4 4h166.515625v173.804688h-166.515625zm0 0" fill="#f4efed"/><path d="m150.515625 4h20v173.804688h-20zm0 0" fill="#d6d1cf"/><path d="m150.515625 177.804688h20v182.328124h-20zm0 0" fill="#dea42e"/><path d="m4 177.804688h20v182.328124h-20zm0 0" fill="#fce06a"/><path d="m4 4h20v173.804688h-20zm0 0" fill="#fff"/><path d="m481.609375 216.554688h-20c10.15625 0 18.390625 8.234374 18.390625 18.390624v59.867188c0 10.160156-8.234375 18.394531-18.390625 18.394531h20c10.15625 0 18.390625-8.234375 18.390625-18.394531v-59.867188c0-10.15625-8.234375-18.390624-18.390625-18.390624zm0 0" fill="#e12579"/><path d="m205.945312 216.554688h20c-10.15625 0-18.390624 8.234374-18.390624 18.390624v59.867188c0 10.160156 8.234374 18.394531 18.390624 18.394531h-20c-10.15625 0-18.390624-8.234375-18.390624-18.394531v-59.867188c0-10.15625 8.234374-18.390624 18.390624-18.390624zm0 0" fill="#ff61b5"/><path d="m397.378906 273.894531h-107.203125c-9.410156 0-17.042969 7.628907-17.042969 17.039063v22.273437h141.28125v-22.273437c.003907-9.410156-7.625-17.039063-17.035156-17.039063zm0 0" fill="#e12579"/><path d="m263.9375 360.132812h-40.460938c-5.078124 0-9.195312-4.117187-9.195312-9.195312v-37.730469h58.855469v37.730469c0 5.078125-4.117188 9.195312-9.199219 9.195312zm0 0" fill="#7bac51"/><path d="m464.074219 360.132812h-40.460938c-5.078125 0-9.195312-4.117187-9.195312-9.195312v-37.730469h58.855469v37.730469c0 5.078125-4.117188 9.195312-9.199219 9.195312zm0 0" fill="#7bac51"/><path d="m261.835938 288.8125h-74.28125v-47.863281h26.417968c26.433594 0 47.863282 21.425781 47.863282 47.863281zm0 0" fill="#fcc24c"/><path d="m425.714844 288.8125h74.285156v-47.863281h-26.417969c-26.4375 0-47.867187 21.425781-47.867187 47.863281zm0 0" fill="#fcc24c"/><path d="m87.257812 113.191406c-20.78125 0-37.628906 16.84375-37.628906 37.625v26.988282h75.253906v-26.988282c0-20.78125-16.84375-37.625-37.625-37.625zm0 0" fill="#7bac51"/><path d="m119.703125 80.742188c0 17.921874-14.527344 32.449218-32.445313 32.449218-17.921874 0-32.449218-14.527344-32.449218-32.449218 0-17.917969 14.527344-32.445313 32.449218-32.445313 17.917969 0 32.445313 14.527344 32.445313 32.445313zm0 0" fill="#ff9f70"/><path d="m123.957031 312.597656c15.074219-2.324218 27.660157-8.066406 33.851563-14.664062-7.894532-4.425782-21.621094-6.113282-36.695313-3.785156-1.628906.25-3.21875.546874-4.78125.875 3.65625-2.808594 7.300781-5.984376 10.832031-9.519532 13.523438-13.523437 21.992188-28.648437 23.367188-39.910156-11.261719 1.371094-26.390625 9.84375-39.910156 23.363281-4.652344 4.652344-8.6875 9.492188-12.0625 14.300781 2.304687-9.347656 3.617187-20.058593 3.617187-31.449218 0-24.386719-6-45.660156-14.917969-57.054688-8.917968 11.390625-14.921874 32.667969-14.921874 57.054688 0 11.390625 1.308593 22.101562 3.617187 31.449218-3.375-4.808593-7.410156-9.652343-12.0625-14.300781-13.519531-13.523437-28.648437-21.992187-39.910156-23.363281 1.375 11.261719 9.84375 26.386719 23.367187 39.910156 3.53125 3.53125 7.175782 6.710938 10.832032 9.519532-1.5625-.324219-3.152344-.625-4.78125-.875-15.074219-2.328126-28.800782-.640626-36.695313 3.785156 6.195313 6.597656 18.777344 12.335937 33.851563 14.664062 6.890624 1.058594 13.492187 1.277344 19.390624.785156-1.480468.886719-2.96875 1.871094-4.441406 2.953126-7.804687 5.714843-13.203125 12.625-14.757812 18.148437 5.734375.179687 13.949218-2.886719 21.75-8.605469 7.203125-5.273437 12.347656-11.5625 14.320312-16.84375.117188-.0625.242188-.121094.359375-.179687.023438.003906.050781.007812.082031.011719.023438-.003907.050782-.007813.082032-.011719.113281.0625.234375.117187.355468.179687 1.972657 5.28125 7.117188 11.570313 14.320313 16.84375 7.800781 5.71875 16.015625 8.785156 21.75 8.605469-1.554687-5.523437-6.953125-12.433594-14.753906-18.148437-1.472657-1.082032-2.960938-2.066407-4.445313-2.953126 5.898438.492188 12.496094.273438 19.390625-.785156zm0 0" fill="#7bac51"/><g fill="#690589"><path d="m87.257812 344.886719c-2.210937 0-4-1.789063-4-4v-33.90625c0-2.207031 1.789063-4 4-4 2.207032 0 4 1.792969 4 4v33.90625c0 2.210937-1.792968 4-4 4zm0 0"/><path d="m123.28125 338.492188c-6.792969 0-15.566406-3.476563-23.632812-9.382813-5.152344-3.773437-9.429688-8.101563-12.390626-12.445313-2.960937 4.34375-7.242187 8.667969-12.390624 12.445313-8.308594 6.085937-17.390626 9.582031-24.246094 9.375-1.230469-.039063-2.375-.640625-3.097656-1.632813-.730469-.992187-.960938-2.265624-.625-3.449218 1.445312-5.125 5.40625-10.828125 10.976562-15.964844-2.609375-.179688-5.253906-.476562-7.925781-.886719-15.558594-2.398437-29.078125-8.335937-36.160157-15.878906-.84375-.898437-1.226562-2.132813-1.039062-3.347656.1875-1.214844.925781-2.277344 1.996094-2.878907 7.351562-4.125 18.445312-5.941406 30.722656-5.175781-.320312-.3125-.632812-.625-.949219-.9375-13.800781-13.800781-22.960937-29.597656-24.503906-42.253906-.148437-1.222656.269531-2.445313 1.140625-3.3125.871094-.871094 2.097656-1.292969 3.3125-1.140625 12.65625 1.546875 28.453125 10.707031 42.25 24.507812.882812.882813 1.75 1.777344 2.597656 2.679688-.644531-5.535156-.980468-11.253906-.980468-17 0-24.648438 5.894531-46.902344 15.769531-59.519531 1.519531-1.9375 4.785156-1.9375 6.300781 0 9.875 12.617187 15.769531 34.871093 15.769531 59.519531 0 5.746094-.335937 11.464844-.984375 17 .847656-.902344 1.714844-1.796875 2.597656-2.679688 13.800782-13.800781 29.597657-22.960937 42.253907-24.507812 1.210937-.152344 2.441406.269531 3.3125 1.140625.867187.871094 1.289062 2.089844 1.140625 3.3125-1.542969 12.65625-10.707032 28.453125-24.507813 42.253906-.3125.3125-.628906.625-.945312.9375 12.277343-.757812 23.371093 1.054688 30.71875 5.175781 1.074219.601563 1.808593 1.664063 1.996093 2.878907.1875 1.214843-.195312 2.449219-1.039062 3.347656-7.082031 7.542969-20.597656 13.480469-36.160156 15.878906-2.671875.410157-5.320313.707031-7.925782.886719 5.570313 5.136719 9.535157 10.839844 10.976563 15.964844.335937 1.183594.101563 2.457031-.625 3.449218-.726563.992188-1.867187 1.59375-3.097656 1.632813-.195313.003906-.402344.007813-.605469.007813zm-53.332031-29.109376c1.726562 0 3.269531 1.113282 3.808593 2.777344.566407 1.773438-.160156 3.703125-1.753906 4.65625-1.402344.839844-2.792968 1.761719-4.132812 2.746094-3.988282 2.917969-7.441406 6.324219-9.875 9.613281 3.871094-1.328125 8.15625-3.597656 12.140625-6.519531 6.316406-4.628906 11.152343-10.246094 12.9375-15.019531.339843-.910157 1-1.664063 1.855469-2.121094.03125-.019531.226562-.121094.261718-.136719.398438-.199218.878906-.359375 1.371094-.445312v-.003906c.042969-.003907.082031-.011719.125-.015626l.128906-.019531v.003907-.003907c.328125-.039062.652344-.039062.949219 0v.015625c.546875.058594 1.089844.207032 1.53125.453125.035156.019531.257813.132813.292969.152344.855468.457031 1.511718 1.210937 1.851562 2.121094 1.785156 4.777343 6.625 10.390625 12.9375 15.019531 3.988282 2.917969 8.273438 5.191406 12.144532 6.519531-2.433594-3.289062-5.890626-6.691406-9.878907-9.613281-1.34375-.988281-2.734375-1.910156-4.128906-2.746094-1.597656-.953125-2.324219-2.882812-1.753906-4.65625.566406-1.769531 2.269531-2.910156 4.136719-2.761718 5.757812.480468 12.136718.21875 18.449218-.753907 10.644532-1.640625 20.34375-5.136719 26.855469-9.539062-7.53125-2.230469-17.832031-2.644531-28.480469-1.003907-1.554687.242188-3.074218.527344-4.570312.839844-1.828125.382813-3.675782-.550781-4.453125-2.246094-.78125-1.699218-.285157-3.707031 1.195312-4.84375 3.621094-2.777343 7.132813-5.867187 10.445313-9.175781 10.308594-10.308593 17.9375-22.003906 20.964844-31.855469-9.847657 3.03125-21.542969 10.65625-31.855469 20.96875-4.347657 4.347657-8.253907 8.980469-11.613281 13.769532-1.105469 1.578125-3.179688 2.140625-4.929688 1.34375-1.753906-.796875-2.691406-2.730469-2.226562-4.601563 2.289062-9.277343 3.5-19.824219 3.5-30.488281 0-19.707031-4.109376-38.148438-10.917969-49.894531-6.816407 11.746093-10.921875 30.1875-10.921875 49.894531 0 10.664062 1.210937 21.207031 3.5 30.488281.460937 1.871094-.476563 3.804688-2.226563 4.601563s-3.828125.230468-4.929687-1.34375c-3.359375-4.789063-7.265625-9.417969-11.617188-13.769532-10.308594-10.3125-22.003906-17.9375-31.851562-20.96875 3.027344 9.851563 10.65625 21.546876 20.964844 31.855469 3.3125 3.3125 6.828124 6.398438 10.445312 9.175781 1.480469 1.136719 1.976562 3.144532 1.195312 4.84375-.777343 1.691407-2.621093 2.628907-4.453124 2.246094-1.496094-.3125-3.015626-.597656-4.570313-.839844-10.648437-1.640624-20.949219-1.226562-28.480469 1.003907 6.507813 4.398437 16.207032 7.898437 26.855469 9.539062 6.3125.972657 12.691406 1.234375 18.445313.753907.109374-.011719.222656-.015626.332031-.015626zm0 0"/><path d="m170.515625 364.132812h-166.515625c-2.207031 0-4-1.792968-4-4v-182.328124c0-2.207032 1.792969-4 4-4h166.515625c2.207031 0 4 1.792968 4 4v182.328124c0 2.210938-1.792969 4-4 4zm-162.515625-8h158.515625v-174.328124h-158.515625zm0 0"/><path d="m170.515625 364.132812h-166.515625c-2.207031 0-4-1.792968-4-4v-182.328124c0-2.207032 1.792969-4 4-4h166.515625c2.207031 0 4 1.792968 4 4v182.328124c0 2.210938-1.792969 4-4 4zm-162.515625-8h158.515625v-174.328124h-158.515625zm0 0"/><path d="m170.515625 181.804688h-166.515625c-2.207031 0-4-1.789063-4-4v-173.804688c0-2.207031 1.792969-4 4-4h166.515625c2.207031 0 4 1.792969 4 4v173.804688c0 2.210937-1.792969 4-4 4zm-162.515625-8h158.515625v-165.804688h-158.515625zm0 0"/><path d="m20 62.628906c-2.207031 0-4-1.792968-4-4v-24c0-2.207031 1.792969-4 4-4s4 1.792969 4 4v24c0 2.207032-1.792969 4-4 4zm0 0"/><path d="m124.882812 181.804688h-75.253906c-2.207031 0-4-1.789063-4-4v-26.988282c0-22.953125 18.671875-41.625 41.628906-41.625 22.953126 0 41.625 18.671875 41.625 41.625v26.988282c0 2.210937-1.789062 4-4 4zm-71.253906-8h67.253906v-22.988282c0-18.542968-15.085937-33.625-33.625-33.625-18.542968 0-33.628906 15.082032-33.628906 33.625zm0 0"/><path d="m87.257812 117.191406c-20.097656 0-36.449218-16.351562-36.449218-36.449218 0-20.097657 16.347656-36.445313 36.449218-36.445313 20.097657 0 36.445313 16.347656 36.445313 36.445313 0 20.097656-16.347656 36.449218-36.445313 36.449218zm0-64.894531c-15.6875 0-28.449218 12.757813-28.449218 28.445313s12.761718 28.449218 28.449218 28.449218c15.683594 0 28.445313-12.761718 28.445313-28.449218s-12.761719-28.445313-28.445313-28.445313zm0 0"/><path d="m263.941406 364.132812h-40.464844c-7.273437 0-13.195312-5.921874-13.195312-13.195312v-37.730469c0-2.210937 1.792969-4 4-4h58.855469c2.207031 0 4 1.789063 4 4v37.730469c-.003907 7.273438-5.921875 13.195312-13.195313 13.195312zm-45.660156-46.925781v33.730469c0 2.863281 2.332031 5.195312 5.195312 5.195312h40.460938c2.863281 0 5.195312-2.332031 5.195312-5.195312v-33.730469zm0 0"/><path d="m464.078125 364.132812h-40.460937c-7.277344 0-13.195313-5.921874-13.195313-13.195312v-37.730469c0-2.210937 1.789063-4 4-4h58.855469c2.207031 0 4 1.789063 4 4v37.730469c-.003906 7.273438-5.921875 13.195312-13.199219 13.195312zm-45.660156-46.925781v33.730469c0 2.863281 2.332031 5.195312 5.195312 5.195312h40.460938c2.867187 0 5.199219-2.332031 5.199219-5.195312v-33.730469zm0 0"/><path d="m414.417969 317.207031h-141.285157c-2.207031 0-4-1.792969-4-4v-22.273437c0-11.601563 9.4375-21.039063 21.042969-21.039063h107.203125c11.601563 0 21.039063 9.4375 21.039063 21.039063v22.273437c0 2.207031-1.792969 4-4 4zm-137.285157-8h133.285157v-18.273437c0-7.191406-5.851563-13.039063-13.039063-13.039063h-107.203125c-7.191406 0-13.042969 5.847657-13.042969 13.039063zm0 0"/></g><path d="m480 240.949219h20v47.863281h-20zm0 0" fill="#dea42e"/><path d="m187.554688 240.949219h20v47.863281h-20zm0 0" fill="#fce06a"/><path d="m481.609375 317.207031h-275.664063c-12.347656 0-22.390624-10.046875-22.390624-22.394531v-59.867188c0-12.347656 10.042968-22.390624 22.390624-22.390624h275.664063c12.347656 0 22.390625 10.042968 22.390625 22.390624v59.867188c0 12.347656-10.042969 22.394531-22.390625 22.394531zm-275.664063-96.652343c-7.933593 0-14.390624 6.457031-14.390624 14.390624v59.867188c0 7.9375 6.457031 14.394531 14.390624 14.394531h275.664063c7.933594 0 14.390625-6.457031 14.390625-14.394531v-59.867188c0-7.933593-6.457031-14.390624-14.390625-14.390624zm0 0" fill="#690589"/><path d="m261.835938 292.8125h-74.285157c-2.207031 0-4-1.792969-4-4v-47.867188c0-2.207031 1.792969-4 4-4h26.417969c28.597656 0 51.867188 23.265626 51.867188 51.867188 0 2.210938-1.792969 4-4 4zm-70.285157-8h66.101563c-2.023438-22.320312-20.84375-39.867188-43.683594-39.867188h-22.417969zm0 0" fill="#690589"/><path d="m500 292.8125h-74.285156c-2.207032 0-4-1.792969-4-4 0-28.597656 23.265625-51.867188 51.867187-51.867188h26.417969c2.207031 0 4 1.792969 4 4v47.867188c0 2.210938-1.792969 4-4 4zm-70.101562-8h66.101562v-39.867188h-22.417969c-22.839843 0-41.65625 17.546876-43.683593 39.867188zm0 0" fill="#690589"/></svg>