<svg height="503pt" viewBox="-84 0 503 503.9195" width="503pt" xmlns="http://www.w3.org/2000/svg"><path d="m252.765625 276.738281c34.90625-5.378906 64.035156-18.667969 78.378906-33.945312-18.277343-10.25-50.058593-14.144531-84.964843-8.761719-3.765626.578125-7.449219 1.269531-11.066407 2.023438 8.464844-6.5 16.902344-13.859376 25.085938-22.042969 31.300781-31.304688 50.910156-66.324219 54.089843-92.394531-26.074218 3.179687-61.089843 22.785156-92.394531 54.089843-10.769531 10.769531-20.113281 21.976563-27.925781 33.109375 5.335938-21.632812 8.375-46.429687 8.375-72.804687 0-56.457031-13.898438-105.710938-34.542969-132.09375-20.640625 26.382812-34.539062 75.636719-34.539062 132.09375 0 26.371093 3.035156 51.171875 8.371093 72.804687-7.808593-11.132812-17.15625-22.339844-27.921874-33.109375-31.304688-31.304687-66.324219-50.910156-92.398438-54.089843 3.183594 26.074218 22.789062 61.089843 54.09375 92.394531 8.183594 8.183593 16.621094 15.542969 25.082031 22.042969-3.617187-.753907-7.300781-1.445313-11.0625-2.023438-34.90625-5.382812-66.6875-1.488281-84.964843 8.761719 14.339843 15.277343 43.472656 28.566406 78.378906 33.945312 15.949218 2.460938 31.230468 2.964844 44.886718 1.824219-3.429687 2.054688-6.875 4.332031-10.285156 6.832031-18.0625 13.234375-30.5625 29.230469-34.164062 42.019531 13.28125.421876 32.296875-6.679687 50.359375-19.917968 16.667969-12.214844 28.582031-26.773438 33.15625-39 .265625-.144532.558593-.277344.820312-.421875.0625.007812.125.019531.1875.027343.0625-.007812.128907-.019531.1875-.027343.265625.144531.554688.277343.824219.421875 4.570312 12.226562 16.484375 26.785156 33.152344 39 18.0625 13.234375 37.082031 20.335937 50.359375 19.917968-3.597657-12.789062-16.101563-28.78125-34.164063-42.019531-3.410156-2.5-6.851562-4.777343-10.285156-6.832031 13.65625 1.140625 28.9375.636719 44.890625-1.824219zm0 0" fill="#7bac51"/><g fill="#99ca6f"><path d="m36.472656 124.996094c4.378906 25.671875 23.617188 59.042968 53.585938 89.015625 5.386718 5.386719 10.882812 10.414062 16.421875 15.078125 2.207031 1.855468.558593 5.398437-2.289063 4.957031-.039062-.007813-.078125-.011719-.117187-.019531-2.480469-.382813-4.945313-.707032-7.390625-.996094-7.183594-5.742188-14.324219-12.066406-21.28125-19.019531-31.300782-31.304688-50.90625-66.320313-54.089844-92.394531 4.78125.582031 9.859375 1.722656 15.160156 3.378906zm0 0"/><path d="m65.957031 231.773438c-19.128906.796874-35.558593 4.695312-46.839843 11.019531 14.339843 15.277343 43.472656 28.566406 78.375 33.945312 7.878906 1.214844 15.589843 1.949219 23.023437 2.246094-11.742187.46875-24.472656-.207031-37.675781-2.246094-34.90625-5.378906-64.035156-18.667969-78.378906-33.945312 14.070312-7.890625 36.15625-11.992188 61.496093-11.019531zm0 0"/><path d="m117.441406 285.394531c3.105469-2.273437 6.234375-4.355469 9.359375-6.261719 1.125.007813 2.238281.007813 3.347657-.003906 3.355468-.039062 4.757812 4.210938 2.050781 6.191406-.035157.023438-.070313.050782-.101563.074219-17.058594 12.5-29.148437 27.457031-33.472656 39.855469-5.605469 1.554688-10.816406 2.308594-15.347656 2.164062 3.601562-12.789062 16.101562-28.78125 34.164062-42.019531zm0 0"/><path d="m141.632812 208.816406c7.398438 0 12.992188-6.71875 11.609376-13.988281-3.429688-18.09375-5.328126-37.964844-5.328126-58.816406 0 0-1.214843-91.285157 19.886719-132.089844-20.640625 26.378906-34.539062 75.636719-34.539062 132.089844 0 17.011719 1.277343 33.351562 3.605469 48.625zm0 0"/></g><path d="m299.128906 124.996094c-4.375 25.671875-23.613281 59.042968-53.585937 89.015625-5.386719 5.386719-10.882813 10.414062-16.421875 15.078125-2.207032 1.855468-.558594 5.398437 2.289062 4.957031.039063-.007813.078125-.011719.117188-.019531 2.484375-.382813 4.945312-.707032 7.390625-.996094 7.183593-5.742188 14.324219-12.066406 21.28125-19.019531 31.300781-31.304688 50.910156-66.324219 54.089843-92.394531-4.777343.582031-9.855468 1.722656-15.160156 3.378906zm0 0" fill="#5d8e33"/><path d="m269.644531 231.773438c19.128907.796874 35.5625 4.695312 46.84375 11.019531-14.34375 15.277343-43.472656 28.566406-78.378906 33.945312-7.875 1.214844-15.585937 1.949219-23.019531 2.246094 11.742187.46875 24.46875-.207031 37.675781-2.246094 34.902344-5.378906 64.035156-18.667969 78.375-33.945312-14.070313-7.890625-36.15625-11.992188-61.496094-11.019531zm0 0" fill="#5d8e33"/><path d="m218.160156 285.394531c-3.101562-2.273437-6.230468-4.355469-9.359375-6.261719-1.121093.007813-2.238281.007813-3.34375-.003906-3.355469-.039062-4.761719 4.210938-2.050781 6.191406.035156.023438.066406.050782.101562.074219 17.058594 12.5 29.144532 27.457031 33.472657 39.855469 5.601562 1.554688 10.8125 2.308594 15.347656 2.164062-3.601563-12.789062-16.101563-28.78125-34.167969-42.019531zm0 0" fill="#5d8e33"/><path d="m193.972656 208.816406c-7.402344 0-12.992187-6.71875-11.613281-13.988281 3.433594-18.09375 5.328125-37.964844 5.328125-58.816406 0 0 1.214844-91.285157-19.886719-132.089844 20.644531 26.378906 34.542969 75.636719 34.542969 132.089844 0 17.011719-1.28125 33.351562-3.609375 48.625zm0 0" fill="#5d8e33"/><path d="m167.800781 331.097656c-2.207031 0-4-1.792968-4-4v-59.121094c0-2.207031 1.792969-4 4-4 2.210938 0 4 1.792969 4 4v59.121094c0 2.207032-1.789062 4-4 4zm0 0" fill="#690589"/><path d="m251.175781 331.433594c-14.625 0-33.78125-7.671875-51.574219-20.710938-14.152343-10.371094-25.617187-22.976562-31.796874-34.757812-6.183594 11.78125-17.644532 24.386718-31.796876 34.757812-18.320312 13.421875-38.105468 21.167969-52.855468 20.691406-1.226563-.039062-2.375-.640624-3.101563-1.632812-.726562-.992188-.957031-2.265625-.621093-3.449219 3.910156-13.882812 16.691406-29.941406 34.320312-43.179687-10.242188 0-20.769531-.796875-31.519531-2.457032-34.902344-5.378906-65.066407-18.527343-80.6875-35.164062-.839844-.898438-1.222657-2.132812-1.035157-3.347656.183594-1.214844.921876-2.277344 1.992188-2.878906 19.171875-10.75 50.226562-14.34375 83.667969-9.789063-4.648438-4.042969-9.195313-8.277344-13.59375-12.675781-31.144531-31.144532-51.792969-66.5625-55.230469-94.742188-.148438-1.21875.273438-2.441406 1.140625-3.308594.871094-.871093 2.089844-1.285156 3.3125-1.144531 28.175781 3.4375 63.59375 24.085938 94.742187 55.234375 6.222657 6.222656 12.078126 12.6875 17.511719 19.332032-3.148437-17.832032-4.789062-36.949219-4.789062-56.199219 0-55.101563 13.558593-106.660157 35.386719-134.558594 1.515624-1.9375 4.789062-1.9375 6.300781 0 21.832031 27.898437 35.390625 79.457031 35.390625 134.558594 0 19.25-1.640625 38.367187-4.792969 56.199219 5.4375-6.644532 11.292969-13.109376 17.515625-19.332032 31.144531-31.148437 66.5625-51.796875 94.738281-55.234375 1.230469-.148437 2.445313.273438 3.3125 1.144531.871094.867188 1.292969 2.089844 1.144531 3.308594-3.441406 28.179688-24.089843 63.59375-55.234374 94.742188-4.398438 4.394531-8.945313 8.632812-13.59375 12.671875 33.441406-4.554688 64.496093-.957031 83.667968 9.789062 1.070313.601563 1.804688 1.664063 1.996094 2.878907.1875 1.21875-.199219 2.453124-1.039062 3.351562-15.621094 16.632812-45.785157 29.78125-80.6875 35.164062-10.75 1.65625-21.367188 2.46875-31.519532 2.457032 17.628906 13.238281 30.414063 29.292968 34.320313 43.179687.335937 1.183594.105469 2.457031-.621094 3.449219-.730469.992188-1.871094 1.59375-3.101563 1.632812-.414062.011719-.839843.019532-1.269531.019532zm-123.445312-56.867188c1.722656 0 3.269531 1.109375 3.804687 2.773438.570313 1.773437-.15625 3.703125-1.753906 4.660156-3.371094 2.011719-6.726562 4.238281-9.976562 6.621094-14.332032 10.503906-25.601563 23.273437-30.691407 34.519531 12.253907-1.46875 27.828125-8.363281 42.160157-18.871094 15.414062-11.292969 27.289062-25.191406 31.773437-37.171875.339844-.914062 1.003906-1.671875 1.863281-2.128906l.761719-.390625c.746094-.414063 1.601563-.578125 2.449219-.46875.636718.03125 1.296875.183594 1.8125.46875l.761718.390625c.859376.457031 1.523438 1.214844 1.863282 2.128906 4.480468 11.980469 16.359375 25.878906 31.773437 37.171875 14.332031 10.503907 29.90625 17.402344 42.160157 18.871094-5.089844-11.246094-16.359376-24.011719-30.691407-34.519531-3.242187-2.375-6.601562-4.605469-9.976562-6.621094-1.597657-.957031-2.324219-2.886719-1.753907-4.660156.570313-1.769532 2.289063-2.914063 4.140626-2.761719 13.734374 1.148437 28.929687.523437 43.945312-1.789063 29.929688-4.617187 56.882812-15.511718 72.140625-28.941406-18.59375-8.207031-47.574219-10.476562-77.507813-5.867187-3.449218.535156-7 1.183593-10.855468 1.992187-1.820313.386719-3.671875-.550781-4.453125-2.246094-.78125-1.699218-.28125-3.707031 1.199219-4.84375 8.554687-6.570312 16.863281-13.875 24.691406-21.699218 27.515625-27.515625 47.027344-59.414063 52.089844-84.738282-25.324219 5.0625-57.21875 24.570313-84.738282 52.089844-10.285156 10.285156-19.527344 21.246094-27.472656 32.578125-1.105469 1.578125-3.175781 2.136719-4.933594 1.34375-1.75-.796875-2.6875-2.730469-2.222656-4.601562 5.398438-21.894531 8.253906-46.738281 8.253906-71.847657 0-50.644531-11.617187-97.9375-30.542968-125.339843-18.929688 27.402343-30.542969 74.695312-30.542969 125.339843 0 25.113282 2.855469 49.957032 8.253906 71.847657.460937 1.871093-.472656 3.800781-2.226563 4.601562-1.757812.792969-3.824218.230469-4.929687-1.34375-7.949219-11.332031-17.191406-22.292969-27.476563-32.578125-27.519531-27.515625-59.414062-47.027344-84.738281-52.085937 5.0625 25.324219 24.574219 57.21875 52.089844 84.734375 7.828125 7.828125 16.136719 15.128906 24.691406 21.703125 1.480469 1.136719 1.976563 3.144531 1.199219 4.839843-.777344 1.695313-2.632812 2.632813-4.453125 2.246094-3.855469-.804687-7.402344-1.457031-10.855469-1.988281-29.933594-4.613281-58.914062-2.34375-77.507812 5.863281 15.257812 13.429688 42.210937 24.328125 72.140625 28.941406 15.015625 2.3125 30.214843 2.9375 43.945312 1.792969.113281-.011719.222657-.015625.335938-.015625zm0 0" fill="#690589"/><path d="m150.363281 108.902344c-.152343 0-.304687-.007813-.460937-.023438-2.195313-.25-3.769532-2.234375-3.519532-4.429687.9375-8.230469 2.082032-16.445313 3.394532-24.40625.359375-2.175781 2.394531-3.664063 4.597656-3.292969 2.179688.359375 3.65625 2.417969 3.292969 4.597656-1.289063 7.832032-2.414063 15.910156-3.339844 24.007813-.230469 2.042969-1.960937 3.546875-3.964844 3.546875zm0 0" fill="#690589"/><path d="m167.800781 499.917969c-38.488281 0-62.542969-41.664063-43.300781-75l43.300781-75 43.304688 75c19.242187 33.335937-4.8125 75-43.304688 75zm0 0" fill="#7bac51"/><path d="m178.996094 492.652344-11.195313 7.265625c38.492188 0 62.546875-41.664063 43.304688-75l-43.304688-75 32.289063 69.152343c12.304687 26.355469 3.308594 57.75-21.09375 73.582032zm0 0" fill="#5d8e33"/><path d="m156.605469 492.652344 11.195312 7.265625c-38.488281 0-62.542969-41.664063-43.300781-75l43.300781-75-32.285156 69.152343c-12.308594 26.355469-3.308594 57.75 21.089844 73.582032zm0 0" fill="#99ca6f"/><path d="m167.800781 503.917969c-19.519531 0-37.003906-10.09375-46.765625-27-9.761718-16.90625-9.757812-37.089844 0-54l43.300782-75c.714843-1.238281 2.035156-2 3.464843-2 1.425781 0 2.75.761719 3.464844 2l43.296875 75c9.761719 16.90625 9.761719 37.09375 0 54-9.753906 16.90625-27.238281 27-46.761719 27zm0-146-39.835937 69c-8.316406 14.402343-8.316406 31.597656 0 46 8.3125 14.402343 23.207031 23 39.835937 23 16.632813 0 31.523438-8.597657 39.839844-23 8.3125-14.402344 8.3125-31.597657-.003906-46zm0 0" fill="#690589"/><path d="m86.339844 421.746094 15.554687 8.507812-15.554687 8.507813-8.507813 15.554687-8.507812-15.554687-15.554688-8.507813 15.554688-8.507812 8.507812-15.554688zm0 0" fill="#fcc24c"/><path d="m77.832031 458.316406c-1.460937 0-2.804687-.796875-3.507812-2.082031l-7.945313-14.527344-14.527344-7.945312c-1.285156-.703125-2.082031-2.046875-2.082031-3.511719 0-1.460938.796875-2.804688 2.082031-3.507812l14.527344-7.945313 7.945313-14.527344c.703125-1.285156 2.046875-2.082031 3.507812-2.082031 1.464844 0 2.808594.796875 3.511719 2.082031l7.945312 14.527344 14.527344 7.945313c1.285156.703124 2.082032 2.046874 2.082032 3.507812 0 1.464844-.796876 2.808594-2.082032 3.511719l-14.527344 7.945312-7.945312 14.527344c-.703125 1.285156-2.046875 2.082031-3.511719 2.082031zm-15.726562-28.0625 9.136719 4.996094c.671874.371094 1.222656.917969 1.589843 1.589844l5 9.140625 4.996094-9.140625c.371094-.671875.921875-1.222656 1.589844-1.589844l9.140625-4.996094-9.140625-5c-.667969-.367187-1.21875-.917968-1.589844-1.589844l-4.996094-9.136718-5 9.136718c-.367187.671876-.917969 1.226563-1.589843 1.589844zm0 0" fill="#690589"/><path d="m266.277344 421.746094 15.554687 8.507812-15.554687 8.507813-8.503906 15.554687-8.507813-15.554687-15.558594-8.507813 15.558594-8.507812 8.507813-15.554688zm0 0" fill="#fcc24c"/><path d="m257.769531 458.316406c-1.460937 0-2.808593-.796875-3.507812-2.082031l-7.949219-14.527344-14.527344-7.945312c-1.285156-.703125-2.078125-2.046875-2.078125-3.511719 0-1.460938.796875-2.804688 2.078125-3.507812l14.527344-7.945313 7.949219-14.527344c.699219-1.285156 2.042969-2.082031 3.507812-2.082031 1.464844 0 2.808594.796875 3.511719 2.082031l7.945312 14.527344 14.527344 7.945313c1.28125.703124 2.078125 2.046874 2.078125 3.507812 0 1.464844-.792969 2.808594-2.078125 3.511719l-14.527344 7.945312-7.945312 14.527344c-.703125 1.285156-2.046875 2.082031-3.511719 2.082031zm-15.726562-28.0625 9.140625 4.996094c.667968.371094 1.21875.917969 1.589844 1.589844l4.996093 9.140625 5-9.140625c.367188-.671875.917969-1.222656 1.589844-1.589844l9.136719-4.996094-9.136719-5c-.671875-.367187-1.222656-.917968-1.589844-1.589844l-5-9.136718-4.996093 9.136718c-.371094.671876-.921876 1.226563-1.589844 1.589844zm0 0" fill="#690589"/></svg>