<svg height="504pt" viewBox="0 -36 504 504" width="504pt" xmlns="http://www.w3.org/2000/svg"><path d="m482.300781 363.070312h-460.601562c-9.773438 0-17.699219-7.921874-17.699219-17.699218v-283.589844c0-9.777344 7.925781-17.703125 17.699219-17.703125h460.601562c9.773438 0 17.699219 7.925781 17.699219 17.703125v283.589844c0 9.777344-7.925781 17.699218-17.699219 17.699218zm0 0" fill="#ff4397"/><path d="m21.699219 363.070312h20c-9.773438 0-17.699219-7.921874-17.699219-17.699218v-283.589844c0-9.777344 7.925781-17.703125 17.699219-17.703125h-20c-9.773438 0-17.699219 7.925781-17.699219 17.703125v283.589844c0 9.777344 7.925781 17.699218 17.699219 17.699218zm0 0" fill="#ff61b5"/><path d="m482.300781 44.078125h-20c9.773438 0 17.699219 7.925781 17.699219 17.703125v283.589844c0 9.777344-7.925781 17.699218-17.699219 17.699218h20c9.773438 0 17.699219-7.921874 17.699219-17.699218v-283.589844c0-9.777344-7.925781-17.703125-17.699219-17.703125zm0 0" fill="#e12579"/><path d="m482.300781 367.070312h-460.601562c-11.964844 0-21.699219-9.730468-21.699219-21.699218v-283.59375c0-11.964844 9.734375-21.699219 21.699219-21.699219h460.601562c11.964844 0 21.699219 9.734375 21.699219 21.699219v283.59375c0 11.96875-9.734375 21.699218-21.699219 21.699218zm-460.601562-318.992187c-7.554688 0-13.699219 6.144531-13.699219 13.703125v283.59375c0 7.554688 6.144531 13.699219 13.699219 13.699219h460.601562c7.554688 0 13.699219-6.144531 13.699219-13.699219v-283.597656c0-7.554688-6.144531-13.699219-13.699219-13.699219zm0 0" fill="#690589"/><path d="m369.859375 4h-235.71875c-11.046875 0-20 8.953125-20 20v339.070312h275.71875v-339.070312c0-11.046875-8.953125-20-20-20zm0 0" fill="#f4efed"/><path d="m413.800781 428.792969h-323.601562v-23.707031c0-9.777344 7.921875-17.703126 17.699219-17.703126h288.203124c9.777344 0 17.699219 7.925782 17.699219 17.703126zm0 0" fill="#7bac51"/><path d="m396.101562 387.382812h-20c9.777344 0 17.699219 7.921876 17.699219 17.699219v23.707031h20v-23.707031c0-9.773437-7.921875-17.699219-17.699219-17.699219zm0 0" fill="#5d8e33"/><path d="m107.898438 387.382812h20c-9.777344 0-17.699219 7.921876-17.699219 17.699219v23.707031h-20v-23.707031c0-9.773437 7.921875-17.699219 17.699219-17.699219zm0 0" fill="#99ca6f"/><path d="m157.007812 363.070312h189.984376v24.3125h-189.984376zm0 0" fill="#5d8e33"/><path d="m20 118.488281c-2.207031 0-4-1.792969-4-4v-24c0-2.207031 1.792969-4 4-4s4 1.792969 4 4v24c0 2.207031-1.792969 4-4 4zm0 0" fill="#690589"/><path d="m413.800781 432.792969h-323.601562c-2.210938 0-4-1.792969-4-4v-23.707031c0-11.96875 9.734375-21.703126 21.699219-21.703126h288.207031c11.964843 0 21.699219 9.734376 21.699219 21.703126v23.707031c-.003907 2.210937-1.792969 4-4.003907 4zm-319.601562-8h315.605469v-19.707031c0-7.554688-6.148438-13.703126-13.703126-13.703126h-288.203124c-7.554688 0-13.703126 6.144532-13.703126 13.703126v19.707031zm0 0" fill="#690589"/><path d="m346.992188 391.382812h-189.984376c-2.210937 0-4-1.792968-4-4v-24.3125c0-2.207031 1.789063-4 4-4h189.984376c2.210937 0 4 1.792969 4 4v24.3125c0 2.210938-1.789063 4-4 4zm-185.984376-8h181.984376v-16.3125h-181.984376zm0 0" fill="#690589"/><path d="m297.492188 316.558594c18.691406-2.878906 34.289062-9.996094 41.96875-18.175782-9.785157-5.488281-26.804688-7.574218-45.492188-4.691406-2.015625.308594-3.988281.679688-5.925781 1.085938 4.53125-3.480469 9.050781-7.421875 13.429687-11.804688 16.761719-16.761718 27.261719-35.515625 28.964844-49.476562-13.960938 1.707031-32.710938 12.203125-49.472656 28.964844-5.765625 5.765624-10.769532 11.769531-14.953125 17.730468 2.859375-11.585937 4.480469-24.863281 4.480469-38.984375 0-30.230469-7.441407-56.605469-18.492188-70.730469-11.050781 14.125-18.492188 40.5-18.492188 70.730469 0 14.121094 1.621094 27.398438 4.480469 38.984375-4.179687-5.960937-9.183593-11.964844-14.953125-17.730468-16.761718-16.761719-35.511718-27.257813-49.472656-28.964844 1.703125 13.964844 12.203125 32.714844 28.964844 49.476562 4.378906 4.382813 8.898437 8.320313 13.429687 11.804688-1.9375-.40625-3.910156-.773438-5.925781-1.085938-18.6875-2.882812-35.707031-.796875-45.492188 4.691406 7.679688 8.179688 23.277344 15.296876 41.96875 18.175782 8.539063 1.316406 16.722657 1.585937 24.035157.976562-1.839844 1.097656-3.683594 2.320313-5.507813 3.660156-9.671875 7.085938-16.367187 15.652344-18.296875 22.5 7.113281.222657 17.296875-3.578124 26.96875-10.667968 8.925781-6.539063 15.304688-14.335938 17.75-20.882813.144531-.074219.300781-.148437.441407-.222656.03125.003906.066406.011719.097656.015625.035156-.003906.070312-.011719.101562-.015625.140625.074219.296875.148437.441406.222656 2.445313 6.546875 8.828126 14.34375 17.75 20.882813 9.671876 7.089844 19.855469 10.890625 26.96875 10.667968-1.929687-6.847656-8.625-15.414062-18.296874-22.5-1.824219-1.339843-3.667969-2.558593-5.507813-3.660156 7.316406.609375 15.5.34375 24.039063-.976562zm0 0" fill="#7bac51"/><path d="m252 367.070312c-2.207031 0-4-1.789062-4-4v-51.203124c0-2.207032 1.792969-4 4-4s4 1.792968 4 4v51.203124c0 2.210938-1.792969 4-4 4zm0 0" fill="#690589"/><path d="m296.652344 347.703125c-8.21875 0-18.886719-4.238281-28.722656-11.449219-6.78125-4.96875-12.320313-10.707031-15.929688-16.386718-3.609375 5.683593-9.148438 11.417968-15.929688 16.386718-10.128906 7.425782-21.121093 11.675782-29.457031 11.4375-1.226562-.039062-2.375-.640625-3.097656-1.632812-.726563-.992188-.960937-2.265625-.625-3.449219 1.882813-6.699219 7.371094-14.242187 15.046875-20.875-3.949219-.1875-7.96875-.59375-12.042969-1.21875-19.085937-2.945313-35.632812-10.195313-44.277343-19.394531-.839844-.894532-1.222657-2.128906-1.039063-3.347656.1875-1.21875.925781-2.277344 1.996094-2.878907 9.480469-5.316406 24.128906-7.492187 40.203125-6.101562-1.042969-.980469-2.070313-1.976563-3.082032-2.992188-16.964843-16.957031-28.21875-36.332031-30.105468-51.816406-.148438-1.21875.269531-2.445313 1.140625-3.3125.871093-.867187 2.082031-1.28125 3.3125-1.140625 15.484375 1.886719 34.855469 13.144531 51.816406 30.105469 1.796875 1.800781 3.542969 3.636719 5.226563 5.507812-1.046876-7.738281-1.585938-15.816406-1.585938-23.933593 0-30.355469 7.230469-57.71875 19.34375-73.195313 1.515625-1.941406 4.785156-1.941406 6.300781 0 12.113281 15.476563 19.34375 42.839844 19.34375 73.195313 0 8.117187-.539062 16.195312-1.585937 23.933593 1.683594-1.871093 3.425781-3.707031 5.226562-5.507812 16.960938-16.960938 36.332032-28.214844 51.816406-30.105469 1.226563-.152344 2.445313.269531 3.3125 1.140625.871094.871094 1.292969 2.09375 1.140626 3.3125-1.886719 15.484375-13.140626 34.859375-30.105469 51.816406-1.011719 1.015625-2.039063 2.011719-3.082031 2.992188 16.074218-1.378907 30.714843.785156 40.199218 6.101562 1.074219.601563 1.808594 1.664063 1.996094 2.878907.191406 1.214843-.195312 2.453124-1.035156 3.347656-8.640625 9.199218-25.191406 16.449218-44.277344 19.394531-4.074219.625-8.097656 1.035156-12.042969 1.21875 7.675781 6.632813 13.164063 14.175781 15.046875 20.875.335938 1.183594.105469 2.457031-.625 3.449219-.726562.992187-1.871094 1.59375-3.097656 1.632812-.230469.007813-.476562.011719-.722656.011719zm-66.109375-34.167969c1.726562 0 3.273437 1.113282 3.808593 2.777344.566407 1.773438-.160156 3.703125-1.757812 4.65625-1.753906 1.050781-3.503906 2.210938-5.199219 3.453125-6.039062 4.425781-11.011719 9.589844-14.046875 14.433594 5.535156-1.441407 11.953125-4.625 17.992188-9.050781 7.972656-5.847657 14.097656-12.96875 16.371094-19.058594.34375-.917969 1.015624-1.679688 1.882812-2.136719l.25-.125c.601562-.335937 1.351562-.542969 2.058594-.554687.738281-.039063 1.484375.132812 2.140625.5l.359375.183593c.871094.457031 1.539062 1.214844 1.882812 2.136719 2.273438 6.089844 8.394532 13.210938 16.371094 19.054688 6.039062 4.425781 12.457031 7.617187 17.992188 9.050781-3.039063-4.84375-8.011719-10.003907-14.050782-14.429688-1.691406-1.242187-3.4375-2.402343-5.195312-3.453125-1.597656-.957031-2.324219-2.882812-1.757813-4.660156.570313-1.769531 2.296875-2.914062 4.140625-2.761719 7.210938.601563 15.191406.273438 23.097656-.941406 14.207032-2.195313 27.085938-7.042969 35.257813-13.097656-9.617187-3.316407-23.363281-4.054688-37.566406-1.867188-1.800781.277344-3.675781.621094-5.714844 1.046875-1.824219.367188-3.671875-.550781-4.453125-2.25-.78125-1.695312-.28125-3.703125 1.199219-4.839844 4.515625-3.46875 8.902343-7.324218 13.039062-11.457031 13.46875-13.46875 23.28125-28.863281 26.710938-41.566406-12.703125 3.433594-28.09375 13.242187-41.5625 26.710937-5.433594 5.429688-10.3125 11.214844-14.507813 17.199219-1.105468 1.574219-3.171875 2.144531-4.929687 1.34375-1.753907-.796875-2.691407-2.726562-2.226563-4.597656 2.855469-11.582031 4.363282-24.730469 4.363282-38.027344 0-25.367187-5.46875-49.085937-14.492188-63.71875-9.023438 14.632813-14.492188 38.351563-14.492188 63.71875 0 13.296875 1.507813 26.445313 4.363282 38.027344.464844 1.871094-.472656 3.800781-2.226563 4.597656-1.757812.800781-3.824219.230469-4.929687-1.34375-4.195313-5.980469-9.074219-11.769531-14.507813-17.199219-13.46875-13.46875-28.859375-23.28125-41.5625-26.710937 3.429688 12.703125 13.242188 28.097656 26.710938 41.566406 4.132812 4.132813 8.523437 7.988281 13.039062 11.457031 1.480469 1.136719 1.976563 3.144532 1.199219 4.839844-.78125 1.699219-2.628906 2.621094-4.453125 2.25-2.039063-.425781-3.914063-.769531-5.714844-1.046875-14.207031-2.191406-27.953125-1.453125-37.566406 1.867188 8.171875 6.054687 21.050781 10.902343 35.257813 13.097656 7.90625 1.214844 15.894531 1.539063 23.097656.941406.105468-.011719.21875-.015625.328125-.015625zm66.949219 3.023438h.023437zm0 0" fill="#690589"/><path d="m389.859375 367.070312h-275.71875c-2.207031 0-4-1.789062-4-4v-339.070312c0-13.234375 10.765625-24 24-24h235.71875c13.234375 0 24 10.765625 24 24v339.070312c0 2.210938-1.792969 4-4 4zm-271.71875-8h267.71875v-335.070312c0-8.820312-7.175781-16-16-16h-235.71875c-8.824219 0-16 7.179688-16 16zm0 0" fill="#690589"/><path d="m162.585938 75.046875c1.367187 4.175781 5.3125 7.214844 9.949218 7.214844 5.769532 0 10.476563-4.710938 10.476563-10.402344v-30.144531c0-2.351563 1.894531-4.175782 4.253906-4.175782 2.277344 0 4.175781 1.824219 4.175781 4.175782v30.144531c0 10.402344-8.503906 18.828125-18.90625 18.828125-8.351562 0-15.488281-5.464844-17.917968-13.058594-.761719-2.277344.53125-4.632812 2.65625-5.238281 2.277343-.761719 4.628906.453125 5.3125 2.65625zm0 0" fill="#690589"/><path d="m245.574219 44.144531c4.710937 5.007813 7.667969 11.691407 7.667969 19.210938 0 7.515625-2.957032 14.273437-7.667969 19.207031-4.476563 4.933594-11.160157 8.125-18.140625 8.125-7.292969 0-13.972656-3.191406-18.605469-8.125-4.707031-4.9375-7.519531-11.691406-7.519531-19.207031 0-7.519531 2.808594-14.203125 7.519531-19.210938 4.628906-5.011719 11.3125-8.125 18.605469-8.125 6.980468 0 13.664062 3.113281 18.140625 8.125zm-.980469 19.210938c0-5.164063-2.050781-9.949219-5.164062-13.289063-3.195313-3.417968-7.445313-5.390625-11.996094-5.390625-4.863282 0-9.117188 1.972657-12.300782 5.390625-3.191406 3.339844-5.164062 8.125-5.164062 13.289063 0 5.164062 1.972656 9.945312 5.164062 13.207031 3.1875 3.417969 7.441407 5.46875 12.300782 5.46875 4.550781 0 8.800781-2.050781 11.996094-5.46875 3.113281-3.261719 5.164062-8.042969 5.164062-13.207031zm0 0" fill="#690589"/><path d="m265.550781 86.511719v-44.796875c0-2.351563 1.898438-4.175782 4.175781-4.175782h10.78125c7.96875 0 14.429688 6.453126 14.429688 14.425782 0 3.265625-1.066406 6.226562-2.886719 8.65625 4.554688 2.886718 7.667969 7.972656 7.667969 13.742187 0 9.035157-7.289062 16.324219-16.246094 16.324219h-13.441406c-.074219 0-.074219-.074219-.074219-.074219-.152343 0-.152343.074219-.230469.074219-2.277343 0-4.175781-1.898438-4.175781-4.175781zm8.429688-28.394531h6.527343c3.34375 0 6-2.8125 6-6.152344s-2.65625-5.996094-6-5.996094h-6.527343zm0 24.144531h9.492187c4.324219-.078125 7.820313-3.492188 7.820313-7.898438 0-4.328125-3.496094-7.742187-7.820313-7.820312h-9.492187zm0 0" fill="#690589"/><path d="m308.984375 77.476562c1.367187-1.671874 3.871094-1.898437 5.542969-.53125 3.339844 2.730469 9.109375 5.921876 14.5 5.84375 3.796875 0 7.214844-1.136718 9.492187-2.808593 2.277344-1.671875 3.265625-3.570313 3.265625-5.464844 0-.988281-.230468-1.671875-.683594-2.429687-.457031-.761719-1.140624-1.519532-2.277343-2.28125-2.203125-1.441407-5.925781-2.730469-10.402344-3.566407h-.152344c-3.570312-.683593-6.910156-1.59375-9.796875-2.960937-2.878906-1.367188-5.386718-3.261719-7.058594-5.921875-1.136718-1.820313-1.742187-3.949219-1.742187-6.226563 0-4.554687 2.574219-8.503906 6.070313-11.085937 3.566406-2.578125 8.203124-4.023438 13.132812-4.023438 7.289062 0 12.679688 3.570313 16.554688 6.074219 1.746093 1.214844 2.277343 3.644531 1.0625 5.390625-1.140626 1.820313-3.570313 2.355469-5.390626 1.136719-3.875-2.582032-7.59375-4.859375-12.226562-4.859375-3.414062 0-6.453125 1.0625-8.503906 2.582031-2.050782 1.519531-2.882813 3.191406-2.882813 4.785156 0 .910156.152344 1.519532.535157 2.125.375.609375 1.0625 1.289063 2.046874 1.972656 1.972657 1.367188 5.390626 2.582032 9.488282 3.339844h.152344c3.875.761719 7.441406 1.746094 10.476562 3.191406 3.113281 1.519532 5.847656 3.492188 7.59375 6.300782 1.140625 1.820312 1.824219 4.101562 1.824219 6.457031 0 4.859375-2.734375 9.035156-6.53125 11.765625-3.71875 2.734375-8.65625 4.328125-14.046875 4.328125-8.199219-.074219-15.109375-4.175781-19.4375-7.589844-1.667969-1.367187-1.898438-3.875-.605469-5.542969zm0 0" fill="#690589"/><path d="m139.765625 105.820312h224.46875v26.78125h-224.46875zm0 0" fill="#fcc24c"/><g fill="#690589"><path d="m364.234375 136.605469h-224.46875c-2.207031 0-4-1.792969-4-4v-26.785157c0-2.207031 1.792969-4 4-4h224.46875c2.207031 0 4 1.792969 4 4v26.785157c0 2.207031-1.789063 4-4 4zm-220.46875-8h216.46875v-18.785157h-216.46875zm0 0"/><path d="m210.03125 164.730469h-70.265625c-2.207031 0-4-1.792969-4-4s1.792969-4 4-4h70.265625c2.207031 0 4 1.792969 4 4s-1.792969 4-4 4zm0 0"/><path d="m210.03125 187.535156h-70.265625c-2.207031 0-4-1.792968-4-4 0-2.207031 1.792969-4 4-4h70.265625c2.207031 0 4 1.792969 4 4 0 2.207032-1.792969 4-4 4zm0 0"/><path d="m190.03125 210.34375h-50.265625c-2.207031 0-4-1.792969-4-4 0-2.210938 1.792969-4 4-4h50.265625c2.207031 0 4 1.789062 4 4 0 2.207031-1.792969 4-4 4zm0 0"/><path d="m364.234375 164.730469h-70.265625c-2.207031 0-4-1.792969-4-4s1.792969-4 4-4h70.265625c2.207031 0 4 1.792969 4 4s-1.789063 4-4 4zm0 0"/><path d="m364.234375 187.535156h-70.265625c-2.207031 0-4-1.792968-4-4 0-2.207031 1.792969-4 4-4h70.265625c2.207031 0 4 1.792969 4 4 0 2.207032-1.789063 4-4 4zm0 0"/><path d="m364.234375 210.34375h-50.265625c-2.207031 0-4-1.792969-4-4 0-2.210938 1.792969-4 4-4h50.265625c2.207031 0 4 1.789062 4 4 0 2.207031-1.789063 4-4 4zm0 0"/><path d="m430.648438 224.207031v-47.601562c0-3.535157 2.945312-6.480469 6.476562-6.480469 3.539062 0 6.363281 2.945312 6.363281 6.480469v47.601562c0 3.652344-2.828125 6.480469-6.363281 6.480469-3.53125 0-6.476562-2.828125-6.476562-6.480469zm6.476562 28.394531c-3.53125 0-6.476562-2.828124-6.476562-6.480468v-2.355469c0-3.535156 2.945312-6.480469 6.476562-6.480469 3.539062 0 6.363281 2.941406 6.363281 6.480469v2.355469c.003907 3.652344-2.824219 6.480468-6.363281 6.480468zm0 0"/><path d="m60.507812 224.207031v-47.601562c0-3.535157 2.945313-6.480469 6.480469-6.480469 3.539063 0 6.363281 2.945312 6.363281 6.480469v47.601562c0 3.652344-2.828124 6.480469-6.363281 6.480469-3.535156 0-6.480469-2.828125-6.480469-6.480469zm6.480469 28.394531c-3.535156 0-6.480469-2.828124-6.480469-6.480468v-2.355469c0-3.535156 2.945313-6.480469 6.480469-6.480469 3.539063 0 6.363281 2.941406 6.363281 6.480469v2.355469c0 3.652344-2.824218 6.480468-6.363281 6.480468zm0 0"/></g></svg>