<svg height="504pt" viewBox="0 -84 504.002 504" width="504pt" xmlns="http://www.w3.org/2000/svg"><path d="m279.597656 331.707031v-21.285156c0-11.757813 9.53125-21.285156 21.285156-21.285156h177.832032c11.753906 0 21.285156 9.527343 21.285156 21.285156v21.285156zm0 0" fill="#7bac51"/><path d="m456.585938 46.574219v199.988281h-133.574219v-199.988281zm0 0" fill="#fcc24c"/><path d="m298.824219 25.289062c0-11.757812 9.53125-21.285156 21.285156-21.285156h139.378906c11.757813 0 21.289063 9.527344 21.289063 21.285156 0 11.757813-9.53125 21.285157-21.289063 21.285157h-139.378906c-11.757813 0-21.285156-9.527344-21.285156-21.285157zm0 0" fill="#ff4397"/><path d="m4 146.570312c0-15.753906 12.769531-28.523437 28.519531-28.523437l290.492188 11.964844v33.109375l-290.492188 11.96875c-15.75 0-28.519531-12.769532-28.519531-28.519532zm0 0" fill="#fcc24c"/><path d="m436.585938 46.574219h20v199.992187h-20zm0 0" fill="#dea42e"/><path d="m323.011719 46.574219h20v199.992187h-20zm0 0" fill="#fce06a"/><path d="m456.585938 75.082031v142.976563h-133.574219v-142.976563zm0 0" fill="#f4efed"/><path d="m456.585938 75.082031v142.976563h-20v-142.976563zm0 0" fill="#d6d1cf"/><path d="m343.011719 75.082031v142.972657h-20v-142.972657zm0 0" fill="#fff"/><path d="m24 146.570312c0-13.773437 9.765625-25.265624 22.746094-27.9375l-14.222656-.585937c-15.753907 0-28.523438 12.769531-28.523438 28.519531 0 15.753906 12.769531 28.519532 28.523438 28.519532l14.222656-.585938c-12.980469-2.664062-22.746094-14.15625-22.746094-27.929688zm0 0" fill="#fce06a"/><path d="m298.824219 267.847656c0-11.753906 9.53125-21.285156 21.285156-21.285156h139.378906c11.757813 0 21.289063 9.53125 21.289063 21.285156 0 11.757813-9.53125 21.289063-21.289063 21.289063h-139.378906c-11.757813 0-21.285156-9.53125-21.285156-21.289063zm0 0" fill="#ff4397"/><path d="m478.714844 289.136719h-20c11.753906 0 21.285156 9.527343 21.285156 21.285156v21.285156h20v-21.285156c0-11.757813-9.53125-21.285156-21.285156-21.285156zm0 0" fill="#5d8e33"/><path d="m300.882812 289.136719h20c-11.753906 0-21.285156 9.527343-21.285156 21.285156v21.285156h-20v-21.285156c0-11.757813 9.53125-21.285156 21.285156-21.285156zm0 0" fill="#99ca6f"/><path d="m459.488281 4.003906h-20c11.757813 0 21.289063 9.527344 21.289063 21.285156 0 11.757813-9.53125 21.285157-21.289063 21.285157h20c11.757813 0 21.289063-9.527344 21.289063-21.285157 0-11.757812-9.53125-21.285156-21.289063-21.285156zm0 0" fill="#e12579"/><path d="m459.488281 246.566406h-20c11.757813 0 21.289063 9.527344 21.289063 21.28125 0 11.757813-9.53125 21.289063-21.289063 21.289063h20c11.757813 0 21.289063-9.53125 21.289063-21.289063 0-11.753906-9.53125-21.28125-21.289063-21.28125zm0 0" fill="#e12579"/><path d="m320.109375 289.136719h20c-11.757813 0-21.289063-9.53125-21.289063-21.289063 0-11.753906 9.53125-21.285156 21.289063-21.285156h-20c-11.757813 0-21.289063 9.53125-21.289063 21.285156.003907 11.757813 9.53125 21.289063 21.289063 21.289063zm0 0" fill="#ff61b5"/><path d="m320.109375 46.574219h20c-11.757813 0-21.289063-9.527344-21.289063-21.285157 0-11.757812 9.53125-21.285156 21.289063-21.285156h-20c-11.757813 0-21.289063 9.527344-21.289063 21.285156.003907 11.757813 9.53125 21.285157 21.289063 21.285157zm0 0" fill="#ff61b5"/><g fill="#690589"><path d="m32.679688 179.085938c-18.09375 0-32.679688-14.585938-32.679688-32.515626 0-17.933593 14.589844-32.523437 32.523438-32.523437l290.65625 11.96875c2.140624.085937 3.832031 1.851563 3.832031 3.996094v33.113281c0 2.144531-1.691407 3.90625-3.832031 3.996094l-290.492188 11.964844c-.003906 0-.007812 0-.007812 0zm-.324219-57.039063c-13.355469.003906-24.355469 11.003906-24.355469 24.523437 0 13.519532 11 24.519532 24.523438 24.519532l286.492187-11.800782v-25.4375zm0 0"/><path d="m76.171875 139.859375c-.058594 0-.113281-.003906-.167969-.003906l-24-.988281c-2.210937-.089844-3.925781-1.953126-3.832031-4.160157.089844-2.207031 1.925781-3.925781 4.160156-3.832031l24 .988281c2.207031.089844 3.921875 1.953125 3.832031 4.160157-.089843 2.152343-1.863281 3.835937-3.992187 3.835937zm0 0"/><path d="m456.585938 250.5625h-133.574219c-2.207031 0-4-1.792969-4-4v-199.988281c0-2.210938 1.792969-4 4-4h133.574219c2.207031 0 4 1.789062 4 4v199.988281c0 2.210938-1.792969 4-4 4zm-129.574219-8h125.574219v-191.988281h-125.574219zm0 0"/><path d="m456.585938 222.058594h-133.574219c-2.207031 0-4-1.792969-4-4v-142.976563c0-2.210937 1.792969-4 4-4h133.574219c2.207031 0 4 1.789063 4 4v142.976563c0 2.207031-1.792969 4-4 4zm-129.574219-8h125.574219v-134.976563h-125.574219zm0 0"/><path d="m459.488281 293.136719h-139.378906c-13.941406 0-25.285156-11.34375-25.285156-25.289063 0-13.941406 11.339843-25.285156 25.285156-25.285156h139.378906c13.945313 0 25.289063 11.34375 25.289063 25.285156 0 13.945313-11.34375 25.289063-25.289063 25.289063zm-139.378906-42.574219c-9.535156 0-17.289063 7.753906-17.289063 17.285156 0 9.535156 7.753907 17.289063 17.289063 17.289063h139.378906c9.53125 0 17.285157-7.753907 17.285157-17.289063 0-9.53125-7.753907-17.285156-17.285157-17.285156zm0 0"/><path d="m500 335.707031h-220.402344c-2.207031 0-4-1.792969-4-4v-21.285156c0-13.941406 11.34375-25.285156 25.285156-25.285156h177.832032c13.941406 0 25.289062 11.34375 25.289062 25.285156v21.285156c-.003906 2.207031-1.796875 4-4.003906 4zm-216.402344-8h212.402344v-17.285156c0-9.53125-7.753906-17.285156-17.285156-17.285156h-177.832032c-9.53125 0-17.285156 7.753906-17.285156 17.285156zm0 0"/><path d="m459.488281 50.574219h-139.378906c-13.941406 0-25.285156-11.34375-25.285156-25.289063 0-13.941406 11.339843-25.285156 25.285156-25.285156h139.378906c13.945313 0 25.289063 11.34375 25.289063 25.285156 0 13.945313-11.34375 25.289063-25.289063 25.289063zm-139.378906-42.570313c-9.535156 0-17.289063 7.753906-17.289063 17.285156s7.753907 17.285157 17.289063 17.285157h139.378906c9.53125 0 17.285157-7.753907 17.285157-17.285157s-7.753907-17.285156-17.285157-17.285156zm0 0"/><path d="m389.796875 222.058594c-2.207031 0-4-1.792969-4-4v-50.875c0-2.207032 1.792969-4 4-4 2.210937 0 4 1.792968 4 4v50.875c0 2.207031-1.789063 4-4 4zm0 0"/></g><path d="m432.910156 171.546875c17.710938-2.730469 32.492188-9.472656 39.769532-17.226563-9.277344-5.199218-25.402344-7.175781-43.113282-4.445312-1.910156.292969-3.777344.644531-5.613281 1.027344 4.292969-3.296875 8.578125-7.03125 12.730469-11.183594 15.882812-15.886719 25.832031-33.652344 27.445312-46.882812-13.230468 1.613281-31 11.5625-46.882812 27.445312-5.464844 5.464844-10.207032 11.148438-14.167969 16.800781 2.707031-10.976562 4.246094-23.5625 4.246094-36.941406 0-28.648437-7.050781-53.640625-17.523438-67.027344-10.476562 13.386719-17.527343 38.378907-17.527343 67.027344 0 13.378906 1.539062 25.960937 4.25 36.941406-3.964844-5.648437-8.707032-11.335937-14.167969-16.800781-15.886719-15.882812-33.652344-25.832031-46.882813-27.445312 1.613282 13.230468 11.5625 30.996093 27.445313 46.882812 4.152343 4.148438 8.433593 7.886719 12.726562 11.183594-1.835937-.382813-3.703125-.734375-5.613281-1.027344-17.710938-2.730469-33.835938-.753906-43.109375 4.445312 7.277344 7.753907 22.058594 14.496094 39.769531 17.226563 8.09375 1.25 15.847656 1.503906 22.777344.925781-1.742188 1.042969-3.492188 2.199219-5.222656 3.464844-9.164063 6.71875-15.507813 14.832031-17.332032 21.324219 6.738282.210937 16.386719-3.390625 25.554688-10.109375 8.457031-6.199219 14.5-13.582032 16.820312-19.789063.136719-.070312.285157-.136719.417969-.210937.03125.003906.0625.011718.09375.015625.035157-.003907.066407-.011719.097657-.015625.132812.074218.28125.140625.417968.210937 2.320313 6.207031 8.363282 13.589844 16.820313 19.789063 9.167969 6.714844 18.816406 10.320312 25.554687 10.109375-1.824218-6.492188-8.167968-14.605469-17.335937-21.324219-1.730469-1.265625-3.476563-2.421875-5.21875-3.464844 6.925781.578125 14.679687.324219 22.773437-.925781zm0 0" fill="#7bac51"/><path d="m432.117188 201.269531c-7.835938 0-17.992188-4.035156-27.347657-10.890625-6.332031-4.640625-11.53125-9.992187-14.96875-15.308594-3.4375 5.316407-8.636719 10.667969-14.972656 15.308594-9.632813 7.058594-20.152344 11.101563-28.039063 10.878906-1.230468-.039062-2.375-.640624-3.101562-1.632812s-.957031-2.265625-.625-3.449219c1.765625-6.269531 6.832031-13.3125 13.929688-19.542969-3.578126-.1875-7.222657-.5625-10.910157-1.132812-18.128906-2.792969-33.859375-9.6875-42.074219-18.441406-.84375-.898438-1.226562-2.132813-1.039062-3.347656.1875-1.214844.921875-2.277344 1.996094-2.878907 8.902344-4.988281 22.582031-7.0625 37.617187-5.855469-.839843-.796874-1.671875-1.609374-2.488281-2.429687-16.109375-16.105469-26.792969-34.507813-28.589844-49.226563-.148437-1.21875.273438-2.441406 1.140625-3.3125.871094-.871093 2.097657-1.292968 3.3125-1.140624 14.722657 1.796874 33.121094 12.484374 49.226563 28.589843 1.546875 1.546875 3.050781 3.125 4.507812 4.726563-.933594-7.140625-1.414062-14.574219-1.414062-22.042969 0-28.804687 6.867187-54.785156 18.375-69.488281 1.519531-1.9375 4.785156-1.9375 6.300781 0 11.503906 14.703125 18.375 40.679687 18.375 69.488281 0 7.46875-.480469 14.898437-1.417969 22.042969 1.460938-1.601563 2.960938-3.179688 4.507813-4.726563 16.105469-16.105469 34.507812-26.792969 49.226562-28.589843 1.21875-.152344 2.445313.269531 3.3125 1.140624.871094.871094 1.292969 2.09375 1.144531 3.3125-1.796874 14.71875-12.484374 33.121094-28.589843 49.226563-.820313.820313-1.648438 1.628906-2.488281 2.429687 15.039062-1.210937 28.710937.867188 37.613281 5.855469 1.074219.601563 1.8125 1.664063 2 2.878907.1875 1.214843-.195313 2.449218-1.039063 3.347656-8.214844 8.753906-23.945312 15.644531-42.074218 18.441406-3.6875.570312-7.332032.949219-10.914063 1.132812 7.097656 6.230469 12.167969 13.273438 13.929687 19.542969.335938 1.183594.101563 2.457031-.625 3.449219-.726562.992188-1.871093 1.59375-3.097656 1.632812-.230468.007813-.464844.011719-.699218.011719zm-42.015626-38.101562c.609376.039062 1.21875.199219 1.734376.484375l.382812.195312c.847656.460938 1.5 1.210938 1.839844 2.117188 2.144531 5.730468 7.914062 12.449218 15.4375 17.960937 5.519531 4.042969 11.367187 6.992188 16.464844 8.402344-2.882813-4.433594-7.457032-9.125-12.976563-13.164063-1.59375-1.167968-3.246094-2.265624-4.90625-3.257812-1.597656-.957031-2.324219-2.886719-1.757813-4.660156.570313-1.769532 2.300782-2.917969 4.140626-2.761719 6.824218.570313 14.375.257813 21.835937-.890625 13.246094-2.042969 25.269531-6.527344 33-12.132812-9.058594-3.023438-21.871094-3.675782-35.121094-1.632813-1.726562.269531-3.496093.59375-5.402343.992187-1.828126.390626-3.675782-.546874-4.457032-2.246093-.78125-1.695313-.28125-3.707031 1.199219-4.839844 4.277344-3.289063 8.425781-6.933594 12.335937-10.84375 12.613282-12.617187 21.832032-27.007813 25.160157-38.941406-11.933594 3.324219-26.328125 12.546875-38.941407 25.160156-5.136718 5.140625-9.753906 10.617187-13.722656 16.269531-1.105468 1.574219-3.175781 2.144532-4.929687 1.34375-1.753907-.796875-2.6875-2.726562-2.226563-4.601562 2.703125-10.953125 4.128906-23.394532 4.128906-35.980469 0-23.835937-5.101562-46.125-13.523437-59.976563-8.425781 13.855469-13.527344 36.140626-13.527344 59.976563 0 12.585937 1.429688 25.027344 4.128907 35.984375.460937 1.871094-.472657 3.800781-2.226563 4.597656-1.75.800782-3.824219.230469-4.929687-1.34375-3.96875-5.65625-8.585938-11.128906-13.722657-16.269531-12.613281-12.613281-27.007812-21.835937-38.941406-25.160156 3.324219 11.933593 12.546875 26.324219 25.164063 38.941406 3.910156 3.910156 8.058593 7.554687 12.335937 10.84375 1.480469 1.132813 1.976563 3.144531 1.199219 4.839844-.78125 1.699219-2.628906 2.640625-4.457032 2.246093-1.914062-.402343-3.683593-.726562-5.40625-.992187-13.25-2.042969-26.0625-1.386719-35.117187 1.632813 7.726563 5.609374 19.75 10.089843 32.996094 12.132812 7.460937 1.148438 15.011719 1.460938 21.835937.890625 1.851563-.152344 3.570313.992187 4.140625 2.765625.570313 1.769531-.160156 3.699219-1.757812 4.65625-1.65625.988281-3.308594 2.085938-4.90625 3.257812-5.515625 4.039063-10.089844 8.730469-12.972657 13.164063 5.09375-1.410156 10.941407-4.359375 16.460938-8.402344 7.523438-5.511719 13.296875-12.226562 15.441406-17.960937.335938-.898438.984375-1.648438 1.828125-2.109375l.335938-.175781c.453125-.226563 1.035156-.410157 1.597656-.484376.066406-.007812.128906-.015624.191406-.019531.214844-.019531.417969-.019531.613281-.007812zm0 0" fill="#690589"/></svg>