<svg height="503pt" viewBox="0 -67 503.997 503" width="503pt" xmlns="http://www.w3.org/2000/svg"><path d="m392.453125 10.441406c-3.804687-3.804687-8.964844-5.941406-14.34375-5.941406h-231.152344c-5.382812 0-10.542969 2.136719-14.34375 5.941406l-107.546875 107.546875 60.082032 60.082031 45.773437-45.777343v232.699219h263.21875v-232.699219l45.777344 45.777343 60.082031-60.082031zm0 0" fill="#d6d1cf"/><path d="m262.53125 69.976562c-33.296875 0-60.289062-26.988281-60.289062-60.285156v-5.191406h120.578124v5.191406c0 33.296875-26.992187 60.285156-60.289062 60.285156zm0 0" fill="#d6d1cf"/><path d="m394.140625 368.992188h-263.21875c-2.207031 0-4-1.792969-4-4v-223.042969l-38.945313 38.953125c-1.5 1.5-4.15625 1.5-5.65625 0l-60.082031-60.085938c-1.5625-1.5625-1.5625-4.09375 0-5.65625l107.542969-107.542968c4.585938-4.589844 10.6875-7.117188 17.175781-7.117188h231.148438c6.488281 0 12.589843 2.527344 17.175781 7.117188l107.542969 107.542968c1.5625 1.5625 1.5625 4.09375 0 5.65625l-60.082031 60.082032c-1.5625 1.5625-4.09375 1.5625-5.65625 0l-38.949219-38.949219v223.042969c.003906 2.210937-1.789063 4-3.996094 4zm-259.21875-8h255.21875v-228.699219c0-1.617188.972656-3.078125 2.46875-3.695313 1.492187-.625 3.210937-.277344 4.359375.867188l42.949219 42.949218 54.425781-54.425781-104.714844-104.714843c-3.078125-3.078126-7.167968-4.773438-11.519531-4.773438h-231.152344c-4.355469 0-8.445312 1.695312-11.515625 4.773438l-104.71875 104.714843 54.425782 54.425781 42.945312-42.949218c1.144531-1.144532 2.863281-1.488282 4.363281-.867188 1.492188.617188 2.464844 2.078125 2.464844 3.695313zm0 0" fill="#690589"/><path d="m262.535156 73.976562c-35.453125 0-64.292968-28.839843-64.292968-64.289062v-5.1875c0-2.210938 1.792968-4 4-4h120.578124c2.210938 0 4 1.789062 4 4v5.1875c0 35.449219-28.839843 64.289062-64.285156 64.289062zm-56.292968-65.476562v1.191406c0 31.035156 25.253906 56.289063 56.292968 56.289063 31.035156 0 56.289063-25.253907 56.289063-56.289063v-1.191406zm0 0" fill="#690589"/><path d="m371.386719 10.441406c-3.804688-3.804687-8.964844-5.941406-14.34375-5.941406h-231.152344c-5.382813 0-10.542969 2.136719-14.34375 5.941406l-107.546875 107.546875 60.082031 60.082031 45.777344-45.777343v232.699219h263.214844v-232.699219l45.773437 45.777343 60.082032-60.082031zm0 0" fill="#f4efed"/><path d="m468.367188 107.421875-59.796876 59.296875v1.066406c5.96875 5.972656 10.28125 10.285156 10.28125 10.285156l60.082032-60.082031zm0 0" fill="#d6d1cf"/><path d="m373.074219 209.59375v-77.46875l-2.078125-2.078125c-6.300782-6.300781-17.070313-1.839844-17.070313 7.070313v227.875h19.148438zm0 0" fill="#d6d1cf"/><path d="m14.566406 107.421875 59.800782 59.296875v1.066406c-5.972657 5.972656-10.285157 10.285156-10.285157 10.285156l-60.082031-60.082031zm0 0" fill="#fff"/><path d="m109.859375 209.59375v-77.46875l2.078125-2.078125c6.300781-6.300781 17.070312-1.839844 17.070312 7.070313v227.875h-19.148437zm0 0" fill="#fff"/><path d="m241.46875 69.976562c-33.296875 0-60.289062-26.988281-60.289062-60.285156v-5.191406h120.578124v5.191406c-.003906 33.296875-26.996093 60.285156-60.289062 60.285156zm0 0" fill="#d6d1cf"/><g fill="#690589"><path d="m373.074219 368.992188h-263.214844c-2.207031 0-4-1.792969-4-4v-223.042969l-38.949219 38.953125c-1.5625 1.558594-4.09375 1.558594-5.65625 0l-60.082031-60.085938c-1.5625-1.5625-1.5625-4.09375 0-5.65625l107.542969-107.542968c4.589844-4.589844 10.6875-7.117188 17.175781-7.117188h231.152344c6.488281 0 12.585937 2.527344 17.171875 7.117188l107.542968 107.542968c1.5625 1.5625 1.5625 4.09375 0 5.65625l-60.082031 60.082032c-1.5 1.5-4.152343 1.5-5.652343 0l-38.949219-38.949219v223.042969c0 2.210937-1.789063 4-4 4zm-259.214844-8h255.214844v-228.699219c0-1.617188.976562-3.078125 2.46875-3.695313 1.496093-.625 3.210937-.277344 4.359375.867188l42.949218 42.949218 54.425782-54.425781-104.71875-104.714843c-3.074219-3.078126-7.164063-4.773438-11.515625-4.773438h-231.152344c-4.351563 0-8.441406 1.695312-11.519531 4.773438l-104.714844 104.714843 54.425781 54.425781 42.949219-42.949218c1.144531-1.144532 2.859375-1.488282 4.359375-.867188 1.496094.617188 2.46875 2.078125 2.46875 3.695313zm0 0"/><path d="m72.910156 74.746094c-1.023437 0-2.046875-.390625-2.828125-1.171875-1.5625-1.5625-1.5625-4.097657 0-5.65625l24-24c1.5625-1.5625 4.09375-1.5625 5.65625 0 1.5625 1.558593 1.5625 4.09375 0 5.65625l-24 24c-.78125.78125-1.804687 1.171875-2.828125 1.171875zm0 0"/><path d="m241.464844 73.976562c-35.449219 0-64.289063-28.839843-64.289063-64.289062v-5.1875c0-2.210938 1.792969-4 4-4h120.578125c2.207032 0 4 1.789062 4 4v5.1875c0 35.449219-28.839844 64.289062-64.289062 64.289062zm-56.289063-65.476562v1.191406c0 31.035156 25.253907 56.289063 56.292969 56.289063 31.035156 0 56.289062-25.253907 56.289062-56.289063v-1.191406zm0 0"/></g><path d="m293.8125 278.019531c21.503906-3.316406 39.449219-11.503906 48.285156-20.917969-11.261718-6.3125-30.839844-8.714843-52.34375-5.398437-2.320312.359375-4.589844.785156-6.820312 1.25 5.214844-4.003906 10.414062-8.539063 15.457031-13.582031 19.285156-19.285156 31.363281-40.859375 33.324219-56.921875-16.066406 1.960937-37.640625 14.039062-56.925782 33.324219-6.632812 6.632812-12.390624 13.539062-17.203124 20.398437 3.289062-13.328125 5.160156-28.605469 5.160156-44.855469 0-34.78125-8.5625-65.125-21.28125-81.378906-12.714844 16.253906-21.28125 46.597656-21.28125 81.378906 0 16.25 1.871094 31.527344 5.15625 44.855469-4.808594-6.859375-10.566406-13.761719-17.199219-20.398437-19.289063-19.285157-40.859375-31.363282-56.921875-33.324219 1.957031 16.0625 14.035156 37.636719 33.324219 56.921875 5.039062 5.042968 10.238281 9.578125 15.453125 13.582031-2.230469-.464844-4.5-.894531-6.820313-1.25-21.503906-3.316406-41.082031-.914063-52.34375 5.398437 8.835938 9.414063 26.785157 17.597657 48.289063 20.917969 9.828125 1.515625 19.242187 1.824219 27.65625 1.121094-2.117188 1.265625-4.238282 2.667969-6.339844 4.210937-11.128906 8.152344-18.828125 18.007813-21.046875 25.886719 8.179687.257813 19.898437-4.117187 31.023437-12.273437 10.269532-7.523438 17.609376-16.492188 20.425782-24.023438.167968-.089844.34375-.171875.507812-.261718.039063.007812.078125.015624.117188.019531.035156-.003907.078125-.015625.113281-.019531.164063.089843.339844.171874.507813.261718 2.816406 7.53125 10.15625 16.5 20.425781 24.023438 11.128906 8.15625 22.84375 12.53125 31.027343 12.273437-2.21875-7.878906-9.921874-17.734375-21.050781-25.886719-2.097656-1.542968-4.222656-2.945312-6.335937-4.210937 8.417968.703125 17.828125.394531 27.660156-1.121094zm0 0" fill="#7bac51"/><path d="m241.464844 322.371094c-2.207032 0-4-1.789063-4-4v-40.984375c0-2.207031 1.792968-4 4-4 2.207031 0 4 1.792969 4 4v40.984375c0 2.210937-1.789063 4-4 4zm0 0" fill="#690589"/><path d="m292.835938 313.25c-9.332032 0-21.464844-4.835938-32.6875-13.054688-8.070313-5.914062-14.59375-12.769531-18.683594-19.511718-4.085938 6.742187-10.613282 13.597656-18.679688 19.511718-11.554687 8.464844-24.074218 13.277344-33.523437 13.042969-1.226563-.042969-2.371094-.644531-3.097657-1.636719-.726562-.992187-.957031-2.261718-.625-3.445312 2.234376-7.9375 8.941407-16.933594 18.296876-24.722656-5.007813-.171875-10.128907-.660156-15.328126-1.460938-21.832031-3.367187-40.742187-11.636718-50.59375-22.128906-.839843-.898438-1.222656-2.132812-1.035156-3.347656s.921875-2.277344 1.996094-2.878906c11.152344-6.25 28.59375-8.683594 47.65625-6.78125-1.636719-1.507813-3.242188-3.054688-4.820312-4.632813-19.421876-19.421875-32.308594-41.574219-34.46875-59.265625-.148438-1.21875.273437-2.441406 1.144531-3.3125.867187-.867188 2.085937-1.285156 3.3125-1.140625 17.683593 2.15625 39.839843 15.042969 59.265625 34.464844 2.539062 2.539062 4.980468 5.140625 7.3125 7.800781-1.378906-9.472656-2.097656-19.421875-2.097656-29.425781 0-34.792969 8.277343-66.136719 22.128906-83.847657 1.515625-1.9375 4.785156-1.9375 6.300781 0 13.855469 17.710938 22.128906 49.054688 22.128906 83.847657 0 10.003906-.714843 19.953125-2.09375 29.425781 2.332031-2.660156 4.773438-5.261719 7.3125-7.800781 19.421875-19.425781 41.578125-32.308594 59.265625-34.464844 1.226563-.148437 2.441406.273437 3.3125 1.140625.871094.871094 1.289063 2.09375 1.140625 3.3125-2.160156 17.6875-15.042969 39.84375-34.464843 59.265625-1.578126 1.578125-3.183594 3.125-4.820313 4.632813 19.050781-1.902344 36.503906.53125 47.652344 6.78125 1.074219.601562 1.808593 1.664062 2 2.878906.1875 1.214844-.199219 2.449218-1.039063 3.347656-9.851562 10.492188-28.761718 18.765625-50.59375 22.128906-5.199218.800782-10.320312 1.289063-15.328125 1.460938 9.359375 7.792968 16.0625 16.789062 18.296875 24.722656.335938 1.183594.105469 2.453125-.625 3.445312-.726562.992188-1.867187 1.597657-3.097656 1.636719-.261719.007813-.539062.011719-.820312.011719zm-51.046876-44.546875c.601563.039063 1.207032.191406 1.714844.46875l.488282.25c.851562.457031 1.503906 1.210937 1.84375 2.117187 2.660156 7.113282 9.78125 15.410157 19.042968 22.203126 7.515625 5.507812 15.550782 9.363281 22.304688 10.839843-3.445313-5.992187-9.542969-12.496093-17.058594-18.003906-1.960938-1.441406-3.988281-2.789063-6.023438-4-1.597656-.957031-2.324218-2.886719-1.757812-4.65625.570312-1.773437 2.300781-2.910156 4.140625-2.765625 8.335937.695312 17.570313.316406 26.714844-1.089844 16.953125-2.617187 32.289062-8.515625 41.71875-15.855468-11.199219-4.164063-27.605469-5.167969-44.558594-2.550782-2.082031.320313-4.246094.714844-6.609375 1.210938-1.835938.375-3.675781-.550782-4.453125-2.246094-.78125-1.695312-.285156-3.707031 1.195313-4.84375 5.234374-4.019531 10.300781-8.472656 15.066406-13.238281 15.914062-15.914063 27.417968-34.179688 31.144531-49.085938-14.90625 3.726563-33.171875 15.230469-49.085937 31.144531-6.273438 6.269532-11.90625 12.953126-16.757813 19.867188-1.109375 1.574219-3.175781 2.148438-4.933594 1.347656-1.75-.796875-2.6875-2.730468-2.222656-4.601562 3.292969-13.367188 5.039063-28.546875 5.039063-43.894532 0-29.765624-6.539063-57.578124-17.28125-74.441406-10.742188 16.863282-17.28125 44.675782-17.28125 74.441406 0 15.351563 1.746093 30.53125 5.042968 43.890626.460938 1.871093-.472656 3.804687-2.226562 4.601562-1.75.800781-3.824219.230469-4.929688-1.34375-4.847656-6.910156-10.484375-13.59375-16.757812-19.867188-15.917969-15.914062-34.183594-27.417968-49.089844-31.144531 3.730469 14.90625 15.234375 33.171875 31.148438 49.085938 4.769531 4.773437 9.835937 9.226562 15.0625 13.238281 1.476562 1.136719 1.976562 3.148438 1.199218 4.84375-.78125 1.695312-2.621094 2.625-4.457031 2.246094-2.363281-.496094-4.523437-.890625-6.609375-1.210938-16.949219-2.617187-33.355469-1.613281-44.558594 2.550782 9.425782 7.339843 24.769532 13.238281 41.722656 15.855468 9.144532 1.40625 18.378907 1.789063 26.714844 1.089844 1.835938-.140625 3.566406.992188 4.136719 2.765625.570313 1.769531-.160156 3.699219-1.757813 4.65625-2.039062 1.214844-4.066406 2.5625-6.023437 4-7.515625 5.507813-13.617187 12.011719-17.058594 18.003906 6.753907-1.476562 14.792969-5.332031 22.308594-10.839843 9.261719-6.792969 16.378906-15.089844 19.042969-22.203126.335937-.898437.984375-1.644531 1.824218-2.105468l.375-.195313c.734376-.398437 1.664063-.617187 2.5-.535156zm52.019532 9.316406h.019531zm0 0" fill="#690589"/></svg>