<svg height="504pt" viewBox="-33 0 504 504" width="504pt" xmlns="http://www.w3.org/2000/svg"><path d="m353.9375 459.484375v-435.484375c0-11.046875-8.953125-20-20-20h-309.9375c-11.046875 0-20 8.953125-20 20v456c0 11.046875 8.953125 20 20 20h370.453125c-22.375 0-40.515625-18.140625-40.515625-40.515625zm0 0" fill="#f4efed"/><path d="m24 480v-456c0-11.046875 8.953125-20 20-20h-20c-11.046875 0-20 8.953125-20 20v456c0 11.046875 8.953125 20 20 20h20c-11.046875 0-20-8.953125-20-20zm0 0" fill="#fff"/><path d="m353.9375 459.484375v-435.484375c0-11.046875-8.953125-20-20-20h-20c11.046875 0 20 8.953125 20 20v435.484375c0 22.378906 18.140625 40.519531 40.515625 40.519531h20c-22.375-.003906-40.515625-18.144531-40.515625-40.519531zm0 0" fill="#d6d1cf"/><path d="m394.453125 504h-370.453125c-13.234375 0-24-10.765625-24-24v-456c0-13.234375 10.765625-24 24-24h309.9375c13.234375 0 24 10.765625 24 24v435.484375c0 20.132813 16.378906 36.515625 36.515625 36.515625 2.207031 0 4 1.792969 4 4s-1.792969 4-4 4zm-370.453125-496c-8.820312 0-16 7.179688-16 16v456c0 8.820312 7.179688 16 16 16h345.019531c-11.53125-8.050781-19.082031-21.417969-19.082031-36.515625v-435.484375c0-8.820312-7.175781-16-16-16zm0 0" fill="#690589"/><path d="m394.492188 504c-2.207032 0-4.011719-1.792969-4.011719-4s1.785156-4 3.992187-4h.019532c2.210937 0 4 1.792969 4 4s-1.789063 4-4 4zm0 0" fill="#690589"/><path d="m20 234.769531c-2.207031 0-4-1.792969-4-4v-24c0-2.207031 1.792969-4 4-4s4 1.792969 4 4v24c0 2.207031-1.792969 4-4 4zm0 0" fill="#690589"/><path d="m30.371094 28.960938h297.195312v44.089843h-297.195312zm0 0" fill="#fcc24c"/><path d="m394.453125 500c-22.375 0-40.515625-18.140625-40.515625-40.515625v-133.386719h81.03125v133.386719c0 22.375-18.140625 40.515625-40.515625 40.515625zm0 0" fill="#d6d1cf"/><path d="m233.324219 318.320312c22.332031-3.445312 40.96875-11.945312 50.144531-21.71875-11.691406-6.558593-32.023438-9.050781-54.355469-5.609374-2.410156.375-4.765625.8125-7.082031 1.296874 5.417969-4.15625 10.816406-8.867187 16.046875-14.101562 20.03125-20.03125 32.570313-42.433594 34.609375-59.113281-16.683594 2.035156-39.085938 14.578125-59.113281 34.605469-6.890625 6.890624-12.871094 14.058593-17.863281 21.183593 3.414062-13.839843 5.355468-29.707031 5.355468-46.582031 0-36.117188-8.890625-67.632812-22.097656-84.507812-13.207031 16.875-22.097656 48.386718-22.097656 84.507812 0 16.871094 1.941406 32.742188 5.355468 46.578125-4.996093-7.121094-10.972656-14.292969-17.863281-21.179687-20.027343-20.03125-42.433593-32.570313-59.113281-34.609376 2.035156 16.683594 14.578125 39.085938 34.605469 59.113282 5.238281 5.238281 10.632812 9.945312 16.046875 14.105468-2.3125-.484374-4.671875-.925781-7.078125-1.296874-22.332031-3.445313-42.664063-.949219-54.359375 5.605468 9.175781 9.773438 27.8125 18.277344 50.144531 21.71875 10.207031 1.574219 19.984375 1.894532 28.71875 1.167969-2.195313 1.3125-4.398437 2.773437-6.582031 4.371094-11.554688 8.46875-19.550782 18.703125-21.855469 26.882812 8.496094.269531 20.664063-4.273437 32.21875-12.742187 10.664063-7.8125 18.285156-17.128906 21.210937-24.949219.171876-.09375.359376-.179687.527344-.269531.039063.003906.082032.011718.121094.015625.039062-.003907.078125-.011719.121094-.015625.167968.09375.351562.175781.523437.269531 2.925781 7.820313 10.546875 17.136719 21.210938 24.949219 11.558593 8.46875 23.726562 13.011718 32.222656 12.742187-2.304687-8.179687-10.304687-18.414062-21.859375-26.882812-2.179688-1.597657-4.382812-3.054688-6.578125-4.371094 8.734375.730469 18.511719.40625 28.714844-1.164063zm0 0" fill="#7bac51"/><g fill="#690589"><path d="m178.96875 364.222656c-2.207031 0-4-1.789062-4-4v-42.558594c0-2.207031 1.792969-4 4-4s4 1.792969 4 4v42.558594c0 2.210938-1.789062 4-4 4zm0 0"/><path d="m125.617188 354.753906c-.289063 0-.570313-.007812-.851563-.015625-1.230469-.039062-2.375-.640625-3.101563-1.632812-.726562-.992188-.957031-2.261719-.625-3.449219 2.335938-8.296875 9.40625-17.722656 19.265626-25.855469-5.328126-.167969-10.777344-.675781-16.304688-1.53125-22.632812-3.488281-42.242188-12.0625-52.453125-22.933593-.839844-.894532-1.222656-2.128907-1.035156-3.347657.183593-1.21875.921875-2.277343 1.996093-2.878906 11.640626-6.527344 29.914063-9.03125 49.859376-6.976563-1.8125-1.664062-3.597657-3.371093-5.34375-5.117187-20.144532-20.148437-33.511719-43.125-35.746094-61.460937-.148438-1.21875.269531-2.441407 1.140625-3.3125.871093-.867188 2.089843-1.28125 3.3125-1.140626 18.332031 2.238282 41.304687 15.601563 61.457031 35.75 2.757812 2.757813 5.40625 5.589844 7.929688 8.484376-1.480469-9.984376-2.25-20.488282-2.25-31.050782 0-36.101562 8.578124-68.613281 22.949218-86.976562 1.515625-1.9375 4.785156-1.9375 6.300782 0 14.367187 18.363281 22.945312 50.878906 22.945312 86.976562 0 10.5625-.765625 21.066406-2.25 31.050782 2.527344-2.894532 5.175781-5.726563 7.933594-8.484376 20.148437-20.148437 43.125-33.511718 61.457031-35.75 1.226563-.15625 2.445313.273438 3.3125 1.140626.871094.871093 1.292969 2.09375 1.140625 3.3125-2.238281 18.335937-15.601562 41.3125-35.75 61.460937-1.746094 1.746094-3.527344 3.453125-5.34375 5.117187 19.945312-2.058593 38.214844.449219 49.863281 6.976563 1.070313.601563 1.808594 1.664063 1.996094 2.878906.1875 1.214844-.195313 2.453125-1.039063 3.347657-10.203124 10.871093-29.8125 19.445312-52.449218 22.933593-5.53125.855469-10.980469 1.363281-16.304688 1.53125 9.855469 8.128907 16.929688 17.554688 19.265625 25.855469.332031 1.183594.101563 2.457031-.625 3.449219-.726562.992187-1.871093 1.59375-3.101562 1.632812-9.734375.335938-22.738281-4.746093-34.710938-13.515625-8.449219-6.195312-15.265625-13.382812-19.492187-20.4375-4.222656 7.054688-11.039063 14.242188-19.492188 20.4375-11.617187 8.515625-24.195312 13.527344-33.855468 13.53125zm27.714843-39.269531c1.722657 0 3.273438 1.113281 3.804688 2.777344.570312 1.773437-.15625 3.703125-1.753907 4.660156-2.113281 1.261719-4.222656 2.664063-6.269531 4.160156-7.945312 5.820313-14.371093 12.714844-17.925781 19.042969 7.105469-1.484375 15.613281-5.535156 23.554688-11.355469 9.644531-7.066406 17.058593-15.710937 19.832031-23.125.339843-.914062 1-1.671875 1.863281-2.125l.347656-.179687c.664063-.367188 1.519532-.558594 2.304688-.5625.679687 0 1.351562.171875 1.949218.507812l.457032.234375c.863281.457031 1.523437 1.210938 1.863281 2.125 2.773437 7.414063 10.1875 16.058594 19.832031 23.125 7.941406 5.820313 16.453125 9.871094 23.554688 11.355469-3.554688-6.328125-9.980469-13.222656-17.925782-19.042969-2.042968-1.496093-4.15625-2.898437-6.269531-4.160156-1.597656-.957031-2.324219-2.886719-1.753906-4.660156.566406-1.773438 2.265625-2.9375 4.140625-2.761719 8.679688.71875 18.28125.324219 27.777344-1.132812 17.757812-2.738282 33.820312-8.949219 43.613281-16.664063-11.664063-4.410156-28.84375-5.496094-46.609375-2.753906-2.183594.335937-4.429688.746093-6.867188 1.257812-1.839843.378907-3.675781-.550781-4.457031-2.246093-.78125-1.695313-.28125-3.703126 1.199219-4.839844 5.421875-4.164063 10.6875-8.796875 15.65625-13.761719 16.632812-16.632813 28.632812-35.742187 32.449219-51.296875-15.554688 3.8125-34.664063 15.816406-51.296875 32.449219-6.519532 6.515625-12.375 13.460937-17.417969 20.648437-1.105469 1.574219-3.175781 2.148438-4.933594 1.347656-1.75-.796874-2.6875-2.730468-2.226562-4.601562 3.429687-13.890625 5.238281-29.667969 5.238281-45.621094 0-31.054687-6.847656-60.074218-18.097656-77.589844-11.246094 17.515626-18.097656 46.535157-18.097656 77.589844 0 15.953125 1.8125 31.726563 5.238281 45.621094.460937 1.871094-.472657 3.800781-2.226563 4.601562-1.757812.800782-3.824218.226563-4.929687-1.347656-5.042969-7.1875-10.902344-14.132812-17.417969-20.648437-16.636719-16.632813-35.742188-28.632813-51.296875-32.449219 3.8125 15.554688 15.8125 34.664062 32.449219 51.296875 4.957031 4.957031 10.226562 9.589844 15.65625 13.761719 1.476562 1.136718 1.976562 3.144531 1.199218 4.839844-.777343 1.695312-2.625 2.625-4.457031 2.246093-2.441406-.511719-4.6875-.921875-6.871093-1.257812-17.757813-2.738281-34.941407-1.65625-46.605469 2.753906 9.792969 7.71875 25.855469 13.925781 43.613281 16.664063 9.496094 1.460937 19.101562 1.851562 27.777344 1.132812.113281-.011719.226562-.015625.335937-.015625zm0 0"/><path d="m394.453125 504c-24.546875 0-44.515625-19.96875-44.515625-44.515625v-133.386719c0-2.207031 1.789062-4 4-4h81.03125c2.207031 0 4 1.792969 4 4v133.386719c0 24.546875-19.96875 44.515625-44.515625 44.515625zm-36.515625-173.902344v129.386719c0 20.132813 16.378906 36.515625 36.515625 36.515625s36.515625-16.378906 36.515625-36.515625v-129.386719zm0 0"/><path d="m327.566406 77.050781h-297.195312c-2.210938 0-4-1.792969-4-4v-44.089843c0-2.207032 1.789062-4 4-4h297.195312c2.207032 0 4 1.792968 4 4v44.089843c0 2.210938-1.789062 4-4 4zm-293.195312-8h289.195312v-36.089843h-289.195312zm0 0"/><path d="m327.566406 101.113281h-297.195312c-2.210938 0-4-1.792969-4-4 0-2.210937 1.789062-4 4-4h297.195312c2.207032 0 4 1.789063 4 4 0 2.207031-1.789062 4-4 4zm0 0"/><path d="m327.566406 129.03125h-297.195312c-2.210938 0-4-1.792969-4-4s1.789062-4 4-4h297.195312c2.207032 0 4 1.792969 4 4s-1.789062 4-4 4zm0 0"/><path d="m327.566406 385.476562h-297.195312c-2.210938 0-4-1.792968-4-4 0-2.207031 1.789062-4 4-4h297.195312c2.207032 0 4 1.792969 4 4 0 2.207032-1.789062 4-4 4zm0 0"/><path d="m327.566406 413.394531h-297.195312c-2.210938 0-4-1.789062-4-4 0-2.207031 1.789062-4 4-4h297.195312c2.207032 0 4 1.792969 4 4 0 2.210938-1.789062 4-4 4zm0 0"/><path d="m327.566406 441.316406h-297.195312c-2.210938 0-4-1.789062-4-4 0-2.207031 1.789062-4 4-4h297.195312c2.207032 0 4 1.792969 4 4 0 2.210938-1.789062 4-4 4zm0 0"/><path d="m327.566406 469.238281h-297.195312c-2.210938 0-4-1.789062-4-4 0-2.207031 1.789062-4 4-4h297.195312c2.207032 0 4 1.792969 4 4 0 2.210938-1.789062 4-4 4zm0 0"/><path d="m129.03125 156.953125h-98.660156c-2.210938 0-4-1.792969-4-4s1.789062-4 4-4h98.660156c2.207031 0 4 1.792969 4 4s-1.789062 4-4 4zm0 0"/><path d="m129.03125 184.875h-98.660156c-2.210938 0-4-1.789062-4-4 0-2.207031 1.789062-4 4-4h98.660156c2.207031 0 4 1.792969 4 4 0 2.210938-1.789062 4-4 4zm0 0"/><path d="m327.566406 156.953125h-98.664062c-2.207032 0-4-1.792969-4-4s1.792968-4 4-4h98.664062c2.207032 0 4 1.792969 4 4s-1.789062 4-4 4zm0 0"/><path d="m327.566406 184.875h-98.664062c-2.207032 0-4-1.789062-4-4 0-2.207031 1.792968-4 4-4h98.664062c2.207032 0 4 1.792969 4 4 0 2.210938-1.789062 4-4 4zm0 0"/></g></svg>