<svg height="504pt" viewBox="0 0 504 504" width="504pt" xmlns="http://www.w3.org/2000/svg"><path d="m4 4h496v496h-496zm0 0" fill="#fcc24c"/><path d="m296.734375 100.851562-44.734375-20-44.734375 20v-96.851562h89.46875zm0 0" fill="#f4efed"/><path d="m480 4h20v496h-20zm0 0" fill="#dea42e"/><path d="m4 4h20v496h-20zm0 0" fill="#fce06a"/><path d="m345.933594 409.269531c38.589844-5.949219 70.792968-20.640625 86.652344-37.53125-20.210938-11.332031-55.34375-15.636719-93.933594-9.6875-4.164063.640625-8.234375 1.402344-12.234375 2.238281 9.359375-7.183593 18.6875-15.324218 27.734375-24.367187 34.609375-34.613281 56.285156-73.324219 59.800781-102.152344-28.824219 3.519531-67.542969 25.195313-102.148437 59.800781-11.90625 11.90625-22.238282 24.296876-30.871094 36.605469 5.902344-23.914062 9.253906-51.332031 9.253906-80.488281 0-62.417969-15.363281-116.875-38.183594-146.039062-22.824218 29.164062-38.1875 83.621093-38.1875 146.039062 0 29.15625 3.355469 56.574219 9.253906 80.488281-8.632812-12.308593-18.964843-24.699219-30.871093-36.605469-34.605469-34.605468-73.324219-56.28125-102.148438-59.800781 3.515625 28.828125 25.191407 67.542969 59.800781 102.152344 9.046876 9.042969 18.375 17.183594 27.734376 24.367187-4-.835937-8.070313-1.597656-12.234376-2.238281-38.589843-5.949219-73.722656-1.644531-93.929687 9.6875 15.855469 16.890625 48.058594 31.582031 86.648437 37.53125 17.636719 2.71875 34.53125 3.273438 49.628907 2.015625-3.796875 2.269532-7.601563 4.789063-11.371094 7.550782-19.96875 14.632812-33.789063 32.316406-37.769531 46.457031 14.679687.464843 35.707031-7.386719 55.675781-22.019531 18.425781-13.503907 31.597656-29.597657 36.652344-43.117188.300781-.15625.621093-.304688.910156-.464844.066406.007813.140625.023438.207031.03125.066406-.007812.140625-.023437.207032-.03125.292968.160156.613281.308594.910156.464844 5.054687 13.519531 18.226562 29.613281 36.652344 43.117188 19.96875 14.632812 40.996093 22.484374 55.675781 22.019531-3.980469-14.140625-17.800781-31.820313-37.769531-46.457031-3.769532-2.761719-7.578126-5.28125-11.371094-7.550782 15.09375 1.257813 31.988281.703125 49.625-2.015625zm0 0" fill="#7bac51"/><path d="m106.808594 241.507812c4.835937 28.378907 26.105468 65.273438 59.242187 98.414063 5.957031 5.953125 12.03125 11.511719 18.15625 16.667969 2.4375 2.050781.617188 5.964844-2.53125 5.476562-.042969-.003906-.082031-.011718-.125-.019531-2.746093-.421875-5.464843-.78125-8.175781-1.101563-7.9375-6.347656-15.835938-13.339843-23.523438-21.027343-34.609374-34.609375-56.285156-73.324219-59.800781-102.148438 5.277344.644531 10.898438 1.90625 16.757813 3.738281zm0 0" fill="#99ca6f"/><path d="m139.402344 359.554688c-21.144532.882812-39.3125 5.1875-51.785156 12.179687 15.855468 16.890625 48.0625 31.582031 86.652343 37.535156 8.707031 1.339844 17.234375 2.152344 25.453125 2.484375-12.984375.511719-27.054687-.234375-41.652344-2.484375-38.589843-5.953125-70.792968-20.644531-86.652343-37.535156 15.554687-8.71875 39.972656-13.253906 67.984375-12.179687zm0 0" fill="#99ca6f"/><path d="m196.324219 418.839844c3.429687-2.515625 6.890625-4.816406 10.347656-6.925782 1.242187.011719 2.472656.007813 3.699219-.003906 3.710937-.039062 5.261718 4.65625 2.265625 6.847656-.035157.027344-.074219.054688-.113281.082032-18.859376 13.816406-32.222657 30.355468-37.003907 44.0625-6.195312 1.71875-11.957031 2.550781-16.96875 2.394531 3.984375-14.144531 17.804688-31.824219 37.773438-46.457031zm0 0" fill="#99ca6f"/><path d="m223.066406 334.175781c8.179688 0 14.363282-7.425781 12.839844-15.464843-3.792969-20.007813-5.890625-41.972657-5.890625-65.023438 0 0-1.347656-100.921875 21.980469-146.039062-22.820313 29.164062-38.183594 83.621093-38.183594 146.039062 0 18.804688 1.410156 36.867188 3.984375 53.753906zm0 0" fill="#99ca6f"/><path d="m397.191406 241.507812c-4.835937 28.378907-26.105468 65.273438-59.242187 98.414063-5.957031 5.953125-12.03125 11.511719-18.15625 16.667969-2.4375 2.050781-.617188 5.964844 2.53125 5.476562.042969-.003906.082031-.011718.125-.019531 2.746093-.421875 5.464843-.78125 8.175781-1.101563 7.9375-6.347656 15.835938-13.339843 23.523438-21.027343 34.609374-34.609375 56.285156-73.324219 59.800781-102.148438-5.277344.644531-10.898438 1.90625-16.757813 3.738281zm0 0" fill="#5d8e33"/><path d="m364.597656 359.554688c21.144532.882812 39.3125 5.1875 51.785156 12.179687-15.855468 16.890625-48.0625 31.582031-86.652343 37.535156-8.707031 1.339844-17.234375 2.152344-25.453125 2.484375 12.984375.511719 27.054687-.234375 41.652344-2.484375 38.589843-5.953125 70.796874-20.644531 86.652343-37.535156-15.554687-8.71875-39.972656-13.253906-67.984375-12.179687zm0 0" fill="#5d8e33"/><path d="m307.675781 418.839844c-3.429687-2.515625-6.890625-4.816406-10.347656-6.925782-1.242187.011719-2.472656.007813-3.699219-.003906-3.710937-.039062-5.261718 4.65625-2.265625 6.847656.035157.027344.074219.054688.113281.082032 18.859376 13.816406 32.222657 30.355468 37.003907 44.0625 6.195312 1.71875 11.957031 2.550781 16.96875 2.394531-3.984375-14.144531-17.804688-31.824219-37.773438-46.457031zm0 0" fill="#5d8e33"/><path d="m280.933594 334.175781c-8.183594 0-14.363282-7.425781-12.839844-15.464843 3.792969-20.007813 5.890625-41.972657 5.890625-65.023438 0 0 1.34375-100.921875-21.984375-146.039062 22.820312 29.164062 38.1875 83.621093 38.1875 146.039062 0 18.804688-1.414062 36.867188-3.988281 53.753906zm0 0" fill="#5d8e33"/><g fill="#690589"><path d="m252 468.941406c-2.207031 0-4-1.792968-4-4v-65.359375c0-2.207031 1.792969-4 4-4s4 1.792969 4 4v65.359375c0 2.207032-1.792969 4-4 4zm0 0"/><path d="m344.171875 469.3125c-16.082031 0-37.164063-8.449219-56.765625-22.816406-15.890625-11.644532-28.699219-25.835938-35.40625-39.003906-6.707031 13.167968-19.515625 27.363281-35.40625 39.003906-20.179688 14.789062-41.953125 23.28125-58.164062 22.796875-1.230469-.039063-2.375-.640625-3.101563-1.632813-.726563-.992187-.957031-2.265625-.625-3.449218 4.375-15.535157 18.871094-33.558594 38.828125-48.285157-11.691406.082031-23.753906-.804687-36.070312-2.707031-38.5-5.9375-71.753907-20.421875-88.957032-38.746094-.84375-.898437-1.226562-2.132812-1.039062-3.347656.1875-1.21875.921875-2.277344 1.996094-2.878906 21.386718-11.988282 56.226562-15.894532 93.648437-10.574219-5.511719-4.738281-10.894531-9.730469-16.085937-14.925781-33.859376-33.859375-57.210938-73.898438-60.945313-104.492188-.144531-1.222656.273437-2.445312 1.144531-3.3125.867188-.875 2.085938-1.292968 3.3125-1.144531 30.59375 3.734375 70.636719 27.085937 104.492188 60.945313 7.265625 7.269531 14.078125 14.828124 20.367187 22.613281-3.667969-20.144531-5.578125-41.824219-5.578125-63.667969 0-60.828125 14.957032-117.730469 39.035156-148.503906.757813-.96875 1.921876-1.535156 3.152344-1.535156 1.226563 0 2.390625.566406 3.148438 1.535156 24.078125 30.773437 39.035156 87.675781 39.035156 148.503906 0 21.84375-1.910156 43.527344-5.574219 63.667969 6.289063-7.785157 13.097657-15.34375 20.363281-22.613281 33.859376-33.859376 73.894532-57.207032 104.492188-60.945313 1.230469-.15625 2.445312.273437 3.3125 1.144531.871094.867188 1.292969 2.089844 1.144531 3.3125-3.734375 30.597656-27.085937 70.632813-60.945312 104.492188-5.195313 5.195312-10.574219 10.1875-16.085938 14.925781 37.417969-5.316406 72.257813-1.414063 93.644531 10.574219 1.074219.601562 1.8125 1.660156 2 2.878906.1875 1.214844-.195312 2.449219-1.039062 3.347656-17.207031 18.324219-50.460938 32.808594-88.957031 38.746094-12.316407 1.902344-24.402344 2.792969-36.070313 2.707031 19.957032 14.726563 34.453125 32.746094 38.824219 48.285157.335937 1.183593.105469 2.457031-.621094 3.449218-.730469.992188-1.875 1.59375-3.101562 1.632813-.460938.011719-.933594.019531-1.402344.019531zm-136.472656-62.023438c1.722656 0 3.269531 1.109376 3.804687 2.777344.570313 1.773438-.160156 3.703125-1.757812 4.65625-3.738282 2.234375-7.460938 4.707032-11.054688 7.34375-16.1875 11.863282-28.855468 26.339844-34.371094 39.003906 13.734376-1.445312 31.359376-9.160156 47.546876-21.023437 17.101562-12.535156 30.289062-27.972656 35.269531-41.289063.339843-.917968 1.007812-1.675781 1.871093-2.132812l.839844-.429688c.65625-.371093 1.402344-.542968 2.152344-.5.742188-.046874 1.496094.128907 2.152344.5l.839844.429688c.863281.457031 1.53125 1.214844 1.871093 2.132812 4.980469 13.316407 18.167969 28.753907 35.273438 41.289063 16.183593 11.859375 33.808593 19.578125 47.542969 21.023437-5.515626-12.664062-18.183594-27.140624-34.367188-39.003906-3.601562-2.636718-7.320312-5.109375-11.058594-7.34375-1.597656-.957031-2.324218-2.882812-1.757812-4.65625.570312-1.773437 2.265625-2.929687 4.140625-2.765625 15.210937 1.265625 32.050781.578125 48.683593-1.984375 33.484376-5.164062 63.621094-17.433594 80.460938-32.53125-20.605469-9.320312-53.039062-11.941406-86.523438-6.78125-3.835937.589844-7.769531 1.308594-12.023437 2.203125-1.839844.378907-3.675781-.550781-4.457031-2.246093-.78125-1.695313-.28125-3.703126 1.199218-4.839844 9.472657-7.273438 18.671876-15.355469 27.34375-24.027344 30.699219-30.703125 52.402344-66.339844 57.820313-94.519531-28.175781 5.421875-63.8125 27.125-94.511719 57.824219-11.386718 11.390624-21.625 23.527343-30.425781 36.074218-1.105469 1.574219-3.171875 2.144532-4.929687 1.34375-1.753907-.796875-2.691407-2.726562-2.226563-4.601562 5.976563-24.226563 9.136719-51.730469 9.136719-79.53125 0-56.378906-13.011719-109.023438-34.1875-139.308594-21.175782 30.289062-34.1875 82.929688-34.1875 139.308594 0 27.796875 3.160156 55.300781 9.140625 79.53125.457031 1.875-.476563 3.804687-2.230469 4.601562-1.75.800782-3.824219.230469-4.929688-1.34375-8.800781-12.546875-19.035156-24.683594-30.421874-36.074218-30.703126-30.699219-66.339844-52.402344-94.515626-57.824219 5.421876 28.179687 27.125 63.816406 57.824219 94.519531 8.671875 8.667969 17.871094 16.753906 27.34375 24.027344 1.476563 1.136718 1.976563 3.144531 1.195313 4.839844-.777344 1.699218-2.617188 2.628906-4.453125 2.246093-4.25-.890625-8.1875-1.609375-12.027344-2.203125-33.476563-5.160156-65.914063-2.539062-86.519531 6.78125 16.839844 15.097656 46.976562 27.367188 80.460937 32.53125 16.632813 2.5625 33.46875 3.25 48.683594 1.984375.117187-.007812.226563-.011719.339844-.011719zm138.234375 1.980469h.019531zm0 0"/><path d="m500 504h-496c-2.207031 0-4-1.792969-4-4v-496c0-2.207031 1.792969-4 4-4h496c2.207031 0 4 1.792969 4 4v496c0 2.207031-1.792969 4-4 4zm-492-8h488v-488h-488zm0 0"/><path d="m20 189.503906c-2.207031 0-4-1.792968-4-4v-24c0-2.210937 1.792969-4 4-4s4 1.789063 4 4v24c0 2.207032-1.792969 4-4 4zm0 0"/><path d="m207.261719 104.851562c-.757813 0-1.519531-.21875-2.175781-.644531-1.136719-.738281-1.824219-2-1.824219-3.355469v-96.851562c0-2.207031 1.792969-4 4-4h89.472656c2.210937 0 4 1.792969 4 4v96.851562c0 1.355469-.6875 2.617188-1.824219 3.355469-1.136718.738281-2.570312.847657-3.804687.296875l-43.105469-19.273437-43.105469 19.273437c-.519531.230469-1.078125.347656-1.632812.347656zm4-96.851562v86.679688l39.105469-17.480469c1.039062-.464844 2.226562-.464844 3.265624 0l39.101563 17.480469v-86.679688zm0 0"/></g><path d="m109.21875 73.808594-21.304688-24.90625-21.304687-24.902344-21.304687 24.902344-21.304688 24.90625h24.140625v65.679687h36.933594v-65.679687zm0 0" fill="#ff4397"/><path d="m85.078125 143.488281h-36.9375c-2.207031 0-4-1.792969-4-4v-61.679687h-20.140625c-1.5625 0-2.980469-.910156-3.632812-2.328125-.652344-1.417969-.421876-3.085938.59375-4.273438l42.609374-49.808593c1.523438-1.777344 4.558594-1.777344 6.078126 0l42.613281 49.808593c1.015625 1.1875 1.246093 2.855469.59375 4.273438-.652344 1.417969-2.074219 2.328125-3.632813 2.328125h-20.144531v61.679687c0 2.210938-1.792969 4-4 4zm-32.9375-8h28.933594v-61.679687c0-2.207032 1.792969-4 4-4h15.460937l-33.925781-39.65625-33.921875 39.65625h15.457031c2.207031 0 4 1.792968 4 4v61.679687zm0 0" fill="#690589"/></svg>