<svg height="503pt" viewBox="0 -8 503.99817 503" width="503pt" xmlns="http://www.w3.org/2000/svg"><path d="m331.382812 364.117188c46.019532-7.09375 84.429688-24.617188 103.339844-44.757813-24.101562-13.511719-66-18.652344-112.023437-11.554687-4.964844.769531-9.816407 1.675781-14.589844 2.675781 11.160156-8.570313 22.285156-18.277344 33.074219-29.066407 41.273437-41.273437 67.125-87.445312 71.320312-121.820312-34.378906 4.195312-80.546875 30.042969-121.820312 71.320312-14.203125 14.199219-26.519532 28.972657-36.816406 43.652344 7.035156-28.523437 11.035156-61.21875 11.035156-95.992187 0-74.4375-18.324219-139.378907-45.539063-174.160157-27.21875 34.78125-45.542969 99.722657-45.542969 174.160157 0 34.773437 4 67.46875 11.039063 95.992187-10.296875-14.679687-22.617187-29.453125-36.816406-43.652344-41.273438-41.277343-87.445313-67.125-121.824219-71.320312 4.199219 34.375 30.046875 80.546875 71.320312 121.820312 10.792969 10.789063 21.914063 20.496094 33.074219 29.066407-4.769531-1-9.625-1.910157-14.589843-2.675781-46.023438-7.097657-87.925782-1.957032-112.023438 11.554687 18.90625 20.144531 57.316406 37.664063 103.339844 44.757813 21.03125 3.246093 41.179687 3.90625 59.183594 2.40625-4.523438 2.707031-9.066407 5.710937-13.5625 9.007812-23.816407 17.453125-40.296876 38.542969-45.042969 55.402344 17.511719.554687 42.585937-8.8125 66.398437-26.261719 21.976563-16.105469 37.6875-35.300781 43.714844-51.417969.351562-.191406.734375-.367187 1.082031-.558594.082031.007813.167969.027344.25.039063.078125-.011719.164063-.03125.246094-.039063.347656.191407.730469.367188 1.085937.558594 6.027344 16.117188 21.734376 35.3125 43.710938 51.417969 23.816406 17.449219 48.890625 26.816406 66.398438 26.261719-4.746094-16.863282-21.230469-37.949219-45.042969-55.402344-4.496094-3.292969-9.035157-6.300781-13.5625-9.007812 18.003906 1.5 38.148437.839843 59.183593-2.40625zm0 0" fill="#7bac51"/><g fill="#99ca6f"><path d="m46.207031 164.046875c5.769531 33.847656 31.132813 77.847656 70.652344 117.367187 7.097656 7.097657 14.34375 13.730469 21.652344 19.878907 2.90625 2.449219.734375 7.117187-3.023438 6.535156-.046875-.007813-.097656-.015625-.148437-.023437-3.273438-.503907-6.523438-.929688-9.75-1.3125-9.46875-7.570313-18.886719-15.90625-28.054688-25.078126-41.273437-41.273437-67.121094-87.445312-71.320312-121.820312 6.304687.765625 13.003906 2.269531 19.992187 4.453125zm0 0"/><path d="m85.082031 304.832031c-25.222656 1.050781-46.886719 6.1875-61.761719 14.523438 18.910157 20.144531 57.316407 37.664062 103.339844 44.761719 10.386719 1.601562 20.550782 2.566406 30.355469 2.960937-15.484375.613281-32.265625-.277344-49.675781-2.960937-46.023438-7.097657-84.429688-24.617188-103.339844-44.761719 18.550781-10.398438 47.671875-15.808594 81.082031-14.523438zm0 0"/><path d="m152.960938 375.527344c4.089843-2.996094 8.21875-5.742188 12.339843-8.253906 1.480469.007812 2.953125.007812 4.414063-.007813 4.421875-.050781 6.273437 5.550781 2.703125 8.164063-.042969.03125-.089844.066406-.132813.097656-22.492187 16.480468-38.429687 36.203125-44.132812 52.550781-7.386719 2.046875-14.257813 3.039063-20.234375 2.851563 4.746093-16.859376 21.226562-37.949219 45.042969-55.402344zm0 0"/><path d="m184.855469 274.566406c9.757812 0 17.128906-8.859375 15.3125-18.445312-4.527344-23.859375-7.027344-50.054688-7.027344-77.546875 0 0-1.605469-120.359375 26.21875-174.160157-27.21875 34.78125-45.542969 99.722657-45.542969 174.160157 0 22.425781 1.6875 43.96875 4.753906 64.105469zm0 0"/></g><path d="m392.515625 164.046875c-5.769531 33.847656-31.136719 77.847656-70.652344 117.367187-7.101562 7.097657-14.347656 13.730469-21.652343 19.878907-2.910157 2.449219-.738282 7.117187 3.019531 6.535156.050781-.007813.101562-.015625.148437-.023437 3.273438-.503907 6.519532-.929688 9.75-1.3125 9.46875-7.570313 18.886719-15.90625 28.054688-25.078126 41.273437-41.273437 67.125-87.445312 71.320312-121.820312-6.300781.765625-13 2.269531-19.988281 4.453125zm0 0" fill="#5d8e33"/><path d="m353.640625 304.832031c25.21875 1.050781 46.886719 6.1875 61.757813 14.523438-18.910157 20.144531-57.3125 37.664062-103.339844 44.761719-10.382813 1.601562-20.546875 2.566406-30.351563 2.960937 15.484375.613281 32.265625-.277344 49.675781-2.960937 46.019532-7.097657 84.429688-24.617188 103.339844-44.761719-18.554687-10.398438-47.671875-15.808594-81.082031-14.523438zm0 0" fill="#5d8e33"/><path d="m285.757812 375.527344c-4.089843-2.996094-8.21875-5.742188-12.339843-8.253906-1.480469.007812-2.953125.007812-4.414063-.007813-4.421875-.050781-6.273437 5.550781-2.703125 8.164063.042969.03125.089844.066406.132813.097656 22.492187 16.480468 38.429687 36.203125 44.132812 52.550781 7.386719 2.046875 14.257813 3.039063 20.234375 2.851563-4.746093-16.859376-21.226562-37.949219-45.042969-55.402344zm0 0" fill="#5d8e33"/><path d="m253.863281 274.566406c-9.753906 0-17.128906-8.859375-15.308593-18.445312 4.523437-23.859375 7.027343-50.054688 7.027343-77.546875 0 0 1.601563-120.359375-26.21875-174.160157 27.214844 34.78125 45.539063 99.722657 45.539063 174.160157 0 22.425781-1.683594 43.96875-4.753906 64.105469zm0 0" fill="#5d8e33"/><path d="m204.925781 487.589844c-2.207031 0-4-1.792969-4-4 0-2.207032 1.792969-4 4-4 5.753907 0 10.433594-4.679688 10.433594-10.433594v-116.589844c0-2.210937 1.792969-4 4-4s4 1.789063 4 4v116.589844c0 10.164062-8.269531 18.433594-18.433594 18.433594zm0 0" fill="#690589"/><path d="m329.277344 434.957031c-19.015625.003907-43.984375-10.023437-67.234375-27.058593-19.421875-14.230469-34.953125-31.644532-42.683594-47.625-7.726563 15.976562-23.257813 33.394531-42.679687 47.625-23.929688 17.535156-49.652344 27.699218-68.890626 27.035156-1.226562-.039063-2.371093-.640625-3.097656-1.632813-.726562-.988281-.960937-2.265625-.625-3.449219 5.207032-18.5 22.601563-40.011718 46.53125-57.546874.476563-.351563.957032-.699219 1.441406-1.042969-14.621093.269531-29.804687-.792969-45.308593-3.183594-45.066407-6.953125-85.546875-24.570313-105.644531-45.976563-.84375-.898437-1.226563-2.132812-1.039063-3.347656.1875-1.21875.921875-2.28125 1.996094-2.878906 25.472656-14.285156 69.039062-18.917969 113.84375-12.128906-7.273438-6.15625-14.359375-12.679688-21.175781-19.5-40.261719-40.261719-68.027344-87.839844-72.460938-124.164063-.148438-1.222656.273438-2.445312 1.140625-3.3125.871094-.871093 2.089844-1.285156 3.3125-1.144531 36.328125 4.4375 83.90625 32.203125 124.167969 72.464844 9.390625 9.386718 18.140625 19.199218 26.152344 29.296875-4.730469-24.820313-7.203126-51.710938-7.203126-78.808594 0-72.382813 17.777344-140.058594 46.386719-176.625 1.515625-1.9375 4.789063-1.9375 6.300781 0 28.617188 36.566406 46.390626 104.246094 46.390626 176.625 0 27.101563-2.46875 53.988281-7.203126 78.8125 8.011719-10.105469 16.765626-19.914063 26.152344-29.300781 40.261719-40.265625 87.839844-68.03125 124.167969-72.464844 1.222656-.144531 2.441406.273438 3.308594 1.144531.875.867188 1.292969 2.089844 1.144531 3.3125-4.433594 36.328125-32.199219 83.902344-72.460938 124.164063-6.820312 6.820312-13.90625 13.34375-21.175781 19.5 44.808594-6.789063 88.367188-2.152344 113.84375 12.128906 1.070313.601562 1.804688 1.660156 1.996094 2.878906.1875 1.210938-.199219 2.449219-1.039063 3.347656-20.097656 21.40625-60.578124 39.023438-105.644531 45.976563-15.503906 2.386719-30.664062 3.453125-45.308593 3.183594.480468.347656.960937.695312 1.441406 1.042969 23.925781 17.535156 41.320312 39.046874 46.53125 57.546874.332031 1.183594.105468 2.457032-.625 3.449219-.726563.992188-1.871094 1.597657-3.097656 1.632813-.542969.015625-1.097657.023437-1.652344.023437zm-162.75-72.433593c1.722656 0 3.269531 1.113281 3.804687 2.777343.566407 1.773438-.15625 3.703125-1.757812 4.65625-4.480469 2.679688-8.941407 5.640625-13.25 8.800781-19.914063 14.589844-35.394531 32.515626-41.738281 48.023438 16.699218-1.378906 38.453124-10.746094 58.363281-25.335938 20.519531-15.035156 36.34375-33.574218 42.332031-49.59375.34375-.914062 1.003906-1.671874 1.867188-2.128906l.5625-.289062c.15625-.078125.308593-.152344.460937-.234375.667969-.371094 1.4375-.542969 2.191406-.496094.765625-.046875 1.523438.125 2.191407.496094.140624.078125.292968.152343.445312.226562l.585938.300781c.855468.457032 1.515624 1.210938 1.855468 2.125 5.992188 16.019532 21.816406 34.558594 42.332032 49.589844 19.914062 14.59375 41.667968 23.957032 58.367187 25.335938-6.347656-15.507813-21.828125-33.433594-41.742187-48.023438-4.296876-3.152344-8.757813-6.109375-13.25-8.796875-1.597657-.957031-2.324219-2.886719-1.753907-4.660156.570313-1.769531 2.308594-2.921875 4.140625-2.761719 18.199219 1.523438 38.34375.699219 58.242188-2.371094 40.648437-6.269531 77.191406-21.308593 97.210937-39.769531-24.648437-11.570312-64.027343-14.902343-104.675781-8.636719-4.582031.707032-9.285156 1.566407-14.378906 2.632813-1.828125.375-3.675782-.550781-4.457032-2.246094-.777343-1.699219-.28125-3.707031 1.203126-4.84375 11.320312-8.691406 22.316406-18.355469 32.679687-28.71875 37.113281-37.113281 63.242187-80.296875 69.375-114.222656-33.925781 6.136719-77.109375 32.261719-114.222656 69.378906-13.613281 13.609375-25.847657 28.117188-36.371094 43.121094-1.105469 1.574219-3.171875 2.144531-4.929687 1.34375-1.753907-.796875-2.691407-2.730469-2.226563-4.601563 7.144531-28.953124 10.917969-61.816406 10.917969-95.03125 0-67.949218-15.820313-131.375-41.539063-167.472656-25.714843 36.097656-41.542969 99.523438-41.542969 167.472656 0 33.210938 3.777344 66.074219 10.917969 95.035157.460938 1.867187-.472656 3.800781-2.222656 4.597656-1.761719.800781-3.828125.230469-4.933594-1.34375-10.519531-15-22.753906-29.507813-36.367187-43.121094-37.113282-37.113281-80.300782-63.242187-114.226563-69.378906 6.136719 33.925781 32.265625 77.113281 69.375 114.226563 10.359375 10.359374 21.355469 20.023437 32.683594 28.71875 1.480469 1.132812 1.976563 3.144531 1.199219 4.84375-.78125 1.695312-2.632813 2.621093-4.453125 2.246093-5.09375-1.066406-9.796875-1.929687-14.382813-2.636719-40.644531-6.261718-80.027344-2.929687-104.679687 8.640626 20.023437 18.457031 56.566406 33.5 97.214843 39.769531 19.902344 3.066406 40.039063 3.886719 58.246094 2.371093.109375-.011718.222656-.015624.335938-.015624zm164.855468 1.597656h.019532zm0 0" fill="#690589"/><path d="m191.597656 137.597656c-.152344 0-.304687-.007812-.460937-.023437-2.195313-.25-3.769531-2.234375-3.519531-4.429688.929687-8.15625 2.0625-16.300781 3.363281-24.199219.363281-2.175781 2.394531-3.652343 4.601562-3.292968 2.179688.359375 3.652344 2.417968 3.292969 4.597656-1.28125 7.765625-2.394531 15.773438-3.308594 23.800781-.234375 2.042969-1.964844 3.546875-3.96875 3.546875zm0 0" fill="#690589"/><path d="m382.796875 236.5625c0 30.625-24.824219 55.449219-55.445313 55.449219-30.625 0-55.449218-24.824219-55.449218-55.449219 0-30.621094 24.824218-55.449219 55.449218-55.449219 30.621094 0 55.445313 24.828125 55.445313 55.449219zm0 0" fill="#fcc24c"/><path d="m327.351562 181.113281c-2.214843 0-4.394531.144531-6.539062.398438 27.539062 3.238281 48.910156 26.640625 48.910156 55.050781 0 28.40625-21.371094 51.8125-48.910156 55.046875 2.144531.253906 4.324219.398437 6.539062.398437 30.621094 0 55.445313-24.824218 55.445313-55.449218s-24.824219-55.445313-55.445313-55.445313zm0 0" fill="#dea42e"/><path d="m327.351562 292.007812c2.210938 0 4.390626-.144531 6.535157-.394531-27.539063-3.238281-48.910157-26.644531-48.910157-55.050781 0-28.410156 21.371094-51.8125 48.910157-55.050781-2.144531-.25-4.324219-.394531-6.535157-.394531-30.625 0-55.449218 24.824218-55.449218 55.449218 0 30.621094 24.824218 55.441406 55.449218 55.441406zm0 0" fill="#fce06a"/><path d="m328.875 205.210938c1.742188 0 3.121094 1.382812 3.121094 3.121093v1.597657c4.28125.507812 7.90625 1.886718 11.246094 3.992187 1.160156.65625 2.179687 1.742187 2.179687 3.484375 0 2.25-1.816406 3.992188-4.066406 3.992188-.726563 0-1.453125-.21875-2.175781-.652344-2.542969-1.527344-5.007813-2.613282-7.476563-3.195313v13.933594c11.03125 2.757813 15.746094 7.183594 15.746094 14.945313 0 7.984374-6.238281 13.28125-15.453125 14.152343v4.351563c0 1.742187-1.378906 3.121094-3.121094 3.121094s-3.191406-1.375-3.191406-3.121094v-4.496094c-5.445313-.582031-10.453125-2.539062-14.878906-5.660156-1.234376-.796875-1.957032-1.957032-1.957032-3.484375 0-2.25 1.742188-3.988281 3.992188-3.988281.867187 0 1.742187.289062 2.390625.796874 3.410156 2.46875 6.75 4.136719 10.742187 4.863282v-14.296875c-10.59375-2.757813-15.53125-6.746094-15.53125-14.949219 0-7.765625 6.167969-13.132812 15.242188-13.859375v-1.523437c-.003906-1.742188 1.449218-3.125 3.191406-3.125zm-2.90625 24.746093v-12.84375c-4.644531.4375-6.964844 2.902344-6.964844 6.097657 0 3.046874 1.378906 4.933593 6.964844 6.746093zm5.734375 10.085938v13.210937c4.644531-.507812 7.183594-2.832031 7.183594-6.3125 0-3.195312-1.597657-5.15625-7.183594-6.898437zm0 0" fill="#690589"/><path d="m327.351562 296.007812c-32.78125 0-59.449218-26.667968-59.449218-59.445312 0-32.78125 26.667968-59.449219 59.449218-59.449219 32.777344 0 59.445313 26.667969 59.445313 59.449219 0 32.777344-26.667969 59.445312-59.445313 59.445312zm0-110.894531c-28.371093 0-51.449218 23.082031-51.449218 51.449219s23.078125 51.449219 51.449218 51.449219c28.367188 0 51.445313-23.082031 51.445313-51.449219s-23.082031-51.449219-51.445313-51.449219zm0 0" fill="#690589"/><path d="m279.050781 445.289062h96.597657c5.109374 0 9.25 4.140626 9.25 9.25v19.804688c0 5.105469-4.136719 9.25-9.25 9.25h-96.597657c-5.109375 0-9.25-4.144531-9.25-9.25v-19.804688c0-5.109374 4.140625-9.25 9.25-9.25zm0 0" fill="#fcc24c"/><path d="m375.648438 445.289062h-18.496094c5.109375 0 9.25 4.140626 9.25 9.25v19.804688c0 5.105469-4.140625 9.25-9.25 9.25h18.496094c5.109374 0 9.25-4.144531 9.25-9.25v-19.804688c0-5.109374-4.140626-9.25-9.25-9.25zm0 0" fill="#dea42e"/><path d="m279.050781 483.589844h18.496094c-5.105469 0-9.25-4.140625-9.25-9.25v-19.800782c0-5.109374 4.144531-9.25 9.25-9.25h-18.496094c-5.109375 0-9.25 4.140626-9.25 9.25v19.800782c0 5.109375 4.140625 9.25 9.25 9.25zm0 0" fill="#fce06a"/><path d="m375.648438 487.589844h-96.597657c-7.304687 0-13.25-5.941406-13.25-13.25v-19.800782c0-7.304687 5.945313-13.25 13.25-13.25h96.597657c7.308593 0 13.25 5.945313 13.25 13.25v19.800782c0 7.308594-5.941407 13.25-13.25 13.25zm-96.597657-38.300782c-2.894531 0-5.25 2.359376-5.25 5.25v19.800782c0 2.894531 2.355469 5.25 5.25 5.25h96.597657c2.894531 0 5.25-2.355469 5.25-5.25v-19.800782c0-2.890624-2.355469-5.25-5.25-5.25zm0 0" fill="#690589"/><path d="m279.050781 406.988281h96.597657c5.109374 0 9.25 4.140625 9.25 9.25v19.800781c0 5.109376-4.136719 9.25-9.25 9.25h-96.597657c-5.109375 0-9.25-4.140624-9.25-9.25v-19.800781c0-5.109375 4.140625-9.25 9.25-9.25zm0 0" fill="#fcc24c"/><path d="m375.648438 406.988281h-18.496094c5.109375 0 9.25 4.140625 9.25 9.25v19.800781c0 5.109376-4.140625 9.25-9.25 9.25h18.496094c5.109374 0 9.25-4.136718 9.25-9.25v-19.800781c0-5.109375-4.140626-9.25-9.25-9.25zm0 0" fill="#dea42e"/><path d="m279.050781 445.289062h18.496094c-5.105469 0-9.25-4.136718-9.25-9.25v-19.800781c0-5.109375 4.144531-9.25 9.25-9.25h-18.496094c-5.109375 0-9.25 4.140625-9.25 9.25v19.800781c0 5.109376 4.140625 9.25 9.25 9.25zm0 0" fill="#fce06a"/><path d="m375.648438 449.289062h-96.597657c-7.304687 0-13.25-5.941406-13.25-13.25v-19.796874c0-7.308594 5.945313-13.25 13.25-13.25h96.597657c7.308593 0 13.25 5.941406 13.25 13.25v19.796874c0 7.308594-5.941407 13.25-13.25 13.25zm-96.597657-38.300781c-2.894531 0-5.25 2.355469-5.25 5.25v19.800781c0 2.894532 2.355469 5.25 5.25 5.25h96.597657c2.894531 0 5.25-2.355468 5.25-5.25v-19.800781c0-2.894531-2.355469-5.25-5.25-5.25zm0 0" fill="#690589"/><path d="m279.050781 368.6875h96.597657c5.109374 0 9.25 4.144531 9.25 9.25v19.804688c0 5.105468-4.136719 9.25-9.25 9.25h-96.597657c-5.109375 0-9.25-4.144532-9.25-9.25v-19.804688c0-5.105469 4.140625-9.25 9.25-9.25zm0 0" fill="#fcc24c"/><path d="m375.648438 368.6875h-18.496094c5.109375 0 9.25 4.144531 9.25 9.25v19.804688c0 5.105468-4.140625 9.25-9.25 9.25h18.496094c5.109374 0 9.25-4.140626 9.25-9.25v-19.804688c0-5.105469-4.140626-9.25-9.25-9.25zm0 0" fill="#dea42e"/><path d="m279.050781 406.988281h18.496094c-5.105469 0-9.25-4.140625-9.25-9.25v-19.800781c0-5.109375 4.144531-9.25 9.25-9.25h-18.496094c-5.109375 0-9.25 4.140625-9.25 9.25v19.800781c0 5.109375 4.140625 9.25 9.25 9.25zm0 0" fill="#fce06a"/><path d="m375.648438 410.988281h-96.597657c-7.304687 0-13.25-5.945312-13.25-13.246093v-19.804688c0-7.304688 5.945313-13.25 13.25-13.25h96.597657c7.308593 0 13.25 5.945312 13.25 13.25v19.804688c0 7.300781-5.941407 13.246093-13.25 13.246093zm-96.597657-38.300781c-2.894531 0-5.25 2.355469-5.25 5.25v19.804688c0 2.890624 2.355469 5.246093 5.25 5.246093h96.597657c2.894531 0 5.25-2.355469 5.25-5.246093v-19.804688c0-2.894531-2.355469-5.25-5.25-5.25zm0 0" fill="#690589"/><path d="m394.148438 445.289062h96.601562c5.105469 0 9.25 4.140626 9.25 9.25v19.804688c0 5.105469-4.140625 9.25-9.25 9.25h-96.601562c-5.109376 0-9.25-4.144531-9.25-9.25v-19.804688c0-5.109374 4.140624-9.25 9.25-9.25zm0 0" fill="#fcc24c"/><path d="m490.75 445.289062h-18.5c5.109375 0 9.25 4.140626 9.25 9.25v19.804688c0 5.105469-4.140625 9.25-9.25 9.25h18.5c5.105469 0 9.25-4.144531 9.25-9.25v-19.804688c0-5.109374-4.140625-9.25-9.25-9.25zm0 0" fill="#dea42e"/><path d="m394.148438 483.589844h18.496093c-5.105469 0-9.25-4.140625-9.25-9.25v-19.800782c0-5.109374 4.140625-9.25 9.25-9.25h-18.496093c-5.109376 0-9.25 4.140626-9.25 9.25v19.800782c0 5.109375 4.140624 9.25 9.25 9.25zm0 0" fill="#fce06a"/><path d="m490.75 487.589844h-96.601562c-7.304688 0-13.25-5.941406-13.25-13.25v-19.800782c0-7.304687 5.945312-13.25 13.25-13.25h96.601562c7.304688 0 13.25 5.945313 13.25 13.25v19.800782c0 7.308594-5.945312 13.25-13.25 13.25zm-96.601562-38.300782c-2.894532 0-5.25 2.359376-5.25 5.25v19.800782c0 2.894531 2.355468 5.25 5.25 5.25h96.601562c2.890625 0 5.25-2.355469 5.25-5.25v-19.800782c0-2.890624-2.359375-5.25-5.25-5.25zm0 0" fill="#690589"/><path d="m394.148438 406.988281h96.601562c5.105469 0 9.25 4.140625 9.25 9.25v19.800781c0 5.109376-4.140625 9.25-9.25 9.25h-96.601562c-5.109376 0-9.25-4.140624-9.25-9.25v-19.800781c0-5.109375 4.140624-9.25 9.25-9.25zm0 0" fill="#fcc24c"/><path d="m490.75 406.988281h-18.5c5.109375 0 9.25 4.140625 9.25 9.25v19.800781c0 5.109376-4.140625 9.25-9.25 9.25h18.5c5.105469 0 9.25-4.136718 9.25-9.25v-19.800781c0-5.109375-4.140625-9.25-9.25-9.25zm0 0" fill="#dea42e"/><path d="m394.148438 445.289062h18.496093c-5.105469 0-9.25-4.136718-9.25-9.25v-19.800781c0-5.109375 4.140625-9.25 9.25-9.25h-18.496093c-5.109376 0-9.25 4.140625-9.25 9.25v19.800781c0 5.109376 4.140624 9.25 9.25 9.25zm0 0" fill="#fce06a"/><path d="m490.75 449.289062h-96.601562c-7.304688 0-13.25-5.941406-13.25-13.25v-19.796874c0-7.308594 5.945312-13.25 13.25-13.25h96.601562c7.304688 0 13.25 5.941406 13.25 13.25v19.796874c0 7.308594-5.945312 13.25-13.25 13.25zm-96.601562-38.300781c-2.894532 0-5.25 2.355469-5.25 5.25v19.800781c0 2.894532 2.355468 5.25 5.25 5.25h96.601562c2.890625 0 5.25-2.355468 5.25-5.25v-19.800781c0-2.894531-2.359375-5.25-5.25-5.25zm0 0" fill="#690589"/><path d="m394.148438 368.6875h96.601562c5.105469 0 9.25 4.144531 9.25 9.25v19.804688c0 5.105468-4.140625 9.25-9.25 9.25h-96.601562c-5.109376 0-9.25-4.144532-9.25-9.25v-19.804688c0-5.105469 4.140624-9.25 9.25-9.25zm0 0" fill="#fcc24c"/><path d="m490.75 368.6875h-18.5c5.109375 0 9.25 4.144531 9.25 9.25v19.804688c0 5.105468-4.140625 9.25-9.25 9.25h18.5c5.105469 0 9.25-4.140626 9.25-9.25v-19.804688c0-5.105469-4.140625-9.25-9.25-9.25zm0 0" fill="#dea42e"/><path d="m394.148438 406.988281h18.496093c-5.105469 0-9.25-4.140625-9.25-9.25v-19.800781c0-5.109375 4.140625-9.25 9.25-9.25h-18.496093c-5.109376 0-9.25 4.140625-9.25 9.25v19.800781c0 5.109375 4.140624 9.25 9.25 9.25zm0 0" fill="#fce06a"/><path d="m490.75 410.988281h-96.601562c-7.304688 0-13.25-5.945312-13.25-13.246093v-19.804688c0-7.304688 5.945312-13.25 13.25-13.25h96.601562c7.304688 0 13.25 5.945312 13.25 13.25v19.804688c0 7.300781-5.945312 13.246093-13.25 13.246093zm-96.601562-38.300781c-2.894532 0-5.25 2.355469-5.25 5.25v19.804688c0 2.890624 2.355468 5.246093 5.25 5.246093h96.601562c2.890625 0 5.25-2.355469 5.25-5.246093v-19.804688c0-2.894531-2.359375-5.25-5.25-5.25zm0 0" fill="#690589"/><path d="m279.050781 330.386719h96.597657c5.109374 0 9.25 4.140625 9.25 9.25v19.804687c0 5.105469-4.136719 9.25-9.25 9.25h-96.597657c-5.109375 0-9.25-4.140625-9.25-9.25v-19.804687c0-5.109375 4.140625-9.25 9.25-9.25zm0 0" fill="#fcc24c"/><path d="m375.648438 330.386719h-18.496094c5.109375 0 9.25 4.140625 9.25 9.25v19.804687c0 5.105469-4.140625 9.25-9.25 9.25h18.496094c5.109374 0 9.25-4.140625 9.25-9.25v-19.804687c0-5.109375-4.140626-9.25-9.25-9.25zm0 0" fill="#dea42e"/><path d="m279.050781 368.6875h18.496094c-5.105469 0-9.25-4.140625-9.25-9.25v-19.800781c0-5.109375 4.144531-9.25 9.25-9.25h-18.496094c-5.109375 0-9.25 4.140625-9.25 9.25v19.800781c0 5.109375 4.140625 9.25 9.25 9.25zm0 0" fill="#fce06a"/><path d="m375.648438 372.6875h-96.597657c-7.304687 0-13.25-5.941406-13.25-13.246094v-19.804687c0-7.304688 5.945313-13.25 13.25-13.25h96.597657c7.308593 0 13.25 5.945312 13.25 13.25v19.804687c0 7.304688-5.941407 13.246094-13.25 13.246094zm-96.597657-38.300781c-2.894531 0-5.25 2.355469-5.25 5.25v19.800781c0 2.894531 2.355469 5.25 5.25 5.25h96.597657c2.894531 0 5.25-2.355469 5.25-5.25v-19.800781c0-2.894531-2.355469-5.25-5.25-5.25zm0 0" fill="#690589"/><path d="m279.050781 292.089844h96.597657c5.109374 0 9.25 4.140625 9.25 9.25v19.800781c0 5.109375-4.136719 9.25-9.25 9.25h-96.597657c-5.109375 0-9.25-4.140625-9.25-9.25v-19.800781c0-5.109375 4.140625-9.25 9.25-9.25zm0 0" fill="#fcc24c"/><path d="m375.648438 292.089844h-18.496094c5.109375 0 9.25 4.140625 9.25 9.25v19.800781c0 5.109375-4.140625 9.25-9.25 9.25h18.496094c5.109374 0 9.25-4.140625 9.25-9.25v-19.800781c0-5.109375-4.140626-9.25-9.25-9.25zm0 0" fill="#dea42e"/><path d="m279.050781 330.386719h18.496094c-5.105469 0-9.25-4.136719-9.25-9.25v-19.800781c0-5.105469 4.144531-9.25 9.25-9.25h-18.496094c-5.109375 0-9.25 4.144531-9.25 9.25v19.800781c0 5.109375 4.140625 9.25 9.25 9.25zm0 0" fill="#fce06a"/><path d="m375.648438 334.386719h-96.597657c-7.304687 0-13.25-5.945313-13.25-13.25v-19.800781c0-7.304688 5.945313-13.246094 13.25-13.246094h96.597657c7.308593 0 13.25 5.941406 13.25 13.246094v19.800781c0 7.308593-5.941407 13.25-13.25 13.25zm-96.597657-38.296875c-2.894531 0-5.25 2.351562-5.25 5.246094v19.800781c0 2.894531 2.355469 5.25 5.25 5.25h96.597657c2.894531 0 5.25-2.355469 5.25-5.25v-19.800781c0-2.894532-2.355469-5.246094-5.25-5.246094zm0 0" fill="#690589"/></svg>