<svg height="504pt" viewBox="-63 0 504 504" width="504pt" xmlns="http://www.w3.org/2000/svg"><path d="m252.058594 360.28125h-126.457032c-67.15625 0-121.597656 54.441406-121.597656 121.597656v18.121094h369.65625v-18.121094c-.003906-67.15625-54.441406-121.597656-121.601562-121.597656zm0 0" fill="#f4efed"/><path d="m252.058594 360.28125h-20c67.15625 0 121.597656 54.441406 121.597656 121.597656v18.121094h20v-18.121094c0-67.15625-54.4375-121.597656-121.597656-121.597656zm0 0" fill="#d6d1cf"/><path d="m125.601562 360.28125h20c-67.15625 0-121.597656 54.441406-121.597656 121.597656v18.121094h-20v-18.121094c0-67.15625 54.4375-121.597656 121.597656-121.597656zm0 0" fill="#fff"/><path d="m159.898438 313.859375h57.859374v46.421875h-57.859374zm0 0" fill="#7bac51"/><path d="m250.589844 202.3125c25.371094-3.914062 46.546875-13.574219 56.972656-24.679688-13.285156-7.449218-36.386719-10.28125-61.761719-6.367187-2.734375.421875-5.414062.921875-8.042969 1.472656 6.152344-4.722656 12.285157-10.078125 18.234376-16.023437 22.753906-22.753906 37.003906-48.210938 39.320312-67.164063-18.953125 2.316407-44.410156 16.566407-67.164062 39.320313-7.828126 7.828125-14.621094 15.976562-20.292969 24.066406 3.875-15.722656 6.082031-33.75 6.082031-52.921875 0-41.035156-10.101562-76.839844-25.109375-96.015625-15.003906 19.175781-25.105469 54.980469-25.105469 96.015625 0 19.171875 2.207032 37.199219 6.082032 52.921875-5.675782-8.089844-12.464844-16.238281-20.292969-24.066406-22.753907-22.753906-48.210938-37.003906-67.164063-39.320313 2.3125 18.953125 16.5625 44.410157 39.320313 67.164063 5.949219 5.945312 12.082031 11.296875 18.234375 16.023437-2.628906-.550781-5.308594-1.050781-8.042969-1.472656-25.375-3.914063-48.472656-1.082031-61.761719 6.367187 10.425782 11.105469 31.601563 20.765626 56.972656 24.679688 11.59375 1.789062 22.703126 2.152344 32.628907 1.324219-2.496094 1.492187-4.996094 3.148437-7.476563 4.964843-13.128906 9.621094-22.214844 21.25-24.835937 30.542969 9.652343.304688 23.476562-4.855469 36.605469-14.480469 12.117187-8.875 20.777343-19.457031 24.101562-28.347656.195312-.101562.40625-.199218.597656-.304687.042969.003906.09375.015625.136719.019531.042969-.003906.09375-.015625.136719-.019531.191406.105469.402344.203125.597656.304687 3.324219 8.886719 11.984375 19.46875 24.097656 28.347656 13.132813 9.625 26.957032 14.785157 36.609375 14.480469-2.621093-9.292969-11.707031-20.921875-24.835937-30.542969-2.476563-1.816406-4.980469-3.472656-7.476563-4.964843 9.929688.828125 21.035157.464843 32.632813-1.324219zm0 0" fill="#7bac51"/><g fill="#99ca6f"><path d="m93.367188 92.011719c3.179687 18.660156 17.164062 42.917969 38.953124 64.703125 3.914063 3.914062 7.910157 7.570312 11.9375 10.960937 1.605469 1.351563.40625 3.925781-1.664062 3.605469-.03125-.003906-.054688-.007812-.082031-.011719-1.808594-.28125-3.597657-.515625-5.378907-.726562-5.21875-4.171875-10.410156-8.769531-15.46875-13.824219-22.753906-22.757812-37.003906-48.210938-39.316406-67.167969 3.472656.425781 7.167969 1.253907 11.019532 2.460938zm0 0"/><path d="m114.800781 169.625c-13.90625.582031-25.847656 3.414062-34.046875 8.011719 10.425782 11.105469 31.597656 20.761719 56.96875 24.675781 5.726563.882812 11.332032 1.417969 16.734375 1.632812-8.535156.339844-17.785156-.152343-27.386719-1.632812-25.371093-3.910156-46.542968-13.570312-56.96875-24.675781 10.222657-5.738281 26.277344-8.71875 44.699219-8.011719zm0 0"/><path d="m152.222656 208.601562c2.257813-1.652343 4.535156-3.164062 6.804688-4.550781.816406.003907 1.628906.003907 2.433594-.003906 2.4375-.027344 3.460937 3.0625 1.488281 4.5-.023438.019531-.050781.039063-.074219.054687-12.398438 9.085938-21.183594 19.960938-24.328125 28.972657-4.074219 1.128906-7.859375 1.679687-11.15625 1.574219 2.617187-9.296876 11.703125-20.925782 24.832031-30.546876zm0 0"/><path d="m169.808594 152.9375c5.378906 0 9.441406-4.882812 8.4375-10.167969-2.492188-13.152343-3.871094-27.59375-3.871094-42.753906 0 0-.886719-66.355469 14.453125-96.015625-15.003906 19.175781-25.105469 54.980469-25.105469 96.015625 0 12.363281.925782 24.242187 2.621094 35.34375zm0 0"/></g><path d="m284.292969 92.011719c-3.183594 18.660156-17.164063 42.917969-38.953125 64.703125-3.914063 3.914062-7.910156 7.570312-11.9375 10.960937-1.605469 1.351563-.40625 3.925781 1.664062 3.605469.03125-.003906.054688-.007812.082032-.011719 1.808593-.28125 3.597656-.515625 5.378906-.726562 5.21875-4.171875 10.410156-8.769531 15.464844-13.824219 22.757812-22.753906 37.007812-48.210938 39.320312-67.164062-3.472656.421874-7.167969 1.25-11.019531 2.457031zm0 0" fill="#5d8e33"/><path d="m262.859375 169.625c13.90625.582031 25.847656 3.414062 34.050781 8.011719-10.425781 11.105469-31.601562 20.761719-56.972656 24.675781-5.726562.882812-11.328125 1.417969-16.734375 1.632812 8.535156.339844 17.789063-.152343 27.386719-1.632812 25.371094-3.910156 46.546875-13.570312 56.972656-24.675781-10.226562-5.738281-26.28125-8.71875-44.703125-8.011719zm0 0" fill="#5d8e33"/><path d="m225.4375 208.601562c-2.257812-1.652343-4.535156-3.164062-6.804688-4.550781-.816406.003907-1.625.003907-2.433593-.003906-2.4375-.027344-3.460938 3.0625-1.488281 4.5.023437.019531.050781.039063.074218.054687 12.398438 9.085938 21.183594 19.960938 24.328125 28.972657 4.074219 1.128906 7.859375 1.679687 11.15625 1.574219-2.617187-9.296876-11.703125-20.925782-24.832031-30.546876zm0 0" fill="#5d8e33"/><path d="m207.851562 152.9375c-5.378906 0-9.441406-4.882812-8.441406-10.167969 2.496094-13.152343 3.875-27.59375 3.875-42.753906 0 0 .886719-66.355469-14.453125-96.015625 15.003907 19.175781 25.105469 54.980469 25.105469 96.015625 0 12.363281-.925781 24.242187-2.621094 35.34375zm0 0" fill="#5d8e33"/><path d="m188.828125 267.277344c-2.207031 0-4-1.792969-4-4v-67.335938c0-2.207031 1.792969-4 4-4 2.210937 0 4 1.792969 4 4v67.335938c0 2.207031-1.789063 4-4 4zm0 0" fill="#690589"/><path d="m249.441406 243.160156c-10.863281 0-25.027344-5.652344-38.140625-15.265625-9.71875-7.121093-17.722656-15.695312-22.46875-23.890625-4.742187 8.195313-12.75 16.769532-22.46875 23.890625-13.503906 9.894531-28.117187 15.617188-39.097656 15.25-1.230469-.039062-2.375-.640625-3.101563-1.632812-.722656-.992188-.957031-2.265625-.621093-3.449219 2.714843-9.640625 11.140625-20.65625 22.847656-30.03125-6.496094-.132812-13.15625-.722656-19.929687-1.769531-25.601563-3.949219-47.761719-13.625-59.277344-25.890625-.839844-.894532-1.222656-2.132813-1.039063-3.347656.191407-1.214844.925781-2.277344 2-2.878907 13.457031-7.542969 34.792969-10.320312 57.984375-7.683593-2.480468-2.234376-4.914062-4.542969-7.289062-6.917969-22.808594-22.804688-37.933594-48.789063-40.460938-69.503907-.148437-1.222656.269532-2.445312 1.140625-3.3125.867188-.871093 2.089844-1.292968 3.3125-1.140624 20.714844 2.527343 46.699219 17.648437 69.507813 40.457031 3.574218 3.578125 6.988281 7.269531 10.21875 11.042969-1.867188-11.871094-2.835938-24.429688-2.835938-37.066407 0-40.894531 9.703125-77.710937 25.957032-98.484375.757812-.96875 1.921874-1.535156 3.148437-1.535156 1.230469 0 2.394531.566406 3.152344 1.535156 16.253906 20.773438 25.957031 57.589844 25.957031 98.484375 0 12.632813-.96875 25.195313-2.835938 37.066407 3.226563-3.777344 6.640626-7.464844 10.21875-11.042969 22.808594-22.808594 48.792969-37.933594 69.503907-40.457031 1.226562-.148438 2.445312.269531 3.3125 1.140624.875.871094 1.292969 2.089844 1.144531 3.3125-2.527344 20.714844-17.65625 46.699219-40.460938 69.503907-2.375 2.375-4.804687 4.683593-7.289062 6.921875 23.183594-2.632813 44.53125.136718 57.984375 7.683594 1.074219.601562 1.808594 1.660156 1.996094 2.878906.1875 1.210937-.195313 2.449218-1.039063 3.347656-11.511718 12.261719-33.671875 21.941406-59.277344 25.890625-6.769531 1.042969-13.433593 1.632813-19.925781 1.769531 11.707031 9.375 20.132813 20.390625 22.847657 30.027344.332031 1.1875.101562 2.460938-.625 3.453125-.726563.992187-1.871094 1.59375-3.101563 1.628906-.3125.007813-.628906.015625-.949219.015625zm-60.476562-51.148437c.683594 0 1.359375.175781 1.960937.511719l.539063.277343c.851562.460938 1.507812 1.214844 1.847656 2.121094 3.1875 8.519531 11.679688 18.433594 22.714844 26.523437 9.507812 6.964844 19.738281 11.714844 28.113281 13.210938-3.949219-7.535156-11.558594-15.859375-21.066406-22.828125-2.328125-1.703125-4.738281-3.304687-7.167969-4.757813-1.597656-.953124-2.320312-2.882812-1.753906-4.65625.566406-1.773437 2.304687-2.933593 4.140625-2.761718 9.902343.828125 20.855469.378906 31.6875-1.292969 20.714843-3.195313 39.417969-10.535156 50.542969-19.636719-13.347657-5.324218-33.390626-6.691406-54.109376-3.5-2.511718.386719-5.070312.855469-7.835937 1.433594-1.835937.375-3.675781-.546875-4.453125-2.246094-.78125-1.695312-.28125-3.703125 1.199219-4.839844 6.183593-4.75 12.1875-10.027343 17.839843-15.679687 19.273438-19.269531 33.09375-41.472656 37.214844-59.402344-17.925781 4.125-40.125 17.945313-59.402344 37.214844-7.425781 7.429687-14.105468 15.347656-19.847656 23.535156-1.109375 1.574219-3.175781 2.144531-4.933594 1.34375-1.75-.796875-2.6875-2.726562-2.226562-4.601562 3.90625-15.828125 5.96875-33.792969 5.96875-51.957031 0-35.796876-8-69.242188-21.109375-89.15625-13.105469 19.914062-21.105469 53.359374-21.105469 89.15625 0 18.164062 2.0625 36.132812 5.96875 51.957031.457032 1.875-.476562 3.804687-2.230468 4.601562-1.753907.800781-3.824219.230469-4.929688-1.34375-5.742188-8.1875-12.421875-16.105469-19.847656-23.535156-19.273438-19.269531-41.476563-33.089844-59.402344-37.214844 4.125 17.925781 17.945312 40.132813 37.214844 59.402344 5.660156 5.660156 11.664062 10.933594 17.84375 15.679687 1.476562 1.136719 1.976562 3.144532 1.195312 4.839844-.777344 1.699219-2.628906 2.621094-4.457031 2.246094-2.761719-.578125-5.324219-1.046875-7.832031-1.433594-20.710938-3.191406-40.757813-1.824218-54.109375 3.5 11.128906 9.101563 29.828125 16.445313 50.542969 19.636719 10.835937 1.671875 21.792968 2.121094 31.6875 1.292969 1.863281-.167969 3.570312.992187 4.140624 2.761718.566407 1.773438-.160156 3.703126-1.753906 4.65625-2.425781 1.453126-4.839844 3.050782-7.167968 4.757813-9.507813 6.96875-17.117188 15.292969-21.066407 22.828125 8.375-1.496094 18.605469-6.246094 28.109375-13.210938 11.042969-8.089843 19.53125-18.003906 22.71875-26.523437.339844-.90625.996094-1.660156 1.84375-2.121094l.382813-.195312c.613281-.34375 1.410156-.574219 2.144531-.585938.085938-.003906.167969-.007812.246094-.007812zm0 0" fill="#690589"/><path d="m328.828125 253.226562h-279.996094l12.246094 45.800782c2.339844 8.746094 10.265625 14.832031 19.320313 14.832031h216.863281c9.054687 0 16.980469-6.082031 19.324219-14.832031zm0 0" fill="#f4efed"/><path d="m205.757812 313.859375h12v46.421875h-12zm0 0" fill="#5d8e33"/><path d="m159.898438 313.859375h12v46.421875h-12zm0 0" fill="#99ca6f"/><path d="m373.65625 504h-369.65625c-2.207031 0-4-1.792969-4-4v-18.121094c0-69.253906 56.34375-125.597656 125.597656-125.597656h126.460938c69.253906 0 125.597656 56.34375 125.597656 125.597656v18.121094c0 2.207031-1.789062 4-4 4zm-365.65625-8h361.65625v-14.121094c0-64.84375-52.753906-117.597656-117.597656-117.597656h-126.457032c-64.84375 0-117.597656 52.753906-117.597656 117.597656v14.121094zm0 0" fill="#690589"/><path d="m217.761719 364.28125h-57.859375c-2.207032 0-4-1.792969-4-4v-46.421875c0-2.207031 1.792968-4 4-4h57.859375c2.207031 0 4 1.792969 4 4v46.421875c0 2.207031-1.792969 4-4 4zm-53.859375-8h49.859375v-38.421875h-49.859375zm0 0" fill="#690589"/><path d="m257.109375 455.503906h-136.558594c-4.476562 0-8.105469-3.632812-8.105469-8.109375v-57.6875c0-4.476562 3.628907-8.105469 8.105469-8.105469h136.554688c4.480469 0 8.105469 3.628907 8.105469 8.105469v57.6875c.003906 4.476563-3.625 8.109375-8.101563 8.109375zm0 0" fill="#fcc24c"/><path d="m257.109375 381.597656h-20c4.476563 0 8.105469 3.628906 8.105469 8.105469v57.691406c0 4.476563-3.628906 8.109375-8.105469 8.109375h20c4.476563 0 8.105469-3.632812 8.105469-8.109375v-57.691406c0-4.476563-3.628906-8.105469-8.105469-8.105469zm0 0" fill="#dea42e"/><path d="m120.550781 455.503906h20c-4.476562 0-8.105469-3.632812-8.105469-8.109375v-57.6875c0-4.476562 3.628907-8.105469 8.105469-8.105469h-20c-4.476562 0-8.105469 3.628907-8.105469 8.105469v57.6875c0 4.476563 3.628907 8.109375 8.105469 8.109375zm0 0" fill="#fce06a"/><path d="m257.109375 459.503906h-136.558594c-6.675781 0-12.105469-5.433594-12.105469-12.109375v-57.691406c0-6.675781 5.429688-12.105469 12.105469-12.105469h136.554688c6.675781 0 12.105469 5.429688 12.105469 12.105469v57.691406c0 6.675781-5.425782 12.109375-12.101563 12.109375zm-136.558594-73.90625c-2.261719 0-4.105469 1.84375-4.105469 4.109375v57.6875c0 2.265625 1.84375 4.109375 4.105469 4.109375h136.554688c2.265625 0 4.105469-1.84375 4.105469-4.109375v-57.6875c0-2.265625-1.839844-4.109375-4.105469-4.109375zm0 0" fill="#690589"/><path d="m308.828125 253.226562-16.214844 60.632813h4.648438c9.054687 0 16.980469-6.085937 19.320312-14.835937l12.246094-45.796876zm0 0" fill="#d6d1cf"/><path d="m68.832031 253.226562 16.210938 60.632813h-4.644531c-9.054688 0-16.984376-6.085937-19.324219-14.835937l-12.246094-45.796876zm0 0" fill="#fff"/><path d="m297.261719 317.859375h-216.863281c-10.847657 0-20.378907-7.320313-23.183594-17.800781l-12.246094-45.792969c-.324219-1.203125-.066406-2.484375.691406-3.46875.757813-.988281 1.929688-1.566406 3.171875-1.566406h279.996094c1.242187 0 2.414063.578125 3.171875 1.566406.757812.984375 1.015625 2.265625.691406 3.46875l-12.246094 45.792969c-2.804687 10.480468-12.335937 17.800781-23.183593 17.800781zm-243.21875-60.632813 10.898437 40.765626c1.871094 6.984374 8.222656 11.867187 15.457032 11.867187h216.863281c7.230469 0 13.589843-4.878906 15.457031-11.867187l10.898438-40.765626zm0 0" fill="#690589"/><path d="m41.507812 423.742188c-.554687 0-1.117187-.117188-1.65625-.363282-2.003906-.914062-2.894531-3.277344-1.984374-5.289062.238281-.519532 5.953124-12.902344 19.785156-25.320313 1.640625-1.476562 4.171875-1.34375 5.648437.300781 1.476563 1.644532 1.339844 4.171876-.304687 5.648438-12.507813 11.230469-17.792969 22.570312-17.847656 22.683594-.671876 1.472656-2.125 2.339844-3.640626 2.339844zm0 0" fill="#690589"/><path d="m188.828125 450.179688c-1.023437 0-2.046875-.390626-2.824219-1.171876-1.5625-1.5625-1.5625-4.097656 0-5.65625l38.925782-38.925781c1.558593-1.5625 4.09375-1.5625 5.65625 0 1.558593 1.558594 1.558593 4.09375 0 5.652344l-38.929688 38.929687c-.78125.78125-1.800781 1.171876-2.828125 1.171876zm0 0" fill="#690589"/><path d="m207.476562 455.503906c0-10.300781-8.347656-18.648437-18.648437-18.648437-10.296875 0-18.644531 8.347656-18.644531 18.648437zm0 0" fill="#ff4397"/><path d="m207.476562 459.503906h-37.292968c-2.210938 0-4-1.792968-4-4 0-12.488281 10.160156-22.648437 22.644531-22.648437 12.488281 0 22.648437 10.160156 22.648437 22.648437 0 2.207032-1.789062 4-4 4zm-32.742187-8h28.191406c-1.746093-6.140625-7.402343-10.648437-14.097656-10.648437-6.6875 0-12.347656 4.507812-14.09375 10.648437zm0 0" fill="#690589"/></svg>