<svg height="504pt" viewBox="0 -92 504.002 504" width="504pt" xmlns="http://www.w3.org/2000/svg"><path d="m292.308594 38.332031h-244.734375c-11.675781 0-21.144531 9.46875-21.144531 21.144531v186.746094h287.023437v-186.742187c0-11.679688-9.46875-21.148438-21.144531-21.148438zm0 0" fill="#f4efed"/><path d="m67.574219 38.332031h-20c-11.675781 0-21.144531 9.46875-21.144531 21.144531v186.746094h20v-186.742187c0-11.679688 9.464843-21.148438 21.144531-21.148438zm0 0" fill="#fff"/><path d="m257.714844 202.429688h-231.285156v43.792968h252.429687v-22.644531c0-11.679687-9.46875-21.148437-21.144531-21.148437zm0 0" fill="#fcc24c"/><path d="m26.429688 202.429688h20.042968v43.792968h-20.042968zm0 0" fill="#fce06a"/><path d="m489.429688 290.042969h-474.859376c-5.839843 0-10.570312-4.734375-10.570312-10.574219v-22.671875c0-5.839844 4.734375-10.570313 10.570312-10.570313h474.855469c5.839844 0 10.570313 4.734376 10.570313 10.570313v22.671875c.003906 5.839844-4.730469 10.574219-10.566406 10.574219zm0 0" fill="#f4efed"/><path d="m456.425781 158.632812h-42.378906l-8.324219-68.972656c-1.28125-10.625-10.296875-18.613281-20.996094-18.613281h-71.273437v175.179687h164.117187v-66.445312c0-11.679688-9.464843-21.148438-21.144531-21.148438zm0 0" fill="#7bac51"/><path d="m384.730469 71.046875h-38.152344v67.589844c0 11.046875 8.957031 20 20 20h47.472656l-8.328125-68.976563c-1.28125-10.625-10.292968-18.613281-20.992187-18.613281zm0 0" fill="#fcc24c"/><path d="m385.722656 89.660156 8.324219 68.976563h20l-8.324219-68.976563c-1.28125-10.625-10.296875-18.613281-20.996094-18.613281h-20c10.703126 0 19.714844 7.988281 20.996094 18.613281zm0 0" fill="#dea42e"/><path d="m292.308594 38.332031h-20c11.675781 0 21.144531 9.46875 21.144531 21.144531v186.746094h20v-186.742187c0-11.679688-9.46875-21.148438-21.144531-21.148438zm0 0" fill="#d6d1cf"/><path d="m456.425781 158.632812h-20c11.675781 0 21.144531 9.46875 21.144531 21.148438v66.441406h20v-66.441406c0-11.679688-9.464843-21.148438-21.144531-21.148438zm0 0" fill="#5d8e33"/><path d="m456.425781 158.632812h-5.082031v37.0625c0 5.792969 4.695312 10.492188 10.492188 10.492188h15.734374v-26.40625c0-11.679688-9.464843-21.148438-21.144531-21.148438zm0 0" fill="#ff4397"/><path d="m313.453125 250.222656h-287.023437c-2.207032 0-4-1.789062-4-4v-186.742187c0-13.867188 11.28125-25.144531 25.144531-25.144531h244.734375c13.867187 0 25.144531 11.28125 25.144531 25.144531v186.742187c0 2.210938-1.789063 4-4 4zm-283.023437-8h279.023437v-182.742187c0-9.457031-7.691406-17.144531-17.144531-17.144531h-244.734375c-9.453125 0-17.144531 7.691406-17.144531 17.144531zm0 0" fill="#690589"/><path d="m42.429688 97.078125c-2.207032 0-4-1.792969-4-4v-24c0-2.207031 1.792968-4 4-4 2.207031 0 4 1.792969 4 4v24c0 2.207031-1.792969 4-4 4zm0 0" fill="#690589"/><path d="m489.429688 246.222656h-20c5.839843 0 10.570312 4.734375 10.570312 10.574219v22.671875c0 5.839844-4.734375 10.570312-10.570312 10.570312h20c5.839843 0 10.570312-4.734374 10.570312-10.570312v-22.671875c0-5.839844-4.734375-10.574219-10.570312-10.574219zm0 0" fill="#d6d1cf"/><path d="m14.570312 290.039062h20c-5.839843 0-10.574218-4.734374-10.574218-10.574218v-22.667969c0-5.839844 4.734375-10.570313 10.574218-10.570313h-20c-5.839843 0-10.570312 4.734376-10.570312 10.570313v22.671875c0 5.835938 4.734375 10.570312 10.570312 10.570312zm0 0" fill="#fff"/><path d="m477.570312 250.222656h-164.117187c-2.207031 0-4-1.789062-4-4v-175.175781c0-2.207031 1.792969-4 4-4h71.277344c12.707031 0 23.441406 9.511719 24.964843 22.132813l7.902344 65.453124h38.828125c13.867188 0 25.144531 11.285157 25.144531 25.148438v66.441406c0 2.210938-1.789062 4-4 4zm-160.117187-8h156.117187v-62.441406c0-9.457031-7.691406-17.148438-17.144531-17.148438h-42.378906c-2.023437 0-3.726563-1.511718-3.96875-3.519531l-8.324219-68.976562c-1.042968-8.601563-8.359375-15.089844-17.023437-15.089844h-67.277344zm0 0" fill="#690589"/><path d="m278.859375 250.222656h-252.429687c-2.207032 0-4-1.789062-4-4v-43.792968c0-2.207032 1.792968-4 4-4h231.285156c13.863281 0 25.144531 11.28125 25.144531 25.148437v22.644531c0 2.210938-1.792969 4-4 4zm-248.429687-8h244.429687v-18.644531c0-9.457031-7.691406-17.148437-17.144531-17.148437h-227.285156zm0 0" fill="#690589"/><path d="m222.074219 171.324219c21.417969-3.300781 39.292969-11.457031 48.097656-20.832031-11.21875-6.289063-30.71875-8.679688-52.136719-5.375-2.308594.355468-4.570312.78125-6.789062 1.242187 5.195312-3.988281 10.371094-8.503906 15.390625-13.523437 19.210937-19.210938 31.238281-40.699219 33.191406-56.699219-15.996094 1.953125-37.484375 13.984375-56.695313 33.195312-6.605468 6.605469-12.339843 13.484375-17.132812 20.316407 3.273438-13.277344 5.136719-28.492188 5.136719-44.675782 0-34.640625-8.527344-64.867187-21.195313-81.054687-12.664062 16.1875-21.195312 46.414062-21.195312 81.054687 0 16.183594 1.863281 31.398438 5.136718 44.675782-4.789062-6.832032-10.523437-13.710938-17.132812-20.316407-19.207031-19.210937-40.695312-31.242187-56.695312-33.195312 1.953124 16 13.980468 37.488281 33.191406 56.699219 5.023437 5.019531 10.199218 9.535156 15.390625 13.523437-2.21875-.460937-4.480469-.886719-6.789063-1.242187-21.417968-3.300782-40.917968-.914063-52.132812 5.375 8.800781 9.375 26.675781 17.527343 48.09375 20.832031 9.789062 1.511719 19.164062 1.816406 27.542968 1.121093-2.105468 1.257813-4.21875 2.65625-6.3125 4.1875-11.082031 8.125-18.753906 17.9375-20.964843 25.785157 8.148437.257812 19.820312-4.097657 30.902343-12.222657 10.230469-7.496093 17.539063-16.425781 20.34375-23.929687.167969-.085937.34375-.167969.503907-.257813.039062.003907.078125.011719.117187.015626.039063-.003907.078125-.011719.117188-.015626.160156.089844.339844.171876.503906.257813 2.804688 7.503906 10.117188 16.433594 20.34375 23.929687 11.082031 8.125 22.753906 12.480469 30.902344 12.222657-2.210938-7.847657-9.878906-17.660157-20.964844-25.785157-2.089844-1.53125-4.207031-2.929687-6.3125-4.1875 8.378906.695313 17.757812.390626 27.542969-1.121093zm0 0" fill="#7bac51"/><g fill="#690589"><path d="m169.941406 206.222656c-2.207031 0-4-1.789062-4-4v-36.277344c0-2.207031 1.792969-4 4-4 2.207032 0 4 1.792969 4 4v36.277344c0 2.210938-1.792968 4-4 4zm0 0"/><path d="m221.109375 206.433594c-9.296875 0-21.390625-4.820313-32.570313-13.007813-8.027343-5.886719-14.523437-12.710937-18.597656-19.414062-4.074218 6.707031-10.570312 13.527343-18.597656 19.414062-11.511719 8.433594-23.953125 13.265625-33.394531 12.992188-1.230469-.039063-2.375-.640625-3.101563-1.632813-.726562-.992187-.957031-2.265625-.625-3.449218 2.226563-7.894532 8.894532-16.847657 18.199219-24.601563-4.976563-.175781-10.0625-.660156-15.222656-1.457031-21.746094-3.355469-40.589844-11.59375-50.402344-22.042969-.839844-.898437-1.222656-2.132813-1.035156-3.351563.183593-1.214843.921875-2.277343 1.996093-2.875 11.097657-6.226562 28.453126-8.644531 47.425782-6.765624-1.617188-1.488282-3.207032-3.019532-4.765625-4.578126-19.347657-19.347656-32.183594-41.421874-34.332031-59.042968-.148438-1.21875.269531-2.441406 1.140624-3.3125.867188-.867188 2.082032-1.289063 3.3125-1.140625 17.621094 2.152343 39.691407 14.988281 59.039063 34.335937 2.515625 2.515625 4.933594 5.09375 7.246094 7.726563-1.367188-9.417969-2.078125-19.308594-2.078125-29.257813 0-34.65625 8.242187-65.878906 22.042968-83.519531 1.519532-1.9375 4.785157-1.9375 6.300782 0 13.800781 17.636719 22.042968 48.863281 22.042968 83.519531 0 9.949219-.707031 19.839844-2.078124 29.257813 2.3125-2.632813 4.734374-5.210938 7.25-7.726563 19.34375-19.347656 41.417968-32.183594 59.039062-34.335937 1.214844-.148438 2.441406.273437 3.3125 1.140625.871094.871094 1.292969 2.09375 1.140625 3.3125-2.148437 17.621094-14.984375 39.695312-34.332031 59.042968-1.5625 1.558594-3.152344 3.085938-4.765625 4.578126 18.960937-1.878907 36.328125.539062 47.425781 6.765624 1.074219.601563 1.808594 1.660157 1.996094 2.875.1875 1.21875-.195313 2.453126-1.035156 3.351563-9.8125 10.449219-28.652344 18.691406-50.402344 22.042969-5.160156.796875-10.25 1.28125-15.226563 1.457031 9.308594 7.753906 15.976563 16.707031 18.199219 24.601563.332031 1.183593.101562 2.457031-.625 3.449218-.726562.992188-1.871094 1.59375-3.097656 1.632813-.273438.007812-.546875.015625-.824219.015625zm-51.050781-44.425782c.679687 0 1.347656.175782 1.949218.507813l.433594.222656c.863282.457031 1.527344 1.214844 1.867188 2.128907 2.648437 7.078124 9.734375 15.339843 18.960937 22.101562 7.472657 5.476562 15.460938 9.3125 22.175781 10.789062-3.429687-5.957031-9.496093-12.421874-16.964843-17.894531-1.953125-1.429687-3.972657-2.773437-6-3.984375-1.597657-.957031-2.328125-2.886718-1.753907-4.660156.570313-1.769531 2.269532-2.910156 4.140626-2.761719 8.304687.699219 17.5.316407 26.601562-1.085937 16.871094-2.601563 32.132812-8.464844 41.523438-15.769532-11.152344-4.136718-27.472657-5.132812-44.347657-2.53125-2.078125.320313-4.230469.714844-6.578125 1.207032-1.832031.375-3.675781-.550782-4.453125-2.246094-.78125-1.695312-.285156-3.703125 1.195313-4.839844 5.199218-3.992187 10.246094-8.429687 15-13.183594 15.84375-15.84375 27.296875-34.019531 31.011718-48.859374-14.839843 3.71875-33.019531 15.171874-48.859374 31.011718-6.246094 6.246094-11.859376 12.898438-16.6875 19.785156-1.101563 1.574219-3.175782 2.144532-4.929688 1.34375-1.75-.796874-2.6875-2.730468-2.226562-4.601562 3.28125-13.308594 5.019531-28.425781 5.019531-43.714844 0-29.628906-6.503907-57.320312-17.195313-74.113281-10.6875 16.792969-17.195312 44.480469-17.195312 74.113281 0 15.292969 1.738281 30.40625 5.023437 43.714844.457031 1.871094-.476562 3.804688-2.230469 4.601562-1.75.800782-3.824218.230469-4.929687-1.34375-4.824219-6.882812-10.4375-13.539062-16.683594-19.785156-15.839843-15.839844-34.019531-27.292968-48.863281-31.011718 3.722656 14.839843 15.171875 33.015624 31.011719 48.859374 4.761719 4.757813 9.808593 9.195313 15 13.183594 1.480469 1.136719 1.980469 3.144532 1.203125 4.839844-.78125 1.695312-2.625 2.625-4.457032 2.246094-2.34375-.492188-4.5-.886719-6.578124-1.207032-16.871094-2.601562-33.195313-1.605468-44.347657 2.53125 9.390625 7.300782 24.65625 13.167969 41.523438 15.769532 9.101562 1.40625 18.300781 1.785156 26.601562 1.085937 1.867188-.148437 3.574219.992188 4.140625 2.761719.570313 1.773438-.15625 3.707031-1.753906 4.660156-2.03125 1.214844-4.050781 2.554688-6 3.984375-7.46875 5.472657-13.535156 11.9375-16.964844 17.894531 6.714844-1.476562 14.703125-5.3125 22.175782-10.789062 9.226562-6.761719 16.3125-15.023438 18.960937-22.101562.339844-.914063 1-1.667969 1.859375-2.125l.324219-.164063c.660156-.375 1.523437-.566406 2.296875-.570313zm0 0"/><path d="m477.570312 210.1875h-15.734374c-7.992188 0-14.492188-6.503906-14.492188-14.492188v-37.0625c0-2.207031 1.789062-4 4-4h5.082031c13.867188 0 25.144531 11.285157 25.144531 25.148438v26.40625c0 2.210938-1.789062 4-4 4zm-22.226562-47.554688v33.0625c0 3.578126 2.910156 6.492188 6.492188 6.492188h11.734374v-22.40625c0-9.457031-7.691406-17.148438-17.144531-17.148438zm0 0"/><path d="m414.046875 162.632812h-47.46875c-13.234375 0-24-10.765624-24-24v-67.585937c0-2.207031 1.792969-4 4-4h38.152344c12.707031 0 23.441406 9.515625 24.964843 22.132813l8.324219 68.976562c.136719 1.132812-.21875 2.273438-.976562 3.128906-.757813.859375-1.847657 1.347656-2.996094 1.347656zm-63.46875-87.585937v63.585937c0 8.824219 7.179687 16 16 16h42.957031l-7.785156-64.496093c-1.039062-8.601563-8.359375-15.089844-17.023438-15.089844zm0 0"/><path d="m489.425781 294.039062h-474.851562c-8.035157 0-14.574219-6.535156-14.574219-14.570312v-22.671875c0-8.035156 6.539062-14.574219 14.574219-14.574219h474.855469c8.035156 0 14.574218 6.539063 14.574218 14.574219v22.671875c-.003906 8.035156-6.542968 14.570312-14.578125 14.570312zm-474.851562-43.816406c-3.625 0-6.574219 2.953125-6.574219 6.574219v22.671875c0 3.625 2.949219 6.570312 6.574219 6.570312h474.855469c3.621093 0 6.574218-2.949218 6.574218-6.570312v-22.671875c0-3.621094-2.949218-6.574219-6.574218-6.574219zm0 0"/></g><path d="m102.542969 221.378906c-25.832031-6.097656-51.71875 9.898438-57.820313 35.730469-6.101562 25.835937 9.898438 51.722656 35.730469 57.820313 25.832031 6.101562 51.722656-9.894532 57.820313-35.730469 6.101562-25.832031-9.894532-51.71875-35.730469-57.820313zm0 0" fill="#ff4397"/><path d="m217.402344 221.078125c-25.984375-5.40625-51.433594 11.28125-56.839844 37.269531-5.402344 25.988282 11.28125 51.433594 37.269531 56.839844s51.4375-11.28125 56.839844-37.269531c5.40625-25.988281-11.28125-51.433594-37.269531-56.839844zm0 0" fill="#ff4397"/><path d="m399.710938 221.335938c-25.847657-6.035157-51.695313 10.03125-57.730469 35.878906-6.03125 25.851562 10.03125 51.695312 35.882812 57.730468 25.847657 6.035157 51.695313-10.03125 57.726563-35.878906 6.035156-25.851562-10.027344-51.695312-35.878906-57.730468zm0 0" fill="#ff4397"/><path d="m91.511719 320.195312c-28.707031 0-52.0625-23.355468-52.0625-52.0625 0-28.707031 23.355469-52.0625 52.0625-52.0625s52.0625 23.355469 52.0625 52.0625c0 28.707032-23.355469 52.0625-52.0625 52.0625zm0-96.125c-24.296875 0-44.0625 19.765626-44.0625 44.0625 0 24.296876 19.765625 44.0625 44.0625 44.0625s44.0625-19.765624 44.0625-44.0625c0-24.296874-19.765625-44.0625-44.0625-44.0625zm0 0" fill="#690589"/><path d="m207.640625 320.195312c-28.707031 0-52.0625-23.355468-52.0625-52.0625 0-28.707031 23.355469-52.0625 52.0625-52.0625 28.710937 0 52.066406 23.355469 52.066406 52.0625 0 28.707032-23.355469 52.0625-52.066406 52.0625zm0-96.125c-24.292969 0-44.0625 19.765626-44.0625 44.0625 0 24.296876 19.769531 44.0625 44.0625 44.0625 24.300781 0 44.066406-19.765624 44.066406-44.0625 0-24.296874-19.765625-44.0625-44.066406-44.0625zm0 0" fill="#690589"/><path d="m388.796875 320.195312c-28.707031 0-52.0625-23.355468-52.0625-52.0625 0-28.707031 23.355469-52.0625 52.0625-52.0625 28.710937 0 52.066406 23.355469 52.066406 52.0625 0 28.707032-23.355469 52.0625-52.066406 52.0625zm0-96.125c-24.292969 0-44.0625 19.765626-44.0625 44.0625 0 24.296876 19.769531 44.0625 44.0625 44.0625 24.296875 0 44.066406-19.765624 44.066406-44.0625 0-24.296874-19.765625-44.0625-44.066406-44.0625zm0 0" fill="#690589"/><path d="m109.214844 268.132812c0 9.777344-7.925782 17.703126-17.703125 17.703126-9.777344 0-17.703125-7.925782-17.703125-17.703126 0-9.777343 7.925781-17.703124 17.703125-17.703124 9.777343 0 17.703125 7.925781 17.703125 17.703124zm0 0" fill="#f4efed"/><path d="m225.347656 268.132812c0 9.777344-7.929687 17.703126-17.707031 17.703126s-17.703125-7.925782-17.703125-17.703126c0-9.777343 7.925781-17.703124 17.703125-17.703124s17.707031 7.925781 17.707031 17.703124zm0 0" fill="#f4efed"/><path d="m406.503906 268.132812c0 9.777344-7.929687 17.703126-17.707031 17.703126s-17.703125-7.925782-17.703125-17.703126c0-9.777343 7.925781-17.703124 17.703125-17.703124s17.707031 7.925781 17.707031 17.703124zm0 0" fill="#f4efed"/><path d="m91.511719 289.839844c-11.96875 0-21.707031-9.738282-21.707031-21.707032s9.738281-21.707031 21.707031-21.707031 21.707031 9.738281 21.707031 21.707031-9.738281 21.707032-21.707031 21.707032zm0-35.410156c-7.554688 0-13.707031 6.148437-13.707031 13.703124 0 7.558594 6.148437 13.707032 13.707031 13.707032 7.558593 0 13.707031-6.148438 13.707031-13.707032 0-7.554687-6.148438-13.703124-13.707031-13.703124zm0 0" fill="#690589"/><path d="m207.640625 289.839844c-11.964844 0-21.703125-9.738282-21.703125-21.707032s9.738281-21.707031 21.703125-21.707031c11.96875 0 21.707031 9.738281 21.707031 21.707031s-9.738281 21.707032-21.707031 21.707032zm0-35.410156c-7.554687 0-13.703125 6.148437-13.703125 13.703124 0 7.558594 6.148438 13.707032 13.703125 13.707032 7.558594 0 13.707031-6.148438 13.707031-13.707032 0-7.554687-6.148437-13.703124-13.707031-13.703124zm0 0" fill="#690589"/><path d="m388.796875 289.839844c-11.96875 0-21.703125-9.738282-21.703125-21.707032s9.734375-21.707031 21.703125-21.707031 21.707031 9.738281 21.707031 21.707031-9.738281 21.707032-21.707031 21.707032zm0-35.410156c-7.554687 0-13.703125 6.148437-13.703125 13.703124 0 7.558594 6.144531 13.707032 13.703125 13.707032s13.707031-6.148438 13.707031-13.707032c0-7.554687-6.148437-13.703124-13.707031-13.703124zm0 0" fill="#690589"/><path d="m371.09375 181.265625h-22.082031c-2.207031 0-4-1.792969-4-4s1.792969-4 4-4h22.082031c2.207031 0 4 1.792969 4 4s-1.792969 4-4 4zm0 0" fill="#690589"/></svg>