<svg height="504pt" viewBox="-50 0 504 504" width="504pt" xmlns="http://www.w3.org/2000/svg"><path d="m314.085938 130.789062c-2.207032 0-4-1.792968-4-4v-31.730468c0-48.003906-39.054688-87.058594-87.058594-87.058594-48.007813 0-87.058594 39.054688-87.058594 87.058594v31.730468c0 2.207032-1.792969 4-4 4-2.210938 0-4-1.792968-4-4v-31.730468c-.003906-52.414063 42.636719-95.058594 95.054688-95.058594 52.414062 0 95.058593 42.644531 95.058593 95.058594v31.730468c.003907 2.207032-1.789062 4-3.996093 4zm0 0" fill="#690589"/><path d="m361.324219 500h-357.324219l38.929688-411.71875h279.464843zm0 0" fill="#fcc24c"/><path d="m361.324219 88.28125-16.691407 30.03125-22.238281-30.03125 38.929688 411.71875h38.929687zm0 0" fill="#e12579"/><path d="m400.253906 504h-38.929687c-2.0625 0-3.789063-1.570312-3.984375-3.625l-38.925782-411.714844c-.167968-1.789062.875-3.46875 2.550782-4.113281 1.679687-.644531 3.578125-.085937 4.644531 1.355469l18.542969 25.042968 13.675781-24.605468c.851563-1.53125 2.605469-2.332032 4.316406-1.972656 1.714844.359374 2.996094 1.792968 3.164063 3.539062l38.929687 411.714844c.105469 1.121094-.265625 2.238281-1.023437 3.070312-.757813.835938-1.832032 1.308594-2.960938 1.308594zm-35.289062-8h30.894531l-37.300781-394.503906-10.429688 18.761718c-.660156 1.1875-1.878906 1.957032-3.238281 2.046876-1.359375.082031-2.664063-.519532-3.472656-1.609376l-13.6875-18.488281zm0 0" fill="#690589"/><path d="m322.394531 88.28125h-20.25l38.929688 411.71875h20.25zm0 0" fill="#dea42e"/><path d="m42.929688 88.28125h20.25l-38.933594 411.71875h-20.246094zm0 0" fill="#fce06a"/><path d="m361.324219 504h-357.324219c-1.125 0-2.203125-.472656-2.957031-1.308594-.757813-.832031-1.1289065-1.949218-1.027344-3.066406l38.929687-411.722656c.199219-2.050782 1.921876-3.621094 3.984376-3.621094h279.464843c2.0625 0 3.785157 1.570312 3.980469 3.621094l38.929688 411.71875c.105468 1.121094-.265626 2.238281-1.023438 3.070312-.757812.835938-1.828125 1.308594-2.957031 1.308594zm-352.929688-8h348.53125l-38.171875-403.71875h-272.183594zm0 0" fill="#690589"/><path d="m50.15625 187.972656c-.121094 0-.25-.003906-.378906-.015625-2.199219-.210937-3.8125-2.160156-3.605469-4.359375l2.269531-24c.207032-2.199218 2.121094-3.824218 4.359375-3.609375 2.199219.210938 3.8125 2.160157 3.605469 4.363281l-2.269531 24c-.199219 2.070313-1.941407 3.621094-3.980469 3.621094zm0 0" fill="#690589"/><path d="m288.414062 125.183594c0 7.320312-5.933593 13.257812-13.257812 13.257812s-13.261719-5.9375-13.261719-13.257812c0-7.324219 5.9375-13.261719 13.261719-13.261719s13.257812 5.9375 13.257812 13.261719zm0 0" fill="#f4efed"/><path d="m275.15625 142.441406c-9.519531 0-17.261719-7.742187-17.261719-17.257812 0-9.519532 7.742188-17.261719 17.261719-17.261719 9.515625 0 17.257812 7.742187 17.257812 17.261719 0 9.515625-7.742187 17.257812-17.257812 17.257812zm0-26.519531c-5.105469 0-9.261719 4.152344-9.261719 9.261719 0 5.105468 4.15625 9.257812 9.261719 9.257812s9.257812-4.152344 9.257812-9.257812c0-5.109375-4.15625-9.261719-9.257812-9.261719zm0 0" fill="#690589"/><path d="m106.292969 125.183594c0 7.320312-5.9375 13.257812-13.257813 13.257812-7.324218 0-13.261718-5.9375-13.261718-13.257812 0-7.324219 5.9375-13.261719 13.261718-13.261719 7.320313 0 13.257813 5.9375 13.257813 13.261719zm0 0" fill="#f4efed"/><path d="m93.035156 142.441406c-9.519531 0-17.261718-7.742187-17.261718-17.257812 0-9.519532 7.742187-17.261719 17.261718-17.261719 9.515625 0 17.257813 7.742187 17.257813 17.261719 0 9.515625-7.742188 17.257812-17.257813 17.257812zm0-26.519531c-5.109375 0-9.261718 4.152344-9.261718 9.261719 0 5.105468 4.152343 9.257812 9.261718 9.257812 5.105469 0 9.257813-4.152344 9.257813-9.257812 0-5.109375-4.152344-9.261719-9.257813-9.261719zm0 0" fill="#690589"/><path d="m275.15625 130.789062c-2.210938 0-4-1.792968-4-4v-31.730468c0-48.003906-39.054688-87.058594-87.0625-87.058594-48.003906 0-87.058594 39.054688-87.058594 87.058594v31.730468c0 2.207032-1.792968 4-4 4-2.207031 0-4-1.792968-4-4v-31.730468c0-52.414063 42.640625-95.058594 95.058594-95.058594 52.414062 0 95.058594 42.644531 95.058594 95.058594v31.730468c.003906 2.207032-1.789063 4-3.996094 4zm0 0" fill="#690589"/><path d="m250.6875 393.113281c28.269531-4.359375 51.859375-15.121093 63.476562-27.492187-14.804687-8.300782-40.539062-11.457032-68.808593-7.097656-3.050781.46875-6.03125 1.027343-8.960938 1.640624 6.855469-5.261718 13.6875-11.222656 20.316407-17.851562 25.351562-25.351562 41.226562-53.710938 43.804687-74.828125-21.113281 2.578125-49.472656 18.457031-74.828125 43.808594-8.71875 8.722656-16.289062 17.800781-22.613281 26.816406 4.324219-17.519531 6.777343-37.605469 6.777343-58.964844 0-45.71875-11.253906-85.609375-27.96875-106.972656-16.71875 21.363281-27.972656 61.253906-27.972656 106.972656 0 21.359375 2.457032 41.445313 6.777344 58.964844-6.324219-9.015625-13.890625-18.09375-22.613281-26.816406-25.351563-25.351563-53.710938-41.230469-74.828125-43.808594 2.578125 21.117187 18.457031 49.476563 43.808594 74.828125 6.628906 6.628906 13.460937 12.589844 20.316406 17.851562-2.929688-.613281-5.914063-1.171874-8.960938-1.640624-28.269531-4.359376-54.007812-1.203126-68.808594 7.097656 11.617188 12.371094 35.207032 23.132812 63.476563 27.492187 12.917969 1.992188 25.292969 2.398438 36.351563 1.480469-2.777344 1.660156-5.570313 3.507812-8.328126 5.53125-14.628906 10.71875-24.753906 23.671875-27.667968 34.03125 10.753906.339844 26.15625-5.414062 40.785156-16.132812 13.5-9.890626 23.148438-21.679688 26.851562-31.582032.21875-.117187.449219-.222656.664063-.34375.050781.007813.101563.019532.152344.023438.050781-.003906.101562-.015625.152343-.023438.210938.117188.449219.226563.667969.34375 3.703125 9.902344 13.351563 21.691406 26.847657 31.582032 14.628906 10.71875 30.03125 16.472656 40.785156 16.132812-2.914063-10.359375-13.039063-23.3125-27.667969-34.03125-2.761719-2.023438-5.546875-3.871094-8.328125-5.53125 11.050781.917969 23.421875.511719 36.34375-1.480469zm0 0" fill="#7bac51"/><g fill="#99ca6f"><path d="m75.519531 270.222656c3.542969 20.789063 19.125 47.816406 43.398438 72.089844 4.359375 4.363281 8.8125 8.433594 13.300781 12.210938 1.785156 1.503906.449219 4.371093-1.859375 4.015624-.027344-.003906-.058594-.011718-.089844-.015624-2.011719-.308594-4.007812-.570313-5.988281-.808594-5.816406-4.652344-11.601562-9.769532-17.230469-15.402344-25.355469-25.351562-41.230469-53.710938-43.808593-74.828125 3.867187.472656 7.984374 1.394531 12.277343 2.738281zm0 0"/><path d="m99.398438 356.695312c-15.492188.648438-28.800782 3.800782-37.9375 8.925782 11.617187 12.371094 35.207031 23.132812 63.476562 27.492187 6.378906.984375 12.625 1.578125 18.644531 1.820313-9.511719.375-19.820312-.171875-30.511719-1.820313-28.269531-4.359375-51.859374-15.121093-63.476562-27.492187 11.394531-6.390625 29.28125-9.714844 49.804688-8.925782zm0 0"/><path d="m141.09375 400.121094c2.511719-1.839844 5.050781-3.527344 7.578125-5.070313.910156.007813 1.816406.003907 2.710937-.003906 2.71875-.027344 3.855469 3.410156 1.660157 5.015625-.027344.019531-.054688.039062-.082031.058594-13.816407 10.125-23.605469 22.238281-27.109376 32.277344-4.539062 1.257812-8.757812 1.871093-12.429687 1.753906 2.917969-10.355469 13.042969-23.308594 27.671875-34.03125zm0 0"/><path d="m160.683594 338.105469c5.996094 0 10.523437-5.441407 9.40625-11.328125-2.78125-14.65625-4.316406-30.746094-4.316406-47.632813 0 0-.984376-73.929687 16.105468-106.976562-16.71875 21.363281-27.972656 61.257812-27.972656 106.976562 0 13.777344 1.035156 27.007813 2.917969 39.375zm0 0"/></g><path d="m288.234375 270.222656c-3.542969 20.789063-19.125 47.816406-43.398437 72.089844-4.359376 4.363281-8.8125 8.433594-13.296876 12.210938-1.789062 1.503906-.453124 4.371093 1.855469 4.015624.027344-.003906.058594-.011718.089844-.015624 2.011719-.308594 4.007813-.570313 5.988281-.808594 5.816406-4.652344 11.601563-9.769532 17.234375-15.402344 25.351563-25.351562 41.226563-53.710938 43.804688-74.828125-3.867188.472656-7.984375 1.394531-12.277344 2.738281zm0 0" fill="#5d8e33"/><path d="m264.355469 356.695312c15.492187.648438 28.800781 3.800782 37.9375 8.925782-11.617188 12.371094-35.207031 23.132812-63.476563 27.492187-6.378906.984375-12.625 1.578125-18.644531 1.820313 9.511719.375 19.820313-.171875 30.511719-1.820313 28.273437-4.359375 51.863281-15.121093 63.476562-27.492187-11.394531-6.390625-29.28125-9.714844-49.804687-8.925782zm0 0" fill="#5d8e33"/><path d="m222.664062 400.121094c-2.515624-1.839844-5.050781-3.527344-7.582031-5.070313-.910156.007813-1.8125.003907-2.707031-.003906-2.71875-.027344-3.855469 3.410156-1.660156 5.015625.027344.019531.054687.039062.082031.058594 13.8125 10.125 23.605469 22.238281 27.105469 32.277344 4.539062 1.257812 8.757812 1.871093 12.429687 1.753906-2.917969-10.355469-13.039062-23.308594-27.667969-34.03125zm0 0" fill="#5d8e33"/><path d="m203.070312 338.105469c-5.992187 0-10.519531-5.441407-9.402343-11.328125 2.777343-14.65625 4.316406-30.746094 4.316406-47.632813 0 0 .984375-73.929687-16.105469-106.976562 16.71875 21.363281 27.972656 61.257812 27.972656 106.976562 0 13.777344-1.035156 27.007813-2.921874 39.375zm0 0" fill="#5d8e33"/><path d="m181.878906 437.894531c-2.210937 0-4-1.789062-4-4v-47.875c0-2.210937 1.789063-4 4-4 2.207032 0 4 1.789063 4 4v47.875c0 2.210938-1.792968 4-4 4zm0 0" fill="#690589"/><path d="m249.402344 438.167969c-12.003906.003906-27.683594-6.265625-42.21875-16.921875-11.054688-8.101563-20.109375-17.886719-25.300782-27.167969-5.199218 9.28125-14.25 19.066406-25.304687 27.167969-14.96875 10.96875-31.082031 17.355468-43.277344 16.90625-1.230469-.039063-2.375-.640625-3.101562-1.632813-.726563-.992187-.957031-2.265625-.625-3.449219 3.078125-10.929687 12.8125-23.464843 26.304687-34.015624-7.621094-.097657-15.453125-.761719-23.417968-1.988282-28.433594-4.382812-53.023438-15.117187-65.785157-28.707031-.839843-.898437-1.222656-2.132813-1.035156-3.347656.1875-1.21875.921875-2.28125 1.996094-2.878907 15.1875-8.519531 39.457031-11.542968 65.757812-8.335937-3.132812-2.785156-6.199219-5.675781-9.175781-8.65625-25.339844-25.339844-42.144531-54.191406-44.949219-77.171875-.148437-1.21875.273438-2.441406 1.140625-3.3125.871094-.867188 2.085938-1.289062 3.3125-1.140625 22.980469 2.804687 51.832032 19.609375 77.171875 44.949219 4.375 4.375 8.523438 8.894531 12.421875 13.527344-2.246094-13.679688-3.414062-28.214844-3.414062-42.847657 0-44.78125 11.042968-86.714843 28.820312-109.441406 1.515625-1.9375 4.785156-1.9375 6.300782 0 17.777343 22.71875 28.820312 64.65625 28.820312 109.441406 0 14.632813-1.164062 29.171875-3.410156 42.847657 3.898437-4.632813 8.046875-9.152344 12.417968-13.527344 25.34375-25.339844 54.195313-42.144532 77.171876-44.949219 1.222656-.144531 2.445312.273437 3.3125 1.140625.875.871094 1.292968 2.09375 1.144531 3.3125-2.808594 22.984375-19.609375 51.832031-44.953125 77.171875-2.976563 2.980469-6.039063 5.871094-9.171875 8.65625 26.289062-3.207031 50.566406-.179687 65.753906 8.335937 1.074219.601563 1.8125 1.660157 2 2.878907.1875 1.210937-.195313 2.449219-1.039063 3.347656-12.757812 13.589844-37.351562 24.324219-65.78125 28.707031-7.964843 1.226563-15.800781 1.890625-23.417968 1.988282 13.492187 10.546874 23.226562 23.085937 26.300781 34.015624.335937 1.183594.105469 2.457032-.621094 3.449219-.726562.992188-1.875 1.59375-3.101562 1.632813-.339844.011718-.691407.015625-1.046875.015625zm-67.234375-56.046875c.636719.03125 1.289062.191406 1.816406.484375l.613281.316406c.851563.457031 1.507813 1.210937 1.84375 2.117187 3.582032 9.570313 13.105469 20.691407 25.472656 29.757813 10.976563 8.046875 22.839844 13.457031 32.40625 14.953125-4.308593-8.671875-13.042968-18.351562-24.019531-26.398438-2.621093-1.917968-5.316406-3.707031-8.023437-5.324218-1.597656-.957032-2.320313-2.882813-1.753906-4.65625.570312-1.773438 2.269531-2.925782 4.140624-2.761719 11.066407.921875 23.308594.417969 35.410157-1.449219 23.515625-3.625 44.730469-12.046875 57.121093-22.464844-14.953124-6.203124-37.714843-7.84375-61.230468-4.214843-2.785156.429687-5.644532.957031-8.753906 1.605469-1.820313.375-3.675782-.550782-4.457032-2.246094-.777344-1.695313-.28125-3.707032 1.199219-4.84375 6.910156-5.304688 13.613281-11.199219 19.925781-17.507813 21.777344-21.777343 37.328125-46.929687 41.742188-67.105469-20.179688 4.410157-45.328125 19.960938-67.109375 41.738282-8.292969 8.300781-15.753907 17.140625-22.164063 26.285156-1.109375 1.574219-3.175781 2.144531-4.933594 1.34375-1.75-.796875-2.6875-2.726562-2.226562-4.597656 4.359375-17.671875 6.660156-37.730469 6.660156-58.007813 0-40.3125-9.097656-77.960937-23.96875-100.15625-14.878906 22.195313-23.972656 59.847657-23.972656 100.15625 0 20.273438 2.304688 40.328125 6.660156 58.007813.460938 1.871094-.472656 3.800781-2.226562 4.597656-1.757813.800781-3.824219.230469-4.929688-1.34375-6.40625-9.136719-13.863281-17.976562-22.167968-26.285156-21.777344-21.777344-46.929688-37.328125-67.105469-41.738282 4.414062 20.175782 19.960937 45.324219 41.742187 67.105469 6.308594 6.308594 13.015625 12.203125 19.925782 17.507813 1.476562 1.136718 1.972656 3.148437 1.195312 4.84375-.777344 1.699218-2.625 2.625-4.453125 2.246094-3.109375-.648438-5.972656-1.175782-8.753906-1.605469-23.519531-3.628907-46.28125-1.984375-61.234375 4.214843 12.390625 10.417969 33.605468 18.839844 57.121094 22.464844 12.101562 1.871094 24.347656 2.371094 35.414062 1.449219 1.902344-.15625 3.570312.992187 4.140625 2.761719.566406 1.773437-.160156 3.703125-1.757813 4.65625-2.710937 1.621094-5.410156 3.410156-8.019531 5.324218-10.980469 8.046876-19.710937 17.726563-24.019531 26.398438 9.566406-1.496094 21.425781-6.902344 32.40625-14.953125 12.371094-9.066406 21.890625-20.1875 25.46875-29.757813.339844-.90625.996094-1.65625 1.84375-2.117187l.613281-.316406c.734375-.410157 1.566407-.578125 2.398438-.484375zm0 0" fill="#690589"/></svg>