<svg height="504pt" viewBox="-83 0 504 504.00029" width="504pt" xmlns="http://www.w3.org/2000/svg"><path d="m291.722656 65.511719h41.902344v332.375h-41.902344zm0 0" fill="#ff4397"/><path d="m320.855469 65.511719h12.769531v332.375h-12.769531zm0 0" fill="#e12579"/><path d="m333.625 401.886719h-41.902344c-2.207031 0-4-1.792969-4-4v-332.375c0-2.207031 1.792969-4 4-4h41.902344c2.207031 0 4 1.792969 4 4v332.375c0 2.210937-1.789062 4-4 4zm-37.902344-8h33.902344v-324.375h-33.902344zm0 0" fill="#690589"/><path d="m99.90625 65.511719h41.902344v332.375h-41.902344zm0 0" fill="#ff4397"/><path d="m195.8125 155.398438h41.90625v242.488281h-41.90625zm0 0" fill="#ff4397"/><path d="m141.808594 401.886719h-41.902344c-2.207031 0-4-1.792969-4-4v-332.375c0-2.207031 1.792969-4 4-4h41.902344c2.210937 0 4 1.792969 4 4v332.375c0 2.210937-1.789063 4-4 4zm-37.902344-8h33.902344v-324.375h-33.902344zm0 0" fill="#690589"/><path d="m237.71875 401.886719h-41.90625c-2.207031 0-4-1.792969-4-4v-242.488281c0-2.207032 1.792969-4 4-4h41.90625c2.207031 0 4 1.792968 4 4v242.488281c0 2.210937-1.789062 4-4 4zm-37.90625-8h33.90625v-234.488281h-33.90625zm0 0" fill="#690589"/><path d="m4 155.398438h41.902344v242.488281h-41.902344zm0 0" fill="#ff4397"/><path d="m4 155.398438h12.769531v242.488281h-12.769531zm0 0" fill="#ff61b5"/><path d="m45.902344 401.886719h-41.902344c-2.207031 0-4-1.792969-4-4v-242.488281c0-2.207032 1.792969-4 4-4h41.902344c2.210937 0 4 1.792968 4 4v242.488281c0 2.210937-1.789063 4-4 4zm-37.902344-8h33.902344v-234.488281h-33.902344zm0 0" fill="#690589"/><path d="m20 215.46875c-2.207031 0-4-1.792969-4-4v-24c0-2.207031 1.792969-4 4-4s4 1.792969 4 4v24c0 2.210938-1.792969 4-4 4zm0 0" fill="#690589"/><path d="m20.464844 120.175781c-1.035156 0-2.070313-.398437-2.851563-1.199219-1.546875-1.574218-1.527343-4.105468.050781-5.65625l100.390626-98.703124c.757812-.75 1.796874-1.140626 2.847656-1.148438 1.066406.011719 2.082031.449219 2.824218 1.210938l93.039063 95.753906 93.039063-95.753906c1.542968-1.582032 4.074218-1.625 5.65625-.082032 1.585937 1.539063 1.625 4.074219.082031 5.65625l-95.910157 98.707032c-1.507812 1.550781-4.230468 1.550781-5.738281 0l-93.101562-95.820313-97.523438 95.886719c-.78125.765625-1.792969 1.148437-2.804687 1.148437zm0 0" fill="#690589"/><path d="m33.933594 116.175781c0 7.4375-6.03125 13.464844-13.46875 13.464844s-13.464844-6.027344-13.464844-13.464844c0-7.441406 6.027344-13.46875 13.464844-13.46875 7.4375-.003906 13.46875 6.027344 13.46875 13.46875zm0 0" fill="#fcc24c"/><path d="m134.324219 17.46875c0 7.4375-6.027344 13.46875-13.464844 13.46875s-13.46875-6.03125-13.46875-13.46875 6.03125-13.46875 13.46875-13.46875 13.464844 6.03125 13.464844 13.46875zm0 0" fill="#fcc24c"/><path d="m230.234375 113.398438c0 7.4375-6.03125 13.46875-13.46875 13.46875s-13.46875-6.03125-13.46875-13.46875 6.03125-13.46875 13.46875-13.46875 13.46875 6.03125 13.46875 13.46875zm0 0" fill="#fcc24c"/><path d="m326.140625 17.46875c0 7.4375-6.03125 13.46875-13.46875 13.46875s-13.46875-6.03125-13.46875-13.46875 6.03125-13.46875 13.46875-13.46875 13.46875 6.03125 13.46875 13.46875zm0 0" fill="#fcc24c"/><g fill="#690589"><path d="m20.464844 133.640625c-9.628906 0-17.464844-7.835937-17.464844-17.464844 0-9.632812 7.835938-17.46875 17.464844-17.46875 9.632812 0 17.46875 7.835938 17.46875 17.46875 0 9.628907-7.835938 17.464844-17.46875 17.464844zm0-26.933594c-5.21875 0-9.464844 4.246094-9.464844 9.46875 0 5.21875 4.246094 9.464844 9.464844 9.464844 5.222656 0 9.46875-4.246094 9.46875-9.464844 0-5.222656-4.246094-9.46875-9.46875-9.46875zm0 0"/><path d="m120.859375 34.9375c-9.632813 0-17.46875-7.835938-17.46875-17.46875 0-9.628906 7.835937-17.46875 17.46875-17.46875 9.628906 0 17.464844 7.835938 17.464844 17.46875s-7.835938 17.46875-17.464844 17.46875zm0-26.9375c-5.222656 0-9.46875 4.246094-9.46875 9.46875 0 5.21875 4.246094 9.46875 9.46875 9.46875 5.21875 0 9.464844-4.25 9.464844-9.46875 0-5.222656-4.246094-9.46875-9.464844-9.46875zm0 0"/><path d="m216.765625 130.867188c-9.632813 0-17.46875-7.835938-17.46875-17.46875 0-9.632813 7.835937-17.46875 17.46875-17.46875s17.46875 7.835937 17.46875 17.46875c0 9.632812-7.835937 17.46875-17.46875 17.46875zm0-26.9375c-5.21875 0-9.46875 4.246093-9.46875 9.464843 0 5.222657 4.25 9.46875 9.46875 9.46875s9.46875-4.246093 9.46875-9.46875c0-5.21875-4.25-9.464843-9.46875-9.464843zm0 0"/><path d="m312.675781 34.9375c-9.632812 0-17.46875-7.835938-17.46875-17.46875 0-9.628906 7.832031-17.46875 17.46875-17.46875 9.632813 0 17.464844 7.835938 17.464844 17.46875s-7.835937 17.46875-17.464844 17.46875zm0-26.9375c-5.222656 0-9.46875 4.246094-9.46875 9.46875 0 5.21875 4.246094 9.46875 9.46875 9.46875 5.21875 0 9.464844-4.25 9.464844-9.46875 0-5.222656-4.246094-9.46875-9.464844-9.46875zm0 0"/></g><path d="m244.996094 454.542969c31.300781-4.824219 57.421875-16.742188 70.28125-30.441407-16.390625-9.1875-44.886719-12.683593-76.183594-7.855468-3.378906.519531-6.679688 1.136718-9.921875 1.816406 7.589844-5.828125 15.152344-12.425781 22.492187-19.765625 28.070313-28.070313 45.648438-59.46875 48.503907-82.847656-23.382813 2.851562-54.78125 20.433593-82.851563 48.5-9.65625 9.65625-18.035156 19.707031-25.039062 29.6875 4.785156-19.398438 7.507812-41.632813 7.507812-65.28125 0-50.621094-12.464844-94.789063-30.972656-118.445313-18.511719 23.65625-30.972656 67.824219-30.972656 118.445313 0 23.648437 2.722656 45.886719 7.507812 65.28125-7.003906-9.980469-15.382812-20.03125-25.039062-29.6875-28.070313-28.070313-59.46875-45.648438-82.851563-48.5 2.855469 23.378906 20.433594 54.777343 48.503907 82.847656 7.335937 7.339844 14.902343 13.9375 22.492187 19.765625-3.246094-.675781-6.546875-1.292969-9.921875-1.816406-31.296875-4.824219-59.792969-1.332032-76.183594 7.855468 12.859375 13.699219 38.980469 25.613282 70.28125 30.441407 14.304688 2.207031 28.003906 2.65625 40.25 1.636719-3.078125 1.839843-6.164062 3.882812-9.222656 6.125-16.195312 11.867187-27.40625 26.210937-30.632812 37.679687 11.90625.375 28.957031-5.992187 45.15625-17.863281 14.945312-10.949219 25.628906-24.003906 29.726562-34.96875.242188-.125.503906-.246094.738281-.378906.058594.007812.117188.019531.167969.027343.054688-.007812.117188-.019531.167969-.027343.238281.132812.496093.25.738281.378906 4.101562 10.964844 14.785156 24.019531 29.730469 34.96875 16.195312 11.867187 33.25 18.238281 45.15625 17.863281-3.226563-11.46875-14.4375-25.808594-30.632813-37.679687-3.058594-2.242188-6.148437-4.285157-9.222656-6.125 12.238281 1.019531 25.941406.570312 40.246094-1.636719zm0 0" fill="#7bac51"/><path d="m51.050781 318.480469c3.925781 23.015625 21.175781 52.941406 48.050781 79.816406 4.832032 4.832031 9.757813 9.339844 14.726563 13.519531 1.976563 1.664063.5 4.839844-2.054687 4.445313-.035157-.003907-.066407-.007813-.101563-.015625-2.226563-.34375-4.4375-.632813-6.628906-.894532-6.441407-5.148437-12.84375-10.820312-19.082031-17.054687-28.070313-28.070313-45.648438-59.472656-48.5-82.851563 4.285156.527344 8.839843 1.546876 13.589843 3.035157zm0 0" fill="#99ca6f"/><path d="m77.488281 414.222656c-17.148437.71875-31.882812 4.210938-42 9.882813 12.859375 13.699219 38.980469 25.613281 70.28125 30.441406 7.0625 1.085937 13.976563 1.746094 20.640625 2.011719-10.53125.417968-21.941406-.1875-33.785156-2.011719-31.300781-4.828125-57.417969-16.742187-70.277344-30.441406 12.617188-7.074219 32.421875-10.753907 55.140625-9.882813zm0 0" fill="#99ca6f"/><path d="m123.652344 462.304688c2.785156-2.039063 5.59375-3.90625 8.394531-5.613282 1.007813.003906 2.007813.003906 3-.007812 3.007813-.03125 4.269531 3.777344 1.839844 5.550781-.03125.023437-.0625.046875-.09375.066406-15.292969 11.210938-26.136719 24.625-30.011719 35.738281-5.023438 1.394532-9.695312 2.070313-13.761719 1.941407 3.230469-11.464844 14.4375-25.804688 30.632813-37.675781zm0 0" fill="#99ca6f"/><path d="m145.347656 393.640625c6.632813 0 11.648438-6.023437 10.410156-12.542969-3.078124-16.226562-4.777343-34.042968-4.777343-52.738281 0 0-1.09375-81.855469 17.828125-118.445313-18.507813 23.652344-30.96875 67.820313-30.96875 118.445313 0 15.25 1.144531 29.902344 3.230468 43.597656zm0 0" fill="#99ca6f"/><path d="m286.570312 318.480469c-3.925781 23.015625-21.175781 52.941406-48.050781 79.816406-4.828125 4.832031-9.753906 9.339844-14.726562 13.519531-1.976563 1.664063-.5 4.839844 2.054687 4.445313.035156-.003907.070313-.007813.101563-.015625 2.230469-.34375 4.4375-.632813 6.632812-.894532 6.4375-5.148437 12.84375-10.820312 19.078125-17.054687 28.070313-28.070313 45.648438-59.472656 48.503906-82.851563-4.285156.527344-8.839843 1.546876-13.59375 3.035157zm0 0" fill="#5d8e33"/><path d="m260.132812 414.222656c17.152344.71875 31.886719 4.210938 42.003907 9.882813-12.859375 13.699219-38.980469 25.613281-70.28125 30.441406-7.0625 1.085937-13.976563 1.746094-20.640625 2.011719 10.53125.417968 21.941406-.1875 33.785156-2.011719 31.296875-4.828125 57.417969-16.742187 70.277344-30.441406-12.621094-7.074219-32.421875-10.753907-55.144532-9.882813zm0 0" fill="#5d8e33"/><path d="m213.96875 462.304688c-2.78125-2.039063-5.589844-3.90625-8.394531-5.613282-1.007813.003906-2.007813.003906-3-.007812-3.011719-.03125-4.269531 3.777344-1.839844 5.550781.03125.023437.0625.046875.09375.066406 15.296875 11.210938 26.136719 24.625 30.015625 35.738281 5.023438 1.394532 9.695312 2.070313 13.761719 1.941407-3.230469-11.464844-14.4375-25.804688-30.636719-37.675781zm0 0" fill="#5d8e33"/><path d="m192.277344 393.640625c-6.636719 0-11.648438-6.023437-10.410156-12.542969 3.078124-16.226562 4.777343-34.042968 4.777343-52.738281 0 0 1.089844-81.855469-17.832031-118.445313 18.511719 23.652344 30.972656 67.820313 30.972656 118.445313 0 15.25-1.144531 29.902344-3.234375 43.597656zm0 0" fill="#5d8e33"/><path d="m168.8125 503.699219c-2.207031 0-4-1.792969-4-4v-53.011719c0-2.207031 1.792969-4 4-4s4 1.792969 4 4v53.011719c0 2.207031-1.792969 4-4 4zm0 0" fill="#690589"/><path d="m94.050781 504c-.390625 0-.773437-.007812-1.15625-.019531-1.226562-.039063-2.371093-.636719-3.097656-1.628907-.726563-.992187-.957031-2.265624-.625-3.453124 3.457031-12.273438 14.574219-26.414063 29.949219-38.195313-8.800782-.046875-17.867188-.78125-27.101563-2.207031-31.386719-4.839844-58.519531-16.675782-72.585937-31.65625-.839844-.898438-1.222656-2.132813-1.039063-3.347656.191407-1.214844.925781-2.277344 2-2.878907 17-9.535156 44.363281-12.824219 73.917969-9.003906-3.816406-3.359375-7.550781-6.863281-11.175781-10.484375-27.996094-27.992188-46.550781-59.839844-49.648438-85.195312-.144531-1.21875.273438-2.445313 1.144531-3.3125.871094-.875 2.082032-1.292969 3.3125-1.140626 25.351563 3.09375 57.199219 21.652344 85.191407 49.644532 5.210937 5.210937 10.136719 10.613281 14.738281 16.160156-2.65625-15.570312-4.035156-32.191406-4.035156-48.925781 0-49.496094 12.195312-95.824219 31.824218-120.910157 1.515626-1.9375 4.785157-1.9375 6.296876 0 19.628906 25.082032 31.820312 71.414063 31.820312 120.910157 0 16.734375-1.378906 33.355469-4.03125 48.925781 4.601562-5.546875 9.527344-10.953125 14.734375-16.160156 27.992187-27.992188 59.839844-46.550782 85.195313-49.644532 1.226562-.15625 2.445312.269532 3.3125 1.140626.871093.871093 1.292968 2.09375 1.140624 3.3125-3.09375 25.355468-21.652343 57.203124-49.644531 85.195312-3.625 3.625-7.359375 7.128906-11.179687 10.484375 29.558594-3.816406 56.917968-.527344 73.921875 9.003906 1.074219.601563 1.808593 1.664063 1.996093 2.878907.191407 1.214843-.195312 2.453124-1.035156 3.347656-14.066406 14.980468-41.207031 26.816406-72.589844 31.65625-9.230468 1.425781-18.300781 2.160156-27.101562 2.207031 15.375 11.78125 26.496094 25.921875 29.949219 38.195313.335937 1.1875.105469 2.460937-.625 3.453124-.726563.992188-1.871094 1.59375-3.101563 1.628907-13.382812.425781-31.152344-6.542969-47.644531-18.628907-12.464844-9.136718-22.617187-20.207031-28.269531-30.625-5.652344 10.417969-15.804688 21.488282-28.269532 30.625-16.019531 11.742188-33.285156 18.648438-46.488281 18.648438zm38.828125-51.816406c1.726563 0 3.273438 1.109375 3.808594 2.773437.570312 1.773438-.160156 3.703125-1.757812 4.660157-3.011719 1.800781-6.011719 3.789062-8.910157 5.914062-12.515625 9.171875-22.410156 20.265625-27.078125 30.117188 10.796875-1.488282 24.355469-7.578126 36.871094-16.75 13.757812-10.085938 24.359375-22.472657 28.34375-33.140626.34375-.914062 1.003906-1.667968 1.863281-2.128906l.660157-.335937c.652343-.367188 1.402343-.523438 2.132812-.511719.738281-.035156 1.480469.144531 2.132812.511719l.65625.335937c.859376.460938 1.523438 1.214844 1.863282 2.128906 3.988281 10.667969 14.585937 23.058594 28.347656 33.140626 12.511719 9.171874 26.070312 15.261718 36.871094 16.75-4.671875-9.851563-14.5625-20.945313-27.078125-30.117188-2.898438-2.125-5.894531-4.113281-8.910157-5.914062-1.597656-.957032-2.324218-2.886719-1.757812-4.660157.570312-1.769531 2.3125-2.917969 4.140625-2.761719 12.289063 1.027344 25.875.464844 39.308594-1.601562 26.449219-4.078125 50.285156-13.632812 63.984375-25.425781-16.621094-7.121094-42.230469-9.046875-68.671875-4.96875-3.113281.480469-6.292969 1.066406-9.710938 1.78125-1.835937.382812-3.675781-.546875-4.453125-2.246094-.78125-1.695313-.28125-3.703125 1.199219-4.839844 7.648437-5.875 15.082031-12.410156 22.101563-19.421875 24.398437-24.402344 41.757812-52.628906 46.46875-75.164062-22.53125 4.710937-50.761719 22.070312-75.160157 46.472656-9.203125 9.199219-17.472656 19.007812-24.59375 29.15625-1.105469 1.574219-3.171875 2.140625-4.929687 1.34375-1.753906-.796875-2.691406-2.730469-2.226563-4.601562 4.832031-19.59375 7.386719-41.835938 7.386719-64.320313 0-45.035156-10.246094-87.089844-26.96875-111.660156-16.726562 24.570312-26.972656 66.625-26.972656 111.660156 0 22.480469 2.554687 44.722656 7.390625 64.324219.460937 1.867187-.476563 3.796875-2.226563 4.597656-1.75.796875-3.828125.230469-4.933594-1.34375-7.113281-10.144531-15.386718-19.957031-24.589843-29.15625-24.398438-24.402344-52.628907-41.761719-75.160157-46.472656 4.710938 22.535156 22.070313 50.761718 46.46875 75.164062 7.011719 7.007813 14.445313 13.542969 22.101563 19.421875 1.480469 1.136719 1.980469 3.144531 1.199219 4.839844-.78125 1.699219-2.621094 2.628906-4.457032 2.246094-3.421874-.714844-6.597656-1.296875-9.710937-1.78125-26.449219-4.078125-52.054687-2.148438-68.667969 4.96875 13.699219 11.792969 37.535156 21.347656 63.980469 25.425781 13.441406 2.070312 27.035156 2.625 39.3125 1.601562.109375-.007812.222656-.011718.332031-.011718zm112.117188 2.359375h.019531zm0 0" fill="#690589"/></svg>