<svg height="504pt" viewBox="0 -38 504.00017 504" width="504pt" xmlns="http://www.w3.org/2000/svg"><path d="m113.398438 399.257812h315.082031c9.070312 0 16.421875-7.355468 16.421875-16.421874 0-9.070313-7.351563-16.425782-16.421875-16.425782h-315.082031c-9.066407 0-16.421876 7.355469-16.421876 16.425782 0 9.066406 7.355469 16.421874 16.421876 16.421874zm0 0" fill="#f4efed"/><path d="m407.117188 316.925781h-53.855469v-21.3125h53.855469c39.464843 0 71.570312-32.105469 71.570312-71.570312 0-11.492188-9.347656-20.839844-20.839844-20.839844h-40.566406v-21.3125h40.566406c23.242188 0 42.152344 18.910156 42.152344 42.152344 0 51.21875-41.667969 92.882812-92.882812 92.882812zm0 0" fill="#d6d1cf"/><path d="m407.117188 320.925781h-53.855469c-2.210938 0-4-1.792969-4-4v-21.308593c0-2.210938 1.789062-4 4-4h53.855469c37.257812 0 67.574218-30.3125 67.574218-67.570313 0-9.289063-7.558594-16.84375-16.84375-16.84375h-40.566406c-2.207031 0-4-1.792969-4-4v-21.308594c0-2.207031 1.792969-4 4-4h40.566406c25.449219 0 46.152344 20.703125 46.152344 46.152344 0 53.417969-43.460938 96.878906-96.882812 96.878906zm-49.855469-8h49.855469c49.007812 0 88.882812-39.871093 88.882812-88.878906 0-21.039063-17.117188-38.152344-38.152344-38.152344h-36.566406v13.308594h36.566406c13.695313 0 24.839844 11.144531 24.839844 24.84375 0 41.667969-33.902344 75.570313-75.570312 75.570313h-49.859376v13.308593zm0 0" fill="#690589"/><path d="m102.082031 165.550781v32c0 66.394531 38.320313 123.828125 94.050781 151.414063v17.445312h149.613282v-17.445312c55.726562-27.585938 94.050781-85.019532 94.050781-151.414063v-32zm0 0" fill="#f4efed"/><path d="m122.082031 197.550781v-32h-20v32c0 66.394531 38.320313 123.828125 94.050781 151.414063v17.445312h20v-11.375c0-3.65625-1.988281-7.027344-5.203124-8.761718-52.894532-28.515626-88.847657-84.417969-88.847657-148.722657zm0 0" fill="#fff"/><path d="m270.941406 366.410156.015625-.003906h-.03125zm0 0" fill="#fff"/><path d="m270.941406 366.410156.015625-.003906h-.03125zm0 0" fill="#f4efed"/><path d="m419.800781 165.550781v32c0 64.304688-35.953125 120.207031-88.851562 148.722657-3.214844 1.734374-5.199219 5.105468-5.199219 8.761718v11.375h20v-17.445312c55.726562-27.585938 94.050781-85.019532 94.050781-151.414063v-32zm0 0" fill="#d6d1cf"/><path d="m428.480469 366.410156h-20c9.070312 0 16.425781 7.355469 16.425781 16.425782 0 9.066406-7.355469 16.421874-16.425781 16.421874h20c9.070312 0 16.425781-7.355468 16.425781-16.421874 0-9.070313-7.355469-16.425782-16.425781-16.425782zm0 0" fill="#d6d1cf"/><path d="m113.398438 399.257812h20c-9.066407 0-16.421876-7.355468-16.421876-16.421874 0-9.070313 7.355469-16.425782 16.421876-16.425782h-20c-9.066407 0-16.421876 7.355469-16.421876 16.425782 0 9.066406 7.355469 16.421874 16.421876 16.421874zm0 0" fill="#fff"/><path d="m349.804688 424.292969h-157.730469c-4.902344 0-8.878907-3.976563-8.878907-8.878907v-16.15625h175.488282v16.15625c.003906 4.90625-3.972656 8.878907-8.878906 8.878907zm0 0" fill="#d6d1cf"/><path d="m345.75 370.410156h-149.617188c-2.207031 0-4-1.792968-4-4v-14.984375c-58.078124-29.769531-94.050781-88.496093-94.050781-153.875v-32c0-2.207031 1.789063-4 4-4h337.71875c2.207031 0 4 1.792969 4 4v32c0 65.375-35.976562 124.105469-94.050781 153.875v14.984375c0 2.207032-1.792969 4-4 4zm-145.617188-8h141.617188v-13.449218c0-1.519532.859375-2.910157 2.222656-3.582032 56.640625-28.039062 91.828125-84.683594 91.828125-147.828125v-28h-329.71875v28c0 63.144531 35.1875 119.789063 91.824219 147.828125 1.367188.671875 2.226562 2.0625 2.226562 3.582032zm0 0" fill="#690589"/><path d="m158.511719 305.878906c-1.164063 0-2.316407-.503906-3.109375-1.480468-6.355469-7.824219-12.226563-16.164063-17.457032-24.789063-1.148437-1.886719-.542968-4.347656 1.34375-5.492187 1.890626-1.144532 4.351563-.542969 5.496094 1.34375 5.039063 8.3125 10.703125 16.351562 16.828125 23.894531 1.394531 1.714843 1.132813 4.234375-.582031 5.625-.742188.605469-1.632812.898437-2.519531.898437zm0 0" fill="#690589"/><path d="m428.480469 403.257812h-315.082031c-11.261719 0-20.421876-9.160156-20.421876-20.421874 0-11.265626 9.160157-20.425782 20.421876-20.425782h315.082031c11.265625 0 20.425781 9.160156 20.425781 20.425782 0 11.261718-9.160156 20.421874-20.425781 20.421874zm-315.082031-32.847656c-6.847657 0-12.421876 5.574219-12.421876 12.425782 0 6.847656 5.574219 12.421874 12.421876 12.421874h315.082031c6.851562 0 12.425781-5.574218 12.425781-12.421874 0-6.851563-5.574219-12.425782-12.425781-12.425782zm0 0" fill="#690589"/><path d="m349.804688 428.292969h-157.730469c-7.101563 0-12.878907-5.777344-12.878907-12.875v-16.160157c0-2.207031 1.792969-4 4-4h175.492188c2.207031 0 4 1.792969 4 4v16.160157c0 7.101562-5.78125 12.875-12.882812 12.875zm-162.609376-25.035157v12.160157c0 2.6875 2.1875 4.875 4.878907 4.875h157.730469c2.691406 0 4.882812-2.1875 4.882812-4.875v-12.160157zm0 0" fill="#690589"/><path d="m201.691406 221.210938c27.789063-4.285157 50.984375-14.867188 62.402344-27.03125-14.554688-8.15625-39.855469-11.261719-67.648438-6.976563-2.996093.464844-5.929687 1.011719-8.808593 1.613281 6.738281-5.175781 13.457031-11.035156 19.972656-17.546875 24.921875-24.925781 40.53125-52.804687 43.066406-73.566406-20.761719 2.535156-48.640625 18.144531-73.566406 43.066406-8.574219 8.574219-16.011719 17.5-22.230469 26.359375 4.246094-17.222656 6.664063-36.96875 6.664063-57.964844 0-44.949218-11.066407-84.164062-27.5-105.167968-16.4375 21.003906-27.5 60.21875-27.5 105.167968 0 20.996094 2.414062 40.742188 6.664062 57.964844-6.21875-8.863281-13.660156-17.785156-22.234375-26.359375-24.917968-24.921875-52.796875-40.535156-73.554687-43.066406 2.53125 20.761719 18.140625 48.640625 43.0625 73.566406 6.519531 6.511719 13.234375 12.375 19.972656 17.546875-2.882813-.601562-5.8125-1.148437-8.808594-1.613281-27.789062-4.285156-53.09375-1.179687-67.644531 6.976563 11.417969 12.164062 34.609375 22.746093 62.398438 27.03125 12.703124 1.957031 24.867187 2.355468 35.742187 1.449218-2.734375 1.636719-5.472656 3.449219-8.191406 5.441406-14.382813 10.535157-24.332031 23.273438-27.199219 33.453126 10.570312.335937 25.714844-5.320313 40.097656-15.859376 13.269532-9.722656 22.753906-21.316406 26.394532-31.046874.214843-.113282.445312-.21875.652343-.339844.050781.007812.101563.019531.152344.027344.046875-.007813.097656-.019532.148437-.027344.210938.117187.441407.222656.65625.339844 3.636719 9.734374 13.125 21.324218 26.394532 31.046874 14.378906 10.539063 29.523437 16.195313 40.097656 15.859376-2.867188-10.179688-12.820312-22.917969-27.203125-33.453126-2.710937-1.992187-5.453125-3.804687-8.1875-5.441406 10.871094.90625 23.035156.507813 35.738281-1.449218zm0 0" fill="#7bac51"/><path d="m29.484375 100.394531c3.484375 20.4375 18.800781 47.007813 42.664063 70.871094 4.289062 4.289063 8.664062 8.292969 13.078124 12.003906 1.753907 1.480469.445313 4.296875-1.824218 3.945313-.03125-.003906-.058594-.007813-.089844-.011719-1.976562-.304687-3.9375-.5625-5.886719-.796875-5.71875-4.570312-11.40625-9.605469-16.945312-15.140625-24.921875-24.921875-40.53125-52.804687-43.0625-73.5625 3.800781.464844 7.847656 1.371094 12.066406 2.691406zm0 0" fill="#99ca6f"/><path d="m52.960938 185.40625c-15.230469.636719-28.3125 3.738281-37.292969 8.773438 11.417969 12.164062 34.609375 22.746093 62.398437 27.03125 6.273438.964843 12.410156 1.550781 18.328125 1.789062-9.347656.367188-19.480469-.167969-29.996093-1.789062-27.789063-4.285157-50.980469-14.867188-62.398438-27.03125 11.199219-6.28125 28.785156-9.546876 48.960938-8.773438zm0 0" fill="#99ca6f"/><path d="m93.949219 228.101562c2.472656-1.8125 4.964843-3.46875 7.453125-4.984374.894531.003906 1.78125.003906 2.664062-.007813 2.671875-.027344 3.789063 3.351563 1.632813 4.929687-.027344.019532-.054688.042969-.082031.0625-13.582032 9.949219-23.207032 21.859376-26.652344 31.730469-4.460938 1.238281-8.609375 1.839844-12.214844 1.722657 2.867188-10.183594 12.816406-22.917969 27.199219-33.453126zm0 0" fill="#99ca6f"/><path d="m113.210938 167.128906c5.890624 0 10.34375-5.347656 9.246093-11.136718-2.734375-14.40625-4.242187-30.222657-4.242187-46.824219 0 0-.96875-72.683594 15.832031-105.167969-16.433594 21-27.5 60.21875-27.5 105.167969 0 13.539062 1.015625 26.550781 2.871094 38.707031zm0 0" fill="#99ca6f"/><path d="m238.605469 100.394531c-3.484375 20.4375-18.800781 47.007813-42.664063 70.871094-4.289062 4.289063-8.664062 8.292969-13.074218 12.003906-1.757813 1.480469-.445313 4.296875 1.824218 3.945313.027344-.003906.058594-.007813.089844-.011719 1.976562-.304687 3.9375-.5625 5.886719-.796875 5.71875-4.570312 11.402343-9.605469 16.941406-15.140625 24.925781-24.925781 40.535156-52.804687 43.066406-73.566406-3.804687.46875-7.851562 1.375-12.070312 2.695312zm0 0" fill="#5d8e33"/><path d="m215.132812 185.40625c15.226563.636719 28.3125 3.738281 37.292969 8.773438-11.417969 12.164062-34.613281 22.746093-62.402343 27.03125-6.269532.964843-12.410157 1.550781-18.328126 1.789062 9.351563.367188 19.484376-.167969 29.996094-1.789062 27.792969-4.285157 50.984375-14.867188 62.402344-27.03125-11.203125-6.28125-28.789062-9.546876-48.960938-8.773438zm0 0" fill="#5d8e33"/><path d="m174.140625 228.101562c-2.46875-1.8125-4.964844-3.46875-7.453125-4.984374-.894531.003906-1.78125.003906-2.664062-.007813-2.671876-.027344-3.789063 3.351563-1.632813 4.929687.03125.019532.054687.042969.082031.0625 13.582032 9.949219 23.207032 21.859376 26.652344 31.730469 4.460938 1.238281 8.609375 1.839844 12.21875 1.722657-2.867188-10.183594-12.820312-22.917969-27.203125-33.453126zm0 0" fill="#5d8e33"/><path d="m154.878906 167.128906c-5.890625 0-10.34375-5.347656-9.246094-11.136718 2.734376-14.40625 4.246094-30.226563 4.246094-46.824219 0 0 .96875-72.683594-15.832031-105.167969 16.433594 21 27.5 60.21875 27.5 105.167969 0 13.539062-1.019531 26.550781-2.871094 38.707031zm0 0" fill="#5d8e33"/><g fill="#690589"><path d="m134.046875 265.300781c-2.207031 0-4-1.789062-4-4v-47.070312c0-2.207031 1.792969-4 4-4s4 1.792969 4 4v47.070312c0 2.210938-1.792969 4-4 4zm0 0"/><path d="m200.433594 265.570312c-11.816406 0-27.25-6.167968-41.550782-16.644531-10.835937-7.941406-19.714843-17.527343-24.835937-26.628906-5.121094 9.101563-14 18.6875-24.835937 26.628906-14.726563 10.789063-30.636719 16.957031-42.585938 16.628907-1.230469-.039063-2.375-.640626-3.101562-1.632813-.726563-.992187-.957032-2.265625-.625-3.449219 3.019531-10.714844 12.535156-23.003906 25.730468-33.359375-7.429687-.101562-15.070312-.753906-22.835937-1.953125-27.960938-4.308594-52.15625-14.871094-64.707031-28.242187-.84375-.894531-1.226563-2.128907-1.039063-3.347657.183594-1.21875.921875-2.277343 1.996094-2.878906 14.902343-8.351562 38.6875-11.339844 64.476562-8.230468-3.023437-2.691407-5.984375-5.488282-8.863281-8.367188-24.925781-24.921875-41.453125-53.300781-44.210938-75.90625-.148437-1.21875.273438-2.445312 1.144532-3.3125.867187-.871094 2.082031-1.292969 3.308594-1.140625 22.609374 2.757813 50.984374 19.285156 75.90625 44.207031 4.242187 4.238282 8.269531 8.621094 12.058593 13.117188-2.183593-13.378906-3.320312-27.589844-3.320312-41.890625 0-44.042969 10.863281-85.289063 28.351562-107.632813.757813-.96875 1.917969-1.535156 3.148438-1.535156s2.394531.566406 3.152343 1.535156c17.484376 22.347656 28.347657 63.589844 28.347657 107.632813 0 14.300781-1.136719 28.515625-3.316407 41.890625 3.789063-4.492188 7.816407-8.875 12.054688-13.117188 24.921875-24.921875 53.300781-41.453125 75.90625-44.207031 1.222656-.152344 2.441406.269531 3.3125 1.140625s1.292969 2.09375 1.140625 3.3125c-2.757813 22.609375-19.285156 50.988281-44.207031 75.910156-2.878906 2.875-5.839844 5.671875-8.863282 8.367188 25.785157-3.117188 49.574219-.125 64.472657 8.230468 1.074219.601563 1.8125 1.660157 2 2.875.1875 1.21875-.195313 2.453126-1.039063 3.351563-12.554687 13.371094-36.746094 23.929687-64.707031 28.238281-7.769531 1.203125-15.410156 1.851563-22.839844 1.957032 13.199219 10.355468 22.71875 22.640624 25.734375 33.355468.332032 1.1875.101563 2.460938-.625 3.453125-.726562.992188-1.871094 1.59375-3.101562 1.628907-.339844.007812-.683594.015624-1.03125.015624zm-66.054688-55.230468c.621094.039062 1.253906.195312 1.765625.476562l.601563.308594c.851562.460938 1.511718 1.214844 1.847656 2.121094 3.515625 9.398437 12.867188 20.320312 25.015625 29.222656 10.738281 7.871094 22.328125 13.167969 31.699219 14.667969-4.25-8.484375-12.792969-17.941407-23.535156-25.8125-2.566407-1.875-5.214844-3.636719-7.878907-5.226563-1.597656-.957031-2.324219-2.886718-1.753906-4.660156.570313-1.769531 2.285156-2.902344 4.140625-2.761719 10.867188.902344 22.902344.414063 34.800781-1.417969 23.050781-3.554687 43.851563-11.800781 56.035157-22-14.6875-6.054687-37.003907-7.648437-60.0625-4.101562-2.734376.421875-5.542969.9375-8.597657 1.578125-1.832031.378906-3.675781-.546875-4.457031-2.246094-.78125-1.695312-.28125-3.707031 1.199219-4.84375 6.789062-5.210937 13.375-11.003906 19.578125-17.207031 21.367187-21.367188 36.628906-46.03125 40.996094-65.835938-19.804688 4.363282-44.46875 19.628907-65.832032 40.996094-8.15625 8.15625-15.484375 16.847656-21.789062 25.828125-1.105469 1.578125-3.175782 2.144531-4.929688 1.34375-1.75-.796875-2.6875-2.726562-2.226562-4.597656 4.285156-17.363281 6.546875-37.074219 6.546875-57.007813 0-39.566406-8.917969-76.527343-23.5-98.34375-14.582031 21.816407-23.5 58.777344-23.5 98.34375 0 19.929688 2.265625 39.640626 6.550781 57.007813.457031 1.871094-.476562 3.800781-2.230469 4.597656-1.75.800781-3.824219.234375-4.929687-1.34375-6.304688-8.988281-13.632813-17.679687-21.785156-25.828125-21.363282-21.367187-46.027344-36.632812-65.832032-40.992187 4.363282 19.804687 19.628906 44.46875 40.992188 65.835937 6.203125 6.199219 12.792968 11.992188 19.582031 17.207032 1.480469 1.136718 1.976563 3.144531 1.199219 4.839843-.78125 1.699219-2.621094 2.628907-4.457032 2.246094-3.050781-.636719-5.867187-1.152344-8.597656-1.574219-23.058594-3.554687-45.375-1.960937-60.0625 4.101563 12.183594 10.199219 32.984375 18.441406 56.039063 21.996093 11.894531 1.835938 23.925781 2.324219 34.796875 1.421876 1.875-.140626 3.570312.992187 4.140625 2.761718.570312 1.769532-.160157 3.703125-1.753907 4.65625-2.664062 1.59375-5.3125 3.351563-7.878906 5.230469-10.738281 7.871094-19.28125 17.324219-23.535156 25.808594 9.371094-1.496094 20.964844-6.792969 31.703125-14.664063 12.148437-8.902344 21.5-19.828125 25.015625-29.222656.335938-.90625.996094-1.660156 1.847656-2.121094l.59375-.304687c.738282-.414063 1.585938-.578125 2.425782-.484375zm0 0"/><path d="m356.332031 196.546875c-2.207031 0-4-1.789063-4-4v-26.996094c0-2.207031 1.792969-4 4-4s4 1.792969 4 4v26.996094c0 2.210937-1.792969 4-4 4zm0 0"/><path d="m299.738281 142.886719c-.730469 0-1.476562-.203125-2.140625-.625-1.863281-1.1875-2.414062-3.65625-1.226562-5.523438l8.222656-12.929687c4.769531-7.496094 4.769531-17.1875 0-24.6875-6.429688-10.105469-6.429688-23.167969 0-33.277344l9.171875-14.417969c1.1875-1.867187 3.660156-2.414062 5.523437-1.230469 1.863282 1.1875 2.414063 3.660157 1.226563 5.523438l-9.171875 14.417969c-4.769531 7.5-4.769531 17.195312 0 24.691406 6.429688 10.109375 6.429688 23.171875 0 33.277344l-8.222656 12.929687c-.761719 1.195313-2.058594 1.851563-3.382813 1.851563zm0 0"/><path d="m333.300781 142.886719c-.734375 0-1.476562-.203125-2.140625-.625-1.863281-1.1875-2.414062-3.65625-1.226562-5.523438l8.222656-12.929687c4.769531-7.496094 4.769531-17.1875 0-24.6875-6.429688-10.105469-6.429688-23.167969 0-33.277344l9.175781-14.417969c1.183594-1.867187 3.65625-2.414062 5.519531-1.230469 1.863282 1.1875 2.414063 3.660157 1.230469 5.523438l-9.175781 14.417969c-4.769531 7.5-4.769531 17.195312 0 24.691406 6.429688 10.109375 6.429688 23.171875 0 33.277344l-8.222656 12.929687c-.761719 1.195313-2.058594 1.851563-3.382813 1.851563zm0 0"/><path d="m366.867188 142.886719c-.734376 0-1.480469-.203125-2.144532-.625-1.863281-1.1875-2.414062-3.65625-1.226562-5.523438l8.222656-12.929687c4.769531-7.496094 4.769531-17.1875 0-24.6875-6.429688-10.105469-6.429688-23.167969 0-33.277344l9.171875-14.417969c1.1875-1.867187 3.660156-2.414062 5.523437-1.230469 1.863282 1.1875 2.414063 3.660157 1.226563 5.523438l-9.171875 14.417969c-4.769531 7.5-4.769531 17.195312 0 24.691406 6.429688 10.109375 6.429688 23.171875 0 33.277344l-8.222656 12.929687c-.761719 1.195313-2.058594 1.851563-3.378906 1.851563zm0 0"/></g><path d="m388.414062 281.210938h-64.167968v-66.351563l32.085937-22.3125 32.082031 22.3125zm0 0" fill="#7bac51"/><path d="m376.414062 206.515625v74.695313h12v-66.355469zm0 0" fill="#5d8e33"/><path d="m388.414062 285.210938h-64.164062c-2.210938 0-4-1.792969-4-4v-66.355469c0-1.308594.640625-2.539063 1.714844-3.285157l32.082031-22.304687c1.375-.960937 3.195313-.960937 4.566406 0l32.085938 22.304687c1.074219.746094 1.714843 1.972657 1.714843 3.285157v66.355469c0 2.210937-1.792968 4-4 4zm-60.164062-8h56.164062v-60.265626l-28.082031-19.527343-28.085937 19.527343v60.265626zm0 0" fill="#690589"/></svg>