<svg height="504pt" viewBox="0 -85 504 503" width="504pt" xmlns="http://www.w3.org/2000/svg"><path d="m480 329.898438h-456c-11.046875 0-20-8.953126-20-20v-285.394532c0-11.046875 8.953125-20 20-20h456c11.046875 0 20 8.953125 20 20v285.394532c0 11.046874-8.953125 20-20 20zm0 0" fill="#f4efed"/><path d="m24 309.898438v-285.394532c0-11.046875 8.953125-20 20-20h-20c-11.046875 0-20 8.953125-20 20v285.394532c0 11.046874 8.953125 20 20 20h20c-11.046875 0-20-8.953126-20-20zm0 0" fill="#fff"/><path d="m480 4.503906h-20c11.046875 0 20 8.953125 20 20v285.394532c0 11.046874-8.953125 20-20 20h20c11.046875 0 20-8.953126 20-20v-285.394532c0-11.046875-8.953125-20-20-20zm0 0" fill="#d6d1cf"/><path d="m480 333.898438h-456c-13.234375 0-24-10.765626-24-24v-285.398438c0-13.234375 10.765625-24 24-24h456c13.234375 0 24 10.765625 24 24v285.398438c0 13.234374-10.765625 24-24 24zm-456-325.398438c-8.820312 0-16 7.179688-16 16v285.398438c0 8.824218 7.179688 16 16 16h456c8.820312 0 16-7.175782 16-16v-285.398438c0-8.820312-7.179688-16-16-16zm0 0" fill="#690589"/><path d="m20 70.320312c-2.207031 0-4-1.792968-4-4v-24c0-2.207031 1.792969-4 4-4s4 1.792969 4 4v24c0 2.207032-1.792969 4-4 4zm0 0" fill="#690589"/><path d="m188.835938 230.6875h-139.078126c-7.007812 0-12.6875-5.679688-12.6875-12.691406v-167.167969c0-7.007813 5.679688-12.6875 12.6875-12.6875h139.078126c7.007812 0 12.691406 5.679687 12.691406 12.6875v167.167969c0 7.011718-5.683594 12.691406-12.691406 12.691406zm0 0" fill="#ff4397"/><path d="m119.296875 145.097656c-37.992187 0-68.792969 30.800782-68.792969 68.792969v16.796875h137.585938v-16.796875c0-37.992187-30.800782-68.792969-68.792969-68.792969zm0 0" fill="#fcc24c"/><path d="m158.847656 95.035156c-5.203125-21.835937-27.125-35.320312-48.960937-30.117187-21.835938 5.203125-35.320313 27.121093-30.117188 48.960937 5.203125 21.835938 27.125 35.320313 48.960938 30.117188 21.835937-5.203125 35.320312-27.125 30.117187-48.960938zm0 0" fill="#fcc24c"/><path d="m223.527344 80.363281h129.605468v20.285157h-129.605468zm0 0" fill="#7bac51"/><path d="m223.527344 127.484375h64.800781v20.285156h-64.800781zm0 0" fill="#7bac51"/><path d="m223.527344 174.609375h64.800781v20.28125h-64.800781zm0 0" fill="#7bac51"/><path d="m440.96875 235.714844c15.085938-2.328125 27.671875-8.070313 33.871094-14.671875-7.898438-4.425781-21.632813-6.109375-36.714844-3.785157-1.628906.25-3.21875.546876-4.78125.875 3.65625-2.808593 7.300781-5.988281 10.839844-9.523437 13.527344-13.527344 21.996094-28.660156 23.371094-39.925781-11.265626 1.375-26.398438 9.84375-39.925782 23.371094-4.652344 4.65625-8.691406 9.496093-12.066406 14.308593 2.308594-9.347656 3.621094-20.0625 3.621094-31.460937 0-24.394532-6.007813-45.679688-14.925782-57.078125-8.921874 11.402343-14.929687 32.6875-14.929687 57.078125 0 11.398437 1.3125 22.113281 3.621094 31.460937-3.375-4.808593-7.414063-9.652343-12.066407-14.304687-13.527343-13.527344-28.660156-22-39.925781-23.375 1.375 11.265625 9.84375 26.398437 23.371094 39.925781 3.539063 3.535156 7.183594 6.71875 10.84375 9.527344-1.566406-.328125-3.15625-.625-4.785156-.875-15.082031-2.328125-28.816407-.644531-36.710938 3.785156 6.195313 6.601563 18.78125 12.34375 33.867188 14.667969 6.894531 1.066406 13.496093 1.28125 19.398437.789062-1.484375.886719-2.972656 1.871094-4.449218 2.949219-7.804688 5.722656-13.207032 12.632813-14.761719 18.160156 5.738281.179688 13.957031-2.890625 21.761719-8.609375 7.203124-5.277344 12.351562-11.566406 14.328124-16.851562.117188-.0625.242188-.121094.355469-.183594.027344.003906.054688.011719.082031.011719.027344 0 .054688-.007813.082032-.011719.113281.066406.238281.121094.355468.183594 1.976563 5.285156 7.125 11.574218 14.328126 16.851562 7.804687 5.71875 16.023437 8.789063 21.761718 8.609375-1.558594-5.527343-6.960937-12.4375-14.765625-18.160156-1.472656-1.078125-2.960937-2.0625-4.445312-2.949219 5.898437.488282 12.5.273438 19.394531-.789062zm0 0" fill="#7bac51"/><g fill="#690589"><path d="m404.257812 277.449219c-2.210937 0-4-1.792969-4-4v-43.347657c0-2.210937 1.789063-4 4-4 2.207032 0 4 1.789063 4 4v43.347657c0 2.207031-1.792968 4-4 4zm0 0"/><path d="m440.296875 261.621094c-6.796875 0-15.578125-3.480469-23.644531-9.390625-5.152344-3.773438-9.4375-8.105469-12.398438-12.449219-2.960937 4.34375-7.242187 8.671875-12.398437 12.449219-8.308594 6.089843-17.378907 9.5625-24.25 9.378906-1.230469-.039063-2.375-.640625-3.101563-1.632813-.726562-.992187-.957031-2.265624-.625-3.449218 1.445313-5.125 5.410156-10.832032 10.984375-15.972656-2.609375-.179688-5.257812-.476563-7.933593-.886719-15.566407-2.398438-29.085938-8.339844-36.171876-15.882813-.84375-.898437-1.226562-2.132812-1.039062-3.347656.183594-1.21875.921875-2.28125 1.996094-2.882812 7.355468-4.121094 18.460937-5.941407 30.738281-5.175782-.320313-.3125-.636719-.625-.953125-.941406-13.804688-13.804688-22.96875-29.609375-24.515625-42.273438-.148437-1.21875.273437-2.441406 1.140625-3.308593.867188-.875 2.085938-1.292969 3.3125-1.144531 12.664062 1.546874 28.464844 10.710937 42.269531 24.515624.886719.886719 1.753907 1.78125 2.605469 2.6875-.652344-5.539062-.984375-11.261718-.984375-17.011718 0-24.664063 5.898437-46.921875 15.773437-59.542969 1.519532-1.9375 4.785157-1.9375 6.300782 0 9.878906 12.621094 15.777344 34.882813 15.777344 59.542969 0 5.746094-.335938 11.472656-.984376 17.011718.851563-.90625 1.71875-1.800781 2.601563-2.6875 13.808594-13.804687 29.609375-22.96875 42.269531-24.515624 1.222656-.148438 2.445313.269531 3.3125 1.140624.871094.871094 1.292969 2.09375 1.144532 3.3125-1.546876 12.660157-10.710938 28.464844-24.515626 42.269532-.316406.316406-.632812.628906-.953124.941406 12.28125-.761719 23.382812 1.058594 30.734374 5.179688 1.074219.601562 1.8125 1.664062 2 2.878906s-.195312 2.449218-1.039062 3.347656c-7.085938 7.546875-20.609375 13.484375-36.175781 15.882812-2.675781.414063-5.324219.710938-7.933594.886719 5.574219 5.140625 9.542969 10.847657 10.984375 15.976563.335938 1.183594.105469 2.457031-.621094 3.449218-.730468.992188-1.875 1.59375-3.101562 1.632813-.195313.007813-.398438.011719-.605469.011719zm-53.355469-29.117188c1.722656 0 3.273438 1.109375 3.804688 2.773438.570312 1.773437-.15625 3.703125-1.753906 4.660156-1.398438.835938-2.792969 1.757812-4.132813 2.742188-3.988281 2.921874-7.449219 6.332031-9.882813 9.621093 3.875-1.328125 8.164063-3.601562 12.152344-6.523437 6.316406-4.628906 11.15625-10.246094 12.941406-15.027344.34375-.914062 1.011719-1.675781 1.878907-2.132812.027343-.015626.207031-.105469.238281-.125.46875-.230469 1.0625-.414063 1.640625-.484376v-.003906l-.203125.027344c.902344-.15625 1.867188 0 2.667969.445312.027343.015626.242187.125.269531.136719.867188.457031 1.53125 1.214844 1.875 2.132813 1.789062 4.78125 6.628906 10.398437 12.945312 15.03125 3.988282 2.921875 8.277344 5.195312 12.152344 6.523437-2.433594-3.292969-5.894531-6.699219-9.882812-9.621093-1.34375-.988282-2.734375-1.910157-4.128906-2.746094-1.597657-.957032-2.328126-2.886719-1.757813-4.65625.570313-1.773438 2.269531-2.898438 4.140625-2.761719 5.757812.476563 12.140625.214844 18.453125-.757813 10.65625-1.640624 20.359375-5.140624 26.871094-9.542968-7.535157-2.234375-17.84375-2.648438-28.5-1.003906-1.554688.238281-3.078125.523437-4.574219.835937-1.828125.378906-3.671875-.550781-4.449219-2.246094-.777343-1.695312-.28125-3.707031 1.199219-4.84375 3.621094-2.777343 7.136719-5.867187 10.449219-9.179687 10.316406-10.316406 17.945312-22.015625 20.972656-31.871094-9.851563 3.03125-21.554687 10.660156-31.871094 20.976562-4.347656 4.347657-8.257812 8.984376-11.617187 13.773438-1.109375 1.578125-3.179688 2.140625-4.933594 1.347656-1.75-.796875-2.6875-2.730468-2.226562-4.601562 2.289062-9.285156 3.5-19.835938 3.5-30.503906 0-19.714844-4.109376-38.164063-10.925782-49.917969-6.816406 11.753906-10.925781 30.203125-10.925781 49.917969 0 10.671874 1.210937 21.21875 3.5 30.503906.460937 1.871094-.472656 3.800781-2.226563 4.601562-1.75.792969-3.824218.230469-4.929687-1.347656-3.363281-4.789062-7.269531-9.425781-11.621094-13.773438-10.316406-10.316406-22.015625-17.945312-31.871093-20.976562 3.03125 9.855469 10.660156 21.558594 20.976562 31.875 3.3125 3.3125 6.828125 6.402344 10.449219 9.179688 1.480469 1.136718 1.976562 3.144531 1.199219 4.839843-.777344 1.695313-2.625 2.625-4.453126 2.246094-1.496093-.3125-3.015624-.597656-4.574218-.835937-10.65625-1.644532-20.960938-1.230469-28.496094 1.003906 6.511719 4.402344 16.214844 7.902344 26.867188 9.542968 6.316406.972657 12.699218 1.234376 18.457031.757813.113281-.007813.226562-.011719.335937-.011719zm0 0"/><path d="m188.835938 234.6875h-139.078126c-9.203124 0-16.691406-7.488281-16.691406-16.691406v-167.167969c0-9.203125 7.488282-16.6875 16.691406-16.6875h139.078126c9.203124 0 16.6875 7.484375 16.6875 16.6875v167.167969c.003906 9.203125-7.484376 16.691406-16.6875 16.691406zm-139.078126-192.546875c-4.792968 0-8.691406 3.898437-8.691406 8.6875v167.167969c0 4.792968 3.898438 8.691406 8.691406 8.691406h139.082032c4.789062 0 8.6875-3.898438 8.6875-8.691406v-167.167969c0-4.792969-3.898438-8.6875-8.6875-8.6875zm0 0"/><path d="m188.089844 234.6875h-137.585938c-2.207031 0-4-1.792969-4-4v-16.796875c0-40.136719 32.652344-72.789063 72.792969-72.789063 40.136719 0 72.792969 32.65625 72.792969 72.789063v16.796875c0 2.207031-1.789063 4-4 4zm-133.585938-8h129.585938v-12.796875c0-35.726563-29.066406-64.789063-64.792969-64.789063s-64.792969 29.0625-64.792969 64.789063zm0 0"/><path d="m119.296875 149.097656c-24.617187 0-44.644531-20.027344-44.644531-44.644531 0-24.613281 20.027344-44.644531 44.644531-44.644531 24.613281 0 44.644531 20.03125 44.644531 44.644531 0 24.617187-20.027344 44.644531-44.644531 44.644531zm0-81.289062c-20.207031 0-36.644531 16.4375-36.644531 36.644531s16.4375 36.644531 36.644531 36.644531 36.644531-16.4375 36.644531-36.644531-16.4375-36.644531-36.644531-36.644531zm0 0"/><path d="m353.132812 104.648438h-129.605468c-2.210938 0-4-1.792969-4-4v-20.285157c0-2.207031 1.789062-4 4-4h129.605468c2.207032 0 4 1.792969 4 4v20.285157c0 2.207031-1.792968 4-4 4zm-125.605468-8h121.605468v-12.285157h-121.605468zm0 0"/><path d="m288.328125 151.769531h-64.800781c-2.210938 0-4-1.792969-4-4v-20.285156c0-2.207031 1.789062-4 4-4h64.800781c2.210937 0 4 1.792969 4 4v20.285156c0 2.210938-1.789063 4-4 4zm-60.800781-8h56.800781v-12.285156h-56.800781zm0 0"/><path d="m288.328125 198.890625h-64.800781c-2.210938 0-4-1.789063-4-4v-20.28125c0-2.210937 1.789062-4 4-4h64.800781c2.210937 0 4 1.789063 4 4v20.28125c0 2.210937-1.789063 4-4 4zm-60.800781-8h56.800781v-12.28125h-56.800781zm0 0"/></g><path d="m35.34375 273.976562h128.800781v20.285157h-128.800781zm0 0" fill="#fcc24c"/><path d="m164.144531 298.261719h-128.800781c-2.210938 0-4-1.792969-4-4v-20.285157c0-2.207031 1.789062-4 4-4h128.800781c2.207031 0 4 1.792969 4 4v20.285157c0 2.207031-1.789062 4-4 4zm-124.800781-8h120.800781v-12.285157h-120.800781zm0 0" fill="#690589"/><path d="m187.597656 273.976562h128.800782v20.285157h-128.800782zm0 0" fill="#fcc24c"/><path d="m316.402344 298.261719h-128.804688c-2.207031 0-4-1.792969-4-4v-20.285157c0-2.207031 1.792969-4 4-4h128.800782c2.210937 0 4 1.792969 4 4v20.285157c.003906 2.207031-1.789063 4-3.996094 4zm-124.804688-8h120.800782v-12.285157h-120.800782zm0 0" fill="#690589"/><path d="m339.855469 273.976562h128.800781v20.285157h-128.800781zm0 0" fill="#fcc24c"/><path d="m468.65625 298.261719h-128.800781c-2.207031 0-4-1.792969-4-4v-20.285157c0-2.207031 1.792969-4 4-4h128.800781c2.210938 0 4 1.792969 4 4v20.285157c0 2.207031-1.789062 4-4 4zm-124.800781-8h120.800781v-12.285157h-120.800781zm0 0" fill="#690589"/></svg>