<svg height="504pt" viewBox="0 0 504 504" width="504pt" xmlns="http://www.w3.org/2000/svg"><path d="m500 170.949219h-166.949219v-166.949219h-162.101562v166.949219h-166.949219v162.101562h166.949219v166.949219h162.101562v-166.949219h166.949219zm0 0" fill="#f4efed"/><g fill="#d6d1cf"><path d="m333.050781 170.949219v-166.949219h-20v146.949219c0 11.046875 8.953125 20 20 20zm0 0"/><path d="m480 170.949219h20v162.101562h-20zm0 0"/><path d="m313.050781 500h20v-166.949219c-11.046875 0-20 8.953125-20 20zm0 0"/></g><path d="m170.949219 170.949219v-166.949219h20v146.949219c0 11.046875-8.953125 20-20 20zm0 0" fill="#fff"/><path d="m4 170.949219h20v162.101562h-20zm0 0" fill="#fff"/><path d="m190.949219 500h-20v-166.949219c11.046875 0 20 8.953125 20 20zm0 0" fill="#fff"/><path d="m333.050781 504h-162.101562c-2.207031 0-4-1.792969-4-4v-162.949219h-162.949219c-2.207031 0-4-1.792969-4-4v-162.101562c0-2.207031 1.792969-4 4-4h162.949219v-162.949219c0-2.207031 1.792969-4 4-4h162.101562c2.207031 0 4 1.792969 4 4v162.949219h162.949219c2.207031 0 4 1.792969 4 4v162.101562c0 2.207031-1.792969 4-4 4h-162.949219v162.949219c0 2.207031-1.792969 4-4 4zm-158.101562-8h154.101562v-162.949219c0-2.207031 1.792969-4 4-4h162.949219v-154.101562h-162.949219c-2.207031 0-4-1.792969-4-4v-162.949219h-154.101562v162.949219c0 2.207031-1.792969 4-4 4h-162.949219v154.101562h162.949219c2.207031 0 4 1.792969 4 4zm0 0" fill="#690589"/><path d="m20 232.050781c-2.207031 0-4-1.789062-4-4v-24c0-2.207031 1.792969-4 4-4s4 1.792969 4 4v24c0 2.210938-1.792969 4-4 4zm0 0" fill="#690589"/><path d="m315.835938 310.914062c26.222656-4.042968 48.109374-14.027343 58.882812-25.503906-13.734375-7.699218-37.609375-10.628906-63.832031-6.585937-2.828125.4375-5.597657.957031-8.316407 1.523437 6.363282-4.882812 12.699219-10.414062 18.847657-16.5625 23.519531-23.519531 38.25-49.828125 40.640625-69.417968-19.589844 2.390624-45.902344 17.121093-69.417969 40.640624-8.09375 8.09375-15.113281 16.511719-20.980469 24.875 4.011719-16.25 6.292969-34.882812 6.292969-54.699218 0-42.414063-10.441406-79.421875-25.949219-99.242188-15.511718 19.820313-25.953125 56.828125-25.953125 99.242188 0 19.8125 2.28125 38.445312 6.292969 54.699218-5.867188-8.363281-12.890625-16.78125-20.980469-24.871093-23.515625-23.523438-49.828125-38.25-69.417969-40.640625 2.390626 19.589844 17.121094 45.898437 40.640626 69.417968 6.148437 6.148438 12.484374 11.675782 18.847656 16.5625-2.722656-.570312-5.488282-1.085937-8.316406-1.523437-26.226563-4.042969-50.101563-1.117187-63.832032 6.582031 10.773438 11.480469 32.660156 21.464844 58.886719 25.507813 11.984375 1.847656 23.464844 2.226562 33.722656 1.371093-2.578125 1.542969-5.164062 3.253907-7.726562 5.132813-13.570313 9.945313-22.960938 21.960937-25.667969 31.570313 9.976562.316406 24.265625-5.019532 37.835938-14.964844 12.523437-9.175782 21.472656-20.113282 24.910156-29.300782.203125-.105468.417968-.207031.617187-.316406.046875.003906.097657.015625.144531.023438.042969-.007813.09375-.019532.140626-.023438.199218.109375.414062.210938.617187.316406 3.4375 9.1875 12.386719 20.125 24.910156 29.300782 13.570313 9.945312 27.859375 15.28125 37.835938 14.964844-2.707031-9.605469-12.097657-21.625-25.667969-31.570313-2.5625-1.878906-5.148438-3.589844-7.726562-5.132813 10.25.851563 21.730468.476563 33.71875-1.375zm0 0" fill="#7bac51"/><path d="m252 364.125c-2.207031 0-4-1.789062-4-4v-58.972656c0-2.207032 1.792969-4 4-4s4 1.792968 4 4v58.972656c0 2.210938-1.792969 4-4 4zm0 0" fill="#690589"/><path d="m314.644531 353.003906c-11.199219 0-25.804687-5.835937-39.339843-15.753906-10.113282-7.410156-18.425782-16.339844-23.304688-24.855469-4.878906 8.515625-13.191406 17.445313-23.304688 24.855469-13.933593 10.210938-29.023437 16.125-40.328124 15.738281-1.230469-.039062-2.375-.640625-3.097657-1.632812-.726562-.992188-.960937-2.265625-.625-3.449219 2.820313-10.019531 11.628907-21.480469 23.863281-31.203125-6.824218-.125-13.832031-.734375-20.953124-1.832031-26.433594-4.078125-49.3125-14.066406-61.191407-26.722656-.84375-.894532-1.226562-2.128907-1.039062-3.347657.1875-1.214843.921875-2.277343 1.996093-2.878906 13.96875-7.828125 36.167969-10.675781 60.269532-7.875-2.667969-2.398437-5.285156-4.875-7.835938-7.429687-23.554687-23.554688-39.175781-50.382813-41.785156-71.765626-.148438-1.21875.273438-2.445312 1.144531-3.3125.867188-.871093 2.085938-1.292968 3.3125-1.140624 21.378907 2.609374 48.207031 18.230468 71.761719 41.785156 3.808594 3.808594 7.4375 7.742187 10.863281 11.769531-1.976562-12.402344-3.003906-25.542969-3.003906-38.765625 0-42.242188 10.019531-80.261719 26.800781-101.710938 1.519532-1.9375 4.785156-1.9375 6.300782 0 16.78125 21.449219 26.800781 59.46875 26.800781 101.710938 0 13.222656-1.027344 26.363281-3.003907 38.765625 3.425782-4.027344 7.050782-7.960937 10.863282-11.769531 23.554687-23.554688 50.378906-39.175782 71.761718-41.785156 1.222657-.152344 2.445313.273437 3.3125 1.140624.871094.871094 1.292969 2.09375 1.144532 3.3125-2.613282 21.382813-18.230469 48.210938-41.785156 71.761719-2.550782 2.550781-5.167969 5.03125-7.835938 7.429688 24.105469-2.796875 46.304688.050781 60.269531 7.875 1.070313.601562 1.808594 1.664062 1.996094 2.878906.1875 1.21875-.195313 2.449219-1.039063 3.347656-11.878906 12.65625-34.753906 22.644531-61.191406 26.722657-7.121094 1.097656-14.128906 1.707031-20.953125 1.832031 12.234375 9.722656 21.042969 21.179687 23.863281 31.203125.335938 1.183594.105469 2.457031-.625 3.449218-.726562.992188-1.867187 1.59375-3.097656 1.632813-.324218.011719-.652344.019531-.984375.019531zm-92.75-44.71875c1.722657 0 3.269531 1.113282 3.804688 2.777344.570312 1.773438-.15625 3.703125-1.753907 4.65625-2.507812 1.5-5.003906 3.15625-7.417968 4.925781-9.941406 7.285157-17.882813 16.007813-21.941406 23.878907 8.726562-1.496094 19.4375-6.441407 29.378906-13.726563 11.429687-8.375 20.226562-18.648437 23.527344-27.476563.34375-.914062 1.007812-1.671874 1.871093-2.128906l.542969-.277344c.640625-.359374 1.375-.542968 2.09375-.507812.730469-.035156 1.453125.148438 2.09375.507812l.542969.277344c.859375.457032 1.527343 1.214844 1.871093 2.128906 3.300782 8.828126 12.097657 19.101563 23.527344 27.476563 9.941406 7.285156 20.652344 12.230469 29.378906 13.726563-4.058593-7.871094-12-16.59375-21.941406-23.878907-2.414062-1.769531-4.910156-3.425781-7.417968-4.925781-1.597657-.953125-2.324219-2.882812-1.753907-4.65625.570313-1.773438 2.269531-2.910156 4.140625-2.761719 10.246094.851563 21.578125.386719 32.78125-1.339843 21.539063-3.320313 40.980469-10.980469 52.480469-20.46875-13.824219-5.585938-34.671875-7.035157-56.210937-3.710938-2.5625.394531-5.210938.878906-8.101563 1.484375-1.824219.382813-3.675781-.550781-4.453125-2.246094-.78125-1.699219-.285156-3.707031 1.199219-4.84375 6.390625-4.90625 12.601562-10.363281 18.453125-16.214843 20.007812-20.007813 34.339844-43.082032 38.546875-61.671876-18.589844 4.207032-41.660157 18.539063-61.667969 38.550782-7.683594 7.683594-14.59375 15.875-20.535156 24.34375-1.105469 1.578125-3.179688 2.140625-4.929688 1.34375-1.75-.800782-2.691406-2.730469-2.226562-4.601563 4.035156-16.367187 6.171875-34.953125 6.171875-53.742187 0-37.125-8.324219-71.808594-21.953125-92.394532-13.625 20.585938-21.949219 55.269532-21.949219 92.394532 0 18.789062 2.136719 37.375 6.171875 53.742187.460938 1.871094-.476562 3.800781-2.226562 4.601563-1.75.792968-3.828126.230468-4.929688-1.34375-5.941406-8.46875-12.847656-16.660156-20.535156-24.34375-20.007813-20.011719-43.078125-34.34375-61.667969-38.550782 4.207031 18.589844 18.539063 41.664063 38.546875 61.671876 5.851562 5.851562 12.0625 11.308593 18.453125 16.214843 1.480469 1.136719 1.980469 3.144531 1.199219 4.84375-.777344 1.691407-2.625 2.625-4.453125 2.246094-2.890625-.605469-5.542969-1.089844-8.101563-1.484375-21.542968-3.320312-42.386718-1.878906-56.210937 3.710938 11.5 9.488281 30.941406 17.148437 52.480469 20.46875 11.203124 1.730468 22.542968 2.191406 32.78125 1.339843.117187-.007812.230468-.015625.339843-.015625zm0 0" fill="#690589"/></svg>