<svg height="504pt" viewBox="0 -59 504 504" width="504pt" xmlns="http://www.w3.org/2000/svg"><path d="m361.992188 83.128906h-28v-45.132812c0-3.304688-2.691407-6-6-6h-151.984376c-3.308593 0-6 2.695312-6 6v45.132812h-28v-45.132812c0-18.746094 15.25-34 34-34h151.984376c18.75 0 34 15.253906 34 34zm0 0" fill="#ff4397"/><path d="m490 157.421875h-476c-5.523438 0-10-4.476563-10-10v-54.292969c0-5.519531 4.476562-10 10-10h476c5.523438 0 10 4.480469 10 10v54.292969c0 5.523437-4.476562 10-10 10zm0 0" fill="#f4efed"/><path d="m452.546875 382.257812h-401.09375c-11.046875 0-20-8.953124-20-20v-204.835937h441.089844v204.835937c.003906 11.042969-8.949219 20-19.996094 20zm0 0" fill="#f4efed"/><path d="m327.992188 3.996094h-20c18.75 0 34 15.253906 34 34v45.132812h20v-45.132812c0-18.746094-15.25-34-34-34zm0 0" fill="#e12579"/><path d="m176.007812 3.996094h20c-18.75 0-34 15.253906-34 34v45.132812h-20v-45.132812c0-18.746094 15.25-34 34-34zm0 0" fill="#ff61b5"/><path d="m490 83.128906h-20c5.523438 0 10 4.480469 10 10v54.292969c0 5.523437-4.476562 10-10 10h20c5.523438 0 10-4.476563 10-10v-54.292969c0-5.519531-4.476562-10-10-10zm0 0" fill="#d6d1cf"/><path d="m14 157.421875h20c-5.523438 0-10-4.476563-10-10v-54.292969c0-5.519531 4.476562-10 10-10h-20c-5.523438 0-10 4.480469-10 10v54.292969c0 5.523437 4.476562 10 10 10zm0 0" fill="#fff"/><path d="m452.546875 157.421875v204.835937c0 11.042969-8.953125 20-20 20h20c11.046875 0 20-8.957031 20-20v-204.835937zm0 0" fill="#d6d1cf"/><path d="m51.453125 157.421875v204.835937c0 11.042969 8.953125 20 20 20h-20c-11.046875 0-20-8.957031-20-20v-204.835937zm0 0" fill="#fff"/><path d="m132.007812 186.816406h-36.070312c-5.523438 0-10-4.476562-10-10v-19.394531h56.070312v19.394531c0 5.523438-4.480468 10-10 10zm0 0" fill="#7bac51"/><path d="m408.0625 186.816406h-36.070312c-5.523438 0-10-4.476562-10-10v-19.394531h56.070312v19.394531c0 5.523438-4.476562 10-10 10zm0 0" fill="#7bac51"/><path d="m323.675781 245.730469h-47.566406v-47.566407h-48.21875v47.566407h-47.566406v48.21875h47.566406v47.566406h48.21875v-47.566406h47.566406zm0 0" fill="#ff4397"/><g fill="#690589"><path d="m490 161.421875h-476c-7.71875 0-14-6.28125-14-14v-54.292969c0-7.71875 6.28125-14 14-14h476c7.71875 0 14 6.28125 14 14v54.292969c0 7.71875-6.28125 14-14 14zm-476-74.292969c-3.308594 0-6 2.691406-6 6v54.292969c0 3.308594 2.691406 6 6 6h476c3.308594 0 6-2.691406 6-6v-54.292969c0-3.308594-2.691406-6-6-6zm0 0"/><path d="m452.542969 386.257812h-401.085938c-13.234375 0-24-10.769531-24-24v-204.835937c0-2.207031 1.789063-4 4-4h441.089844c2.207031 0 4 1.792969 4 4v204.835937c-.003906 13.234376-10.765625 24-24.003906 24zm-417.085938-224.835937v200.835937c0 8.820313 7.175781 16 16 16h401.089844c8.820313 0 16-7.179687 16-16v-200.835937zm0 0"/><path d="m47.457031 217.882812c-2.210937 0-4-1.789062-4-4v-24c0-2.207031 1.789063-4 4-4 2.207031 0 4 1.792969 4 4v24c0 2.210938-1.792969 4-4 4zm0 0"/><path d="m276.109375 345.515625h-48.21875c-2.207031 0-4-1.792969-4-4v-43.566406h-43.566406c-2.207031 0-4-1.792969-4-4v-48.21875c0-2.207031 1.792969-4 4-4h43.566406v-43.566407c0-2.207031 1.792969-4 4-4h48.21875c2.207031 0 4 1.792969 4 4v43.566407h43.566406c2.207031 0 4 1.792969 4 4v48.21875c0 2.207031-1.792969 4-4 4h-43.566406v43.566406c0 2.210937-1.792969 4-4 4zm-44.21875-8h40.21875v-43.566406c0-2.210938 1.789063-4 4-4h43.566406v-40.21875h-43.566406c-2.210937 0-4-1.789063-4-4v-43.566407h-40.21875v43.566407c0 2.210937-1.792969 4-4 4h-43.566406v40.21875h43.566406c2.207031 0 4 1.789062 4 4zm0 0"/><path d="m361.992188 87.128906h-28c-2.207032 0-4-1.789062-4-4v-45.128906c0-1.105469-.894532-2-2-2h-151.984376c-1.105468 0-2 .894531-2 2v45.128906c0 2.210938-1.792968 4-4 4h-28c-2.210937 0-4-1.789062-4-4v-45.128906c0-20.953125 17.042969-38 38-38h151.984376c20.957031 0 38 17.046875 38 38v45.128906c0 2.210938-1.789063 4-4 4zm-24-8h20v-41.128906c0-16.542969-13.457032-30-30-30h-151.984376c-16.542968 0-30 13.457031-30 30v41.128906h20v-41.128906c0-5.515625 4.484376-10 10-10h151.984376c5.515624 0 10 4.484375 10 10zm0 0"/><path d="m132.007812 190.816406h-36.070312c-7.71875 0-14-6.28125-14-14v-19.390625c0-2.210937 1.792969-4 4-4h56.070312c2.207032 0 4 1.789063 4 4v19.390625c0 7.71875-6.285156 14-14 14zm-42.070312-29.394531v15.394531c0 3.308594 2.691406 6 6 6h36.070312c3.304688 0 6-2.691406 6-6v-15.394531zm0 0"/><path d="m408.0625 190.816406h-36.070312c-7.714844 0-14-6.28125-14-14v-19.390625c0-2.210937 1.792968-4 4-4h56.070312c2.207031 0 4 1.789063 4 4v19.390625c0 7.71875-6.28125 14-14 14zm-42.070312-29.394531v15.394531c0 3.308594 2.695312 6 6 6h36.070312c3.308594 0 6-2.691406 6-6v-15.394531zm0 0"/></g></svg>