<svg height="504pt" viewBox="-75 0 504 504" width="504pt" xmlns="http://www.w3.org/2000/svg"><path d="m176.984375 466.890625c13.191406 19.945313 35.804687 33.109375 61.507813 33.109375 35.722656 0 65.5-25.417969 72.25-59.152344 18.726562-13.363281 30.949218-35.253906 30.949218-60.011718 0-6.855469-.957031-13.480469-2.707031-19.777344 7.199219-10.238282 11.460937-22.683594 11.460937-36.144532 0-19.21875-8.636718-36.398437-22.210937-47.945312.53125-3.574219.8125-7.226562.8125-10.945312 0-24.148438-11.613281-45.582032-29.5625-59.023438.023437-.75.054687-1.496094.054687-2.253906 0-40.699219-32.992187-73.691406-73.691406-73.691406-18.75 0-35.855468 7.011718-48.859375 18.546874v317.289063zm0 0" fill="#ff4397"/><path d="m177.457031 466.890625c-13.1875 19.945313-35.804687 33.109375-61.503906 33.109375-35.722656 0-65.5-25.417969-72.253906-59.152344-18.726563-13.363281-30.945313-35.253906-30.945313-60.011718 0-6.855469.953125-13.480469 2.703125-19.777344-7.195312-10.238282-11.457031-22.683594-11.457031-36.144532 0-19.21875 8.636719-36.398437 22.210938-47.945312-.53125-3.574219-.8125-7.226562-.8125-10.945312 0-24.148438 11.617187-45.582032 29.5625-59.023438-.019532-.75-.054688-1.496094-.054688-2.253906 0-40.699219 32.992188-73.691406 73.695312-73.691406 18.75 0 35.851563 7.011718 48.859376 18.546874v317.289063zm0 0" fill="#ff4397"/><path d="m350.445312 324.914062c0-19.21875-8.636718-36.398437-22.214843-47.945312.535156-3.574219.816406-7.226562.816406-10.945312 0-24.148438-11.617187-45.582032-29.566406-59.023438.023437-.75.058593-1.496094.058593-2.253906 0-40.699219-32.996093-73.695313-73.691406-73.695313-3.410156 0-6.765625.238281-10.050781.6875 35.988281 4.863281 63.742187 35.683594 63.742187 73.007813 0 .757812-.035156 1.503906-.058593 2.253906 17.949219 13.441406 29.566406 34.875 29.566406 59.023438 0 3.71875-.28125 7.371093-.816406 10.945312 13.574219 11.546875 22.214843 28.726562 22.214843 47.945312 0 13.460938-4.261718 25.910157-11.460937 36.144532 1.75 6.296875 2.707031 12.921875 2.707031 19.777344 0 24.757812-12.222656 46.648437-30.949218 60.011718-6.109376 30.515625-31.0625 54.226563-62.210938 58.46875 3.257812.441406 6.578125.683594 9.957031.683594 35.722657 0 65.5-25.421875 72.253907-59.152344 18.726562-13.367187 30.949218-35.253906 30.949218-60.011718 0-6.855469-.957031-13.480469-2.707031-19.777344 7.199219-10.234375 11.460937-22.683594 11.460937-36.144532zm0 0" fill="#e12579"/><path d="m4 324.914062c0-19.21875 8.636719-36.398437 22.210938-47.945312-.53125-3.574219-.8125-7.226562-.8125-10.945312 0-24.148438 11.617187-45.582032 29.5625-59.023438-.019532-.75-.054688-1.496094-.054688-2.253906 0-40.699219 32.992188-73.695313 73.695312-73.695313 3.410157 0 6.761719.238281 10.046876.6875-35.988282 4.863281-63.742188 35.683594-63.742188 73.007813 0 .757812.035156 1.503906.054688 2.253906-17.945313 13.441406-29.5625 34.875-29.5625 59.023438 0 3.71875.28125 7.371093.8125 10.945312-13.574219 11.546875-22.210938 28.726562-22.210938 47.945312 0 13.460938 4.261719 25.910157 11.457031 36.144532-1.75 6.296875-2.703125 12.921875-2.703125 19.777344 0 24.757812 12.21875 46.648437 30.945313 60.011718 6.109375 30.515625 31.0625 54.226563 62.210937 58.46875-3.257812.441406-6.578125.683594-9.957031.683594-35.722656 0-65.5-25.421875-72.253906-59.152344-18.726563-13.367187-30.945313-35.253906-30.945313-60.011718 0-6.855469.953125-13.480469 2.703125-19.777344-7.195312-10.234375-11.457031-22.683594-11.457031-36.144532zm0 0" fill="#ff61b5"/><g fill="#690589"><path d="m115.953125 504c-36.378906 0-68.027344-25.484375-75.847656-60.824219-19.664063-14.640625-31.351563-37.824219-31.351563-62.339843 0-6.402344.792969-12.792969 2.371094-19.035157-7.285156-10.988281-11.125-23.699219-11.125-36.886719 0-18.898437 7.976562-36.828124 21.960938-49.535156-.375-3.113281-.5625-6.25-.5625-9.355468 0-24.015626 10.726562-46.113282 29.507812-60.953126 0-.105468-.003906-.214843-.003906-.324218 0-42.839844 34.855468-77.695313 77.695312-77.695313 18.996094 0 37.292969 6.945313 51.515625 19.554688.855469.757812 1.34375 1.847656 1.34375 2.992187v317.289063c0 .785156-.230469 1.550781-.664062 2.207031-14.449219 21.859375-38.6875 34.90625-64.839844 34.90625zm12.644531-368.945312c-38.425781 0-69.695312 31.261718-69.695312 69.691406 0 .519531.019531 1.03125.039062 1.542968l.019532.59375c.039062 1.300782-.558594 2.542969-1.601563 3.320313-17.769531 13.308594-27.960937 33.652344-27.960937 55.824219 0 3.4375.261718 6.921875.773437 10.351562.203125 1.367188-.3125 2.742188-1.367187 3.636719-13.21875 11.25-20.800782 27.613281-20.800782 44.898437 0 12.15625 3.707032 23.863282 10.726563 33.84375.691406.980469.90625 2.214844.582031 3.371094-1.695312 6.113282-2.558594 12.40625-2.558594 18.710938 0 22.457031 10.941406 43.675781 29.273438 56.753906.828125.589844 1.398437 1.472656 1.597656 2.46875 6.484375 32.410156 35.222656 55.9375 68.328125 55.9375 23.0625 0 44.46875-11.3125 57.503906-30.332031v-314.234375c-12.554687-10.574219-28.414062-16.378906-44.859375-16.378906zm48.859375 331.832031h.019531zm0 0"/><path d="m46.335938 243.121094c-.75 0-1.515626-.210938-2.191407-.65625-1.847656-1.210938-2.359375-3.691406-1.148437-5.539063 6.300781-9.59375 14.230468-18.007812 23.574218-25.003906 1.773438-1.324219 4.28125-.964844 5.601563.800781 1.324219 1.769532.964844 4.273438-.800781 5.597656-8.601563 6.445313-15.898438 14.179688-21.6875 22.996094-.769532 1.167969-2.046875 1.804688-3.347656 1.804688zm0 0"/><path d="m80.523438 296.320312c-1.023438 0-2.046876-.390624-2.828126-1.171874-10.429687-10.433594-24.300781-16.175782-39.050781-16.175782-3.957031 0-7.90625.417969-11.730469 1.246094-2.160156.457031-4.289062-.902344-4.753906-3.0625-.46875-2.160156.902344-4.289062 3.0625-4.757812 4.382813-.945313 8.898438-1.425782 13.421875-1.425782 16.886719 0 32.765625 6.574219 44.707031 18.519532 1.5625 1.5625 1.5625 4.09375 0 5.65625-.78125.78125-1.804687 1.171874-2.828124 1.171874zm0 0"/><path d="m176.984375 352.796875c-1.023437 0-2.046875-.390625-2.828125-1.171875-10.429688-10.433594-24.296875-16.175781-39.050781-16.175781-3.957031 0-7.902344.417969-11.730469 1.246093-2.160156.457032-4.285156-.902343-4.753906-3.0625-.46875-2.160156.90625-4.289062 3.066406-4.757812 4.378906-.945312 8.894531-1.425781 13.417969-1.425781 16.890625 0 32.769531 6.574219 44.707031 18.519531 1.5625 1.5625 1.5625 4.09375 0 5.65625-.777344.78125-1.800781 1.171875-2.828125 1.171875zm0 0"/><path d="m124.277344 249.492188c-2.210938 0-4-1.789063-4-4 0-10.445313 7.152344-22.386719 18.214844-30.425782 12.316406-8.941406 26.96875-11.601562 40.203124-7.285156 2.101563.683594 3.25 2.941406 2.566407 5.042969-.6875 2.101562-2.949219 3.25-5.042969 2.5625-10.765625-3.503907-22.804688-1.261719-33.023438 6.15625-9.0625 6.578125-14.917968 15.980469-14.917968 23.949219 0 2.210937-1.792969 4-4 4zm0 0"/><path d="m43.699219 444.84375c-2.207031 0-4-1.792969-4-4 0-10.453125 7.152343-22.394531 18.222656-30.429688 12.3125-8.941406 26.964844-11.597656 40.199219-7.285156 2.097656.683594 3.246094 2.941406 2.5625 5.042969-.6875 2.101563-2.945313 3.25-5.042969 2.5625-10.769531-3.503906-22.800781-1.265625-33.019531 6.152344-9.066406 6.582031-14.921875 15.984375-14.921875 23.957031 0 2.207031-1.792969 4-4 4zm0 0"/><path d="m49.136719 332.058594c-2.207031 0-4-1.789063-4-4 0-10.449219 7.152343-22.390625 18.222656-30.425782 12.316406-8.941406 26.96875-11.597656 40.199219-7.285156 2.101562.683594 3.25 2.941406 2.566406 5.042969s-2.945312 3.246094-5.042969 2.5625c-10.765625-3.503906-22.804687-1.265625-33.023437 6.152344-9.0625 6.582031-14.917969 15.984375-14.917969 23.953125-.003906 2.210937-1.792969 4-4.003906 4zm0 0"/><path d="m238.492188 504c-26.152344 0-50.390626-13.046875-64.84375-34.90625-.429688-.652344-.664063-1.417969-.664063-2.207031v-317.285157c0-1.144531.492187-2.234374 1.347656-2.992187 14.222657-12.613281 32.519531-19.554687 51.515625-19.554687 42.839844 0 77.691406 34.855468 77.691406 77.695312v.324219c18.777344 14.839843 29.507813 36.9375 29.507813 60.953125 0 3.105468-.191406 6.242187-.566406 9.355468 13.988281 12.707032 21.964843 30.632813 21.964843 49.535157 0 13.1875-3.839843 25.898437-11.125 36.886719 1.574219 6.238281 2.371094 12.632812 2.371094 19.035156 0 24.515625-11.6875 47.699218-31.351562 62.339844-7.824219 35.335937-39.46875 60.820312-75.847656 60.820312zm-57.507813-38.332031c13.039063 19.019531 34.445313 30.332031 57.507813 30.332031 33.105468 0 61.84375-23.527344 68.328124-55.941406.203126-.996094.773438-1.878906 1.601563-2.46875 18.328125-13.078125 29.269531-34.292969 29.269531-56.753906 0-6.300782-.863281-12.59375-2.558594-18.707032-.324218-1.15625-.109374-2.390625.582032-3.371094 7.019531-9.984374 10.730468-21.6875 10.730468-33.847656 0-17.285156-7.585937-33.648437-20.804687-44.894531-1.050781-.894531-1.570313-2.273437-1.363281-3.636719.507812-3.433594.769531-6.917968.769531-10.355468 0-22.167969-10.191406-42.515626-27.960937-55.820313-1.042969-.78125-1.640626-2.019531-1.601563-3.320313l.023437-.59375c.015626-.515624.035157-1.027343.035157-1.542968 0-38.429688-31.265625-69.695313-69.695313-69.695313-16.445312 0-32.304687 5.804688-44.859375 16.378907v314.238281zm0 0"/><path d="m273.921875 296.320312c-1.027344 0-2.050781-.390624-2.828125-1.171874-1.5625-1.5625-1.5625-4.09375 0-5.65625 11.941406-11.945313 27.816406-18.519532 44.707031-18.519532 4.523438 0 9.042969.480469 13.417969 1.425782 2.160156.46875 3.535156 2.597656 3.066406 4.757812s-2.589844 3.523438-4.753906 3.0625c-3.828125-.828125-7.773438-1.246094-11.730469-1.246094-14.753906 0-28.621093 5.742188-39.054687 16.175782-.777344.78125-1.804688 1.171874-2.824219 1.171874zm0 0"/><path d="m177.457031 384.40625c-1.023437 0-2.046875-.386719-2.828125-1.171875-1.5625-1.558594-1.5625-4.09375 0-5.65625 11.941406-11.941406 27.820313-18.519531 44.710938-18.519531 4.523437 0 9.039062.480468 13.417968 1.429687 2.160157.46875 3.53125 2.597657 3.0625 4.753907-.464843 2.160156-2.589843 3.527343-4.753906 3.066406-3.824218-.828125-7.769531-1.25-11.726562-1.25-14.753906 0-28.625 5.746094-39.054688 16.175781-.777344.785156-1.804687 1.171875-2.828125 1.171875zm0 0"/><path d="m207.609375 186.988281c-.625 0-1.253906-.140625-1.84375-.449219-6.328125-3.292968-16.246094-6.4375-27.542969-2.761718-2.105468.679687-4.355468-.464844-5.039062-2.566406-.6875-2.097657.460937-4.355469 2.5625-5.039063 10.871094-3.542969 22.84375-2.378906 33.707031 3.269531 1.960937 1.019532 2.726563 3.433594 1.703125 5.394532-.707031 1.371093-2.101562 2.152343-3.546875 2.152343zm0 0"/><path d="m310.742188 444.84375c-2.207032 0-4-1.792969-4-4 0-7.972656-5.855469-17.375-14.917969-23.957031-10.21875-7.417969-22.257813-9.65625-33.023438-6.152344-2.097656.6875-4.355469-.460937-5.039062-2.5625-.6875-2.101563.460937-4.359375 2.5625-5.042969 13.230469-4.3125 27.882812-1.65625 40.199219 7.285156 11.070312 8.035157 18.21875 19.976563 18.21875 30.429688 0 2.207031-1.789063 4-4 4zm0 0"/><path d="m305.304688 332.058594c-2.207032 0-4-1.789063-4-4 0-7.96875-5.855469-17.371094-14.917969-23.953125-10.21875-7.417969-22.253907-9.652344-33.023438-6.152344-2.09375.683594-4.355469-.460937-5.042969-2.5625-.683593-2.101563.464844-4.359375 2.566407-5.042969 13.230469-4.3125 27.882812-1.65625 40.203125 7.285156 11.066406 8.035157 18.21875 19.976563 18.21875 30.425782-.003906 2.210937-1.792969 4-4.003906 4zm0 0"/></g><path d="m74.464844 40.410156h46.183594l-17.300782 56.09375h34.859375l-58.402343 88.492188 7.886718-72.292969h-35.050781zm0 0" fill="#fcc24c"/><path d="m238.53125 40.410156h46.183594l-17.300782 56.09375h34.859376l-58.402344 88.492188 7.886718-72.292969h-35.050781zm0 0" fill="#fcc24c"/><path d="m79.804688 188.996094c-.453126 0-.910157-.074219-1.355469-.234375-1.738281-.625-2.820313-2.363281-2.621094-4.199219l7.402344-67.859375h-30.589844c-1.265625 0-2.457031-.597656-3.210937-1.613281-.753907-1.019532-.984376-2.332032-.617188-3.542969l21.824219-72.292969c.507812-1.6875 2.066406-2.84375 3.828125-2.84375h46.183594c1.273437 0 2.464843.605469 3.21875 1.625.753906 1.019532.980468 2.339844.605468 3.554688l-15.703125 50.90625h29.4375c1.472657 0 2.824219.808594 3.519531 2.105468.699219 1.296876.628907 2.871094-.183593 4.101563l-58.398438 88.5c-.757812 1.144531-2.027343 1.792969-3.339843 1.792969zm-21.777344-80.289063h29.664062c1.132813 0 2.214844.480469 2.976563 1.328125.757812.847656 1.121093 1.976563 1 3.105469l-6.09375 55.855469 45.203125-68.492188h-27.429688c-1.269531 0-2.464844-.605468-3.21875-1.625-.753906-1.019531-.976562-2.339844-.601562-3.554687l15.703125-50.910157h-37.792969zm0 0" fill="#690589"/><path d="m243.871094 188.996094c-.453125 0-.910156-.074219-1.355469-.234375-1.738281-.625-2.820313-2.363281-2.621094-4.199219l7.402344-67.859375h-30.589844c-1.265625 0-2.460937-.597656-3.210937-1.613281-.753906-1.019532-.984375-2.332032-.617188-3.542969l21.824219-72.292969c.511719-1.6875 2.066406-2.84375 3.832031-2.84375h46.183594c1.269531 0 2.464844.605469 3.21875 1.625.753906 1.019532.976562 2.339844.601562 3.554688l-15.703124 50.90625h29.4375c1.472656 0 2.828124.808594 3.523437 2.105468.695313 1.296876.625 2.871094-.183594 4.101563l-58.402343 88.496094c-.757813 1.148437-2.027344 1.796875-3.339844 1.796875zm-21.777344-80.289063h29.664062c1.132813 0 2.214844.480469 2.976563 1.328125.757813.847656 1.121094 1.976563 1 3.105469l-6.09375 55.855469 45.203125-68.492188h-27.429688c-1.269531 0-2.460937-.605468-3.214843-1.625-.753907-1.019531-.980469-2.339844-.605469-3.554687l15.703125-50.910157h-37.792969zm0 0" fill="#690589"/><path d="m151.902344 4h46.1875l-17.300782 56.089844h34.855469l-58.402343 88.496094 7.886718-72.292969h-35.050781zm0 0" fill="#fcc24c"/><path d="m157.242188 152.585938c-.449219 0-.90625-.074219-1.355469-.234376-1.738281-.628906-2.820313-2.363281-2.617188-4.199218l7.402344-67.859375h-30.589844c-1.265625 0-2.457031-.601563-3.210937-1.617188s-.984375-2.328125-.617188-3.542969l21.824219-72.289062c.507813-1.6875 2.0625-2.84375 3.824219-2.84375h46.1875c1.269531 0 2.460937.605469 3.214844 1.625.753906 1.019531.980468 2.339844.605468 3.554688l-15.703125 50.910156h29.4375c1.472657 0 2.824219.804687 3.519531 2.101562.699219 1.296875.628907 2.871094-.183593 4.101563l-58.402344 88.496093c-.753906 1.148438-2.019531 1.796876-3.335937 1.796876zm-21.777344-80.292969h29.664062c1.136719 0 2.21875.480469 2.980469 1.328125.757813.847656 1.121094 1.976562 1 3.105468l-6.09375 55.855469 45.199219-68.492187h-27.425782c-1.269531 0-2.464843-.605469-3.21875-1.625-.753906-1.019532-.976562-2.339844-.601562-3.554688l15.703125-50.910156h-37.796875zm0 0" fill="#690589"/></svg>