<svg height="504pt" viewBox="-33 0 503 504" width="504pt" xmlns="http://www.w3.org/2000/svg"><path d="m48.15625 153.554688v196.890624l170.511719 98.441407 170.507812-98.441407v-196.890624l-170.507812-98.441407zm0 0" fill="#fcc24c"/><path d="m368.996094 141.90625v220.1875l20.179687-11.648438v-196.890624zm0 0" fill="#dea42e"/><path d="m68.339844 141.90625v220.1875l-20.183594-11.648438v-196.890624zm0 0" fill="#fce06a"/><path d="m88.9375 177.101562v149.796876l129.730469 74.902343 129.730469-74.902343v-149.796876l-129.730469-74.902343zm0 0" fill="#f4efed"/><g fill="#690589"><path d="m218.667969 452.886719c-.691407 0-1.378907-.179688-2-.535157l-170.507813-98.445312c-1.238281-.714844-2-2.035156-2-3.464844v-196.886718c0-1.425782.761719-2.75 2-3.460938l170.507813-98.445312c1.238281-.714844 2.761719-.714844 4 0l170.507812 98.445312c1.238281.710938 2 2.035156 2 3.460938v196.886718c0 1.429688-.761719 2.75-2 3.464844l-170.507812 98.445312c-.621094.355469-1.308594.535157-2 .535157zm-166.511719-104.753907 166.507812 96.136719 166.511719-96.136719v-192.265624l-166.511719-96.136719-166.507812 96.136719zm0 0"/><path d="m64.300781 229.167969c-2.207031 0-4-1.792969-4-4v-24c0-2.207031 1.792969-4 4-4 2.210938 0 4 1.792969 4 4v24c0 2.210937-1.789062 4-4 4zm0 0"/><path d="m218.667969 405.800781c-.691407 0-1.378907-.179687-2-.535156l-129.730469-74.902344c-1.238281-.714843-2-2.035156-2-3.464843v-149.796876c0-1.429687.761719-2.75 2-3.464843l129.730469-74.902344c1.238281-.710937 2.761719-.710937 4 0l129.730469 74.902344c1.238281.714843 2 2.035156 2 3.464843v149.796876c0 1.429687-.761719 2.75-2 3.464843l-129.730469 74.902344c-.621094.355469-1.308594.535156-2 .535156zm-125.730469-81.210937 125.730469 72.589844 125.730469-72.589844v-145.179688l-125.730469-72.589844-125.730469 72.589844zm0 0"/><path d="m219.09375 59.113281c-2.207031 0-4-1.792969-4-4v-51.113281c0-2.207031 1.792969-4 4-4s4 1.792969 4 4v51.113281c0 2.207031-1.792969 4-4 4zm0 0"/><path d="m219.09375 504c-2.207031 0-4-1.792969-4-4v-51.113281c0-2.207031 1.792969-4 4-4s4 1.792969 4 4v51.113281c0 2.207031-1.792969 4-4 4zm0 0"/><path d="m389.464844 157.308594c-1.382813 0-2.722656-.714844-3.464844-1.996094-1.109375-1.910156-.457031-4.355469 1.457031-5.464844l44.226563-25.621094c1.917968-1.109374 4.359375-.457031 5.464844 1.457032 1.109374 1.910156.457031 4.355468-1.453126 5.464844l-44.230468 25.621093c-.632813.367188-1.324219.539063-2 .539063zm0 0"/><path d="m4.503906 380.3125c-1.378906 0-2.722656-.714844-3.464844-1.996094-1.1054682-1.914062-.457031-4.359375 1.457032-5.464844l44.226562-25.621093c1.910156-1.109375 4.359375-.457031 5.46875 1.457031 1.105469 1.910156.453125 4.355469-1.457031 5.464844l-44.226563 25.621094c-.632812.363281-1.324218.539062-2.003906.539062zm0 0"/><path d="m48.722656 157.308594c-.679687 0-1.367187-.171875-2-.539063l-44.226562-25.621093c-1.914063-1.105469-2.5625002-3.550782-1.457032-5.464844 1.109376-1.910156 3.558594-2.5625 5.46875-1.457032l44.226563 25.625c1.910156 1.105469 2.5625 3.550782 1.457031 5.464844-.742187 1.277344-2.085937 1.992188-3.46875 1.992188zm0 0"/><path d="m433.683594 380.3125c-.679688 0-1.371094-.175781-2-.539062l-44.230469-25.621094c-1.910156-1.109375-2.5625-3.554688-1.457031-5.464844 1.109375-1.910156 3.550781-2.566406 5.46875-1.457031l44.226562 25.621093c1.910156 1.105469 2.5625 3.550782 1.457032 5.464844-.742188 1.28125-2.085938 1.996094-3.464844 1.996094zm0 0"/></g><path d="m223.792969 29.121094c-14.351563-2.597656-28.09375 6.929687-30.691407 21.28125-2.601562 14.351562 6.925782 28.09375 21.277344 30.691406 14.351563 2.597656 28.09375-6.929688 30.691406-21.28125 2.601563-14.351562-6.925781-28.089844-21.277343-30.691406zm0 0" fill="#7bac51"/><path d="m242.390625 436.460938c-6.867187-12.867188-22.867187-17.730469-35.734375-10.859376-12.863281 6.867188-17.726562 22.863282-10.859375 35.730469 6.867187 12.867188 22.867187 17.730469 35.730469 10.863281 12.867187-6.867187 17.730468-22.867187 10.863281-35.734374zm0 0" fill="#7bac51"/><path d="m74.566406 351.472656c0 14.585938-11.824218 26.40625-26.410156 26.40625s-26.410156-11.824218-26.410156-26.40625c0-14.585937 11.824218-26.410156 26.410156-26.410156s26.410156 11.824219 26.410156 26.410156zm0 0" fill="#99ca6f"/><path d="m74.566406 154.148438c0 14.585937-11.824218 26.410156-26.410156 26.410156s-26.410156-11.824219-26.410156-26.410156c0-14.585938 11.824218-26.410157 26.410156-26.410157s26.410156 11.824219 26.410156 26.410157zm0 0" fill="#99ca6f"/><path d="m415.585938 351.472656c0 14.585938-11.824219 26.40625-26.40625 26.40625-14.585938 0-26.410157-11.824218-26.410157-26.40625 0-14.585937 11.824219-26.410156 26.410157-26.410156 14.582031 0 26.40625 11.824219 26.40625 26.410156zm0 0" fill="#5d8e33"/><path d="m415.585938 154.148438c0 14.585937-11.824219 26.410156-26.40625 26.410156-14.585938 0-26.410157-11.824219-26.410157-26.410156 0-14.585938 11.824219-26.410157 26.410157-26.410157 14.582031 0 26.40625 11.824219 26.40625 26.410157zm0 0" fill="#5d8e33"/><path d="m219.09375 85.523438c-16.769531 0-30.410156-13.644532-30.410156-30.410157 0-16.769531 13.640625-30.410156 30.410156-30.410156s30.40625 13.644531 30.40625 30.410156c0 16.769531-13.636719 30.410157-30.40625 30.410157zm0-52.820313c-12.355469 0-22.410156 10.054687-22.410156 22.410156 0 12.359375 10.054687 22.410157 22.410156 22.410157s22.40625-10.054688 22.40625-22.410157c0-12.359375-10.050781-22.410156-22.40625-22.410156zm0 0" fill="#690589"/><path d="m219.09375 479.296875c-16.769531 0-30.410156-13.644531-30.410156-30.410156 0-16.769531 13.640625-30.410157 30.410156-30.410157s30.40625 13.640626 30.40625 30.410157c0 16.765625-13.636719 30.410156-30.40625 30.410156zm0-52.820313c-12.355469 0-22.410156 10.054688-22.410156 22.410157 0 12.359375 10.050781 22.410156 22.410156 22.410156 12.355469 0 22.40625-10.050781 22.40625-22.410156 0-12.355469-10.050781-22.410157-22.40625-22.410157zm0 0" fill="#690589"/><path d="m48.15625 381.878906c-16.765625 0-30.410156-13.640625-30.410156-30.40625 0-16.769531 13.644531-30.410156 30.410156-30.410156 16.769531 0 30.410156 13.640625 30.410156 30.410156 0 16.765625-13.640625 30.40625-30.410156 30.40625zm0-52.816406c-12.355469 0-22.410156 10.050781-22.410156 22.410156 0 12.355469 10.054687 22.40625 22.410156 22.40625 12.359375 0 22.410156-10.050781 22.410156-22.40625 0-12.355468-10.050781-22.410156-22.410156-22.410156zm0 0" fill="#690589"/><path d="m48.15625 184.558594c-16.765625 0-30.410156-13.640625-30.410156-30.410156 0-16.765626 13.644531-30.410157 30.410156-30.410157 16.769531 0 30.410156 13.644531 30.410156 30.410157 0 16.769531-13.640625 30.410156-30.410156 30.410156zm0-52.816406c-12.355469 0-22.410156 10.050781-22.410156 22.410156 0 12.355468 10.054687 22.40625 22.410156 22.40625 12.359375 0 22.410156-10.050782 22.410156-22.40625 0-12.359375-10.050781-22.410156-22.410156-22.410156zm0 0" fill="#690589"/><path d="m389.175781 381.878906c-16.769531 0-30.40625-13.640625-30.40625-30.40625 0-16.769531 13.636719-30.410156 30.40625-30.410156s30.40625 13.640625 30.40625 30.410156c0 16.765625-13.636719 30.40625-30.40625 30.40625zm0-52.816406c-12.355469 0-22.40625 10.050781-22.40625 22.410156 0 12.355469 10.050781 22.40625 22.40625 22.40625s22.40625-10.050781 22.40625-22.40625c0-12.355468-10.050781-22.410156-22.40625-22.410156zm0 0" fill="#690589"/><path d="m389.175781 184.558594c-16.769531 0-30.40625-13.640625-30.40625-30.410156 0-16.765626 13.636719-30.410157 30.40625-30.410157s30.40625 13.644531 30.40625 30.410157c0 16.769531-13.636719 30.410156-30.40625 30.410156zm0-52.816406c-12.355469 0-22.40625 10.050781-22.40625 22.410156 0 12.355468 10.050781 22.40625 22.40625 22.40625s22.40625-10.050782 22.40625-22.40625c0-12.359375-10.050781-22.410156-22.40625-22.410156zm0 0" fill="#690589"/><path d="m296.617188 275.996094c0-34.890625-34.203126-63.175782-76.398438-63.175782-42.191406 0-76.398438 28.285157-76.398438 63.175782s34.207032 63.175781 76.398438 63.175781c42.195312 0 76.398438-28.285156 76.398438-63.175781zm0 0" fill="#ff4397"/><path d="m220.21875 212.824219c-1.984375 0-3.941406.082031-5.890625.207031 39.4375 2.488281 70.507813 29.714844 70.507813 62.964844s-31.070313 60.480468-70.507813 62.96875c1.945313.125 3.90625.207031 5.890625.207031 42.195312 0 76.398438-28.285156 76.398438-63.171875 0-34.890625-34.203126-63.175781-76.398438-63.175781zm0 0" fill="#e12579"/><path d="m220.21875 212.824219c1.984375 0 3.945312.082031 5.894531.207031-39.4375 2.488281-70.507812 29.714844-70.507812 62.964844s31.070312 60.480468 70.507812 62.96875c-1.949219.125-3.90625.207031-5.894531.207031-42.191406 0-76.398438-28.285156-76.398438-63.171875 0-34.890625 34.207032-63.175781 76.398438-63.175781zm0 0" fill="#ff61b5"/><path d="m220.21875 343.171875c-44.332031 0-80.398438-30.136719-80.398438-67.175781 0-37.039063 36.066407-67.171875 80.398438-67.171875s80.398438 30.132812 80.398438 67.171875c0 37.039062-36.066407 67.175781-80.398438 67.175781zm0-126.347656c-39.917969 0-72.398438 26.542969-72.398438 59.171875s32.480469 59.175781 72.398438 59.175781c39.921875 0 72.398438-26.546875 72.398438-59.175781s-32.476563-59.171875-72.398438-59.171875zm0 0" fill="#690589"/><path d="m234.808594 238.589844c0-13.578125-11.007813-24.585938-24.585938-24.585938 13.578125 0 24.585938-11.011718 24.585938-24.589844 0-13.574218-11.007813-24.585937-24.585938-24.585937l-2.441406.46875c-38.8125 7.433594-75.253906 24.144531-106.214844 48.707031 30.960938 24.558594 67.402344 41.269532 106.214844 48.703125l2.441406.46875c13.578125 0 24.585938-11.011719 24.585938-24.585937zm0 0" fill="#7bac51"/><path d="m210.222656 214.003906c13.578125 0 24.585938-11.011718 24.585938-24.589844 0-13.574218-11.007813-24.585937-24.585938-24.585937l-2.441406.46875c-.835938.160156-1.664062.347656-2.496094.519531 10.242188 2.964844 17.742188 12.398438 17.742188 23.597656 0 7.355469-3.230469 13.957032-8.347656 18.460938-3.746094 3.296875-3.746094 8.953125 0 12.25 5.117187 4.507812 8.347656 11.105469 8.347656 18.460938 0 11.203124-7.5 20.632812-17.742188 23.601562.832032.167969 1.660156.355469 2.496094.515625l2.441406.46875c13.578125 0 24.585938-11.007813 24.585938-24.585937 0-13.574219-11.007813-24.582032-24.585938-24.582032zm0 0" fill="#5d8e33"/><path d="m210.222656 267.175781c-.253906 0-.503906-.027343-.753906-.074219l-2.4375-.46875c-39.285156-7.519531-76.613281-24.640624-107.949219-49.5-.957031-.757812-1.515625-1.914062-1.515625-3.132812s.558594-2.375 1.515625-3.132812c31.335938-24.859376 68.664063-41.976563 107.949219-49.5l2.4375-.46875c.246094-.046876.5-.074219.75-.074219 15.761719 0 28.585938 12.824219 28.585938 28.585937 0 10.445313-5.625 19.601563-14.011719 24.585938 8.382812 4.988281 14.011719 14.144531 14.011719 24.589844.003906 15.765624-12.820313 28.589843-28.582032 28.589843zm-102.128906-53.171875c29.476562 22.367188 64.09375 37.8125 100.441406 44.773438l2.050782.394531c11.1875-.195313 20.222656-9.355469 20.222656-20.582031 0-11.355469-9.234375-20.585938-20.585938-20.585938-2.207031 0-4-1.792968-4-4 0-2.210937 1.792969-4 4-4 11.351563 0 20.585938-9.234375 20.585938-20.589844 0-11.226562-9.039063-20.386718-20.222656-20.582031l-2.050782.394531c-36.347656 6.960938-70.964844 22.40625-100.441406 44.777344zm0 0" fill="#690589"/><path d="m191.394531 218.003906h-47.464843c-2.207032 0-4-1.792968-4-4 0-2.210937 1.792968-4 4-4h47.464843c2.210938 0 4 1.789063 4 4 0 2.207032-1.789062 4-4 4zm0 0" fill="#690589"/></svg>