<svg height="504pt" viewBox="0 -13 504.003 504" width="504pt" xmlns="http://www.w3.org/2000/svg"><path d="m233.613281 104.125h-173.585937c-10.488282 0-18.992188-8.503906-18.992188-18.992188v-62.140624c0-10.488282 8.503906-18.992188 18.992188-18.992188h173.585937c10.488281 0 18.992188 8.503906 18.992188 18.992188v62.140624c0 10.488282-8.503907 18.992188-18.992188 18.992188zm0 0" fill="#7bac51"/><path d="m242.160156 149.351562h-22.296875v-45.226562h-146.085937v45.226562h-22.300782c-26.21875 0-47.476562 21.257813-47.476562 47.480469v259.164063c0 10.488281 8.503906 18.992187 18.992188 18.992187h247.65625c10.488281 0 18.992187-8.5 18.992187-18.992187v-259.164063c0-26.222656-21.257813-47.480469-47.480469-47.480469zm0 0" fill="#f4efed"/><path d="m233.613281 4h-18.992187c10.488281 0 18.992187 8.503906 18.992187 18.992188v62.140624c0 10.488282-8.503906 18.992188-18.992187 18.992188h18.992187c10.488281 0 18.992188-8.503906 18.992188-18.992188v-62.140624c0-10.488282-8.503907-18.992188-18.992188-18.992188zm0 0" fill="#5d8e33"/><path d="m60.027344 104.125h18.992187c-10.488281 0-18.992187-8.503906-18.992187-18.992188v-62.140624c0-10.488282 8.503906-18.992188 18.992187-18.992188h-18.992187c-10.488282 0-18.992188 8.503906-18.992188 18.992188v62.140624c.003906 10.488282 8.503906 18.992188 18.992188 18.992188zm0 0" fill="#99ca6f"/><path d="m219.863281 149.351562v-45.226562h-18.992187v32c0 7.304688 5.921875 13.226562 13.230468 13.226562zm0 0" fill="#d6d1cf"/><path d="m242.160156 149.351562h-18.988281c26.21875 0 47.476563 21.257813 47.476563 47.476563v259.167969c0 10.488281-8.503907 18.992187-18.992188 18.992187h18.992188c10.488281 0 18.992187-8.503906 18.992187-18.992187v-259.164063c0-26.222656-21.257813-47.480469-47.480469-47.480469zm0 0" fill="#d6d1cf"/><path d="m73.777344 149.351562v-45.226562h18.992187v32c0 7.304688-5.921875 13.226562-13.226562 13.226562zm0 0" fill="#fff"/><path d="m51.476562 149.351562h18.992188c-26.222656 0-47.476562 21.257813-47.476562 47.476563v259.167969c0 10.488281 8.5 18.992187 18.992187 18.992187h-18.992187c-10.488282 0-18.992188-8.503906-18.992188-18.992187v-259.164063c0-26.222656 21.257812-47.480469 47.476562-47.480469zm0 0" fill="#fff"/><path d="m4 211.871094h285.640625v195.875h-285.640625zm0 0" fill="#fcc24c"/><path d="m4 211.871094h18.992188v195.875h-18.992188zm0 0" fill="#fce06a"/><path d="m140.910156 301.078125-64.011718 64.011719c-12.855469 12.859375-33.699219 12.859375-46.554688 0-12.855469-12.855469-12.855469-33.699219 0-46.554688l64.015625-64.011718c12.855469-12.859376 33.699219-12.859376 46.554687 0 12.855469 12.855468 12.855469 33.699218-.003906 46.554687zm0 0" fill="#f4efed"/><path d="m140.910156 301.078125c12.859375-12.855469 12.859375-33.699219 0-46.554687-12.855468-12.855469-33.699218-12.855469-46.554687 0l-32.003907 32.007812 46.554688 46.554688zm0 0" fill="#ff4397"/><g fill="#690589"><path d="m233.613281 108.125h-173.585937c-12.675782 0-22.992188-10.316406-22.992188-22.992188v-62.140624c0-12.675782 10.316406-22.992188 22.992188-22.992188h173.585937c12.675781 0 22.992188 10.316406 22.992188 22.992188v62.140624c0 12.675782-10.316407 22.992188-22.992188 22.992188zm-173.585937-100.125c-8.265625 0-14.992188 6.726562-14.992188 14.992188v62.140624c0 8.265626 6.726563 14.992188 14.992188 14.992188h173.585937c8.265625 0 14.992188-6.726562 14.992188-14.992188v-62.140624c0-8.265626-6.726563-14.992188-14.992188-14.992188zm0 0"/><path d="m270.648438 478.988281h-247.65625c-12.679688 0-22.992188-10.3125-22.992188-22.992187v-259.167969c0-28.382813 23.09375-51.476563 51.476562-51.476563h18.300782v-41.226562c0-2.210938 1.789062-4 4-4h146.085937c2.207031 0 4 1.789062 4 4v41.226562h18.296875c28.386719 0 51.476563 23.09375 51.476563 51.476563v259.167969c.003906 12.679687-10.308594 22.992187-22.988281 22.992187zm-219.171876-325.636719c-23.972656 0-43.476562 19.503907-43.476562 43.476563v259.167969c0 8.265625 6.722656 14.992187 14.992188 14.992187h247.65625c8.265624 0 14.992187-6.726562 14.992187-14.992187v-259.167969c0-23.972656-19.503906-43.476563-43.476563-43.476563h-22.296874c-2.210938 0-4-1.792968-4-4v-41.226562h-138.089844v41.226562c0 2.207032-1.792969 4-4 4zm0 0"/><path d="m108.90625 337.082031c-1.058594 0-2.078125-.421875-2.828125-1.171875l-46.554687-46.550781c-.75-.75-1.171876-1.769531-1.171876-2.828125 0-1.0625.421876-2.078125 1.171876-2.828125l32.007812-32.007813c14.394531-14.394531 37.816406-14.394531 52.207031 0 6.976563 6.972657 10.816407 16.246094 10.816407 26.105469 0 9.863281-3.839844 19.132813-10.816407 26.105469l-32.003906 32.007812c-.75.746094-1.769531 1.167969-2.828125 1.167969zm-40.898438-50.550781 40.898438 40.894531 29.179688-29.175781c5.460937-5.460938 8.46875-12.722656 8.46875-20.449219 0-7.726562-3.007813-14.988281-8.46875-20.453125-11.277344-11.273437-29.625-11.273437-40.898438 0zm0 0"/><path d="m53.621094 378.714844c-9.453125 0-18.90625-3.597656-26.105469-10.796875-6.972656-6.96875-10.8125-16.242188-10.8125-26.105469 0-9.859375 3.839844-19.132812 10.8125-26.105469l64.015625-64.011719c6.972656-6.972656 16.242188-10.8125 26.105469-10.8125 9.859375 0 19.132812 3.839844 26.105469 10.8125 6.972656 6.972657 10.8125 16.246094 10.8125 26.105469 0 9.863281-3.839844 19.132813-10.8125 26.105469l-64.011719 64.015625c-7.199219 7.195313-16.65625 10.792969-26.109375 10.792969zm64.011718-129.832032c-7.722656 0-14.988281 3.007813-20.449218 8.46875l-64.011719 64.015626c-5.464844 5.460937-8.472656 12.722656-8.472656 20.449218 0 7.726563 3.007812 14.988282 8.472656 20.449219 11.277344 11.277344 29.621094 11.273437 40.898437 0l64.011719-64.015625c5.460938-5.460938 8.46875-12.722656 8.46875-20.449219 0-7.726562-3.007812-14.988281-8.46875-20.449219-5.460937-5.460937-12.722656-8.46875-20.449219-8.46875zm0 0"/><path d="m289.640625 411.746094h-285.640625c-2.207031 0-4-1.792969-4-4v-195.875c0-2.210938 1.792969-4 4-4h285.640625c2.207031 0 4 1.789062 4 4v195.875c0 2.207031-1.789063 4-4 4zm-281.640625-8h277.640625v-187.875h-277.640625zm0 0"/><path d="m19.195312 264.160156c-2.210937 0-4-1.789062-4-4v-22.789062c0-2.207032 1.789063-4 4-4 2.207032 0 4 1.792968 4 4v22.789062c0 2.210938-1.792968 4-4 4zm0 0"/><path d="m71.367188 87.246094c-2.207032 0-4-1.789063-4-4v-54.519532c0-2.207031 1.792968-4 4-4 2.207031 0 4 1.792969 4 4v54.519532c0 2.210937-1.792969 4-4 4zm0 0"/><path d="m109.09375 87.246094c-2.207031 0-4-1.789063-4-4v-54.519532c0-2.207031 1.792969-4 4-4s4 1.792969 4 4v54.519532c0 2.210937-1.792969 4-4 4zm0 0"/><path d="m146.820312 87.246094c-2.207031 0-4-1.789063-4-4v-54.519532c0-2.207031 1.792969-4 4-4 2.207032 0 4 1.792969 4 4v54.519532c0 2.210937-1.789062 4-4 4zm0 0"/><path d="m184.546875 87.246094c-2.207031 0-4-1.789063-4-4v-54.519532c0-2.207031 1.792969-4 4-4s4 1.792969 4 4v54.519532c0 2.210937-1.789063 4-4 4zm0 0"/><path d="m222.273438 87.246094c-2.207032 0-4-1.789063-4-4v-54.519532c0-2.207031 1.792968-4 4-4 2.207031 0 4 1.792969 4 4v54.519532c0 2.210937-1.789063 4-4 4zm0 0"/></g><path d="m410.910156 371.992188c39.679688-6.117188 72.789063-21.21875 89.089844-38.585938-20.777344-11.648438-56.898438-16.078125-96.574219-9.960938-4.28125.660157-8.464843 1.445313-12.578125 2.304688 9.621094-7.386719 19.210938-15.757812 28.511719-25.054688 35.582031-35.582031 57.867187-75.386718 61.484375-105.027343-29.636719 3.617187-69.441406 25.902343-105.023438 61.484375-12.242187 12.242187-22.863281 24.980468-31.738281 37.636718 6.066407-24.589843 9.515625-52.78125 9.515625-82.753906 0-64.171875-15.800781-120.160156-39.261718-150.144531-23.464844 29.984375-39.261719 85.972656-39.261719 150.144531 0 29.976563 3.453125 58.164063 9.515625 82.753906-8.875-12.65625-19.496094-25.394531-31.738282-37.636718-35.582031-35.582032-75.386718-57.867188-105.023437-61.484375 3.617187 29.636719 25.902344 69.445312 61.484375 105.027343 9.304688 9.300782 18.894531 17.667969 28.515625 25.054688-4.113281-.859375-8.300781-1.644531-12.578125-2.304688-39.675781-6.117187-75.796875-1.6875-96.574219 9.960938 16.300781 17.367188 49.414063 32.46875 89.089844 38.585938 18.128906 2.796874 35.5 3.367187 51.023437 2.074218-3.902343 2.332032-7.816406 4.925782-11.691406 7.765625-20.535156 15.046875-34.742187 33.226563-38.832031 47.761719 15.09375.476562 36.710937-7.59375 57.242187-22.640625 18.945313-13.882813 32.484376-30.429687 37.683594-44.328125.304688-.164062.632813-.316406.933594-.480469.070312.007813.144531.023438.214844.03125.066406-.007812.140625-.023437.210937-.03125.300781.164063.628907.316407.933594.480469 5.199219 13.898438 18.742187 30.445312 37.6875 44.328125 20.53125 15.046875 42.144531 23.117187 57.238281 22.640625-4.089844-14.535156-18.300781-32.714844-38.832031-47.761719-3.875-2.839843-7.789063-5.429687-11.691406-7.765625 15.523437 1.292969 32.890625.722656 51.023437-2.074218zm0 0" fill="#7bac51"/><path d="m165.0625 199.511719c4.972656 29.179687 26.839844 67.113281 60.910156 101.183593 6.121094 6.121094 12.367188 11.835938 18.664063 17.136719 2.507812 2.109375.636719 6.136719-2.601563 5.632813-.042968-.003906-.085937-.011719-.128906-.019532-2.824219-.4375-5.621094-.800781-8.40625-1.132812-8.164062-6.527344-16.28125-13.714844-24.1875-21.617188-35.582031-35.582031-57.867188-75.386718-61.484375-105.027343 5.433594.664062 11.207031 1.960937 17.234375 3.84375zm0 0" fill="#99ca6f"/><path d="m198.574219 320.882812c-21.742188.90625-40.421875 5.332032-53.246094 12.523438 16.304687 17.367188 49.414063 32.46875 89.089844 38.585938 8.953125 1.382812 17.714843 2.214843 26.167969 2.554687-13.347657.53125-27.816407-.238281-42.824219-2.554687-39.675781-6.117188-72.785157-21.21875-89.089844-38.585938 15.996094-8.96875 41.101563-13.632812 69.902344-12.523438zm0 0" fill="#99ca6f"/><path d="m257.09375 381.828125c3.527344-2.582031 7.085938-4.949219 10.640625-7.113281 1.277344.007812 2.542969.003906 3.804687-.007813 3.8125-.042969 5.410157 4.785157 2.328126 7.039063-.039063.027344-.078126.054687-.113282.085937-19.390625 14.210938-33.132812 31.210938-38.046875 45.304688-6.371093 1.765625-12.292969 2.621093-17.445312 2.457031 4.09375-14.539062 18.300781-32.71875 38.832031-47.765625zm0 0" fill="#99ca6f"/><path d="m284.59375 294.789062c8.410156 0 14.765625-7.636718 13.199219-15.902343-3.902344-20.570313-6.058594-43.152344-6.058594-66.851563 0 0-1.382813-103.761718 22.605469-150.144531-23.464844 29.984375-39.261719 85.972656-39.261719 150.144531 0 19.332032 1.453125 37.90625 4.101563 55.265625zm0 0" fill="#99ca6f"/><path d="m463.613281 199.511719c-4.976562 29.179687-26.839843 67.113281-60.910156 101.183593-6.125 6.121094-12.367187 11.835938-18.667969 17.136719-2.507812 2.109375-.636718 6.136719 2.601563 5.632813.042969-.003906.085937-.011719.128906-.019532 2.824219-.4375 5.621094-.800781 8.40625-1.132812 8.164063-6.527344 16.28125-13.714844 24.1875-21.617188 35.582031-35.582031 57.867187-75.386718 61.484375-105.027343-5.429688.664062-11.207031 1.960937-17.230469 3.84375zm0 0" fill="#5d8e33"/><path d="m430.101562 320.882812c21.742188.90625 40.417969 5.332032 53.242188 12.523438-16.300781 17.367188-49.410156 32.46875-89.085938 38.585938-8.957031 1.382812-17.71875 2.214843-26.167968 2.554687 13.347656.53125 27.8125-.238281 42.820312-2.554687 39.679688-6.117188 72.789063-21.21875 89.089844-38.585938-15.992188-8.96875-41.097656-13.632812-69.898438-12.523438zm0 0" fill="#5d8e33"/><path d="m371.578125 381.828125c-3.527344-2.582031-7.085937-4.949219-10.636719-7.113281-1.277344.007812-2.546875.003906-3.804687-.007813-3.816407-.042969-5.410157 4.785157-2.332031 7.039063.039062.027344.078124.054687.117187.085937 19.390625 14.210938 33.128906 31.210938 38.046875 45.304688 6.371094 1.765625 12.292969 2.621093 17.441406 2.457031-4.089844-14.539062-18.300781-32.71875-38.832031-47.765625zm0 0" fill="#5d8e33"/><path d="m344.082031 294.789062c-8.410156 0-14.765625-7.636718-13.199219-15.902343 3.898438-20.570313 6.054688-43.152344 6.054688-66.851563 0 0 1.382812-103.761718-22.601562-150.144531 23.464843 29.984375 39.261718 85.972656 39.261718 150.144531 0 19.332032-1.453125 37.90625-4.101562 55.265625zm0 0" fill="#5d8e33"/><path d="m301.894531 478.988281c-2.207031 0-4-1.789062-4-4 0-2.207031 1.792969-4 4-4 4.65625 0 8.445313-3.785156 8.445313-8.441406v-100.511719c0-2.210937 1.789062-4 4-4 2.207031 0 4 1.789063 4 4v100.511719c-.003906 9.066406-7.378906 16.441406-16.445313 16.441406zm0 0" fill="#690589"/><path d="m409.101562 433.617188c-16.511718 0-38.160156-8.683594-58.296874-23.4375-16.402344-12.019532-29.609376-26.679688-36.464844-40.261719-6.863282 13.582031-20.066406 28.238281-36.46875 40.261719-20.722656 15.1875-43.039063 23.929687-59.734375 23.414062-1.230469-.039062-2.375-.640625-3.101563-1.632812-.726562-.992188-.957031-2.265626-.625-3.449219 4.511719-16.019531 19.519532-34.621094 40.15625-49.789063-12.117187.105469-24.632812-.804687-37.414062-2.777344-39.554688-6.097656-73.722656-20.976562-91.394532-39.804687-.84375-.894531-1.222656-2.128906-1.039062-3.34375.1875-1.21875.925781-2.28125 2-2.882813 22.039062-12.351562 58-16.351562 96.59375-10.800781-5.769531-4.949219-11.398438-10.164062-16.828125-15.589843-34.789063-34.792969-58.789063-75.9375-62.625-107.371094-.148437-1.21875.273437-2.441406 1.144531-3.3125.867188-.867188 2.085938-1.289063 3.308594-1.140625 31.433594 3.835937 72.578125 27.835937 107.371094 62.625 7.574218 7.574219 14.667968 15.464843 21.207031 23.582031-3.820313-20.828125-5.8125-43.265625-5.8125-65.871094 0-62.515625 15.371094-120.992187 40.109375-152.609375 1.519531-1.9375 4.785156-1.9375 6.300781 0 24.742188 31.621094 40.109375 90.09375 40.109375 152.609375 0 22.605469-1.992187 45.046875-5.8125 65.875 6.539063-8.121094 13.636719-16.011718 21.207032-23.582031 34.792968-34.792969 75.933593-58.789063 107.371093-62.625 1.210938-.152344 2.441407.269531 3.3125 1.140625.867188.871094 1.289063 2.089844 1.140625 3.3125-3.835937 31.433594-27.835937 72.574219-62.625 107.367188-5.429687 5.429687-11.058594 10.640624-16.828125 15.59375 38.597657-5.546876 74.558594-1.554688 96.59375 10.800781 1.074219.601562 1.8125 1.664062 2 2.878906s-.195312 2.449219-1.039062 3.347656c-17.671875 18.824219-51.839844 33.703125-91.394531 39.804688-12.78125 1.96875-25.316407 2.878906-37.414063 2.777343 20.640625 15.164063 35.648437 33.765626 40.15625 49.785157.332031 1.1875.101563 2.457031-.625 3.449219-.730469.992187-1.871094 1.59375-3.101563 1.632812-.476562.015625-.953124.023438-1.4375.023438zm-140.3125-63.550782c1.722657 0 3.269532 1.113282 3.804688 2.777344.570312 1.773438-.160156 3.703125-1.753906 4.65625-3.851563 2.304688-7.683594 4.84375-11.382813 7.558594-16.730469 12.261718-29.808593 27.246094-35.445312 40.324218 14.167969-1.4375 32.394531-9.394531 49.125-21.65625 17.601562-12.902343 31.175781-28.789062 36.304687-42.503906.339844-.910156 1.003906-1.667968 1.863282-2.128906l.875-.449219c.660156-.363281 1.40625-.53125 2.15625-.496093.742187-.039063 1.496093.128906 2.15625.496093l.875.449219c.859374.460938 1.523437 1.21875 1.863281 2.128906 5.132812 13.714844 18.703125 29.605469 36.304687 42.503906 16.730469 12.261719 34.957032 20.21875 49.125 21.65625-5.632812-13.078124-18.710937-28.0625-35.445312-40.324218-3.695313-2.710938-7.527344-5.25-11.378906-7.558594-1.597657-.953125-2.328126-2.882812-1.757813-4.65625.570313-1.769531 2.285156-2.914062 4.140625-2.761719 15.652344 1.300781 32.972656.597657 50.082031-2.042969 34.53125-5.324218 65.601563-18 82.910157-33.585937-21.199219-9.652344-54.644532-12.378906-89.175782-7.054687-3.925781.605468-7.972656 1.347656-12.367187 2.265624-1.832031.378907-3.675781-.546874-4.453125-2.246093-.78125-1.695313-.28125-3.707031 1.195312-4.84375 9.746094-7.484375 19.210938-15.796875 28.125-24.710938 31.636719-31.636719 53.984375-68.378906 59.511719-97.394531-29.019531 5.523438-65.761719 27.875-97.398437 59.511719-11.710938 11.710937-22.238282 24.195312-31.289063 37.101562-1.105469 1.574219-3.179687 2.140625-4.929687 1.34375-1.753907-.796875-2.691407-2.730469-2.230469-4.601562 6.152343-24.921875 9.402343-53.207031 9.402343-81.792969 0-58.070312-13.421874-112.289062-35.261718-143.425781-21.839844 31.136719-35.261719 85.355469-35.261719 143.425781 0 28.585938 3.25 56.871094 9.398437 81.792969.460938 1.871093-.472656 3.804687-2.226562 4.601562-1.75.796875-3.824219.230469-4.929688-1.34375-9.050781-12.90625-19.578124-25.386719-31.292968-37.101562-31.636719-31.636719-68.375-53.988281-97.394532-59.511719 5.523438 29.015625 27.875 65.757812 59.511719 97.394531 8.914063 8.914063 18.375 17.226563 28.121094 24.710938 1.480469 1.136719 1.976563 3.148437 1.199219 4.84375-.78125 1.695312-2.628906 2.625-4.453125 2.246093-4.394531-.917968-8.441407-1.660156-12.371094-2.265624-34.53125-5.324219-67.976563-2.597657-89.171875 7.054687 17.304688 15.585937 48.378906 28.261719 82.90625 33.585937 17.113281 2.636719 34.429688 3.347657 50.082031 2.042969.109375-.011719.222657-.015625.332031-.015625zm0 0" fill="#690589"/></svg>