<svg height="504pt" viewBox="-108 0 504 504.00165" width="504pt" xmlns="http://www.w3.org/2000/svg"><path d="m217.644531 238.734375c30.03125-4.628906 55.09375-16.0625 67.433594-29.207031-15.726563-8.816406-43.070313-12.167969-73.101563-7.539063-3.238281.5-6.40625 1.089844-9.523437 1.742188 7.285156-5.589844 14.542969-11.925781 21.582031-18.964844 26.9375-26.933594 43.804688-57.0625 46.542969-79.496094-22.433594 2.734375-52.566406 19.605469-79.5 46.539063-9.265625 9.265625-17.304687 18.90625-24.023437 28.488281 4.59375-18.613281 7.203124-39.953125 7.203124-62.644531 0-48.574219-11.957031-90.953125-29.71875-113.652344-17.757812 22.699219-29.714843 65.078125-29.714843 113.652344 0 22.691406 2.609375 44.03125 7.199219 62.644531-6.714844-9.578125-14.757813-19.222656-24.023438-28.488281-26.933594-26.933594-57.0625-43.800782-79.496094-46.539063 2.738282 22.433594 19.605469 52.5625 46.539063 79.5 7.039062 7.039063 14.300781 13.371094 21.585937 18.964844-3.117187-.652344-6.285156-1.246094-9.523437-1.746094-30.03125-4.628906-57.375-1.277343-73.101563 7.542969 12.339844 13.140625 37.402344 24.578125 67.433594 29.207031 13.726562 2.117188 26.875 2.546875 38.625 1.570313-2.957031 1.765625-5.917969 3.726562-8.851562 5.875-15.542969 11.386718-26.296876 25.152344-29.394532 36.15625 11.425782.359375 27.789063-5.75 43.332032-17.140625 14.339843-10.507813 24.589843-23.035157 28.523437-33.554688.234375-.121093.480469-.238281.710937-.363281.050782.007812.109376.019531.160157.027344.050781-.007813.109375-.019532.160156-.027344.226563.125.476563.242188.710937.363281 3.933594 10.519531 14.183594 23.046875 28.523438 33.554688 15.542969 11.386719 31.90625 17.5 43.332031 17.140625-3.097656-11.003906-13.855469-24.765625-29.394531-36.15625-2.933594-2.148438-5.894531-4.109375-8.851562-5.875 11.746093.976562 24.894531.542968 38.621093-1.574219zm0 0" fill="#7bac51"/><path d="m134.648438 320.003906c-2.207032 0-4-1.789062-4-4 0-2.207031 1.792968-4 4-4 3.25 0 5.890624-2.640625 5.890624-5.890625v-78.558593c0-2.210938 1.792969-4 4-4 2.210938 0 4 1.789062 4 4v78.558593c0 7.664063-6.230468 13.890625-13.890624 13.890625zm0 0" fill="#690589"/><path d="m216.277344 286.351562c-12.703125 0-29.304688-6.640624-44.707032-17.929687-11.875-8.699219-21.566406-19.230469-27.03125-29.175781-5.460937 9.945312-15.152343 20.476562-27.027343 29.175781-15.859375 11.621094-32.941407 18.332031-45.824219 17.910156-1.226562-.039062-2.371094-.640625-3.097656-1.632812-.726563-.992188-.957032-2.261719-.625-3.449219 3.296875-11.710938 13.835937-25.179688 28.421875-36.445312-8.304688-.070313-16.859375-.773438-25.558594-2.117188-30.148437-4.648438-56.222656-16.023438-69.742187-30.425781-.84375-.894531-1.226563-2.128907-1.039063-3.347657.1875-1.214843.925781-2.277343 2-2.878906 16.242187-9.105468 42.308594-12.285156 70.503906-8.726562-3.53125-3.117188-6.984375-6.363282-10.335937-9.714844-26.886719-26.886719-44.710938-57.480469-47.6875-81.84375-.144532-1.21875.273437-2.441406 1.144531-3.308594.867187-.871094 2.082031-1.289062 3.3125-1.144531 24.363281 2.972656 54.957031 20.796875 81.839844 47.683594 4.859375 4.859375 9.460937 9.890625 13.769531 15.054687-2.484375-14.78125-3.773438-30.527344-3.773438-46.382812 0-47.523438 11.710938-92.015625 30.566407-116.113282 1.515625-1.9375 4.785156-1.9375 6.300781 0 18.855469 24.097657 30.566406 68.589844 30.566406 116.113282 0 15.855468-1.289062 31.605468-3.773437 46.382812 4.304687-5.164062 8.910156-10.195312 13.769531-15.054687 26.882812-26.886719 57.476562-44.710938 81.839844-47.683594 1.226562-.152344 2.445312.273437 3.3125 1.144531.871094.867188 1.292968 2.089844 1.144531 3.308594-2.976563 24.363281-20.800781 54.960938-47.6875 81.84375-3.351563 3.355469-6.804687 6.601562-10.335937 9.714844 28.191406-3.5625 54.257812-.375 70.503906 8.726562 1.074218.601563 1.8125 1.664063 2 2.878906.1875 1.21875-.195313 2.453126-1.039063 3.347657-13.519531 14.402343-39.59375 25.777343-69.742187 30.425781-8.703125 1.34375-17.253906 2.046875-25.558594 2.117188 14.585938 11.265624 25.125 24.734374 28.421875 36.445312.332031 1.1875.105469 2.457031-.625 3.449219-.726563.992187-1.871094 1.59375-3.097656 1.632812-.363281.011719-.734375.019531-1.109375.019531zm-106.214844-50.046874c1.722656 0 3.273438 1.113281 3.804688 2.777343.570312 1.773438-.15625 3.703125-1.753907 4.65625-2.886719 1.726563-5.761719 3.632813-8.539062 5.667969-11.878907 8.703125-21.285157 19.207031-25.804688 28.566406 10.289063-1.496094 23.136719-7.300781 35.011719-16 13.179688-9.65625 23.324219-21.519531 27.144531-31.730468.339844-.910157 1.003907-1.667969 1.863281-2.125l.65625-.335938c.644532-.355469 1.375-.527344 2.09375-.496094.738282-.027344 1.457032.136719 2.097657.496094l.65625.335938c.859375.457031 1.523437 1.214843 1.863281 2.125 3.820312 10.210937 13.964844 22.074218 27.144531 31.730468 11.875 8.699219 24.722657 14.507813 35.011719 16-4.523438-9.359375-13.929688-19.863281-25.804688-28.566406-2.777343-2.035156-5.652343-3.941406-8.539062-5.667969-1.597656-.953125-2.324219-2.882812-1.753906-4.65625.566406-1.773437 2.3125-2.910156 4.136718-2.761719 11.78125.980469 24.804688.449219 37.679688-1.539062 25.222656-3.890625 47.964844-12.96875 61.121094-24.1875-15.925782-6.734375-40.347656-8.542969-65.566406-4.652344-2.964844.457032-6.007813 1.015625-9.3125 1.703125-1.824219.382813-3.671876-.550781-4.453126-2.246093-.78125-1.695313-.28125-3.703126 1.199219-4.839844 7.34375-5.640625 14.472657-11.90625 21.195313-18.621094 23.300781-23.304688 39.90625-50.25 44.492187-71.796875-21.546875 4.585937-48.488281 21.191406-71.792969 44.496094-8.824218 8.824219-16.757812 18.230469-23.578124 27.953125-1.105469 1.578125-3.171876 2.140625-4.933594 1.347656-1.75-.800781-2.6875-2.730469-2.226563-4.601562 4.636719-18.792969 7.085938-40.121094 7.085938-61.683594 0-43.058594-9.765625-83.273438-25.714844-106.851563-15.957031 23.578125-25.71875 63.789063-25.71875 106.851563 0 21.5625 2.449219 42.890625 7.085937 61.683594.460938 1.871093-.476562 3.800781-2.226562 4.601562-1.757812.792969-3.824219.230469-4.933594-1.347656-6.816406-9.71875-14.75-19.125-23.578125-27.953125-23.308593-23.304688-50.253906-39.910157-71.796875-44.496094 4.585938 21.546875 21.191406 48.492187 44.492188 71.796875 6.71875 6.714844 13.847656 12.980469 21.191406 18.621094 1.480469 1.136718 1.976562 3.144531 1.199219 4.839844-.777344 1.695312-2.628907 2.632812-4.453125 2.246093-3.300782-.6875-6.347656-1.246093-9.3125-1.703125-25.222656-3.890625-49.640625-2.082031-65.5625 4.652344 13.152344 11.21875 35.894531 20.296875 61.117187 24.1875 12.875 1.988281 25.902344 2.515625 37.679688 1.539062.109375-.011718.21875-.015624.332031-.015624zm0 0" fill="#690589"/><path d="m228.261719 347.265625h-167.445313c-12.039062 0-21.796875-9.761719-21.796875-21.796875 0-12.042969 9.757813-21.800781 21.796875-21.800781h167.445313c12.042969 0 21.800781 9.757812 21.800781 21.800781 0 12.035156-9.757812 21.796875-21.800781 21.796875zm0 0" fill="#fcc24c"/><path d="m183.644531 500h-78.207031c-13.34375 0-24.769531-9.546875-27.140625-22.679688l-23.488281-130.054687h179.464844l-23.488282 130.054687c-2.367187 13.132813-13.796875 22.679688-27.140625 22.679688zm0 0" fill="#fcc24c"/><path d="m208.59375 347.265625-23.488281 130.054687c-2.371094 13.132813-13.800781 22.679688-27.144531 22.679688h25.679687c13.34375 0 24.773437-9.546875 27.144531-22.679688l23.488282-130.054687zm0 0" fill="#dea42e"/><path d="m80.488281 347.265625 23.488281 130.054687c2.371094 13.128907 13.800782 22.679688 27.144532 22.679688h-25.683594c-13.339844 0-24.769531-9.546875-27.140625-22.679688l-23.488281-130.054687zm0 0" fill="#fce06a"/><path d="m228.261719 303.667969h-25.679688c12.039063 0 21.796875 9.757812 21.796875 21.796875 0 12.039062-9.761718 21.796875-21.796875 21.796875h25.679688c12.042969 0 21.800781-9.757813 21.800781-21.796875 0-12.039063-9.757812-21.796875-21.800781-21.796875zm0 0" fill="#dea42e"/><path d="m60.816406 347.265625h25.683594c-12.039062 0-21.800781-9.761719-21.800781-21.796875 0-12.042969 9.761719-21.800781 21.800781-21.800781h-25.683594c-12.039062 0-21.796875 9.761719-21.796875 21.800781 0 12.035156 9.757813 21.796875 21.796875 21.796875zm0 0" fill="#fce06a"/><g fill="#690589"><path d="m228.261719 351.265625h-167.441407c-14.226562 0-25.800781-11.574219-25.800781-25.796875 0-14.226562 11.574219-25.800781 25.800781-25.800781h167.445313c14.222656 0 25.796875 11.574219 25.796875 25.800781 0 14.222656-11.574219 25.796875-25.800781 25.796875zm-167.441407-43.597656c-9.816406 0-17.800781 7.984375-17.800781 17.796875 0 9.816406 7.984375 17.796875 17.800781 17.796875h167.445313c9.8125 0 17.796875-7.980469 17.796875-17.796875 0-9.8125-7.984375-17.796875-17.796875-17.796875zm0 0"/><path d="m183.644531 504h-78.207031c-15.289062 0-28.363281-10.921875-31.078125-25.96875l-23.488281-130.054688c-.210938-1.164062.105468-2.363281.867187-3.273437s1.882813-1.4375 3.070313-1.4375h179.464844c1.1875 0 2.308593.527344 3.070312 1.4375s1.078125 2.109375.867188 3.273437l-23.488282 130.054688c-2.71875 15.046875-15.789062 25.96875-31.078125 25.96875zm-124.050781-152.734375 22.636719 125.34375c2.027343 11.234375 11.789062 19.390625 23.207031 19.390625h78.203125c11.417969 0 21.179687-8.15625 23.207031-19.390625l22.636719-125.34375zm0 0"/><path d="m86.121094 399.996094c-1.898438 0-3.585938-1.355469-3.933594-3.289063l-4.332031-24c-.390625-2.175781 1.050781-4.253906 3.222656-4.648437 2.1875-.398438 4.257813 1.050781 4.648437 3.226562l4.332032 24c.390625 2.171875-1.050782 4.253906-3.222656 4.648438-.242188.039062-.480469.0625-.714844.0625zm0 0"/><path d="m192.488281 69.746094c-.734375 0-1.476562-.199219-2.144531-.625-1.863281-1.183594-2.414062-3.65625-1.226562-5.519532l5.953124-9.359374c3.222657-5.066407 3.222657-11.613282 0-16.679688-4.882812-7.675781-4.882812-17.59375 0-25.269531l6.640626-10.4375c1.183593-1.8671878 3.660156-2.414063 5.519531-1.230469 1.867187 1.1875 2.414062 3.660156 1.230469 5.523438l-6.640626 10.433593c-3.222656 5.066407-3.222656 11.617188 0 16.683594 4.882813 7.675781 4.882813 17.59375 0 25.269531l-5.953124 9.355469c-.765626 1.199219-2.058594 1.855469-3.378907 1.855469zm0 0"/><path d="m216.777344 69.746094c-.734375 0-1.476563-.199219-2.140625-.625-1.867188-1.183594-2.414063-3.65625-1.230469-5.519532l5.953125-9.359374c3.222656-5.066407 3.222656-11.613282 0-16.679688-4.882813-7.675781-4.882813-17.59375 0-25.269531l6.636719-10.4375c1.1875-1.8632815 3.65625-2.414063 5.523437-1.226563 1.867188 1.183594 2.414063 3.65625 1.226563 5.519532l-6.636719 10.4375c-3.222656 5.066406-3.222656 11.617187 0 16.683593 4.882813 7.671875 4.882813 17.59375 0 25.269531l-5.953125 9.355469c-.761719 1.195313-2.058594 1.851563-3.378906 1.851563zm0 0"/><path d="m241.070312 69.746094c-.734374 0-1.476562-.199219-2.144531-.625-1.863281-1.183594-2.414062-3.65625-1.226562-5.519532l5.953125-9.359374c3.222656-5.066407 3.222656-11.613282 0-16.679688-4.882813-7.675781-4.882813-17.59375 0-25.269531l6.636718-10.4375c1.1875-1.8632815 3.65625-2.414063 5.523438-1.226563 1.863281 1.183594 2.414062 3.65625 1.226562 5.519532l-6.636718 10.4375c-3.222656 5.066406-3.222656 11.617187 0 16.683593 4.882812 7.671875 4.882812 17.59375 0 25.269531l-5.953125 9.355469c-.765625 1.195313-2.058594 1.851563-3.378907 1.851563zm0 0"/></g></svg>