<svg height="504pt" viewBox="-132 0 504 504" width="504pt" xmlns="http://www.w3.org/2000/svg"><path d="m216.226562 351.199219h-192.222656c-11.046875 0-20-8.957031-20-20v-307.199219c0-11.046875 8.953125-20 20-20h192.222656c11.046876 0 20 8.953125 20 20v307.199219c0 11.042969-8.953124 20-20 20zm0 0" fill="#ff4397"/><path d="m216.226562 4h-20c11.046876 0 20 8.953125 20 20v307.199219c0 11.042969-8.953124 20-20 20h20c11.046876 0 20-8.957031 20-20v-307.199219c0-11.046875-8.953124-20-20-20zm0 0" fill="#e12579"/><path d="m24.003906 351.199219h20c-11.046875 0-20-8.957031-20-20v-307.199219c0-11.046875 8.953125-20 20-20h-20c-11.046875 0-20 8.953125-20 20v307.199219c0 11.042969 8.953125 20 20 20zm0 0" fill="#ff61b5"/><path d="m164.707031 37.054688h-89.183593c-5.625 0-10.699219-3.363282-12.894532-8.539063l-10.382812-24.515625h135.734375l-10.382813 24.515625c-2.191406 5.175781-7.269531 8.539063-12.890625 8.539063zm0 0" fill="#7bac51"/><path d="m188.941406 240.789062h-137.65625c-11.046875 0-20 8.953126-20 20v36.714844c0 11.042969 8.953125 20 20 20h137.660156c11.042969 0 20-8.957031 20-20v-36.714844c-.003906-11.046874-8.957031-20-20.003906-20zm0 0" fill="#fcc24c"/><g fill="#690589"><path d="m216.226562 355.199219h-192.226562c-13.234375 0-24-10.765625-24-24v-307.199219c0-13.234375 10.765625-24 24-24h192.226562c13.234376 0 24 10.765625 24 24v307.199219c0 13.234375-10.765624 24-24 24zm-192.226562-347.199219c-8.820312 0-16 7.179688-16 16v307.199219c0 8.820312 7.179688 16 16 16h192.226562c8.820313 0 16-7.179688 16-16v-307.199219c0-8.820312-7.179687-16-16-16zm0 0"/><path d="m20 76.460938c-2.207031 0-4-1.792969-4-4v-24c0-2.207032 1.792969-4 4-4s4 1.792968 4 4v24c0 2.210937-1.789062 4-4 4zm0 0"/><path d="m164.707031 41.054688h-89.1875c-7.242187 0-13.75-4.308594-16.574219-10.980469l-10.382812-24.515625c-.519531-1.234375-.390625-2.648438.347656-3.769532.742188-1.117187 1.996094-1.789062 3.335938-1.789062h135.734375c1.339843 0 2.59375.671875 3.332031 1.792969.742188 1.117187.875 2.53125.347656 3.769531l-10.378906 24.515625c-2.824219 6.667969-9.332031 10.976563-16.574219 10.976563zm-106.421875-33.054688 8.027344 18.957031c1.570312 3.703125 5.183594 6.097657 9.207031 6.097657h89.1875c4.023438 0 7.636719-2.394532 9.207031-6.097657l8.03125-18.957031zm0 0"/><path d="m188.941406 321.503906h-137.65625c-13.234375 0-24-10.769531-24-24v-36.710937c0-13.234375 10.765625-24 24-24h137.65625c13.234375 0 24 10.765625 24 24v36.710937c0 13.230469-10.765625 24-24 24zm-137.65625-76.710937c-8.820312 0-16 7.175781-16 16v36.710937c0 8.820313 7.179688 16 16 16h137.65625c8.824219 0 16-7.179687 16-16v-36.710937c0-8.824219-7.175781-16-16-16zm0 0"/><path d="m62.472656 298.929688v-37.707032c0-1.980468 1.597656-3.511718 3.515625-3.511718h9.078125c6.710938 0 12.140625 5.429687 12.140625 12.140624 0 2.75-.894531 5.242188-2.425781 7.285157 3.832031 2.429687 6.453125 6.710937 6.453125 11.566406 0 7.605469-6.132813 13.742187-13.675781 13.742187h-11.3125c-.0625 0-.0625-.066406-.0625-.066406-.128906 0-.128906.066406-.191406.066406-1.921876-.003906-3.519532-1.601562-3.519532-3.515624zm7.09375-23.902344h5.496094c2.8125 0 5.050781-2.363282 5.050781-5.175782s-2.238281-5.046874-5.050781-5.046874h-5.496094zm0 20.320312h7.988282c3.644531-.0625 6.582031-2.941406 6.582031-6.644531 0-3.644531-2.9375-6.519531-6.582031-6.582031h-7.988282zm0 0"/><path d="m118.964844 302.441406c-10.289063 0-18.46875-8.308594-18.46875-18.46875v-22.75c0-1.980468 1.535156-3.511718 3.515625-3.511718 1.914062 0 3.578125 1.53125 3.578125 3.511718v22.75c0 6.261719 5.113281 11.375 11.375 11.375 6.328125 0 11.375-5.113281 11.375-11.375v-22.75c0-1.980468 1.597656-3.511718 3.582031-3.511718 1.976563 0 3.511719 1.53125 3.511719 3.511718v22.75c0 10.160156-8.246094 18.46875-18.46875 18.46875zm0 0"/><path d="m183.570312 263.714844-13.101562 17.960937v17.253907c0 1.980468-1.53125 3.511718-3.511719 3.511718-1.855469 0-3.515625-1.535156-3.515625-3.511718v-17.253907l-12.972656-17.960937c-1.210938-1.53125-.894531-3.703125.707031-4.855469 1.597657-1.148437 3.769531-.832031 4.855469.765625l10.925781 14.953125 10.929688-14.953125c1.214843-1.597656 3.386719-1.917969 4.917969-.765625s1.851562 3.324219.765624 4.855469zm0 0"/></g><path d="m235.230469 355.964844c-1.441407-3.410156-4.332031-6.054688-7.898438-7.164063-1.191406-.367187-2.453125-.570312-3.765625-.570312-1.308594 0-2.574218.203125-3.761718.570312-3.570313 1.109375-6.457032 3.753907-7.902344 7.164063-.636719 1.511718-.996094 3.179687-.996094 4.925781v-10.253906c0-6.992188-5.667969-12.660157-12.65625-12.660157-6.992188 0-12.660156 5.667969-12.660156 12.660157v-5.902344c0-6.992187-5.667969-12.65625-12.65625-12.65625-6.992188 0-12.660156 5.667969-12.660156 12.65625v-40.480469c0-.4375-.019532-.871094-.066407-1.292968-.386719-3.832032-2.484375-7.15625-5.515625-9.203126-2.019531-1.367187-4.457031-2.164062-7.078125-2.164062-2.621093 0-5.058593.796875-7.078125 2.164062-3.027344 2.046876-5.125 5.371094-5.515625 9.203126-.042969.425781-.066406.855468-.066406 1.292968v80.960938c0-7.003906-5.679687-12.683594-12.683594-12.683594-5.40625 0-10.003906 3.382812-11.835937 8.144531-.542969 1.410157-.851563 2.9375-.851563 4.539063v44.878906c0 9.632812 5.367188 18.011719 13.277344 22.308594.359375.195312.726563.382812 1.09375.558594 1.480469.714843 3.039063 1.285156 4.660156 1.703124 2.023438.523438 4.152344.800782 6.339844.800782v1.691406c0 5.257812 2.398437 9.957031 6.160156 13.058594.417969.34375.851563.671875 1.300781.976562 2.703126 1.824219 5.960938 2.886719 9.464844 2.886719v25.921875h69.871094v-26.074219h.003906c3.066406-.394531 5.84375-1.617187 8.128906-3.441406.039063-.027344.074219-.054687.105469-.082031.308594-.25.601563-.515625.890625-.785156.089844-.082032.183594-.164063.269532-.25.25-.246094.488281-.503907.722656-.761719.113281-.128907.230468-.253907.339844-.382813.207031-.246094.402343-.496094.59375-.75.125-.164062.246093-.328125.363281-.496094.167969-.242187.328125-.492187.484375-.742187.125-.195313.242187-.394531.355468-.597656.136719-.242188.269532-.484375.394532-.734375.113281-.226563.21875-.460938.324218-.695313.109376-.238281.214844-.476562.308594-.722656.101563-.257813.191406-.523437.28125-.789063.078125-.234374.160156-.464843.226563-.703124.085937-.292969.15625-.597657.226562-.898438.046875-.21875.105469-.4375.148438-.65625.066406-.351562.113281-.710938.15625-1.066406.023437-.183594.058593-.363282.074219-.550782.054687-.546874.082031-1.101562.082031-1.667968v-96.261719c-.003907-1.746094-.359375-3.414063-1-4.925781zm0 0" fill="#ff9f70"/><path d="m158.570312 473.699219c-7.632812-1.640625-13.359374-8.417969-13.359374-16.542969 0-.917969-.707032-1.6875-1.625-1.746094-13.257813-.835937-23.746094-11.851562-23.746094-25.316406v-44.878906c0-5.179688 3.105468-9.625 7.554687-11.597656-2.019531-.894532-4.316406-1.289063-6.730469-.988282-6.40625.804688-11.082031 6.5-11.082031 12.957032v44.507812c0 14.011719 11.359375 25.371094 25.371094 25.371094v1.691406c0 9.347656 7.578125 16.925781 16.925781 16.925781v25.917969h10.253906v-24.34375c0-.894531-.675781-1.644531-1.566406-1.742188zm0 0" fill="#ffbd8e"/><path d="m231.148438 469.367188c.25-.246094.488281-.503907.722656-.761719.113281-.128907.230468-.253907.339844-.382813.207031-.246094.402343-.496094.59375-.75.125-.164062.246093-.328125.363281-.496094.167969-.242187.328125-.492187.484375-.742187.125-.195313.242187-.394531.355468-.597656.136719-.242188.269532-.484375.394532-.734375.113281-.226563.21875-.460938.324218-.695313.109376-.238281.214844-.476562.308594-.722656.101563-.257813.191406-.523437.28125-.789063.078125-.234374.160156-.464843.226563-.703124.085937-.292969.15625-.597657.226562-.898438.046875-.21875.105469-.4375.148438-.65625.066406-.351562.113281-.710938.15625-1.066406.023437-.183594.058593-.363282.074219-.550782.054687-.546874.082031-1.101562.082031-1.667968v-96.261719c0-1.75-.355469-3.414063-.996094-4.929687-1.441406-3.40625-4.332031-6.050782-7.898437-7.160157-1.191407-.371093-2.453126-.570312-3.765626-.570312-1.308593 0-2.574218.199219-3.761718.570312-.839844.257813-1.632813.609375-2.386719 1.03125 3.875 2.164063 6.5 6.300781 6.5 11.058594v96.261719c0 8.441406-5.953125 15.414062-13.984375 16.699218-1.507812.128907-2.660156 1.386719-2.660156 2.898438v23.25h14.476562v-26.074219c3.066406-.394531 5.84375-1.617187 8.128906-3.441406.039063-.027344.074219-.054687.105469-.082031.308594-.25.601563-.515625.890625-.785156.089844-.082032.179688-.164063.269532-.25zm0 0" fill="#e18152"/><path d="m134.953125 425.046875c-2.207031 0-4-1.789063-4-4v-35.832031c0-2.207032 1.792969-4 4-4s4 1.792968 4 4v35.832031c0 2.210937-1.792969 4-4 4zm0 0" fill="#690589"/><path d="m185.589844 382.890625c-2.207032 0-4-1.792969-4-4v-34.15625c0-4.773437-3.882813-8.660156-8.660156-8.660156-4.777344 0-8.660157 3.886719-8.660157 8.660156v34.15625c0 2.207031-1.792969 4-4 4s-4-1.792969-4-4v-34.15625c0-9.183594 7.472657-16.660156 16.660157-16.660156s16.660156 7.476562 16.660156 16.660156v34.15625c0 2.210937-1.789063 4-4 4zm0 0" fill="#690589"/><path d="m210.90625 382.890625c-2.207031 0-4-1.792969-4-4v-28.257813c0-4.773437-3.882812-8.65625-8.660156-8.65625-4.773438 0-8.65625 3.882813-8.65625 8.65625v28.257813c0 2.207031-1.792969 4-4 4-2.210938 0-4-1.792969-4-4v-28.257813c0-9.183593 7.472656-16.65625 16.65625-16.65625 9.1875 0 16.660156 7.472657 16.660156 16.65625v28.257813c0 2.210937-1.789062 4-4 4zm0 0" fill="#690589"/><path d="m221.75 504h-69.871094c-2.207031 0-4-1.792969-4-4v-22.300781c-8.976562-1.746094-15.921875-9.246094-16.828125-18.492188-14.359375-1.910156-25.46875-14.238281-25.46875-29.113281v-44.878906c0-9.199219 7.484375-16.683594 16.6875-16.683594 3.179688 0 6.152344.894531 8.683594 2.441406v-66.714844c0-9.1875 7.476563-16.660156 16.660156-16.660156 9.1875 0 16.660157 7.472656 16.660157 16.660156v74.632813c0 2.210937-1.792969 4-4 4-2.207032 0-4-1.789063-4-4v-74.632813c0-4.777343-3.882813-8.660156-8.660157-8.660156-4.773437 0-8.660156 3.882813-8.660156 8.660156v80.957032c0 2.210937-1.792969 4-4 4s-4-1.789063-4-4c0-4.789063-3.894531-8.683594-8.683594-8.683594-4.792969 0-8.6875 3.894531-8.6875 8.683594v44.878906c0 11.785156 9.585938 21.371094 21.371094 21.371094 2.207031 0 4 1.792968 4 4v1.691406c0 7.128906 5.800781 12.929688 12.925781 12.929688 2.207032 0 4 1.789062 4 4v21.914062h61.871094v-22.070312c0-2.015626 1.492188-3.710938 3.488281-3.96875 6.367188-.824219 10.988281-6.207032 10.988281-12.804688v-96.265625c0-4.773437-3.882812-8.65625-8.660156-8.65625-4.773437 0-8.65625 3.882813-8.65625 8.65625v18c0 2.210937-1.792968 4-4 4-2.207031 0-4-1.789063-4-4v-18c0-9.183594 7.472656-16.65625 16.65625-16.65625 9.1875 0 16.660156 7.472656 16.660156 16.65625v96.265625c0 9.273438-6.019531 17.304688-14.476562 19.972656v22.871094c0 2.207031-1.792969 4-4 4zm0 0" fill="#690589"/><path d="m162.695312 190.484375c17.496094-2.699219 32.09375-9.359375 39.28125-17.015625-9.160156-5.132812-25.085937-7.089844-42.582031-4.390625-1.882812.289063-3.730469.636719-5.542969 1.015625 4.242188-3.257812 8.46875-6.945312 12.570313-11.046875 15.691406-15.6875 25.515625-33.242187 27.109375-46.308594-13.066406 1.59375-30.617188 11.417969-46.308594 27.109375-5.398437 5.398438-10.082031 11.015625-13.992187 16.59375 2.671875-10.839844 4.195312-23.269531 4.195312-36.488281 0-28.292969-6.964843-52.980469-17.308593-66.199219-10.347657 13.21875-17.3125 37.90625-17.3125 66.199219 0 13.21875 1.519531 25.648437 4.199218 36.488281-3.914062-5.578125-8.601562-11.195312-13.996094-16.59375-15.6875-15.6875-33.238281-25.511718-46.304687-27.109375 1.59375 13.066407 11.417969 30.617188 27.109375 46.308594 4.097656 4.101563 8.328125 7.789063 12.570312 11.046875-1.8125-.378906-3.660156-.726562-5.542968-1.015625-17.496094-2.699219-33.421875-.742187-42.582032 4.390625 7.1875 7.65625 21.785157 14.316406 39.28125 17.015625 7.996094 1.230469 15.652344 1.484375 22.496094.914063-1.71875 1.027343-3.445312 2.167968-5.15625 3.421874-9.050781 6.632813-15.316406 14.648438-17.121094 21.058594 6.65625.210938 16.1875-3.347656 25.238282-9.984375 8.355468-6.121093 14.324218-13.417969 16.617187-19.542969.132813-.074218.28125-.140624.414063-.214843.027344.003906.0625.011719.09375.015625.027344-.003906.0625-.011719.09375-.015625.132812.074219.277344.140625.410156.214843 2.292969 6.125 8.261719 13.421876 16.617188 19.542969 9.050781 6.636719 18.582031 10.195313 25.238281 9.984375-1.800781-6.410156-8.070313-14.425781-17.121094-21.058594-1.707031-1.253906-3.433594-2.394531-5.15625-3.421874 6.839844.570312 14.496094.316406 22.492187-.914063zm0 0" fill="#7bac51"/><path d="m120.113281 227.308594c-2.207031 0-4-1.789063-4-4v-33.339844c0-2.207031 1.792969-4 4-4s4 1.792969 4 4v33.339844c0 2.210937-1.792969 4-4 4zm0 0" fill="#690589"/><path d="m161.910156 219.890625c-7.75 0-17.789062-3.988281-27.039062-10.765625-6.234375-4.574219-11.355469-9.835938-14.757813-15.074219-3.398437 5.238281-8.519531 10.5-14.753906 15.074219-9.535156 6.980469-19.902344 10.984375-27.734375 10.753906-1.230469-.039062-2.371094-.640625-3.097656-1.636718-.730469-.988282-.960938-2.261719-.625-3.445313 1.738281-6.175781 6.710937-13.105469 13.683594-19.246094-3.5-.1875-7.0625-.558593-10.664063-1.117187-17.914063-2.761719-33.464844-9.574219-41.585937-18.226563-.84375-.898437-1.222657-2.132812-1.039063-3.347656.1875-1.21875.925781-2.28125 2-2.878906 8.773437-4.917969 22.238281-6.96875 37.042969-5.800781-.792969-.757813-1.582032-1.527344-2.359375-2.304688-15.917969-15.914062-26.476563-34.101562-28.253907-48.652344-.148437-1.21875.273438-2.441406 1.144532-3.3125.867187-.867187 2.082031-1.289062 3.3125-1.140625 14.546875 1.777344 32.734375 12.335938 48.648437 28.253907 1.492188 1.492187 2.945313 3.011718 4.351563 4.554687-.910156-7.007813-1.378906-14.296875-1.378906-21.625 0-28.464844 6.789062-54.132813 18.160156-68.664063 1.515625-1.9375 4.78125-1.9375 6.300781 0 11.371094 14.53125 18.160156 40.199219 18.160156 68.664063 0 7.328125-.46875 14.617187-1.378906 21.621094 1.40625-1.539063 2.855469-3.058594 4.347656-4.550781 15.914063-15.917969 34.101563-26.476563 48.652344-28.253907 1.21875-.148437 2.441406.273438 3.3125 1.140625.867187.871094 1.289063 2.09375 1.140625 3.3125-1.777344 14.550782-12.335938 32.734375-28.253906 48.652344-.777344.777344-1.5625 1.546875-2.359375 2.304688 14.816406-1.171876 28.273437.882812 37.042969 5.800781 1.074218.601562 1.808593 1.660156 2 2.878906.1875 1.214844-.199219 2.449219-1.039063 3.347656-8.125 8.652344-23.671875 15.464844-41.589844 18.226563-3.601562.554687-7.164062.929687-10.664062 1.117187 6.972656 6.140625 11.949219 13.070313 13.683593 19.246094.335938 1.183594.105469 2.457031-.621093 3.445313-.730469.996093-1.871094 1.597656-3.101563 1.636718-.222656.007813-.457031.011719-.6875.011719zm-61.878906-32.492187c1.726562 0 3.273438 1.113281 3.808594 2.777343.566406 1.773438-.160156 3.703125-1.761719 4.65625-1.632813.976563-3.261719 2.054688-4.839844 3.214844-5.398437 3.957031-9.882812 8.542969-12.730469 12.882813 5-1.40625 10.71875-4.300782 16.121094-8.257813 7.421875-5.445313 13.117188-12.066406 15.234375-17.722656.34375-.925781 1.019531-1.6875 1.894531-2.144531.019532-.011719.203126-.105469.222657-.113282.710937-.390625 1.625-.621094 2.441406-.53125.59375.035156 1.191406.191406 1.699219.464844.019531.007812.332031.167969.347656.175781.878906.460938 1.550781 1.222657 1.898438 2.148438 2.113281 5.652343 7.808593 12.277343 15.234374 17.71875 5.402344 3.957031 11.121094 6.851562 16.117188 8.261719-2.847656-4.34375-7.328125-8.925782-12.730469-12.886719-1.585937-1.160157-3.210937-2.238281-4.84375-3.214844-1.597656-.953125-2.324219-2.878906-1.757812-4.652344.570312-1.777343 2.277343-2.945312 4.140625-2.765625 6.738281.554688 14.191406.253906 21.558594-.882812 13.03125-2.007813 24.863281-6.410156 32.492187-11.917969-8.933594-2.960937-21.542969-3.589844-34.574219-1.578125-1.691406.261719-3.4375.578125-5.339844.976562-1.835937.378907-3.675781-.550781-4.453124-2.246093-.777344-1.699219-.28125-3.707031 1.199218-4.839844 4.21875-3.242187 8.316406-6.84375 12.179688-10.707031 12.425781-12.425782 21.515625-26.597656 24.816406-38.359375-11.761719 3.300781-25.933594 12.390625-38.359375 24.816406-5.074219 5.074219-9.632813 10.480469-13.546875 16.0625-1.109375 1.574219-3.179688 2.144531-4.929688 1.34375-1.753906-.796875-2.691406-2.726563-2.226562-4.601563 2.667969-10.8125 4.078125-23.101562 4.078125-35.527343 0-23.496094-5.019531-45.46875-13.308594-59.148438-8.292969 13.679688-13.3125 35.652344-13.3125 59.148438 0 12.425781 1.410157 24.710937 4.082031 35.527343.460938 1.875-.476562 3.804688-2.230468 4.601563-1.75.800781-3.824219.230469-4.929688-1.34375-3.910156-5.582031-8.46875-10.984375-13.546875-16.0625-12.421875-12.425781-26.597656-21.515625-38.355469-24.816406 3.300782 11.761719 12.390626 25.933593 24.816407 38.359375 3.863281 3.863281 7.960937 7.464844 12.179687 10.707031 1.480469 1.132813 1.976563 3.140625 1.199219 4.839844-.78125 1.695312-2.621094 2.625-4.457031 2.246093-1.902344-.398437-3.644532-.714843-5.335938-.976562-13.03125-2.011719-25.640625-1.378906-34.574218 1.578125 7.628906 5.507813 19.460937 9.910156 32.492187 11.917969 7.371094 1.140625 14.820313 1.441406 21.558594.882812.109375-.007812.222656-.011718.332031-.011718zm0 0" fill="#690589"/></svg>