<svg height="504pt" viewBox="-10 0 503 504" width="504pt" xmlns="http://www.w3.org/2000/svg"><path d="m480.152344 500h-475.652344v-496h145.667969v141.164062h242.152343c48.507813 0 87.832032 39.324219 87.832032 87.832032zm0 0" fill="#ff9f70"/><path d="m4.5 4h17.566406v496h-17.566406zm0 0" fill="#ffbd8e"/><path d="m150.167969 145.164062v-141.164062h-17.566407v123.597656c0 9.703125 7.863282 17.566406 17.566407 17.566406zm0 0" fill="#e18152"/><path d="m392.320312 145.164062h-17.566406c48.511719 0 87.835938 39.324219 87.835938 87.832032v267.003906h17.5625v-267.003906c0-48.507813-39.324219-87.832032-87.832032-87.832032zm0 0" fill="#e18152"/><g fill="#690589"><path d="m480.152344 504h-475.652344c-2.207031 0-4-1.792969-4-4v-496c0-2.207031 1.792969-4 4-4h145.667969c2.207031 0 4 1.792969 4 4v137.164062h238.152343c50.636719 0 91.832032 41.199219 91.832032 91.832032v267.003906c0 2.207031-1.789063 4-4 4zm-471.652344-8h467.652344v-263.003906c0-46.222656-37.609375-83.832032-83.835938-83.832032h-242.148437c-2.207031 0-4-1.792968-4-4v-137.164062h-137.667969zm0 0"/><path d="m18.550781 87.042969c-2.207031 0-4-1.789063-4-4v-24c0-2.207031 1.792969-4 4-4 2.210938 0 4 1.792969 4 4v24c0 2.210937-1.789062 4-4 4zm0 0"/><path d="m352.152344 502.242188c-2.207032 0-4-1.789063-4-4v-183.773438c0-2.207031 1.792968-4 4-4 2.207031 0 4 1.792969 4 4v183.773438c0 2.210937-1.792969 4-4 4zm0 0"/></g><path d="m314.964844 44.394531c-55.664063-11.609375-110.199219 24.101563-121.8125 79.765625-11.609375 55.664063 24.101562 110.199219 79.765625 121.8125 55.664062 11.609375 110.199219-24.101562 121.8125-79.765625 11.609375-55.664062-24.101563-110.199219-79.765625-121.8125zm0 0" fill="#ff4397"/><path d="m293.933594 42.203125c-2.300782 0-4.578125.101563-6.839844.253906 53.671875 3.523438 96.121094 48.144531 96.121094 102.707031s-42.449219 99.183594-96.121094 102.707032c2.265625.152344 4.539062.253906 6.839844.253906 56.863281 0 102.960937-46.097656 102.960937-102.960938 0-56.863281-46.097656-102.960937-102.960937-102.960937zm0 0" fill="#e12579"/><path d="m293.933594 248.125c2.300781 0 4.578125-.101562 6.839844-.25-53.667969-3.523438-96.121094-48.144531-96.121094-102.707031s42.453125-99.183594 96.121094-102.710938c-2.261719-.148437-4.539063-.25-6.839844-.25-56.863282 0-102.960938 46.09375-102.960938 102.957031 0 56.863282 46.097656 102.960938 102.960938 102.960938zm0 0" fill="#ff61b5"/><path d="m293.933594 252.125c-58.976563 0-106.960938-47.984375-106.960938-106.960938 0-58.976562 47.984375-106.957031 106.960938-106.957031 58.976562 0 106.960937 47.980469 106.960937 106.957031 0 58.976563-47.984375 106.960938-106.960937 106.960938zm0-205.917969c-54.566406 0-98.960938 44.390625-98.960938 98.957031 0 54.566407 44.394532 98.960938 98.960938 98.960938s98.960937-44.394531 98.960937-98.960938c0-54.566406-44.394531-98.957031-98.960937-98.957031zm0 0" fill="#690589"/><path d="m372.449219 145.164062c0 43.363282-35.152344 78.515626-78.515625 78.515626-43.363282 0-78.511719-35.152344-78.511719-78.515626 0-43.363281 35.148437-78.515624 78.511719-78.515624 43.363281 0 78.515625 35.152343 78.515625 78.515624zm0 0" fill="#fcc24c"/><path d="m293.933594 227.679688c-45.496094 0-82.511719-37.019532-82.511719-82.515626 0-45.5 37.015625-82.515624 82.511719-82.515624 45.5 0 82.515625 37.015624 82.515625 82.515624 0 45.496094-37.015625 82.515626-82.515625 82.515626zm0-157.03125c-41.085938 0-74.511719 33.425781-74.511719 74.515624 0 41.089844 33.425781 74.515626 74.511719 74.515626 41.089844 0 74.515625-33.425782 74.515625-74.515626 0-41.089843-33.425781-74.515624-74.515625-74.515624zm0 0" fill="#690589"/><path d="m306.128906 92.824219c-28.898437-6.738281-57.785156 11.226562-64.527344 40.121093-6.738281 28.898438 11.226563 57.789063 40.125 64.527344 28.898438 6.738282 57.785157-11.226562 64.523438-40.125 6.738281-28.894531-11.222656-57.785156-40.121094-64.523437zm0 0" fill="#7bac51"/><path d="m328.007812 133.554688h-22.945312v-22.941407h-23.214844v22.941407h-22.949218v23.21875h22.949218v22.945312h23.214844v-22.945312h22.945312zm0 0" fill="#f4efed"/><path d="m305.0625 183.71875h-23.214844c-2.210937 0-4-1.792969-4-4v-18.945312h-18.945312c-2.207032 0-4-1.792969-4-4v-23.21875c0-2.207032 1.792968-4 4-4h18.945312v-18.945313c0-2.207031 1.789063-4 4-4h23.214844c2.210938 0 4 1.792969 4 4v18.945313h18.945312c2.207032 0 4 1.792968 4 4v23.21875c0 2.207031-1.792968 4-4 4h-18.945312v18.945312c0 2.210938-1.789062 4-4 4zm-19.214844-8h15.214844v-18.945312c0-2.210938 1.792969-4 4-4h18.945312v-15.21875h-18.945312c-2.207031 0-4-1.792969-4-4v-18.945313h-15.214844v18.945313c0 2.207031-1.792968 4-4 4h-18.945312v15.21875h18.945312c2.207032 0 4 1.789062 4 4zm0 0" fill="#690589"/><path d="m293.933594 202.890625c-31.828125 0-57.726563-25.898437-57.726563-57.726563 0-31.828124 25.898438-57.722656 57.726563-57.722656 31.832031 0 57.722656 25.894532 57.722656 57.722656 0 31.828126-25.890625 57.726563-57.722656 57.726563zm0-107.449219c-27.417969 0-49.726563 22.304688-49.726563 49.722656 0 27.421876 22.308594 49.726563 49.726563 49.726563 27.417968 0 49.722656-22.304687 49.722656-49.726563.003906-27.417968-22.304688-49.722656-49.722656-49.722656zm0 0" fill="#690589"/></svg>