<svg height="503pt" viewBox="-19 0 503 503.959" width="503pt" xmlns="http://www.w3.org/2000/svg"><path d="m372.964844 353.773438c39-6.015626 71.546875-20.863282 87.574218-37.933594-20.421874-11.449219-55.929687-15.804688-94.933593-9.789063-4.207031.648438-8.320313 1.421875-12.363281 2.265625 9.457031-7.261718 18.886718-15.488281 28.027343-24.632812 34.976563-34.976563 56.882813-74.105469 60.441407-103.238282-29.136719 3.554688-68.261719 25.460938-103.238282 60.441407-12.03125 12.03125-22.476562 24.550781-31.199218 36.992187 5.960937-24.167968 9.351562-51.878906 9.351562-81.347656 0-63.082031-15.53125-118.117188-38.59375-147.59375-23.066406 29.476562-38.597656 84.511719-38.597656 147.59375 0 29.46875 3.390625 57.179688 9.355468 81.347656-8.722656-12.441406-19.164062-24.960937-31.199218-36.992187-34.976563-34.980469-74.105469-56.886719-103.238282-60.441407 3.554688 29.132813 25.460938 68.261719 60.441407 103.238282 9.140625 9.144531 18.570312 17.371094 28.027343 24.632812-4.042968-.847656-8.160156-1.617187-12.363281-2.265625-39.003906-6.015625-74.511719-1.660156-94.933593 9.789063 16.023437 17.070312 48.570312 31.917968 87.574218 37.933594 17.824219 2.746093 34.898438 3.308593 50.15625 2.039062-3.835937 2.289062-7.683594 4.839844-11.496094 7.628906-20.179687 14.792969-34.148437 32.664063-38.171874 46.953125 14.835937.46875 36.085937-7.46875 56.269531-22.253906 18.625-13.648437 31.9375-29.914063 37.042969-43.574219.300781-.160156.625-.3125.917968-.476562.070313.007812.144532.023437.210938.035156.066406-.007812.140625-.023438.210937-.035156.292969.164062.617188.3125.917969.476562 5.109375 13.660156 18.417969 29.925782 37.042969 43.574219 20.183593 14.789063 41.433593 22.722656 56.269531 22.253906-4.019531-14.289062-17.988281-32.160156-38.171875-46.953125-3.8125-2.789062-7.660156-5.335937-11.496094-7.628906 15.265625 1.269531 32.335938.707031 50.164063-2.039062zm0 0" fill="#7bac51"/><g fill="#99ca6f"><path d="m131.292969 184.222656c4.886719 28.683594 26.382812 65.972656 59.871093 99.460938 6.019532 6.019531 12.160157 11.640625 18.351563 16.847656 2.464844 2.074219.625 6.03125-2.558594 5.539062-.042969-.007812-.085937-.015624-.128906-.019531-2.773437-.429687-5.523437-.792969-8.261719-1.117187-8.023437-6.417969-16.003906-13.480469-23.773437-21.25-34.980469-34.980469-56.886719-74.105469-60.441407-103.242188 5.339844.65625 11.015626 1.929688 16.941407 3.78125zm0 0"/><path d="m164.234375 303.53125c-21.371094.890625-39.734375 5.242188-52.339844 12.308594 16.027344 17.070312 48.574219 31.917968 87.574219 37.933594 8.804688 1.359374 17.417969 2.175781 25.722656 2.507812-13.121094.523438-27.34375-.230469-42.097656-2.507812-39-6.015626-71.546875-20.863282-87.574219-37.933594 15.722657-8.8125 40.402344-13.398438 68.714844-12.308594zm0 0"/><path d="m221.757812 363.441406c3.46875-2.539062 6.96875-4.867187 10.460938-6.996094 1.253906.007813 2.5.007813 3.738281-.003906 3.75-.039062 5.316407 4.707032 2.289063 6.917969-.039063.027344-.078125.054687-.113282.082031-19.0625 13.96875-32.566406 30.679688-37.402343 44.535156-6.257813 1.738282-12.082031 2.578126-17.148438 2.417969 4.027344-14.289062 17.996094-32.160156 38.175781-46.953125zm0 0"/><path d="m248.789062 277.878906c8.269532 0 14.515626-7.507812 12.976563-15.628906-3.835937-20.222656-5.953125-42.421875-5.953125-65.71875 0 0-1.359375-102 22.21875-147.59375-23.066406 29.476562-38.59375 84.511719-38.59375 147.59375 0 19.003906 1.429688 37.261719 4.03125 54.328125zm0 0"/></g><path d="m424.769531 184.222656c-4.890625 28.683594-26.382812 65.972656-59.875 99.460938-6.015625 6.019531-12.15625 11.640625-18.347656 16.847656-2.464844 2.074219-.625 6.03125 2.558594 5.539062.042969-.007812.085937-.015624.125-.019531 2.777343-.429687 5.527343-.792969 8.261719-1.117187 8.027343-6.417969 16.003906-13.480469 23.777343-21.25 34.976563-34.980469 56.882813-74.105469 60.441407-103.242188-5.339844.65625-11.019532 1.929688-16.941407 3.78125zm0 0" fill="#5d8e33"/><path d="m391.824219 303.53125c21.375.890625 39.734375 5.242188 52.339843 12.308594-16.027343 17.070312-48.574218 31.917968-87.578124 37.933594-8.796876 1.359374-17.414063 2.175781-25.71875 2.507812 13.121093.523438 27.339843-.230469 42.09375-2.507812 39.003906-6.015626 71.550781-20.863282 87.578124-37.933594-15.722656-8.8125-40.398437-13.398438-68.714843-12.308594zm0 0" fill="#5d8e33"/><path d="m334.300781 363.441406c-3.46875-2.539062-6.96875-4.867187-10.460937-6.996094-1.253906.007813-2.5.007813-3.738282-.003906-3.75-.039062-5.316406 4.707032-2.289062 6.917969.035156.027344.074219.054687.113281.082031 19.058594 13.96875 32.566407 30.679688 37.398438 44.535156 6.261719 1.738282 12.085937 2.578126 17.148437 2.417969-4.023437-14.289062-17.992187-32.160156-38.171875-46.953125zm0 0" fill="#5d8e33"/><path d="m307.269531 277.878906c-8.269531 0-14.515625-7.507812-12.976562-15.628906 3.835937-20.222656 5.953125-42.421875 5.953125-65.71875 0 0 1.363281-102-22.214844-147.59375 23.0625 29.476562 38.59375 84.511719 38.59375 147.59375 0 19.003906-1.429688 37.261719-4.03125 54.328125zm0 0" fill="#5d8e33"/><path d="m265.800781 459.019531c-2.210937 0-4-1.789062-4-4 0-2.207031 1.789063-4 4-4 4.539063 0 8.230469-3.691406 8.230469-8.230469v-98.804687c0-2.207031 1.792969-4 4-4s4 1.792969 4 4v98.804687c0 8.949219-7.28125 16.230469-16.230469 16.230469zm0 0" fill="#690589"/><path d="m371.179688 414.414062c-16.242188 0-37.539063-8.535156-57.34375-23.046874-16.085938-11.789063-29.042969-26.15625-35.804688-39.480469-6.765625 13.324219-19.726562 27.691406-35.808594 39.480469-20.386718 14.9375-42.324218 23.582031-58.761718 23.027343-1.230469-.039062-2.375-.640625-3.097657-1.632812-.726562-.992188-.960937-2.265625-.625-3.449219 4.421875-15.71875 19.113281-33.957031 39.332031-48.851562-11.847656.125-24.085937-.804688-36.582031-2.730469-38.898437-6-72.5-20.636719-89.878906-39.148438-.84375-.898437-1.226563-2.132812-1.039063-3.347656.1875-1.21875.921876-2.28125 1.996094-2.878906 21.636719-12.128907 56.902344-16.066407 94.765625-10.660157-5.609375-4.820312-11.085937-9.894531-16.367187-15.179687-34.214844-34.210937-57.808594-74.667969-61.582032-105.582031-.148437-1.21875.269532-2.445313 1.140626-3.3125.871093-.871094 2.089843-1.296875 3.3125-1.140625 30.914062 3.769531 71.371093 27.367187 105.582031 61.582031 7.382812 7.378906 14.300781 15.070312 20.683593 22.976562-3.722656-20.402343-5.664062-42.371093-5.664062-64.503906 0-61.464844 15.113281-118.964844 39.445312-150.058594 1.515626-1.9375 4.78125-1.9375 6.296876 0 24.332031 31.09375 39.445312 88.59375 39.445312 150.058594 0 22.132813-1.945312 44.105469-5.667969 64.503906 6.382813-7.910156 13.300781-15.597656 20.683594-22.976562 34.210937-34.214844 74.667969-57.8125 105.582031-61.582031 1.222656-.15625 2.441406.269531 3.3125 1.140625s1.292969 2.09375 1.140625 3.3125c-3.769531 30.914062-27.367187 71.371094-61.582031 105.582031-5.28125 5.285156-10.753906 10.359375-16.367188 15.179687 37.867188-5.414062 73.132813-1.46875 94.765626 10.660157 1.074218.601562 1.8125 1.660156 2 2.878906.1875 1.210937-.195313 2.449219-1.039063 3.347656-17.378906 18.511719-50.980469 33.148438-89.882813 39.148438-12.492187 1.925781-24.757812 2.851562-36.578124 2.730469 20.214843 14.890624 34.90625 33.132812 39.332031 48.851562.332031 1.183594.101562 2.457031-.625 3.449219-.726563.992187-1.871094 1.59375-3.101563 1.632812-.464844.015625-.9375.019531-1.417968.019531zm-137.925782-62.601562c1.726563 0 3.273438 1.109375 3.808594 2.773438.570312 1.773437-.160156 3.703124-1.757812 4.660156-3.777344 2.257812-7.542969 4.757812-11.179688 7.425781-16.394531 12.011719-29.21875 26.683594-34.78125 39.503906 13.902344-1.441406 31.75-9.25 48.148438-21.261719 17.292968-12.675781 30.625-28.28125 35.660156-41.75.339844-.914062 1.003906-1.671874 1.867187-2.132812l.851563-.433594c.660156-.367187 1.410156-.535156 2.160156-.5.75-.035156 1.5.132813 2.160156.5l.847656.433594c.863282.460938 1.527344 1.21875 1.867188 2.132812 5.039062 13.46875 18.371094 29.074219 35.664062 41.75 16.394532 12.011719 34.246094 19.820313 48.144532 21.261719-5.558594-12.820312-18.382813-27.492187-34.777344-39.503906-3.636719-2.667969-7.398438-5.167969-11.183594-7.425781-1.59375-.957032-2.324218-2.886719-1.753906-4.660156.570312-1.769532 2.28125-2.914063 4.140625-2.761719 15.382813 1.28125 32.398437.589843 49.210937-2.003907 33.882813-5.226562 64.371094-17.648437 81.386719-32.929687-20.832031-9.449219-53.644531-12.113281-87.523437-6.886719-3.875.597656-7.847656 1.324219-12.15625 2.226563-1.832032.378906-3.675782-.550781-4.457032-2.246094-.777343-1.699219-.28125-3.707031 1.203126-4.839844 9.578124-7.359375 18.875-15.527343 27.632812-24.289062 31.054688-31.054688 53.003906-67.113281 58.464844-95.605469-28.496094 5.457031-64.554688 27.40625-95.605469 58.460938-11.511719 11.511718-21.859375 23.78125-30.753906 36.460937-1.109375 1.574219-3.179688 2.144531-4.929688 1.34375-1.75-.792969-2.691406-2.726563-2.226562-4.597656 6.039062-24.492188 9.234375-52.289063 9.234375-80.390625 0-57.023438-13.164063-110.261719-34.589844-140.867188-21.429688 30.609375-34.597656 83.847656-34.597656 140.867188 0 28.101562 3.195312 55.894531 9.238281 80.390625.460937 1.871093-.472656 3.800781-2.226563 4.597656-1.75.800781-3.824218.230469-4.929687-1.34375-8.890625-12.679687-19.238281-24.945313-30.753906-36.460937-31.054688-31.054688-67.109375-53.003907-95.605469-58.460938 5.460938 28.496094 27.410156 64.550781 58.464844 95.605469 8.757812 8.761719 18.054687 16.929687 27.632812 24.289062 1.480469 1.132813 1.980469 3.140625 1.203125 4.839844-.78125 1.695313-2.632812 2.628906-4.457031 2.246094-4.304688-.902344-8.28125-1.628907-12.15625-2.226563-33.875-5.226562-66.691406-2.558594-87.523438 6.886719 17.015626 15.28125 47.503907 27.703125 81.386719 32.929687 16.816407 2.59375 33.835938 3.285157 49.214844 2.003907.113281-.007813.222656-.011719.332031-.011719zm139.710938 1.960938h.019531zm0 0" fill="#690589"/><path d="m254.550781 162.074219c-.152343 0-.304687-.007813-.460937-.023438-2.195313-.25-3.769532-2.234375-3.519532-4.429687.761719-6.691406 1.691407-13.371094 2.761719-19.847656.359375-2.183594 2.421875-3.640626 4.597657-3.296876 2.179687.363282 3.65625 2.421876 3.292968 4.597657-1.046875 6.351562-1.957031 12.894531-2.707031 19.453125-.230469 2.042968-1.960937 3.546875-3.964844 3.546875zm0 0" fill="#690589"/><path d="m134.25 64.644531-69.105469 69.101563c-13.878906 13.878906-36.378906 13.878906-50.253906 0-13.878906-13.878906-13.878906-36.378906 0-50.253906l69.101563-69.105469c13.878906-13.878907 36.378906-13.878907 50.253906 0 13.882812 13.878906 13.882812 36.378906.003906 50.257812zm0 0" fill="#f4efed"/><path d="m27.46875 121.167969c-13.878906-13.878907-13.878906-36.378907 0-50.257813l-12.578125 12.582032c-13.878906 13.875-13.878906 36.375 0 50.253906 13.875 13.878906 36.375 13.878906 50.253906 0l12.582031-12.578125c-13.878906 13.878906-36.378906 13.878906-50.257812 0zm0 0" fill="#fff"/><path d="m134.25 64.644531c13.878906-13.878906 13.878906-36.378906 0-50.253906-13.878906-13.878906-36.378906-13.878906-50.257812 0l-34.550782 34.546875 50.257813 50.257812zm0 0" fill="#ff4397"/><path d="m83.992188 14.386719-12.582032 12.582031c13.878906-13.878906 36.378906-13.878906 50.257813 0 13.878906 13.875 13.878906 36.375 0 50.253906l-21.96875 21.972656 34.546875-34.550781c13.878906-13.878906 13.878906-36.378906 0-50.257812-13.875-13.878907-36.375-13.878907-50.253906 0zm0 0" fill="#e12579"/><path d="m99.699219 103.195312c-1.027344 0-2.046875-.390624-2.828125-1.171874l-50.257813-50.253907c-1.5625-1.5625-1.5625-4.09375 0-5.65625l34.550781-34.554687c15.414063-15.410156 40.5-15.410156 55.914063 0 15.414063 15.417968 15.414063 40.5 0 55.914062l-34.550781 34.550782c-.78125.78125-1.804688 1.171874-2.828125 1.171874zm-44.601563-54.257812 44.601563 44.601562 31.71875-31.722656c12.296875-12.296875 12.296875-32.304687 0-44.601562s-32.300781-12.292969-44.597657 0zm79.152344 15.707031h.019531zm0 0" fill="#690589"/><path d="m40.015625 148.15625c-10.558594 0-20.488281-4.113281-27.957031-11.582031-7.46875-7.464844-11.578125-17.394531-11.578125-27.957031 0-10.558594 4.109375-20.488282 11.578125-27.957032l69.105468-69.101562c15.414063-15.410156 40.5-15.410156 55.914063 0 15.414063 15.417968 15.414063 40.5 0 55.914062l-69.105469 69.101563c-7.464844 7.46875-17.394531 11.582031-27.957031 11.582031zm69.105469-140.160156c-8.078125 0-16.152344 3.070312-22.300782 9.21875l-69.101562 69.105468c-5.957031 5.957032-9.238281 13.875-9.238281 22.296876 0 8.425781 3.28125 16.34375 9.238281 22.300781s13.875 9.238281 22.296875 9.238281c8.425781 0 16.34375-3.285156 22.300781-9.238281l69.101563-69.101563c12.296875-12.296875 12.296875-32.304687 0-44.601562-6.144531-6.144532-14.222657-9.21875-22.296875-9.21875zm25.128906 56.648437h.019531zm0 0" fill="#690589"/><path d="m83.992188 311.660156-69.101563-69.105468c-13.878906-13.878907-13.878906-36.378907 0-50.253907 13.875-13.878906 36.375-13.878906 50.253906 0l69.101563 69.101563c13.878906 13.875 13.878906 36.375 0 50.253906-13.875 13.878906-36.375 13.878906-50.253906.003906zm0 0" fill="#f4efed"/><path d="m27.46875 204.878906c13.878906-13.878906 36.378906-13.878906 50.257812 0l-12.582031-12.578125c-13.878906-13.878906-36.378906-13.878906-50.253906 0-13.878906 13.875-13.878906 36.375 0 50.253907l12.578125 12.582031c-13.878906-13.878907-13.878906-36.378907 0-50.257813zm0 0" fill="#fff"/><path d="m83.992188 311.660156c13.878906 13.875 36.378906 13.875 50.253906 0 13.878906-13.878906 13.878906-36.378906 0-50.257812l-34.550782-34.550782-50.253906 50.253907zm0 0" fill="#ff4397"/><path d="m134.25 261.402344-12.582031-12.578125c13.878906 13.875 13.878906 36.375 0 50.253906-13.875 13.878906-36.375 13.878906-50.253907 0l-21.972656-21.972656 34.550782 34.550781c13.878906 13.878906 36.378906 13.878906 50.257812 0 13.878906-13.875 13.878906-36.378906 0-50.253906zm0 0" fill="#e12579"/><path d="m109.121094 326.050781c-10.128906 0-20.25-3.855469-27.957032-11.5625l-34.550781-34.550781c-1.5625-1.5625-1.5625-4.09375 0-5.65625l50.257813-50.257812c1.5-1.5 4.15625-1.5 5.65625 0l34.546875 34.550781c7.46875 7.464843 11.582031 17.394531 11.582031 27.957031s-4.113281 20.488281-11.582031 27.957031c-7.703125 7.703125-17.832031 11.558594-27.953125 11.5625zm-54.023438-48.945312 31.722656 31.722656c12.296876 12.292969 32.300782 12.292969 44.597657 0 5.957031-5.957031 9.238281-13.875 9.238281-22.300781 0-8.421875-3.28125-16.339844-9.238281-22.296875l-31.71875-31.722657zm0 0" fill="#690589"/><path d="m109.121094 326.046875c-10.125 0-20.25-3.855469-27.957032-11.558594l-69.101562-69.105469c-7.46875-7.464843-11.582031-17.394531-11.582031-27.957031s4.113281-20.488281 11.582031-27.957031c15.414062-15.410156 40.5-15.414062 55.914062 0l69.101563 69.105469c7.46875 7.464843 11.578125 17.394531 11.578125 27.957031 0 10.558594-4.109375 20.488281-11.578125 27.957031-7.707031 7.703125-17.832031 11.558594-27.957031 11.558594zm-22.300782-17.214844c12.296876 12.289063 32.304688 12.289063 44.597657 0 5.957031-5.960937 9.238281-13.878906 9.238281-22.300781 0-8.425781-3.28125-16.34375-9.238281-22.296875l-69.101563-69.105469c-12.296875-12.296875-32.304687-12.296875-44.597656 0-5.957031 5.957032-9.238281 13.875-9.238281 22.296875 0 8.425781 3.28125 16.34375 9.238281 22.300781zm0 0" fill="#690589"/><path d="m134.25 420.46875-69.101562 69.101562c-13.878907 13.875-36.378907 13.875-50.257813 0-13.878906-13.878906-13.878906-36.378906 0-50.257812l69.101563-69.101562c13.878906-13.878907 36.378906-13.878907 50.257812 0 13.878906 13.878906 13.878906 36.378906 0 50.257812zm0 0" fill="#f4efed"/><path d="m27.46875 476.992188c-13.878906-13.878907-13.878906-36.378907 0-50.257813l-12.578125 12.582031c-13.878906 13.875-13.878906 36.375 0 50.253906 13.875 13.878907 36.375 13.878907 50.253906 0l12.582031-12.578124c-13.878906 13.875-36.378906 13.875-50.257812 0zm0 0" fill="#fff"/><path d="m134.25 420.46875c13.878906-13.878906 13.878906-36.378906 0-50.257812-13.878906-13.878907-36.378906-13.878907-50.257812 0l-34.550782 34.550781 50.257813 50.257812zm0 0" fill="#ff4397"/><path d="m83.992188 370.210938-12.582032 12.578124c13.878906-13.875 36.378906-13.875 50.257813 0 13.878906 13.878907 13.878906 36.378907 0 50.257813l-21.96875 21.972656 34.546875-34.550781c13.878906-13.878906 13.878906-36.378906 0-50.257812-13.875-13.878907-36.375-13.878907-50.253906 0zm0 0" fill="#e12579"/><path d="m99.699219 459.019531c-1.0625 0-2.078125-.421875-2.828125-1.171875l-50.257813-50.257812c-1.5625-1.5625-1.5625-4.09375 0-5.65625l34.550781-34.546875c7.464844-7.46875 17.394532-11.582031 27.957032-11.582031 10.558594 0 20.488281 4.113281 27.957031 11.582031 7.46875 7.464843 11.578125 17.390625 11.578125 27.957031 0 10.558594-4.109375 20.488281-11.578125 27.957031l-34.550781 34.550781c-.75.746094-1.769532 1.167969-2.828125 1.167969zm-44.601563-54.257812 44.601563 44.601562 31.71875-31.722656c5.957031-5.957031 9.238281-13.875 9.238281-22.296875 0-8.425781-3.28125-16.34375-9.238281-22.300781s-13.875-9.234375-22.296875-9.234375-16.34375 3.277344-22.300782 9.234375zm0 0" fill="#690589"/><path d="m40.015625 503.960938c-10.121094 0-20.25-3.855469-27.953125-11.5625-7.46875-7.464844-11.582031-17.394532-11.582031-27.957032s4.113281-20.488281 11.582031-27.957031l69.101562-69.101563c7.464844-7.46875 17.394532-11.582031 27.957032-11.582031 10.558594 0 20.488281 4.113281 27.957031 11.582031 7.46875 7.464844 11.578125 17.394532 11.578125 27.957032s-4.109375 20.488281-11.578125 27.957031l-69.105469 69.101563c-7.707031 7.707031-17.832031 11.5625-27.957031 11.5625zm69.105469-140.160157c-8.421875 0-16.34375 3.28125-22.300782 9.238281l-69.101562 69.105469c-5.957031 5.957031-9.238281 13.875-9.238281 22.296875s3.28125 16.34375 9.238281 22.300782c12.292969 12.289062 32.300781 12.289062 44.597656 0l69.101563-69.105469c5.957031-5.957031 9.238281-13.875 9.238281-22.296875s-3.28125-16.34375-9.238281-22.300782c-5.953125-5.957031-13.875-9.238281-22.296875-9.238281zm0 0" fill="#690589"/></svg>