<svg height="504pt" viewBox="-45 0 504 504" width="504pt" xmlns="http://www.w3.org/2000/svg"><path d="m245.804688 109.4375h-182.800782c-11.046875 0-20-8.953125-20-20v-65.4375c0-11.046875 8.953125-20 20-20h182.800782c11.046874 0 20 8.953125 20 20v65.4375c0 11.046875-8.953126 20-20 20zm0 0" fill="#7bac51"/><path d="m254.808594 157.070312h-23.484375v-47.632812h-153.839844v47.628906h-23.484375c-27.613281 0-50 22.386719-50 50v272.933594c0 11.046875 8.953125 20 20 20h260.808594c11.046875 0 20-8.953125 20-20v-272.929688c0-27.613281-22.382813-50-50-50zm0 0" fill="#f4efed"/><path d="m245.804688 4h-20c11.046874 0 20 8.953125 20 20v65.4375c0 11.046875-8.953126 20-20 20h20c11.046874 0 20-8.953125 20-20v-65.4375c0-11.046875-8.953126-20-20-20zm0 0" fill="#5d8e33"/><path d="m63.003906 109.4375h20c-11.046875 0-20-8.953125-20-20v-65.4375c0-11.046875 8.953125-20 20-20h-20c-11.046875 0-20 8.953125-20 20v65.4375c0 11.046875 8.953125 20 20 20zm0 0" fill="#99ca6f"/><path d="m231.324219 157.070312v-47.632812h-20v33.699219c0 7.695312 6.238281 13.929687 13.933593 13.929687h6.066407zm0 0" fill="#d6d1cf"/><path d="m254.808594 157.070312h-20c27.617187 0 50 22.386719 50 50v272.929688c0 11.046875-8.953125 20-20 20h20c11.046875 0 20-8.953125 20-20v-272.929688c0-27.613281-22.382813-50-50-50zm0 0" fill="#d6d1cf"/><path d="m77.480469 157.070312v-47.632812h20v33.699219c0 7.695312-6.234375 13.929687-13.929688 13.929687h-6.070312zm0 0" fill="#fff"/><path d="m54 157.070312h20c-27.613281 0-50 22.386719-50 50v272.929688c0 11.046875 8.953125 20 20 20h-20c-11.046875 0-20-8.953125-20-20v-272.929688c0-27.613281 22.386719-50 50-50zm0 0" fill="#fff"/><path d="m4 222.90625h300.808594v206.277344h-300.808594zm0 0" fill="#fcc24c"/><path d="m4 222.90625h20v206.277344h-20zm0 0" fill="#fce06a"/><path d="m284.808594 222.90625h20v206.277344h-20zm0 0" fill="#dea42e"/><g fill="#690589"><path d="m245.804688 113.441406h-182.800782c-13.234375 0-24-10.765625-24-24v-65.441406c0-13.234375 10.765625-24 24-24h182.800782c13.234374 0 24 10.765625 24 24v65.441406c0 13.234375-10.765626 24-24 24zm-182.800782-105.441406c-8.820312 0-16 7.179688-16 16v65.441406c0 8.820313 7.179688 16 16 16h182.800782c8.824218 0 16-7.179687 16-16v-65.441406c0-8.820312-7.175782-16-16-16zm0 0"/><path d="m284.808594 504h-260.808594c-13.234375 0-24-10.765625-24-24v-272.929688c0-29.777343 24.222656-54 54-54h19.484375v-43.628906c0-2.210937 1.792969-4 4-4h153.84375c2.207031 0 4 1.789063 4 4v43.628906h19.480469c29.777344 0 54 24.222657 54 54v272.929688c0 13.234375-10.765625 24-24 24zm-230.808594-342.929688c-25.363281 0-46 20.632813-46 46v272.929688c0 8.820312 7.179688 16 16 16h260.808594c8.824218 0 16-7.179688 16-16v-272.929688c0-25.367187-20.632813-46-46-46h-23.480469c-2.207031 0-4-1.792968-4-4v-43.628906h-145.84375v43.628906c0 2.207032-1.792969 4-4 4zm0 0"/><path d="m304.808594 433.183594h-300.808594c-2.207031 0-4-1.792969-4-4v-206.277344c0-2.207031 1.792969-4 4-4h300.808594c2.210937 0 4 1.792969 4 4v206.277344c0 2.207031-1.789063 4-4 4zm-296.808594-8h292.808594v-198.277344h-292.808594zm0 0"/><path d="m20 277.765625c-2.207031 0-4-1.792969-4-4v-24c0-2.210937 1.792969-4 4-4s4 1.789063 4 4v24c0 2.207031-1.792969 4-4 4zm0 0"/><path d="m74.945312 91.457031c-2.210937 0-4-1.792969-4-4v-57.414062c0-2.207031 1.789063-4 4-4 2.207032 0 4 1.792969 4 4v57.414062c0 2.207031-1.792968 4-4 4zm0 0"/><path d="m114.675781 91.457031c-2.210937 0-4-1.792969-4-4v-57.414062c0-2.207031 1.789063-4 4-4 2.207031 0 4 1.792969 4 4v57.414062c0 2.207031-1.792969 4-4 4zm0 0"/><path d="m154.40625 91.457031c-2.207031 0-4-1.792969-4-4v-57.414062c0-2.207031 1.792969-4 4-4s4 1.792969 4 4v57.414062c0 2.207031-1.792969 4-4 4zm0 0"/><path d="m194.132812 91.457031c-2.207031 0-4-1.792969-4-4v-57.414062c0-2.207031 1.792969-4 4-4 2.210938 0 4 1.792969 4 4v57.414062c0 2.207031-1.789062 4-4 4zm0 0"/><path d="m233.867188 91.457031c-2.210938 0-4-1.792969-4-4v-57.414062c0-2.207031 1.789062-4 4-4 2.207031 0 4 1.792969 4 4v57.414062c0 2.207031-1.792969 4-4 4zm0 0"/></g><path d="m212.933594 373.203125c24.042968-3.710937 44.109375-12.863281 53.988281-23.386719-12.59375-7.058594-34.480469-9.746094-58.527344-6.035156-2.59375.398438-5.128906.871094-7.625 1.394531 5.832031-4.476562 11.640625-9.546875 17.28125-15.183593 21.5625-21.5625 35.070313-45.6875 37.261719-63.648438-17.960938 2.191406-42.085938 15.699219-63.648438 37.261719-7.417968 7.417969-13.855468 15.136719-19.234374 22.808593 3.675781-14.902343 5.765624-31.984374 5.765624-50.152343 0-38.890625-9.574218-72.820313-23.792968-90.992188-14.21875 18.171875-23.789063 52.101563-23.789063 90.992188 0 18.167969 2.089844 35.25 5.765625 50.152343-5.378906-7.671874-11.816406-15.390624-19.234375-22.808593-21.566406-21.5625-45.6875-35.070313-63.648437-37.261719 2.191406 17.960938 15.699218 42.085938 37.261718 63.648438 5.636719 5.636718 11.449219 10.707031 17.28125 15.183593-2.492187-.523437-5.03125-.996093-7.625-1.394531-24.042968-3.710938-45.933593-1.023438-58.523437 6.035156 9.878906 10.523438 29.945313 19.675782 53.988281 23.386719 10.988282 1.691406 21.515625 2.039063 30.921875 1.253906-2.363281 1.414063-4.734375 2.984375-7.085937 4.703125-12.441406 9.121094-21.054688 20.136719-23.53125 28.949219 9.144531.285156 22.246094-4.605469 34.6875-13.722656 11.484375-8.414063 19.6875-18.441407 22.839844-26.863281.183593-.097657.386718-.191407.566406-.292969.039062.003906.085937.015625.128906.019531.042969-.003906.085938-.015625.128906-.019531.183594.101562.382813.191406.566406.292969 3.152344 8.421874 11.355469 18.449218 22.839844 26.863281 12.441406 9.117187 25.539063 14.007812 34.691406 13.722656-2.480468-8.8125-11.09375-19.828125-23.535156-28.949219-2.347656-1.71875-4.722656-3.289062-7.085937-4.703125 9.40625.785157 19.929687.4375 30.921875-1.253906zm0 0" fill="#7bac51"/><path d="m154.40625 433.183594c-2.207031 0-4-1.792969-4-4v-62.019532c0-2.207031 1.792969-4 4-4s4 1.792969 4 4v62.019532c0 2.207031-1.792969 4-4 4zm0 0" fill="#690589"/><path d="m211.84375 412.121094c-10.332031 0-23.804688-5.375-36.269531-14.503906-9.25-6.777344-16.667969-14.660157-21.167969-22.355469-4.503906 7.695312-11.921875 15.578125-21.171875 22.355469-12.835937 9.402343-26.757813 14.867187-37.179687 14.492187-1.230469-.042969-2.375-.640625-3.101563-1.636719-.726563-.992187-.957031-2.261718-.625-3.445312 2.550781-9.058594 10.382813-19.378906 21.28125-28.207032-5.984375-.148437-12.113281-.707031-18.339844-1.664062-24.3125-3.75-45.355469-12.949219-56.296875-24.601562-.839844-.898438-1.222656-2.132813-1.035156-3.347657.1875-1.21875.921875-2.277343 1.996094-2.878906 12.664062-7.101563 32.65625-9.761719 54.429687-7.375-2.1875-1.988281-4.332031-4.035156-6.429687-6.132813-21.648438-21.640624-36.003906-46.3125-38.40625-65.988281-.148438-1.21875.273437-2.445312 1.144531-3.3125.867187-.871093 2.082031-1.289062 3.308594-1.140625 19.675781 2.398438 44.34375 16.753906 65.992187 38.402344 3.222656 3.21875 6.296875 6.53125 9.21875 9.917969-1.699218-11.046875-2.578125-22.707031-2.578125-34.433594 0-38.800781 9.210938-73.738281 24.644531-93.460937.757813-.964844 1.917969-1.535157 3.148438-1.535157s2.390625.566407 3.148438 1.535157c15.429687 19.722656 24.644531 54.660156 24.644531 93.460937 0 11.726563-.882813 23.386719-2.578125 34.4375 2.917968-3.390625 5.996094-6.703125 9.214844-9.921875 21.648437-21.648438 46.316406-36.003906 65.992187-38.402344 1.222656-.144531 2.441406.273438 3.3125 1.140625.871094.867188 1.292969 2.09375 1.140625 3.3125-2.402344 19.675781-16.757812 44.347657-38.402344 65.988281-2.097656 2.101563-4.246094 4.144532-6.433594 6.132813 21.773438-2.378906 41.769532.277344 54.429688 7.375 1.074219.601563 1.8125 1.660156 2 2.878906.1875 1.214844-.195312 2.449219-1.039062 3.347657-10.941407 11.652343-31.984376 20.851562-56.296876 24.601562-6.226562.957031-12.359374 1.515625-18.339843 1.664062 10.898437 8.828126 18.730469 19.148438 21.277343 28.207032.335938 1.183594.105469 2.453125-.621093 3.445312-.730469.996094-1.871094 1.597656-3.101563 1.636719-.296875.007813-.605468.011719-.910156.011719zm-85.042969-41.664063c1.726563 0 3.269531 1.113281 3.808594 2.777344.570313 1.773437-.160156 3.703125-1.753906 4.65625-2.292969 1.375-4.574219 2.886719-6.777344 4.5-8.824219 6.464844-15.917969 14.167969-19.699219 21.175781 7.824219-1.492187 17.304688-5.9375 26.128906-12.40625 10.429688-7.640625 18.453126-17.003906 21.457032-25.035156.339844-.910156 1-1.664062 1.855468-2.125l.347657-.179688c.734375-.414062 1.726562-.664062 2.574219-.5625.617187.039063 1.238281.195313 1.746093.480469l.507813.261719c.855468.457031 1.515625 1.210938 1.855468 2.125 3.003907 8.03125 11.023438 17.390625 21.457032 25.035156 8.828125 6.46875 18.308594 10.914063 26.128906 12.40625-3.78125-7.007812-10.875-14.707031-19.703125-21.175781-2.207031-1.617187-4.484375-3.128906-6.773437-4.5-1.59375-.953125-2.324219-2.882813-1.753907-4.65625.570313-1.773437 2.269531-2.910156 4.140625-2.761719 9.359375.78125 19.726563.355469 29.976563-1.222656 19.425781-2.996094 36.976562-9.84375 47.523437-18.34375-12.621094-4.925781-31.417968-6.167969-50.839844-3.171875-2.359374.367187-4.785156.808594-7.414062 1.359375-1.832031.375-3.675781-.550781-4.453125-2.246094-.78125-1.695312-.28125-3.707031 1.199219-4.839844 5.851562-4.496093 11.53125-9.488281 16.886718-14.84375 18.121094-18.121093 31.144532-38.972656 35.132813-55.863281-16.890625 3.988281-37.742187 17.011719-55.863281 35.132813-7.035156 7.035156-13.355469 14.53125-18.789063 22.277344-1.105469 1.574218-3.179687 2.144531-4.929687 1.34375-1.75-.796876-2.6875-2.730469-2.226563-4.597657 3.695313-14.988281 5.648438-32 5.648438-49.195312 0-33.726563-7.5-65.238281-19.792969-84.109375-12.292969 18.867187-19.792969 50.378906-19.792969 84.109375 0 17.195312 1.953125 34.207031 5.652344 49.195312.457031 1.867188-.476563 3.800781-2.230469 4.597657-1.75.800781-3.824218.230468-4.929687-1.34375-5.425781-7.742188-11.75-15.238282-18.789063-22.277344-18.117187-18.121094-38.96875-31.144532-55.859375-35.132813 3.988281 16.890625 17.011719 37.742188 35.132813 55.863281 5.351562 5.351563 11.03125 10.34375 16.886718 14.84375 1.480469 1.132813 1.980469 3.144532 1.199219 4.839844-.78125 1.695313-2.625 2.625-4.453125 2.246094-2.628906-.550781-5.050781-.992188-7.414062-1.359375-19.421875-2.996094-38.21875-1.75-50.835938 3.171875 10.542969 8.5 28.09375 15.347656 47.519532 18.34375 10.25 1.578125 20.617187 2 29.980468 1.222656.105469-.011718.21875-.015625.328125-.015625zm86.132813 2.746094h.019531zm0 0" fill="#690589"/><path d="m304.808594 500h-105.351563l52.675781-91.238281 17.648438-30.5625c15.570312-26.96875 54.492188-26.96875 70.0625 0l17.644531 30.5625 52.675781 91.238281zm0 0" fill="#7bac51"/><path d="m357.488281 408.761719-17.644531-30.5625c-9.136719-15.820313-26.304688-22.34375-42.082031-19.605469 8.40625 3.101562 15.949219 9.089844 21.019531 17.980469l17.644531 30.972656 52.675781 92.453125h21.0625zm0 0" fill="#5d8e33"/><path d="m290.839844 376.574219c5.066406-8.894531 12.613281-14.878907 21.019531-17.980469-15.78125-2.742188-32.949219 3.785156-42.082031 19.601562l-17.644532 30.5625-52.675781 91.242188h21.0625l52.675781-92.457031zm0 0" fill="#99ca6f"/><path d="m410.164062 504h-210.707031c-1.429687 0-2.75-.761719-3.464843-2-.714844-1.238281-.714844-2.761719 0-4l70.320312-121.800781c8.039062-13.917969 22.425781-22.226563 38.496094-22.226563 16.070312 0 30.460937 8.308594 38.496094 22.226563l70.324218 121.800781c.714844 1.238281.714844 2.761719 0 4s-2.035156 2-3.464844 2zm-203.78125-8h196.851563l-66.855469-115.800781c-6.589844-11.414063-18.390625-18.226563-31.570312-18.226563-13.175782 0-24.976563 6.8125-31.566406 18.226563zm0 0" fill="#690589"/></svg>