<svg height="503pt" viewBox="0 -3 503.9951 503" width="503pt" xmlns="http://www.w3.org/2000/svg"><path d="m68.976562 361.300781-64.976562 10.109375 10.109375-64.976562 319.9375-296.070313c8.648437-8.003906 22.078125-7.742187 30.410156.589844s8.589844 21.757813.585938 30.410156zm0 0" fill="#fcc24c"/><path d="m170.027344 471.285156-66.125-66.125c-3.453125-3.457031-3.453125-9.058594 0-12.515625l314.871094-314.863281c3.453124-3.457031 9.054687-3.457031 12.511718 0l66.125 66.125c3.457032 3.457031 3.457032 9.058594 0 12.511719l-314.867187 314.867187c-3.457031 3.453125-9.058594 3.453125-12.515625 0zm0 0" fill="#ff4397"/><path d="m110.289062 411.546875 53.355469 53.351563-26.820312 26.820312c-3.457031 3.457031-9.058594 3.457031-12.515625 0l-40.839844-40.839844c-3.457031-3.453125-3.457031-9.058594 0-12.511718zm0 0" fill="#f4efed"/><path d="m497.40625 143.902344-12.511719-12.511719c3.453125 3.457031 3.453125 9.058594 0 12.511719l-314.867187 314.867187c-3.457032 3.457031-9.058594 3.457031-12.515625 0l12.515625 12.515625c3.457031 3.453125 9.058594 3.453125 12.515625 0l314.863281-314.867187c3.457031-3.453125 3.457031-9.058594 0-12.515625zm0 0" fill="#e12579"/><path d="m431.285156 77.78125 12.515625 12.515625c-3.457031-3.457031-9.058593-3.457031-12.515625 0l-314.867187 314.863281c-3.453125 3.457032-3.453125 9.058594 0 12.515625l-12.511719-12.515625c-3.457031-3.453125-3.457031-9.054687 0-12.511718l314.867188-314.867188c3.453124-3.457031 9.054687-3.457031 12.511718 0zm0 0" fill="#ff61b5"/><path d="m365.046875 41.359375c8.003906-8.648437 7.742187-22.074219-.589844-30.40625-1.472656-1.472656-3.105469-2.679687-4.839843-3.644531 4.507812 8.085937 3.535156 18.441406-3.054688 25.566406l-296.074219 319.941406-56.488281 18.59375 64.976562-10.109375zm0 0" fill="#dea42e"/><path d="m334.046875 10.363281c8.648437-8.003906 22.078125-7.742187 30.410156.589844 1.46875 1.472656 2.675781 3.105469 3.640625 4.84375-8.085937-4.507813-18.441406-3.535156-25.5625 3.054687l-319.945312 296.066407-18.589844 56.492187 10.109375-64.976562zm0 0" fill="#fce06a"/><g fill="#690589"><path d="m4 375.410156c-1.050781 0-2.074219-.417968-2.828125-1.171875-.902344-.902343-1.320313-2.183593-1.125-3.445312l10.109375-64.976563c.136719-.886718.574219-1.707031 1.234375-2.320312l319.941406-296.066406c10.269531-9.503907 26.0625-9.199219 35.953125.695312 9.890625 9.890625 10.199219 25.683594.695313 35.949219l-296.070313 319.945312c-.609375.660157-1.429687 1.09375-2.320312 1.234375l-64.972656 10.109375c-.207032.03125-.414063.046875-.617188.046875zm13.84375-66.984375-9.050781 58.191407 58.191406-9.054688 295.125-318.917969c6.570313-7.101562 6.359375-18.023437-.480469-24.863281s-17.761718-7.050781-24.863281-.480469zm51.132812 52.875h.019532zm0 0"/><path d="m68.976562 365.300781c-1.023437 0-2.046874-.390625-2.828124-1.171875l-54.867188-54.867187c-1.5625-1.5625-1.5625-4.09375 0-5.65625 1.558594-1.5625 4.09375-1.5625 5.65625 0l54.867188 54.867187c1.5625 1.5625 1.5625 4.09375 0 5.65625-.78125.78125-1.804688 1.171875-2.828126 1.171875zm0 0"/><path d="m176.285156 477.875c-3.429687 0-6.65625-1.335938-9.082031-3.761719l-66.125-66.125c-2.429687-2.425781-3.765625-5.65625-3.765625-9.085937 0-3.429688 1.335938-6.660156 3.765625-9.085938l314.867187-314.863281c5.007813-5.007813 13.160157-5.007813 18.167969 0l66.125 66.125c5.007813 5.011719 5.007813 13.160156 0 18.167969l-314.867187 314.867187c-2.425782 2.425781-5.652344 3.761719-9.085938 3.761719zm248.742188-398.683594c-1.242188 0-2.484375.472656-3.429688 1.417969l-314.863281 314.867187c-.917969.914063-1.421875 2.132813-1.421875 3.425782 0 1.296875.503906 2.511718 1.421875 3.429687l66.125 66.125c1.832031 1.832031 5.023437 1.832031 6.855469 0l314.863281-314.867187c1.890625-1.890625 1.890625-4.96875 0-6.859375l-66.121094-66.121094c-.945312-.945313-2.1875-1.417969-3.429687-1.417969zm0 0"/><path d="m361.558594 159.015625c-1.023438 0-2.046875-.390625-2.828125-1.171875-1.5625-1.5625-1.5625-4.097656 0-5.65625l16.972656-16.972656c1.558594-1.5625 4.09375-1.5625 5.65625 0 1.558594 1.5625 1.558594 4.09375 0 5.65625l-16.972656 16.972656c-.777344.78125-1.804688 1.171875-2.828125 1.171875zm0 0"/><path d="m130.566406 498.3125c-3.429687 0-6.660156-1.335938-9.085937-3.765625l-40.839844-40.839844c-5.007813-5.007812-5.007813-13.160156 0-18.167969l26.824219-26.820312c1.558594-1.5625 4.09375-1.5625 5.65625 0l53.351562 53.351562c1.5625 1.5625 1.5625 4.09375 0 5.65625l-26.820312 26.820313c-2.425782 2.429687-5.652344 3.765625-9.085938 3.765625zm-20.277344-81.109375-23.992187 23.992187c-1.890625 1.886719-1.890625 4.964844 0 6.855469l40.839844 40.839844c1.832031 1.832031 5.027343 1.832031 6.859375 0l23.988281-23.992187zm0 0"/><path d="m466.800781 191.023438c-1.023437 0-2.046875-.390626-2.828125-1.171876l-78.636718-78.636718c-1.5625-1.5625-1.5625-4.09375 0-5.65625 1.558593-1.5625 4.09375-1.5625 5.65625 0l78.636718 78.636718c1.5625 1.5625 1.5625 4.09375 0 5.65625-.78125.78125-1.804687 1.171876-2.828125 1.171876zm0 0"/></g></svg>