<svg height="504pt" viewBox="-25 0 504 504" width="504pt" xmlns="http://www.w3.org/2000/svg"><path d="m449.84375 62.613281c0 32.371094-26.242188 58.613281-58.613281 58.613281-32.371094 0-58.613281-26.242187-58.613281-58.613281 0-32.371093 26.242187-58.613281 58.613281-58.613281 32.371093 0 58.613281 26.242188 58.613281 58.613281zm0 0" fill="#ff4397"/><path d="m391.230469 4c-2.328125 0-4.621094.152344-6.875.414062 29.128906 3.40625 51.738281 28.15625 51.738281 58.199219s-22.609375 54.792969-51.738281 58.199219c2.253906.265625 4.546875.417969 6.875.417969 32.371093 0 58.613281-26.246094 58.613281-58.613281 0-32.371094-26.242188-58.617188-58.613281-58.617188zm0 0" fill="#e12579"/><path d="m391.230469 121.226562c2.328125 0 4.621093-.152343 6.875-.414062-29.128907-3.40625-51.738281-28.15625-51.738281-58.199219s22.609374-54.792969 51.738281-58.199219c-2.257813-.261718-4.546875-.414062-6.875-.414062-32.371094 0-58.613281 26.242188-58.613281 58.613281 0 32.371094 26.242187 58.613281 58.613281 58.613281zm0 0" fill="#ff61b5"/><path d="m342.875 376.335938c47.640625-7.347657 87.394531-25.484376 106.96875-46.332032-24.949219-13.988281-68.316406-19.304687-115.957031-11.960937-5.136719.792969-10.164063 1.734375-15.101563 2.765625 11.554688-8.867188 23.070313-18.914063 34.234375-30.082032 42.726563-42.722656 69.480469-90.515624 73.824219-126.101562-35.585938 4.34375-83.378906 31.101562-126.097656 73.824219-14.699219 14.695312-27.453125 29.992187-38.109375 45.183593 7.28125-29.523437 11.421875-63.367187 11.421875-99.359374 0-77.050782-18.964844-144.273438-47.136719-180.277344-28.171875 36.003906-47.140625 103.226562-47.140625 180.277344 0 35.992187 4.144531 69.835937 11.425781 99.359374-10.65625-15.191406-23.410156-30.488281-38.109375-45.183593-42.722656-42.722657-90.511718-69.480469-126.097656-73.824219 4.34375 35.585938 31.101562 83.378906 73.820312 126.101562 11.167969 11.167969 22.683594 21.214844 34.234376 30.082032-4.9375-1.03125-9.960938-1.972656-15.101563-2.765625-47.636719-7.34375-91.007813-2.027344-115.953125 11.960937 19.574219 20.847656 59.328125 38.984375 106.964844 46.332032 21.773437 3.355468 42.628906 4.039062 61.265625 2.488281-4.683594 2.800781-9.382813 5.910156-14.039063 9.320312-24.652344 18.066407-41.710937 39.894531-46.625 57.347657 18.125.574218 44.078125-9.117188 68.730469-27.183594 22.746094-16.671875 39.003906-36.539063 45.246094-53.222656.371093-.195313.761719-.378907 1.125-.578126.082031.011719.171875.03125.253906.039063.085937-.007813.171875-.027344.257813-.039063.359374.199219.753906.382813 1.121093.578126 6.238281 16.6875 22.5 36.554687 45.246094 53.222656 24.652344 18.0625 50.605469 27.757812 68.730469 27.183594-4.914063-17.453126-21.972656-39.28125-46.625-57.347657-4.652344-3.410156-9.355469-6.519531-14.039063-9.320312 18.640625 1.550781 39.492188.867187 61.261719-2.488281zm0 0" fill="#7bac51"/><g fill="#99ca6f"><path d="m47.691406 169.238281c5.972656 35.039063 32.226563 80.582031 73.128906 121.488281 7.351563 7.347657 14.851563 14.214844 22.414063 20.578126 3.011719 2.53125.761719 7.367187-3.125 6.761718-.050781-.007812-.101563-.015625-.152344-.023437-3.390625-.519531-6.75-.964844-10.09375-1.359375-9.800781-7.835938-19.546875-16.464844-29.039062-25.957032-42.722657-42.722656-69.480469-90.515624-73.820313-126.101562 6.519532.796875 13.453125 2.351562 20.6875 4.613281zm0 0"/><path d="m87.929688 314.964844c-26.105469 1.089844-48.535157 6.40625-63.929688 15.039062 19.574219 20.847656 59.328125 38.984375 106.964844 46.332032 10.75 1.65625 21.273437 2.65625 31.417968 3.0625-16.027343.636718-33.398437-.285157-51.417968-3.0625-47.636719-7.347657-87.390625-25.484376-106.964844-46.332032 19.203125-10.769531 49.347656-16.367187 83.929688-15.039062zm0 0"/><path d="m158.191406 388.144531c4.238282-3.101562 8.507813-5.945312 12.773438-8.542969 1.535156.011719 3.054687.007813 4.566406-.007812 4.582031-.050781 6.496094 5.75 2.800781 8.449219-.046875.035156-.097656.070312-.140625.101562-23.285156 17.0625-39.777344 37.476563-45.683594 54.394531-7.648437 2.121094-14.757812 3.152344-20.945312 2.953126 4.917969-17.453126 21.976562-39.28125 46.628906-57.347657zm0 0"/><path d="m191.207031 283.636719c10.101563 0 17.730469-9.167969 15.847657-19.089844-4.683594-24.699219-7.269532-51.816406-7.269532-80.273437 0 0-1.660156-124.582032 27.136719-180.273438-28.171875 36.003906-47.136719 103.226562-47.136719 180.273438 0 23.214843 1.742188 45.511718 4.921875 66.355468zm0 0"/></g><path d="m406.152344 169.238281c-5.96875 35.039063-32.222656 80.582031-73.128906 121.488281-7.351563 7.347657-14.851563 14.214844-22.414063 20.578126-3.007813 2.53125-.761719 7.367187 3.125 6.761718.054687-.007812.105469-.015625.15625-.023437 3.390625-.519531 6.75-.964844 10.089844-1.359375 9.804687-7.835938 19.550781-16.464844 29.042969-25.957032 42.722656-42.722656 69.480468-90.515624 73.820312-126.101562-6.523438.796875-13.457031 2.351562-20.691406 4.613281zm0 0" fill="#5d8e33"/><path d="m365.917969 314.964844c26.101562 1.089844 48.53125 6.40625 63.925781 15.039062-19.574219 20.847656-59.328125 38.984375-106.964844 46.332032-10.75 1.65625-21.273437 2.65625-31.417968 3.0625 16.023437.636718 33.398437-.285157 51.417968-3.0625 47.636719-7.347657 87.390625-25.484376 106.964844-46.332032-19.203125-10.769531-49.34375-16.367187-83.925781-15.039062zm0 0" fill="#5d8e33"/><path d="m295.652344 388.144531c-4.234375-3.101562-8.507813-5.945312-12.773438-8.542969-1.53125.011719-3.054687.007813-4.566406-.007812-4.582031-.050781-6.496094 5.75-2.796875 8.449219.042969.035156.09375.070312.136719.101562 23.285156 17.0625 39.78125 37.476563 45.683594 54.394531 7.644531 2.121094 14.757812 3.152344 20.945312 2.953126-4.917969-17.453126-21.976562-39.28125-46.628906-57.347657zm0 0" fill="#5d8e33"/><path d="m262.636719 283.636719c-10.101563 0-17.730469-9.167969-15.847657-19.089844 4.683594-24.699219 7.269532-51.816406 7.269532-80.273437 0 0 1.660156-124.582032-27.136719-180.273438 28.171875 36.003906 47.136719 103.226562 47.136719 180.273438 0 23.214843-1.742188 45.511718-4.921875 66.355468zm0 0" fill="#5d8e33"/><path d="m211.980469 504c-2.207031 0-4-1.792969-4-4s1.792969-4 4-4c6.035156 0 10.941406-4.90625 10.941406-10.941406v-120.683594c0-2.207031 1.792969-4 4-4s4 1.792969 4 4v120.683594c0 10.445312-8.496094 18.941406-18.941406 18.941406zm0 0" fill="#690589"/><path d="m113.148438 449.519531c-.578126 0-1.144532-.007812-1.707032-.027343-1.230468-.039063-2.375-.640626-3.101562-1.632813-.726563-.992187-.957032-2.265625-.625-3.449219 5.382812-19.121094 23.371094-41.359375 48.113281-59.488281.617187-.457031 1.238281-.902344 1.859375-1.347656-15.273438.304687-31.132812-.792969-47.328125-3.289063-46.621094-7.1875-88.492187-25.40625-109.273437-47.542968-.84375-.894532-1.226563-2.132813-1.039063-3.347657.1875-1.214843.921875-2.277343 1.996094-2.878906 26.4375-14.824219 71.722656-19.597656 118.246093-12.464844-7.664062-6.464843-15.125-13.324219-22.292968-20.496093-41.65625-41.652344-70.378906-90.871094-74.964844-128.441407-.148438-1.222656.269531-2.445312 1.140625-3.3125.867187-.871093 2.085937-1.289062 3.3125-1.144531 37.570313 4.585938 86.789063 33.308594 128.441406 74.964844 9.855469 9.855468 19.03125 20.15625 27.417969 30.769531-4.964844-25.839844-7.5625-53.867187-7.5625-82.117187 0-74.890626 18.390625-144.910157 47.988281-182.738282 1.519531-1.9375 4.785157-1.9375 6.300781 0 29.601563 37.828125 47.988282 107.847656 47.988282 182.738282 0 28.246093-2.597656 56.277343-7.558594 82.117187 8.382812-10.613281 17.558594-20.917969 27.414062-30.769531 41.65625-41.65625 90.871094-70.378906 128.441407-74.964844 1.222656-.140625 2.441406.273438 3.3125 1.144531.871093.871094 1.292969 2.089844 1.140625 3.3125-4.585938 37.570313-33.308594 86.789063-74.964844 128.441407-7.167969 7.171874-14.628906 14.03125-22.292969 20.496093 46.519531-7.125 91.808594-2.355469 118.246094 12.464844 1.074219.601563 1.808594 1.664063 1.996094 2.878906.1875 1.214844-.195313 2.453125-1.035157 3.347657-20.785156 22.136718-62.65625 40.359374-109.277343 47.542968-16.195313 2.5-32.054688 3.585938-47.328125 3.289063.625.445312 1.242187.890625 1.859375 1.347656 24.746093 18.128906 42.730469 40.371094 48.113281 59.488281.332031 1.183594.101562 2.457032-.625 3.449219s-1.871094 1.59375-3.101562 1.632813c-19.847657.628906-46.472657-9.828126-71.21875-27.957032-20.191407-14.796875-36.3125-32.917968-44.261719-49.507812-7.949219 16.589844-24.070313 34.710937-44.261719 49.507812-24.035156 17.617188-49.855469 27.984375-69.507812 27.984375zm59.082031-74.695312c1.726562 0 3.273437 1.113281 3.808593 2.777343.570313 1.773438-.160156 3.703126-1.757812 4.65625-4.632812 2.769532-9.25 5.835938-13.726562 9.117188-20.71875 15.183594-36.8125 33.855469-43.339844 49.976562 17.339844-1.367187 39.992187-11.082031 60.714844-26.269531 21.257812-15.574219 37.65625-34.792969 43.867187-51.394531.339844-.914062 1.003906-1.671875 1.867187-2.132812l.574219-.292969c.164063-.082031.332031-.164063.488281-.25.671876-.375 1.433594-.554688 2.195313-.492188.761719-.0625 1.523437.121094 2.195313.492188.15625.085937.324218.167969.488281.25l.574219.292969c.863281.460937 1.527343 1.21875 1.867187 2.132812 6.210937 16.605469 22.609375 35.820312 43.867187 51.394531 20.71875 15.183594 43.375 24.902344 60.714844 26.269531-6.527344-16.125-22.617187-34.792968-43.339844-49.976562-4.46875-3.277344-9.085937-6.34375-13.726562-9.117188-1.597656-.957031-2.328125-2.886718-1.757812-4.65625.570312-1.773437 2.28125-2.910156 4.140624-2.761718 18.855469 1.574218 39.710938.71875 60.324219-2.460938 42.199219-6.507812 80.140625-22.148437 100.851563-41.339844-25.53125-12.058593-66.417969-15.546874-108.621094-9.042968-4.722656.726562-9.597656 1.621094-14.894531 2.730468-1.824219.378907-3.671875-.550781-4.453125-2.246093-.78125-1.699219-.28125-3.707031 1.199218-4.84375 11.734376-9.011719 23.117188-19.015625 33.839844-29.738281 38.507813-38.507813 65.597656-83.335938 71.890625-118.511719-35.175781 6.292969-80 33.378906-118.511719 71.890625-14.089843 14.089844-26.761718 29.117187-37.660156 44.65625-1.105468 1.574218-3.179687 2.144531-4.929687 1.34375-1.753907-.796875-2.691407-2.730469-2.226563-4.601563 7.394532-29.984375 11.304688-64.015625 11.304688-98.402343 0-70.460938-16.4375-136.230469-43.136719-173.59375-26.703125 37.363281-43.136719 103.132812-43.136719 173.59375 0 34.390624 3.910156 68.417968 11.308594 98.402343.457031 1.871094-.476562 3.800781-2.230469 4.597657-1.75.800781-3.824219.234374-4.929687-1.34375-10.898438-15.539063-23.566406-30.558594-37.660156-44.652344-38.511719-38.507813-83.335938-65.597656-118.511719-71.890625 6.292969 35.175781 33.378906 80.003906 71.886719 118.511719 10.722656 10.722656 22.109374 20.726562 33.84375 29.738281 1.480468 1.136719 1.976562 3.144531 1.199218 4.84375-.78125 1.699219-2.632812 2.617187-4.457031 2.246093-5.292969-1.109374-10.167969-2-14.890625-2.730468-42.203125-6.507813-83.089844-3.019532-108.625 9.042968 20.714844 19.191407 58.652344 34.832032 100.855469 41.339844 20.609375 3.179688 41.46875 4.03125 60.320312 2.460938.117188-.011719.226563-.015625.335938-.015625zm0 0" fill="#690589"/><path d="m198.242188 141.300781c-.152344 0-.304688-.007812-.457032-.027343-2.195312-.25-3.773437-2.230469-3.523437-4.425782.929687-8.144531 2.058593-16.289062 3.367187-24.199218.359375-2.179688 2.425782-3.636719 4.597656-3.296876 2.179688.359376 3.65625 2.417969 3.292969 4.597657-1.285156 7.78125-2.394531 15.792969-3.308593 23.804687-.234376 2.039063-1.960938 3.546875-3.96875 3.546875zm0 0" fill="#690589"/><path d="m391.230469 125.226562c-34.527344 0-62.613281-28.089843-62.613281-62.613281 0-34.527343 28.085937-62.613281 62.613281-62.613281 34.527343 0 62.613281 28.089844 62.613281 62.613281 0 34.527344-28.085938 62.613281-62.613281 62.613281zm0-117.226562c-30.113281 0-54.613281 24.5-54.613281 54.613281 0 30.117188 24.5 54.617188 54.613281 54.617188s54.613281-24.5 54.613281-54.617188c0-30.113281-24.5-54.613281-54.613281-54.613281zm0 0" fill="#690589"/><path d="m421.796875 45.015625-12.96875-12.964844-17.597656 17.597657-17.601563-17.597657-12.964844 12.964844 17.601563 17.597656-17.601563 17.601563 12.964844 12.964844 17.601563-17.601563 17.597656 17.601563 12.96875-12.964844-17.601563-17.601563zm0 0" fill="#f4efed"/><path d="m408.832031 97.179688c-1.027343 0-2.046875-.390626-2.828125-1.171876l-14.773437-14.773437-14.773438 14.773437c-1.5625 1.558594-4.09375 1.558594-5.65625 0l-12.964843-12.964843c-.75-.75-1.171876-1.765625-1.171876-2.828125 0-1.058594.421876-2.078125 1.171876-2.828125l14.773437-14.773438-14.773437-14.769531c-.75-.75-1.171876-1.769531-1.171876-2.828125 0-1.0625.421876-2.078125 1.171876-2.828125l12.964843-12.964844c1.5625-1.5625 4.09375-1.5625 5.65625 0l14.773438 14.769532 14.773437-14.769532c1.558594-1.5625 4.09375-1.5625 5.652344 0l12.96875 12.964844c.75.75 1.171875 1.765625 1.171875 2.828125 0 1.058594-.421875 2.078125-1.171875 2.828125l-14.773438 14.769531 14.773438 14.773438c.75.75 1.171875 1.769531 1.171875 2.828125 0 1.0625-.421875 2.078125-1.171875 2.828125l-12.96875 12.964843c-.78125.78125-1.804688 1.171876-2.824219 1.171876zm-42.511719-16.964844 7.308594 7.304687 14.773438-14.769531c1.5625-1.5625 4.09375-1.5625 5.65625 0l14.773437 14.769531 7.304688-7.304687-14.769531-14.773438c-1.5625-1.5625-1.5625-4.09375 0-5.65625l14.769531-14.773437-7.304688-7.304688-14.773437 14.769531c-1.5625 1.5625-4.09375 1.5625-5.65625 0l-14.773438-14.769531-7.308594 7.304688 14.773438 14.773437c.75.75 1.171875 1.765625 1.171875 2.828125 0 1.058594-.421875 2.078125-1.171875 2.828125zm0 0" fill="#690589"/></svg>