<svg height="503pt" viewBox="-43 0 503 503.9155" width="503pt" xmlns="http://www.w3.org/2000/svg"><path d="m404.867188 467.339844h-391.421876c-4.964843 0-8.988281 4.023437-8.988281 8.988281v23.585937h409.394531v-23.585937c.003907-4.964844-4.023437-8.988281-8.984374-8.988281zm0 0" fill="#f4efed"/><path d="m22.433594 283.007812h373.445312v184.332032h-373.445312zm0 0" fill="#f4efed"/><path d="m404.867188 467.339844h-17.976563c4.964844 0 8.988281 4.023437 8.988281 8.988281v23.585937h17.976563v-23.585937c0-4.964844-4.027344-8.988281-8.988281-8.988281zm0 0" fill="#d6d1cf"/><path d="m13.445312 467.339844h17.976563c-4.964844 0-8.988281 4.023437-8.988281 8.988281v23.585937h-17.976563v-23.585937c0-4.964844 4.023438-8.988281 8.988281-8.988281zm0 0" fill="#fff"/><path d="m377.902344 283.007812h17.976562v184.332032h-17.976562zm0 0" fill="#d6d1cf"/><path d="m22.433594 283.007812h17.976562v184.332032h-17.976562zm0 0" fill="#fff"/><path d="m64.796875 349.929688h78.875v117.410156h-78.875zm0 0" fill="#fcc24c"/><path d="m413.855469 503.914062h-409.398438c-2.207031 0-4-1.789062-4-4v-23.585937c0-7.164063 5.828125-12.988281 12.988281-12.988281h391.417969c7.164063 0 12.988281 5.824218 12.988281 12.988281v23.585937c.003907 2.210938-1.789062 4-3.996093 4zm-405.398438-8h401.394531v-19.585937c0-2.75-2.238281-4.988281-4.988281-4.988281h-391.414062c-2.75 0-4.988281 2.238281-4.988281 4.988281v19.585937zm0 0" fill="#690589"/><path d="m395.875 471.339844h-373.4375c-2.210938 0-4-1.792969-4-4v-184.332032c0-2.207031 1.789062-4 4-4h373.4375c2.207031 0 4 1.792969 4 4v184.332032c0 2.207031-1.789062 4-4 4zm-369.4375-8h365.4375v-176.332032h-365.4375zm0 0" fill="#690589"/><path d="m143.671875 471.339844h-78.875c-2.210937 0-4-1.792969-4-4v-117.410156c0-2.207032 1.789063-4 4-4h78.875c2.207031 0 4 1.792968 4 4v117.410156c0 2.207031-1.792969 4-4 4zm-74.875-8h70.875v-109.410156h-70.875zm0 0" fill="#690589"/><path d="m62.945312 170.167969h-58.488281v128.757812c0 16.152344 13.09375 29.242188 29.242188 29.242188 16.152343 0 29.242187-13.089844 29.242187-29.242188v-128.757812zm0 0" fill="#ff61b5"/><path d="m179.914062 170.167969h-58.484374v128.757812c0 16.152344 13.089843 29.242188 29.238281 29.242188 16.152343 0 29.242187-13.089844 29.242187-29.242188v-128.757812zm0 0" fill="#ff4397"/><path d="m296.882812 170.167969h-58.484374v128.757812c0 16.152344 13.09375 29.242188 29.242187 29.242188 16.152344 0 29.242187-13.089844 29.242187-29.242188zm0 0" fill="#ff4397"/><path d="m413.855469 170.167969h-58.484375v128.757812c0 16.152344 13.089844 29.242188 29.242187 29.242188 16.148438 0 29.242188-13.089844 29.242188-29.242188zm0 0" fill="#e12579"/><path d="m121.429688 170.167969h-58.484376v128.757812c0 16.152344 13.089844 29.242188 29.242188 29.242188 16.148438 0 29.242188-13.089844 29.242188-29.242188zm0 0" fill="#f4efed"/><path d="m238.398438 170.167969h-58.484376v128.757812c0 16.152344 13.089844 29.242188 29.242188 29.242188 16.148438 0 29.242188-13.089844 29.242188-29.242188zm0 0" fill="#f4efed"/><path d="m355.367188 170.167969h-58.484376v128.757812c0 16.152344 13.089844 29.242188 29.242188 29.242188 16.148438 0 29.242188-13.089844 29.242188-29.242188zm0 0" fill="#f4efed"/><g fill="#690589"><path d="m33.699219 332.167969c-18.328125 0-33.242188-14.910157-33.242188-33.242188v-128.757812c0-2.207031 1.792969-4 4-4h58.484375c2.207032 0 4 1.792969 4 4v128.757812c.003906 18.332031-14.910156 33.242188-33.242187 33.242188zm-25.242188-158v124.757812c0 13.917969 11.324219 25.242188 25.242188 25.242188s25.242187-11.324219 25.242187-25.242188v-124.757812zm0 0"/><path d="m18.839844 233.929688c-2.207032 0-4-1.789063-4-4v-24c0-2.207032 1.792968-4 4-4 2.207031 0 4 1.792968 4 4v24c0 2.210937-1.792969 4-4 4zm0 0"/><path d="m92.1875 332.167969c-18.332031 0-33.242188-14.910157-33.242188-33.242188v-128.757812c0-2.207031 1.789063-4 4-4h58.484376c2.207031 0 4 1.792969 4 4v128.757812c0 18.332031-14.914063 33.242188-33.242188 33.242188zm-25.242188-158v124.757812c0 13.917969 11.324219 25.242188 25.242188 25.242188s25.242188-11.324219 25.242188-25.242188v-124.757812zm0 0"/><path d="m150.671875 332.167969c-18.332031 0-33.242187-14.910157-33.242187-33.242188v-128.757812c0-2.207031 1.792968-4 4-4h58.484374c2.207032 0 4 1.792969 4 4v128.757812c0 18.332031-14.914062 33.242188-33.242187 33.242188zm-25.242187-158v124.757812c0 13.917969 11.324218 25.242188 25.242187 25.242188s25.242187-11.324219 25.242187-25.242188v-124.757812zm0 0"/><path d="m209.15625 332.167969c-18.332031 0-33.242188-14.910157-33.242188-33.242188v-128.757812c0-2.207031 1.792969-4 4-4h58.484376c2.207031 0 4 1.792969 4 4v128.757812c0 18.332031-14.914063 33.242188-33.242188 33.242188zm-25.242188-158v124.757812c0 13.917969 11.324219 25.242188 25.242188 25.242188s25.242188-11.324219 25.242188-25.242188v-124.757812zm0 0"/><path d="m267.640625 332.167969c-18.332031 0-33.242187-14.910157-33.242187-33.242188v-128.757812c0-2.207031 1.792968-4 4-4h58.484374c2.207032 0 4 1.792969 4 4v128.757812c0 18.332031-14.914062 33.242188-33.242187 33.242188zm-25.242187-158v124.757812c0 13.917969 11.324218 25.242188 25.242187 25.242188s25.242187-11.324219 25.242187-25.242188v-124.757812zm0 0"/><path d="m326.125 332.167969c-18.328125 0-33.242188-14.910157-33.242188-33.242188v-128.757812c0-2.207031 1.789063-4 4-4h58.484376c2.207031 0 4 1.792969 4 4v128.757812c0 18.332031-14.910157 33.242188-33.242188 33.242188zm-25.242188-158v124.757812c0 13.917969 11.324219 25.242188 25.242188 25.242188s25.242188-11.324219 25.242188-25.242188v-124.757812zm0 0"/><path d="m384.613281 332.167969c-18.332031 0-33.242187-14.910157-33.242187-33.242188v-128.757812c0-2.207031 1.789062-4 4-4h58.484375c2.207031 0 4 1.792969 4 4v128.757812c0 18.332031-14.914063 33.242188-33.242188 33.242188zm-25.246093-158v124.757812c0 13.917969 11.324218 25.242188 25.242187 25.242188s25.242187-11.324219 25.242187-25.242188v-124.757812zm0 0"/><path d="m84.324219 425.03125c-6.574219 0-11.925781-5.355469-11.925781-11.929688 0-6.578124 5.351562-11.929687 11.925781-11.929687 6.578125 0 11.929687 5.351563 11.929687 11.929687 0 6.574219-5.351562 11.929688-11.929687 11.929688zm0-15.859375c-2.164063 0-3.925781 1.761719-3.925781 3.929687 0 2.164063 1.761718 3.929688 3.925781 3.929688 2.167969 0 3.929687-1.765625 3.929687-3.929688 0-2.167968-1.761718-3.929687-3.929687-3.929687zm0 0"/></g><path d="m277.300781 222.734375c27.996094-4.316406 51.359375-14.976563 62.863281-27.230469-14.660156-8.21875-40.148437-11.34375-68.144531-7.027344-3.019531.46875-5.972656 1.019532-8.875 1.625 6.789063-5.210937 13.554688-11.117187 20.121094-17.679687 25.105469-25.105469 40.832031-53.191406 43.382813-74.105469-20.910157 2.550782-49 18.277344-74.105469 43.386719-8.640625 8.636719-16.136719 17.625-22.398438 26.554687 4.28125-17.351562 6.714844-37.242187 6.714844-58.394531 0-45.28125-11.148437-84.789062-27.703125-105.945312-16.554688 21.15625-27.703125 60.664062-27.703125 105.945312 0 21.152344 2.433594 41.042969 6.710937 58.394531-6.261718-8.929687-13.757812-17.917968-22.394531-26.554687-25.109375-25.109375-53.195312-40.835937-74.109375-43.386719 2.554688 20.910156 18.28125 49 43.386719 74.105469 6.566406 6.566406 13.332031 12.46875 20.121094 17.679687-2.902344-.605468-5.855469-1.15625-8.875-1.625-27.996094-4.316406-53.488281-1.191406-68.148438 7.027344 11.503907 12.253906 34.871094 22.914063 62.863281 27.230469 12.796876 1.972656 25.050782 2.378906 36.007813 1.464844-2.757813 1.644531-5.519531 3.472656-8.25 5.476562-14.488281 10.617188-24.515625 23.449219-27.402344 33.707031 10.652344.335938 25.902344-5.359374 40.390625-15.976562 13.367188-9.796875 22.925782-21.476562 26.59375-31.28125.214844-.117188.445313-.222656.65625-.339844.050782.007813.105469.019532.152344.023438.050781-.003906.101562-.015625.152344-.023438.210937.117188.441406.222656.660156.339844 3.667969 9.804688 13.222656 21.484375 26.589844 31.28125 14.488281 10.617188 29.742187 16.3125 40.394531 15.976562-2.890625-10.257812-12.914063-23.089843-27.402344-33.707031-2.734375-2.003906-5.5-3.832031-8.25-5.476562 10.949219.914062 23.207031.511719 36-1.464844zm0 0" fill="#7bac51"/><path d="m103.820312 101.027344c3.511719 20.589844 18.941407 47.355468 42.980469 71.398437 4.320313 4.320313 8.730469 8.355469 13.171875 12.09375 1.769532 1.488281.449219 4.328125-1.835937 3.976563-.03125-.003906-.0625-.011719-.089844-.015625-1.992187-.308594-3.96875-.566407-5.933594-.800781-5.761719-4.605469-11.488281-9.675782-17.066406-15.253907-25.105469-25.109375-40.832031-53.195312-43.386719-74.109375 3.832032.46875 7.910156 1.382813 12.160156 2.710938zm0 0" fill="#99ca6f"/><path d="m127.46875 186.667969c-15.339844.640625-28.519531 3.765625-37.570312 8.839843 11.503906 12.253907 34.871093 22.910157 62.867187 27.230469 6.316406.972657 12.5 1.5625 18.460937 1.800781-9.417968.375-19.625-.167968-30.21875-1.800781-27.992187-4.320312-51.359374-14.976562-62.863281-27.230469 11.289063-6.328124 29-9.617187 49.324219-8.839843zm0 0" fill="#99ca6f"/><path d="m168.765625 229.675781c2.484375-1.824219 5-3.492187 7.507813-5.019531.898437.003906 1.792968.003906 2.683593-.003906 2.691407-.03125 3.816407 3.378906 1.644531 4.964844-.03125.019531-.054687.039062-.082031.058593-13.683593 10.027344-23.378906 22.027344-26.847656 31.96875-4.492187 1.246094-8.675781 1.851563-12.308594 1.738281 2.886719-10.257812 12.914063-23.089843 27.402344-33.707031zm0 0" fill="#99ca6f"/><path d="m188.164062 168.257812c5.9375 0 10.421876-5.386718 9.316407-11.21875-2.753907-14.515624-4.273438-30.453124-4.273438-47.175781 0 0-.976562-73.21875 15.949219-105.949219-16.554688 21.160157-27.703125 60.667969-27.703125 105.949219 0 13.640625 1.023437 26.746094 2.890625 38.996094zm0 0" fill="#99ca6f"/><path d="m314.488281 101.027344c-3.507812 20.589844-18.9375 47.355468-42.980469 71.398437-4.316406 4.320313-8.726562 8.355469-13.171874 12.09375-1.765626 1.488281-.445313 4.328125 1.839843 3.976563.03125-.003906.058594-.011719.089844-.015625 1.992187-.308594 3.96875-.566407 5.933594-.800781 5.757812-4.605469 11.488281-9.675782 17.066406-15.253907 25.105469-25.109375 40.832031-53.195312 43.382813-74.109375-3.832032.46875-7.90625 1.382813-12.160157 2.710938zm0 0" fill="#5d8e33"/><path d="m290.839844 186.667969c15.34375.640625 28.523437 3.765625 37.570312 8.839843-11.503906 12.253907-34.867187 22.910157-62.863281 27.230469-6.316406.972657-12.5 1.5625-18.464844 1.800781 9.421875.375 19.628907-.167968 30.21875-1.800781 27.996094-4.320312 51.359375-14.976562 62.863281-27.230469-11.285156-6.328124-29-9.617187-49.324218-8.839843zm0 0" fill="#5d8e33"/><path d="m249.546875 229.675781c-2.488281-1.824219-5-3.492187-7.507813-5.019531-.898437.003906-1.796874.003906-2.683593-.003906-2.691407-.03125-3.816407 3.378906-1.644531 4.964844.027343.019531.054687.039062.082031.058593 13.683593 10.027344 23.378906 22.027344 26.847656 31.96875 4.492187 1.246094 8.671875 1.851563 12.308594 1.738281-2.886719-10.257812-12.914063-23.089843-27.402344-33.707031zm0 0" fill="#5d8e33"/><path d="m230.144531 168.257812c-5.933593 0-10.417969-5.386718-9.3125-11.21875 2.75-14.515624 4.273438-30.453124 4.273438-47.175781 0 0 .976562-73.21875-15.949219-105.949219 16.554688 21.160157 27.703125 60.667969 27.703125 105.949219 0 13.640625-1.023437 26.746094-2.890625 38.996094zm0 0" fill="#5d8e33"/><path d="m209.15625 267.125c-2.207031 0-4-1.792969-4-4v-47.417969c0-2.207031 1.792969-4 4-4s4 1.792969 4 4v47.417969c0 2.210938-1.792969 4-4 4zm0 0" fill="#690589"/><path d="m276.027344 267.394531c-11.894532 0-27.429688-6.210937-41.832032-16.765625-10.929687-8.007812-19.882812-17.683594-25.039062-26.863281-5.15625 9.179687-14.109375 18.855469-25.039062 26.863281-14.828126 10.871094-30.851563 17.167969-42.882813 16.75-1.230469-.042968-2.375-.644531-3.101563-1.636718-.726562-.992188-.957031-2.261719-.625-3.445313 3.042969-10.808594 12.652344-23.203125 25.976563-33.640625-7.511719-.101562-15.234375-.757812-23.085937-1.964844-28.167969-4.34375-52.53125-14.976562-65.171876-28.445312-.839843-.898438-1.222656-2.132813-1.035156-3.347656.1875-1.21875.921875-2.277344 1.996094-2.878907 15.023438-8.421875 39.015625-11.429687 65.027344-8.277343-3.070313-2.730469-6.074219-5.566407-8.996094-8.492188-25.101562-25.101562-41.75-53.679688-44.527344-76.449219-.148437-1.222656.273438-2.445312 1.140625-3.3125.871094-.871093 2.089844-1.289062 3.3125-1.144531 22.769531 2.78125 51.351563 19.429688 76.453125 44.53125 4.296875 4.292969 8.378906 8.738281 12.210938 13.289062-2.207032-13.503906-3.355469-27.855468-3.355469-42.296874 0-44.367188 10.941406-85.90625 28.550781-108.414063 1.515625-1.9375 4.785156-1.9375 6.300782 0 17.609374 22.507813 28.550781 64.046875 28.550781 108.414063 0 14.441406-1.148438 28.789062-3.359375 42.296874 3.835937-4.546874 7.914062-8.992187 12.210937-13.289062 25.105469-25.105469 53.683594-41.75 76.453125-44.53125 1.230469-.148438 2.445313.273438 3.3125 1.144531.875.871094 1.292969 2.089844 1.144532 3.3125-2.78125 22.769531-19.425782 51.347657-44.53125 76.449219-2.921876 2.925781-5.929688 5.761719-8.996094 8.492188 26.011718-3.152344 50-.148438 65.027344 8.277343 1.074218.601563 1.808593 1.660157 1.996093 2.878907.1875 1.214843-.195312 2.449218-1.039062 3.347656-12.636719 13.464844-37.003907 24.101562-65.167969 28.445312-7.855469 1.207032-15.578125 1.867188-23.089844 1.964844 13.324219 10.4375 22.933594 22.832031 25.976563 33.640625.335937 1.183594.105469 2.453125-.625 3.445313-.726563.992187-1.871094 1.597656-3.097657 1.636718-.339843.011719-.691406.015625-1.042968.015625zm-99.011719-47.195312c1.722656 0 3.273437 1.113281 3.804687 2.777343.570313 1.769532-.15625 3.699219-1.753906 4.65625-2.691406 1.609376-5.363281 3.382813-7.9375 5.273438-10.84375 7.945312-19.46875 17.496094-23.746094 26.0625 9.457032-1.496094 21.160157-6.84375 32.003907-14.792969 12.246093-8.96875 21.667969-19.980469 25.210937-29.453125.34375-.914062 1.007813-1.671875 1.871094-2.128906l.570312-.292969c.65625-.371093 1.386719-.5625 2.15625-.511719.753907-.023437 1.441407.152344 2.078126.511719l.566406.292969c.867187.457031 1.53125 1.214844 1.871094 2.128906 3.542968 9.472656 12.96875 20.484375 25.210937 29.453125 10.84375 7.949219 22.550781 13.292969 32.003906 14.792969-4.277343-8.566406-12.898437-18.121094-23.742187-26.0625-2.574219-1.890625-5.246094-3.664062-7.941406-5.273438-1.597657-.957031-2.324219-2.886718-1.753907-4.65625.570313-1.773437 2.304688-2.933593 4.140625-2.761718 10.953125.90625 23.078125.414062 35.0625-1.429688 23.253906-3.585937 44.230469-11.90625 56.5-22.203125-14.800781-6.117187-37.308594-7.734375-60.5625-4.148437-2.757812.425781-5.589844.945312-8.667968 1.589844-1.835938.371093-3.675782-.550782-4.457032-2.246094-.777344-1.699219-.28125-3.707032 1.203125-4.84375 6.835938-5.25 13.472657-11.085938 19.726563-17.339844 21.539062-21.539062 36.929687-46.414062 41.3125-66.378906-19.960938 4.382812-44.839844 19.773437-66.378906 41.316406-8.21875 8.21875-15.605469 16.972656-21.949219 26.023438-1.109375 1.578124-3.175781 2.148437-4.933594 1.34375-1.75-.796876-2.6875-2.726563-2.226563-4.597657 4.316407-17.5 6.597657-37.359375 6.597657-57.4375 0-39.890625-8.992188-77.144531-23.703125-99.125-14.707032 21.976563-23.703125 59.234375-23.703125 99.125 0 20.078125 2.28125 39.9375 6.59375 57.4375.460937 1.871094-.472657 3.800781-2.226563 4.597657-1.757812.804687-3.824218.234374-4.929687-1.34375-6.347657-9.050782-13.730469-17.804688-21.949219-26.023438-21.542969-21.542969-46.417969-36.933594-66.382812-41.316406 4.386718 19.964844 19.773437 44.839844 41.316406 66.378906 6.253906 6.253906 12.890625 12.089844 19.726562 17.339844 1.480469 1.136718 1.976563 3.144531 1.199219 4.84375-.777344 1.695312-2.617187 2.621094-4.457031 2.246094-3.074219-.644532-5.90625-1.164063-8.660156-1.589844-23.257813-3.585938-45.761719-1.96875-60.566407 4.148437 12.269531 10.292969 33.246094 18.617188 56.5 22.203125 11.984375 1.84375 24.105469 2.335938 35.0625 1.429688.117188-.011719.226563-.015625.339844-.015625zm100.285156 2.535156h.019531zm0 0" fill="#690589"/><path d="m344.527344 431.828125h-158.492188c-4.964844 0-8.988281-4.023437-8.988281-8.988281v-63.921875c0-4.964844 4.023437-8.988281 8.988281-8.988281h158.492188c4.964844 0 8.988281 4.023437 8.988281 8.988281v63.921875c0 4.964844-4.023437 8.988281-8.988281 8.988281zm0 0" fill="#fcc24c"/><path d="m344.527344 349.929688h-17.976563c4.964844 0 8.988281 4.023437 8.988281 8.988281v63.921875c0 4.964844-4.023437 8.988281-8.988281 8.988281h17.976563c4.964844 0 8.988281-4.023437 8.988281-8.988281v-63.921875c0-4.964844-4.023437-8.988281-8.988281-8.988281zm0 0" fill="#dea42e"/><path d="m186.035156 431.828125h17.976563c-4.964844 0-8.988281-4.023437-8.988281-8.988281v-63.921875c0-4.964844 4.023437-8.988281 8.988281-8.988281h-17.976563c-4.964844 0-8.988281 4.023437-8.988281 8.988281v63.921875c0 4.964844 4.023437 8.988281 8.988281 8.988281zm0 0" fill="#fce06a"/><path d="m344.53125 435.828125h-158.496094c-7.160156 0-12.988281-5.824219-12.988281-12.988281v-63.921875c0-7.164063 5.828125-12.988281 12.988281-12.988281h158.492188c7.160156 0 12.988281 5.824218 12.988281 12.988281v63.921875c0 7.164062-5.824219 12.988281-12.984375 12.988281zm-158.496094-81.898437c-2.75 0-4.988281 2.238281-4.988281 4.988281v63.921875c0 2.75 2.238281 4.988281 4.988281 4.988281h158.492188c2.75 0 4.988281-2.238281 4.988281-4.988281v-63.921875c0-2.75-2.238281-4.988281-4.988281-4.988281zm0 0" fill="#690589"/><path d="m265.28125 435.828125c-2.207031 0-4-1.789063-4-4v-81.898437c0-2.207032 1.792969-4 4-4s4 1.792968 4 4v81.898437c0 2.210937-1.789062 4-4 4zm0 0" fill="#690589"/><path d="m310.148438 410.160156c-1.023438 0-2.042969-.390625-2.828126-1.171875l-12.550781-12.554687c-1.5625-1.5625-1.5625-4.09375 0-5.65625 1.558594-1.5625 4.09375-1.5625 5.652344 0l12.554687 12.554687c1.5625 1.5625 1.5625 4.09375 0 5.65625-.777343.78125-1.804687 1.171875-2.828124 1.171875zm0 0" fill="#690589"/><path d="m312.625 395.128906c-1.023438 0-2.046875-.390625-2.828125-1.171875l-17.382813-17.382812c-1.5625-1.5625-1.5625-4.09375 0-5.65625 1.5625-1.558594 4.09375-1.558594 5.65625 0l17.382813 17.382812c1.5625 1.5625 1.5625 4.09375 0 5.65625-.78125.78125-1.804687 1.171875-2.828125 1.171875zm0 0" fill="#690589"/><path d="m326.847656 409.351562c-1.027344 0-2.046875-.390624-2.828125-1.171874l-5.394531-5.394532c-1.5625-1.5625-1.5625-4.09375 0-5.65625s4.09375-1.5625 5.65625 0l5.390625 5.394532c1.5625 1.5625 1.5625 4.09375 0 5.65625-.78125.78125-1.804687 1.171874-2.824219 1.171874zm0 0" fill="#690589"/><path d="m224.0625 410.160156c-1.023438 0-2.042969-.390625-2.828125-1.171875l-12.550781-12.554687c-1.5625-1.5625-1.5625-4.09375 0-5.65625 1.558594-1.5625 4.09375-1.5625 5.652344 0l12.554687 12.554687c1.5625 1.5625 1.5625 4.09375 0 5.65625-.777344.78125-1.804687 1.171875-2.828125 1.171875zm0 0" fill="#690589"/><path d="m226.539062 395.128906c-1.023437 0-2.046874-.390625-2.828124-1.171875l-17.382813-17.382812c-1.5625-1.5625-1.5625-4.09375 0-5.65625 1.5625-1.558594 4.09375-1.558594 5.65625 0l17.382813 17.382812c1.5625 1.5625 1.5625 4.09375 0 5.65625-.78125.78125-1.804688 1.171875-2.828126 1.171875zm0 0" fill="#690589"/><path d="m240.757812 409.351562c-1.023437 0-2.042968-.390624-2.824218-1.171874l-5.394532-5.394532c-1.5625-1.5625-1.5625-4.09375 0-5.65625s4.09375-1.5625 5.65625 0l5.390626 5.394532c1.5625 1.5625 1.5625 4.09375 0 5.65625-.78125.78125-1.804688 1.171874-2.828126 1.171874zm0 0" fill="#690589"/></svg>