<svg height="503pt" viewBox="0 0 503 503.98" width="503pt" xmlns="http://www.w3.org/2000/svg"><path d="m171.089844 4c-92.011719 0-166.601563 74.589844-166.601563 166.601562 0 92.011719 74.589844 166.601563 166.601563 166.601563 92.011718 0 166.601562-74.589844 166.601562-166.601563 0-92.011718-74.589844-166.601562-166.601562-166.601562zm0 291.730469c-69.105469 0-125.128906-56.023438-125.128906-125.128907 0-69.109374 56.023437-125.128906 125.128906-125.128906 69.105468 0 125.128906 56.019532 125.128906 125.128906 0 69.105469-56.019531 125.128907-125.128906 125.128907zm0 0" fill="#fcc24c"/><path d="m171.089844 4c-2.683594 0-5.347656.074219-7.996094.203125 88.292969 4.175781 158.601562 77.070313 158.601562 166.398437 0 89.328126-70.308593 162.222657-158.601562 166.394532 2.648438.128906 5.3125.203125 7.996094.203125 92.011718 0 166.601562-74.589844 166.601562-166.601563 0-92.007812-74.589844-166.597656-166.601562-166.597656zm0 0" fill="#dea42e"/><path d="m171.089844 337.203125c2.683594 0 5.347656-.078125 8-.203125-88.296875-4.175781-158.605469-77.070312-158.605469-166.398438 0-89.328124 70.308594-162.222656 158.605469-166.398437-2.652344-.128906-5.316406-.203125-8-.203125-92.011719 0-166.601563 74.589844-166.601563 166.601562 0 92.011719 74.589844 166.601563 166.601563 166.601563zm0 0" fill="#fce06a"/><path d="m192.429688 47.316406c-68.089844-11.789062-132.847657 33.851563-144.636719 101.941406-11.789063 68.09375 33.851562 132.847657 101.941406 144.636719 68.089844 11.789063 132.847656-33.851562 144.636719-101.941406 11.789062-68.089844-33.851563-132.847656-101.941406-144.636719zm0 0" fill="#f4efed"/><path d="m339.339844 338.847656c5.121094-5.125 11.335937-8.46875 17.882812-10.125l-55.179687-55.179687c-4.050781 5.140625-8.40625 10.117187-13.148438 14.863281-4.742187 4.742188-9.722656 9.097656-14.863281 13.148438l55.179688 55.179687c1.65625-6.550781 5.003906-12.761719 10.128906-17.886719zm0 0" fill="#f4efed"/><g fill="#690589"><path d="m329.214844 360.734375c-1.046875 0-2.070313-.410156-2.828125-1.171875l-55.183594-55.179688c-.808594-.808593-1.230469-1.921874-1.164063-3.066406.066407-1.136718.621094-2.195312 1.515626-2.90625 5.316406-4.1875 10.0625-8.382812 14.511718-12.835937 4.390625-4.386719 8.710938-9.269531 12.835938-14.507813.707031-.898437 1.765625-1.449218 2.90625-1.519531 1.15625-.078125 2.257812.355469 3.0625 1.167969l55.183594 55.179687c1.015624 1.019531 1.410156 2.503907 1.027343 3.894531-.382812 1.386719-1.480469 2.460938-2.875 2.8125-6.09375 1.539063-11.640625 4.679688-16.039062 9.078126-4.398438 4.398437-7.539063 9.945312-9.074219 16.035156-.351562 1.398437-1.429688 2.496094-2.8125 2.878906-.351562.09375-.710938.140625-1.066406.140625zm-49.207032-58.863281 47.488282 47.488281c2.128906-4.972656 5.183594-9.507813 9.015625-13.339844s8.363281-6.882812 13.339843-9.011719l-47.488281-47.492187c-3.457031 4.175781-7.023437 8.101563-10.636719 11.71875-3.617187 3.617187-7.546874 7.179687-11.71875 10.636719zm59.332032 36.976562h.019531zm0 0"/><path d="m171.09375 299.730469c-71.203125 0-129.128906-57.929688-129.128906-129.128907 0-71.203124 57.925781-129.128906 129.128906-129.128906 71.199219 0 129.125 57.925782 129.125 129.128906 0 71.199219-57.925781 129.128907-129.125 129.128907zm0-250.257813c-66.792969 0-121.128906 54.335938-121.128906 121.128906 0 66.789063 54.335937 121.128907 121.128906 121.128907 66.789062 0 121.125-54.339844 121.125-121.128907 0-66.792968-54.335938-121.128906-121.125-121.128906zm0 0"/><path d="m171.09375 341.203125c-94.070312 0-170.605469-76.53125-170.605469-170.601563 0-94.070312 76.535157-170.601562 170.605469-170.601562 94.066406 0 170.601562 76.53125 170.601562 170.601562 0 94.070313-76.535156 170.601563-170.601562 170.601563zm0-333.203125c-89.660156 0-162.605469 72.941406-162.605469 162.601562 0 89.660157 72.945313 162.601563 162.605469 162.601563 89.65625 0 162.601562-72.941406 162.601562-162.601563 0-89.660156-72.945312-162.601562-162.601562-162.601562zm0 0"/><path d="m46.109375 96.8125c-.738281 0-1.484375-.207031-2.15625-.632812-1.859375-1.191407-2.402344-3.664063-1.210937-5.527344 5.59375-8.726563 12.027343-16.996094 19.125-24.578125 1.511718-1.613281 4.042968-1.691407 5.65625-.183594 1.609374 1.507813 1.695312 4.042969.183593 5.652344-6.765625 7.226562-12.898437 15.105469-18.222656 23.421875-.769531 1.195312-2.058594 1.847656-3.375 1.847656zm0 0"/></g><path d="m489.140625 488.648438c-15.132813 15.136718-39.671875 15.136718-54.804687 0l-94.996094-94.996094c-15.132813-15.132813-15.132813-39.671875 0-54.804688 15.132812-15.132812 39.671875-15.132812 54.804687 0l94.996094 94.996094c15.132813 15.132812 15.132813 39.671875 0 54.804688zm0 0" fill="#ff4397"/><path d="m339.339844 338.847656c-2.535156 2.535156-4.609375 5.351563-6.292969 8.324219 14.78125-8.378906 33.882813-6.308594 46.480469 6.292969l94.996094 94.996094c12.601562 12.597656 14.671874 31.699218 6.292968 46.480468 2.972656-1.683594 5.789063-3.757812 8.320313-6.292968 15.136719-15.132813 15.136719-39.671876 0-54.804688l-94.996094-94.996094c-15.128906-15.132812-39.667969-15.132812-54.800781 0zm0 0" fill="#e12579"/><path d="m461.734375 503.980469c-10.945313 0-21.894531-4.167969-30.226563-12.503907l-94.996093-94.996093c-8.074219-8.074219-12.523438-18.808594-12.523438-30.226563 0-11.421875 4.449219-22.15625 12.523438-30.230468 8.074219-8.078126 18.808593-12.523438 30.230469-12.523438 11.417968 0 22.15625 4.449219 30.230468 12.523438l94.996094 94.996093c16.667969 16.667969 16.667969 43.789063 0 60.457031-8.335938 8.335938-19.28125 12.503907-30.234375 12.503907zm-94.992187-172.484375c-9.285157 0-18.011719 3.617187-24.574219 10.179687s-10.179688 15.292969-10.179688 24.574219 3.617188 18.011719 10.179688 24.574219l94.992187 94.996093c13.554688 13.546876 35.601563 13.546876 49.152344 0 13.546875-13.550781 13.546875-35.597656 0-49.148437l-94.996094-94.996094c-6.5625-6.5625-15.292968-10.179687-24.574218-10.179687zm122.398437 157.152344h.019531zm0 0" fill="#690589"/><path d="m222.753906 228.847656c21.222656-3.273437 38.933594-11.355468 47.652344-20.644531-11.113281-6.230469-30.433594-8.597656-51.660156-5.328125-2.289063.351562-4.527344.773438-6.726563 1.234375 5.144531-3.953125 10.277344-8.429687 15.25-13.40625 19.035157-19.03125 30.957031-40.324219 32.890625-56.179687-15.855468 1.933593-37.144531 13.855468-56.179687 32.890624-6.546875 6.546876-12.230469 13.363282-16.976563 20.132813 3.242188-13.15625 5.089844-28.234375 5.089844-44.269531 0-34.328125-8.453125-64.273438-21.003906-80.316406-12.550782 16.042968-21 45.992187-21 80.316406 0 16.035156 1.847656 31.113281 5.089844 44.269531-4.746094-6.769531-10.429688-13.585937-16.976563-20.132813-19.035156-19.035156-40.328125-30.957031-56.179687-32.890624 1.933593 15.855468 13.855468 37.148437 32.886718 56.179687 4.976563 4.976563 10.109375 9.453125 15.253906 13.40625-2.199218-.460937-4.441406-.882813-6.726562-1.234375-21.226562-3.269531-40.546875-.902344-51.660156 5.328125 8.71875 9.289063 26.429687 17.371094 47.65625 20.644531 9.699218 1.496094 18.988281 1.796875 27.292968 1.109375-2.089843 1.246094-4.183593 2.632813-6.253906 4.152344-10.984375 8.046875-18.585937 17.773437-20.773437 25.546875 8.074219.257812 19.636719-4.0625 30.621093-12.109375 10.132813-7.429687 17.378907-16.277344 20.15625-23.710937.164063-.089844.339844-.171876.5-.261719.039063.003906.078126.015625.117188.019531.035156-.003906.074219-.015625.113281-.019531.160157.089843.335938.171875.5.261719 2.777344 7.433593 10.023438 16.285156 20.15625 23.710937 10.984375 8.046875 22.546875 12.363281 30.621094 12.109375-2.1875-7.773438-9.789063-17.5-20.773437-25.546875-2.074219-1.519531-4.167969-2.90625-6.253907-4.152344 8.304688.691407 17.59375.386719 27.296875-1.109375zm0 0" fill="#7bac51"/><path d="m171.09375 272.675781c-2.210938 0-4-1.792969-4-4v-47.730469c0-2.207031 1.789062-4 4-4 2.207031 0 4 1.792969 4 4v47.730469c0 2.207031-1.792969 4-4 4zm0 0" fill="#690589"/><path d="m120.386719 263.671875c-.273438 0-.546875-.007813-.816407-.015625-1.226562-.039062-2.375-.640625-3.101562-1.632812-.726562-.992188-.957031-2.261719-.621094-3.449219 2.199219-7.808594 8.78125-16.664063 17.964844-24.335938-4.902344-.171875-9.914062-.652343-14.996094-1.4375-21.554687-3.324219-40.230468-11.496093-49.960937-21.855469-.839844-.898437-1.222657-2.132812-1.039063-3.347656.1875-1.214844.925782-2.277344 1.996094-2.878906 10.988281-6.160156 28.15625-8.5625 46.910156-6.714844-1.574218-1.457031-3.121094-2.945312-4.644531-4.464844-19.179687-19.179687-31.898437-41.058593-34.03125-58.527343-.148437-1.222657.273437-2.445313 1.144531-3.3125.867188-.867188 2.089844-1.285157 3.3125-1.140625 17.464844 2.132812 39.34375 14.851562 58.523438 34.03125 2.460937 2.464844 4.835937 4.988281 7.101562 7.570312-1.34375-9.300781-2.039062-19.0625-2.039062-28.878906 0-34.347656 8.167968-65.296875 21.851562-82.78125.757813-.96875 1.917969-1.535156 3.148438-1.535156 1.230468 0 2.390625.566406 3.148437 1.535156 13.6875 17.484375 21.855469 48.433594 21.855469 82.78125 0 9.816406-.699219 19.578125-2.042969 28.875 2.265625-2.574219 4.636719-5.101562 7.101563-7.566406 19.179687-19.179688 41.054687-31.898438 58.527344-34.03125 1.222656-.152344 2.441406.273437 3.308593 1.140625.875.871093 1.292969 2.09375 1.144531 3.3125-2.132812 17.46875-14.855468 39.347656-34.035156 58.523437-1.519531 1.519532-3.070312 3.011719-4.644531 4.464844 18.761719-1.839844 35.929687.558594 46.910156 6.714844 1.074219.601562 1.808594 1.664062 1.996094 2.882812.1875 1.214844-.195313 2.449219-1.039063 3.347656-9.726562 10.359376-28.40625 18.53125-49.960937 21.855469-5.078125.785157-10.089844 1.261719-14.996094 1.4375 9.191407 7.675781 15.773438 16.527344 17.972657 24.335938.332031 1.183593.101562 2.457031-.625 3.449219-.730469.992187-1.871094 1.59375-3.101563 1.632812-9.363281.300781-21.703125-4.523438-33.113281-12.882812-7.941406-5.816407-14.367188-12.5625-18.40625-19.199219-4.042969 6.636719-10.46875 13.378906-18.410156 19.199219-11.074219 8.121093-23.070313 12.898437-32.292969 12.898437zm26.339843-37.714844c1.722657 0 3.269532 1.109375 3.804688 2.773438.570312 1.773437-.15625 3.703125-1.753906 4.660156-2.011719 1.199219-4.007813 2.527344-5.941406 3.945313-7.375 5.398437-13.363282 11.769531-16.765626 17.652343 6.632813-1.472656 14.511719-5.265625 21.878907-10.667969 9.136719-6.695312 16.15625-14.875 18.777343-21.882812.34375-.917969 1.011719-1.675781 1.875-2.136719l.292969-.148437c.734375-.414063 1.695313-.644532 2.539063-.546875.609375.039062 1.21875.199219 1.726562.484375l.417969.210937c.863281.460938 1.53125 1.21875 1.875 2.132813 2.621094 7.011718 9.644531 15.195312 18.777344 21.886718 7.371093 5.402344 15.246093 9.195313 21.882812 10.667969-3.40625-5.882812-9.394531-12.253906-16.765625-17.652343-1.9375-1.417969-3.9375-2.746094-5.945312-3.945313-1.597656-.957031-2.324219-2.886719-1.753906-4.660156.570312-1.769531 2.304687-2.910157 4.140624-2.761719 8.230469.6875 17.34375.316406 26.351563-1.074219 16.679687-2.574219 31.777344-8.367187 41.078125-15.582031-11.039062-4.078125-27.179688-5.054688-43.863281-2.484375-2.054688.316406-4.1875.710937-6.519531 1.195313-1.824219.378906-3.675782-.550782-4.453126-2.246094-.78125-1.695313-.28125-3.707032 1.199219-4.839844 5.152344-3.957031 10.148438-8.351562 14.859375-13.058594 15.671875-15.671875 27.007813-33.652344 30.707032-48.339844-14.6875 3.699219-32.667969 15.035157-48.339844 30.703126-6.195313 6.199218-11.757813 12.792968-16.53125 19.601562-1.105469 1.578125-3.179688 2.140625-4.929688 1.347656-1.753906-.796875-2.691406-2.730468-2.226562-4.601562 3.25-13.191406 4.972656-28.167969 4.972656-43.308594 0-29.328125-6.433594-56.734375-17.003906-73.375-10.570313 16.636719-17 44.042969-17 73.371094 0 15.144531 1.71875 30.121094 4.972656 43.3125.460938 1.867187-.472656 3.800781-2.226562 4.597656-1.757813.792969-3.824219.234375-4.933594-1.34375-4.78125-6.816406-10.34375-13.410156-16.53125-19.601562-15.671875-15.671876-33.652344-27.007813-48.339844-30.703126 3.699219 14.6875 15.035156 32.664063 30.707031 48.339844 4.71875 4.714844 9.71875 9.109375 14.863281 13.058594 1.476563 1.132812 1.976563 3.144531 1.199219 4.839844-.777343 1.695312-2.636719 2.628906-4.453125 2.246094-2.332031-.488282-4.464844-.878907-6.523437-1.195313-16.679688-2.570313-32.820313-1.589844-43.863281 2.484375 9.300781 7.214844 24.398437 13.007812 41.078124 15.582031 9.007813 1.390625 18.117188 1.761719 26.351563 1.074219.113281-.007812.222656-.011719.335937-.011719zm0 0" fill="#690589"/></svg>