<svg height="503pt" viewBox="-48 0 503 503.9195" width="503pt" xmlns="http://www.w3.org/2000/svg"><path d="m278.253906 361.566406c-17.265625-3.796875-33.785156-4.839844-47.824218-3.535156 31.078124-10.984375 67.066406-34.398438 100.054687-67.382812 42.722656-42.726563 69.480469-90.515626 73.820313-126.101563-35.582032 4.34375-83.375 31.101563-126.097657 73.824219-14.699219 14.695312-27.453125 29.992187-38.109375 45.183594 7.285156-29.519532 11.425782-63.367188 11.425782-99.359376 0-77.050781-18.96875-144.273437-47.136719-180.277343-28.171875 36.003906-47.140625 103.226562-47.140625 180.277343 0 35.988282 4.140625 69.835938 11.421875 99.359376-10.65625-15.191407-23.410157-30.488282-38.105469-45.183594-42.722656-42.722656-90.515625-69.480469-126.097656-73.824219 4.339844 35.585937 31.097656 83.375 73.820312 126.101563 32.984375 32.984374 68.96875 56.394531 100.042969 67.378906-14.03125-1.296875-30.542969-.253906-47.800781 3.542968-29.847656 6.5625-54.273438 19.640626-65.820313 33.621094 16.347657 7.847656 44.007813 9.464844 73.855469 2.902344s54.273438-19.640625 65.820312-33.621094c.007813 0 .019532-.003906.027344-.003906-.003906.003906-.003906.003906-.007812.003906 11.546875 13.980469 35.972656 27.058594 65.820312 33.621094s57.507813 4.945312 73.855469-2.902344c-11.550781-13.984375-35.976563-27.058594-65.824219-33.625zm0 0" fill="#7bac51"/><g fill="#99ca6f"><path d="m204.382812 3.917969c-28.171874 36.003906-47.140624 103.226562-47.140624 180.277343 0 22.34375 2.808593 64.417969 10.503906 95.75 6.652344 4.261719 15.273437-1.242187 14.144531-9.0625-3.855469-26.652343-4.648437-58.460937-4.648437-86.6875 0-67.53125 6.730468-139.03125 29.296874-177.058593zm0 0"/><path d="m130.511719 361.566406c16.335937-3.59375 31.976562-4.691406 45.503906-3.703125-8.160156.5625-16.734375 1.773438-25.503906 3.703125-29.847657 6.5625-54.273438 19.640625-65.824219 33.621094 7.355469 3.53125 17.011719 5.785156 28.117188 6.617188-19.515626 1.324218-36.617188-1.097657-48.117188-6.617188 11.550781-13.980469 35.976562-27.054688 65.824219-33.621094zm0 0"/><path d="m4.460938 164.546875c6.523437.792969 13.457031 2.351563 20.691406 4.613281 5.96875 35.035156 32.222656 80.578125 73.128906 121.484375 26.484375 26.484375 54.898438 46.792969 81.152344 59.457031 3.785156 1.824219 2.648437 7.425782-1.546875 7.664063l-.21875.011719c-30.925781-11.078125-66.632813-34.378906-99.386719-67.132813-42.71875-42.722656-69.476562-90.511719-73.820312-126.097656zm0 0"/></g><path d="m204.382812 3.917969c28.171876 36.003906 47.136719 103.226562 47.136719 180.277343 0 22.34375-2.804687 64.417969-10.5 95.75-6.65625 4.261719-15.277343-1.242187-14.144531-9.0625 3.855469-26.652343 4.644531-58.460937 4.644531-86.6875 0-67.53125-6.730469-139.03125-29.296875-177.058593zm0 0" fill="#5d8e33"/><path d="m278.253906 361.566406c-16.335937-3.59375-31.976562-4.691406-45.503906-3.703125 8.160156.5625 16.734375 1.773438 25.503906 3.703125 29.847656 6.5625 54.273438 19.640625 65.824219 33.621094-7.355469 3.53125-17.011719 5.785156-28.113281 6.617188 19.511718 1.324218 36.613281-1.097657 48.113281-6.617188-11.550781-13.980469-35.976563-27.054688-65.824219-33.621094zm0 0" fill="#5d8e33"/><path d="m404.304688 164.546875c-6.523438.792969-13.457032 2.351563-20.691407 4.613281-5.96875 35.035156-32.226562 80.578125-73.128906 121.484375-26.484375 26.484375-54.898437 46.792969-81.152344 59.457031-3.78125 1.824219-2.648437 7.425782 1.546875 7.664063l.21875.011719c30.925782-11.078125 66.632813-34.378906 99.386719-67.132813 42.71875-42.722656 69.480469-90.511719 73.820313-126.097656zm0 0" fill="#5d8e33"/><path d="m189.441406 503.917969c-2.207031 0-4-1.789063-4-4 0-2.207031 1.792969-4 4-4 6.035156 0 10.941406-4.90625 10.941406-10.9375v-120.683594c0-2.210937 1.792969-4 4-4 2.207032 0 4 1.789063 4 4v120.683594c0 10.441406-8.496093 18.9375-18.941406 18.9375zm0 0" fill="#690589"/><path d="m173.304688 186.246094c-2.207032 0-4-1.789063-4-4 0-8.078125.257812-16.238282.761718-24.25.136719-2.207032 2.035156-3.859375 4.246094-3.742188 2.203125.140625 3.875 2.042969 3.738281 4.246094-.496093 7.84375-.746093 15.835938-.746093 23.746094 0 2.210937-1.792969 4-4 4zm0 0" fill="#690589"/><path d="m306.320312 406.207031c-11.582031 0-24.140624-1.394531-36.957031-4.210937-27.703125-6.09375-51.539062-17.730469-64.972656-31.554688-13.433594 13.824219-37.269531 25.460938-64.972656 31.554688-29.960938 6.589844-58.539063 5.390625-76.441407-3.203125-1.113281-.53125-1.914062-1.546875-2.175781-2.746094-.265625-1.203125.039063-2.460937.820313-3.40625 12.648437-15.316406 38.085937-28.394531 68.046875-34.980469 9.496093-2.089844 18.953125-3.40625 28.0625-3.917968-27.507813-13.21875-56.109375-34.097657-82.277344-60.269532-41.652344-41.652344-70.378906-90.871094-74.964844-128.441406-.148437-1.222656.273438-2.445312 1.144531-3.3125.867188-.875 2.085938-1.296875 3.308594-1.144531 37.574219 4.585937 86.792969 33.3125 128.445313 74.96875 9.851562 9.851562 19.027343 20.15625 27.414062 30.769531-4.964843-25.84375-7.558593-53.871094-7.558593-82.117188 0-74.890624 18.386718-144.914062 47.988281-182.742187 1.515625-1.9375 4.785156-1.9375 6.296875 0 29.601562 37.828125 47.988281 107.847656 47.988281 182.742187 0 28.246094-2.59375 56.273438-7.558594 82.113282 8.386719-10.613282 17.5625-20.914063 27.414063-30.765625 41.65625-41.65625 90.875-70.382813 128.445312-74.96875 1.222656-.152344 2.445313.273437 3.3125 1.144531.871094.867188 1.292969 2.089844 1.140625 3.3125-4.582031 37.566406-33.304687 86.785156-74.960937 128.441406-26.171875 26.167969-54.769532 47.046875-82.277344 60.265625 9.113281.515625 18.578125 1.832031 28.078125 3.921875 29.960937 6.585938 55.398437 19.664063 68.046875 34.980469.78125.945313 1.085938 2.203125.820312 3.40625-.261718 1.199219-1.066406 2.210937-2.175781 2.746094-10.238281 4.917969-23.984375 7.414062-39.480469 7.414062zm-98.835937-44.285156c11.375 13.773437 35.746094 26.136719 63.597656 32.261719 25.09375 5.515625 49.738281 5.257812 66.152344-.5-12.484375-12.113282-34.75-22.691406-59.839844-28.207032-16.285156-3.582031-32.394531-4.777343-46.59375-3.464843-2.019531.183593-3.847656-1.152344-4.277343-3.121094-.433594-1.972656.667968-3.957031 2.574218-4.628906 32.027344-11.316407 67.027344-34.914063 98.554688-66.4375 38.511718-38.511719 65.597656-83.335938 71.886718-118.507813-35.175781 6.292969-80 33.378906-118.507812 71.886719-14.09375 14.09375-26.761719 29.117187-37.660156 44.65625-1.105469 1.574219-3.175782 2.136719-4.933594 1.34375-1.75-.800781-2.6875-2.730469-2.222656-4.601563 7.394531-29.984374 11.304687-64.015624 11.304687-98.402343 0-70.460938-16.4375-136.234375-43.136719-173.597657-26.703124 37.367188-43.140624 103.136719-43.140624 173.597657 0 34.386719 3.910156 68.414062 11.308593 98.402343.460938 1.871094-.476562 3.800782-2.226562 4.601563-1.75.792969-3.828125.230469-4.929688-1.34375-10.898437-15.539063-23.570312-30.5625-37.664062-44.65625-38.507813-38.511719-83.332031-65.605469-118.507813-71.894531 6.292969 35.175781 33.378906 80 71.886719 118.507812 31.527344 31.523438 66.523437 55.117188 98.550781 66.4375 1.902344.671875 3.003906 2.65625 2.574219 4.628906-.433594 1.96875-2.28125 3.296876-4.277344 3.125-14.1875-1.316406-30.292969-.117187-46.570312 3.464844-25.089844 5.515625-47.355469 16.09375-59.835938 28.207032 16.414063 5.753906 41.058594 6.019531 66.148438.5 27.851562-6.125 52.222656-18.488282 63.597656-32.261719.660156-.800781 1.609375-1.316407 2.640625-1.429688 1.382812-.160156 2.703125.417969 3.542969 1.429688zm0 0" fill="#690589"/></svg>