<svg height="503pt" viewBox="-25 0 503 503.9155" width="503pt" xmlns="http://www.w3.org/2000/svg"><path d="m343.332031 376.25c47.640625-7.347656 87.394531-25.484375 106.96875-46.332031-24.945312-13.988281-68.316406-19.304688-115.953125-11.957031-5.136718.789062-10.164062 1.734374-15.101562 2.765624 11.550781-8.871093 23.066406-18.917968 34.234375-30.085937 42.722656-42.722656 69.480469-90.515625 73.820312-126.097656-35.582031 4.339843-83.375 31.097656-126.097656 73.820312-14.695313 14.699219-27.453125 29.992188-38.105469 45.1875 7.28125-29.523437 11.421875-63.371093 11.421875-99.363281 0-77.046875-18.96875-144.273438-47.140625-180.273438-28.171875 36-47.136718 103.226563-47.136718 180.273438 0 35.992188 4.140624 69.839844 11.421874 99.363281-10.652343-15.195312-23.40625-30.488281-38.105468-45.1875-42.722656-42.722656-90.515625-69.480469-126.097656-73.820312 4.339843 35.582031 31.097656 83.375 73.820312 126.097656 11.167969 11.167969 22.683594 21.214844 34.234375 30.085937-4.941406-1.03125-9.964844-1.976562-15.101563-2.765624-47.636718-7.347657-91.007812-2.03125-115.953124 11.957031 19.574218 20.847656 59.328124 38.984375 106.964843 46.332031 21.773438 3.355469 42.625 4.042969 61.265625 2.488281-4.683594 2.800781-9.386718 5.910157-14.039062 9.324219-24.652344 18.0625-41.710938 39.894531-46.625 57.347656 18.121094.570313 44.078125-9.121094 68.730468-27.1875 22.746094-16.667968 39.003907-36.539062 45.246094-53.222656.367188-.195312.761719-.375 1.121094-.578125.085938.011719.171875.03125.257812.042969.082032-.011719.171876-.03125.253907-.042969.359375.203125.753906.382813 1.125.578125 6.238281 16.6875 22.5 36.554688 45.246093 53.222656 24.652344 18.066406 50.605469 27.757813 68.730469 27.1875-4.914062-17.453125-21.972656-39.285156-46.625-57.347656-4.65625-3.410156-9.355469-6.519531-14.039062-9.324219 18.636719 1.554688 39.488281.871094 61.257812-2.488281zm0 0" fill="#7bac51"/><g fill="#99ca6f"><path d="m48.148438 169.15625c5.972656 35.035156 32.226562 80.578125 73.132812 121.484375 7.347656 7.351563 14.847656 14.214844 22.410156 20.578125 3.011719 2.53125.761719 7.367188-3.125 6.765625-.050781-.007813-.101562-.015625-.15625-.023437-3.386718-.523438-6.75-.964844-10.089844-1.363282-9.800781-7.835937-19.546874-16.464844-29.039062-25.957031-42.722656-42.722656-69.480469-90.515625-73.824219-126.097656 6.523438.792969 13.457031 2.351562 20.691407 4.613281zm0 0"/><path d="m88.386719 314.882812c-26.105469 1.089844-48.53125 6.40625-63.929688 15.035157 19.574219 20.847656 59.332031 38.984375 106.96875 46.332031 10.75 1.65625 21.269531 2.65625 31.417969 3.066406-16.03125.636719-33.398438-.285156-51.417969-3.066406-47.640625-7.347656-87.394531-25.484375-106.96875-46.332031 19.203125-10.765625 49.347657-16.367188 83.929688-15.035157zm0 0"/><path d="m158.648438 388.0625c4.238281-3.105469 8.507812-5.945312 12.777343-8.546875 1.53125.011719 3.050781.011719 4.5625-.007813 4.582031-.046874 6.496094 5.75 2.800781 8.453126-.046874.03125-.09375.066406-.140624.101562-23.28125 17.058594-39.777344 37.472656-45.679688 54.394531-7.648438 2.121094-14.761719 3.148438-20.945312 2.953125 4.914062-17.453125 21.972656-39.285156 46.625-57.347656zm0 0"/><path d="m191.664062 283.550781c10.101563 0 17.730469-9.167969 15.851563-19.089843-4.6875-24.699219-7.273437-51.8125-7.273437-80.269532 0 0-1.660157-124.585937 27.136718-180.277344-28.171875 36.003907-47.136718 103.226563-47.136718 180.277344 0 23.210938 1.742187 45.511719 4.921874 66.355469zm0 0"/></g><path d="m406.613281 169.15625c-5.972656 35.035156-32.226562 80.578125-73.132812 121.484375-7.351563 7.351563-14.851563 14.214844-22.414063 20.578125-3.007812 2.53125-.761718 7.367188 3.128906 6.765625.050782-.007813.101563-.015625.152344-.023437 3.390625-.523438 6.75-.964844 10.09375-1.363282 9.800782-7.835937 19.546875-16.464844 29.039063-25.957031 42.722656-42.722656 69.480469-90.515625 73.820312-126.097656-6.519531.792969-13.453125 2.351562-20.6875 4.613281zm0 0" fill="#5d8e33"/><path d="m366.375 314.882812c26.101562 1.089844 48.53125 6.40625 63.925781 15.035157-19.574219 20.847656-59.328125 38.984375-106.96875 46.332031-10.75 1.65625-21.269531 2.65625-31.417969 3.066406 16.03125.636719 33.398438-.285156 51.417969-3.066406 47.640625-7.347656 87.394531-25.484375 106.96875-46.332031-19.203125-10.765625-49.34375-16.367188-83.925781-15.035157zm0 0" fill="#5d8e33"/><path d="m296.109375 388.0625c-4.234375-3.105469-8.507813-5.945312-12.773437-8.546875-1.53125.011719-3.054688.011719-4.566407-.007813-4.578125-.046874-6.492187 5.75-2.796875 8.453126.046875.03125.09375.066406.140625.101562 23.28125 17.058594 39.777344 37.472656 45.679688 54.394531 7.648437 2.121094 14.757812 3.148438 20.941406 2.953125-4.914063-17.453125-21.972656-39.285156-46.625-57.347656zm0 0" fill="#5d8e33"/><path d="m263.09375 283.550781c-10.101562 0-17.730469-9.167969-15.847656-19.089843 4.683594-24.699219 7.273437-51.8125 7.273437-80.269532 0 0 1.660157-124.585937-27.140625-180.277344 28.171875 36.003907 47.140625 103.226563 47.140625 180.277344 0 23.210938-1.746093 45.511719-4.921875 66.355469zm0 0" fill="#5d8e33"/><path d="m212.441406 503.914062c-2.210937 0-4-1.789062-4-4 0-2.207031 1.789063-4 4-4 6.03125 0 10.9375-4.90625 10.9375-10.9375v-120.683593c0-2.210938 1.792969-4 4-4 2.210938 0 4 1.789062 4 4v120.683593c0 10.441407-8.496094 18.9375-18.9375 18.9375zm0 0" fill="#690589"/><path d="m113.605469 449.433594c-.574219 0-1.144531-.007813-1.707031-.023438-1.230469-.039062-2.375-.644531-3.101563-1.632812-.726563-.992188-.957031-2.265625-.621094-3.449219 5.378907-19.121094 23.367188-41.359375 48.109375-59.492187.617188-.453126 1.238282-.902344 1.859375-1.34375-15.273437.308593-31.128906-.789063-47.328125-3.285157-46.617187-7.191406-88.492187-25.410156-109.273437-47.550781-.84375-.894531-1.226563-2.128906-1.039063-3.34375.1875-1.21875.925782-2.277344 1.996094-2.882812 26.441406-14.820313 71.726562-19.589844 118.246094-12.460938-7.664063-6.464844-15.121094-13.324219-22.292969-20.496094-41.65625-41.652344-70.378906-90.871094-74.964844-128.441406-.148437-1.222656.273438-2.445312 1.140625-3.3125.871094-.875 2.085938-1.296875 3.3125-1.144531 37.574219 4.585937 86.789063 33.3125 128.441406 74.96875 9.855469 9.851562 19.03125 20.15625 27.417969 30.769531-4.964843-25.84375-7.5625-53.871094-7.5625-82.117188 0-74.890624 18.390625-144.914062 47.988281-182.742187 1.519532-1.9375 4.785157-1.9375 6.300782 0 29.601562 37.828125 47.988281 107.847656 47.988281 182.742187 0 28.246094-2.59375 56.273438-7.558594 82.113282 8.386719-10.613282 17.5625-20.917969 27.414063-30.765625 41.65625-41.65625 90.871094-70.382813 128.441406-74.96875 1.214844-.152344 2.445312.273437 3.3125 1.144531.871094.867188 1.292969 2.089844 1.144531 3.3125-4.585937 37.570312-33.3125 86.789062-74.96875 128.441406-7.167969 7.171875-14.632812 14.03125-22.289062 20.496094 46.519531-7.128906 91.804687-2.355469 118.242187 12.460938 1.074219.605468 1.808594 1.664062 1.996094 2.882812.191406 1.214844-.191406 2.449219-1.035156 3.34375-20.785156 22.140625-62.65625 40.359375-109.273438 47.550781-16.199218 2.496094-32.054687 3.597657-47.328125 3.285157.621094.441406 1.242188.890624 1.855469 1.34375 24.746094 18.132812 42.730469 40.375 48.113281 59.492187.332031 1.183594.105469 2.457031-.625 3.449219-.726562.988281-1.871093 1.59375-3.097656 1.632812-19.859375.605469-46.480469-9.828125-71.222656-27.957031-20.1875-14.796875-36.3125-32.917969-44.261719-49.507813-7.945312 16.589844-24.070312 34.710938-44.261719 49.507813-24.035156 17.617187-49.851562 27.980469-69.507812 27.980469zm59.085937-74.691406c1.722656 0 3.269532 1.109374 3.804688 2.773437.570312 1.773437-.160156 3.703125-1.757813 4.660156-4.640625 2.777344-9.261719 5.839844-13.726562 9.113281-20.71875 15.183594-36.8125 33.855469-43.335938 49.984376 17.339844-1.367188 39.988281-11.089844 60.710938-26.273438 21.257812-15.574219 37.65625-34.789062 43.867187-51.398438.34375-.910156 1.007813-1.671874 1.867188-2.128906l.574218-.292968c.164063-.082032.328126-.160157.480469-.246094.675781-.375 1.441407-.539063 2.203125-.5.765625-.039063 1.53125.125 2.203125.5.15625.085937.320313.164062.484375.246094l.570313.292968c.863281.457032 1.527343 1.21875 1.871093 2.128906 6.210938 16.609376 22.609376 35.824219 43.863282 51.398438 20.722656 15.183594 43.371094 24.90625 60.714844 26.273438-6.527344-16.125-22.617188-34.796876-43.339844-49.984376-4.457032-3.265624-9.078125-6.332031-13.726563-9.113281-1.59375-.957031-2.324219-2.886719-1.753906-4.660156.566406-1.769531 2.273437-2.90625 4.136719-2.761719 18.851562 1.570313 39.714844.722656 60.324218-2.457031 42.203126-6.507813 80.140626-22.148437 100.851563-41.339844-25.53125-12.0625-66.417969-15.550781-108.621094-9.042969-4.71875.726563-9.589843 1.621094-14.894531 2.726563-1.832031.382813-3.675781-.550781-4.453125-2.246094-.78125-1.695312-.285156-3.703125 1.195313-4.839843 11.730468-9.007813 23.117187-19.011719 33.84375-29.742188 38.507812-38.507812 65.597656-83.332031 71.886718-118.507812-35.171875 6.292968-80 33.378906-118.507812 71.890624-14.089844 14.089844-26.761719 29.113282-37.660156 44.652344-1.105469 1.574219-3.179688 2.140625-4.929688 1.34375-1.753906-.796875-2.691406-2.730468-2.230469-4.601562 7.398438-29.984375 11.308594-64.011719 11.308594-98.402344 0-70.460938-16.4375-136.230469-43.136719-173.59375-26.703125 37.363281-43.140625 103.132812-43.140625 173.59375 0 34.390625 3.910157 68.414062 11.308594 98.402344.460937 1.871094-.476563 3.804687-2.226563 4.601562s-3.824218.230469-4.929687-1.34375c-10.898437-15.535156-23.570313-30.558594-37.664063-44.652344-38.507812-38.511718-83.332031-65.597656-118.507812-71.890624 6.292969 35.175781 33.382812 80 71.890625 118.507812 10.722656 10.726562 22.109375 20.734375 33.839844 29.742188 1.480469 1.136718 1.980469 3.144531 1.199219 4.839843-.777344 1.695313-2.625 2.628907-4.453126 2.246094-5.300781-1.105469-10.171874-2-14.894531-2.726563-42.203125-6.507812-83.089843-3.019531-108.625 9.042969 20.710938 19.191407 58.652344 34.832031 100.855469 41.339844 20.609375 3.175781 41.46875 4.027344 60.320312 2.457031.117188-.007812.226563-.011718.339844-.011718zm170.644532 1.507812h.019531zm0 0" fill="#690589"/><path d="m198.699219 141.214844c-.152344 0-.304688-.007813-.460938-.023438-2.191406-.25-3.769531-2.234375-3.519531-4.429687.933594-8.167969 2.066406-16.308594 3.371094-24.199219.355468-2.179688 2.421875-3.65625 4.597656-3.292969 2.179688.359375 3.65625 2.417969 3.292969 4.597657-1.28125 7.757812-2.394531 15.765624-3.3125 23.800781-.234375 2.042969-1.964844 3.546875-3.96875 3.546875zm0 0" fill="#690589"/></svg>