<svg height="503pt" viewBox="-79 0 503 503.9175" width="503pt" xmlns="http://www.w3.org/2000/svg"><path d="m195.453125 460.542969c0-21.746094-11.84375-39.375-26.453125-39.375s-26.453125 17.628906-26.453125 39.375c0 21.746093 11.84375 39.375 26.453125 39.375s26.453125-17.628907 26.453125-39.375zm0 0" fill="#7bac51"/><path d="m134.160156 355.832031c-20.320312-7.734375-41.011718-2.9375-46.207031 10.71875-5.195313 13.652344 7.066406 30.992188 27.390625 38.730469 20.324219 7.734375 41.011719 2.933594 46.207031-10.71875 5.199219-13.65625-7.066406-30.996094-27.390625-38.730469zm0 0" fill="#7bac51"/><path d="m258.464844 366.511719c-5.195313-13.652344-25.882813-18.453125-46.207032-10.71875-20.324218 7.734375-32.585937 25.074219-27.390624 38.730469 5.195312 13.65625 25.886718 18.453124 46.210937 10.71875 20.320313-7.734376 32.585937-25.074219 27.386719-38.730469zm0 0" fill="#7bac51"/><path d="m258.453125 366.535156c-4.070313-10.707031-17.675781-15.933594-33.148437-13.980468 9.902343 1.421874 17.722656 6.300781 20.644531 13.980468 5.199219 13.652344-7.066407 30.992188-27.390625 38.726563-4.390625 1.667969-8.792969 2.722656-13.058594 3.261719 7.703125 1.105468 16.667969.121093 25.5625-3.261719 20.324219-7.734375 32.589844-25.070313 27.390625-38.726563zm0 0" fill="#5d8e33"/><path d="m127.847656 405.261719c-20.324218-7.734375-32.589844-25.070313-27.394531-38.726563 2.921875-7.683594 10.746094-12.558594 20.648437-13.980468-15.476562-1.953126-29.078124 3.277343-33.152343 13.980468-5.195313 13.652344 7.070312 30.992188 27.390625 38.726563 8.894531 3.382812 17.859375 4.367187 25.5625 3.261719-4.265625-.539063-8.664063-1.589844-13.054688-3.261719zm0 0" fill="#99ca6f"/><path d="m169 421.167969c-1.78125 0-3.523438.273437-5.210938.773437 12.117188 3.601563 21.246094 19.511719 21.246094 38.601563 0 19.089843-9.128906 35-21.246094 38.601562 1.6875.503907 3.429688.773438 5.210938.773438 14.609375 0 26.453125-17.628907 26.453125-39.375 0-21.746094-11.84375-39.375-26.453125-39.375zm0 0" fill="#5d8e33"/><path d="m169 499.917969c1.785156 0 3.523438-.273438 5.210938-.773438-12.113282-3.601562-21.242188-19.511719-21.242188-38.601562 0-19.089844 9.128906-34.996094 21.242188-38.601563-1.6875-.5-3.425782-.773437-5.210938-.773437-14.609375 0-26.453125 17.628906-26.453125 39.375 0 21.746093 11.84375 39.375 26.453125 39.375zm0 0" fill="#99ca6f"/><path d="m260.976562 285.765625c36.058594-5.558594 66.15625-19.289063 80.972657-35.070313-18.882813-10.585937-51.714844-14.613281-87.773438-9.054687-3.890625.601563-7.695312 1.3125-11.433593 2.09375 8.746093-6.710937 17.460937-14.320313 25.917968-22.773437 32.339844-32.339844 52.59375-68.515626 55.878906-95.453126-26.933593 3.289063-63.113281 23.542969-95.453124 55.882813-11.125 11.125-20.777344 22.703125-28.84375 34.203125 5.511718-22.347656 8.648437-47.96875 8.648437-75.214844-.003906-58.320312-14.363281-109.210937-35.6875-136.460937-21.328125 27.25-35.683594 78.140625-35.683594 136.464843 0 27.246094 3.132813 52.863282 8.648438 75.210938-8.066407-11.5-17.722657-23.078125-28.847657-34.203125-32.339843-32.339844-68.515624-52.59375-95.453124-55.882813 3.289062 26.9375 23.542968 63.113282 55.882812 95.453126 8.453125 8.453124 17.167969 16.058593 25.914062 22.773437-3.738281-.78125-7.542968-1.492187-11.433593-2.09375-36.058594-5.558594-68.890625-1.53125-87.773438 9.054687 14.816407 15.78125 44.910157 29.511719 80.972657 35.070313 16.480468 2.542969 32.265624 3.058594 46.375 1.882813-3.546876 2.121093-7.105469 4.476562-10.628907 7.058593-18.660156 13.671875-31.574219 30.195313-35.292969 43.410157 13.71875.433593 33.367188-6.902344 52.027344-20.578126 17.21875-12.617187 29.527344-27.65625 34.25-40.289062.277344-.148438.578125-.285156.847656-.4375.066407.007812.132813.023438.195313.03125.0625-.007812.128906-.023438.195313-.03125.269531.152344.570312.289062.847656.4375 4.726562 12.632812 17.03125 27.671875 34.25 40.289062 18.660156 13.675782 38.308594 21.011719 52.027344 20.578126-3.71875-13.210938-16.632813-29.734376-35.292969-43.410157-3.523438-2.582031-7.078125-4.9375-10.625-7.058593 14.105469 1.175781 29.890625.660156 46.371093-1.882813zm0 0" fill="#7bac51"/><path d="m37.527344 129c4.523437 26.519531 24.394531 60.996094 55.363281 91.960938 5.5625 5.566406 11.242187 10.761718 16.964844 15.578124 2.277343 1.917969.574219 5.574219-2.367188 5.117188-.039062-.003906-.078125-.011719-.117187-.015625-2.5625-.398437-5.109375-.730469-7.636719-1.03125-7.421875-5.933594-14.800781-12.464844-21.984375-19.648437-32.339844-32.339844-52.59375-68.519532-55.882812-95.457032 4.9375.605469 10.1875 1.785156 15.660156 3.496094zm0 0" fill="#99ca6f"/><path d="m67.988281 239.3125c-19.757812.824219-36.738281 4.847656-48.390625 11.382812 14.816406 15.78125 44.910156 29.511719 80.972656 35.070313 8.136719 1.253906 16.101563 2.011719 23.78125 2.320313-12.128906.480468-25.277343-.21875-38.921874-2.320313-36.058594-5.558594-66.152344-19.289063-80.972657-35.070313 14.535157-8.152343 37.351563-12.390624 63.53125-11.382812zm0 0" fill="#99ca6f"/><path d="m121.175781 294.707031c3.207031-2.351562 6.441407-4.5 9.671875-6.46875 1.160156.007813 2.3125.003907 3.457032-.007812 3.464843-.035157 4.917968 4.351562 2.117187 6.398437-.035156.027344-.070313.050782-.105469.078125-17.625 12.914063-30.113281 28.367188-34.578125 41.175781-5.789062 1.605469-11.171875 2.382813-15.855469 2.238282 3.71875-13.214844 16.632813-29.738282 35.292969-43.414063zm0 0" fill="#99ca6f"/><path d="m146.167969 215.59375c7.644531 0 13.421875-6.9375 11.996093-14.449219-3.546874-18.695312-5.503906-39.222656-5.503906-60.761719 0 0-1.257812-94.308593 20.542969-136.464843-21.328125 27.25-35.683594 78.140625-35.683594 136.464843 0 17.570313 1.320313 34.449219 3.726563 50.230469zm0 0" fill="#99ca6f"/><path d="m308.875 129c-4.519531 26.519531-24.390625 60.996094-55.359375 91.960938-5.5625 5.566406-11.242187 10.761718-16.964844 15.578124-2.277343 1.917969-.574219 5.574219 2.367188 5.117188.035156-.003906.078125-.011719.113281-.015625 2.566406-.398437 5.113281-.730469 7.640625-1.03125 7.421875-5.933594 14.800781-12.464844 21.984375-19.648437 32.339844-32.339844 52.59375-68.519532 55.878906-95.457032-4.933594.605469-10.183594 1.785156-15.660156 3.496094zm0 0" fill="#5d8e33"/><path d="m278.417969 239.3125c19.757812.824219 36.738281 4.847656 48.390625 11.382812-14.816406 15.78125-44.910156 29.511719-80.972656 35.070313-8.136719 1.253906-16.101563 2.011719-23.78125 2.320313 12.132812.480468 25.28125-.21875 38.921874-2.320313 36.058594-5.558594 66.15625-19.289063 80.972657-35.070313-14.535157-8.152343-37.355469-12.390624-63.53125-11.382812zm0 0" fill="#5d8e33"/><path d="m225.230469 294.707031c-3.207031-2.351562-6.441407-4.5-9.671875-6.46875-1.160156.007813-2.3125.003907-3.457032-.007812-3.464843-.035157-4.917968 4.351562-2.117187 6.398437.035156.027344.070313.050782.105469.078125 17.625 12.914063 30.109375 28.367188 34.578125 41.175781 5.789062 1.605469 11.171875 2.382813 15.855469 2.238282-3.71875-13.214844-16.632813-29.738282-35.292969-43.414063zm0 0" fill="#5d8e33"/><path d="m200.238281 215.59375c-7.644531 0-13.417969-6.9375-11.996093-14.449219 3.546874-18.695312 5.503906-39.222656 5.503906-60.761719 0 0 1.257812-94.308593-20.542969-136.464843 21.324219 27.25 35.683594 78.140625 35.683594 136.464843 0 17.570313-1.320313 34.449219-3.726563 50.230469zm0 0" fill="#5d8e33"/><g fill="#690589"><path d="m173.203125 341.789062c-2.207031 0-4-1.792968-4-4v-61.074218c0-2.210938 1.792969-4 4-4s4 1.789062 4 4v61.074218c0 2.207032-1.792969 4-4 4zm0 0"/><path d="m87.074219 342.136719c-.445313 0-.882813-.007813-1.316407-.019531-1.230468-.042969-2.375-.644532-3.101562-1.636719-.726562-.992188-.957031-2.261719-.625-3.445313 4.054688-14.40625 17.375-31.074218 35.734375-44.78125-10.6875.058594-21.703125-.800781-32.945313-2.535156-36.03125-5.558594-67.164062-19.125-83.277343-36.289062-.84375-.894532-1.222657-2.128907-1.039063-3.347657.1875-1.214843.925782-2.277343 2-2.878906 19.863282-11.136719 52.101563-14.832031 86.792969-10.035156-4.921875-4.261719-9.726563-8.734375-14.375-13.378907-31.679687-31.675781-53.527344-69.152343-57.023437-97.796874-.148438-1.21875.269531-2.441407 1.140624-3.3125.871094-.871094 2.082032-1.292969 3.3125-1.140626 28.648438 3.496094 66.121094 25.347657 97.796876 57.023438 6.546874 6.550781 12.703124 13.355469 18.40625 20.359375-3.308594-18.554687-5.035157-38.476563-5.035157-58.539063 0-56.898437 13.996094-110.132812 36.53125-138.929687 1.519531-1.9375 4.785157-1.9375 6.300781 0 22.535157 28.800781 36.535157 82.035156 36.535157 138.929687 0 20.0625-1.726563 39.984376-5.039063 58.535157 5.707032-7 11.859375-13.808594 18.40625-20.355469 31.675782-31.675781 69.152344-53.527344 97.796875-57.023438 1.222657-.152343 2.445313.273438 3.3125 1.140626.871094.871093 1.292969 2.09375 1.140625 3.3125-3.496094 28.648437-25.347656 66.125-57.023437 97.800781-4.644531 4.644531-9.453125 9.117187-14.375 13.375 34.6875-4.796875 66.929687-1.097657 86.792969 10.039062 1.074218.601563 1.808593 1.664063 1.996093 2.878907.1875 1.214843-.195312 2.449218-1.039062 3.34375-16.113281 17.167968-47.246094 30.734374-83.277344 36.289062-11.242187 1.734375-22.289063 2.542969-32.945313 2.535156 18.359376 13.707032 31.679688 30.378906 35.730469 44.78125.335938 1.183594.105469 2.457032-.621093 3.449219-.730469.992187-1.875 1.59375-3.101563 1.632813-15.316406.464843-35.621094-7.5-54.519531-21.351563-14.695313-10.769531-26.582032-23.871094-32.929688-36.085937-6.347656 12.214843-18.234375 25.316406-32.929687 36.085937-18.347657 13.453125-38.105469 21.371094-53.1875 21.371094zm44.730469-58.488281c1.722656 0 3.273437 1.113281 3.804687 2.777343.570313 1.773438-.15625 3.703125-1.753906 4.65625-3.496094 2.089844-6.964844 4.394531-10.316407 6.851563-14.914062 10.929687-26.621093 24.234375-31.847656 35.925781 12.722656-1.460937 28.9375-8.617187 43.851563-19.546875 15.945312-11.679688 28.230469-26.0625 32.871093-38.460938.339844-.914062 1.003907-1.671874 1.863282-2.128906l.785156-.402344c.742188-.414062 1.597656-.582031 2.433594-.476562.007812 0 .015625.003906.027344.003906.640624.03125 1.304687.1875 1.824218.472656l.785156.402344c.859376.457032 1.523438 1.210938 1.863282 2.125 4.640625 12.402344 16.925781 26.785156 32.867187 38.464844 14.917969 10.929688 31.132813 18.082031 43.855469 19.546875-5.226562-11.691406-16.933594-24.996094-31.851562-35.929687-3.359376-2.460938-6.828126-4.765626-10.3125-6.847657-1.597657-.957031-2.324219-2.886719-1.753907-4.660156.566407-1.769531 2.300781-2.898437 4.136719-2.761719 14.199219 1.179688 29.90625.542969 45.433594-1.851562 31.046875-4.785156 58.996094-16.113282 74.75-30.0625-19.226563-8.554688-49.289063-10.941406-80.335938-6.15625-3.554687.550781-7.222656 1.222656-11.21875 2.058594-1.824218.378906-3.675781-.550782-4.457031-2.246094-.777344-1.695313-.28125-3.707032 1.203125-4.84375 8.84375-6.792969 17.429688-14.335938 25.519531-22.425782 28.515625-28.515624 48.710938-61.585937 53.890625-87.804687-26.222656 5.175781-59.292968 25.375-87.804687 53.886719-10.628907 10.628906-20.183594 21.957031-28.398438 33.671875-1.105469 1.578125-3.175781 2.140625-4.933593 1.34375-1.75-.796875-2.6875-2.730469-2.226563-4.597657 5.582031-22.625 8.535156-48.300781 8.535156-74.257812 0-52.445312-12.050781-101.410156-31.6875-129.71875-19.628906 28.304688-31.679687 77.273438-31.679687 129.71875 0 25.953125 2.949218 51.628906 8.53125 74.257812.460937 1.867188-.476563 3.800782-2.226563 4.597657s-3.824219.234375-4.929687-1.34375c-8.21875-11.714844-17.773438-23.042969-28.402344-33.671875-28.519531-28.507813-61.589844-48.710938-87.808594-53.882813 5.171875 26.21875 25.371094 59.289063 53.886719 87.800781 8.089844 8.089844 16.679687 15.636719 25.523437 22.429688 1.480469 1.136719 1.976563 3.144531 1.199219 4.839844-.78125 1.695312-2.625 2.628906-4.457031 2.246094-3.996094-.832032-7.667969-1.507813-11.222656-2.054688-31.042969-4.789062-61.109375-2.402344-80.332032 6.152344 15.75 13.953125 43.703126 25.28125 74.746094 30.066406 15.527344 2.390625 31.238282 3.027344 45.433594 1.851562.113281-.007812.226562-.015624.335938-.015624zm129.175781 2.117187h.019531zm0 0"/><path d="m155.183594 112.242188c-.152344 0-.300782-.007813-.457032-.023438-2.195312-.25-3.773437-2.234375-3.523437-4.429688.972656-8.507812 2.152344-16.988281 3.511719-25.207031.359375-2.179687 2.417968-3.660156 4.597656-3.292969 2.179688.359376 3.65625 2.417969 3.292969 4.597657-1.335938 8.085937-2.496094 16.433593-3.453125 24.808593-.230469 2.042969-1.960938 3.546876-3.96875 3.546876zm0 0"/><path d="m211.929688 412.90625c-14.496094 0-26.699219-6.136719-30.8125-16.941406-5.972657-15.691406 7.355468-35.382813 29.707031-43.886719 10.5625-4.019531 21.601562-5.023437 31.101562-2.820313 10.066407 2.332032 17.265625 7.964844 20.265625 15.855469 5.972656 15.691407-7.355468 35.378907-29.707031 43.886719-6.960937 2.648438-13.992187 3.90625-20.554687 3.90625zm19.613281-56.796875c-5.757813 0-11.878907 1.164063-17.875 3.445313-17.917969 6.820312-29.402344 22.1875-25.074219 33.566406 4.328125 11.375 23.125 15.21875 41.046875 8.402344 17.921875-6.820313 29.402344-22.191407 25.074219-33.566407-2.023438-5.320312-7.207032-9.195312-14.597656-10.90625-2.710938-.632812-5.59375-.941406-8.574219-.941406zm0 0"/><path d="m134.660156 412.960938c-6.742187 0-13.84375-1.335938-20.738281-3.960938-10.566406-4.019531-19.484375-10.617188-25.109375-18.574219-5.96875-8.433593-7.597656-17.425781-4.597656-25.3125 3.003906-7.890625 10.199218-13.523437 20.265625-15.855469 9.496093-2.203124 20.539062-1.203124 31.105469 2.820313 10.5625 4.019531 19.480468 10.617187 25.105468 18.570313 5.96875 8.4375 7.601563 17.429687 4.597656 25.316406-3 7.886718-10.195312 13.519531-20.261718 15.855468-3.300782.761719-6.785156 1.140626-10.367188 1.140626zm-19.796875-56.851563c-2.980469 0-5.859375.3125-8.578125.941406-7.386718 1.714844-12.570312 5.589844-14.59375 10.910157-2.023437 5.320312-.726562 11.65625 3.652344 17.847656 4.722656 6.671875 12.328125 12.253906 21.421875 15.714844 9.09375 3.457031 18.488281 4.351562 26.453125 2.503906 7.386719-1.714844 12.570312-5.589844 14.59375-10.910156 2.023438-5.320313.726562-11.65625-3.652344-17.851563-4.71875-6.671875-12.328125-12.253906-21.421875-15.710937-5.996093-2.28125-12.121093-3.445313-17.875-3.445313zm-26.914062 10.425781h.023437zm0 0"/><path d="m169 503.917969c-16.792969 0-30.453125-19.457031-30.453125-43.375 0-23.914063 13.660156-43.375 30.453125-43.375s30.453125 19.460937 30.453125 43.375c0 23.917969-13.660156 43.375-30.453125 43.375zm0-78.75c-12.167969 0-22.453125 16.203125-22.453125 35.375 0 19.175781 10.28125 35.375 22.453125 35.375s22.453125-16.199219 22.453125-35.375c0-19.171875-10.28125-35.375-22.453125-35.375zm0 0"/></g></svg>