<svg height="504pt" viewBox="0 0 504.002 504" width="504pt" xmlns="http://www.w3.org/2000/svg"><path d="m436.726562 119.691406c14.476563 14.476563 37.945313 14.476563 52.417969 0 14.476563-14.472656 14.472657-37.941406-.003906-52.417968-14.476563-14.472657-37.941406-14.472657-52.414063 0 14.476563-14.472657 14.472657-37.941407-.003906-52.417969-14.472656-14.472657-37.941406-14.472657-52.417968 0-14.476563 14.476562-14.476563 37.945312 0 52.417969l9.984374 9.980468-317.03125 317.035156-9.984374-9.980468c-14.472657-14.476563-37.945313-14.476563-52.417969 0-14.476563 14.472656-14.476563 37.941406 0 52.417968 14.476562 14.472657 37.945312 14.472657 52.417969 0-14.472657 14.472657-14.476563 37.941407 0 52.417969 14.476562 14.472657 37.945312 14.472657 52.417968 0 14.472656-14.476562 14.472656-37.945312 0-52.417969l-9.980468-9.984374 317.03125-317.03125zm0 0" fill="#f4efed"/><path d="m93.484375 503.980469c-10.515625 0-21.03125-4-29.039063-12.007813-11.53125-11.535156-14.757812-28.277344-9.675781-42.722656-4.34375 1.535156-8.960937 2.332031-13.703125 2.332031-10.96875 0-21.28125-4.269531-29.039062-12.027343-7.753906-7.757813-12.027344-18.070313-12.027344-29.039063 0-10.964844 4.273438-21.28125 12.027344-29.035156 16.011718-16.015625 42.066406-16.015625 58.078125 0l7.152343 7.152343 311.375-311.375-7.15625-7.15625c-7.753906-7.753906-12.027343-18.066406-12.027343-29.035156 0-10.972656 4.273437-21.285156 12.027343-29.039062 7.757813-7.757813 18.070313-12.027344 29.039063-12.027344s21.28125 4.273438 29.039063 12.03125c11.542968 11.542969 14.761718 28.296875 9.667968 42.75 14.449219-5.09375 31.210938-1.875 42.75 9.667969 7.753906 7.753906 12.027344 18.066406 12.03125 29.039062 0 10.964844-4.273437 21.28125-12.03125 29.035157-7.753906 7.757812-18.066406 12.03125-29.035156 12.03125-10.972656 0-21.285156-4.273438-29.039062-12.03125l-7.15625-7.152344-311.375 311.375 7.15625 7.152344c16.007812 16.007812 16.007812 42.0625 0 58.074218-8.007813 8.007813-18.523438 12.007813-29.039063 12.007813zm-23.378906-64.425781c-12.894531 12.890624-12.894531 33.871093 0 46.761718 12.890625 12.890625 33.867187 12.894532 46.761719 0 12.890624-12.894531 12.890624-33.871094 0-46.761718l-9.984376-9.980469c-.75-.75-1.171874-1.769531-1.171874-2.828125 0-1.0625.421874-2.078125 1.171874-2.828125l317.03125-317.035157c1.5625-1.5625 4.097657-1.5625 5.65625 0l9.984376 9.980469c12.894531 12.890625 33.867187 12.890625 46.761718 0 6.242188-6.242187 9.683594-14.546875 9.683594-23.378906s-3.441406-17.132813-9.6875-23.378906c-12.890625-12.890625-33.867188-12.890625-46.757812-.003907-1.5625 1.5625-4.09375 1.5625-5.65625 0-.78125-.78125-1.171876-1.800781-1.171876-2.828124 0-1.023438.390626-2.042969 1.171876-2.828126 12.890624-12.886718 12.890624-33.867187-.003907-46.757812-6.246093-6.246094-14.546875-9.6875-23.378906-9.6875s-17.132813 3.441406-23.378906 9.683594c-12.894531 12.894531-12.894531 33.871094 0 46.761718l9.980469 9.984376c1.5625 1.5625 1.5625 4.09375 0 5.65625l-317.03125 317.03125c-1.5 1.5-4.15625 1.5-5.65625 0l-9.984376-9.980469c-12.894531-12.890625-33.871093-12.894531-46.761718 0-6.242188 6.246093-9.683594 14.546875-9.683594 23.378906s3.441406 17.136719 9.683594 23.382813c6.246094 6.246093 14.546875 9.683593 23.378906 9.683593s17.136719-3.4375 23.382812-9.683593c1.5625-1.5625 4.09375-1.5625 5.65625 0 .78125.78125 1.171876 1.800781 1.171876 2.828124 0 1.023438-.390626 2.046876-1.167969 2.828126zm0 0" fill="#690589"/><path d="m67.273438 119.691406c-14.472657 14.476563-37.945313 14.476563-52.417969 0-14.476563-14.472656-14.472657-37.941406 0-52.414062 14.472656-14.472656 37.945312-14.476563 52.417969-.003906-14.472657-14.472657-14.472657-37.941407.003906-52.417969 14.476562-14.472657 37.941406-14.472657 52.414062 0 14.472656 14.476562 14.472656 37.945312 0 52.417969l-9.980468 9.984374 317.03125 317.03125 9.980468-9.980468c14.476563-14.476563 37.945313-14.476563 52.417969 0 14.476563 14.472656 14.476563 37.941406 0 52.417968-14.476563 14.472657-37.941406 14.472657-52.417969 0 14.476563 14.472657 14.476563 37.941407 0 52.417969-14.476562 14.472657-37.941406 14.472657-52.417968 0-14.472657-14.476562-14.472657-37.945312 0-52.417969l9.984374-9.984374-317.03125-317.03125zm0 0" fill="#f4efed"/><path d="m410.515625 504c-10.96875 0-21.28125-4.269531-29.039063-12.027344-16.011718-16.011718-16.011718-42.066406 0-58.074218l7.15625-7.152344-311.375-311.378906-7.15625 7.15625c-16.007812 16.011718-42.0625 16.011718-58.074218 0-7.753906-7.757813-12.027344-18.070313-12.027344-29.039063s4.273438-21.28125 12.027344-29.039063c11.53125-11.53125 28.273437-14.753906 42.71875-9.679687-1.53125-4.339844-2.332032-8.957031-2.328125-13.703125 0-10.964844 4.273437-21.28125 12.027343-29.035156 7.757813-7.753906 18.070313-12.027344 29.039063-12.027344s21.28125 4.273438 29.035156 12.027344c7.757813 7.757812 12.027344 18.070312 12.027344 29.039062s-4.269531 21.28125-12.027344 29.039063l-7.152343 7.152343 311.375 311.378907 7.152343-7.15625c16.011719-16.011719 42.066407-16.011719 58.078125 0 7.753906 7.757812 12.027344 18.070312 12.027344 29.039062s-4.273438 21.28125-12.027344 29.039063c-7.757812 7.757812-18.070312 12.027344-29.039062 12.027344-4.742188 0-9.363282-.796876-13.707032-2.332032 5.082032 14.449219 1.855469 31.191406-9.675781 42.722656-7.753906 7.753907-18.066406 12.023438-29.035156 12.023438zm-333.257813-398.289062c1.058594 0 2.078126.421874 2.828126 1.171874l317.03125 317.035157c.75.75 1.171874 1.765625 1.171874 2.828125 0 1.058594-.421874 2.078125-1.171874 2.828125l-9.980469 9.980469c-12.890625 12.890624-12.890625 33.867187 0 46.761718 6.246093 6.246094 14.546875 9.683594 23.378906 9.683594s17.132813-3.4375 23.378906-9.683594c12.890625-12.890625 12.890625-33.871094 0-46.761718-.78125-.785157-1.171875-1.804688-1.171875-2.828126 0-1.027343.390625-2.046874 1.171875-2.828124 1.5625-1.5625 4.09375-1.5625 5.65625 0 6.246094 6.246093 14.550781 9.683593 23.382813 9.683593 8.832031 0 17.132812-3.4375 23.378906-9.683593 6.246094-6.246094 9.683594-14.550782 9.683594-23.382813s-3.4375-17.132813-9.683594-23.378906c-12.890625-12.886719-33.871094-12.890625-46.761719 0l-9.984375 9.980469c-1.5 1.5-4.15625 1.5-5.65625 0l-317.027344-317.03125c-1.5625-1.5625-1.5625-4.09375 0-5.65625l9.980469-9.984376c6.246094-6.246093 9.683594-14.546874 9.683594-23.378906 0-8.832031-3.4375-17.132812-9.683594-23.378906-6.242187-6.246094-14.546875-9.6875-23.378906-9.6875s-17.136719 3.441406-23.378906 9.6875c-6.246094 6.246094-9.683594 14.546875-9.683594 23.378906 0 8.832032 3.4375 17.132813 9.683594 23.378906.78125.78125 1.171875 1.804688 1.171875 2.828126 0 1.023437-.390625 2.046874-1.171875 2.828124-1.5625 1.5625-4.09375 1.5625-5.65625 0-12.894531-12.890624-33.871094-12.882812-46.761719 0-6.246094 6.25-9.6875 14.550782-9.6875 23.382813s3.4375 17.132813 9.683594 23.378906c12.890625 12.894531 33.871094 12.890625 46.761718 0l9.984376-9.980469c.75-.75 1.765624-1.171874 2.828124-1.171874zm-9.984374 13.984374h.019531zm0 0" fill="#690589"/><path d="m252 47.183594c-83.988281 0-152.074219 68.085937-152.074219 152.074218v116.4375c0 33.027344 26.773438 59.800782 59.800781 59.800782h6.058594v62.1875c0 10.570312 8.566406 19.136718 19.136719 19.136718h134.15625c10.570313 0 19.136719-8.566406 19.136719-19.136718v-62.1875h6.0625c33.023437 0 59.796875-26.769532 59.796875-59.800782v-116.4375c-.003907-83.988281-68.085938-152.074218-152.074219-152.074218zm0 0" fill="#f4efed"/><path d="m252 47.183594c-3.363281 0-6.691406.148437-10 .367187 79.320312 5.152344 142.070312 71.082031 142.070312 151.707031v116.4375c0 33.027344-26.773437 59.800782-59.796874 59.800782-3.347657 0-6.0625 2.714844-6.0625 6.0625v56.125c0 10.570312-8.566407 19.136718-19.132813 19.136718h20c10.566406 0 19.132813-8.566406 19.132813-19.136718v-62.1875h6.0625c33.027343 0 59.796874-26.773438 59.796874-59.800782v-116.4375c0-83.988281-68.082031-152.074218-152.070312-152.074218zm0 0" fill="#d6d1cf"/><path d="m252 47.183594c3.363281 0 6.691406.148437 10 .367187-79.320312 5.152344-142.074219 71.082031-142.074219 151.707031v116.4375c0 33.027344 26.773438 59.800782 59.800781 59.800782 3.34375 0 6.058594 2.714844 6.058594 6.0625v56.125c0 10.570312 8.566406 19.136718 19.136719 19.136718h-20c-10.570313 0-19.136719-8.566406-19.136719-19.136718v-62.1875h-6.058594c-33.027343 0-59.800781-26.773438-59.800781-59.800782v-116.4375c0-83.988281 68.085938-152.074218 152.074219-152.074218zm0 0" fill="#fff"/><path d="m190.761719 316.582031c-25.625 0-46.394531-20.769531-46.394531-46.394531v-44.445312h31.914062c25.625 0 46.398438 20.769531 46.398438 46.394531v12.53125c0 17.625-14.289063 31.914062-31.917969 31.914062zm0 0" fill="#7bac51"/><path d="m313.238281 316.582031c25.625 0 46.394531-20.769531 46.394531-46.394531v-44.445312h-31.914062c-25.625 0-46.398438 20.769531-46.398438 46.394531v12.53125c0 17.625 14.289063 31.914062 31.917969 31.914062zm0 0" fill="#7bac51"/><path d="m252 363.472656h-8.808594c-8.914062 0-14.488281-9.648437-10.03125-17.371094l4.40625-7.628906 4.402344-7.628906c4.460938-7.71875 15.601562-7.71875 20.0625 0l4.402344 7.628906 4.40625 7.628906c4.457031 7.71875-1.117188 17.371094-10.03125 17.371094zm0 0" fill="#7bac51"/><g fill="#690589"><path d="m319.078125 460.816406h-134.15625c-12.757813 0-23.132813-10.375-23.132813-23.132812v-58.1875h-2.0625c-35.179687 0-63.796874-28.621094-63.796874-63.800782v-116.4375c0-86.058593 70.011718-156.074218 156.074218-156.074218 86.058594 0 156.070313 70.015625 156.070313 156.074218v116.4375c0 35.183594-28.621094 63.800782-63.796875 63.800782h-2.0625v58.1875c-.003906 12.757812-10.378906 23.132812-23.136719 23.132812zm-67.078125-409.632812c-81.648438 0-148.074219 66.425781-148.074219 148.074218v116.4375c0 30.769532 25.03125 55.800782 55.796875 55.800782h6.0625c2.207032 0 4 1.789062 4 4v62.1875c0 8.34375 6.789063 15.132812 15.132813 15.132812h134.160156c8.34375 0 15.132813-6.789062 15.132813-15.132812v-62.1875c0-2.210938 1.792968-4 4-4h6.058593c30.769531 0 55.796875-25.03125 55.796875-55.800782v-116.4375c.003906-81.648437-66.421875-148.074218-148.066406-148.074218zm0 0"/><path d="m115.925781 226.101562c-2.207031 0-4-1.792968-4-4v-24c0-2.207031 1.792969-4 4-4s4 1.792969 4 4v24c0 2.207032-1.789062 4-4 4zm0 0"/><path d="m190.761719 320.582031c-27.789063 0-50.394531-22.605469-50.394531-50.394531v-44.449219c0-2.207031 1.789062-4 4-4h31.914062c27.789062 0 50.398438 22.609375 50.398438 50.398438v12.53125c0 19.804687-16.113282 35.914062-35.917969 35.914062zm-42.394531-90.84375v40.449219c0 23.375 19.015624 42.394531 42.394531 42.394531 15.390625 0 27.917969-12.523437 27.917969-27.914062v-12.53125c0-23.378907-19.019532-42.398438-42.398438-42.398438zm0 0"/><path d="m313.238281 320.582031c-19.804687 0-35.917969-16.109375-35.917969-35.914062v-12.53125c0-27.792969 22.609376-50.398438 50.394532-50.398438h31.917968c2.207032 0 4 1.792969 4 4v44.449219c0 27.789062-22.605468 50.394531-50.394531 50.394531zm14.476563-90.84375c-23.375 0-42.394532 19.019531-42.394532 42.398438v12.53125c0 15.390625 12.523438 27.914062 27.917969 27.914062 23.375 0 42.394531-19.019531 42.394531-42.394531v-40.449219zm0 0"/><path d="m207.769531 460.816406c-2.210937 0-4-1.792968-4-4v-40.863281c0-2.207031 1.789063-4 4-4 2.207031 0 4 1.792969 4 4v40.863281c0 2.210938-1.792969 4-4 4zm0 0"/><path d="m252 460.816406c-2.207031 0-4-1.792968-4-4v-40.863281c0-2.207031 1.792969-4 4-4s4 1.792969 4 4v40.863281c0 2.210938-1.792969 4-4 4zm0 0"/><path d="m296.230469 460.816406c-2.207031 0-4-1.792968-4-4v-40.863281c0-2.207031 1.792969-4 4-4 2.210937 0 4 1.792969 4 4v40.863281c0 2.210938-1.789063 4-4 4zm0 0"/><path d="m260.808594 367.472656h-17.617188c-5.632812 0-10.675781-2.910156-13.496094-7.792968-2.816406-4.875-2.816406-10.703126 0-15.582032l8.808594-15.253906c2.816406-4.878906 7.859375-7.792969 13.492188-7.792969 5.636718 0 10.679687 2.914063 13.496094 7.792969l8.808593 15.253906c2.816407 4.878906 2.8125 10.707032-.003906 15.582032-2.816406 4.878906-7.855469 7.792968-13.488281 7.792968zm-8.808594-38.417968c-2.742188 0-5.195312 1.417968-6.566406 3.789062l-8.808594 15.257812c-1.367188 2.375-1.367188 5.207032 0 7.582032 1.371094 2.375 3.828125 3.792968 6.566406 3.792968h17.617188c2.742187 0 5.195312-1.417968 6.566406-3.792968 1.367188-2.375 1.371094-5.207032 0-7.582032l-8.808594-15.257812c-1.371094-2.371094-3.828125-3.789062-6.566406-3.789062zm0 0"/></g></svg>