<svg height="504pt" viewBox="-17 0 504 504" width="504pt" xmlns="http://www.w3.org/2000/svg"><path d="m389.628906 120.035156c-13.703125 0-25.332031-8.742187-29.703125-20.941406-23.222656-.0625-42.222656-18.035156-43.949219-40.828125-13.898437-3.3125-24.246093-15.777344-24.246093-30.6875 0-4.828125 1.117187-9.382813 3.054687-13.476563-18.847656-6.539062-39.085937-10.101562-60.15625-10.101562-101.34375 0-183.5 82.152344-183.5 183.496094v129.007812c0 101.34375 82.15625 183.496094 183.5 183.496094 101.339844 0 183.496094-82.152344 183.496094-183.496094v-129.007812c0-25.136719-5.058594-49.089844-14.207031-70.90625-4.296875 2.1875-9.140625 3.445312-14.289063 3.445312zm0 0" fill="#fcc24c"/><path d="m405.179688 119.707031c-.414063-1.042969-.832032-2.082031-1.265626-3.113281-1.382812.703125-2.832031 1.300781-4.320312 1.800781 1.792969.601563 3.664062 1.039063 5.585938 1.3125zm0 0" fill="#fce06a"/><path d="m71.128906 316.503906v-129.007812c0-97.914063 76.691406-177.90625 173.28125-183.210938-3.238281-.167968-6.496094-.285156-9.78125-.285156-101.34375 0-183.5 82.152344-183.5 183.496094v129.007812c0 101.34375 82.15625 183.496094 183.5 183.496094 3.355469 0 6.6875-.097656 10-.273438-96.691406-5.195312-173.5-85.238281-173.5-183.222656zm0 0" fill="#fce06a"/><path d="m403.917969 116.589844c-4.292969 2.1875-9.140625 3.445312-14.289063 3.445312-1.511718 0-2.996094-.125-4.449218-.332031 8.34375 20.976563 12.945312 43.84375 12.945312 67.792969v129.007812c0 97.984375-76.808594 178.027344-173.5 183.222656 3.3125.175782 6.644531.273438 10 .273438 101.34375 0 183.5-82.152344 183.5-183.496094v-129.007812c0-25.136719-5.058594-49.089844-14.207031-70.90625zm0 0" fill="#dea42e"/><path d="m301.207031 304.566406c27.355469-4.21875 50.179688-14.632812 61.417969-26.601562-14.324219-8.03125-39.226562-11.085938-66.578125-6.867188-2.949219.453125-5.835937.996094-8.671875 1.589844 6.632812-5.09375 13.242188-10.863281 19.65625-17.277344 24.53125-24.527344 39.894531-51.96875 42.390625-72.402344-20.433594 2.496094-47.875 17.855469-72.40625 42.386719-8.4375 8.441407-15.761719 17.222657-21.878906 25.949219 4.179687-16.953125 6.558593-36.386719 6.558593-57.054688 0-44.238281-10.890624-82.835937-27.066406-103.507812-16.175781 20.671875-27.066406 59.269531-27.066406 103.507812 0 20.667969 2.378906 40.101563 6.5625 57.054688-6.117188-8.726562-13.441406-17.507812-21.882812-25.945312-24.53125-24.535157-51.972657-39.894532-72.40625-42.390626 2.492187 20.433594 17.859374 47.875 42.386718 72.402344 6.414063 6.414063 13.023438 12.183594 19.660156 17.277344-2.835937-.59375-5.722656-1.136719-8.671874-1.589844-27.351563-4.21875-52.257813-1.164062-66.582032 6.867188 11.242188 11.972656 34.066406 22.386718 61.417969 26.601562 12.503906 1.925782 24.476563 2.320313 35.175781 1.429688-2.6875 1.609375-5.386718 3.394531-8.058594 5.351562-14.152343 10.371094-23.949218 22.90625-26.773437 32.929688 10.40625.328125 25.3125-5.238282 39.464844-15.613282 13.0625-9.570312 22.398437-20.976562 25.980469-30.558593.210937-.113281.4375-.21875.644531-.332031.046875.007812.097656.019531.148437.023437.046875-.003906.097656-.015625.148438-.023437.203125.113281.433594.21875.644531.332031 3.582031 9.582031 12.917969 20.988281 25.976563 30.558593 14.15625 10.375 29.058593 15.941407 39.464843 15.613282-2.820312-10.023438-12.617187-22.558594-26.769531-32.929688-2.671875-1.957031-5.371094-3.742187-8.0625-5.351562 10.699219.890625 22.675781.496094 35.175781-1.429688zm0 0" fill="#7bac51"/><g fill="#690589"><path d="m299.964844 348.292969c-11.644532 0-26.84375-6.074219-40.929688-16.398438-10.632812-7.789062-19.351562-17.195312-24.410156-26.128906-5.054688 8.9375-13.773438 18.339844-24.40625 26.128906-14.503906 10.628907-30.199219 16.742188-41.953125 16.382813-1.230469-.042969-2.375-.640625-3.101563-1.632813-.726562-.996093-.957031-2.265625-.625-3.449219 2.964844-10.523437 12.28125-22.578124 25.207032-32.753906-7.261719-.113281-14.722656-.75-22.308594-1.921875-27.535156-4.242187-51.359375-14.644531-63.726562-27.816406-.839844-.898437-1.222657-2.132813-1.035157-3.347656.1875-1.21875.921875-2.28125 1.996094-2.878907 14.640625-8.207031 37.984375-11.152343 63.296875-8.128906-2.921875-2.613281-5.785156-5.316406-8.574219-8.105468-24.539062-24.539063-40.8125-52.480469-43.53125-74.75-.148437-1.21875.273438-2.441407 1.144531-3.308594.867188-.875 2.082032-1.292969 3.308594-1.144532 22.269532 2.71875 50.210938 18.992188 74.75 43.53125 4.121094 4.121094 8.035156 8.375 11.722656 12.738282-2.125-13.105469-3.230468-27.015625-3.230468-41.015625 0-44.019531 10.4375-83.636719 27.917968-105.976563 1.515626-1.9375 4.785157-1.9375 6.300782 0 17.480468 22.339844 27.914062 61.957032 27.914062 105.976563 0 14-1.101562 27.910156-3.230468 41.015625 3.6875-4.363282 7.601562-8.621094 11.722656-12.738282 24.539062-24.539062 52.480468-40.808593 74.75-43.53125 1.210937-.148437 2.441406.269532 3.308594 1.144532.871093.867187 1.292968 2.089844 1.144531 3.308594-2.714844 22.265624-18.992188 50.210937-43.53125 74.75-2.789063 2.789062-5.652344 5.492187-8.574219 8.105468 25.3125-3.03125 48.65625-.078125 63.296875 8.128906 1.074219.601563 1.808594 1.660157 1.996094 2.878907.191406 1.210937-.191407 2.449219-1.035157 3.347656-12.367187 13.171875-36.191406 23.574219-63.726562 27.816406-7.585938 1.171875-15.046875 1.808594-22.308594 1.921875 12.925782 10.175782 22.242188 22.230469 25.207032 32.753906.332031 1.183594.101562 2.453126-.625 3.449219-.726563.992188-1.871094 1.59375-3.101563 1.632813-.332031.007812-.675781.015625-1.019531.015625zm-64.976563-54.484375c.613281.039062 1.238281.195312 1.738281.476562l.566407.289063c.863281.457031 1.53125 1.214843 1.871093 2.128906 3.457032 9.238281 12.652344 19.980469 24.601563 28.738281 10.511719 7.703125 21.859375 12.90625 31.050781 14.402344-4.195312-8.3125-12.574218-17.5625-23.089844-25.273438-2.515624-1.839843-5.121093-3.574218-7.75-5.140624-1.59375-.960938-2.324218-2.886719-1.753906-4.660157.570313-1.773437 2.273438-2.90625 4.140625-2.761719 10.699219.890626 22.539063.40625 34.238281-1.394531 22.625-3.488281 43.046876-11.570312 55.039063-21.574219-14.449219-5.925781-36.351563-7.480468-58.984375-3.988281-2.667969.410157-5.433594.917969-8.460938 1.550781-1.828124.378907-3.671874-.554687-4.453124-2.25-.78125-1.695312-.28125-3.703124 1.199218-4.839843 6.675782-5.125 13.160156-10.820313 19.265625-16.929688 20.988281-20.984375 35.992188-45.207031 40.3125-64.671875-19.46875 4.320313-43.683593 19.324219-64.671875 40.308594-8.023437 8.023438-15.234375 16.574219-21.433594 25.414062-1.105468 1.574219-3.179687 2.148438-4.929687 1.34375-1.753906-.792968-2.691406-2.726562-2.226563-4.597656 4.214844-17.085937 6.441407-36.484375 6.441407-56.09375 0-38.882812-8.75-75.207031-23.066407-96.675781-14.3125 21.46875-23.066406 57.792969-23.066406 96.675781 0 19.609375 2.230469 39.007813 6.445313 56.09375.460937 1.871094-.476563 3.800782-2.226563 4.597656-1.753906.804688-3.828125.230469-4.929687-1.34375-6.207031-8.84375-13.417969-17.394531-21.4375-25.414062-20.992188-20.980469-45.210938-35.984375-64.675781-40.304688 4.320312 19.464844 19.324218 43.683594 40.308593 64.671876 6.109375 6.105468 12.589844 11.800781 19.265625 16.929687 1.480469 1.132813 1.980469 3.140625 1.203125 4.839844-.78125 1.691406-2.621093 2.625-4.457031 2.246093-3.023438-.628906-5.789062-1.136718-8.460938-1.550781-22.632812-3.488281-44.535156-1.933593-58.984374 3.992188 11.992187 10 32.414062 18.082031 55.039062 21.570312 11.703125 1.800781 23.542969 2.289063 34.234375 1.398438 1.878906-.144531 3.574219.988281 4.140625 2.761719.570312 1.769531-.15625 3.699218-1.753906 4.65625-2.628906 1.574218-5.234375 3.300781-7.75 5.144531-10.511719 7.707031-18.890625 16.957031-23.085938 25.273437 9.191406-1.5 20.535156-6.703125 31.050782-14.40625 11.949218-8.753906 21.140624-19.496094 24.597656-28.734375.34375-.917969 1.011718-1.679687 1.878906-2.136719l.558594-.285156c.738281-.414062 1.589844-.582031 2.429687-.480468.007813 0 .019531 0 .03125.003906zm0 0"/><path d="m234.628906 504c-103.386718 0-187.5-84.113281-187.5-187.496094v-129.007812c0-103.382813 84.113282-187.496094 187.5-187.496094 21.046875 0 41.726563 3.472656 61.46875 10.320312 1.074219.375 1.9375 1.1875 2.375 2.230469.441406 1.050781.414063 2.234375-.074218 3.261719-1.769532 3.742188-2.667969 7.699219-2.667969 11.765625 0 12.804687 8.707031 23.824219 21.171875 26.792969 1.691406.402344 2.929687 1.855468 3.0625 3.589844 1.574218 20.761718 19.128906 37.074218 39.972656 37.132812 1.683594.003906 3.183594 1.0625 3.753906 2.648438 3.917969 10.941406 14.339844 18.292968 25.933594 18.292968 4.355469 0 8.554688-1.011718 12.476562-3.011718.988282-.503907 2.144532-.574219 3.191407-.191407 1.042969.382813 1.882812 1.183594 2.3125 2.207031 9.632812 22.976563 14.519531 47.351563 14.519531 72.453126v129.011718c0 103.382813-84.109375 187.496094-187.496094 187.496094zm0-496c-98.976562 0-179.5 80.523438-179.5 179.496094v129.007812c0 98.972656 80.523438 179.496094 179.5 179.496094 98.972656 0 179.496094-80.523438 179.496094-179.496094v-129.007812c0-22.671875-4.160156-44.71875-12.371094-65.605469-3.882812 1.425781-7.945312 2.144531-12.125 2.144531-14.039062 0-26.742187-8.34375-32.433594-21.027344-22.84375-1.367187-41.835937-18.976562-44.910156-41.628906-14.589844-4.722656-24.550781-18.238281-24.550781-33.800781 0-3.769531.59375-7.460937 1.769531-11.023437-17.695312-5.679688-36.132812-8.554688-54.875-8.554688zm0 0"/><path d="m67.128906 218.515625c-2.207031 0-4-1.792969-4-4v-24c0-2.207031 1.792969-4 4-4 2.210938 0 4 1.792969 4 4v24c0 2.207031-1.789062 4-4 4zm0 0"/></g><path d="m426.511719 345.019531h-383.765625c-21.398438 0-38.742188 17.347657-38.742188 38.746094 0 21.394531 17.34375 38.742187 38.742188 38.742187h383.765625c21.394531 0 38.742187-17.347656 38.742187-38.742187 0-21.398437-17.347656-38.746094-38.742187-38.746094zm0 0" fill="#fcc24c"/><path d="m426.511719 422.511719h-383.765625c-21.398438 0-38.742188 17.34375-38.742188 38.742187 0 21.398438 17.34375 38.742188 38.742188 38.742188h383.765625c21.394531 0 38.742187-17.34375 38.742187-38.742188 0-21.398437-17.347656-38.742187-38.742187-38.742187zm0 0" fill="#fcc24c"/><path d="m426.511719 345.019531h-20c21.394531 0 38.742187 17.347657 38.742187 38.746094 0 21.394531-17.347656 38.742187-38.742187 38.742187h20c21.394531 0 38.742187-17.347656 38.742187-38.742187 0-21.398437-17.347656-38.746094-38.742187-38.746094zm0 0" fill="#dea42e"/><path d="m426.511719 422.511719h-20c21.394531 0 38.742187 17.34375 38.742187 38.746093 0 21.394532-17.347656 38.742188-38.742187 38.742188h20c21.394531 0 38.742187-17.347656 38.742187-38.742188 0-21.402343-17.347656-38.746093-38.742187-38.746093zm0 0" fill="#dea42e"/><path d="m42.746094 500h20c-21.398438 0-38.742188-17.347656-38.742188-38.746094 0-21.398437 17.34375-38.742187 38.742188-38.742187h-20c-21.398438 0-38.742188 17.34375-38.742188 38.742187 0 21.398438 17.34375 38.746094 38.742188 38.746094zm0 0" fill="#fce06a"/><path d="m42.746094 422.511719h20c-21.398438 0-38.742188-17.347657-38.742188-38.746094s17.34375-38.742187 38.742188-38.742187h-20c-21.398438 0-38.742188 17.34375-38.742188 38.742187s17.34375 38.746094 38.742188 38.746094zm0 0" fill="#fce06a"/><path d="m426.511719 504h-383.765625c-23.570313 0-42.746094-19.175781-42.746094-42.742188 0-23.570312 19.175781-42.746093 42.746094-42.746093h383.765625c23.566406 0 42.746093 19.175781 42.746093 42.746093-.003906 23.566407-19.179687 42.742188-42.746093 42.742188zm-383.765625-77.488281c-19.15625 0-34.746094 15.585937-34.746094 34.746093 0 19.15625 15.589844 34.742188 34.746094 34.742188h383.765625c19.15625 0 34.746093-15.585938 34.746093-34.742188 0-19.160156-15.585937-34.746093-34.746093-34.746093zm0 0" fill="#690589"/><path d="m426.511719 426.511719h-383.765625c-23.570313 0-42.746094-19.175781-42.746094-42.746094 0-23.566406 19.175781-42.742187 42.746094-42.742187h383.765625c23.566406 0 42.746093 19.175781 42.746093 42.742187 0 23.570313-19.179687 42.746094-42.746093 42.746094zm-383.765625-77.488281c-19.15625 0-34.746094 15.585937-34.746094 34.742187 0 19.160156 15.585938 34.746094 34.746094 34.746094h383.765625c19.15625 0 34.746093-15.585938 34.746093-34.746094 0-19.15625-15.585937-34.742187-34.746093-34.742187zm0 0" fill="#690589"/><path d="m234.628906 348.027344c-2.207031 0-4-1.792969-4-4v-46.324219c0-2.210937 1.792969-4 4-4 2.207032 0 4 1.789063 4 4v46.324219c0 2.207031-1.792968 4-4 4zm0 0" fill="#690589"/></svg>