<svg height="504pt" viewBox="-82 0 504 504" width="504pt" xmlns="http://www.w3.org/2000/svg"><path d="m284.113281 342.789062h-73.730469c.046876-.757812.117188-1.507812.117188-2.277343v-74.191407h-81.324219v74.191407c0 .769531.070313 1.519531.117188 2.277343h-73.730469c-28.476562 0-51.566406 23.085938-51.566406 51.5625v105.648438h331.683594v-105.644531c0-28.480469-23.085938-51.566407-51.566407-51.566407zm0 0" fill="#ff4397"/><path d="m169.839844 388.757812c-22.460938 0-40.664063-18.207031-40.664063-40.664062v-87.816406h81.324219v87.816406c.003906 22.457031-18.203125 40.664062-40.660156 40.664062zm0 0" fill="#e18152"/><path d="m169.839844 392.757812c-24.628906 0-44.664063-20.035156-44.664063-44.664062v-87.816406c0-2.207032 1.789063-4 4-4h81.328125c2.207032 0 4 1.792968 4 4v87.816406c0 24.628906-20.039062 44.664062-44.664062 44.664062zm-36.664063-128.480468v83.816406c0 20.214844 16.445313 36.664062 36.664063 36.664062 20.214844 0 36.664062-16.449218 36.664062-36.664062v-83.816406zm0 0" fill="#690589"/><path d="m81.921875 169.449219h-6.277344c-16.222656 0-29.378906 13.152343-29.378906 29.378906s13.15625 29.378906 29.378906 29.378906h6.277344zm0 0" fill="#ffbd8e"/><path d="m264.03125 169.449219h-6.277344v58.757812h6.277344c16.226562 0 29.378906-13.152343 29.378906-29.378906s-13.152344-29.378906-29.378906-29.378906zm0 0" fill="#e18152"/><path d="m284.113281 342.789062h-18.085937c28.476562 0 51.5625 23.085938 51.5625 51.5625v105.648438h18.085937v-105.644531c.003907-28.480469-23.082031-51.566407-51.5625-51.566407zm0 0" fill="#e12579"/><path d="m55.5625 342.789062h18.085938c-28.476563 0-51.5625 23.085938-51.5625 51.5625v105.648438h-18.089844v-105.644531c0-28.480469 23.089844-51.566407 51.566406-51.566407zm0 0" fill="#ff61b5"/><path d="m335.679688 504h-331.679688c-2.207031 0-4-1.792969-4-4v-105.644531c0-30.640625 24.925781-55.5625 55.5625-55.5625h69.613281v-72.472657c0-2.207031 1.789063-4 4-4h81.328125c2.207032 0 4 1.792969 4 4v72.472657h69.609375c30.640625 0 55.566407 24.921875 55.566407 55.5625v105.644531c0 2.207031-1.792969 4-4 4zm-327.679688-8h323.679688v-101.644531c0-26.226563-21.339844-47.5625-47.566407-47.5625h-73.726562c-1.101563 0-2.152344-.453125-2.910157-1.253907-.753906-.800781-1.148437-1.875-1.085937-2.972656l.046875-.71875c.03125-.445312.066406-.882812.066406-1.332031v-70.191406h-73.328125v70.191406c0 .449219.03125.886719.0625 1.332031l.046875.71875c.0625 1.097656-.332031 2.171875-1.085937 2.972656-.757813.800782-1.808594 1.253907-2.910157 1.253907h-73.726562c-26.226562 0-47.5625 21.335937-47.5625 47.5625zm0 0" fill="#690589"/><path d="m18.46875 419.390625c-2.207031 0-4-1.789063-4-4v-20.367187c0-2.210938 1.792969-4 4-4 2.210938 0 4 1.789062 4 4v20.367187c0 2.210937-1.789062 4-4 4zm0 0" fill="#690589"/><path d="m210.382812 346.792969h-.003906c-2.207031-.003907-4-1.796875-3.996094-4.007813l.113282-72.464844h-73.316406l.113281 72.464844c0 2.207032-1.785157 4.003906-3.996094 4.007813h-.003906c-2.207031 0-4-1.789063-4-3.996094l-.117188-76.46875c-.003906-1.0625.417969-2.082031 1.167969-2.832031.75-.753906 1.769531-1.175782 2.832031-1.175782h81.328125c1.058594 0 2.078125.421876 2.828125 1.175782.75.75 1.171875 1.769531 1.171875 2.832031l-.121094 76.46875c-.003906 2.207031-1.789062 3.996094-4 3.996094zm0 0" fill="#690589"/><path d="m169.839844 318.796875c-48.554688 0-87.914063-39.871094-87.914063-89.054687v-61.652344c0-49.1875 39.359375-89.058594 87.914063-89.058594 48.550781 0 87.914062 39.871094 87.914062 89.058594v61.652344c0 49.183593-39.363281 89.054687-87.914062 89.054687zm0 0" fill="#ff9f70"/><path d="m169.839844 79.03125c-3.382813 0-6.710938.210938-9.992188.585938 43.847656 5.027343 77.925782 42.707031 77.925782 88.46875v61.652343c0 45.761719-34.078126 83.445313-77.925782 88.46875 3.28125.378907 6.609375.589844 9.992188.589844 48.550781 0 87.914062-39.871094 87.914062-89.058594v-61.648437c0-49.1875-39.363281-89.058594-87.914062-89.058594zm0 0" fill="#e18152"/><path d="m169.839844 79.03125c3.378906 0 6.707031.210938 9.988281.585938-43.847656 5.027343-77.925781 42.707031-77.925781 88.46875v61.652343c0 45.761719 34.078125 83.445313 77.925781 88.46875-3.28125.378907-6.609375.589844-9.988281.589844-48.554688 0-87.914063-39.871094-87.914063-89.058594v-61.648437c-.003906-49.1875 39.359375-89.058594 87.914063-89.058594zm0 0" fill="#ffbd8e"/><g fill="#690589"><path d="m169.839844 322.796875c-50.683594 0-91.917969-41.746094-91.917969-93.054687v-61.65625c0-51.3125 41.234375-93.054688 91.917969-93.054688 50.679687 0 91.914062 41.742188 91.914062 93.054688v61.652343c0 51.3125-41.234375 93.058594-91.914062 93.058594zm0-239.765625c-46.273438 0-83.917969 38.15625-83.917969 85.058594v61.652344c0 46.898437 37.644531 85.054687 83.917969 85.054687 46.269531 0 83.914062-38.15625 83.914062-85.054687v-61.65625c0-46.898438-37.644531-85.054688-83.914062-85.054688zm0 0"/><path d="m81.921875 232.207031h-6.277344c-18.40625 0-33.378906-14.972656-33.378906-33.378906s14.972656-33.378906 33.378906-33.378906h6.277344c2.207031 0 4 1.789062 4 4v58.757812c0 2.207031-1.789063 4-4 4zm-6.277344-58.757812c-13.992187 0-25.378906 11.386719-25.378906 25.378906s11.386719 25.378906 25.378906 25.378906h2.277344v-50.757812zm0 0"/><path d="m264.03125 232.207031h-6.277344c-2.210937 0-4-1.792969-4-4v-58.757812c0-2.210938 1.789063-4 4-4h6.277344c18.402344 0 33.375 14.972656 33.375 33.378906s-14.972656 33.378906-33.375 33.378906zm-2.277344-8h2.277344c13.992188 0 25.375-11.386719 25.375-25.378906s-11.382812-25.378906-25.375-25.378906h-2.277344zm0 0"/><path d="m129.507812 207.101562c-10.160156 0-18.421874-8.265624-18.421874-18.425781 0-2.207031 1.789062-4 4-4 2.207031 0 4 1.792969 4 4 0 5.75 4.675781 10.425781 10.421874 10.425781 5.75 0 10.425782-4.675781 10.425782-10.425781 0-2.207031 1.789062-4 4-4 2.207031 0 4 1.792969 4 4 0 10.160157-8.265625 18.425781-18.425782 18.425781zm0 0"/><path d="m210.167969 207.101562c-10.15625 0-18.425781-8.265624-18.425781-18.425781 0-2.207031 1.792968-4 4-4 2.210937 0 4 1.792969 4 4 0 5.75 4.679687 10.425781 10.425781 10.425781 5.746093 0 10.425781-4.675781 10.425781-10.425781 0-2.207031 1.789062-4 4-4 2.207031 0 4 1.792969 4 4 0 10.160157-8.269531 18.425781-18.425781 18.425781zm0 0"/><path d="m188.730469 263.796875h-20.664063c-2.207031 0-4-1.789063-4-4 0-2.207031 1.792969-4 4-4h20.664063c4.1875 0 7.59375-3.40625 7.59375-7.59375 0-2.207031 1.792969-4 4-4 2.210937 0 4 1.792969 4 4 0 8.597656-6.996094 15.59375-15.59375 15.59375zm0 0"/></g><path d="m269.453125 169.449219h-199.230469c-7.144531 0-12.933594-5.792969-12.933594-12.9375s5.789063-12.9375 12.933594-12.9375h199.230469c7.144531 0 12.933594 5.792969 12.933594 12.9375.003906 7.144531-5.789063 12.9375-12.933594 12.9375zm0 0" fill="#ff4397"/><path d="m269.453125 173.449219h-199.230469c-9.335937 0-16.933594-7.597657-16.933594-16.9375 0-9.335938 7.597657-16.9375 16.933594-16.9375h199.230469c9.339844 0 16.9375 7.601562 16.9375 16.9375 0 9.339843-7.597656 16.9375-16.9375 16.9375zm-199.230469-25.875c-4.925781 0-8.933594 4.007812-8.933594 8.9375 0 4.925781 4.007813 8.933593 8.933594 8.933593h199.230469c4.929687 0 8.9375-4.007812 8.9375-8.933593 0-4.929688-4.007813-8.9375-8.9375-8.9375zm0 0" fill="#690589"/><path d="m166.203125 271.761719-47.730469 47.726562c-3.820312 3.820313-10.007812 3.820313-13.828125 0-3.816406-3.816406-3.816406-10.007812 0-13.824219l47.730469-47.730468c3.820312-3.816406 10.007812-3.816406 13.828125 0 3.816406 3.820312 3.816406 10.007812 0 13.828125zm0 0" fill="#f4efed"/><path d="m111.558594 326.347656c-3.527344 0-7.054688-1.34375-9.742188-4.03125-5.371094-5.371094-5.371094-14.109375 0-19.480468l47.730469-47.730469c5.371094-5.375 14.113281-5.375 19.484375 0 5.371094 5.371093 5.371094 14.109375 0 19.484375l-47.730469 47.726562c-2.683593 2.6875-6.210937 4.03125-9.742187 4.03125zm47.730468-67.277344c-1.480468 0-2.957031.566407-4.085937 1.691407l-47.730469 47.730469c-2.25 2.25-2.25 5.917968 0 8.167968 2.253906 2.253906 5.917969 2.253906 8.171875 0l47.730469-47.726562c2.25-2.25 2.25-5.917969 0-8.167969-1.128906-1.128906-2.605469-1.695313-4.085938-1.695313zm0 0" fill="#690589"/><path d="m90.84375 170.292969c-2.210938 0-4-1.789063-4-4v-19.988281c0-2.207032 1.789062-4 4-4 2.207031 0 4 1.792968 4 4v19.988281c0 2.210937-1.792969 4-4 4zm0 0" fill="#690589"/><path d="m130.339844 170.292969c-2.207032 0-4-1.789063-4-4v-19.988281c0-2.207032 1.792968-4 4-4 2.207031 0 4 1.792968 4 4v19.988281c0 2.210937-1.792969 4-4 4zm0 0" fill="#690589"/><path d="m169.839844 170.292969c-2.210938 0-4-1.789063-4-4v-19.988281c0-2.207032 1.789062-4 4-4 2.207031 0 4 1.792968 4 4v19.988281c0 2.210937-1.792969 4-4 4zm0 0" fill="#690589"/><path d="m209.335938 170.292969c-2.207032 0-4-1.789063-4-4v-19.988281c0-2.207032 1.792968-4 4-4 2.207031 0 4 1.792968 4 4v19.988281c0 2.210937-1.789063 4-4 4zm0 0" fill="#690589"/><path d="m248.835938 170.292969c-2.210938 0-4-1.789063-4-4v-19.988281c0-2.207032 1.789062-4 4-4 2.207031 0 4 1.792968 4 4v19.988281c0 2.210937-1.792969 4-4 4zm0 0" fill="#690589"/><path d="m169.839844 32.59375c-53.835938 0-97.476563 43.640625-97.476563 97.472656v13.507813h194.953125v-13.507813c-.003906-53.832031-43.644531-97.472656-97.476562-97.472656zm0 0" fill="#ff4397"/><path d="m155.542969 18.296875c0-7.898437 6.398437-14.296875 14.296875-14.296875 7.894531 0 14.292968 6.398438 14.292968 14.296875 0 7.894531-6.398437 14.296875-14.292968 14.296875-7.898438 0-14.296875-6.402344-14.296875-14.296875zm0 0" fill="#f4efed"/><path d="m169.839844 32.59375c-3.148438 0-6.257813.164062-9.328125.453125 49.457031 4.695313 88.144531 46.332031 88.144531 97.019531v13.507813h18.65625v-13.507813c0-53.832031-43.640625-97.472656-97.472656-97.472656zm0 0" fill="#e12579"/><path d="m169.839844 32.59375c3.144531 0 6.253906.164062 9.324218.453125-49.457031 4.695313-88.144531 46.332031-88.144531 97.019531v13.507813h-18.65625v-13.507813c0-53.832031 43.640625-97.472656 97.476563-97.472656zm0 0" fill="#ff61b5"/><path d="m267.3125 147.574219h-194.949219c-2.210937 0-4-1.792969-4-4v-13.507813c0-55.953125 45.519531-101.472656 101.476563-101.472656 55.953125 0 101.472656 45.519531 101.472656 101.472656v13.507813c0 2.210937-1.789062 4-4 4zm-190.949219-8h186.953125v-9.507813c0-51.539062-41.933594-93.472656-93.476562-93.472656-51.542969 0-93.476563 41.933594-93.476563 93.472656zm0 0" fill="#690589"/><path d="m169.839844 36.59375c-10.089844 0-18.296875-8.210938-18.296875-18.296875 0-10.089844 8.207031-18.296875 18.296875-18.296875 10.085937 0 18.292968 8.207031 18.292968 18.296875 0 10.085937-8.207031 18.296875-18.292968 18.296875zm0-28.59375c-5.679688 0-10.296875 4.621094-10.296875 10.296875s4.617187 10.296875 10.296875 10.296875c5.675781 0 10.292968-4.621094 10.292968-10.296875s-4.617187-10.296875-10.292968-10.296875zm0 0" fill="#690589"/><path d="m124.058594 315.683594c-1.023438 0-2.046875-.390625-2.828125-1.171875l-12.714844-12.714844c-1.5625-1.5625-1.5625-4.09375 0-5.65625 1.558594-1.5625 4.09375-1.5625 5.65625 0l12.714844 12.714844c1.5625 1.5625 1.5625 4.09375 0 5.65625-.78125.78125-1.804688 1.171875-2.828125 1.171875zm0 0" fill="#690589"/><path d="m21.324219 331.945312c-.734375 0-1.476563-.203124-2.140625-.628906-1.867188-1.183594-2.414063-3.65625-1.230469-5.519531l5.554687-8.730469c2.949219-4.636718 2.949219-10.632812 0-15.273437-4.613281-7.246094-4.613281-16.609375 0-23.859375l6.191407-9.734375c1.183593-1.863281 3.660156-2.414063 5.519531-1.226563 1.867188 1.183594 2.414062 3.65625 1.230469 5.519532l-6.191407 9.734374c-2.953124 4.640626-2.953124 10.636719 0 15.277344 4.609376 7.242188 4.609376 16.609375 0 23.859375l-5.554687 8.726563c-.761719 1.199218-2.058594 1.855468-3.378906 1.855468zm0 0" fill="#690589"/><path d="m43.980469 331.945312c-.734375 0-1.476563-.203124-2.140625-.628906-1.863282-1.183594-2.414063-3.65625-1.226563-5.519531l5.550781-8.730469c2.949219-4.636718 2.949219-10.632812 0-15.273437-4.609374-7.246094-4.609374-16.609375 0-23.859375l6.191407-9.734375c1.1875-1.863281 3.660156-2.414063 5.523437-1.226563 1.863282 1.183594 2.414063 3.65625 1.226563 5.519532l-6.191407 9.734374c-2.949218 4.640626-2.949218 10.636719 0 15.277344 4.609376 7.242188 4.609376 16.609375 0 23.859375l-5.550781 8.726563c-.765625 1.199218-2.058593 1.855468-3.382812 1.855468zm0 0" fill="#690589"/><path d="m66.640625 331.945312c-.734375 0-1.480469-.203124-2.144531-.628906-1.863282-1.183594-2.410156-3.65625-1.226563-5.519531l5.550781-8.730469c2.953126-4.636718 2.953126-10.632812 0-15.273437-4.609374-7.246094-4.609374-16.609375 0-23.859375l6.195313-9.734375c1.1875-1.867188 3.660156-2.417969 5.523437-1.230469 1.863282 1.1875 2.414063 3.660156 1.226563 5.523438l-6.195313 9.734374c-2.949218 4.636719-2.949218 10.632813 0 15.269532 4.613282 7.246094 4.613282 16.613281 0 23.863281l-5.550781 8.726563c-.761719 1.203124-2.058593 1.859374-3.378906 1.859374zm0 0" fill="#690589"/></svg>