<svg height="504pt" viewBox="0 0 504 504" width="504pt" xmlns="http://www.w3.org/2000/svg"><path d="m500 252c0 136.964844-111.035156 248-248 248s-248-111.035156-248-248 111.035156-248 248-248 248 111.035156 248 248zm0 0" fill="#fcc24c"/><path d="m252 4c-3.351562 0-6.683594.085938-10 .21875 132.328125 5.25 238 114.164062 238 247.78125s-105.671875 242.53125-238 247.78125c3.316406.132812 6.648438.21875 10 .21875 136.964844 0 248-111.035156 248-248s-111.035156-248-248-248zm0 0" fill="#dea42e"/><path d="m252 500c3.351562 0 6.683594-.085938 10-.21875-132.328125-5.25-238-114.164062-238-247.78125s105.671875-242.53125 238-247.78125c-3.316406-.132812-6.648438-.21875-10-.21875-136.964844 0-248 111.035156-248 248s111.035156 248 248 248zm0 0" fill="#fce06a"/><g fill="#690589"><path d="m252 504c-138.953125 0-252-113.046875-252-252s113.046875-252 252-252 252 113.046875 252 252-113.046875 252-252 252zm0-496c-134.542969 0-244 109.457031-244 244s109.457031 244 244 244 244-109.457031 244-244-109.457031-244-244-244zm0 0"/><path d="m63.53125 121.652344c-.761719 0-1.539062-.214844-2.21875-.675782-1.835938-1.226562-2.328125-3.710937-1.101562-5.546874 5.875-8.777344 12.675781-17.054688 20.226562-24.605469 1.558594-1.558594 4.09375-1.558594 5.65625 0 1.558594 1.5625 1.558594 4.097656 0 5.65625-7.183594 7.179687-13.652344 15.050781-19.234375 23.398437-.769531 1.152344-2.039063 1.773438-3.328125 1.773438zm0 0"/><path d="m280.628906 476.84375c-1.023437 0-2.046875-.390625-2.828125-1.171875l-249.472656-249.472656c-1.5625-1.5625-1.5625-4.09375 0-5.65625s4.09375-1.5625 5.65625 0l249.472656 249.472656c1.5625 1.5625 1.5625 4.09375 0 5.65625-.78125.78125-1.804687 1.171875-2.828125 1.171875zm0 0"/><path d="m328.683594 428.789062c-1.027344 0-2.046875-.390624-2.828125-1.171874l-249.472657-249.472657c-1.5625-1.558593-1.5625-4.09375 0-5.65625 1.5625-1.558593 4.09375-1.558593 5.65625 0l249.472657 249.472657c1.558593 1.5625 1.558593 4.09375 0 5.65625-.785157.78125-1.804688 1.171874-2.828125 1.171874zm0 0"/><path d="m376.734375 380.734375c-1.023437 0-2.042969-.386719-2.828125-1.171875l-249.46875-249.46875c-1.5625-1.5625-1.5625-4.097656 0-5.65625 1.558594-1.5625 4.09375-1.5625 5.65625 0l249.46875 249.46875c1.5625 1.5625 1.5625 4.097656 0 5.65625-.777344.785156-1.800781 1.171875-2.828125 1.171875zm0 0"/><path d="m424.789062 332.683594c-1.023437 0-2.046874-.390625-2.828124-1.171875l-249.472657-249.472657c-1.558593-1.5625-1.558593-4.09375 0-5.65625 1.5625-1.5625 4.097657-1.5625 5.65625 0l249.472657 249.472657c1.5625 1.558593 1.5625 4.09375 0 5.65625-.78125.78125-1.804688 1.171875-2.828126 1.171875zm0 0"/><path d="m472.84375 284.628906c-1.023438 0-2.046875-.390625-2.828125-1.171875l-249.472656-249.472656c-1.5625-1.5625-1.5625-4.09375 0-5.65625s4.09375-1.5625 5.65625 0l249.472656 249.472656c1.5625 1.5625 1.5625 4.09375 0 5.65625-.78125.78125-1.804687 1.171875-2.828125 1.171875zm0 0"/><path d="m31.15625 284.628906c-1.023438 0-2.046875-.390625-2.828125-1.171875-1.5625-1.5625-1.5625-4.09375 0-5.65625l249.472656-249.472656c1.5625-1.5625 4.09375-1.5625 5.65625 0s1.5625 4.09375 0 5.65625l-249.472656 249.472656c-.78125.78125-1.804687 1.171875-2.828125 1.171875zm0 0"/><path d="m79.210938 332.683594c-1.023438 0-2.046876-.390625-2.828126-1.171875-1.5625-1.5625-1.5625-4.097657 0-5.65625l249.472657-249.472657c1.558593-1.5625 4.09375-1.5625 5.65625 0 1.558593 1.5625 1.558593 4.09375 0 5.65625l-249.472657 249.472657c-.78125.78125-1.804687 1.171875-2.828124 1.171875zm0 0"/><path d="m127.265625 380.734375c-1.027344 0-2.046875-.386719-2.828125-1.171875-1.5625-1.558594-1.5625-4.09375 0-5.65625l249.46875-249.46875c1.5625-1.5625 4.097656-1.5625 5.65625 0 1.5625 1.558594 1.5625 4.09375 0 5.65625l-249.46875 249.46875c-.785156.785156-1.804688 1.171875-2.828125 1.171875zm0 0"/><path d="m175.316406 428.789062c-1.023437 0-2.042968-.390624-2.828125-1.171874-1.558593-1.5625-1.558593-4.09375 0-5.65625l249.472657-249.472657c1.5625-1.558593 4.09375-1.558593 5.65625 0 1.5625 1.5625 1.5625 4.097657 0 5.65625l-249.472657 249.472657c-.777343.78125-1.800781 1.171874-2.828125 1.171874zm0 0"/><path d="m223.371094 476.84375c-1.023438 0-2.046875-.390625-2.828125-1.171875-1.5625-1.5625-1.5625-4.09375 0-5.65625l249.472656-249.472656c1.5625-1.5625 4.09375-1.5625 5.65625 0s1.5625 4.09375 0 5.65625l-249.472656 249.472656c-.78125.78125-1.804688 1.171875-2.828125 1.171875zm0 0"/></g></svg>