<svg height="503pt" viewBox="-16 0 503 503.9075" width="503pt" xmlns="http://www.w3.org/2000/svg"><path d="m433.339844 299.664062c-25.667969 0-41.710938-27.785156-28.875-50.015624l28.875-50.015626 28.878906 50.015626c12.835938 22.230468-3.207031 50.015624-28.878906 50.015624zm0 0" fill="#7bac51"/><path d="m120.507812 356.574219 27.289063 27.292969-64.617187 64.613281-27.289063-27.289063zm0 0" fill="#f4efed"/><path d="m83.179688 452.484375c-1.023438 0-2.046876-.390625-2.828126-1.171875l-27.292968-27.289062c-.75-.75-1.171875-1.769532-1.171875-2.828126 0-1.0625.421875-2.078124 1.171875-2.828124l64.621094-64.621094c1.558593-1.5625 4.09375-1.5625 5.652343 0l27.292969 27.292968c.75.75 1.171875 1.769532 1.171875 2.828126 0 1.058593-.421875 2.078124-1.171875 2.828124l-64.617188 64.617188c-.78125.78125-1.804687 1.171875-2.828124 1.171875zm-21.636719-31.289063 21.636719 21.632813 58.960937-58.957031-21.636719-21.636719zm0 0" fill="#690589"/><path d="m100.714844 494.101562-90.441406-90.441406c-7.753907-7.753906-7.753907-20.328125 0-28.082031 7.753906-7.753906 20.328124-7.753906 28.082031 0l90.441406 90.445313c7.753906 7.753906 7.753906 20.324218 0 28.078124-7.753906 7.757813-20.328125 7.757813-28.082031 0zm0 0" fill="#7bac51"/><path d="m165.96875 428.847656-90.441406-90.441406c-7.753906-7.753906-7.753906-20.328125 0-28.082031 7.753906-7.753907 20.328125-7.753907 28.082031 0l90.441406 90.441406c7.753907 7.753906 7.753907 20.328125 0 28.082031-7.753906 7.753906-20.328125 7.753906-28.082031 0zm0 0" fill="#7bac51"/><path d="m185.359375 392.070312-73.058594-73.054687 186.4375-186.4375c10.125-10.121094 26.539063-10.121094 36.660157 0l36.394531 36.394531c10.121093 10.121094 10.121093 26.535156 0 36.660156zm0 0" fill="#f4efed"/><path d="m371.792969 168.972656-14.714844-14.714844c10.125 10.125 10.125 26.539063 0 36.664063l-186.4375 186.4375 14.714844 14.710937 186.4375-186.433593c10.125-10.125 10.125-26.539063 0-36.664063zm0 0" fill="#d6d1cf"/><path d="m335.402344 132.578125 14.714844 14.714844c-10.125-10.125-26.539063-10.125-36.664063 0l-186.4375 186.4375-14.714844-14.714844 186.4375-186.433594c10.125-10.125 26.539063-10.125 36.664063-.003906zm0 0" fill="#fff"/><path d="m371.792969 168.972656-36.390625-36.390625c-10.125-10.125-26.539063-10.125-36.664063 0l-47 47 73.058594 73.054688 47-47c10.121094-10.125 10.121094-26.539063-.003906-36.664063zm0 0" fill="#7bac51"/><path d="m194.050781 400.765625-14.714843-14.714844c7.753906 7.753907 7.753906 20.328125 0 28.082031-7.753907 7.757813-20.328126 7.757813-28.082032 0l14.714844 14.714844c7.753906 7.753906 20.328125 7.753906 28.082031 0 7.753907-7.753906 7.753907-20.324218 0-28.082031zm0 0" fill="#5d8e33"/><path d="m75.527344 338.40625 14.710937 14.714844c-7.753906-7.753906-7.753906-20.328125 0-28.082032 7.757813-7.757812 20.328125-7.757812 28.082031 0l-14.710937-14.714843c-7.753906-7.753907-20.328125-7.753907-28.082031 0-7.753906 7.753906-7.753906 20.328125 0 28.082031zm0 0" fill="#99ca6f"/><path d="m128.796875 466.023438-14.714844-14.714844c7.753907 7.753906 7.753907 20.328125 0 28.082031-7.757812 7.753906-20.328125 7.753906-28.082031 0l14.714844 14.710937c7.753906 7.757813 20.328125 7.757813 28.082031 0 7.753906-7.753906 7.753906-20.324218 0-28.078124zm0 0" fill="#5d8e33"/><path d="m10.273438 403.660156 14.710937 14.714844c-7.753906-7.753906-7.753906-20.328125 0-28.082031 7.753906-7.753907 20.328125-7.753907 28.082031 0l-14.710937-14.714844c-7.753907-7.753906-20.328125-7.753906-28.082031 0-7.757813 7.753906-7.757813 20.328125 0 28.082031zm0 0" fill="#99ca6f"/><path d="m385.441406 118.933594c-8.792968-8.792969-23.050781-8.792969-31.84375 0l-15.917968 15.921875 31.839843 31.84375 15.921875-15.921875c8.792969-8.792969 8.792969-23.050782 0-31.84375zm0 0" fill="#7bac51"/><path d="m371.792969 168.972656-14.714844-14.714844c10.125 10.125 10.125 26.539063 0 36.664063l-47 47 14.714844 14.714844 47-47c10.125-10.125 10.125-26.539063 0-36.664063zm0 0" fill="#5d8e33"/><path d="m335.402344 132.582031 14.714844 14.714844c-10.125-10.125-26.539063-10.125-36.664063 0l-47 47-14.714844-14.714844 47-47c10.125-10.125 26.539063-10.125 36.664063 0zm0 0" fill="#99ca6f"/><path d="m170.398438 182.375c22.832031-3.519531 41.886718-12.210938 51.269531-22.207031-11.957031-6.699219-32.746094-9.25-55.578125-5.730469-2.460938.378906-4.871094.828125-7.234375 1.324219 5.535156-4.25 11.054687-9.0625 16.40625-14.417969 20.476562-20.476562 33.300781-43.382812 35.382812-60.4375-17.054687 2.082031-39.960937 14.90625-60.4375 35.382812-7.046875 7.042969-13.160156 14.375-18.265625 21.65625 3.492188-14.148437 5.476563-30.371093 5.476563-47.621093 0-36.929688-9.089844-69.148438-22.59375-86.40625-13.503907 17.257812-22.59375 49.476562-22.59375 86.40625 0 17.25 1.984375 33.472656 5.476562 47.621093-5.109375-7.28125-11.222656-14.613281-18.265625-21.65625-20.476562-20.476562-43.382812-33.300781-60.4375-35.382812 2.082032 17.054688 14.90625 39.960938 35.382813 60.4375 5.351562 5.351562 10.871093 10.167969 16.40625 14.417969-2.367188-.496094-4.773438-.945313-7.238281-1.324219-22.832032-3.519531-43.617188-.972656-55.574219 5.730469 9.382812 9.996093 28.433593 18.6875 51.265625 22.207031 10.4375 1.609375 20.433594 1.9375 29.363281 1.195312-2.246094 1.339844-4.496094 2.832032-6.726563 4.46875-11.816406 8.65625-19.992187 19.117188-22.347656 27.484376 8.683594.273437 21.125-4.371094 32.941406-13.03125 10.902344-7.988282 18.695313-17.511719 21.683594-25.507813.175782-.09375.367188-.183594.539063-.277344.039062.003907.082031.011719.125.019531.039062-.003906.082031-.015624.125-.019531.171875.09375.359375.183594.535156.277344 2.992187 7.996094 10.785156 17.519531 21.6875 25.507813 11.816406 8.660156 24.253906 13.304687 32.941406 13.03125-2.355469-8.367188-10.53125-18.828126-22.347656-27.484376-2.230469-1.636718-4.484375-3.125-6.726563-4.46875 8.929688.742188 18.925782.414063 29.359376-1.195312zm0 0" fill="#7bac51"/><g fill="#690589"><path d="m114.824219 219.3125c-2.207031 0-4-1.789062-4-4v-38.671875c0-2.207031 1.792969-4 4-4s4 1.792969 4 4v38.671875c0 2.210938-1.789063 4-4 4zm0 0"/><path d="m60.277344 219.535156c-.292969 0-.578125-.003906-.867188-.011718-1.230468-.042969-2.375-.640626-3.101562-1.632813-.726563-.992187-.957032-2.265625-.625-3.449219 2.398437-8.523437 9.691406-18.210937 19.851562-26.542968-5.519531-.164063-11.164062-.6875-16.894531-1.570313-23.125-3.566406-43.15625-12.324219-53.578125-23.421875-.839844-.898438-1.222656-2.132812-1.035156-3.347656.1875-1.21875.921875-2.28125 1.996094-2.882813 11.945312-6.691406 30.71875-9.242187 51.191406-7.09375-1.921875-1.757812-3.808594-3.558593-5.65625-5.410156-20.585938-20.585937-34.242188-44.054687-36.523438-62.78125-.148437-1.222656.273438-2.445313 1.144532-3.3125.867187-.871094 2.085937-1.285156 3.308593-1.144531 18.730469 2.289062 42.199219 15.945312 62.78125 36.527344 2.890625 2.890624 5.667969 5.863281 8.304688 8.902343-1.539063-10.292969-2.34375-21.132812-2.34375-32.042969 0-36.886718 8.765625-70.105468 23.441406-88.867187 1.519531-1.9375 4.789063-1.9375 6.300781 0 14.679688 18.761719 23.445313 51.980469 23.445313 88.867187 0 10.90625-.800781 21.75-2.347657 32.042969 2.640626-3.039062 5.414063-6.011719 8.308594-8.902343 20.582032-20.582032 44.054688-34.238282 62.78125-36.527344 1.226563-.152344 2.445313.273437 3.3125 1.144531.871094.871094 1.292969 2.089844 1.140625 3.3125-2.289062 18.726563-15.941406 42.195313-36.527343 62.78125-1.847657 1.847656-3.730469 3.652344-5.652344 5.410156 20.472656-2.144531 39.246094.402344 51.1875 7.09375 1.074218.605469 1.8125 1.664063 2 2.882813.1875 1.214844-.199219 2.449218-1.039063 3.347656-10.417969 11.097656-30.445312 19.855469-53.574219 23.421875-5.730468.882813-11.378906 1.40625-16.894531 1.570313 10.160157 8.332031 17.449219 18.019531 19.847657 26.542968.335937 1.183594.105468 2.457032-.625 3.449219-.726563.992187-1.871094 1.59375-3.101563 1.632813-9.921875.328124-23.207031-4.847657-35.429687-13.804688-8.683594-6.363281-15.675782-13.75-19.984376-20.992188-4.304687 7.242188-11.296874 14.632813-19.984374 20.992188-11.863282 8.699219-24.699219 13.816406-34.558594 13.816406zm54.671875-46.828125c.679687 0 1.347656.175781 1.945312.507813l.457031.234375c.871094.457031 1.539063 1.214843 1.878907 2.132812 2.839843 7.59375 10.433593 16.449219 20.304687 23.683594 8.203125 6.011719 16.996094 10.179687 24.3125 11.664063-3.625-6.527344-10.246094-13.65625-18.449218-19.667969-2.101563-1.539063-4.261719-2.972657-6.414063-4.261719-1.597656-.953125-2.328125-2.882812-1.757813-4.65625.570313-1.773438 2.292969-2.90625 4.140626-2.761719 8.875.742188 18.703124.339844 28.421874-1.160156 18.246094-2.8125 34.742188-9.207031 44.753907-17.15625-11.945313-4.558594-29.605469-5.691406-47.84375-2.875-2.234375.34375-4.535157.765625-7.03125 1.289063-1.832031.390624-3.675781-.546876-4.453125-2.246094-.78125-1.695313-.28125-3.703125 1.199218-4.839844 5.554688-4.265625 10.945313-9.003906 16.015626-14.078125 17.066406-17.066406 29.367187-36.683594 33.230468-52.628906-15.945312 3.867187-35.558594 16.167969-52.628906 33.234375-6.667969 6.671875-12.664062 13.777344-17.816406 21.121094-1.105469 1.574218-3.175782 2.148437-4.933594 1.34375-1.75-.792969-2.691406-2.726563-2.226562-4.597657 3.507812-14.207031 5.359374-30.34375 5.359374-46.664062 0-31.835938-7.039062-61.582031-18.59375-79.496094-11.550781 17.910156-18.589843 47.660156-18.589843 79.496094 0 16.316406 1.851562 32.453125 5.355469 46.664062.460937 1.871094-.472657 3.800781-2.222657 4.597657-1.757812.804687-3.828125.230468-4.933593-1.34375-5.15625-7.351563-11.152344-14.457032-17.816407-21.121094-17.066406-17.066406-36.683593-29.371094-52.628906-33.234375 3.863281 15.945312 16.160156 35.5625 33.230469 52.628906 5.078125 5.082031 10.46875 9.816406 16.015625 14.078125 1.480469 1.136719 1.976562 3.144531 1.199219 4.839844-.78125 1.703125-2.632813 2.632812-4.457032 2.246094-2.496094-.523438-4.792968-.945313-7.023437-1.289063-18.25-2.808594-35.902344-1.683594-47.847657 2.875 10.015626 7.949219 26.511719 14.34375 44.757813 17.15625 9.710937 1.5 19.539063 1.902344 28.417969 1.160156 1.835937-.140625 3.570312.992188 4.140625 2.761719.566406 1.773438-.160157 3.707031-1.757813 4.660156-2.164062 1.292969-4.320312 2.726563-6.417968 4.261719-8.199219 6.011719-14.820313 13.140625-18.445313 19.667969 7.316406-1.488282 16.109375-5.652344 24.3125-11.667969 9.875-7.230469 17.460937-16.085937 20.304687-23.679687.339844-.914063 1.003907-1.671876 1.863282-2.128907l.324218-.164062c.671876-.375 1.550782-.59375 2.347657-.585938zm55.449219 9.667969h.019531zm0 0"/><path d="m180.007812 438.664062c-6.371093 0-12.363281-2.484374-16.867187-6.988281l-90.445313-90.441406c-9.300781-9.304687-9.300781-24.4375 0-33.738281 9.300782-9.304688 24.441407-9.304688 33.742188 0l90.441406 90.441406c4.507813 4.507812 6.988282 10.496094 6.988282 16.871094 0 6.371094-2.484376 12.363281-6.988282 16.867187-4.507812 4.507813-10.496094 6.988281-16.871094 6.988281zm-90.441406-130.148437c-4.0625 0-8.121094 1.542969-11.210937 4.636719-6.183594 6.179687-6.183594 16.242187 0 22.425781l90.441406 90.441406c2.996094 2.996094 6.976563 4.644531 11.210937 4.644531 4.238282 0 8.21875-1.648437 11.214844-4.644531 2.996094-2.996093 4.644532-6.976562 4.644532-11.210937s-1.648438-8.21875-4.644532-11.214844l-90.441406-90.441406c-3.089844-3.09375-7.152344-4.636719-11.214844-4.636719zm0 0"/><path d="m114.753906 503.90625c-6.109375 0-12.21875-2.324219-16.871094-6.976562l-90.441406-90.441407c-4.503906-4.507812-6.988281-10.496093-6.988281-16.871093 0-6.371094 2.480469-12.363282 6.988281-16.871094 9.300782-9.296875 24.433594-9.296875 33.738282 0l90.445312 90.445312c9.300781 9.300782 9.300781 24.4375 0 33.738282-4.652344 4.652343-10.757812 6.976562-16.871094 6.976562zm-11.210937-12.628906c2.996093 2.996094 6.976562 4.640625 11.210937 4.640625s8.214844-1.644531 11.210938-4.640625 4.644531-6.976563 4.644531-11.214844c0-4.234375-1.648437-8.21875-4.640625-11.210938l-90.445312-90.445312c-6.183594-6.179688-16.242188-6.179688-22.425782 0-2.996094 2.996094-4.644531 6.980469-4.644531 11.214844s1.648437 8.214844 4.644531 11.210937zm0 0"/><path d="m369.519531 170.699219c-1.023437 0-2.046875-.390625-2.828125-1.171875l-31.839844-31.84375c-1.5625-1.5625-1.5625-4.09375 0-5.65625l15.917969-15.917969c10.339844-10.34375 27.167969-10.339844 37.5 0 10.335938 10.335937 10.335938 27.15625 0 37.496094l-15.921875 15.921875c-.78125.777344-1.804687 1.171875-2.828125 1.171875zm-26.1875-35.84375 26.1875 26.1875 13.09375-13.09375c3.496094-3.496094 5.421875-8.144531 5.421875-13.09375 0-4.945313-1.925781-9.59375-5.421875-13.09375-3.5-3.496094-8.148437-5.421875-13.09375-5.421875-4.949219 0-9.597656 1.925781-13.09375 5.421875zm0 0"/><path d="m385.441406 122.933594c-1.027344 0-2.046875-.386719-2.828125-1.171875-1.5625-1.558594-1.5625-4.09375 0-5.652344l47.902344-47.902344c1.558594-1.5625 4.09375-1.5625 5.652344 0 1.5625 1.558594 1.5625 4.09375 0 5.65625l-47.898438 47.898438c-.785156.78125-1.804687 1.171875-2.828125 1.171875zm0 0"/><path d="m324.796875 256.632812c-1.023437 0-2.046875-.390624-2.828125-1.171874l-73.058594-73.054688c-.75-.75-1.171875-1.765625-1.171875-2.828125 0-1.058594.421875-2.078125 1.171875-2.828125l47-46.996094c5.652344-5.652344 13.167969-8.765625 21.160156-8.765625 7.992188 0 15.507813 3.113281 21.160157 8.765625l36.390625 36.390625c11.667968 11.667969 11.667968 30.652344 0 42.320313l-46.996094 46.996094c-.785156.78125-1.808594 1.171874-2.828125 1.171874zm-67.402344-77.054687 67.398438 67.398437 44.171875-44.167968c8.546875-8.550782 8.546875-22.460938 0-31.007813l-36.394532-36.390625c-4.136718-4.140625-9.644531-6.421875-15.5-6.421875-5.855468 0-11.363281 2.28125-15.503906 6.421875zm0 0"/><path d="m185.359375 396.070312c-1.027344 0-2.046875-.390624-2.828125-1.171874l-73.054688-73.054688c-1.5625-1.558594-1.5625-4.09375 0-5.652344l186.433594-186.441406c11.671875-11.667969 30.65625-11.664062 42.320313 0l36.394531 36.394531c11.664062 11.667969 11.664062 30.652344 0 42.320313l-186.4375 186.433594c-.785156.78125-1.804688 1.171874-2.828125 1.171874zm-67.398437-77.054687 67.398437 67.398437 183.609375-183.605468c8.546875-8.550782 8.546875-22.460938 0-31.007813l-36.394531-36.394531c-8.546875-8.542969-22.457031-8.542969-31.007813 0zm0 0"/><path d="m182.167969 276.695312c-1.023438 0-2.046875-.390624-2.828125-1.171874-1.5625-1.5625-1.5625-4.09375 0-5.65625l17.65625-17.65625c1.5625-1.5625 4.09375-1.5625 5.65625 0s1.5625 4.09375 0 5.65625l-17.65625 17.65625c-.78125.78125-1.804688 1.171874-2.828125 1.171874zm0 0"/><path d="m306.21875 170.316406c-1.023438 0-2.046875-.390625-2.828125-1.171875l-20.609375-20.609375c-1.5625-1.5625-1.5625-4.09375 0-5.65625s4.09375-1.5625 5.65625 0l20.609375 20.609375c1.5625 1.5625 1.5625 4.09375 0 5.65625-.78125.78125-1.808594 1.171875-2.828125 1.171875zm0 0"/><path d="m235.292969 241.238281c-1.023438 0-2.046875-.390625-2.828125-1.171875l-20.605469-20.605468c-1.5625-1.5625-1.5625-4.09375 0-5.65625 1.558594-1.5625 4.09375-1.5625 5.65625 0l20.605469 20.605468c1.5625 1.5625 1.5625 4.09375 0 5.65625-.78125.78125-1.804688 1.171875-2.828125 1.171875zm0 0"/><path d="m164.371094 312.164062c-1.023438 0-2.046875-.390624-2.828125-1.171874l-20.609375-20.609376c-1.5625-1.5625-1.5625-4.09375 0-5.65625s4.09375-1.5625 5.65625 0l20.609375 20.609376c1.558593 1.5625 1.558593 4.09375 0 5.65625-.785157.78125-1.808594 1.171874-2.828125 1.171874zm0 0"/><path d="m433.339844 303.664062c-13.5 0-25.589844-6.980468-32.339844-18.671874-6.75-11.691407-6.75-25.652344 0-37.34375l28.875-50.015626c.714844-1.238281 2.035156-2 3.464844-2 1.429687 0 2.75.761719 3.464844 2l28.875 50.015626c6.75 11.691406 6.75 25.652343 0 37.34375-6.746094 11.691406-18.835938 18.671874-32.339844 18.671874zm0-96.03125-25.410156 44.015626c-5.304688 9.1875-5.304688 20.15625 0 29.34375 5.304687 9.1875 14.804687 14.671874 25.410156 14.671874 10.613281 0 20.113281-5.484374 25.414062-14.671874 5.304688-9.1875 5.304688-20.15625 0-29.34375zm0 0"/></g></svg>