<svg height="503pt" viewBox="0 -76 503.996 503" width="503pt" xmlns="http://www.w3.org/2000/svg"><path d="m301.582031 176.296875h-99.1875l-49.59375 85.898437 49.59375 85.898438h99.1875l49.59375-85.898438zm0 0" fill="#7bac51"/><path d="m202.394531 176.296875h20l-49.59375 85.898437 49.59375 85.898438h-20l-49.59375-85.898438zm0 0" fill="#99ca6f"/><path d="m301.582031 176.296875h-20l49.59375 85.898437-49.59375 85.898438h20l49.59375-85.898438zm0 0" fill="#5d8e33"/><path d="m301.582031 4.496094h-99.1875l-49.59375 85.902344 49.59375 85.898437h99.1875l49.59375-85.898437zm0 0" fill="#f4efed"/><path d="m152.78125 90.398438h-99.1875l-49.597656 85.898437 49.597656 85.898437h99.1875l49.589844-85.898437zm0 0" fill="#7bac51"/><path d="m450.402344 90.398438h-99.1875l-49.589844 85.898437 49.589844 85.898437h99.1875l49.59375-85.898437zm0 0" fill="#7bac51"/><path d="m301.582031 4.496094h-20l49.59375 85.898437-49.59375 85.902344h20l49.59375-85.902344zm0 0" fill="#d6d1cf"/><path d="m202.394531 4.496094h20l-49.59375 85.898437 49.59375 85.902344h-20l-49.59375-85.902344zm0 0" fill="#fff"/><path d="m73.59375 90.394531h-20l-49.597656 85.902344 49.597656 85.898437h20l-49.597656-85.898437zm0 0" fill="#99ca6f"/><path d="m450.402344 90.394531h-20l49.59375 85.902344-49.59375 85.898437h20l49.59375-85.898437zm0 0" fill="#5d8e33"/><path d="m252.054688 114.796875c-3.332032 0-6.101563 2.769531-6.101563 6.097656v2.21875c0 3.4375 2.769531 6.097657 6.101563 6.097657 3.324218 0 5.988281-2.660157 5.988281-6.097657v-2.21875c0-3.328125-2.664063-6.097656-5.988281-6.097656zm0 0" fill="#ff4397"/><path d="m252.054688 51.582031c-3.332032 0-6.101563 2.773438-6.101563 6.101563v44.800781c0 3.441406 2.769531 6.101563 6.101563 6.101563 3.324218 0 5.988281-2.660157 5.988281-6.101563v-44.800781c0-3.328125-2.664063-6.101563-5.988281-6.101563zm0 0" fill="#ff4397"/><path d="m272.449219 223.378906c-3.4375 0-6.097657 2.664063-6.097657 6.101563v26.617187h-28.722656v-26.617187c0-3.4375-2.773437-6.101563-6.210937-6.101563s-6.101563 2.664063-6.101563 6.101563v65.429687c0 3.441406 2.664063 6.101563 6.101563 6.101563s6.210937-2.664063 6.210937-6.101563v-26.613281h28.722656v26.613281c0 3.441406 2.660157 6.101563 6.097657 6.101563 3.441406 0 6.210937-2.664063 6.210937-6.101563v-65.429687c0-3.4375-2.769531-6.101563-6.210937-6.101563zm0 0" fill="#fcc24c"/><path d="m126.863281 137.480469h-47.355469c-3.4375 0-6.101562 2.660156-6.101562 6.097656 0 3.328125 2.664062 6.210937 6.101562 6.210937h17.523438v59.222657c0 3.4375 2.773438 6.097656 6.097656 6.097656 3.441406 0 6.101563-2.660156 6.101563-6.097656v-59.222657h17.632812c3.328125 0 6.101563-2.882812 6.101563-6.210937-.003906-3.4375-2.773438-6.097656-6.101563-6.097656zm0 0" fill="#fcc24c"/><g fill="#690589"><path d="m301.585938 352.09375h-99.191407c-1.429687 0-2.75-.761719-3.460937-2l-49.59375-85.898438c-.714844-1.238281-.714844-2.761718 0-4l49.59375-85.898437c.710937-1.238281 2.035156-2 3.460937-2h99.191407c1.429687 0 2.75.761719 3.460937 2l49.59375 85.898437c.714844 1.238282.714844 2.761719 0 4l-49.59375 85.898438c-.710937 1.238281-2.03125 2-3.460937 2zm-96.878907-8h94.570313l47.28125-81.898438-47.28125-81.898437h-94.570313l-47.285156 81.898437zm0 0"/><path d="m301.585938 180.296875h-99.191407c-1.429687 0-2.75-.761719-3.460937-2l-49.59375-85.898437c-.714844-1.238282-.714844-2.761719 0-4l49.59375-85.902344c.710937-1.234375 2.035156-2 3.460937-2h99.191407c1.429687 0 2.75.765625 3.460937 2l49.59375 85.902344c.714844 1.238281.714844 2.761718 0 4l-49.59375 85.898437c-.710937 1.238281-2.03125 2-3.460937 2zm-96.878907-8h94.570313l47.28125-81.898437-47.28125-81.902344h-94.570313l-47.285156 81.902344zm0 0"/><path d="m152.78125 266.195312h-99.1875c-1.433594 0-2.75-.761718-3.464844-2l-49.59375-85.898437c-.714844-1.238281-.714844-2.761719 0-4l49.59375-85.898437c.714844-1.238282 2.035156-2 3.464844-2h99.1875c1.429688 0 2.75.761718 3.460938 2l49.597656 85.898437c.710937 1.238281.710937 2.761719 0 4l-49.597656 85.898437c-.710938 1.238282-2.035157 2-3.460938 2zm-96.882812-8h94.570312l47.285156-81.898437-47.285156-81.898437h-94.570312l-47.28125 81.898437zm0 0"/><path d="m42.859375 144.980469c-.675781 0-1.367187-.171875-1.996094-.539063-1.914062-1.101562-2.566406-3.550781-1.464843-5.464844l13.859374-24c1.105469-1.914062 3.550782-2.570312 5.464844-1.460937 1.914063 1.101563 2.566406 3.546875 1.464844 5.460937l-13.859375 24c-.742187 1.285157-2.085937 2.003907-3.46875 2.003907zm0 0"/><path d="m450.402344 266.195312h-99.1875c-1.429688 0-2.75-.761718-3.460938-2l-49.597656-85.898437c-.710938-1.238281-.710938-2.761719 0-4l49.597656-85.898437c.710938-1.238282 2.035156-2 3.460938-2h99.1875c1.433594 0 2.75.761718 3.464844 2l49.59375 85.898437c.714843 1.238281.714843 2.761719 0 4l-49.59375 85.898437c-.714844 1.238282-2.03125 2-3.464844 2zm-96.875-8h94.570312l47.28125-81.898437-47.285156-81.898437h-94.570312l-47.28125 81.898437zm0 0"/><path d="m126.863281 129.480469h-47.355469c-7.90625 0-14.101562 6.195312-14.101562 14.097656 0 7.835937 6.328125 14.210937 14.101562 14.210937h9.523438v51.222657c0 7.773437 6.324219 14.097656 14.097656 14.097656 7.90625 0 14.101563-6.195313 14.101563-14.097656v-51.222657h9.632812c7.773438 0 14.101563-6.375 14.101563-14.210937-.003906-7.773437-6.328125-14.097656-14.101563-14.097656zm0 20.3125h-17.632812v59.21875c0 3.4375-2.660157 6.101562-6.101563 6.101562-3.324218 0-6.097656-2.664062-6.097656-6.101562v-59.21875h-17.523438c-3.4375 0-6.101562-2.886719-6.101562-6.210938 0-3.4375 2.664062-6.101562 6.101562-6.101562h47.355469c3.328125 0 6.101563 2.664062 6.101563 6.101562-.003906 3.324219-2.773438 6.210938-6.101563 6.210938zm0 0"/><path d="m272.449219 215.378906c-7.90625 0-14.097657 6.195313-14.097657 14.101563v18.617187h-12.722656v-18.617187c0-7.773438-6.375-14.101563-14.210937-14.101563-7.90625 0-14.101563 6.195313-14.101563 14.101563v65.429687c0 7.90625 6.195313 14.101563 14.101563 14.101563 7.835937 0 14.210937-6.328125 14.210937-14.101563v-18.613281h12.722656v18.613281c0 7.90625 6.191407 14.101563 14.097657 14.101563 7.835937 0 14.210937-6.328125 14.210937-14.101563v-65.429687c0-7.777344-6.375-14.101563-14.210937-14.101563zm6.210937 79.53125c0 3.4375-2.773437 6.097656-6.210937 6.097656s-6.097657-2.660156-6.097657-6.097656v-26.617187h-28.722656v26.617187c0 3.4375-2.773437 6.097656-6.210937 6.097656s-6.101563-2.660156-6.101563-6.097656v-65.433594c0-3.4375 2.664063-6.097656 6.101563-6.097656s6.210937 2.660156 6.210937 6.097656v26.621094h28.722656v-26.617187c0-3.4375 2.660157-6.101563 6.097657-6.101563 3.441406 0 6.210937 2.664063 6.210937 6.101563zm0 0"/><path d="m440.238281 193.792969-.183593-.21875c-2.78125-3.335938-6.914063-5.25-11.34375-5.25-3.0625 0-6.058594.96875-8.429688 2.722656l-.121094.089844-.117187.09375c-3.65625 2.925781-7.863281 4.347656-12.859375 4.347656-5.230469 0-10.484375-2.097656-14.429688-5.765625-3.578125-3.527344-5.628906-8.449219-5.628906-13.515625 0-6.3125 3.066406-10.847656 5.691406-13.574219 3.941406-3.628906 9.164063-5.707031 14.367188-5.707031 5.007812 0 9.308594 1.445313 12.789062 4.292969l.066406.054687.070313.050781c2.414063 1.890626 5.484375 2.933594 8.644531 2.933594 4.472656 0 8.628906-1.988281 11.402344-5.453125l.128906-.160156.117188-.164063c4.449218-6.179687 3.359375-14.828124-2.480469-19.691406l-.101563-.085937-.105468-.082031c-8.691406-6.761719-19.25-10.335938-30.53125-10.335938h-.039063c-26.699219.132812-48.527343 21.613281-48.660156 47.882812.132813 26.484376 21.980469 47.964844 48.699219 47.964844 11.28125 0 21.835937-3.574218 30.53125-10.335937 5.992187-4.742188 7.171875-13.632813 2.6875-19.859375zm-7.4375 13.777343c-6.984375 5.433594-15.855469 8.648438-25.617187 8.648438-22.179688 0-40.589844-17.855469-40.703125-39.921875.113281-21.957031 18.523437-39.816406 40.703125-39.925781 9.761718 0 18.628906 3.21875 25.617187 8.652344 2.664063 2.214843 3.105469 6.097656 1.109375 8.871093-1.300781 1.628907-3.253906 2.453125-5.15625 2.453125-1.34375 0-2.660156-.410156-3.714844-1.234375-4.878906-3.992187-10.980468-6.097656-17.855468-6.097656-7.652344 0-14.75 3.105469-19.960938 7.984375-4.992187 5.101562-8.097656 11.753906-8.097656 19.296875s3.105469 14.414063 8.097656 19.296875c5.210938 4.878906 12.308594 7.984375 19.960938 7.984375 6.875 0 12.863281-2.109375 17.855468-6.101563 1.042969-.769531 2.34375-1.152343 3.671876-1.152343 1.917968 0 3.890624.800781 5.199218 2.375 1.996094 2.769531 1.554688 6.761719-1.109375 8.871093zm0 0"/></g><path d="m428.710938 196.324219c-1.328126 0-2.628907.382812-3.671876 1.152343-4.992187 3.992188-10.980468 6.101563-17.855468 6.101563-7.652344 0-14.75-3.105469-19.960938-7.984375-4.992187-4.878906-8.097656-11.753906-8.097656-19.296875s3.105469-14.195313 8.097656-19.296875c5.210938-4.878906 12.308594-7.984375 19.960938-7.984375 6.875 0 12.972656 2.105469 17.855468 6.097656 1.054688.824219 2.371094 1.234375 3.714844 1.234375 1.902344 0 3.855469-.824218 5.15625-2.453125 1.996094-2.773437 1.554688-6.65625-1.109375-8.871093-6.984375-5.433594-15.855469-8.652344-25.617187-8.652344-22.179688.113281-40.589844 17.96875-40.703125 39.925781.113281 22.066406 18.523437 39.921875 40.703125 39.921875 9.761718 0 18.628906-3.214844 25.617187-8.648438 2.664063-2.109374 3.105469-6.101562 1.109375-8.871093-1.308594-1.574219-3.28125-2.375-5.199218-2.375zm0 0" fill="#fcc24c"/><path d="m266.042969 57.683594c0-7.777344-6.273438-14.101563-13.984375-14.101563-7.777344 0-14.105469 6.324219-14.105469 14.101563v44.800781c0 3.515625 1.292969 6.734375 3.429687 9.207031-2.136718 2.46875-3.429687 5.6875-3.429687 9.203125v2.21875c0 7.773438 6.328125 14.097657 14.105469 14.097657 7.710937 0 13.984375-6.324219 13.984375-14.097657v-2.21875c0-3.515625-1.28125-6.734375-3.402344-9.203125 2.121094-2.472656 3.402344-5.691406 3.402344-9.207031zm-8 65.429687c0 3.4375-2.664063 6.097657-5.984375 6.097657-3.332032 0-6.105469-2.660157-6.105469-6.097657v-2.21875c0-3.328125 2.773437-6.097656 6.105469-6.097656 3.320312 0 5.984375 2.769531 5.984375 6.097656zm0-20.628906c0 3.441406-2.664063 6.101563-5.984375 6.101563-3.332032 0-6.105469-2.660157-6.105469-6.101563v-44.800781c0-3.328125 2.773437-6.101563 6.105469-6.101563 3.320312 0 5.984375 2.773438 5.984375 6.101563zm0 0" fill="#690589"/></svg>