<svg height="504pt" viewBox="-26 0 504 504" width="504pt" xmlns="http://www.w3.org/2000/svg"><path d="m99.480469 4c-14.359375 0-26 11.640625-26 25.996094l5.820312 73.890625h40.359375l5.820313-73.890625c-.003907-14.355469-11.640625-25.996094-26-25.996094zm0 0" fill="#7bac51"/><path d="m147.644531 161.132812h-96.328125c-5.355468 0-9.695312-4.339843-9.695312-9.695312v-37.851562c0-5.355469 4.339844-9.699219 9.695312-9.699219h96.328125c5.355469 0 9.699219 4.34375 9.699219 9.699219v37.851562c0 5.355469-4.34375 9.695312-9.699219 9.695312zm0 0" fill="#7bac51"/><path d="m146.464844 214.390625h-3.949219v-53.257813h-86.066406v53.257813h-3.953125c-26.78125 0-48.492188 21.710937-48.492188 48.492187v217.71875c0 10.710938 8.683594 19.398438 19.394532 19.398438h152.164062c10.710938 0 19.398438-8.683594 19.398438-19.398438v-217.71875c0-26.78125-21.714844-48.492187-48.496094-48.492187zm0 0" fill="#f4efed"/><path d="m146.464844 214.390625h-3.949219v-53.257813h-20v49.304688c0 2.183594 1.769531 3.953125 3.949219 3.953125 26.78125 0 48.496094 21.710937 48.496094 48.492187v217.71875c0 10.710938-8.683594 19.398438-19.398438 19.398438h20c10.710938 0 19.398438-8.683594 19.398438-19.398438v-217.71875c0-26.78125-21.714844-48.492187-48.496094-48.492187zm0 0" fill="#d6d1cf"/><path d="m24.003906 480.601562v-217.71875c0-26.78125 21.710938-48.492187 48.492188-48.492187 2.183594 0 3.953125-1.769531 3.953125-3.953125v-49.304688h-20v53.257813h-3.953125c-26.78125 0-48.492188 21.710937-48.492188 48.492187v217.71875c0 10.714844 8.683594 19.398438 19.394532 19.398438h20c-10.710938 0-19.394532-8.683594-19.394532-19.398438zm0 0" fill="#fff"/><path d="m4.003906 273.316406h190.957032v169.671875h-190.957032zm0 0" fill="#fcc24c"/><path d="m147.644531 103.886719h-20c5.355469 0 9.699219 4.34375 9.699219 9.699219v37.851562c0 5.355469-4.34375 9.695312-9.699219 9.695312h20c5.355469 0 9.699219-4.339843 9.699219-9.695312v-37.851562c0-5.355469-4.34375-9.699219-9.699219-9.699219zm0 0" fill="#5d8e33"/><path d="m51.316406 161.132812h20c-5.355468 0-9.695312-4.339843-9.695312-9.695312v-37.851562c0-5.355469 4.339844-9.699219 9.695312-9.699219h-20c-5.355468 0-9.695312 4.34375-9.695312 9.699219v37.851562c-.003906 5.355469 4.339844 9.695312 9.695312 9.695312zm0 0" fill="#99ca6f"/><path d="m99.480469 4c-2.070313 0-4.070313.269531-6 .722656 11.460937 2.714844 19.996093 12.984375 19.996093 25.273438l-5.820312 73.890625h12l5.820312-73.890625c0-14.355469-11.636718-25.996094-25.996093-25.996094zm0 0" fill="#5d8e33"/><path d="m99.480469 4c2.066406 0 4.070312.269531 6 .722656-11.460938 2.714844-20 12.984375-20 25.273438l5.820312 73.890625h-12l-5.820312-73.890625c0-14.355469 11.640625-25.996094 26-25.996094zm0 0" fill="#99ca6f"/><path d="m4.003906 273.316406h20v169.671875h-20zm0 0" fill="#fce06a"/><path d="m174.960938 273.316406h20v169.671875h-20zm0 0" fill="#dea42e"/><g fill="#690589"><path d="m175.5625 504h-152.164062c-12.898438 0-23.39453175-10.496094-23.39453175-23.398438v-217.71875c0-28.925781 23.52343775-52.464843 52.44531275-52.492187v-49.257813c0-2.207031 1.792969-4 4-4h86.066406c2.207031 0 4 1.792969 4 4v49.257813c28.921875.023437 52.445313 23.5625 52.445313 52.492187v217.71875c0 12.902344-10.496094 23.398438-23.398438 23.398438zm-123.066406-285.609375c-24.535156 0-44.492188 19.960937-44.492188 44.492187v217.71875c0 8.492188 6.90625 15.398438 15.394532 15.398438h152.164062c8.488281 0 15.398438-6.90625 15.398438-15.398438v-217.71875c0-24.53125-19.960938-44.492187-44.496094-44.492187h-3.953125c-2.207031 0-4-1.792969-4-4v-49.257813h-78.0625v49.257813c0 2.207031-1.792969 4-4 4zm0 0"/><path d="m147.644531 165.132812h-96.328125c-7.550781 0-13.699218-6.144531-13.699218-13.699218v-37.847656c0-7.554688 6.144531-13.699219 13.699218-13.699219h96.328125c7.554688 0 13.699219 6.144531 13.699219 13.699219v37.851562c0 7.550781-6.144531 13.695312-13.699219 13.695312zm-96.328125-57.246093c-3.140625 0-5.699218 2.554687-5.699218 5.699219v37.851562c0 3.140625 2.558593 5.699219 5.699218 5.699219h96.328125c3.140625 0 5.699219-2.558594 5.699219-5.699219v-37.851562c0-3.140626-2.554688-5.699219-5.699219-5.699219zm0 0"/><path d="m194.960938 446.988281h-190.960938c-2.207031 0-4-1.789062-4-4v-169.671875c0-2.207031 1.792969-4 4-4h190.957031c2.207031 0 4 1.792969 4 4v169.671875c.003907 2.210938-1.789062 4-3.996093 4zm-186.960938-8h182.957031v-161.671875h-182.957031zm0 0"/><path d="m20 330.503906c-2.207031 0-4-1.792968-4-4v-24c0-2.210937 1.792969-4 4-4s4 1.789063 4 4v24c0 2.207032-1.789062 4-4 4zm0 0"/><path d="m119.660156 107.886719h-40.359375c-2.085937 0-3.824219-1.605469-3.988281-3.6875l-5.816406-73.886719c-.007813-.105469-.011719-.210938-.011719-.316406 0-16.539063 13.457031-29.996094 29.996094-29.996094 16.542969 0 30 13.457031 30 29.996094 0 .105468-.003907.210937-.011719.316406l-5.820312 73.886719c-.164063 2.082031-1.902344 3.6875-3.988282 3.6875zm-36.660156-8h32.960938l5.519531-70.039063c-.082031-12.058594-9.917969-21.847656-22-21.847656-12.078125 0-21.914063 9.789062-21.996094 21.847656zm42.480469-69.890625h.019531zm0 0"/><path d="m155.402344 145.714844h-112.019532c-2.207031 0-4-1.789063-4-4 0-2.207032 1.792969-4 4-4h112.019532c2.210937 0 4 1.792968 4 4 0 2.210937-1.789063 4-4 4zm0 0"/></g><path d="m354.261719 391.535156c41.78125-6.441406 76.652343-22.351562 93.820312-40.640625-21.878906-12.265625-59.921875-16.929687-101.703125-10.488281-4.507812.695312-8.914062 1.523438-13.246094 2.429688 10.132813-7.78125 20.230469-16.59375 30.027344-26.390626 37.472656-37.472656 60.941406-79.390624 64.75-110.597656-31.210937 3.804688-73.128906 27.277344-110.601562 64.75-12.886719 12.890625-24.078125 26.304688-33.421875 39.628906 6.386719-25.890624 10.019531-55.578124 10.019531-87.148437 0-67.578125-16.636719-126.539063-41.347656-158.117187-24.707032 31.578124-41.34375 90.535156-41.34375 158.117187 0 31.566406 3.632812 61.253906 10.019531 87.148437-9.347656-13.324218-20.535156-26.742187-33.425781-39.628906-37.46875-37.472656-79.386719-60.941406-110.597656-64.75 3.808593 31.207032 27.277343 73.125 64.75 110.597656 9.796874 9.796876 19.894531 18.605469 30.027343 26.390626-4.332031-.90625-8.742187-1.734376-13.246093-2.429688-41.78125-6.441406-79.824219-1.777344-101.703126 10.488281 17.167969 18.289063 52.039063 34.195313 93.820313 40.640625 19.097656 2.941406 37.386719 3.542969 53.734375 2.183594-4.109375 2.457031-8.230469 5.183594-12.3125 8.175781-21.625 15.84375-36.585938 34.988281-40.898438 50.300781 15.898438.5 38.660157-8 60.28125-23.84375 19.953126-14.621093 34.214844-32.046874 39.6875-46.683593.324219-.171875.667969-.332031.984376-.507813.074218.011719.152343.027344.226562.039063.074219-.011719.152344-.027344.226562-.039063.316407.179688.660157.335938.984376.507813 5.472656 14.632812 19.734374 32.058593 39.683593 46.683593 21.621094 15.84375 44.386719 24.34375 60.28125 23.84375-4.308593-15.3125-19.273437-34.457031-40.894531-50.300781-4.082031-2.992187-8.203125-5.71875-12.3125-8.175781 16.34375 1.359375 34.632812.757812 53.730469-2.183594zm0 0" fill="#7bac51"/><path d="m95.355469 209.890625c5.238281 30.730469 28.265625 70.675781 64.144531 106.554687 6.445312 6.445313 13.027344 12.46875 19.65625 18.046876 2.640625 2.222656.667969 6.464843-2.742188 5.9375-.042968-.007813-.089843-.015626-.132812-.023438-2.976562-.457031-5.921875-.84375-8.851562-1.191406-8.601563-6.871094-17.148438-14.441406-25.472657-22.765625-37.472656-37.472657-60.941406-79.390625-64.75-110.601563 5.722657.695313 11.804688 2.058594 18.148438 4.042969zm0 0" fill="#99ca6f"/><path d="m130.648438 337.707031c-22.894532.957031-42.566407 5.617188-56.070313 13.1875 17.167969 18.289063 52.039063 34.195313 93.820313 40.640625 9.425781 1.453125 18.65625 2.332032 27.554687 2.6875-14.058594.558594-29.292969-.253906-45.097656-2.6875-41.78125-6.441406-76.652344-22.351562-93.820313-40.640625 16.84375-9.441406 43.28125-14.351562 73.613282-13.1875zm0 0" fill="#99ca6f"/><path d="m192.277344 401.894531c3.710937-2.722656 7.460937-5.214843 11.203125-7.496093 1.34375.011718 2.679687.007812 4.003906-.007813 4.019531-.042969 5.699219 5.042969 2.457031 7.414063-.042968.03125-.082031.058593-.125.089843-20.417968 14.964844-34.886718 32.867188-40.0625 47.710938-6.710937 1.859375-12.945312 2.761719-18.371094 2.589843 4.308594-15.3125 19.269532-34.457031 40.894532-50.300781zm0 0" fill="#99ca6f"/><path d="m221.234375 310.226562c8.859375 0 15.550781-8.039062 13.898437-16.742187-4.105468-21.664063-6.375-45.445313-6.375-70.40625 0 0-1.457031-109.273437 23.800782-158.117187-24.707032 31.578124-41.34375 90.535156-41.34375 158.117187 0 20.363281 1.527344 39.917969 4.316406 58.203125zm0 0" fill="#99ca6f"/><path d="m409.761719 209.890625c-5.238281 30.730469-28.265625 70.675781-64.144531 106.554687-6.445313 6.445313-13.023438 12.46875-19.65625 18.046876-2.640626 2.222656-.667969 6.464843 2.742187 5.9375.042969-.007813.089844-.015626.136719-.023438 2.972656-.457031 5.917968-.84375 8.851562-1.191406 8.597656-6.871094 17.144532-14.441406 25.46875-22.765625 37.472656-37.472657 60.941406-79.390625 64.75-110.601563-5.71875.695313-11.800781 2.058594-18.148437 4.042969zm0 0" fill="#5d8e33"/><path d="m374.46875 337.707031c22.898438.957031 42.566406 5.617188 56.070312 13.1875-17.167968 18.289063-52.035156 34.195313-93.820312 40.640625-9.425781 1.453125-18.65625 2.332032-27.558594 2.6875 14.058594.558594 29.292969-.253906 45.101563-2.6875 41.78125-6.441406 76.648437-22.351562 93.816406-40.640625-16.839844-9.441406-43.277344-14.351562-73.609375-13.1875zm0 0" fill="#5d8e33"/><path d="m312.84375 401.894531c-3.714844-2.722656-7.464844-5.214843-11.207031-7.496093-1.34375.011718-2.679688.007812-4.003907-.007813-4.015624-.042969-5.695312 5.042969-2.453124 7.414063.039062.03125.082031.058593.121093.089843 20.417969 14.964844 34.890625 32.867188 40.066407 47.710938 6.707031 1.859375 12.945312 2.761719 18.367187 2.589843-4.304687-15.3125-19.269531-34.457031-40.890625-50.300781zm0 0" fill="#5d8e33"/><path d="m283.882812 310.226562c-8.855468 0-15.546874-8.039062-13.898437-16.742187 4.109375-21.664063 6.378906-45.445313 6.378906-70.40625 0 0 1.453125-109.273437-23.804687-158.117187 24.710937 31.578124 41.34375 90.535156 41.34375 158.117187 0 20.363281-1.527344 39.917969-4.3125 58.203125zm0 0" fill="#5d8e33"/><path d="m239.453125 504c-2.207031 0-4-1.792969-4-4s1.792969-4 4-4c5.023437 0 9.105469-4.085938 9.105469-9.105469v-105.851562c0-2.207031 1.792968-4 4-4 2.210937 0 4 1.792969 4 4v105.851562c0 9.433594-7.671875 17.105469-17.105469 17.105469zm0 0" fill="#690589"/><path d="m352.351562 456.214844c-17.34375 0-40.09375-9.125-61.261718-24.640625-17.402344-12.753907-31.378906-28.324219-38.53125-42.699219-7.15625 14.378906-21.128906 29.949219-38.535156 42.699219-21.789063 15.96875-45.246094 25.167969-62.769532 24.617187-1.230468-.039062-2.375-.640625-3.101562-1.632812-.726563-.992188-.957032-2.265625-.625-3.449219 4.75-16.871094 20.589844-36.472656 42.378906-52.441406.121094-.089844.242188-.179688.367188-.265625-12.941407.167968-26.351563-.804688-40.03125-2.914063-41.613282-6.417969-77.546876-22.0625-96.125-41.855469-.84375-.894531-1.226563-2.128906-1.039063-3.34375.1875-1.21875.925781-2.277343 1.996094-2.882812 23.304687-13.0625 61.441406-17.234375 102.316406-11.246094-6.265625-5.347656-12.375-10.996094-18.265625-16.882812-36.609375-36.605469-61.855469-79.886719-65.894531-112.945313-.144531-1.21875.273437-2.441406 1.144531-3.3125.867188-.871093 2.085938-1.292969 3.3125-1.140625 33.054688 4.03125 76.335938 29.28125 112.945312 65.890625 8.171876 8.175781 15.816407 16.699219 22.84375 25.472657-4.117187-22.152344-6.269531-46.066407-6.269531-70.160157 0-65.792969 16.167969-127.324219 42.195313-160.585937.757812-.964844 1.921875-1.535156 3.152344-1.535156 1.230468 0 2.390624.566406 3.148437 1.535156 26.027344 33.265625 42.195313 94.796875 42.195313 160.585937 0 24.09375-2.148438 48.011719-6.269532 70.164063 7.03125-8.777344 14.671875-17.300782 22.84375-25.472656 36.613282-36.613282 79.890625-61.859376 112.949219-65.894532 1.226563-.148437 2.441406.273438 3.308594 1.144532.875.867187 1.292969 2.089843 1.144531 3.3125-4.035156 33.054687-29.285156 76.335937-65.894531 112.941406-5.886719 5.890625-12 11.539062-18.265625 16.886718 40.875-5.992187 79.007812-1.820312 102.316406 11.246094 1.074219.601563 1.8125 1.664063 2 2.878906.1875 1.21875-.195312 2.449219-1.039062 3.347657-18.582032 19.792969-54.515626 35.4375-96.125 41.851562-13.683594 2.113281-27.105469 3.085938-40.03125 2.914063.121093.089844.242187.179687.363281.269531 21.789062 15.960937 37.628906 35.566406 42.378906 52.441406.335937 1.183594.105469 2.453125-.621094 3.445313-.730469.992187-1.871093 1.59375-3.101562 1.636718-.488281.011719-.996094.019532-1.503907.019532zm-147.761718-66.496094c1.722656 0 3.273437 1.109375 3.804687 2.773438.570313 1.773437-.15625 3.703124-1.753906 4.660156-4.058594 2.425781-8.097656 5.109375-12 7.96875-17.792969 13.035156-31.667969 28.996094-37.542969 42.882812 15.011719-1.417968 34.410156-9.84375 52.199219-22.878906 18.566406-13.605469 32.886719-30.378906 38.304687-44.855469.339844-.910156 1-1.664062 1.855469-2.125l.929688-.480469c.660156-.367187 1.398437-.542968 2.171875-.496093.75-.050781 1.507812.128906 2.167968.496093l.921876.476563c.863281.457031 1.523437 1.214844 1.867187 2.128906 5.414063 14.476563 19.730469 31.246094 38.300781 44.855469 17.789063 13.035156 37.191406 21.460938 52.199219 22.878906-5.875-13.886718-19.75-29.847656-37.539063-42.882812-3.898437-2.855469-7.933593-5.539063-12.003906-7.96875-1.597656-.957032-2.324218-2.886719-1.753906-4.660156.570312-1.769532 2.316406-2.90625 4.140625-2.761719 16.492187 1.375 34.753906.632812 52.789063-2.148438 36.558593-5.636719 69.453124-19.101562 87.660156-35.640625-22.347656-10.289062-57.765625-13.21875-94.324219-7.578125-4.125.632813-8.390625 1.414063-13.039063 2.386719-1.824218.378906-3.671874-.550781-4.453124-2.246094-.78125-1.695312-.28125-3.707031 1.199218-4.84375 10.269532-7.882812 20.238282-16.644531 29.632813-26.039062 33.460937-33.460938 57.0625-72.335938 62.792969-102.984375-30.648438 5.726562-69.527344 29.332031-102.984376 62.789062-12.335937 12.339844-23.433593 25.496094-32.976562 39.101563-1.109375 1.578125-3.175781 2.140625-4.933594 1.34375-1.75-.796875-2.6875-2.730469-2.226562-4.597656 6.480468-26.265626 9.90625-56.070313 9.90625-86.195313 0-61.347656-14.21875-118.621094-37.347656-151.40625-23.125 32.78125-37.34375 90.054687-37.34375 151.40625 0 30.121094 3.421874 59.925781 9.902343 86.191406.460938 1.871094-.476562 3.800781-2.226562 4.601563-1.757813.792968-3.824219.230468-4.933594-1.34375-9.539063-13.601563-20.632813-26.757813-32.976563-39.101563-33.457031-33.457031-72.335937-57.058593-102.984374-62.789062 5.730468 30.652343 29.335937 69.527343 62.792968 102.984375 9.394532 9.398437 19.367188 18.160156 29.632813 26.042968 1.480469 1.136719 1.976562 3.144532 1.199219 4.84375-.777344 1.695313-2.628907 2.625-4.453126 2.246094-4.644531-.972656-8.910156-1.753906-13.039062-2.390625-36.5625-5.636719-71.976562-2.707031-94.324219 7.582031 18.210938 16.539063 51.101563 30 87.660157 35.640626 18.039062 2.78125 36.292968 3.527343 52.792968 2.148437.113282-.011719.226563-.015625.335938-.015625zm149.671875 1.816406h.019531zm0 0" fill="#690589"/></svg>