<svg height="504pt" viewBox="-48 0 504 504" width="504pt" xmlns="http://www.w3.org/2000/svg"><path d="m220.300781 173.828125c-9.871093-9.871094-29.160156-6.585937-43.085937 7.339844-13.921875 13.921875-17.207032 33.214843-7.335938 43.085937s29.160156 6.585938 43.085938-7.339844c13.925781-13.925781 17.210937-33.214843 7.335937-43.085937zm0 0" fill="#99ca6f"/><path d="m246.839844 500h-85.320313c-14.558593 0-27.027343-10.421875-29.617187-24.746094l-25.625-141.890625h195.800781l-25.625 141.890625c-2.582031 14.324219-15.054687 24.746094-29.613281 24.746094zm0 0" fill="#fcc24c"/><path d="m204.183594 107.050781-40.382813 21.226563 7.710938-44.964844-32.667969-31.84375 45.148438-6.558594 20.191406-40.910156 20.1875 40.910156 45.148437 6.558594-32.667969 31.84375 7.710938 44.964844zm0 0" fill="#fcc24c"/><path d="m69.335938 239.949219-40.378907 21.230469 7.710938-44.964844-32.667969-31.84375 45.148438-6.558594 20.1875-40.910156 20.191406 40.910156 45.144531 6.558594-32.667969 31.84375 7.714844 44.964844zm0 0" fill="#fcc24c"/><path d="m339.027344 239.949219-40.382813 21.230469 7.714844-44.964844-32.667969-31.84375 45.144532-6.558594 20.191406-40.910156 20.1875 40.910156 45.148437 6.558594-32.667969 31.84375 7.710938 44.964844zm0 0" fill="#fcc24c"/><path d="m220.304688 173.828125c-5.167969-5.171875-12.921876-6.699219-21.136719-5.015625 3.492187.847656 6.625 2.5 9.136719 5.015625 9.871093 9.871094 6.585937 29.160156-7.335938 43.085937-6.636719 6.632813-14.480469 10.820313-21.949219 12.351563 10.214844 2.484375 23.570313-1.972656 33.949219-12.351563 13.921875-13.925781 17.207031-33.214843 7.335938-43.085937zm0 0" fill="#5d8e33"/><path d="m184.773438 233.957031c-7.046876 0-13.207032-2.359375-17.722657-6.875-11.414062-11.417969-8.125-33.28125 7.339844-48.742187 7.3125-7.316406 16.269531-12.1875 25.21875-13.710938 9.453125-1.609375 17.804687.65625 23.523437 6.371094 11.417969 11.414062 8.125 33.28125-7.335937 48.742188-7.316406 7.316406-16.273437 12.1875-25.222656 13.710937-1.984375.335937-3.925781.503906-5.800781.503906zm20.597656-61.828125c-1.417969 0-2.894532.128906-4.417969.386719-7.328125 1.25-14.75 5.324219-20.90625 11.476563-12.339844 12.34375-15.632813 29.136718-7.335937 37.433593 3.832031 3.832031 9.695312 5.300781 16.523437 4.136719 7.328125-1.246094 14.75-5.324219 20.90625-11.476562 6.152344-6.152344 10.230469-13.578126 11.476563-20.90625 1.164062-6.824219-.308594-12.695313-4.136719-16.527344-2.980469-2.972656-7.183594-4.523438-12.109375-4.523438zm0 0" fill="#690589"/><path d="m226 294.722656c-2.207031 0-4-1.792968-4-4v-103.640625c0-2.207031 1.792969-4 4-4 2.210938 0 4 1.792969 4 4v103.640625c0 2.210938-1.789062 4-4 4zm0 0" fill="#690589"/><path d="m295.527344 333.363281h-182.691406c-13.132813 0-23.78125-10.648437-23.78125-23.785156 0-13.132813 10.648437-23.78125 23.78125-23.78125h182.6875c13.132812 0 23.78125 10.648437 23.78125 23.78125.003906 13.136719-10.644532 23.785156-23.777344 23.785156zm0 0" fill="#fcc24c"/><path d="m282.082031 333.363281-25.625 141.890625c-2.585937 14.324219-15.058593 24.746094-29.617187 24.746094h20c14.558594 0 27.03125-10.421875 29.617187-24.746094l25.625-141.890625zm0 0" fill="#dea42e"/><path d="m126.28125 333.363281 25.625 141.890625c2.585938 14.324219 15.058594 24.746094 29.617188 24.746094h-20c-14.558594 0-27.03125-10.421875-29.617188-24.746094l-25.625-141.890625zm0 0" fill="#fce06a"/><path d="m295.527344 285.796875h-28.019532c13.136719 0 23.785157 10.648437 23.785157 23.78125s-10.648438 23.78125-23.785157 23.78125h28.019532c13.132812 0 23.78125-10.648437 23.78125-23.78125s-10.648438-23.78125-23.78125-23.78125zm0 0" fill="#dea42e"/><path d="m112.835938 333.363281h28.019531c-13.136719 0-23.78125-10.648437-23.78125-23.785156 0-13.132813 10.648437-23.78125 23.78125-23.78125h-28.019531c-13.132813 0-23.78125 10.648437-23.78125 23.78125 0 13.136719 10.648437 23.785156 23.78125 23.785156zm0 0" fill="#fce06a"/><g fill="#690589"><path d="m295.527344 337.363281h-182.691406c-15.316407 0-27.78125-12.464843-27.78125-27.785156s12.464843-27.78125 27.78125-27.78125h182.691406c15.316406 0 27.78125 12.460937 27.78125 27.78125s-12.464844 27.785156-27.78125 27.785156zm-182.691406-47.566406c-10.90625 0-19.78125 8.875-19.78125 19.78125s8.875 19.785156 19.78125 19.785156h182.691406c10.90625 0 19.78125-8.878906 19.78125-19.785156s-8.875-19.78125-19.78125-19.78125zm0 0"/><path d="m246.84375 504h-85.320312c-16.511719 0-30.621094-11.792969-33.554688-28.035156l-25.625-141.894532c-.207031-1.164062.109375-2.363281.871094-3.273437.757812-.910156 1.882812-1.4375 3.070312-1.4375h195.800782c1.1875 0 2.308593.527344 3.070312 1.4375.757812.910156 1.078125 2.109375.867188 3.273437l-25.625 141.894532c-2.9375 16.246094-17.046876 28.035156-33.554688 28.035156zm-135.777344-166.636719 24.773438 137.179688c2.246094 12.429687 13.046875 21.457031 25.679687 21.457031h85.320313c12.636718 0 23.433594-9.023438 25.679687-21.457031l24.773438-137.179688zm0 0"/><path d="m134.246094 389.4375c-1.898438 0-3.582032-1.359375-3.933594-3.292969l-4.332031-24c-.394531-2.171875 1.050781-4.253906 3.226562-4.648437 2.164063-.390625 4.253907 1.054687 4.648438 3.226562l4.332031 24c.390625 2.175782-1.050781 4.253906-3.226562 4.648438-.238282.042968-.480469.066406-.714844.066406zm0 0"/><path d="m244.5625 132.277344c-.636719 0-1.277344-.152344-1.863281-.457032l-38.515625-20.253906-38.523438 20.253906c-1.34375.707032-2.976562.589844-4.210937-.304687-1.230469-.894531-1.847657-2.410156-1.589844-3.910156l7.359375-42.894531-31.164062-30.375c-1.089844-1.0625-1.484376-2.652344-1.011719-4.101563.46875-1.449219 1.71875-2.503906 3.230469-2.722656l43.0625-6.257813 19.261718-39.023437c.671875-1.367188 2.0625-2.230469 3.585938-2.230469 1.519531 0 2.910156.863281 3.585937 2.230469l19.257813 39.023437 43.066406 6.257813c1.507812.21875 2.757812 1.273437 3.230469 2.722656.46875 1.449219.078125 3.039063-1.011719 4.101563l-31.164062 30.375 7.355468 42.890624c.257813 1.5-.359375 3.015626-1.589844 3.914063-.695312.503906-1.523437.761719-2.351562.761719zm-40.378906-29.230469c.636718 0 1.277344.15625 1.859375.460937l33.207031 17.457032-6.339844-36.976563c-.222656-1.296875.207032-2.621093 1.148438-3.539062l26.863281-26.1875-37.125-5.394531c-1.300781-.1875-2.425781-1.007813-3.011719-2.1875l-16.601562-33.640626-16.605469 33.640626c-.585937 1.179687-1.707031 2-3.011719 2.1875l-37.125 5.394531 26.863282 26.1875c.941406.917969 1.375 2.246093 1.152343 3.542969l-6.34375 36.972656 33.207031-17.457032c.582032-.304687 1.222657-.460937 1.863282-.460937zm0 0"/><path d="m28.957031 265.179688c-.828125 0-1.652343-.257813-2.351562-.765626-1.230469-.894531-1.847657-2.410156-1.589844-3.910156l7.355469-42.890625-31.164063-30.378906c-1.089843-1.058594-1.480469-2.648437-1.011719-4.097656s1.722657-2.503907 3.230469-2.722657l43.066407-6.257812 19.257812-39.023438c.675781-1.367187 2.066406-2.230468 3.585938-2.230468 1.523437 0 2.914062.863281 3.585937 2.230468l19.261719 39.023438 43.066406 6.257812c1.503906.21875 2.757812 1.273438 3.230469 2.722657.46875 1.449219.078125 3.039062-1.011719 4.097656l-31.164062 30.378906 7.355468 42.890625c.257813 1.5-.359375 3.015625-1.589844 3.910156-1.234374.894532-2.863281 1.015626-4.210937.304688l-38.519531-20.25-38.523438 20.25c-.582031.308594-1.222656.460938-1.859375.460938zm40.378907-29.230469c.640624 0 1.28125.15625 1.863281.460937l33.207031 17.457032-6.339844-36.976563c-.222656-1.292969.207032-2.621094 1.148438-3.539063l26.863281-26.1875-37.125-5.394531c-1.300781-.1875-2.425781-1.003906-3.011719-2.1875l-16.605468-33.640625-16.601563 33.640625c-.585937 1.179688-1.707031 2-3.011719 2.1875l-37.128906 5.394531 26.867188 26.1875c.941406.917969 1.375 2.246094 1.152343 3.539063l-6.34375 36.976563 33.207031-17.457032c.582032-.304687 1.222657-.460937 1.859376-.460937zm0 0"/><path d="m379.40625 265.179688c-.636719 0-1.277344-.152344-1.863281-.460938l-38.515625-20.25-38.523438 20.25c-1.34375.710938-2.976562.589844-4.210937-.304688-1.230469-.894531-1.847657-2.410156-1.589844-3.910156l7.355469-42.890625-31.160156-30.378906c-1.089844-1.058594-1.484376-2.648437-1.011719-4.097656.46875-1.449219 1.722656-2.503907 3.230469-2.722657l43.066406-6.257812 19.257812-39.023438c.675782-1.367187 2.0625-2.230468 3.585938-2.230468 1.523437 0 2.914062.863281 3.585937 2.230468l19.261719 39.023438 43.066406 6.257812c1.503906.21875 2.757813 1.273438 3.226563 2.722657.472656 1.449219.078125 3.039062-1.011719 4.097656l-31.164062 30.378906 7.359374 42.890625c.257813 1.5-.363281 3.015625-1.59375 3.910156-.699218.507813-1.523437.765626-2.351562.765626zm-97.121094-78.015626 26.863282 26.1875c.941406.917969 1.375 2.242188 1.152343 3.539063l-6.34375 36.976563 33.207031-17.460938c1.167969-.613281 2.558594-.613281 3.722657 0l33.207031 17.460938-6.34375-36.976563c-.21875-1.296875.210938-2.621094 1.152344-3.539063l26.867187-26.1875-37.128906-5.394531c-1.300781-.191406-2.425781-1.007812-3.011719-2.191406l-16.601562-33.640625-16.605469 33.640625c-.585937 1.183594-1.707031 2-3.011719 2.191406zm0 0"/></g></svg>