<svg height="503pt" viewBox="0 0 503.99977 503" width="503pt" xmlns="http://www.w3.org/2000/svg"><path d="m10.433594 493.863281c-8.578125-8.574219-8.578125-22.480469 0-31.058593l312.003906-312.003907 31.058594 31.058594-312.003906 312.003906c-8.578126 8.578125-22.480469 8.578125-31.058594 0zm0 0" fill="#f4efed"/><path d="m25.960938 504.285156c-6.648438 0-13.296876-2.53125-18.355469-7.59375-4.90625-4.902344-7.605469-11.421875-7.605469-18.355468 0-6.9375 2.699219-13.457032 7.605469-18.359376l312.003906-312.003906c1.5-1.5 4.15625-1.5 5.65625 0l31.058594 31.058594c1.5625 1.5625 1.5625 4.09375 0 5.65625l-312.003907 312.003906c-5.0625 5.0625-11.710937 7.59375-18.359374 7.59375zm296.476562-347.828125-309.175781 309.175781c-3.394531 3.394532-5.261719 7.902344-5.261719 12.703126 0 4.796874 1.867188 9.304687 5.261719 12.699218 3.390625 3.394532 7.902343 5.261719 12.699219 5.261719 4.796874 0 9.308593-1.867187 12.703124-5.261719l309.175782-309.175781zm0 0" fill="#690589"/><path d="m295.003906 294.988281-85.695312-85.695312 58.457031-11.089844 38.328125 38.328125zm0 0" fill="#5d8e33"/><path d="m295.003906 298.988281c-1.042968 0-2.066406-.410156-2.828125-1.171875l-85.695312-85.699218c-1.046875-1.046876-1.429688-2.589844-.996094-4.003907.4375-1.417969 1.621094-2.476562 3.078125-2.753906l58.457031-11.085937c1.296875-.246094 2.636719.164062 3.574219 1.101562l38.328125 38.328125c.9375.933594 1.347656 2.273437 1.101563 3.574219l-11.089844 58.457031c-.277344 1.457031-1.335938 2.640625-2.75 3.078125-.390625.121094-.785156.175781-1.179688.175781zm-77.519531-87.175781 75 75 9.289063-48.949219-35.339844-35.335937zm0 0" fill="#690589"/><path d="m286.035156 218.464844-9.054687-9.050782c-36.605469-36.609374-24.683594-98.609374 22.890625-119.027343l50.414062-21.632813 149.714844-64.253906-64.253906 149.714844-21.632813 50.414062c-20.417969 47.574219-82.417969 59.496094-119.023437 22.890625zm0 0" fill="#7bac51"/><path d="m286.035156 218.464844 9.054688 9.054687c36.605468 36.605469 98.605468 24.683594 119.023437-22.890625l21.632813-50.414062 64.253906-149.714844-108.113281 177.875c-21.183594 34.851562-63.773438 50.636719-102.351563 37.390625-2.25-.773437-3.5-1.300781-3.5-1.300781zm0 0" fill="#5d8e33"/><path d="m286.035156 218.464844-9.054687-9.050782c-36.605469-36.609374-24.683594-98.609374 22.890625-119.027343l50.414062-21.632813 149.714844-64.253906-177.875 108.113281c-34.851562 21.183594-50.636719 63.773438-37.390625 102.351563.773437 2.25 1.300781 3.5 1.300781 3.5zm0 0" fill="#99ca6f"/><g fill="#690589"><path d="m346.808594 252.964844c-20.269532 0-39.921875-7.988282-54.546875-22.617188l-18.109375-18.109375c-18.128906-18.128906-26.0625-43.984375-21.21875-69.164062 4.839844-25.179688 21.796875-46.25 45.359375-56.363281l200.128906-85.886719c1.5-.644531 3.246094-.3125 4.40625.847656 1.15625 1.160156 1.492187 2.902344.847656 4.40625l-85.886719 200.128906c-10.113281 23.5625-31.183593 40.519531-56.363281 45.363281-4.867187.933594-9.761719 1.394532-14.617187 1.394532zm-57.945313-37.328125 9.050781 9.054687c16.496094 16.496094 39.09375 23.425782 62 19.023438 22.90625-4.40625 41.320313-19.226563 50.523438-40.664063l81.9375-190.925781-190.925781 81.941406c-21.4375 9.199219-36.257813 27.613282-40.660157 50.519532-4.40625 22.90625 2.527344 45.503906 19.019532 62zm0 0"/><path d="m282.664062 132.195312c-.671874 0-1.351562-.167968-1.976562-.527343-1.917969-1.09375-2.585938-3.539063-1.492188-5.457031 5.84375-10.230469 14.792969-18.160157 25.898438-22.921876 2.03125-.871093 4.378906.066407 5.253906 2.097657.871094 2.03125-.070312 4.382812-2.101562 5.253906-9.488282 4.074219-17.128906 10.828125-22.101563 19.539063-.738281 1.292968-2.089843 2.015624-3.480469 2.015624zm0 0"/></g></svg>