<svg height="504pt" viewBox="-185 0 504 504" width="504pt" xmlns="http://www.w3.org/2000/svg"><path d="m26.808594 109.183594h79.773437v-95.183594c0-5.523438-4.476562-10-10-10h-59.773437c-5.523438 0-10 4.476562-10 10zm0 0" fill="#7bac51"/><path d="m119.699219 109.183594h-106.011719c-5.351562 0-9.691406 4.339844-9.691406 9.6875v381.128906h125.390625v-381.128906c0-5.347656-4.335938-9.6875-9.6875-9.6875zm0 0" fill="#7bac51"/><path d="m119.699219 109.183594h-19.375c5.351562 0 9.691406 4.339844 9.691406 9.6875v381.128906h19.375v-381.128906c-.003906-5.347656-4.339844-9.6875-9.691406-9.6875zm0 0" fill="#5d8e33"/><path d="m13.6875 109.183594h19.375c-5.351562 0-9.6875 4.339844-9.6875 9.6875v381.128906h-19.378906v-381.128906c.003906-5.347656 4.339844-9.6875 9.691406-9.6875zm0 0" fill="#99ca6f"/><path d="m4 153.523438h125.386719v113.261718h-125.386719zm0 0" fill="#f4efed"/><path d="m110.015625 153.523438h19.375v113.261718h-19.375zm0 0" fill="#d6d1cf"/><path d="m4 153.523438h19.375v113.261718h-19.375zm0 0" fill="#fff"/><path d="m72.277344 298.492188c-17.035156-3.082032-33.347656 8.230468-36.429688 25.265624-3.085937 17.035157 8.226563 33.34375 25.261719 36.429688 17.035156 3.082031 33.347656-8.226562 36.429687-25.265625 3.085938-17.035156-8.226562-33.34375-25.261718-36.429687zm0 0" fill="#ff4397"/><path d="m94.957031 4v105.183594h11.621094v-95.183594c0-5.523438-4.476563-10-10-10zm0 0" fill="#5d8e33"/><path d="m26.808594 14v95.183594h11.625v-105.183594h-1.625c-5.523438 0-10 4.476562-10 10zm0 0" fill="#99ca6f"/><g fill="#690589"><path d="m129.390625 504h-125.390625c-2.207031 0-4-1.792969-4-4v-381.128906c0-7.546875 6.140625-13.6875 13.6875-13.6875h106.015625c7.542969 0 13.6875 6.140625 13.6875 13.6875v381.128906c0 2.207031-1.792969 4-4 4zm-121.390625-8h117.390625v-377.128906c0-3.136719-2.550781-5.6875-5.6875-5.6875h-106.015625c-3.136719 0-5.6875 2.550781-5.6875 5.6875zm0 0"/><path d="m20 211.183594c-2.207031 0-4-1.792969-4-4v-24c0-2.210938 1.792969-4 4-4s4 1.789062 4 4v24c0 2.207031-1.792969 4-4 4zm0 0"/><path d="m129.390625 270.785156h-125.390625c-2.207031 0-4-1.792968-4-4v-113.261718c0-2.207032 1.792969-4 4-4h125.390625c2.207031 0 4 1.792968 4 4v113.261718c0 2.210938-1.792969 4-4 4zm-121.390625-8h117.390625v-105.261718h-117.390625zm0 0"/><path d="m106.578125 113.183594h-79.773437c-2.207032 0-4-1.792969-4-4v-95.183594c0-7.71875 6.28125-14 14-14h59.773437c7.71875 0 14 6.28125 14 14v95.183594c0 2.207031-1.789063 4-4 4zm-75.769531-8h71.773437v-91.183594c0-3.308594-2.691406-6-6-6h-59.773437c-3.308594 0-6 2.691406-6 6zm0 0"/><path d="m66.695312 364.679688c-19.492187 0-35.347656-15.859376-35.347656-35.351563 0-19.488281 15.855469-35.34375 35.347656-35.34375 19.488282 0 35.347657 15.855469 35.347657 35.34375 0 19.492187-15.859375 35.351563-35.347657 35.351563zm0-62.695313c-15.082031 0-27.347656 12.269531-27.347656 27.34375 0 15.078125 12.265625 27.351563 27.347656 27.351563 15.078126 0 27.347657-12.269532 27.347657-27.351563 0-15.078125-12.269531-27.34375-27.347657-27.34375zm0 0"/><path d="m66.695312 348.414062c-10.523437 0-19.085937-8.558593-19.085937-19.085937 0-10.523437 8.5625-19.085937 19.085937-19.085937 10.523438 0 19.085938 8.5625 19.085938 19.085937 0 10.527344-8.5625 19.085937-19.085938 19.085937zm0-30.167968c-6.117187 0-11.085937 4.972656-11.085937 11.085937s4.96875 11.085938 11.085937 11.085938c6.113282 0 11.085938-4.972657 11.085938-11.085938s-4.972656-11.085937-11.085938-11.085937zm0 0"/></g><path d="m35.347656 153.523438h62.691406v113.261718h-62.691406zm0 0" fill="#f4efed"/><path d="m86.414062 153.523438h11.625v113.261718h-11.625zm0 0" fill="#d6d1cf"/><path d="m35.347656 153.523438h11.621094v113.261718h-11.621094zm0 0" fill="#fff"/><path d="m98.042969 270.785156h-62.695313c-2.210937 0-4-1.792968-4-4v-113.261718c0-2.207032 1.789063-4 4-4h62.695313c2.207031 0 4 1.792968 4 4v113.261718c0 2.210938-1.792969 4-4 4zm-58.695313-8h54.695313v-105.261718h-54.695313zm0 0" fill="#690589"/><path d="m66.695312 236.59375c-2.210937 0-4-1.792969-4-4v-46.234375c0-2.207031 1.789063-4 4-4 2.207032 0 4 1.792969 4 4v46.234375c0 2.207031-1.792968 4-4 4zm0 0" fill="#690589"/></svg>