<svg height="504pt" viewBox="-109 0 504 504" width="504pt" xmlns="http://www.w3.org/2000/svg"><path d="m262.132812 56.632812h-52.636718v-41.722656c0-6.023437 4.886718-10.910156 10.914062-10.910156h30.808594c6.027344 0 10.910156 4.886719 10.910156 10.910156v41.722656zm0 0" fill="#7bac51"/><path d="m199.574219 56.632812h72.480469c6.027343 0 10.910156 4.886719 10.910156 10.914063v105.789063h-94.300782v-105.789063c0-6.027344 4.886719-10.914063 10.910157-10.914063zm0 0" fill="#f4efed"/><path d="m199.574219 56.632812h72.480469c6.027343 0 10.910156 4.886719 10.910156 10.914063v8.847656h-94.300782v-8.847656c0-6.027344 4.886719-10.914063 10.910157-10.914063zm0 0" fill="#fcc24c"/><path d="m272.054688 56.632812h-20c6.027343 0 10.910156 4.886719 10.910156 10.914063v105.789063h20v-105.789063c.003906-6.027344-4.882813-10.914063-10.910156-10.914063zm0 0" fill="#d6d1cf"/><path d="m215.054688 76.394531h41.519531v60.21875h-41.519531zm0 0" fill="#f4efed"/><path d="m272.054688 56.632812h-20c6.027343 0 10.910156 4.886719 10.910156 10.914063v8.847656h20v-8.847656c.003906-6.027344-4.882813-10.914063-10.910156-10.914063zm0 0" fill="#dea42e"/><path d="m268.429688 173.335938h-65.226563v-26.722657c0-5.523437 4.476563-10 10-10h45.226563c5.523437 0 10 4.476563 10 10zm0 0" fill="#fcc24c"/><path d="m251.21875 4h-20c6.027344 0 10.914062 4.886719 10.914062 10.910156v41.722656h20v-41.722656c0-6.023437-4.886718-10.910156-10.914062-10.910156zm0 0" fill="#5d8e33"/><path d="m14.914062 261.984375h13.480469v-47.210937h-13.480469c-6.027343 0-10.910156 4.886718-10.910156 10.914062v25.382812c-.003906 6.027344 4.882813 10.914063 10.910156 10.914063zm0 0" fill="#7bac51"/><path d="m14.914062 334.484375h13.480469v-47.210937h-13.480469c-6.027343 0-10.910156 4.886718-10.910156 10.914062v25.382812c-.003906 6.027344 4.882813 10.914063 10.910156 10.914063zm0 0" fill="#7bac51"/><path d="m261.140625 500h-210.921875c-12.054688 0-21.828125-9.773438-21.828125-21.824219v-283.015625c0-12.054687 9.773437-21.824218 21.828125-21.824218h232.746094v304.839843c.003906 12.050781-9.769532 21.824219-21.824219 21.824219zm0 0" fill="#fcc24c"/><path d="m48.394531 478.175781v-283.015625c0-12.054687 9.769531-21.824218 21.824219-21.824218h-20c-12.054688 0-21.824219 9.769531-21.824219 21.824218v283.015625c0 12.050781 9.769531 21.824219 21.824219 21.824219h20c-12.054688 0-21.824219-9.773438-21.824219-21.824219zm0 0" fill="#fce06a"/><path d="m262.96875 173.335938v304.839843c0 12.050781-9.773438 21.824219-21.828125 21.824219h20c12.054687 0 21.828125-9.773438 21.828125-21.824219v-304.839843zm0 0" fill="#dea42e"/><path d="m282.96875 474.058594h-210.835938c-10.140624 0-18.359374-8.21875-18.359374-18.359375v-238.066407c0-10.140624 8.21875-18.359374 18.359374-18.359374h210.835938zm0 0" fill="#f4efed"/><path d="m262.96875 199.273438h20v274.789062h-20zm0 0" fill="#d6d1cf"/><g fill="#690589"><path d="m261.140625 504h-210.921875c-14.242188 0-25.828125-11.585938-25.828125-25.824219v-283.015625c0-14.238281 11.585937-25.824218 25.828125-25.824218h232.75c2.207031 0 4 1.789062 4 4v304.839843c0 14.238281-11.585938 25.824219-25.828125 25.824219zm-210.921875-326.664062c-9.832031 0-17.828125 7.996093-17.828125 17.824218v283.015625c0 9.828125 7.996094 17.824219 17.828125 17.824219h210.921875c9.832031 0 17.828125-7.996094 17.828125-17.824219v-300.839843zm0 0"/><path d="m282.96875 478.058594h-210.835938c-12.328124 0-22.359374-10.027344-22.359374-22.359375v-238.066407c0-12.332031 10.03125-22.359374 22.359374-22.359374h210.835938c2.207031 0 4 1.789062 4 4v274.785156c0 2.210937-1.789062 4-4 4zm-210.835938-274.785156c-7.917968 0-14.359374 6.441406-14.359374 14.359374v238.070313c0 7.917969 6.441406 14.359375 14.359374 14.359375h206.835938v-266.789062zm0 0"/><path d="m69.773438 258.601562c-2.207032 0-4-1.792968-4-4v-24c0-2.207031 1.792968-4 4-4 2.207031 0 4 1.792969 4 4v24c0 2.210938-1.792969 4-4 4zm0 0"/><path d="m28.390625 265.984375h-13.476563c-8.222656 0-14.914062-6.691406-14.914062-14.914063v-25.382812c0-8.222656 6.691406-14.914062 14.914062-14.914062h13.476563c2.210937 0 4 1.792968 4 4v47.210937c0 2.207031-1.789063 4-4 4zm-13.476563-47.210937c-3.8125 0-6.914062 3.101562-6.914062 6.914062v25.382812c0 3.8125 3.101562 6.914063 6.914062 6.914063h9.476563v-39.210937zm0 0"/><path d="m28.390625 338.484375h-13.476563c-8.222656 0-14.914062-6.691406-14.914062-14.914063v-25.382812c0-8.222656 6.691406-14.914062 14.914062-14.914062h13.476563c2.210937 0 4 1.789062 4 4v47.207031c0 2.214843-1.789063 4.003906-4 4.003906zm-13.476563-47.210937c-3.8125 0-6.914062 3.101562-6.914062 6.914062v25.382812c0 3.8125 3.101562 6.914063 6.914062 6.914063h9.476563v-39.207031h-9.476563zm0 0"/><path d="m282.96875 177.335938h-94.304688c-2.207031 0-4-1.792969-4-4v-105.789063c0-8.222656 6.691407-14.914063 14.910157-14.914063h72.480469c8.222656 0 14.914062 6.691407 14.914062 14.914063v105.789063c0 2.207031-1.789062 4-4 4zm-90.304688-8h86.304688v-101.789063c0-3.8125-3.101562-6.914063-6.914062-6.914063h-72.480469c-3.808594 0-6.910157 3.101563-6.910157 6.914063zm0 0"/><path d="m282.96875 80.394531h-94.304688c-2.207031 0-4-1.789062-4-4v-8.847656c0-8.222656 6.691407-14.914063 14.910157-14.914063h72.480469c8.222656 0 14.914062 6.691407 14.914062 14.914063v8.847656c0 2.210938-1.789062 4-4 4zm-90.304688-8h86.304688v-4.847656c0-3.8125-3.101562-6.914063-6.914062-6.914063h-72.480469c-3.808594 0-6.910157 3.101563-6.910157 6.914063zm0 0"/><path d="m256.574219 140.613281h-41.519531c-2.207032 0-4-1.792969-4-4v-60.21875c0-2.207031 1.792968-4 4-4h41.519531c2.210937 0 4 1.792969 4 4v60.21875c0 2.207031-1.789063 4-4 4zm-37.519531-8h33.519531v-52.21875h-33.519531zm0 0"/><path d="m268.429688 177.335938h-65.226563c-2.207031 0-4-1.792969-4-4v-26.722657c0-7.722656 6.28125-14 14-14h45.226563c7.71875 0 14 6.277344 14 14v26.722657c0 2.207031-1.792969 4-4 4zm-61.226563-8h57.226563v-22.722657c0-3.308593-2.695313-6-6-6h-45.226563c-3.308594 0-6 2.691407-6 6zm0 0"/><path d="m262.132812 60.632812h-52.636718c-2.207032 0-4-1.789062-4-4v-41.71875c0-8.222656 6.691406-14.914062 14.914062-14.914062h30.808594c8.222656 0 14.914062 6.691406 14.914062 14.914062v41.722657c0 2.207031-1.789062 3.996093-4 3.996093zm-48.636718-8h44.636718v-37.71875c0-3.8125-3.101562-6.914062-6.914062-6.914062h-30.808594c-3.808594 0-6.914062 3.101562-6.914062 6.914062zm0 0"/></g></svg>