<svg height="503pt" viewBox="0 -40 503.99086 503" width="503pt" xmlns="http://www.w3.org/2000/svg"><path d="m417.128906 9.738281-27.867187-5.242187 12.621093 21.457031c-147.648437 105.9375-339.0625 95.117187-341.324218 94.972656-.003906 0-.003906 0-.007813 0l-1.550781 23.949219c.761719.050781 7.972656.496094 20.238281.496094 20.90625 0 56.5-1.292969 99.886719-8.039063 62.933594-9.792969 154.476562-33.484375 234.96875-90.621093l12.980469 22.074218 8.964843-26.90625 8.960938-26.902344zm0 0" fill="#ff4397"/><path d="m234.265625 309.855469c-2.207031 0-4-1.789063-4-4 0-2.207031 1.792969-4 4-4 .488281 0 .882813-.394531.882813-.882813v-39.457031c0-2.207031 1.792968-4 4-4 2.210937 0 4 1.792969 4 4v39.457031c.003906 4.898438-3.984376 8.882813-8.882813 8.882813zm0 0" fill="#690589"/><path d="m64.316406 319.011719c-2.207031 0-4-1.792969-4-4 0-2.210938 1.792969-4 4-4l.136719-33.539063c0-2.207031 1.789063-4 4-4 2.207031 0 4 1.792969 4 4v33.402344c0 4.484375-3.652344 8.136719-8.136719 8.136719zm0 0" fill="#690589"/><path d="m119.589844 327.238281h-102.277344c-7.351562 0-13.3125-5.960937-13.3125-13.3125 0-7.355469 5.960938-13.316406 13.3125-13.316406h102.277344c7.355468 0 13.3125 5.964844 13.3125 13.316406 0 7.351563-5.957032 13.3125-13.3125 13.3125zm0 0" fill="#fcc24c"/><path d="m92.335938 420.527344h-47.769532c-8.148437 0-15.128906-5.832032-16.578125-13.851563l-14.347656-79.4375h109.621094l-14.347657 79.4375c-1.449218 8.019531-8.429687 13.851563-16.578124 13.851563zm0 0" fill="#fcc24c"/><path d="m107.574219 327.238281-14.34375 79.4375c-1.449219 8.019531-8.429688 13.851563-16.582031 13.851563h15.6875c8.148437 0 15.132812-5.832032 16.578124-13.851563l14.347657-79.4375zm0 0" fill="#dea42e"/><path d="m29.328125 327.238281 14.347656 79.4375c1.449219 8.019531 8.429688 13.851563 16.582031 13.851563h-15.6875c-8.148437 0-15.132812-5.832032-16.582031-13.851563l-14.34375-79.4375zm0 0" fill="#fce06a"/><path d="m119.589844 300.609375h-15.6875c7.355468 0 13.316406 5.960937 13.316406 13.3125 0 7.355469-5.960938 13.316406-13.316406 13.316406h15.6875c7.355468 0 13.3125-5.964843 13.3125-13.316406s-5.957032-13.3125-13.3125-13.3125zm0 0" fill="#dea42e"/><path d="m17.3125 327.238281h15.6875c-7.355469 0-13.3125-5.960937-13.3125-13.3125 0-7.355469 5.957031-13.316406 13.3125-13.316406h-15.6875c-7.351562 0-13.3125 5.964844-13.3125 13.316406 0 7.351563 5.960938 13.3125 13.3125 13.3125zm0 0" fill="#fce06a"/><g fill="#690589"><path d="m119.589844 331.238281h-102.277344c-9.542969 0-17.3125-7.769531-17.3125-17.316406s7.769531-17.3125 17.3125-17.3125h102.277344c9.546875 0 17.3125 7.765625 17.3125 17.3125s-7.765625 17.316406-17.3125 17.316406zm-102.277344-26.628906c-5.132812 0-9.3125 4.175781-9.3125 9.3125s4.179688 9.316406 9.3125 9.316406h102.277344c5.136718 0 9.3125-4.175781 9.3125-9.316406 0-5.136719-4.175782-9.3125-9.3125-9.3125zm0 0"/><path d="m92.335938 424.527344h-47.765626c-10.09375 0-18.722656-7.207032-20.515624-17.140625l-14.347657-79.4375c-.210937-1.164063.109375-2.363281.867188-3.273438.761719-.910156 1.886719-1.4375 3.070312-1.4375h109.617188c1.183593 0 2.308593.527344 3.066406 1.4375.761719.910157 1.078125 2.109375.871094 3.273438l-14.347657 79.4375c-1.792968 9.933593-10.421874 17.140625-20.515624 17.140625zm-73.90625-93.289063 13.496093 74.726563c1.105469 6.121094 6.421875 10.5625 12.644531 10.5625h47.765626c6.21875 0 11.539062-4.441406 12.640624-10.5625l13.496094-74.726563zm0 0"/><path d="m33.265625 363.753906c-1.898437 0-3.582031-1.355468-3.933594-3.289062l-3.640625-20.160156c-.390625-2.175782 1.050782-4.253907 3.226563-4.648438 2.171875-.386719 4.253906 1.050781 4.648437 3.226562l3.640625 20.160157c.390625 2.171875-1.054687 4.253906-3.226562 4.648437-.242188.042969-.480469.0625-.714844.0625zm0 0"/></g><path d="m290.289062 327.238281h-102.273437c-7.355469 0-13.316406-5.960937-13.316406-13.3125 0-7.355469 5.960937-13.316406 13.316406-13.316406h102.273437c7.355469 0 13.316407 5.964844 13.316407 13.316406 0 7.351563-5.964844 13.3125-13.316407 13.3125zm0 0" fill="#fcc24c"/><path d="m263.035156 420.527344h-47.765625c-8.152343 0-15.132812-5.832032-16.582031-13.851563l-14.34375-79.4375h109.617188l-14.347657 79.4375c-1.449219 8.019531-8.429687 13.851563-16.578125 13.851563zm0 0" fill="#fcc24c"/><path d="m278.273438 327.238281-14.34375 79.4375c-1.449219 8.019531-8.433594 13.851563-16.582032 13.851563h15.6875c8.148438 0 15.128906-5.832032 16.578125-13.851563l14.347657-79.4375zm0 0" fill="#dea42e"/><path d="m200.027344 327.238281 14.347656 79.4375c1.445312 8.019531 8.429688 13.851563 16.578125 13.851563h-15.683594c-8.152343 0-15.132812-5.832032-16.582031-13.851563l-14.34375-79.4375zm0 0" fill="#fce06a"/><path d="m290.289062 300.609375h-15.6875c7.355469 0 13.3125 5.960937 13.3125 13.3125 0 7.355469-5.960937 13.316406-13.3125 13.316406h15.6875c7.351563 0 13.3125-5.964843 13.3125-13.316406.003907-7.351563-5.960937-13.3125-13.3125-13.3125zm0 0" fill="#dea42e"/><path d="m188.015625 327.238281h15.683594c-7.351563 0-13.3125-5.960937-13.3125-13.3125 0-7.355469 5.960937-13.316406 13.3125-13.316406h-15.683594c-7.355469 0-13.316406 5.964844-13.316406 13.316406 0 7.351563 5.960937 13.3125 13.316406 13.3125zm0 0" fill="#fce06a"/><path d="m290.289062 331.238281h-102.273437c-9.546875 0-17.316406-7.769531-17.316406-17.316406s7.769531-17.3125 17.316406-17.3125h102.273437c9.546876 0 17.316407 7.765625 17.316407 17.3125s-7.769531 17.316406-17.316407 17.316406zm-102.273437-26.628906c-5.136719 0-9.316406 4.175781-9.316406 9.3125s4.179687 9.316406 9.316406 9.316406h102.273437c5.136719 0 9.316407-4.175781 9.316407-9.316406 0-5.136719-4.179688-9.3125-9.316407-9.3125zm0 0" fill="#690589"/><path d="m263.035156 424.527344h-47.765625c-10.09375 0-18.722656-7.207032-20.515625-17.140625l-14.347656-79.4375c-.210938-1.164063.109375-2.363281.867188-3.273438.761718-.910156 1.882812-1.4375 3.070312-1.4375h109.621094c1.183594 0 2.308594.527344 3.070312 1.4375.757813.910157 1.074219 2.109375.863282 3.273438l-14.347657 79.4375c-1.792969 9.933593-10.421875 17.140625-20.515625 17.140625zm-73.90625-93.289063 13.496094 74.726563c1.105469 6.121094 6.421875 10.5625 12.640625 10.5625h47.769531c6.21875 0 11.535156-4.441406 12.640625-10.5625l13.496094-74.726563zm0 0" fill="#690589"/><path d="m403.808594 312.144531c-2.207032 0-4-1.792969-4-4s1.792968-4 4-4c1.125 0 2.042968-.914062 2.042968-2.042969v-48.804687c0-2.207031 1.789063-4 4-4 2.207032 0 4 1.792969 4 4v48.804687c0 5.539063-4.503906 10.042969-10.042968 10.042969zm0 0" fill="#690589"/><path d="m460.988281 327.238281h-102.277343c-7.351563 0-13.3125-5.960937-13.3125-13.3125 0-7.355469 5.960937-13.316406 13.3125-13.316406h102.277343c7.355469 0 13.3125 5.964844 13.3125 13.316406 0 7.351563-5.957031 13.3125-13.3125 13.3125zm0 0" fill="#fcc24c"/><path d="m433.734375 420.527344h-47.765625c-8.152344 0-15.132812-5.832032-16.582031-13.851563l-14.34375-79.4375h109.617187l-14.347656 79.4375c-1.449219 8.019531-8.429688 13.851563-16.578125 13.851563zm0 0" fill="#fcc24c"/><path d="m448.972656 327.238281-14.34375 79.4375c-1.449218 8.019531-8.429687 13.851563-16.582031 13.851563h15.6875c8.148437 0 15.132813-5.832032 16.578125-13.851563l14.347656-79.4375zm0 0" fill="#dea42e"/><path d="m370.726562 327.238281 14.34375 79.4375c1.449219 8.019531 8.433594 13.851563 16.582032 13.851563h-15.6875c-8.148438 0-15.128906-5.832032-16.578125-13.851563l-14.347657-79.4375zm0 0" fill="#fce06a"/><path d="m460.988281 300.609375h-15.6875c7.355469 0 13.316407 5.960937 13.316407 13.3125 0 7.355469-5.964844 13.316406-13.316407 13.316406h15.6875c7.355469 0 13.3125-5.964843 13.3125-13.316406s-5.957031-13.3125-13.3125-13.3125zm0 0" fill="#dea42e"/><path d="m358.710938 327.238281h15.6875c-7.355469 0-13.3125-5.960937-13.3125-13.3125 0-7.355469 5.960937-13.316406 13.3125-13.316406h-15.6875c-7.351563 0-13.3125 5.964844-13.3125 13.316406 0 7.351563 5.960937 13.3125 13.3125 13.3125zm0 0" fill="#fce06a"/><path d="m460.988281 331.238281h-102.277343c-9.546876 0-17.3125-7.769531-17.3125-17.316406s7.765624-17.3125 17.3125-17.3125h102.277343c9.546875 0 17.3125 7.765625 17.3125 17.3125s-7.765625 17.316406-17.3125 17.316406zm-102.277343-26.628906c-5.136719 0-9.3125 4.175781-9.3125 9.3125s4.175781 9.316406 9.3125 9.316406h102.277343c5.136719 0 9.3125-4.175781 9.3125-9.316406 0-5.136719-4.175781-9.3125-9.3125-9.3125zm0 0" fill="#690589"/><path d="m433.730469 424.527344h-47.765625c-10.09375 0-18.71875-7.207032-20.515625-17.140625l-14.34375-79.4375c-.210938-1.164063.105469-2.363281.863281-3.273438.761719-.910156 1.886719-1.4375 3.070312-1.4375h109.617188c1.1875 0 2.308594.527344 3.070312 1.4375.761719.910157 1.078126 2.109375.867188 3.273438l-14.347656 79.4375c-1.789063 9.933593-10.417969 17.140625-20.515625 17.140625zm-73.902344-93.289063 13.492187 74.726563c1.109376 6.121094 6.425782 10.5625 12.644532 10.5625h47.765625c6.222656 0 11.542969-4.441406 12.644531-10.5625l13.496094-74.726563zm0 0" fill="#690589"/><path d="m79.238281 149.371094c-12.425781 0-19.707031-.449219-20.5-.503906-2.203125-.144532-3.871093-2.042969-3.726562-4.25l1.550781-23.949219c.140625-2.1875 2.03125-3.878907 4.246094-3.734375 1.890625.117187 190 10.5 335.765625-92.113282l-10.757813-18.296874c-.792968-1.351563-.726562-3.042969.171875-4.328126.902344-1.28125 2.46875-1.925781 4.015625-1.628906l55.734375 10.480469c1.136719.210937 2.125.90625 2.710938 1.902344.585937.996093.710937 2.195312.347656 3.292969l-17.925781 53.804687c-.496094 1.488281-1.8125 2.550781-3.375 2.714844-1.566406.171875-3.074219-.597657-3.867188-1.949219l-10.789062-18.339844c-80.375 55.871094-170.902344 79.132813-233.101563 88.808594-42.984375 6.6875-78.378906 8.089844-100.5 8.089844zm-15.984375-8.285156c3.371094.132812 8.78125.285156 15.984375.285156 21.839844 0 56.789063-1.382813 99.273438-7.996094 62.265625-9.6875 153.28125-33.152344 233.265625-89.925781.914062-.648438 2.058594-.882813 3.152344-.652344 1.097656.234375 2.042968.917969 2.609374 1.882813l8.523438 14.488281 13.695312-41.109375-23.363281-4.390625-19.21875-3.617188 8.15625 13.875c1.046875 1.78125.566407 4.070313-1.117187 5.277344-136.640625 98.039063-311.453125 96.800781-339.921875 95.878906zm0 0" fill="#690589"/><path d="m277.058594 265.429688c15.574218-2.402344 28.574218-8.332032 34.972656-15.148438-8.15625-4.574219-22.335938-6.3125-37.910156-3.910156-1.679688.257812-3.320313.566406-4.9375.902344 3.777344-2.898438 7.542968-6.183594 11.191406-9.835938 13.96875-13.96875 22.71875-29.589844 24.136719-41.226562-11.632813 1.421874-27.257813 10.167968-41.226563 24.136718-4.804687 4.804688-8.972656 9.804688-12.457031 14.769532 2.382813-9.652344 3.734375-20.714844 3.734375-32.484376 0-25.1875-6.199219-47.164062-15.410156-58.933593-9.210938 11.769531-15.414063 33.746093-15.414063 58.933593 0 11.769532 1.355469 22.832032 3.734375 32.484376-3.484375-4.964844-7.652344-9.964844-12.457031-14.769532-13.96875-13.96875-29.589844-22.714844-41.226563-24.136718 1.421876 11.636718 10.167969 27.257812 24.136719 41.226562 3.648438 3.652344 7.414063 6.9375 11.191407 9.835938-1.613282-.335938-3.257813-.644532-4.9375-.902344-15.574219-2.402344-29.753907-.664063-37.910157 3.910156 6.398438 6.816406 19.394531 12.746094 34.96875 15.148438 7.117188 1.097656 13.9375 1.320312 20.027344.8125-1.53125.917968-3.066406 1.933593-4.589844 3.046874-8.058593 5.90625-13.636719 13.042969-15.242187 18.75 5.925781.1875 14.410156-2.980468 22.46875-8.886718 7.4375-5.449219 12.75-11.945313 14.792968-17.398438.117188-.066406.25-.125.363282-.1875.03125.003906.058594.007813.085937.011719.027344-.003906.054688-.007813.082031-.011719.121094.0625.25.121094.367188.1875 2.039062 5.453125 7.355469 11.949219 14.792969 17.398438 8.058593 5.90625 16.542969 9.074218 22.46875 8.886718-1.605469-5.703124-7.183594-12.84375-15.242188-18.75-1.523437-1.113281-3.058593-2.128906-4.589843-3.046874 6.101562.507812 12.917968.28125 20.035156-.8125zm0 0" fill="#7bac51"/><path d="m276.363281 292.046875c-6.988281 0-16.023437-3.582031-24.332031-9.667969-5.375-3.9375-9.828125-8.457031-12.878906-12.980468-3.050782 4.527343-7.507813 9.042968-12.878906 12.980468-8.558594 6.273438-17.917969 9.882813-24.960938 9.660156-1.226562-.039062-2.371094-.640624-3.097656-1.632812-.726563-.992188-.957032-2.265625-.625-3.449219 1.503906-5.339843 5.671875-11.292969 11.527344-16.640625-2.792969-.179687-5.621094-.492187-8.484376-.933594-16.042968-2.472656-29.980468-8.589843-37.277343-16.363281-.839844-.898437-1.222657-2.132812-1.039063-3.347656.1875-1.214844.925782-2.277344 2-2.878906 7.640625-4.285157 19.214844-6.148438 32.015625-5.308594-.414062-.402344-.824219-.804687-1.234375-1.214844-14.234375-14.234375-23.683594-30.523437-25.277344-43.570312-.148437-1.21875.273438-2.441407 1.140626-3.3125.867187-.871094 2.089843-1.289063 3.3125-1.140625 13.046874 1.589844 29.335937 11.039062 43.570312 25.277344 1.007812 1.003906 1.992188 2.027343 2.957031 3.058593-.699219-5.835937-1.0625-11.875-1.0625-17.945312 0-25.433594 6.082031-48.386719 16.261719-61.398438 1.519531-1.941406 4.785156-1.941406 6.300781 0 10.179688 13.011719 16.257813 35.964844 16.257813 61.398438 0 6.066406-.359375 12.109375-1.058594 17.945312.960938-1.035156 1.949219-2.054687 2.957031-3.058593 14.234375-14.238282 30.523438-23.683594 43.570313-25.277344 1.226562-.148438 2.441406.269531 3.3125 1.140625.871094.871093 1.289062 2.09375 1.140625 3.3125-1.59375 13.046875-11.042969 29.332031-25.277344 43.570312-.410156.40625-.820313.8125-1.234375 1.214844 12.804688-.839844 24.375 1.023437 32.015625 5.308594 1.074219.601562 1.808594 1.664062 1.996094 2.878906.191406 1.214844-.195313 2.449219-1.035157 3.347656-7.296874 7.773438-21.234374 13.890625-37.28125 16.363281-2.859374.441407-5.691406.75-8.480468.933594 5.855468 5.347656 10.023437 11.300782 11.527344 16.636719.335937 1.183594.105468 2.457031-.621094 3.453125-.726563.992188-1.875 1.59375-3.101563 1.632812-.203125.003907-.414062.007813-.625.007813zm-55.089843-29.804687c1.722656 0 3.269531 1.113281 3.804687 2.777343.570313 1.769531-.160156 3.699219-1.757813 4.65625-1.449218.867188-2.886718 1.824219-4.273437 2.839844-4.261719 3.121094-7.9375 6.777344-10.472656 10.292969 4.113281-1.355469 8.710937-3.761719 12.96875-6.882813 6.542969-4.796875 11.558593-10.617187 13.410156-15.578125.34375-.917968 1.011719-1.675781 1.875-2.132812.03125-.015625.214844-.109375.242187-.125.46875-.230469 1.074219-.421875 1.652344-.492188l-.210937.027344c.082031-.011719.210937-.03125.296875-.039062.820312-.085938 1.652344.082031 2.375.484374.03125.015626.265625.132813.296875.148438.859375.460938 1.523437 1.21875 1.867187 2.128906 1.851563 4.957032 6.867188 10.78125 13.410156 15.578125 4.261719 3.121094 8.855469 5.527344 12.964844 6.882813-2.53125-3.515625-6.207031-7.171875-10.46875-10.292969-1.386718-1.015625-2.828125-1.972656-4.277344-2.839844-1.597656-.957031-2.328124-2.882812-1.757812-4.65625.570312-1.773437 2.277344-2.917969 4.140625-2.761719 5.957031.492188 12.554687.222657 19.089844-.785156 11.140625-1.714844 21.277343-5.398437 28.019531-10.027344-7.820312-2.378906-18.59375-2.839843-29.742188-1.121093-1.496093.230469-3.042968.515625-4.726562.867187-1.820312.378906-3.675781-.550781-4.453125-2.246094-.78125-1.695312-.28125-3.707031 1.199219-4.84375 3.738281-2.867187 7.371094-6.0625 10.800781-9.492187 10.746094-10.746094 18.671875-22.949219 21.761719-33.191406-10.242188 3.085937-22.449219 11.015625-33.199219 21.761719-4.5 4.5-8.542969 9.289062-12.011719 14.242187-1.105468 1.574219-3.175781 2.140625-4.929687 1.34375-1.753907-.796875-2.691407-2.730469-2.226563-4.601563 2.367188-9.597656 3.617188-20.5 3.617188-31.527343 0-20.484375-4.289063-39.652344-11.410156-51.796875-7.117188 12.144531-11.414063 31.3125-11.414063 51.796875 0 11.03125 1.25 21.933593 3.621094 31.527343.457031 1.871094-.476563 3.800782-2.230469 4.601563-1.75.796875-3.824219.230469-4.929688-1.34375-3.46875-4.953125-7.511718-9.742187-12.011718-14.242187-10.746094-10.746094-22.953125-18.675782-33.195313-21.761719 3.085938 10.246093 11.015625 22.449219 21.761719 33.195312 3.425781 3.425781 7.058594 6.621094 10.800781 9.492188 1.480469 1.136719 1.976563 3.148437 1.195313 4.84375-.777344 1.695312-2.625 2.625-4.453125 2.246093-1.679688-.351562-3.226563-.632812-4.726563-.867187-11.140625-1.71875-21.917968-1.257813-29.742187 1.121094 6.742187 4.628906 16.882812 8.3125 28.023437 10.03125 6.527344 1.003906 13.125 1.277343 19.085938.78125.117187-.015625.226562-.019531.339844-.019531zm55.785156 3.1875h.019531zm0 0" fill="#690589"/><path d="m456.742188 258.132812c19.265624-2.96875 35.34375-10.300781 43.257812-18.734374-10.089844-5.65625-27.628906-7.804688-46.890625-4.835938-2.078125.320312-4.113281.703125-6.109375 1.117188 4.671875-3.585938 9.328125-7.648438 13.84375-12.164063 17.277344-17.277344 28.097656-36.605469 29.855469-50.996094-14.390625 1.757813-33.71875 12.578125-50.996094 29.855469-5.941406 5.945312-11.101563 12.128906-15.410156 18.273438 2.945312-11.941407 4.617187-25.625 4.617187-40.183594 0-31.15625-7.667968-58.34375-19.058594-72.902344-11.394531 14.558594-19.066406 41.742188-19.066406 72.902344 0 14.558594 1.675782 28.242187 4.621094 40.183594-4.308594-6.144532-9.46875-12.328126-15.410156-18.273438-17.277344-17.277344-36.605469-28.097656-50.992188-29.855469 1.753906 14.390625 12.574219 33.71875 29.851563 50.996094 4.515625 4.515625 9.171875 8.578125 13.84375 12.164063-1.996094-.417969-4.027344-.796876-6.105469-1.117188-19.265625-2.96875-36.804688-.820312-46.894531 4.835938 7.917969 8.433593 23.992187 15.765624 43.257812 18.734374 8.804688 1.359376 17.238281 1.636719 24.773438 1.007813-1.890625 1.132813-3.792969 2.390625-5.675781 3.773437-9.96875 7.304688-16.867188 16.132813-18.855469 23.191407 7.328125.230469 17.824219-3.6875 27.792969-10.996094 9.199218-6.742187 15.773437-14.773437 18.296874-21.523437.148438-.078126.308594-.152344.453126-.234376.035156.003907.070312.011719.105468.015626.035156-.003907.070313-.011719.105469-.015626.144531.082032.304687.15625.453125.234376 2.523438 6.75 9.097656 14.78125 18.296875 21.523437 9.972656 7.308594 20.46875 11.226563 27.792969 10.996094-1.984375-7.058594-8.882813-15.886719-18.855469-23.191407-1.878906-1.378906-3.78125-2.636718-5.675781-3.773437 7.539062.628906 15.972656.351563 24.777344-1.007813zm0 0" fill="#7bac51"/><path d="m455.875 290.113281c-8.445312 0-19.414062-4.363281-29.53125-11.777343-7.042969-5.160157-12.785156-11.125-16.492188-17.023438-3.710937 5.898438-9.453124 11.863281-16.492187 17.023438-10.421875 7.636718-21.792969 12.019531-30.289063 11.765624-1.226562-.039062-2.371093-.644531-3.097656-1.636718-.726562-.992188-.957031-2.261719-.625-3.449219 1.957032-6.949219 7.691406-14.789063 15.703125-21.65625-4.160156-.183594-8.40625-.609375-12.703125-1.273437-19.648437-3.03125-36.683594-10.488282-45.566406-19.953126-.839844-.894531-1.222656-2.128906-1.039062-3.347656.191406-1.214844.925781-2.277344 2-2.878906 9.820312-5.503906 25.027343-7.726562 41.714843-6.242188-1.160156-1.085937-2.304687-2.195312-3.433593-3.324218-17.464844-17.464844-29.050782-37.402344-30.996094-53.335938-.148438-1.222656.273437-2.445312 1.144531-3.3125.867187-.871094 2.082031-1.289062 3.308594-1.144531 15.933593 1.945313 35.875 13.535156 53.339843 30.996094 1.949219 1.953125 3.832032 3.945312 5.648438 5.972656-1.113281-8.09375-1.6875-16.550781-1.6875-25.050781 0-31.257813 7.445312-59.433594 19.914062-75.367188 1.515626-1.9375 4.785157-1.9375 6.296876 0 12.46875 15.933594 19.914062 44.109375 19.914062 75.367188 0 8.5-.570312 16.957031-1.6875 25.050781 1.816406-2.03125 3.703125-4.023437 5.652344-5.972656 17.460937-17.460938 37.402344-29.046875 53.335937-30.996094 1.226563-.148437 2.445313.273437 3.3125 1.144531.871094.871094 1.292969 2.089844 1.140625 3.3125-1.941406 15.929688-13.53125 35.871094-30.996094 53.335938-1.125 1.125-2.269531 2.238281-3.429687 3.324218 16.675781-1.484374 31.890625.738282 41.710937 6.242188 1.074219.601562 1.8125 1.664062 2 2.878906.1875 1.21875-.199218 2.453125-1.039062 3.347656-8.882812 9.464844-25.917969 16.921876-45.5625 19.953126-4.300781.664062-8.546875 1.085937-12.707031 1.273437 8.015625 6.871094 13.746093 14.707031 15.703125 21.660156.335937 1.183594.105468 2.453125-.625 3.445313-.726563.992187-1.871094 1.597656-3.097656 1.636718-.238282.007813-.492188.011719-.742188.011719zm-45.921875-40.761719c.675781 0 1.34375.171876 1.9375.5l.417969.214844c.851562.460938 1.507812 1.210938 1.847656 2.121094 2.355469 6.296875 8.679688 13.660156 16.914062 19.695312 6.34375 4.648438 13.097657 7.976563 18.882813 9.421876-3.125-5.082032-8.328125-10.515626-14.671875-15.164063-1.738281-1.277344-3.542969-2.472656-5.367188-3.5625-1.597656-.953125-2.324218-2.882813-1.757812-4.65625.570312-1.773437 2.304688-2.902344 4.140625-2.761719 7.445313.617188 15.683594.28125 23.835937-.976562 14.765626-2.277344 28.152344-7.339844 36.582032-13.660156-9.941406-3.488282-24.226563-4.28125-39-2.007813-1.863282.289063-3.792969.644531-5.898438 1.082031-1.820312.382813-3.671875-.550781-4.453125-2.246094-.777343-1.695312-.28125-3.703124 1.199219-4.839843 4.660156-3.578125 9.183594-7.554688 13.457031-11.824219 13.964844-13.96875 24.125-29.949219 27.617188-43.101562-13.152344 3.492187-29.132813 13.652343-43.101563 27.617187-5.597656 5.597656-10.632812 11.566406-14.96875 17.746094-1.101562 1.574219-3.179687 2.140625-4.929687 1.339843-1.75-.792968-2.6875-2.726562-2.226563-4.597656 2.949219-11.945312 4.503906-25.507812 4.503906-39.222656 0-26.265625-5.6875-50.816406-15.0625-65.90625-9.375 15.085938-15.0625 39.640625-15.0625 65.90625 0 13.71875 1.558594 27.28125 4.503907 39.222656.460937 1.871094-.476563 3.804688-2.226563 4.601563-1.757812.792969-3.828125.230469-4.933594-1.34375-4.324218-6.167969-9.355468-12.136719-14.960937-17.742188-13.96875-13.96875-29.949219-24.125-43.105469-27.621093 3.492188 13.15625 13.652344 29.136718 27.621094 43.105468 4.261719 4.257813 8.785156 8.234375 13.453125 11.820313 1.480469 1.136719 1.976563 3.148437 1.199219 4.84375-.78125 1.695312-2.621094 2.625-4.457032 2.246093-2.09375-.4375-4.023437-.792968-5.894531-1.082031-14.777343-2.277343-29.058593-1.480469-39 2.003907 8.429688 6.320312 21.816407 11.382812 36.582031 13.660156 8.148438 1.257812 16.390626 1.59375 23.835938.976562 1.871094-.15625 3.570312.992188 4.140625 2.761719.566406 1.773437-.160156 3.703125-1.757813 4.65625-1.8125 1.082031-3.617187 2.28125-5.363281 3.5625-6.347656 4.648437-11.550781 10.082031-14.675781 15.164063 5.789062-1.445313 12.539062-4.773438 18.882812-9.421876 8.238282-6.035156 14.5625-13.398437 16.917969-19.695312.335938-.90625.992188-1.660156 1.847657-2.121094l.308593-.160156c.617188-.34375 1.371094-.550781 2.089844-.550781.050781-.003907.101563-.003907.15625-.003907zm46.789063 8.785157h.019531zm0 0" fill="#690589"/><path d="m68.835938 282.121094-8.527344 2.089844c-7.777344 1.90625-15.851563 2.261718-23.765625 1.054687l-.179688-.027344c-13.183593-2.035156-24.1875-7.054687-29.605469-12.824219 6.902344-3.871093 18.90625-5.339843 32.089844-3.308593 1.421875.21875 2.8125.480469 4.179688.765625-3.199219-2.453125-6.382813-5.238282-9.472656-8.328125-11.824219-11.824219-19.230469-25.046875-20.429688-34.894531 9.847656 1.199218 23.074219 8.605468 34.898438 20.429687 4.066406 4.066406 7.597656 8.296875 10.542968 12.503906-2.015625-8.167969-3.160156-17.539062-3.160156-27.496093 0-21.324219 5.25-39.929688 13.046875-49.894532 7.792969 9.964844 13.042969 28.570313 13.042969 49.894532 0 9.960937-1.144532 19.328124-3.160156 27.496093 2.949218-4.203125 6.476562-8.4375 10.546874-12.503906 11.824219-11.824219 25.050782-19.230469 34.898438-20.429687-1.203125 9.847656-8.605469 23.070312-20.429688 34.894531-3.089843 3.089843-6.28125 5.875-9.476562 8.328125 1.367188-.285156 2.757812-.546875 4.179688-.765625 13.183593-2.03125 25.1875-.5625 32.089843 3.308593-5.417969 5.769532-16.417969 10.789063-29.601562 12.824219-.0625.007813-.121094.015625-.179688.027344-8.371093 1.269531-16.917969.621094-25.117187-1.488281zm0 0" fill="#7bac51"/><path d="m45.804688 289.972656c-3.289063 0-6.582032-.25-9.867188-.753906-13.898438-2.144531-25.828125-7.390625-32.09375-14.066406-.84375-.898438-1.226562-2.132813-1.039062-3.347656.183593-1.214844.921874-2.277344 1.996093-2.878907 6.242188-3.5 15.511719-5.128906 25.816407-4.660156-12.082032-12.121094-20.101563-25.996094-21.464844-37.136719-.144532-1.21875.273437-2.441406 1.144531-3.308594.867187-.871093 2.082031-1.292968 3.3125-1.144531 11.175781 1.363281 25.097656 9.429688 37.242187 21.574219.421876.421875.839844.847656 1.253907 1.277344-.460938-4.398438-.699219-8.910156-.699219-13.441406 0-21.664063 5.195312-41.238282 13.894531-52.355469 1.519531-1.941407 4.785157-1.941407 6.300781 0 8.703126 11.117187 13.894532 30.691406 13.894532 52.355469 0 4.53125-.234375 9.042968-.695313 13.441406.414063-.429688.832031-.855469 1.253907-1.277344 12.144531-12.144531 26.066406-20.210938 37.242187-21.574219 1.21875-.148437 2.441406.273438 3.3125 1.144531.867187.867188 1.289063 2.089844 1.140625 3.308594-1.359375 11.144532-9.378906 25.015625-21.464844 37.136719 10.300782-.460937 19.578125 1.160156 25.816406 4.660156 1.074219.601563 1.808594 1.664063 2 2.878907.1875 1.214843-.195312 2.449218-1.039062 3.347656-6.265625 6.675781-18.195312 11.921875-31.910156 14.039062-8.800782 1.335938-17.789063.808594-26.90625-1.542968l-5.4375-1.402344-7.550782 1.851562c-5.097656 1.25-10.265624 1.875-15.453124 1.875zm-31.191407-16.347656c5.597657 3.523438 13.605469 6.308594 22.359375 7.660156 7.609375 1.164063 15.082032.832032 22.382813-.957031l8.527343-2.085937c.640626-.160157 1.308594-.15625 1.949219.011718l6.414063 1.652344c8.066406 2.078125 15.976562 2.550781 23.515625 1.40625.007812 0 .199219-.03125.207031-.035156 8.730469-1.34375 16.726562-4.128906 22.328125-7.652344-6.402344-1.671875-14.875-1.917969-23.628906-.570312-1.351563.210937-2.671875.460937-3.972657.730468-1.824218.375-3.671874-.550781-4.453124-2.25-.777344-1.695312-.277344-3.703125 1.203124-4.839844 3.144532-2.414062 6.199219-5.097656 9.082032-7.980468 8.644531-8.640625 15.113281-18.390625 17.914062-26.722656-8.332031 2.796874-18.082031 9.269531-26.726562 17.914062-3.78125 3.78125-7.179688 7.808594-10.097656 11.972656-1.105469 1.574219-3.179688 2.140625-4.929688 1.34375-1.753906-.796875-2.691406-2.730468-2.230469-4.601562 1.996094-8.078125 3.046875-17.253906 3.046875-26.539063 0-16.730469-3.390625-32.394531-9.046875-42.613281-5.65625 10.21875-9.046875 25.882812-9.046875 42.613281 0 9.285157 1.054688 18.460938 3.046875 26.539063.460938 1.871094-.476562 3.804687-2.226562 4.601562-1.75.792969-3.828125.230469-4.929688-1.34375-2.917969-4.164062-6.320312-8.191406-10.101562-11.972656-8.640625-8.644531-18.390625-15.113281-26.722657-17.914062 2.800782 8.332031 9.269532 18.082031 17.910157 26.722656 2.882812 2.878906 5.9375 5.5625 9.085937 7.980468 1.480469 1.136719 1.976563 3.144532 1.199219 4.839844-.777344 1.695313-2.625 2.625-4.453125 2.25-1.296875-.273437-2.621094-.519531-3.972656-.730468-8.761719-1.347657-17.234375-1.101563-23.632813.570312zm0 0" fill="#690589"/></svg>