<svg height="504pt" viewBox="-129 0 504 504" width="504pt" xmlns="http://www.w3.org/2000/svg"><path d="m184.757812 285.800781c25.410157-3.917969 46.617188-13.589843 57.054688-24.710937-13.304688-7.460938-36.4375-10.296875-61.851562-6.378906-2.738282.421874-5.421876.921874-8.054688 1.476562 6.160156-4.734375 12.304688-10.089844 18.261719-16.050781 22.785156-22.785157 37.058593-48.28125 39.375-67.261719-18.980469 2.316406-44.472657 16.589844-67.261719 39.378906-7.839844 7.839844-14.640625 16-20.324219 24.101563 3.882813-15.746094 6.09375-33.800781 6.09375-53 0-41.097657-10.117187-76.957031-25.144531-96.160157-15.027344 19.203126-25.144531 55.0625-25.144531 96.160157 0 19.199219 2.210937 37.253906 6.09375 53-5.683594-8.101563-12.488281-16.261719-20.328125-24.101563-22.785156-22.789062-48.277344-37.0625-67.257813-39.378906 2.316407 18.980469 16.585938 44.476562 39.375 67.261719 5.957031 5.960937 12.101563 11.316406 18.261719 16.050781-2.632812-.550781-5.316406-1.054688-8.054688-1.476562-25.410156-3.917969-48.546874-1.082032-61.851562 6.378906 10.441406 11.121094 31.644531 20.792968 57.054688 24.710937 11.617187 1.792969 22.738281 2.15625 32.679687 1.328125-2.5 1.496094-5.007813 3.152344-7.488281 4.972656-13.148438 9.636719-22.25 21.28125-24.871094 30.589844 9.667969.304688 23.511719-4.867187 36.660156-14.5 12.136719-8.894531 20.808594-19.492187 24.136719-28.390625.195313-.105469.40625-.203125.597656-.308593.042969.003906.09375.015624.136719.023437.042969-.007813.09375-.019531.136719-.023437.191406.105468.402343.203124.597656.308593 3.328125 8.898438 12 19.496094 24.136719 28.390625 13.148437 9.632813 26.992187 14.804688 36.660156 14.5-2.621094-9.308594-11.722656-20.953125-24.871094-30.589844-2.480468-1.820312-4.988281-3.476562-7.484375-4.972656 9.941407.828125 21.0625.464844 32.675781-1.328125zm0 0" fill="#7bac51"/><path d="m114.941406 355.765625c-2.210937 0-4-1.792969-4-4s1.789063-4 4-4c2.1875 0 3.964844-1.78125 3.964844-3.96875v-64.371094c0-2.210937 1.792969-4 4-4 2.210938 0 4 1.789063 4 4v64.371094c0 6.601563-5.367188 11.96875-11.964844 11.96875zm0 0" fill="#690589"/><path d="m62.207031 326.707031c-.324219 0-.640625-.003906-.957031-.015625-1.230469-.039062-2.375-.640625-3.101562-1.632812-.722657-.992188-.957032-2.265625-.621094-3.449219 2.71875-9.660156 11.160156-20.695313 22.890625-30.082031-6.507813-.132813-13.1875-.726563-19.96875-1.769532-25.644531-3.957031-47.835938-13.648437-59.363281-25.933593-.84375-.894531-1.226563-2.128907-1.039063-3.34375.183594-1.214844.921875-2.277344 1.996094-2.878907 13.480469-7.558593 34.855469-10.335937 58.085937-7.695312-2.488281-2.242188-4.929687-4.558594-7.3125-6.941406-22.839844-22.839844-37.984375-48.859375-40.519531-69.605469-.148437-1.21875.273437-2.445313 1.144531-3.3125.867188-.871094 2.082032-1.292969 3.3125-1.140625 20.746094 2.53125 46.765625 17.679688 69.605469 40.519531 3.589844 3.589844 7.011719 7.289063 10.25 11.078125-1.875-11.898437-2.84375-24.484375-2.84375-37.148437 0-40.953125 9.714844-77.824219 25.992187-98.625 1.519532-1.9375 4.785157-1.9375 6.300782 0 16.277344 20.800781 25.992187 57.671875 25.992187 98.625 0 12.664062-.96875 25.25-2.84375 37.144531 3.238281-3.789062 6.660157-7.488281 10.25-11.074219 22.839844-22.839843 48.859375-37.988281 69.605469-40.523437 1.222656-.152344 2.445312.273437 3.3125 1.144531.871094.867187 1.292969 2.089844 1.140625 3.3125-2.53125 20.746094-17.679687 46.765625-40.519531 69.605469-2.378906 2.378906-4.820313 4.695312-7.308594 6.941406 23.230469-2.644531 44.605469.136719 58.085938 7.691406 1.070312.601563 1.808593 1.664063 1.996093 2.878906.1875 1.21875-.199219 2.453126-1.039062 3.347657-11.53125 12.285156-33.722657 21.976562-59.363281 25.929687-6.785157 1.046875-13.464844 1.636719-19.972657 1.773438 11.730469 9.386718 20.171875 20.421875 22.890625 30.082031.335938 1.183594.105469 2.453125-.621094 3.445313-.730468.992187-1.875 1.59375-3.101562 1.636718-11.054688.339844-25.628906-5.367187-39.152344-15.273437-9.734375-7.132813-17.753906-15.722657-22.507812-23.933594-4.75 8.207031-12.769532 16.796875-22.503906 23.933594-13.128907 9.625-27.3125 15.289062-38.191407 15.289062zm31.53125-43.578125c1.722657 0 3.273438 1.113282 3.804688 2.777344.570312 1.773438-.15625 3.703125-1.753907 4.65625-2.425781 1.453125-4.839843 3.054688-7.179687 4.765625-9.523437 6.980469-17.148437 15.324219-21.105469 22.875 8.390625-1.5 18.640625-6.257813 28.167969-13.238281 11.054687-8.101563 19.5625-18.03125 22.753906-26.566406.339844-.910157 1.003907-1.664063 1.859375-2.125l.550782-.28125c.675781-.375 1.453124-.550782 2.21875-.488282.671874.003906 1.351562.167969 1.929687.492188l.542969.277344c.859375.457031 1.519531 1.214843 1.859375 2.125 3.195312 8.535156 11.699219 18.464843 22.753906 26.566406 9.527344 6.980468 19.777344 11.738281 28.167969 13.234375-3.957032-7.550781-11.582032-15.890625-21.109375-22.875-2.339844-1.710938-4.753907-3.316407-7.175781-4.761719-1.597657-.957031-2.324219-2.886719-1.753907-4.660156.570313-1.769532 2.304688-2.898438 4.136719-2.761719 9.917969.828125 20.890625.378906 31.738281-1.292969 20.75-3.199218 39.484375-10.554687 50.628907-19.675781-13.375-5.335937-33.460938-6.707031-54.207032-3.511719-2.5.386719-5.0625.859375-7.84375 1.441406-1.835937.382813-3.675781-.550781-4.457031-2.246093-.78125-1.699219-.28125-3.707031 1.199219-4.84375 6.195312-4.753907 12.207031-10.039063 17.871094-15.703125 19.300781-19.300782 33.144531-41.546875 37.273437-59.5-17.957031 4.125-40.199219 17.96875-59.5 37.269531-7.441406 7.445313-14.128906 15.375-19.878906 23.574219-1.105469 1.578125-3.175781 2.140625-4.933594 1.34375-1.75-.796875-2.6875-2.730469-2.226563-4.601563 3.910157-15.847656 5.976563-33.84375 5.976563-52.039062 0-35.859375-8.015625-69.355469-21.144531-89.300781-13.125 19.945312-21.140625 53.441406-21.140625 89.300781 0 18.191406 2.066406 36.1875 5.976562 52.039062.460938 1.871094-.476562 3.804688-2.226562 4.601563s-3.824219.230468-4.929688-1.34375c-5.75-8.199219-12.441406-16.128906-19.882812-23.574219-19.300781-19.300781-41.546875-33.144531-59.5-37.269531 4.125 17.953125 17.972656 40.195312 37.273437 59.5 5.664063 5.664062 11.675782 10.949218 17.871094 15.703125 1.476562 1.136719 1.976562 3.144531 1.195312 4.84375-.777343 1.695312-2.617187 2.625-4.453124 2.246093-2.78125-.582031-5.347657-1.054687-7.847657-1.441406-20.746093-3.195312-40.828125-1.828125-54.203125 3.511719 11.144532 9.121094 29.882813 16.476563 50.628906 19.675781 10.847657 1.671875 21.820313 2.121094 31.734376 1.292969.117187-.003906.226562-.011719.339843-.011719zm0 0" fill="#690589"/><path d="m190.359375 376.949219h-134.902344c-9.699219 0-17.5625-7.859375-17.5625-17.5625 0-9.699219 7.863281-17.5625 17.5625-17.5625h134.902344c9.699219 0 17.5625 7.863281 17.5625 17.5625 0 9.703125-7.863281 17.5625-17.5625 17.5625zm0 0" fill="#fcc24c"/><path d="m154.410156 500h-63.003906c-10.75 0-19.957031-7.695312-21.867188-18.273438l-18.921874-104.777343h144.585937l-18.921875 104.777343c-1.914062 10.578126-11.121094 18.273438-21.871094 18.273438zm0 0" fill="#fcc24c"/><path d="m174.511719 376.949219-18.921875 104.777343c-1.910156 10.578126-11.121094 18.273438-21.867188 18.273438h20.691406c10.75 0 19.957032-7.695312 21.867188-18.273438l18.921875-104.777343zm0 0" fill="#dea42e"/><path d="m71.304688 376.949219 18.921874 104.777343c1.910157 10.578126 11.121094 18.273438 21.867188 18.273438h-20.691406c-10.75 0-19.957032-7.695312-21.867188-18.273438l-18.921875-104.777343zm0 0" fill="#fce06a"/><path d="m190.359375 341.824219h-20.691406c9.699219 0 17.5625 7.863281 17.5625 17.5625 0 9.703125-7.863281 17.5625-17.5625 17.5625h20.691406c9.699219 0 17.5625-7.859375 17.5625-17.5625 0-9.699219-7.863281-17.5625-17.5625-17.5625zm0 0" fill="#dea42e"/><path d="m55.457031 376.949219h20.691407c-9.699219 0-17.5625-7.859375-17.5625-17.5625 0-9.699219 7.863281-17.5625 17.5625-17.5625h-20.691407c-9.699219 0-17.5625 7.863281-17.5625 17.5625 0 9.703125 7.863281 17.5625 17.5625 17.5625zm0 0" fill="#fce06a"/><g fill="#690589"><path d="m190.359375 380.949219h-134.902344c-11.890625 0-21.5625-9.671875-21.5625-21.5625s9.671875-21.5625 21.5625-21.5625h134.902344c11.890625 0 21.5625 9.671875 21.5625 21.5625s-9.671875 21.5625-21.5625 21.5625zm-134.902344-35.125c-7.476562 0-13.5625 6.085937-13.5625 13.5625 0 7.480469 6.085938 13.5625 13.5625 13.5625h134.902344c7.476563 0 13.5625-6.082031 13.5625-13.5625 0-7.476563-6.085937-13.5625-13.5625-13.5625zm0 0"/><path d="m154.410156 504h-63.003906c-12.695312 0-23.546875-9.066406-25.804688-21.5625l-18.921874-104.777344c-.210938-1.164062.105468-2.363281.867187-3.273437.757813-.910157 1.882813-1.4375 3.070313-1.4375h144.585937c1.183594 0 2.308594.527343 3.070313 1.4375.757812.910156 1.074218 2.109375.863281 3.273437l-18.921875 104.777344c-2.257813 12.496094-13.105469 21.5625-25.804688 21.5625zm-99.007812-123.050781 18.070312 100.066406c1.570313 8.683594 9.113282 14.984375 17.933594 14.984375h63.003906c8.824219 0 16.367188-6.300781 17.933594-14.984375l18.070312-100.066406zm0 0"/><path d="m76.496094 423.835938c-1.898438 0-3.582032-1.355469-3.933594-3.289063l-4.800781-26.589844c-.390625-2.175781 1.050781-4.253906 3.226562-4.648437 2.167969-.390625 4.253907 1.050781 4.648438 3.226562l4.800781 26.589844c.394531 2.171875-1.050781 4.253906-3.226562 4.648438-.238282.042968-.480469.0625-.714844.0625zm0 0"/></g><path d="m63.515625 72.410156c-17.554687 0-28.523437-19.003906-19.746094-34.203125l19.746094-34.207031 19.75 34.203125c8.777344 15.203125-2.195313 34.207031-19.75 34.207031zm0 0" fill="#f4efed"/><path d="m122.90625 72.410156c-17.550781 0-28.523438-19.003906-19.746094-34.203125l19.746094-34.207031 19.75 34.203125c8.777344 15.203125-2.195312 34.207031-19.75 34.207031zm0 0" fill="#f4efed"/><path d="m182.300781 72.410156c-17.554687 0-28.523437-19.003906-19.75-34.203125l19.75-34.207031 19.746094 34.203125c8.777344 15.203125-2.191406 34.207031-19.746094 34.207031zm0 0" fill="#f4efed"/><path d="m63.515625 76.410156c-9.691406 0-18.367187-5.011718-23.210937-13.402344-4.84375-8.390624-4.84375-18.410156 0-26.800781l19.746093-34.207031c.714844-1.238281 2.039063-2 3.464844-2 1.429687 0 2.75.761719 3.464844 2l19.746093 34.207031c4.84375 8.390625 4.847657 18.410157 0 26.800781-4.84375 8.390626-13.519531 13.402344-23.210937 13.402344zm0-64.410156-16.285156 28.207031c-3.394531 5.886719-3.394531 12.914063 0 18.800781 3.398437 5.886719 9.488281 9.402344 16.285156 9.402344s12.886719-3.515625 16.285156-9.402344c3.398438-5.886718 3.398438-12.914062 0-18.800781zm0 0" fill="#690589"/><path d="m122.90625 76.410156c-9.6875 0-18.367188-5.011718-23.210938-13.402344-4.84375-8.390624-4.84375-18.410156 0-26.800781l19.75-34.207031c.710938-1.238281 2.035157-2 3.460938-2 1.429688 0 2.75.761719 3.464844 2l19.75 34.207031c4.84375 8.390625 4.84375 18.410157 0 26.800781-4.84375 8.390626-13.523438 13.402344-23.214844 13.402344zm0-64.410156-16.28125 28.207031c-3.398438 5.886719-3.398438 12.914063 0 18.800781 3.398438 5.886719 9.484375 9.402344 16.28125 9.402344 6.800781 0 12.886719-3.515625 16.289062-9.402344 3.398438-5.886718 3.398438-12.914062-.003906-18.800781zm0 0" fill="#690589"/><path d="m182.296875 76.410156c-9.6875 0-18.363281-5.011718-23.207031-13.402344-4.84375-8.390624-4.847656-18.410156-.003906-26.800781l19.75-34.207031c.710937-1.238281 2.035156-2 3.460937-2 1.429687 0 2.75.761719 3.464844 2l19.75 34.207031c4.84375 8.390625 4.84375 18.410157 0 26.800781-4.84375 8.390626-13.523438 13.402344-23.214844 13.402344zm0-64.410156-16.28125 28.207031c-3.398437 5.886719-3.398437 12.914063 0 18.800781 3.398437 5.886719 9.484375 9.402344 16.28125 9.402344 6.800781 0 12.886719-3.515625 16.289063-9.402344 3.394531-5.886718 3.394531-12.914062-.003907-18.800781zm0 0" fill="#690589"/></svg>