<svg height="504pt" viewBox="-79 0 504 504" width="504pt" xmlns="http://www.w3.org/2000/svg"><path d="m4 4h337.523438v496h-337.523438zm0 0" fill="#f4efed"/><path d="m321.523438 4h20v496h-20zm0 0" fill="#d6d1cf"/><path d="m4 4h20v496h-20zm0 0" fill="#fff"/><path d="m4 48.84375h337.523438v35.847656h-337.523438zm0 0" fill="#fcc24c"/><path d="m4 48.84375h20v35.847656h-20zm0 0" fill="#fce06a"/><path d="m321.523438 48.84375h20v35.847656h-20zm0 0" fill="#dea42e"/><path d="m248.582031 375.113281c31.148438-4.804687 57.144531-16.664062 69.945313-30.296875-16.3125-9.144531-44.671875-12.621094-75.820313-7.820312-3.359375.519531-6.648437 1.132812-9.878906 1.808594 7.554687-5.800782 15.085937-12.371094 22.386719-19.671876 27.9375-27.9375 45.433594-59.1875 48.273437-82.453124-23.269531 2.839843-54.519531 20.335937-82.453125 48.269531-9.609375 9.609375-17.949218 19.613281-24.917968 29.546875 4.761718-19.304688 7.46875-41.4375 7.46875-64.96875 0-50.382813-12.402344-94.339844-30.824219-117.878906-18.421875 23.542968-30.824219 67.496093-30.824219 117.878906 0 23.53125 2.707031 45.664062 7.46875 64.96875-6.964844-9.933594-15.304688-19.9375-24.917969-29.546875-27.933593-27.933594-59.183593-45.429688-82.453125-48.269531 2.839844 23.265624 20.335938 54.515624 48.273438 82.453124 7.300781 7.300782 14.832031 13.871094 22.386718 19.671876-3.230468-.675782-6.515624-1.292969-9.878906-1.808594-31.148437-4.804688-59.507812-1.324219-75.820312 7.820312 12.800781 13.632813 38.796875 25.492188 69.945312 30.296875 14.238282 2.191407 27.871094 2.640625 40.0625 1.625-3.066406 1.832031-6.136718 3.867188-9.183594 6.097657-16.117187 11.808593-27.273437 26.085937-30.484374 37.5 11.847656.371093 28.820312-5.964844 44.941406-17.777344 14.871094-10.902344 25.503906-23.894532 29.585937-34.800782.238281-.128906.496094-.25.734375-.378906.050782.003906.109375.019532.167969.023438.050781-.003906.109375-.019532.167969-.023438.234375.128906.492187.25.730468.378906 4.082032 10.90625 14.714844 23.898438 29.589844 34.800782 16.117188 11.8125 33.089844 18.148437 44.941406 17.777344-3.214843-11.414063-14.371093-25.691407-30.488281-37.5-3.042969-2.230469-6.117187-4.265626-9.179687-6.097657 12.183594 1.019531 25.820312.570313 40.054687-1.625zm0 0" fill="#7bac51"/><path d="m55.566406 239.699219c3.90625 22.90625 21.070313 52.6875 47.820313 79.4375 4.804687 4.804687 9.710937 9.292969 14.65625 13.457031 1.96875 1.652344.496093 4.8125-2.046875 4.421875-.03125-.003906-.066406-.007813-.097656-.015625-2.214844-.34375-4.414063-.628906-6.601563-.890625-6.410156-5.125-12.78125-10.765625-18.988281-16.972656-27.933594-27.9375-45.429688-59.1875-48.269532-82.453125 4.261719.519531 8.796876 1.535156 13.527344 3.015625zm0 0" fill="#99ca6f"/><path d="m81.875 334.984375c-17.070312.710937-31.734375 4.1875-41.800781 9.832031 12.800781 13.632813 38.792969 25.492188 69.945312 30.296875 7.027344 1.082031 13.910157 1.738281 20.542969 2.003907-10.480469.414062-21.839844-.1875-33.621094-2.003907-31.152344-4.804687-57.144531-16.664062-69.945312-30.296875 12.558594-7.039062 32.269531-10.699218 54.878906-9.832031zm0 0" fill="#99ca6f"/><path d="m127.820312 382.835938c2.769532-2.03125 5.5625-3.886719 8.355469-5.589844 1 .011718 1.996094.007812 2.984375-.003906 2.992188-.03125 4.246094 3.757812 1.828125 5.527343-.027343.019531-.058593.042969-.089843.066407-15.222657 11.15625-26.011719 24.503906-29.871094 35.566406-5 1.386718-9.648438 2.0625-13.695313 1.933594 3.214844-11.414063 14.371094-25.6875 30.488281-37.5zm0 0" fill="#99ca6f"/><path d="m149.40625 314.496094c6.605469 0 11.597656-5.992188 10.363281-12.480469-3.0625-16.148437-4.753906-33.878906-4.753906-52.488281 0 0-1.085937-81.460938 17.746094-117.878906-18.421875 23.542968-30.824219 67.5-30.824219 117.878906 0 15.179687 1.136719 29.761718 3.214844 43.390625zm0 0" fill="#99ca6f"/><path d="m289.957031 239.699219c-3.90625 22.90625-21.070312 52.6875-47.820312 79.4375-4.804688 4.804687-9.707031 9.292969-14.65625 13.457031-1.964844 1.652344-.496094 4.8125 2.046875 4.421875.03125-.003906.066406-.007813.097656-.015625 2.21875-.34375 4.414062-.628906 6.601562-.890625 6.410157-5.125 12.78125-10.765625 18.988282-16.972656 27.933594-27.9375 45.429687-59.1875 48.269531-82.453125-4.261719.519531-8.796875 1.535156-13.527344 3.015625zm0 0" fill="#5d8e33"/><path d="m263.648438 334.984375c17.070312.710937 31.734374 4.1875 41.800781 9.832031-12.800781 13.632813-38.792969 25.492188-69.941407 30.296875-7.03125 1.082031-13.910156 1.738281-20.546874 2.003907 10.480468.414062 21.839843-.1875 33.625-2.003907 31.148437-4.804687 57.140624-16.664062 69.941406-30.296875-12.558594-7.039062-32.265625-10.699218-54.878906-9.832031zm0 0" fill="#5d8e33"/><path d="m217.703125 382.835938c-2.769531-2.03125-5.5625-3.886719-8.351563-5.589844-1 .011718-1.996093.007812-2.984374-.003906-2.996094-.03125-4.246094 3.757812-1.832032 5.527343.03125.019531.0625.042969.09375.066407 15.222656 11.15625 26.007813 24.503906 29.867188 35.566406 5 1.386718 9.652344 2.0625 13.699218 1.933594-3.21875-11.414063-14.375-25.6875-30.492187-37.5zm0 0" fill="#5d8e33"/><path d="m196.117188 314.496094c-6.605469 0-11.59375-5.992188-10.363282-12.480469 3.0625-16.148437 4.757813-33.878906 4.757813-52.488281 0 0 1.085937-81.460938-17.746094-117.878906 18.417969 23.542968 30.824219 67.5 30.824219 117.878906 0 15.179687-1.140625 29.761718-3.21875 43.390625zm0 0" fill="#5d8e33"/><g fill="#690589"><path d="m172.761719 424.050781c-2.207031 0-4-1.792969-4-4v-52.757812c0-2.207031 1.792969-4 4-4s4 1.792969 4 4v52.757812c0 2.210938-1.792969 4-4 4zm0 0"/><path d="m247.171875 424.351562c-13.144531.003907-30.335937-6.875-46.285156-18.566406-12.398438-9.082031-22.496094-20.089844-28.125-30.453125-5.628907 10.363281-15.726563 21.371094-28.125 30.453125-16.417969 12.035156-34.140625 19-47.429688 18.550782-1.230469-.042969-2.375-.640626-3.101562-1.632813-.726563-.992187-.957031-2.265625-.625-3.449219 3.441406-12.210937 14.488281-26.273437 29.773437-37.992187-8.742187-.046875-17.75-.78125-26.921875-2.195313-31.242187-4.820312-58.253906-16.601562-72.25-31.511718-.84375-.898438-1.222656-2.132813-1.039062-3.347657.1875-1.21875.925781-2.277343 2-2.878906 16.910156-9.480469 44.121093-12.757813 73.515625-8.972656-3.785156-3.328125-7.488282-6.800781-11.078125-10.390625-27.863281-27.863282-46.335938-59.5625-49.414063-84.800782-.148437-1.21875.273438-2.441406 1.140625-3.308593.867188-.875 2.089844-1.292969 3.3125-1.144531 25.238281 3.082031 56.9375 21.554687 84.796875 49.414062 5.171875 5.171875 10.058594 10.53125 14.625 16.03125-2.632812-15.476562-4-31.996094-4-48.625 0-49.261719 12.132813-95.375 31.671875-120.34375 1.515625-1.9375 4.78125-1.9375 6.296875 0 19.539063 24.964844 31.675782 71.082031 31.675782 120.34375 0 16.628906-1.371094 33.148438-4.003907 48.625 4.566407-5.503906 9.453125-10.859375 14.625-16.03125 27.859375-27.859375 59.558594-46.332031 84.796875-49.414062 1.210938-.148438 2.445313.273437 3.3125 1.144531.871094.867187 1.292969 2.089843 1.140625 3.308593-3.078125 25.238282-21.550781 56.941407-49.414062 84.800782-3.589844 3.589844-7.289063 7.0625-11.078125 10.390625 29.394531-3.78125 56.601562-.507813 73.515625 8.972656 1.074219.601563 1.8125 1.660156 2 2.878906.1875 1.214844-.195313 2.449219-1.039063 3.347657-13.996094 14.910156-41.007812 26.691406-72.25 31.511718-9.171875 1.414063-18.179687 2.144532-26.917968 2.195313 15.28125 11.71875 26.332031 25.78125 29.769531 37.992187.332031 1.183594.101562 2.457032-.625 3.449219-.726563.992187-1.871094 1.59375-3.101563 1.632813-.378906.011718-.761718.015624-1.144531.015624zm-72.292969-60.464843.675782.34375c.855468.460937 1.511718 1.214843 1.855468 2.125 3.96875 10.617187 14.511719 22.941406 28.203125 32.972656 12.441407 9.117187 25.914063 15.175781 36.65625 16.664063-4.65625-9.792969-14.488281-20.8125-26.929687-29.933594-2.878906-2.109375-5.863282-4.089844-8.867188-5.886719-1.597656-.957031-2.328125-2.886719-1.753906-4.65625.570312-1.773437 2.28125-2.910156 4.140625-2.761719 12.210937 1.015625 25.742187.464844 39.117187-1.597656 26.300782-4.054688 50.007813-13.550781 63.644532-25.277344-16.53125-7.070312-41.996094-8.980468-68.304688-4.929687-3.070312.472656-6.230468 1.050781-9.664062 1.769531-1.832032.375-3.675782-.546875-4.453125-2.246094-.78125-1.695312-.285157-3.703125 1.195312-4.839844 7.625-5.855468 15.023438-12.359374 21.996094-19.328124 24.265625-24.269532 41.539063-52.351563 46.234375-74.765626-22.414062 4.699219-50.492188 21.96875-74.761719 46.238282-9.15625 9.15625-17.390625 18.917968-24.472656 29.015625-1.105469 1.574219-3.175781 2.144531-4.929687 1.34375-1.75-.796875-2.6875-2.730469-2.226563-4.597657 4.808594-19.503906 7.355469-41.640624 7.355469-64.015624 0-44.796876-10.191406-86.636719-26.824219-111.089844-16.632813 24.453125-26.824219 66.289062-26.824219 111.089844 0 22.375 2.539063 44.511718 7.351563 64.015624.460937 1.867188-.476563 3.800782-2.226563 4.597657-1.75.800781-3.824218.230469-4.929687-1.34375-7.078125-10.089844-15.3125-19.855469-24.472657-29.015625-24.269531-24.269532-52.347656-41.542969-74.761718-46.238282 4.699218 22.414063 21.96875 50.496094 46.238281 74.765626 6.972656 6.96875 14.371094 13.472656 21.992187 19.328124 1.480469 1.136719 1.980469 3.144532 1.199219 4.839844-.78125 1.699219-2.625 2.625-4.453125 2.246094-3.433594-.714844-6.59375-1.296875-9.667968-1.769531-26.300782-4.054688-51.765626-2.144531-68.304688 4.929687 13.636719 11.722656 37.34375 21.222656 63.648438 25.277344 13.375 2.0625 26.902343 2.613281 39.117187 1.597656 1.855469-.148437 3.570313.988282 4.140625 2.761719.570312 1.769531-.160156 3.703125-1.753906 4.65625-3.003906 1.796875-5.988282 3.777344-8.867188 5.886719-12.441406 9.121094-22.277344 20.140625-26.929687 29.933594 10.742187-1.488282 24.210937-7.542969 36.652343-16.664063 13.691407-10.03125 24.234376-22.359375 28.207032-32.972656.339844-.910157 1-1.664063 1.855468-2.125l.671876-.347657c.765624-.425781 1.652343-.59375 2.515624-.464843.039063.003906.160157.023437.199219.03125l-.515625 3.441406.089844.488281zm73.703125 11.226562h.019531zm0 0"/><path d="m341.523438 504h-337.523438c-2.207031 0-4-1.792969-4-4v-496c0-2.207031 1.792969-4 4-4h337.523438c2.207031 0 4 1.792969 4 4v496c0 2.207031-1.792969 4-4 4zm-333.523438-8h329.523438v-488h-329.523438zm0 0"/><path d="m20 178.507812c-2.207031 0-4-1.792968-4-4v-24c0-2.207031 1.792969-4 4-4s4 1.792969 4 4v24c0 2.207032-1.792969 4-4 4zm0 0"/><path d="m341.523438 88.695312h-337.523438c-2.207031 0-4-1.792968-4-4v-35.851562c0-2.207031 1.792969-4 4-4h337.523438c2.207031 0 4 1.792969 4 4v35.851562c0 2.207032-1.792969 4-4 4zm-333.523438-8h329.523438v-27.851562h-329.523438zm0 0"/><path d="m308.273438 70.769531h-271.027344c-2.207032 0-4-1.792969-4-4 0-2.210937 1.792968-4 4-4h271.027344c2.207031 0 4 1.789063 4 4 0 2.207031-1.789063 4-4 4zm0 0"/></g><path d="m25.113281 66.769531h26.980469v52.011719h-26.980469zm0 0" fill="#fcc24c"/><path d="m52.09375 122.785156h-26.980469c-2.207031 0-4-1.792968-4-4v-52.015625c0-2.210937 1.792969-4 4-4h26.980469c2.207031 0 4 1.789063 4 4v52.015625c0 2.207032-1.792969 4-4 4zm-22.980469-8h18.980469v-44.015625h-18.980469zm0 0" fill="#690589"/></svg>